<?xml version="1.0" encoding="utf-8" standalone="no"?>
<!DOCTYPE svg PUBLIC "-//W3C//DTD SVG 1.1//EN"
  "http://www.w3.org/Graphics/SVG/1.1/DTD/svg11.dtd">
<svg xmlns:xlink="http://www.w3.org/1999/xlink" width="782.762528pt" height="250.56pt" viewBox="0 0 782.762528 250.56" xmlns="http://www.w3.org/2000/svg" version="1.1">
 <metadata>
  <rdf:RDF xmlns:dc="http://purl.org/dc/elements/1.1/" xmlns:cc="http://creativecommons.org/ns#" xmlns:rdf="http://www.w3.org/1999/02/22-rdf-syntax-ns#">
   <cc:Work>
    <dc:type rdf:resource="http://purl.org/dc/dcmitype/StillImage"/>
    <dc:date>2022-12-02T20:15:38.725650</dc:date>
    <dc:format>image/svg+xml</dc:format>
    <dc:creator>
     <cc:Agent>
      <dc:title>Matplotlib v3.5.1, https://matplotlib.org/</dc:title>
     </cc:Agent>
    </dc:creator>
   </cc:Work>
  </rdf:RDF>
 </metadata>
 <defs>
  <style type="text/css">*{stroke-linejoin: round; stroke-linecap: butt}</style>
 </defs>
 <g id="figure_1">
  <g id="patch_1">
   <path d="M 0 250.56 
L 782.762528 250.56 
L 782.762528 -0 
L 0 -0 
L 0 250.56 
z
" style="fill: none"/>
  </g>
  <g id="axes_1">
   <g id="patch_2">
    <path d="M 51.716875 205.068125 
L 207.690938 205.068125 
L 207.690938 49.094062 
L 51.716875 49.094062 
z
" style="fill: #ffffff"/>
   </g>
   <g id="PolyCollection_1">
    <defs>
     <path id="mf9c4cceb1b" d="M 58.806605 -49.8212 
L 58.806605 -49.592047 
L 61.169848 -50.187404 
L 63.533092 -50.183005 
L 65.896335 -50.58151 
L 68.259579 -50.868202 
L 70.622822 -51.051747 
L 72.986065 -50.999043 
L 75.349309 -51.851327 
L 77.712552 -51.758363 
L 80.075795 -52.24699 
L 82.439039 -52.440875 
L 84.802282 -52.597928 
L 87.165526 -53.048581 
L 89.528769 -53.434478 
L 91.892012 -53.380009 
L 94.255256 -53.833034 
L 96.618499 -53.95363 
L 98.981742 -54.237028 
L 101.344986 -54.775256 
L 103.708229 -55.149193 
L 106.071473 -55.452028 
L 108.434716 -55.965401 
L 110.797959 -55.924618 
L 113.161203 -56.379111 
L 115.524446 -56.469335 
L 117.887689 -56.784278 
L 120.250933 -57.156941 
L 122.614176 -57.498819 
L 124.97742 -57.6422 
L 127.340663 -58.12377 
L 129.703906 -58.350261 
L 132.06715 -58.633261 
L 134.430393 -58.783894 
L 136.793636 -58.902304 
L 139.15688 -59.196211 
L 141.520123 -59.564809 
L 143.883366 -59.533636 
L 146.24661 -59.80202 
L 148.609853 -59.903044 
L 150.973097 -60.059797 
L 153.33634 -59.679864 
L 155.699583 -60.066403 
L 158.062827 -60.300863 
L 160.42607 -60.347448 
L 162.789313 -60.208656 
L 165.152557 -59.947498 
L 167.5158 -60.092295 
L 169.879044 -60.26761 
L 172.242287 -60.621332 
L 174.60553 -60.748179 
L 176.968774 -60.548949 
L 179.332017 -61.097189 
L 181.69526 -60.829297 
L 184.058504 -61.210059 
L 186.421747 -60.999505 
L 188.784991 -61.460105 
L 191.148234 -61.359617 
L 193.511477 -61.383119 
L 195.874721 -61.475186 
L 198.237964 -61.706417 
L 200.601207 -61.884248 
L 200.601207 -63.214399 
L 200.601207 -63.214399 
L 198.237964 -63.014225 
L 195.874721 -63.018653 
L 193.511477 -62.921718 
L 191.148234 -62.510515 
L 188.784991 -62.844732 
L 186.421747 -62.870627 
L 184.058504 -62.622273 
L 181.69526 -62.511629 
L 179.332017 -62.300437 
L 176.968774 -62.508474 
L 174.60553 -62.214743 
L 172.242287 -62.209288 
L 169.879044 -61.958203 
L 167.5158 -61.850015 
L 165.152557 -62.032613 
L 162.789313 -61.563552 
L 160.42607 -61.538161 
L 158.062827 -61.641447 
L 155.699583 -61.516803 
L 153.33634 -61.846641 
L 150.973097 -61.334406 
L 148.609853 -60.980854 
L 146.24661 -61.23308 
L 143.883366 -61.23686 
L 141.520123 -60.808782 
L 139.15688 -60.685975 
L 136.793636 -60.507377 
L 134.430393 -60.663587 
L 132.06715 -59.98261 
L 129.703906 -60.076608 
L 127.340663 -59.603791 
L 124.97742 -59.348252 
L 122.614176 -58.924627 
L 120.250933 -58.8507 
L 117.887689 -58.278352 
L 115.524446 -57.799486 
L 113.161203 -57.511705 
L 110.797959 -56.926686 
L 108.434716 -56.281096 
L 106.071473 -56.473165 
L 103.708229 -55.793189 
L 101.344986 -55.354417 
L 98.981742 -54.890932 
L 96.618499 -54.909727 
L 94.255256 -54.406617 
L 91.892012 -54.141433 
L 89.528769 -53.746761 
L 87.165526 -53.263247 
L 84.802282 -53.222494 
L 82.439039 -52.944842 
L 80.075795 -52.874124 
L 77.712552 -53.098148 
L 75.349309 -52.419278 
L 72.986065 -52.194249 
L 70.622822 -51.74464 
L 68.259579 -51.209977 
L 65.896335 -50.967463 
L 63.533092 -50.893462 
L 61.169848 -50.416557 
L 58.806605 -49.8212 
z
" style="stroke: #f08080; stroke-opacity: 0.2"/>
    </defs>
    <g clip-path="url(#p442cee25a8)">
     <use xlink:href="#mf9c4cceb1b" x="0" y="250.56" style="fill: #f08080; fill-opacity: 0.2; stroke: #f08080; stroke-opacity: 0.2"/>
    </g>
   </g>
   <g id="PolyCollection_2">
    <defs>
     <path id="m196b53ba59" d="M 58.806605 -50.173247 
L 58.806605 -46.064764 
L 61.169848 -46.224323 
L 63.533092 -46.187309 
L 65.896335 -46.241097 
L 68.259579 -46.26945 
L 70.622822 -46.626485 
L 72.986065 -46.478679 
L 75.349309 -46.464503 
L 77.712552 -46.392395 
L 80.075795 -46.542052 
L 82.439039 -46.611218 
L 84.802282 -46.385149 
L 87.165526 -46.491209 
L 89.528769 -46.798523 
L 91.892012 -46.805857 
L 94.255256 -46.738857 
L 96.618499 -46.861036 
L 98.981742 -46.819282 
L 101.344986 -46.722466 
L 103.708229 -46.784951 
L 106.071473 -46.630755 
L 108.434716 -46.839563 
L 110.797959 -47.010229 
L 113.161203 -47.076582 
L 115.524446 -46.947284 
L 117.887689 -47.195147 
L 120.250933 -47.180853 
L 122.614176 -47.132475 
L 124.97742 -46.91848 
L 127.340663 -47.344201 
L 129.703906 -47.231763 
L 132.06715 -47.154255 
L 134.430393 -47.221215 
L 136.793636 -47.156093 
L 139.15688 -47.04842 
L 141.520123 -47.125028 
L 143.883366 -47.653351 
L 146.24661 -47.53633 
L 148.609853 -47.589609 
L 150.973097 -47.263339 
L 153.33634 -47.302583 
L 155.699583 -47.290149 
L 158.062827 -47.42504 
L 160.42607 -47.398697 
L 162.789313 -47.461685 
L 165.152557 -47.609765 
L 167.5158 -47.237021 
L 169.879044 -47.43389 
L 172.242287 -47.373847 
L 174.60553 -47.340537 
L 176.968774 -47.500554 
L 179.332017 -47.450451 
L 181.69526 -47.45392 
L 184.058504 -47.825265 
L 186.421747 -47.590359 
L 188.784991 -47.796078 
L 191.148234 -47.598999 
L 193.511477 -47.740456 
L 195.874721 -47.444686 
L 198.237964 -47.472719 
L 200.601207 -47.429423 
L 200.601207 -65.27068 
L 200.601207 -65.27068 
L 198.237964 -65.170683 
L 195.874721 -64.556108 
L 193.511477 -64.789544 
L 191.148234 -64.723099 
L 188.784991 -64.733923 
L 186.421747 -64.82624 
L 184.058504 -64.496833 
L 181.69526 -64.20667 
L 179.332017 -64.096738 
L 176.968774 -64.027735 
L 174.60553 -63.677446 
L 172.242287 -63.889838 
L 169.879044 -63.980997 
L 167.5158 -63.932164 
L 165.152557 -63.200315 
L 162.789313 -63.537397 
L 160.42607 -63.222381 
L 158.062827 -62.931435 
L 155.699583 -63.179727 
L 153.33634 -62.940491 
L 150.973097 -62.734032 
L 148.609853 -62.634564 
L 146.24661 -62.650043 
L 143.883366 -62.36292 
L 141.520123 -62.683341 
L 139.15688 -62.268543 
L 136.793636 -62.17977 
L 134.430393 -62.114648 
L 132.06715 -62.049307 
L 129.703906 -62.028499 
L 127.340663 -61.046651 
L 124.97742 -60.980967 
L 122.614176 -60.653571 
L 120.250933 -60.624092 
L 117.887689 -60.080592 
L 115.524446 -59.572447 
L 113.161203 -59.197445 
L 110.797959 -58.602291 
L 108.434716 -58.546155 
L 106.071473 -58.093454 
L 103.708229 -57.353352 
L 101.344986 -57.340236 
L 98.981742 -56.657513 
L 96.618499 -56.559059 
L 94.255256 -56.03863 
L 91.892012 -55.385724 
L 89.528769 -54.977253 
L 87.165526 -54.71756 
L 84.802282 -54.332214 
L 82.439039 -54.143946 
L 80.075795 -53.891808 
L 77.712552 -53.60676 
L 75.349309 -53.288948 
L 72.986065 -52.669966 
L 70.622822 -52.011854 
L 68.259579 -52.028685 
L 65.896335 -51.603433 
L 63.533092 -51.146915 
L 61.169848 -50.694096 
L 58.806605 -50.173247 
z
" style="stroke: #ff0000; stroke-opacity: 0.2"/>
    </defs>
    <g clip-path="url(#p442cee25a8)">
     <use xlink:href="#m196b53ba59" x="0" y="250.56" style="fill: #ff0000; fill-opacity: 0.2; stroke: #ff0000; stroke-opacity: 0.2"/>
    </g>
   </g>
   <g id="PolyCollection_3">
    <defs>
     <path id="m4ef0570b0b" d="M 58.806605 -49.61984 
L 58.806605 -49.415403 
L 61.169848 -49.84399 
L 63.533092 -49.808449 
L 65.896335 -50.334719 
L 68.259579 -50.339781 
L 70.622822 -50.619064 
L 72.986065 -50.973799 
L 75.349309 -51.283343 
L 77.712552 -51.21062 
L 80.075795 -52.022083 
L 82.439039 -52.002307 
L 84.802282 -52.260321 
L 87.165526 -52.479499 
L 89.528769 -53.004712 
L 91.892012 -53.032069 
L 94.255256 -53.237137 
L 96.618499 -53.549195 
L 98.981742 -54.026508 
L 101.344986 -54.092575 
L 103.708229 -54.432731 
L 106.071473 -54.629418 
L 108.434716 -55.139032 
L 110.797959 -55.563601 
L 113.161203 -55.707166 
L 115.524446 -56.045585 
L 117.887689 -56.350512 
L 120.250933 -56.89863 
L 122.614176 -56.963854 
L 124.97742 -57.173975 
L 127.340663 -57.692686 
L 129.703906 -57.968146 
L 132.06715 -57.856722 
L 134.430393 -57.978606 
L 136.793636 -57.925158 
L 139.15688 -58.244741 
L 141.520123 -58.530099 
L 143.883366 -58.558001 
L 146.24661 -58.96019 
L 148.609853 -58.603216 
L 150.973097 -58.860259 
L 153.33634 -59.121612 
L 155.699583 -59.155404 
L 158.062827 -58.957244 
L 160.42607 -59.229433 
L 162.789313 -59.231725 
L 165.152557 -59.405702 
L 167.5158 -59.240414 
L 169.879044 -59.490317 
L 172.242287 -59.521387 
L 174.60553 -59.474354 
L 176.968774 -59.599626 
L 179.332017 -59.487356 
L 181.69526 -59.80904 
L 184.058504 -59.975564 
L 186.421747 -60.236413 
L 188.784991 -60.096164 
L 191.148234 -60.121729 
L 193.511477 -60.337139 
L 195.874721 -60.340827 
L 198.237964 -60.422826 
L 200.601207 -60.478324 
L 200.601207 -62.484598 
L 200.601207 -62.484598 
L 198.237964 -62.426695 
L 195.874721 -62.073988 
L 193.511477 -61.794173 
L 191.148234 -62.179685 
L 188.784991 -62.054048 
L 186.421747 -61.630296 
L 184.058504 -61.910045 
L 181.69526 -61.244959 
L 179.332017 -61.528843 
L 176.968774 -61.227571 
L 174.60553 -61.296143 
L 172.242287 -61.173508 
L 169.879044 -61.317979 
L 167.5158 -61.000876 
L 165.152557 -61.043491 
L 162.789313 -60.990665 
L 160.42607 -60.709454 
L 158.062827 -60.679239 
L 155.699583 -60.499979 
L 153.33634 -60.552672 
L 150.973097 -60.43602 
L 148.609853 -60.522961 
L 146.24661 -60.128187 
L 143.883366 -60.360274 
L 141.520123 -60.180273 
L 139.15688 -59.407219 
L 136.793636 -59.386598 
L 134.430393 -59.370951 
L 132.06715 -59.11483 
L 129.703906 -58.890004 
L 127.340663 -58.560657 
L 124.97742 -58.285559 
L 122.614176 -57.947574 
L 120.250933 -57.653694 
L 117.887689 -57.124499 
L 115.524446 -56.956921 
L 113.161203 -56.671633 
L 110.797959 -56.078089 
L 108.434716 -56.030153 
L 106.071473 -55.632556 
L 103.708229 -54.940933 
L 101.344986 -54.903084 
L 98.981742 -54.553346 
L 96.618499 -54.784957 
L 94.255256 -54.057502 
L 91.892012 -53.752264 
L 89.528769 -53.231515 
L 87.165526 -53.303123 
L 84.802282 -52.917494 
L 82.439039 -52.646302 
L 80.075795 -52.513125 
L 77.712552 -52.209475 
L 75.349309 -51.777648 
L 72.986065 -51.595786 
L 70.622822 -51.194512 
L 68.259579 -51.07689 
L 65.896335 -50.533846 
L 63.533092 -50.398608 
L 61.169848 -49.909462 
L 58.806605 -49.61984 
z
" style="stroke: #800000; stroke-opacity: 0.2"/>
    </defs>
    <g clip-path="url(#p442cee25a8)">
     <use xlink:href="#m4ef0570b0b" x="0" y="250.56" style="fill: #800000; fill-opacity: 0.2; stroke: #800000; stroke-opacity: 0.2"/>
    </g>
   </g>
   <g id="matplotlib.axis_1">
    <g id="xtick_1">
     <g id="line2d_1">
      <defs>
       <path id="mecf5ae0c97" d="M 0 0 
L 0 3.5 
" style="stroke: #000000; stroke-width: 0.8"/>
      </defs>
      <g>
       <use xlink:href="#mecf5ae0c97" x="58.806605" y="205.068125" style="stroke: #000000; stroke-width: 0.8"/>
      </g>
     </g>
     <g id="text_1">
      <!-- 0 -->
      <g transform="translate(55.625355 219.666562)scale(0.1 -0.1)">
       <defs>
        <path id="DejaVuSans-30" d="M 2034 4250 
Q 1547 4250 1301 3770 
Q 1056 3291 1056 2328 
Q 1056 1369 1301 889 
Q 1547 409 2034 409 
Q 2525 409 2770 889 
Q 3016 1369 3016 2328 
Q 3016 3291 2770 3770 
Q 2525 4250 2034 4250 
z
M 2034 4750 
Q 2819 4750 3233 4129 
Q 3647 3509 3647 2328 
Q 3647 1150 3233 529 
Q 2819 -91 2034 -91 
Q 1250 -91 836 529 
Q 422 1150 422 2328 
Q 422 3509 836 4129 
Q 1250 4750 2034 4750 
z
" transform="scale(0.015625)"/>
       </defs>
       <use xlink:href="#DejaVuSans-30"/>
      </g>
     </g>
    </g>
    <g id="xtick_2">
     <g id="line2d_2">
      <g>
       <use xlink:href="#mecf5ae0c97" x="117.887689" y="205.068125" style="stroke: #000000; stroke-width: 0.8"/>
      </g>
     </g>
     <g id="text_2">
      <!-- 100 -->
      <g transform="translate(108.343939 219.666562)scale(0.1 -0.1)">
       <defs>
        <path id="DejaVuSans-31" d="M 794 531 
L 1825 531 
L 1825 4091 
L 703 3866 
L 703 4441 
L 1819 4666 
L 2450 4666 
L 2450 531 
L 3481 531 
L 3481 0 
L 794 0 
L 794 531 
z
" transform="scale(0.015625)"/>
       </defs>
       <use xlink:href="#DejaVuSans-31"/>
       <use xlink:href="#DejaVuSans-30" x="63.623047"/>
       <use xlink:href="#DejaVuSans-30" x="127.246094"/>
      </g>
     </g>
    </g>
    <g id="xtick_3">
     <g id="line2d_3">
      <g>
       <use xlink:href="#mecf5ae0c97" x="176.968774" y="205.068125" style="stroke: #000000; stroke-width: 0.8"/>
      </g>
     </g>
     <g id="text_3">
      <!-- 200 -->
      <g transform="translate(167.425024 219.666562)scale(0.1 -0.1)">
       <defs>
        <path id="DejaVuSans-32" d="M 1228 531 
L 3431 531 
L 3431 0 
L 469 0 
L 469 531 
Q 828 903 1448 1529 
Q 2069 2156 2228 2338 
Q 2531 2678 2651 2914 
Q 2772 3150 2772 3378 
Q 2772 3750 2511 3984 
Q 2250 4219 1831 4219 
Q 1534 4219 1204 4116 
Q 875 4013 500 3803 
L 500 4441 
Q 881 4594 1212 4672 
Q 1544 4750 1819 4750 
Q 2544 4750 2975 4387 
Q 3406 4025 3406 3419 
Q 3406 3131 3298 2873 
Q 3191 2616 2906 2266 
Q 2828 2175 2409 1742 
Q 1991 1309 1228 531 
z
" transform="scale(0.015625)"/>
       </defs>
       <use xlink:href="#DejaVuSans-32"/>
       <use xlink:href="#DejaVuSans-30" x="63.623047"/>
       <use xlink:href="#DejaVuSans-30" x="127.246094"/>
      </g>
     </g>
    </g>
    <g id="text_4">
     <!-- Time (min) -->
     <g transform="translate(97.121094 240.864375)scale(0.12 -0.12)">
      <defs>
       <path id="DejaVuSans-54" d="M -19 4666 
L 3928 4666 
L 3928 4134 
L 2272 4134 
L 2272 0 
L 1638 0 
L 1638 4134 
L -19 4134 
L -19 4666 
z
" transform="scale(0.015625)"/>
       <path id="DejaVuSans-69" d="M 603 3500 
L 1178 3500 
L 1178 0 
L 603 0 
L 603 3500 
z
M 603 4863 
L 1178 4863 
L 1178 4134 
L 603 4134 
L 603 4863 
z
" transform="scale(0.015625)"/>
       <path id="DejaVuSans-6d" d="M 3328 2828 
Q 3544 3216 3844 3400 
Q 4144 3584 4550 3584 
Q 5097 3584 5394 3201 
Q 5691 2819 5691 2113 
L 5691 0 
L 5113 0 
L 5113 2094 
Q 5113 2597 4934 2840 
Q 4756 3084 4391 3084 
Q 3944 3084 3684 2787 
Q 3425 2491 3425 1978 
L 3425 0 
L 2847 0 
L 2847 2094 
Q 2847 2600 2669 2842 
Q 2491 3084 2119 3084 
Q 1678 3084 1418 2786 
Q 1159 2488 1159 1978 
L 1159 0 
L 581 0 
L 581 3500 
L 1159 3500 
L 1159 2956 
Q 1356 3278 1631 3431 
Q 1906 3584 2284 3584 
Q 2666 3584 2933 3390 
Q 3200 3197 3328 2828 
z
" transform="scale(0.015625)"/>
       <path id="DejaVuSans-65" d="M 3597 1894 
L 3597 1613 
L 953 1613 
Q 991 1019 1311 708 
Q 1631 397 2203 397 
Q 2534 397 2845 478 
Q 3156 559 3463 722 
L 3463 178 
Q 3153 47 2828 -22 
Q 2503 -91 2169 -91 
Q 1331 -91 842 396 
Q 353 884 353 1716 
Q 353 2575 817 3079 
Q 1281 3584 2069 3584 
Q 2775 3584 3186 3129 
Q 3597 2675 3597 1894 
z
M 3022 2063 
Q 3016 2534 2758 2815 
Q 2500 3097 2075 3097 
Q 1594 3097 1305 2825 
Q 1016 2553 972 2059 
L 3022 2063 
z
" transform="scale(0.015625)"/>
       <path id="DejaVuSans-20" transform="scale(0.015625)"/>
       <path id="DejaVuSans-28" d="M 1984 4856 
Q 1566 4138 1362 3434 
Q 1159 2731 1159 2009 
Q 1159 1288 1364 580 
Q 1569 -128 1984 -844 
L 1484 -844 
Q 1016 -109 783 600 
Q 550 1309 550 2009 
Q 550 2706 781 3412 
Q 1013 4119 1484 4856 
L 1984 4856 
z
" transform="scale(0.015625)"/>
       <path id="DejaVuSans-6e" d="M 3513 2113 
L 3513 0 
L 2938 0 
L 2938 2094 
Q 2938 2591 2744 2837 
Q 2550 3084 2163 3084 
Q 1697 3084 1428 2787 
Q 1159 2491 1159 1978 
L 1159 0 
L 581 0 
L 581 3500 
L 1159 3500 
L 1159 2956 
Q 1366 3272 1645 3428 
Q 1925 3584 2291 3584 
Q 2894 3584 3203 3211 
Q 3513 2838 3513 2113 
z
" transform="scale(0.015625)"/>
       <path id="DejaVuSans-29" d="M 513 4856 
L 1013 4856 
Q 1481 4119 1714 3412 
Q 1947 2706 1947 2009 
Q 1947 1309 1714 600 
Q 1481 -109 1013 -844 
L 513 -844 
Q 928 -128 1133 580 
Q 1338 1288 1338 2009 
Q 1338 2731 1133 3434 
Q 928 4138 513 4856 
z
" transform="scale(0.015625)"/>
      </defs>
      <use xlink:href="#DejaVuSans-54"/>
      <use xlink:href="#DejaVuSans-69" x="57.958984"/>
      <use xlink:href="#DejaVuSans-6d" x="85.742188"/>
      <use xlink:href="#DejaVuSans-65" x="183.154297"/>
      <use xlink:href="#DejaVuSans-20" x="244.677734"/>
      <use xlink:href="#DejaVuSans-28" x="276.464844"/>
      <use xlink:href="#DejaVuSans-6d" x="315.478516"/>
      <use xlink:href="#DejaVuSans-69" x="412.890625"/>
      <use xlink:href="#DejaVuSans-6e" x="440.673828"/>
      <use xlink:href="#DejaVuSans-29" x="504.052734"/>
     </g>
    </g>
   </g>
   <g id="matplotlib.axis_2">
    <g id="ytick_1">
     <g id="line2d_4">
      <defs>
       <path id="me9eccb3021" d="M 0 0 
L -3.5 0 
" style="stroke: #000000; stroke-width: 0.8"/>
      </defs>
      <g>
       <use xlink:href="#me9eccb3021" x="51.716875" y="205.068125" style="stroke: #000000; stroke-width: 0.8"/>
      </g>
     </g>
     <g id="text_5">
      <!-- 0.0 -->
      <g transform="translate(28.81375 208.867344)scale(0.1 -0.1)">
       <defs>
        <path id="DejaVuSans-2e" d="M 684 794 
L 1344 794 
L 1344 0 
L 684 0 
L 684 794 
z
" transform="scale(0.015625)"/>
       </defs>
       <use xlink:href="#DejaVuSans-30"/>
       <use xlink:href="#DejaVuSans-2e" x="63.623047"/>
       <use xlink:href="#DejaVuSans-30" x="95.410156"/>
      </g>
     </g>
    </g>
    <g id="ytick_2">
     <g id="line2d_5">
      <g>
       <use xlink:href="#me9eccb3021" x="51.716875" y="173.873312" style="stroke: #000000; stroke-width: 0.8"/>
      </g>
     </g>
     <g id="text_6">
      <!-- 0.2 -->
      <g transform="translate(28.81375 177.672531)scale(0.1 -0.1)">
       <use xlink:href="#DejaVuSans-30"/>
       <use xlink:href="#DejaVuSans-2e" x="63.623047"/>
       <use xlink:href="#DejaVuSans-32" x="95.410156"/>
      </g>
     </g>
    </g>
    <g id="ytick_3">
     <g id="line2d_6">
      <g>
       <use xlink:href="#me9eccb3021" x="51.716875" y="142.6785" style="stroke: #000000; stroke-width: 0.8"/>
      </g>
     </g>
     <g id="text_7">
      <!-- 0.4 -->
      <g transform="translate(28.81375 146.477719)scale(0.1 -0.1)">
       <defs>
        <path id="DejaVuSans-34" d="M 2419 4116 
L 825 1625 
L 2419 1625 
L 2419 4116 
z
M 2253 4666 
L 3047 4666 
L 3047 1625 
L 3713 1625 
L 3713 1100 
L 3047 1100 
L 3047 0 
L 2419 0 
L 2419 1100 
L 313 1100 
L 313 1709 
L 2253 4666 
z
" transform="scale(0.015625)"/>
       </defs>
       <use xlink:href="#DejaVuSans-30"/>
       <use xlink:href="#DejaVuSans-2e" x="63.623047"/>
       <use xlink:href="#DejaVuSans-34" x="95.410156"/>
      </g>
     </g>
    </g>
    <g id="ytick_4">
     <g id="line2d_7">
      <g>
       <use xlink:href="#me9eccb3021" x="51.716875" y="111.483687" style="stroke: #000000; stroke-width: 0.8"/>
      </g>
     </g>
     <g id="text_8">
      <!-- 0.6 -->
      <g transform="translate(28.81375 115.282906)scale(0.1 -0.1)">
       <defs>
        <path id="DejaVuSans-36" d="M 2113 2584 
Q 1688 2584 1439 2293 
Q 1191 2003 1191 1497 
Q 1191 994 1439 701 
Q 1688 409 2113 409 
Q 2538 409 2786 701 
Q 3034 994 3034 1497 
Q 3034 2003 2786 2293 
Q 2538 2584 2113 2584 
z
M 3366 4563 
L 3366 3988 
Q 3128 4100 2886 4159 
Q 2644 4219 2406 4219 
Q 1781 4219 1451 3797 
Q 1122 3375 1075 2522 
Q 1259 2794 1537 2939 
Q 1816 3084 2150 3084 
Q 2853 3084 3261 2657 
Q 3669 2231 3669 1497 
Q 3669 778 3244 343 
Q 2819 -91 2113 -91 
Q 1303 -91 875 529 
Q 447 1150 447 2328 
Q 447 3434 972 4092 
Q 1497 4750 2381 4750 
Q 2619 4750 2861 4703 
Q 3103 4656 3366 4563 
z
" transform="scale(0.015625)"/>
       </defs>
       <use xlink:href="#DejaVuSans-30"/>
       <use xlink:href="#DejaVuSans-2e" x="63.623047"/>
       <use xlink:href="#DejaVuSans-36" x="95.410156"/>
      </g>
     </g>
    </g>
    <g id="ytick_5">
     <g id="line2d_8">
      <g>
       <use xlink:href="#me9eccb3021" x="51.716875" y="80.288875" style="stroke: #000000; stroke-width: 0.8"/>
      </g>
     </g>
     <g id="text_9">
      <!-- 0.8 -->
      <g transform="translate(28.81375 84.088094)scale(0.1 -0.1)">
       <defs>
        <path id="DejaVuSans-38" d="M 2034 2216 
Q 1584 2216 1326 1975 
Q 1069 1734 1069 1313 
Q 1069 891 1326 650 
Q 1584 409 2034 409 
Q 2484 409 2743 651 
Q 3003 894 3003 1313 
Q 3003 1734 2745 1975 
Q 2488 2216 2034 2216 
z
M 1403 2484 
Q 997 2584 770 2862 
Q 544 3141 544 3541 
Q 544 4100 942 4425 
Q 1341 4750 2034 4750 
Q 2731 4750 3128 4425 
Q 3525 4100 3525 3541 
Q 3525 3141 3298 2862 
Q 3072 2584 2669 2484 
Q 3125 2378 3379 2068 
Q 3634 1759 3634 1313 
Q 3634 634 3220 271 
Q 2806 -91 2034 -91 
Q 1263 -91 848 271 
Q 434 634 434 1313 
Q 434 1759 690 2068 
Q 947 2378 1403 2484 
z
M 1172 3481 
Q 1172 3119 1398 2916 
Q 1625 2713 2034 2713 
Q 2441 2713 2670 2916 
Q 2900 3119 2900 3481 
Q 2900 3844 2670 4047 
Q 2441 4250 2034 4250 
Q 1625 4250 1398 4047 
Q 1172 3844 1172 3481 
z
" transform="scale(0.015625)"/>
       </defs>
       <use xlink:href="#DejaVuSans-30"/>
       <use xlink:href="#DejaVuSans-2e" x="63.623047"/>
       <use xlink:href="#DejaVuSans-38" x="95.410156"/>
      </g>
     </g>
    </g>
    <g id="ytick_6">
     <g id="line2d_9">
      <g>
       <use xlink:href="#me9eccb3021" x="51.716875" y="49.094062" style="stroke: #000000; stroke-width: 0.8"/>
      </g>
     </g>
     <g id="text_10">
      <!-- 1.0 -->
      <g transform="translate(28.81375 52.893281)scale(0.1 -0.1)">
       <use xlink:href="#DejaVuSans-31"/>
       <use xlink:href="#DejaVuSans-2e" x="63.623047"/>
       <use xlink:href="#DejaVuSans-30" x="95.410156"/>
      </g>
     </g>
    </g>
    <g id="text_11">
     <!-- Normalized exp output -->
     <g transform="translate(16.318125 195.658281)rotate(-90)scale(0.12 -0.12)">
      <defs>
       <path id="DejaVuSans-4e" d="M 628 4666 
L 1478 4666 
L 3547 763 
L 3547 4666 
L 4159 4666 
L 4159 0 
L 3309 0 
L 1241 3903 
L 1241 0 
L 628 0 
L 628 4666 
z
" transform="scale(0.015625)"/>
       <path id="DejaVuSans-6f" d="M 1959 3097 
Q 1497 3097 1228 2736 
Q 959 2375 959 1747 
Q 959 1119 1226 758 
Q 1494 397 1959 397 
Q 2419 397 2687 759 
Q 2956 1122 2956 1747 
Q 2956 2369 2687 2733 
Q 2419 3097 1959 3097 
z
M 1959 3584 
Q 2709 3584 3137 3096 
Q 3566 2609 3566 1747 
Q 3566 888 3137 398 
Q 2709 -91 1959 -91 
Q 1206 -91 779 398 
Q 353 888 353 1747 
Q 353 2609 779 3096 
Q 1206 3584 1959 3584 
z
" transform="scale(0.015625)"/>
       <path id="DejaVuSans-72" d="M 2631 2963 
Q 2534 3019 2420 3045 
Q 2306 3072 2169 3072 
Q 1681 3072 1420 2755 
Q 1159 2438 1159 1844 
L 1159 0 
L 581 0 
L 581 3500 
L 1159 3500 
L 1159 2956 
Q 1341 3275 1631 3429 
Q 1922 3584 2338 3584 
Q 2397 3584 2469 3576 
Q 2541 3569 2628 3553 
L 2631 2963 
z
" transform="scale(0.015625)"/>
       <path id="DejaVuSans-61" d="M 2194 1759 
Q 1497 1759 1228 1600 
Q 959 1441 959 1056 
Q 959 750 1161 570 
Q 1363 391 1709 391 
Q 2188 391 2477 730 
Q 2766 1069 2766 1631 
L 2766 1759 
L 2194 1759 
z
M 3341 1997 
L 3341 0 
L 2766 0 
L 2766 531 
Q 2569 213 2275 61 
Q 1981 -91 1556 -91 
Q 1019 -91 701 211 
Q 384 513 384 1019 
Q 384 1609 779 1909 
Q 1175 2209 1959 2209 
L 2766 2209 
L 2766 2266 
Q 2766 2663 2505 2880 
Q 2244 3097 1772 3097 
Q 1472 3097 1187 3025 
Q 903 2953 641 2809 
L 641 3341 
Q 956 3463 1253 3523 
Q 1550 3584 1831 3584 
Q 2591 3584 2966 3190 
Q 3341 2797 3341 1997 
z
" transform="scale(0.015625)"/>
       <path id="DejaVuSans-6c" d="M 603 4863 
L 1178 4863 
L 1178 0 
L 603 0 
L 603 4863 
z
" transform="scale(0.015625)"/>
       <path id="DejaVuSans-7a" d="M 353 3500 
L 3084 3500 
L 3084 2975 
L 922 459 
L 3084 459 
L 3084 0 
L 275 0 
L 275 525 
L 2438 3041 
L 353 3041 
L 353 3500 
z
" transform="scale(0.015625)"/>
       <path id="DejaVuSans-64" d="M 2906 2969 
L 2906 4863 
L 3481 4863 
L 3481 0 
L 2906 0 
L 2906 525 
Q 2725 213 2448 61 
Q 2172 -91 1784 -91 
Q 1150 -91 751 415 
Q 353 922 353 1747 
Q 353 2572 751 3078 
Q 1150 3584 1784 3584 
Q 2172 3584 2448 3432 
Q 2725 3281 2906 2969 
z
M 947 1747 
Q 947 1113 1208 752 
Q 1469 391 1925 391 
Q 2381 391 2643 752 
Q 2906 1113 2906 1747 
Q 2906 2381 2643 2742 
Q 2381 3103 1925 3103 
Q 1469 3103 1208 2742 
Q 947 2381 947 1747 
z
" transform="scale(0.015625)"/>
       <path id="DejaVuSans-78" d="M 3513 3500 
L 2247 1797 
L 3578 0 
L 2900 0 
L 1881 1375 
L 863 0 
L 184 0 
L 1544 1831 
L 300 3500 
L 978 3500 
L 1906 2253 
L 2834 3500 
L 3513 3500 
z
" transform="scale(0.015625)"/>
       <path id="DejaVuSans-70" d="M 1159 525 
L 1159 -1331 
L 581 -1331 
L 581 3500 
L 1159 3500 
L 1159 2969 
Q 1341 3281 1617 3432 
Q 1894 3584 2278 3584 
Q 2916 3584 3314 3078 
Q 3713 2572 3713 1747 
Q 3713 922 3314 415 
Q 2916 -91 2278 -91 
Q 1894 -91 1617 61 
Q 1341 213 1159 525 
z
M 3116 1747 
Q 3116 2381 2855 2742 
Q 2594 3103 2138 3103 
Q 1681 3103 1420 2742 
Q 1159 2381 1159 1747 
Q 1159 1113 1420 752 
Q 1681 391 2138 391 
Q 2594 391 2855 752 
Q 3116 1113 3116 1747 
z
" transform="scale(0.015625)"/>
       <path id="DejaVuSans-75" d="M 544 1381 
L 544 3500 
L 1119 3500 
L 1119 1403 
Q 1119 906 1312 657 
Q 1506 409 1894 409 
Q 2359 409 2629 706 
Q 2900 1003 2900 1516 
L 2900 3500 
L 3475 3500 
L 3475 0 
L 2900 0 
L 2900 538 
Q 2691 219 2414 64 
Q 2138 -91 1772 -91 
Q 1169 -91 856 284 
Q 544 659 544 1381 
z
M 1991 3584 
L 1991 3584 
z
" transform="scale(0.015625)"/>
       <path id="DejaVuSans-74" d="M 1172 4494 
L 1172 3500 
L 2356 3500 
L 2356 3053 
L 1172 3053 
L 1172 1153 
Q 1172 725 1289 603 
Q 1406 481 1766 481 
L 2356 481 
L 2356 0 
L 1766 0 
Q 1100 0 847 248 
Q 594 497 594 1153 
L 594 3053 
L 172 3053 
L 172 3500 
L 594 3500 
L 594 4494 
L 1172 4494 
z
" transform="scale(0.015625)"/>
      </defs>
      <use xlink:href="#DejaVuSans-4e"/>
      <use xlink:href="#DejaVuSans-6f" x="74.804688"/>
      <use xlink:href="#DejaVuSans-72" x="135.986328"/>
      <use xlink:href="#DejaVuSans-6d" x="175.349609"/>
      <use xlink:href="#DejaVuSans-61" x="272.761719"/>
      <use xlink:href="#DejaVuSans-6c" x="334.041016"/>
      <use xlink:href="#DejaVuSans-69" x="361.824219"/>
      <use xlink:href="#DejaVuSans-7a" x="389.607422"/>
      <use xlink:href="#DejaVuSans-65" x="442.097656"/>
      <use xlink:href="#DejaVuSans-64" x="503.621094"/>
      <use xlink:href="#DejaVuSans-20" x="567.097656"/>
      <use xlink:href="#DejaVuSans-65" x="598.884766"/>
      <use xlink:href="#DejaVuSans-78" x="658.658203"/>
      <use xlink:href="#DejaVuSans-70" x="717.837891"/>
      <use xlink:href="#DejaVuSans-20" x="781.314453"/>
      <use xlink:href="#DejaVuSans-6f" x="813.101562"/>
      <use xlink:href="#DejaVuSans-75" x="874.283203"/>
      <use xlink:href="#DejaVuSans-74" x="937.662109"/>
      <use xlink:href="#DejaVuSans-70" x="976.871094"/>
      <use xlink:href="#DejaVuSans-75" x="1040.347656"/>
      <use xlink:href="#DejaVuSans-74" x="1103.726562"/>
     </g>
    </g>
   </g>
   <g id="line2d_10">
    <path d="M 58.806605 200.853376 
L 61.169848 200.258019 
L 63.533092 200.021766 
L 65.896335 199.785514 
L 68.259579 199.520911 
L 70.622822 199.161806 
L 72.986065 198.963354 
L 75.349309 198.424698 
L 77.712552 198.131744 
L 80.075795 197.999443 
L 82.439039 197.867141 
L 84.802282 197.649789 
L 87.165526 197.404086 
L 89.528769 196.969381 
L 91.892012 196.799279 
L 94.255256 196.440175 
L 96.618499 196.128321 
L 98.981742 195.99602 
L 101.344986 195.495164 
L 103.708229 195.088809 
L 106.071473 194.597403 
L 108.434716 194.436751 
L 110.797959 194.134348 
L 113.161203 193.614592 
L 115.524446 193.42559 
L 117.887689 193.028685 
L 120.250933 192.55618 
L 122.614176 192.348277 
L 124.97742 192.064774 
L 127.340663 191.69622 
L 129.703906 191.346566 
L 132.06715 191.252064 
L 134.430393 190.83626 
L 136.793636 190.85516 
L 139.15688 190.618907 
L 141.520123 190.373204 
L 143.883366 190.174752 
L 146.24661 190.04245 
L 148.609853 190.118051 
L 150.973097 189.862898 
L 153.33634 189.796748 
L 155.699583 189.768397 
L 158.062827 189.588845 
L 160.42607 189.617195 
L 162.789313 189.673896 
L 165.152557 189.569945 
L 167.5158 189.588845 
L 169.879044 189.447093 
L 172.242287 189.14469 
L 174.60553 189.078539 
L 176.968774 189.031289 
L 179.332017 188.861187 
L 181.69526 188.889537 
L 184.058504 188.643834 
L 186.421747 188.624934 
L 188.784991 188.407581 
L 191.148234 188.624934 
L 193.511477 188.407581 
L 195.874721 188.31308 
L 198.237964 188.199679 
L 200.601207 188.010677 
" clip-path="url(#p442cee25a8)" style="fill: none; stroke: #f08080; stroke-width: 2; stroke-linecap: square"/>
   </g>
   <g id="line2d_11">
    <path d="M 58.806605 202.440994 
L 61.169848 202.100791 
L 63.533092 201.892888 
L 65.896335 201.637735 
L 68.259579 201.410933 
L 70.622822 201.240831 
L 72.986065 200.985678 
L 75.349309 200.683274 
L 77.712552 200.560423 
L 80.075795 200.34307 
L 82.439039 200.182418 
L 84.802282 200.201318 
L 87.165526 199.955616 
L 89.528769 199.672112 
L 91.892012 199.46421 
L 94.255256 199.171256 
L 96.618499 198.849953 
L 98.981742 198.821602 
L 101.344986 198.528649 
L 103.708229 198.490849 
L 106.071473 198.197895 
L 108.434716 197.867141 
L 110.797959 197.75374 
L 113.161203 197.422986 
L 115.524446 197.300135 
L 117.887689 196.92213 
L 120.250933 196.657527 
L 122.614176 196.666977 
L 124.97742 196.610277 
L 127.340663 196.364574 
L 129.703906 195.929869 
L 132.06715 195.958219 
L 134.430393 195.892068 
L 136.793636 195.892068 
L 139.15688 195.901518 
L 141.520123 195.655816 
L 143.883366 195.551864 
L 146.24661 195.466813 
L 148.609853 195.447913 
L 150.973097 195.561315 
L 153.33634 195.438463 
L 155.699583 195.325062 
L 158.062827 195.381762 
L 160.42607 195.249461 
L 162.789313 195.060459 
L 165.152557 195.15496 
L 167.5158 194.975408 
L 169.879044 194.852556 
L 172.242287 194.928157 
L 174.60553 195.051009 
L 176.968774 194.795856 
L 179.332017 194.786406 
L 181.69526 194.729705 
L 184.058504 194.398951 
L 186.421747 194.3517 
L 188.784991 194.295 
L 191.148234 194.398951 
L 193.511477 194.295 
L 195.874721 194.559603 
L 198.237964 194.238299 
L 200.601207 194.209949 
" clip-path="url(#p442cee25a8)" style="fill: none; stroke: #ff0000; stroke-width: 2; stroke-linecap: square"/>
   </g>
   <g id="line2d_12">
    <path d="M 58.806605 201.042378 
L 61.169848 200.683274 
L 63.533092 200.456471 
L 65.896335 200.125718 
L 68.259579 199.851664 
L 70.622822 199.653212 
L 72.986065 199.275208 
L 75.349309 199.029505 
L 77.712552 198.849953 
L 80.075795 198.292396 
L 82.439039 198.235696 
L 84.802282 197.971093 
L 87.165526 197.668689 
L 89.528769 197.441886 
L 91.892012 197.167833 
L 94.255256 196.91268 
L 96.618499 196.392924 
L 98.981742 196.270073 
L 101.344986 196.06217 
L 103.708229 195.873168 
L 106.071473 195.429013 
L 108.434716 194.975408 
L 110.797959 194.739155 
L 113.161203 194.370601 
L 115.524446 194.058747 
L 117.887689 193.822494 
L 120.250933 193.283838 
L 122.614176 193.104286 
L 124.97742 192.830233 
L 127.340663 192.433328 
L 129.703906 192.130925 
L 132.06715 192.074224 
L 134.430393 191.885222 
L 136.793636 191.904122 
L 139.15688 191.73402 
L 141.520123 191.204814 
L 143.883366 191.100863 
L 146.24661 191.015812 
L 148.609853 190.996911 
L 150.973097 190.91186 
L 153.33634 190.722858 
L 155.699583 190.732308 
L 158.062827 190.741759 
L 160.42607 190.590557 
L 162.789313 190.448805 
L 165.152557 190.335404 
L 167.5158 190.439355 
L 169.879044 190.155852 
L 172.242287 190.212552 
L 174.60553 190.174752 
L 176.968774 190.146402 
L 179.332017 190.051901 
L 181.69526 190.033 
L 184.058504 189.617195 
L 186.421747 189.626646 
L 188.784991 189.484894 
L 191.148234 189.409293 
L 193.511477 189.494344 
L 195.874721 189.352592 
L 198.237964 189.13524 
L 200.601207 189.078539 
" clip-path="url(#p442cee25a8)" style="fill: none; stroke: #800000; stroke-width: 2; stroke-linecap: square"/>
   </g>
   <g id="patch_3">
    <path d="M 51.716875 205.068125 
L 51.716875 49.094062 
" style="fill: none; stroke: #000000; stroke-width: 0.8; stroke-linejoin: miter; stroke-linecap: square"/>
   </g>
   <g id="patch_4">
    <path d="M 51.716875 205.068125 
L 207.690938 205.068125 
" style="fill: none; stroke: #000000; stroke-width: 0.8; stroke-linejoin: miter; stroke-linecap: square"/>
   </g>
   <g id="text_12">
    <!-- vRNA = 0fM -->
    <g transform="translate(96.239844 43.094062)scale(0.1 -0.1)">
     <defs>
      <path id="DejaVuSans-Bold-76" d="M 97 3500 
L 1216 3500 
L 2088 1081 
L 2956 3500 
L 4078 3500 
L 2700 0 
L 1472 0 
L 97 3500 
z
" transform="scale(0.015625)"/>
      <path id="DejaVuSans-Bold-52" d="M 2297 2597 
Q 2675 2597 2839 2737 
Q 3003 2878 3003 3200 
Q 3003 3519 2839 3656 
Q 2675 3794 2297 3794 
L 1791 3794 
L 1791 2597 
L 2297 2597 
z
M 1791 1766 
L 1791 0 
L 588 0 
L 588 4666 
L 2425 4666 
Q 3347 4666 3776 4356 
Q 4206 4047 4206 3378 
Q 4206 2916 3982 2619 
Q 3759 2322 3309 2181 
Q 3556 2125 3751 1926 
Q 3947 1728 4147 1325 
L 4800 0 
L 3519 0 
L 2950 1159 
Q 2778 1509 2601 1637 
Q 2425 1766 2131 1766 
L 1791 1766 
z
" transform="scale(0.015625)"/>
      <path id="DejaVuSans-Bold-4e" d="M 588 4666 
L 1931 4666 
L 3628 1466 
L 3628 4666 
L 4769 4666 
L 4769 0 
L 3425 0 
L 1728 3200 
L 1728 0 
L 588 0 
L 588 4666 
z
" transform="scale(0.015625)"/>
      <path id="DejaVuSans-Bold-41" d="M 3419 850 
L 1538 850 
L 1241 0 
L 31 0 
L 1759 4666 
L 3194 4666 
L 4922 0 
L 3713 0 
L 3419 850 
z
M 1838 1716 
L 3116 1716 
L 2478 3572 
L 1838 1716 
z
" transform="scale(0.015625)"/>
      <path id="DejaVuSans-Bold-20" transform="scale(0.015625)"/>
      <path id="DejaVuSans-Bold-3d" d="M 678 3084 
L 4684 3084 
L 4684 2350 
L 678 2350 
L 678 3084 
z
M 678 1663 
L 4684 1663 
L 4684 922 
L 678 922 
L 678 1663 
z
" transform="scale(0.015625)"/>
      <path id="DejaVuSans-Bold-30" d="M 2944 2338 
Q 2944 3213 2780 3570 
Q 2616 3928 2228 3928 
Q 1841 3928 1675 3570 
Q 1509 3213 1509 2338 
Q 1509 1453 1675 1090 
Q 1841 728 2228 728 
Q 2613 728 2778 1090 
Q 2944 1453 2944 2338 
z
M 4147 2328 
Q 4147 1169 3647 539 
Q 3147 -91 2228 -91 
Q 1306 -91 806 539 
Q 306 1169 306 2328 
Q 306 3491 806 4120 
Q 1306 4750 2228 4750 
Q 3147 4750 3647 4120 
Q 4147 3491 4147 2328 
z
" transform="scale(0.015625)"/>
      <path id="DejaVuSans-Bold-66" d="M 2841 4863 
L 2841 4128 
L 2222 4128 
Q 1984 4128 1890 4042 
Q 1797 3956 1797 3744 
L 1797 3500 
L 2753 3500 
L 2753 2700 
L 1797 2700 
L 1797 0 
L 678 0 
L 678 2700 
L 122 2700 
L 122 3500 
L 678 3500 
L 678 3744 
Q 678 4316 997 4589 
Q 1316 4863 1984 4863 
L 2841 4863 
z
" transform="scale(0.015625)"/>
      <path id="DejaVuSans-Bold-4d" d="M 588 4666 
L 2119 4666 
L 3181 2169 
L 4250 4666 
L 5778 4666 
L 5778 0 
L 4641 0 
L 4641 3413 
L 3566 897 
L 2803 897 
L 1728 3413 
L 1728 0 
L 588 0 
L 588 4666 
z
" transform="scale(0.015625)"/>
     </defs>
     <use xlink:href="#DejaVuSans-Bold-76"/>
     <use xlink:href="#DejaVuSans-Bold-52" x="65.185547"/>
     <use xlink:href="#DejaVuSans-Bold-4e" x="142.1875"/>
     <use xlink:href="#DejaVuSans-Bold-41" x="225.878906"/>
     <use xlink:href="#DejaVuSans-Bold-20" x="303.271484"/>
     <use xlink:href="#DejaVuSans-Bold-3d" x="338.085938"/>
     <use xlink:href="#DejaVuSans-Bold-20" x="421.875"/>
     <use xlink:href="#DejaVuSans-Bold-30" x="456.689453"/>
     <use xlink:href="#DejaVuSans-Bold-66" x="526.269531"/>
     <use xlink:href="#DejaVuSans-Bold-4d" x="569.775391"/>
    </g>
   </g>
   <g id="legend_1">
    <g id="patch_5">
     <path d="M 104.964375 101.128437 
L 200.690938 101.128437 
Q 202.690938 101.128437 202.690938 99.128437 
L 202.690938 56.094062 
Q 202.690938 54.094062 200.690938 54.094062 
L 104.964375 54.094062 
Q 102.964375 54.094062 102.964375 56.094062 
L 102.964375 99.128437 
Q 102.964375 101.128437 104.964375 101.128437 
z
" style="fill: #ffffff; opacity: 0.8; stroke: #cccccc; stroke-linejoin: miter"/>
    </g>
    <g id="line2d_13">
     <path d="M 106.964375 62.1925 
L 116.964375 62.1925 
L 126.964375 62.1925 
" style="fill: none; stroke: #f08080; stroke-width: 2; stroke-linecap: square"/>
    </g>
    <g id="text_13">
     <!-- RNase 0.001 -->
     <g transform="translate(134.964375 65.6925)scale(0.1 -0.1)">
      <defs>
       <path id="DejaVuSans-52" d="M 2841 2188 
Q 3044 2119 3236 1894 
Q 3428 1669 3622 1275 
L 4263 0 
L 3584 0 
L 2988 1197 
Q 2756 1666 2539 1819 
Q 2322 1972 1947 1972 
L 1259 1972 
L 1259 0 
L 628 0 
L 628 4666 
L 2053 4666 
Q 2853 4666 3247 4331 
Q 3641 3997 3641 3322 
Q 3641 2881 3436 2590 
Q 3231 2300 2841 2188 
z
M 1259 4147 
L 1259 2491 
L 2053 2491 
Q 2509 2491 2742 2702 
Q 2975 2913 2975 3322 
Q 2975 3731 2742 3939 
Q 2509 4147 2053 4147 
L 1259 4147 
z
" transform="scale(0.015625)"/>
       <path id="DejaVuSans-73" d="M 2834 3397 
L 2834 2853 
Q 2591 2978 2328 3040 
Q 2066 3103 1784 3103 
Q 1356 3103 1142 2972 
Q 928 2841 928 2578 
Q 928 2378 1081 2264 
Q 1234 2150 1697 2047 
L 1894 2003 
Q 2506 1872 2764 1633 
Q 3022 1394 3022 966 
Q 3022 478 2636 193 
Q 2250 -91 1575 -91 
Q 1294 -91 989 -36 
Q 684 19 347 128 
L 347 722 
Q 666 556 975 473 
Q 1284 391 1588 391 
Q 1994 391 2212 530 
Q 2431 669 2431 922 
Q 2431 1156 2273 1281 
Q 2116 1406 1581 1522 
L 1381 1569 
Q 847 1681 609 1914 
Q 372 2147 372 2553 
Q 372 3047 722 3315 
Q 1072 3584 1716 3584 
Q 2034 3584 2315 3537 
Q 2597 3491 2834 3397 
z
" transform="scale(0.015625)"/>
      </defs>
      <use xlink:href="#DejaVuSans-52"/>
      <use xlink:href="#DejaVuSans-4e" x="69.482422"/>
      <use xlink:href="#DejaVuSans-61" x="144.287109"/>
      <use xlink:href="#DejaVuSans-73" x="205.566406"/>
      <use xlink:href="#DejaVuSans-65" x="257.666016"/>
      <use xlink:href="#DejaVuSans-20" x="319.189453"/>
      <use xlink:href="#DejaVuSans-30" x="350.976562"/>
      <use xlink:href="#DejaVuSans-2e" x="414.599609"/>
      <use xlink:href="#DejaVuSans-30" x="446.386719"/>
      <use xlink:href="#DejaVuSans-30" x="510.009766"/>
      <use xlink:href="#DejaVuSans-31" x="573.632812"/>
     </g>
    </g>
    <g id="line2d_14">
     <path d="M 106.964375 76.870625 
L 116.964375 76.870625 
L 126.964375 76.870625 
" style="fill: none; stroke: #ff0000; stroke-width: 2; stroke-linecap: square"/>
    </g>
    <g id="text_14">
     <!-- RNase 0.005 -->
     <g transform="translate(134.964375 80.370625)scale(0.1 -0.1)">
      <defs>
       <path id="DejaVuSans-35" d="M 691 4666 
L 3169 4666 
L 3169 4134 
L 1269 4134 
L 1269 2991 
Q 1406 3038 1543 3061 
Q 1681 3084 1819 3084 
Q 2600 3084 3056 2656 
Q 3513 2228 3513 1497 
Q 3513 744 3044 326 
Q 2575 -91 1722 -91 
Q 1428 -91 1123 -41 
Q 819 9 494 109 
L 494 744 
Q 775 591 1075 516 
Q 1375 441 1709 441 
Q 2250 441 2565 725 
Q 2881 1009 2881 1497 
Q 2881 1984 2565 2268 
Q 2250 2553 1709 2553 
Q 1456 2553 1204 2497 
Q 953 2441 691 2322 
L 691 4666 
z
" transform="scale(0.015625)"/>
      </defs>
      <use xlink:href="#DejaVuSans-52"/>
      <use xlink:href="#DejaVuSans-4e" x="69.482422"/>
      <use xlink:href="#DejaVuSans-61" x="144.287109"/>
      <use xlink:href="#DejaVuSans-73" x="205.566406"/>
      <use xlink:href="#DejaVuSans-65" x="257.666016"/>
      <use xlink:href="#DejaVuSans-20" x="319.189453"/>
      <use xlink:href="#DejaVuSans-30" x="350.976562"/>
      <use xlink:href="#DejaVuSans-2e" x="414.599609"/>
      <use xlink:href="#DejaVuSans-30" x="446.386719"/>
      <use xlink:href="#DejaVuSans-30" x="510.009766"/>
      <use xlink:href="#DejaVuSans-35" x="573.632812"/>
     </g>
    </g>
    <g id="line2d_15">
     <path d="M 106.964375 91.54875 
L 116.964375 91.54875 
L 126.964375 91.54875 
" style="fill: none; stroke: #800000; stroke-width: 2; stroke-linecap: square"/>
    </g>
    <g id="text_15">
     <!-- RNase 0.02 -->
     <g transform="translate(134.964375 95.04875)scale(0.1 -0.1)">
      <use xlink:href="#DejaVuSans-52"/>
      <use xlink:href="#DejaVuSans-4e" x="69.482422"/>
      <use xlink:href="#DejaVuSans-61" x="144.287109"/>
      <use xlink:href="#DejaVuSans-73" x="205.566406"/>
      <use xlink:href="#DejaVuSans-65" x="257.666016"/>
      <use xlink:href="#DejaVuSans-20" x="319.189453"/>
      <use xlink:href="#DejaVuSans-30" x="350.976562"/>
      <use xlink:href="#DejaVuSans-2e" x="414.599609"/>
      <use xlink:href="#DejaVuSans-30" x="446.386719"/>
      <use xlink:href="#DejaVuSans-32" x="510.009766"/>
     </g>
    </g>
   </g>
  </g>
  <g id="axes_2">
   <g id="patch_6">
    <path d="M 335.65267 205.068125 
L 491.626733 205.068125 
L 491.626733 49.094062 
L 335.65267 49.094062 
z
" style="fill: #ffffff"/>
   </g>
   <g id="PolyCollection_4">
    <defs>
     <path id="m0652280c91" d="M 342.742401 -49.201258 
L 342.742401 -48.888975 
L 345.105644 -49.441524 
L 347.468887 -49.493839 
L 349.832131 -49.886176 
L 352.195374 -50.16474 
L 354.558617 -50.221125 
L 356.921861 -50.670106 
L 359.285104 -51.016664 
L 361.648348 -51.305681 
L 364.011591 -51.717937 
L 366.374834 -51.971273 
L 368.738078 -52.145804 
L 371.101321 -52.292928 
L 373.464564 -52.697298 
L 375.827808 -52.674035 
L 378.191051 -53.471376 
L 380.554295 -53.586217 
L 382.917538 -54.083919 
L 385.280781 -54.091303 
L 387.644025 -54.520811 
L 390.007268 -54.982479 
L 392.370511 -55.185817 
L 394.733755 -55.305049 
L 397.096998 -55.902068 
L 399.460241 -56.196104 
L 401.823485 -56.108657 
L 404.186728 -56.340666 
L 406.549972 -56.782458 
L 408.913215 -56.835047 
L 411.276458 -56.538404 
L 413.639702 -56.707268 
L 416.002945 -56.911297 
L 418.366188 -57.071355 
L 420.729432 -57.390992 
L 423.092675 -57.196346 
L 425.455919 -57.442177 
L 427.819162 -57.196018 
L 430.182405 -57.802257 
L 432.545649 -57.92779 
L 434.908892 -57.760484 
L 437.272135 -57.9606 
L 439.635379 -58.022721 
L 441.998622 -57.919993 
L 444.361866 -58.030126 
L 446.725109 -58.179227 
L 449.088352 -58.362925 
L 451.451596 -58.38706 
L 453.814839 -58.435971 
L 456.178082 -59.016212 
L 458.541326 -58.621904 
L 460.904569 -58.629894 
L 463.267813 -59.057019 
L 465.631056 -58.681263 
L 467.994299 -59.133597 
L 470.357543 -59.182381 
L 472.720786 -59.168418 
L 475.084029 -59.651892 
L 477.447273 -59.440575 
L 479.810516 -59.576577 
L 482.173759 -59.645436 
L 484.537003 -59.872608 
L 484.537003 -61.672798 
L 484.537003 -61.672798 
L 482.173759 -61.200661 
L 479.810516 -61.496322 
L 477.447273 -61.292121 
L 475.084029 -61.099704 
L 472.720786 -61.205174 
L 470.357543 -60.737606 
L 467.994299 -60.82419 
L 465.631056 -60.671717 
L 463.267813 -60.655065 
L 460.904569 -60.250581 
L 458.541326 -60.088468 
L 456.178082 -59.958763 
L 453.814839 -59.801896 
L 451.451596 -59.831907 
L 449.088352 -59.66704 
L 446.725109 -59.605035 
L 444.361866 -59.735236 
L 441.998622 -59.524064 
L 439.635379 -59.496938 
L 437.272135 -59.086552 
L 434.908892 -59.154367 
L 432.545649 -58.552356 
L 430.182405 -58.81019 
L 427.819162 -58.792723 
L 425.455919 -58.735566 
L 423.092675 -58.641193 
L 420.729432 -58.389846 
L 418.366188 -58.539381 
L 416.002945 -58.529337 
L 413.639702 -57.939557 
L 411.276458 -58.05172 
L 408.913215 -57.830678 
L 406.549972 -57.561963 
L 404.186728 -57.720252 
L 401.823485 -57.555357 
L 399.460241 -56.882003 
L 397.096998 -56.722433 
L 394.733755 -56.676845 
L 392.370511 -56.285771 
L 390.007268 -55.808702 
L 387.644025 -55.45766 
L 385.280781 -55.131159 
L 382.917538 -54.93064 
L 380.554295 -54.483331 
L 378.191051 -54.012266 
L 375.827808 -53.845696 
L 373.464564 -53.557829 
L 371.101321 -53.092789 
L 368.738078 -52.654006 
L 366.374834 -52.582835 
L 364.011591 -51.89116 
L 361.648348 -51.887611 
L 359.285104 -51.704123 
L 356.921861 -51.294672 
L 354.558617 -50.68524 
L 352.195374 -50.477023 
L 349.832131 -50.22638 
L 347.468887 -49.919409 
L 345.105644 -49.801622 
L 342.742401 -49.201258 
z
" style="stroke: #f08080; stroke-opacity: 0.2"/>
    </defs>
    <g clip-path="url(#pc171c37b34)">
     <use xlink:href="#m0652280c91" x="0" y="250.56" style="fill: #f08080; fill-opacity: 0.2; stroke: #f08080; stroke-opacity: 0.2"/>
    </g>
   </g>
   <g id="PolyCollection_5">
    <defs>
     <path id="mee0dc27f0d" d="M 342.742401 -49.442493 
L 342.742401 -48.874542 
L 345.105644 -49.445388 
L 347.468887 -49.613307 
L 349.832131 -49.936114 
L 352.195374 -50.188055 
L 354.558617 -50.604977 
L 356.921861 -50.786441 
L 359.285104 -51.015968 
L 361.648348 -51.408874 
L 364.011591 -51.978116 
L 366.374834 -52.289191 
L 368.738078 -52.224067 
L 371.101321 -52.764752 
L 373.464564 -53.022312 
L 375.827808 -53.476663 
L 378.191051 -53.616288 
L 380.554295 -53.980878 
L 382.917538 -54.113069 
L 385.280781 -54.764421 
L 387.644025 -55.177062 
L 390.007268 -55.456096 
L 392.370511 -56.002372 
L 394.733755 -56.116342 
L 397.096998 -56.594812 
L 399.460241 -56.85962 
L 401.823485 -57.038504 
L 404.186728 -56.833508 
L 406.549972 -57.182313 
L 408.913215 -57.512415 
L 411.276458 -57.213885 
L 413.639702 -57.535734 
L 416.002945 -57.813643 
L 418.366188 -57.929495 
L 420.729432 -57.890141 
L 423.092675 -58.041227 
L 425.455919 -57.824268 
L 427.819162 -58.272159 
L 430.182405 -58.374501 
L 432.545649 -58.590911 
L 434.908892 -58.620771 
L 437.272135 -58.584244 
L 439.635379 -58.671402 
L 441.998622 -58.845341 
L 444.361866 -58.885423 
L 446.725109 -58.99566 
L 449.088352 -59.114492 
L 451.451596 -59.322016 
L 453.814839 -59.232146 
L 456.178082 -59.265316 
L 458.541326 -59.732876 
L 460.904569 -59.548155 
L 463.267813 -59.99243 
L 465.631056 -59.971854 
L 467.994299 -59.868623 
L 470.357543 -60.292526 
L 472.720786 -60.257704 
L 475.084029 -60.307128 
L 477.447273 -60.175499 
L 479.810516 -60.677808 
L 482.173759 -60.464202 
L 484.537003 -60.834041 
L 484.537003 -61.599675 
L 484.537003 -61.599675 
L 482.173759 -61.68601 
L 479.810516 -61.359003 
L 477.447273 -61.483307 
L 475.084029 -61.124876 
L 472.720786 -60.947497 
L 470.357543 -60.742573 
L 467.994299 -60.920773 
L 465.631056 -61.006544 
L 463.267813 -60.796967 
L 460.904569 -60.579733 
L 458.541326 -60.584015 
L 456.178082 -59.974263 
L 453.814839 -60.65004 
L 451.451596 -60.030963 
L 449.088352 -59.822683 
L 446.725109 -60.054916 
L 444.361866 -59.957251 
L 441.998622 -59.619328 
L 439.635379 -59.679866 
L 437.272135 -59.615822 
L 434.908892 -59.446994 
L 432.545649 -59.117749 
L 430.182405 -59.296359 
L 427.819162 -59.152998 
L 425.455919 -58.958281 
L 423.092675 -58.722422 
L 420.729432 -58.854608 
L 418.366188 -58.41835 
L 416.002945 -58.042796 
L 413.639702 -58.339605 
L 411.276458 -58.132249 
L 408.913215 -57.909319 
L 406.549972 -57.729115 
L 404.186728 -57.605415 
L 401.823485 -57.929625 
L 399.460241 -57.465902 
L 397.096998 -56.880199 
L 394.733755 -56.886164 
L 392.370511 -56.678831 
L 390.007268 -56.015492 
L 387.644025 -55.406215 
L 385.280781 -55.346351 
L 382.917538 -54.939291 
L 380.554295 -54.296573 
L 378.191051 -54.018556 
L 375.827808 -53.799076 
L 373.464564 -53.573019 
L 371.101321 -52.961169 
L 368.738078 -52.821446 
L 366.374834 -52.718522 
L 364.011591 -52.38699 
L 361.648348 -52.351425 
L 359.285104 -51.591417 
L 356.921861 -51.140536 
L 354.558617 -50.754993 
L 352.195374 -50.69941 
L 349.832131 -50.365444 
L 347.468887 -50.140145 
L 345.105644 -49.627656 
L 342.742401 -49.442493 
z
" style="stroke: #ff0000; stroke-opacity: 0.2"/>
    </defs>
    <g clip-path="url(#pc171c37b34)">
     <use xlink:href="#mee0dc27f0d" x="0" y="250.56" style="fill: #ff0000; fill-opacity: 0.2; stroke: #ff0000; stroke-opacity: 0.2"/>
    </g>
   </g>
   <g id="PolyCollection_6">
    <defs>
     <path id="m876fdfb2c9" d="M 342.742401 -49.194585 
L 342.742401 -48.990148 
L 345.105644 -49.188856 
L 347.468887 -49.713728 
L 349.832131 -49.875551 
L 352.195374 -49.837476 
L 354.558617 -50.394805 
L 356.921861 -50.589679 
L 359.285104 -50.865013 
L 361.648348 -51.468599 
L 364.011591 -51.690592 
L 366.374834 -51.931863 
L 368.738078 -52.2926 
L 371.101321 -52.337232 
L 373.464564 -52.67308 
L 375.827808 -53.18974 
L 378.191051 -53.609023 
L 380.554295 -53.906861 
L 382.917538 -54.272213 
L 385.280781 -54.85508 
L 387.644025 -55.047715 
L 390.007268 -55.336539 
L 392.370511 -55.939989 
L 394.733755 -56.162101 
L 397.096998 -56.206792 
L 399.460241 -56.461971 
L 401.823485 -56.598719 
L 404.186728 -56.604417 
L 406.549972 -56.877806 
L 408.913215 -56.89622 
L 411.276458 -57.095897 
L 413.639702 -57.072377 
L 416.002945 -57.592211 
L 418.366188 -57.740852 
L 420.729432 -57.942213 
L 423.092675 -58.073364 
L 425.455919 -57.953888 
L 427.819162 -58.465934 
L 430.182405 -58.583742 
L 432.545649 -58.458078 
L 434.908892 -58.492481 
L 437.272135 -58.640443 
L 439.635379 -58.840198 
L 441.998622 -58.857939 
L 444.361866 -58.948402 
L 446.725109 -59.219531 
L 449.088352 -58.978005 
L 451.451596 -59.185084 
L 453.814839 -59.148036 
L 456.178082 -59.56689 
L 458.541326 -59.30925 
L 460.904569 -59.972131 
L 463.267813 -59.944304 
L 465.631056 -60.136863 
L 467.994299 -60.079723 
L 470.357543 -60.140731 
L 472.720786 -60.44476 
L 475.084029 -60.427303 
L 477.447273 -60.676641 
L 479.810516 -60.398504 
L 482.173759 -60.965959 
L 484.537003 -60.734347 
L 484.537003 -61.056761 
L 484.537003 -61.056761 
L 482.173759 -61.108652 
L 479.810516 -60.957899 
L 477.447273 -60.849864 
L 475.084029 -60.569996 
L 472.720786 -60.854942 
L 470.357543 -60.440763 
L 467.994299 -60.42617 
L 465.631056 -60.539132 
L 463.267813 -60.107984 
L 460.904569 -60.401461 
L 458.541326 -60.327233 
L 456.178082 -60.220794 
L 453.814839 -59.978141 
L 451.451596 -59.468587 
L 449.088352 -59.411063 
L 446.725109 -59.755444 
L 444.361866 -59.572968 
L 441.998622 -59.398828 
L 439.635379 -59.359868 
L 437.272135 -59.049317 
L 434.908892 -59.178379 
L 432.545649 -59.00488 
L 430.182405 -58.992617 
L 427.819162 -58.751321 
L 425.455919 -58.356156 
L 423.092675 -58.728086 
L 420.729432 -58.311131 
L 418.366188 -58.285689 
L 416.002945 -58.056326 
L 413.639702 -58.065853 
L 411.276458 -58.099034 
L 408.913215 -57.958507 
L 406.549972 -57.617817 
L 404.186728 -57.626603 
L 401.823485 -57.348798 
L 399.460241 -57.126442 
L 397.096998 -56.682312 
L 394.733755 -56.670303 
L 392.370511 -56.136406 
L 390.007268 -55.794845 
L 387.644025 -55.497762 
L 385.280781 -54.953289 
L 382.917538 -54.572245 
L 380.554295 -54.105987 
L 378.191051 -53.96912 
L 375.827808 -53.575693 
L 373.464564 -53.487546 
L 371.101321 -52.821683 
L 368.738078 -52.828514 
L 366.374834 -52.18754 
L 364.011591 -52.013006 
L 361.648348 -51.611292 
L 359.285104 -51.250966 
L 356.921861 -51.053794 
L 354.558617 -50.662762 
L 352.195374 -50.331781 
L 349.832131 -50.104704 
L 347.468887 -50.058624 
L 345.105644 -49.770787 
L 342.742401 -49.194585 
z
" style="stroke: #800000; stroke-opacity: 0.2"/>
    </defs>
    <g clip-path="url(#pc171c37b34)">
     <use xlink:href="#m876fdfb2c9" x="0" y="250.56" style="fill: #800000; fill-opacity: 0.2; stroke: #800000; stroke-opacity: 0.2"/>
    </g>
   </g>
   <g id="matplotlib.axis_3">
    <g id="xtick_4">
     <g id="line2d_16">
      <g>
       <use xlink:href="#mecf5ae0c97" x="342.742401" y="205.068125" style="stroke: #000000; stroke-width: 0.8"/>
      </g>
     </g>
     <g id="text_16">
      <!-- 0 -->
      <g transform="translate(339.561151 219.666562)scale(0.1 -0.1)">
       <use xlink:href="#DejaVuSans-30"/>
      </g>
     </g>
    </g>
    <g id="xtick_5">
     <g id="line2d_17">
      <g>
       <use xlink:href="#mecf5ae0c97" x="401.823485" y="205.068125" style="stroke: #000000; stroke-width: 0.8"/>
      </g>
     </g>
     <g id="text_17">
      <!-- 100 -->
      <g transform="translate(392.279735 219.666562)scale(0.1 -0.1)">
       <use xlink:href="#DejaVuSans-31"/>
       <use xlink:href="#DejaVuSans-30" x="63.623047"/>
       <use xlink:href="#DejaVuSans-30" x="127.246094"/>
      </g>
     </g>
    </g>
    <g id="xtick_6">
     <g id="line2d_18">
      <g>
       <use xlink:href="#mecf5ae0c97" x="460.904569" y="205.068125" style="stroke: #000000; stroke-width: 0.8"/>
      </g>
     </g>
     <g id="text_18">
      <!-- 200 -->
      <g transform="translate(451.360819 219.666562)scale(0.1 -0.1)">
       <use xlink:href="#DejaVuSans-32"/>
       <use xlink:href="#DejaVuSans-30" x="63.623047"/>
       <use xlink:href="#DejaVuSans-30" x="127.246094"/>
      </g>
     </g>
    </g>
    <g id="text_19">
     <!-- Time (min) -->
     <g transform="translate(381.056889 240.864375)scale(0.12 -0.12)">
      <use xlink:href="#DejaVuSans-54"/>
      <use xlink:href="#DejaVuSans-69" x="57.958984"/>
      <use xlink:href="#DejaVuSans-6d" x="85.742188"/>
      <use xlink:href="#DejaVuSans-65" x="183.154297"/>
      <use xlink:href="#DejaVuSans-20" x="244.677734"/>
      <use xlink:href="#DejaVuSans-28" x="276.464844"/>
      <use xlink:href="#DejaVuSans-6d" x="315.478516"/>
      <use xlink:href="#DejaVuSans-69" x="412.890625"/>
      <use xlink:href="#DejaVuSans-6e" x="440.673828"/>
      <use xlink:href="#DejaVuSans-29" x="504.052734"/>
     </g>
    </g>
   </g>
   <g id="matplotlib.axis_4">
    <g id="ytick_7">
     <g id="line2d_19">
      <g>
       <use xlink:href="#me9eccb3021" x="335.65267" y="205.068125" style="stroke: #000000; stroke-width: 0.8"/>
      </g>
     </g>
     <g id="text_20">
      <!-- 0.0 -->
      <g transform="translate(312.749545 208.867344)scale(0.1 -0.1)">
       <use xlink:href="#DejaVuSans-30"/>
       <use xlink:href="#DejaVuSans-2e" x="63.623047"/>
       <use xlink:href="#DejaVuSans-30" x="95.410156"/>
      </g>
     </g>
    </g>
    <g id="ytick_8">
     <g id="line2d_20">
      <g>
       <use xlink:href="#me9eccb3021" x="335.65267" y="173.873312" style="stroke: #000000; stroke-width: 0.8"/>
      </g>
     </g>
     <g id="text_21">
      <!-- 0.2 -->
      <g transform="translate(312.749545 177.672531)scale(0.1 -0.1)">
       <use xlink:href="#DejaVuSans-30"/>
       <use xlink:href="#DejaVuSans-2e" x="63.623047"/>
       <use xlink:href="#DejaVuSans-32" x="95.410156"/>
      </g>
     </g>
    </g>
    <g id="ytick_9">
     <g id="line2d_21">
      <g>
       <use xlink:href="#me9eccb3021" x="335.65267" y="142.6785" style="stroke: #000000; stroke-width: 0.8"/>
      </g>
     </g>
     <g id="text_22">
      <!-- 0.4 -->
      <g transform="translate(312.749545 146.477719)scale(0.1 -0.1)">
       <use xlink:href="#DejaVuSans-30"/>
       <use xlink:href="#DejaVuSans-2e" x="63.623047"/>
       <use xlink:href="#DejaVuSans-34" x="95.410156"/>
      </g>
     </g>
    </g>
    <g id="ytick_10">
     <g id="line2d_22">
      <g>
       <use xlink:href="#me9eccb3021" x="335.65267" y="111.483687" style="stroke: #000000; stroke-width: 0.8"/>
      </g>
     </g>
     <g id="text_23">
      <!-- 0.6 -->
      <g transform="translate(312.749545 115.282906)scale(0.1 -0.1)">
       <use xlink:href="#DejaVuSans-30"/>
       <use xlink:href="#DejaVuSans-2e" x="63.623047"/>
       <use xlink:href="#DejaVuSans-36" x="95.410156"/>
      </g>
     </g>
    </g>
    <g id="ytick_11">
     <g id="line2d_23">
      <g>
       <use xlink:href="#me9eccb3021" x="335.65267" y="80.288875" style="stroke: #000000; stroke-width: 0.8"/>
      </g>
     </g>
     <g id="text_24">
      <!-- 0.8 -->
      <g transform="translate(312.749545 84.088094)scale(0.1 -0.1)">
       <use xlink:href="#DejaVuSans-30"/>
       <use xlink:href="#DejaVuSans-2e" x="63.623047"/>
       <use xlink:href="#DejaVuSans-38" x="95.410156"/>
      </g>
     </g>
    </g>
    <g id="ytick_12">
     <g id="line2d_24">
      <g>
       <use xlink:href="#me9eccb3021" x="335.65267" y="49.094062" style="stroke: #000000; stroke-width: 0.8"/>
      </g>
     </g>
     <g id="text_25">
      <!-- 1.0 -->
      <g transform="translate(312.749545 52.893281)scale(0.1 -0.1)">
       <use xlink:href="#DejaVuSans-31"/>
       <use xlink:href="#DejaVuSans-2e" x="63.623047"/>
       <use xlink:href="#DejaVuSans-30" x="95.410156"/>
      </g>
     </g>
    </g>
    <g id="text_26">
     <!-- Normalized exp output -->
     <g transform="translate(300.25392 195.658281)rotate(-90)scale(0.12 -0.12)">
      <use xlink:href="#DejaVuSans-4e"/>
      <use xlink:href="#DejaVuSans-6f" x="74.804688"/>
      <use xlink:href="#DejaVuSans-72" x="135.986328"/>
      <use xlink:href="#DejaVuSans-6d" x="175.349609"/>
      <use xlink:href="#DejaVuSans-61" x="272.761719"/>
      <use xlink:href="#DejaVuSans-6c" x="334.041016"/>
      <use xlink:href="#DejaVuSans-69" x="361.824219"/>
      <use xlink:href="#DejaVuSans-7a" x="389.607422"/>
      <use xlink:href="#DejaVuSans-65" x="442.097656"/>
      <use xlink:href="#DejaVuSans-64" x="503.621094"/>
      <use xlink:href="#DejaVuSans-20" x="567.097656"/>
      <use xlink:href="#DejaVuSans-65" x="598.884766"/>
      <use xlink:href="#DejaVuSans-78" x="658.658203"/>
      <use xlink:href="#DejaVuSans-70" x="717.837891"/>
      <use xlink:href="#DejaVuSans-20" x="781.314453"/>
      <use xlink:href="#DejaVuSans-6f" x="813.101562"/>
      <use xlink:href="#DejaVuSans-75" x="874.283203"/>
      <use xlink:href="#DejaVuSans-74" x="937.662109"/>
      <use xlink:href="#DejaVuSans-70" x="976.871094"/>
      <use xlink:href="#DejaVuSans-75" x="1040.347656"/>
      <use xlink:href="#DejaVuSans-74" x="1103.726562"/>
     </g>
    </g>
   </g>
   <g id="line2d_25">
    <path d="M 342.742401 201.514884 
L 345.105644 200.938427 
L 347.468887 200.853376 
L 349.832131 200.503722 
L 352.195374 200.239119 
L 354.558617 200.106817 
L 356.921861 199.577611 
L 359.285104 199.199607 
L 361.648348 198.963354 
L 364.011591 198.755452 
L 366.374834 198.282946 
L 368.738078 198.160095 
L 371.101321 197.867141 
L 373.464564 197.432436 
L 375.827808 197.300135 
L 378.191051 196.818179 
L 380.554295 196.525226 
L 382.917538 196.05272 
L 385.280781 195.948769 
L 387.644025 195.570765 
L 390.007268 195.16441 
L 392.370511 194.824206 
L 394.733755 194.569053 
L 397.096998 194.247749 
L 399.460241 194.020947 
L 401.823485 193.727993 
L 404.186728 193.529541 
L 406.549972 193.387789 
L 408.913215 193.227137 
L 411.276458 193.264938 
L 413.639702 193.236588 
L 416.002945 192.839683 
L 418.366188 192.754632 
L 420.729432 192.669581 
L 423.092675 192.641231 
L 425.455919 192.471129 
L 427.819162 192.56563 
L 430.182405 192.253776 
L 432.545649 192.319927 
L 434.908892 192.102574 
L 437.272135 192.036424 
L 439.635379 191.800171 
L 441.998622 191.837971 
L 444.361866 191.677319 
L 446.725109 191.667869 
L 449.088352 191.545018 
L 451.451596 191.450517 
L 453.814839 191.441067 
L 456.178082 191.072512 
L 458.541326 191.204814 
L 460.904569 191.119763 
L 463.267813 190.703958 
L 465.631056 190.88351 
L 467.994299 190.581107 
L 470.357543 190.600007 
L 472.720786 190.373204 
L 475.084029 190.184202 
L 477.447273 190.193652 
L 479.810516 190.02355 
L 482.173759 190.136951 
L 484.537003 189.787297 
" clip-path="url(#pc171c37b34)" style="fill: none; stroke: #f08080; stroke-width: 2; stroke-linecap: square"/>
   </g>
   <g id="line2d_26">
    <path d="M 342.742401 201.401482 
L 345.105644 201.023478 
L 347.468887 200.683274 
L 349.832131 200.409221 
L 352.195374 200.116267 
L 354.558617 199.880015 
L 356.921861 199.596511 
L 359.285104 199.256307 
L 361.648348 198.679851 
L 364.011591 198.377447 
L 366.374834 198.056144 
L 368.738078 198.037243 
L 371.101321 197.697039 
L 373.464564 197.262334 
L 375.827808 196.92213 
L 378.191051 196.742578 
L 380.554295 196.421275 
L 382.917538 196.03382 
L 385.280781 195.504614 
L 387.644025 195.268361 
L 390.007268 194.824206 
L 392.370511 194.219399 
L 394.733755 194.058747 
L 397.096998 193.822494 
L 399.460241 193.397239 
L 401.823485 193.075936 
L 404.186728 193.340539 
L 406.549972 193.104286 
L 408.913215 192.849133 
L 411.276458 192.886933 
L 413.639702 192.62233 
L 416.002945 192.63178 
L 418.366188 192.386078 
L 420.729432 192.187625 
L 423.092675 192.178175 
L 425.455919 192.168725 
L 427.819162 191.847421 
L 430.182405 191.72457 
L 432.545649 191.70567 
L 434.908892 191.526118 
L 437.272135 191.459967 
L 439.635379 191.384366 
L 441.998622 191.327665 
L 444.361866 191.138663 
L 446.725109 191.034712 
L 449.088352 191.091413 
L 451.451596 190.88351 
L 453.814839 190.618907 
L 456.178082 190.940211 
L 458.541326 190.401555 
L 460.904569 190.496056 
L 463.267813 190.165302 
L 465.631056 190.070801 
L 467.994299 190.165302 
L 470.357543 190.04245 
L 472.720786 189.957399 
L 475.084029 189.843998 
L 477.447273 189.730597 
L 479.810516 189.541595 
L 482.173759 189.484894 
L 484.537003 189.343142 
" clip-path="url(#pc171c37b34)" style="fill: none; stroke: #ff0000; stroke-width: 2; stroke-linecap: square"/>
   </g>
   <g id="line2d_27">
    <path d="M 342.742401 201.467633 
L 345.105644 201.080179 
L 347.468887 200.673824 
L 349.832131 200.569873 
L 352.195374 200.475372 
L 354.558617 200.031216 
L 356.921861 199.738263 
L 359.285104 199.50201 
L 361.648348 199.020055 
L 364.011591 198.708201 
L 366.374834 198.500299 
L 368.738078 197.999443 
L 371.101321 197.980543 
L 373.464564 197.479687 
L 375.827808 197.177283 
L 378.191051 196.770929 
L 380.554295 196.553576 
L 382.917538 196.137771 
L 385.280781 195.655816 
L 387.644025 195.287261 
L 390.007268 194.994308 
L 392.370511 194.521802 
L 394.733755 194.143798 
L 397.096998 194.115448 
L 399.460241 193.765794 
L 401.823485 193.586242 
L 404.186728 193.44449 
L 406.549972 193.312188 
L 408.913215 193.132636 
L 411.276458 192.962534 
L 413.639702 192.990885 
L 416.002945 192.735732 
L 418.366188 192.546729 
L 420.729432 192.433328 
L 423.092675 192.159275 
L 425.455919 192.404978 
L 427.819162 191.951373 
L 430.182405 191.77182 
L 432.545649 191.828521 
L 434.908892 191.72457 
L 437.272135 191.71512 
L 439.635379 191.459967 
L 441.998622 191.431617 
L 444.361866 191.299315 
L 446.725109 191.072512 
L 449.088352 191.365466 
L 451.451596 191.233164 
L 453.814839 190.996911 
L 456.178082 190.666158 
L 458.541326 190.741759 
L 460.904569 190.373204 
L 463.267813 190.533856 
L 465.631056 190.222002 
L 467.994299 190.307053 
L 470.357543 190.269253 
L 472.720786 189.910149 
L 475.084029 190.061351 
L 477.447273 189.796748 
L 479.810516 189.881799 
L 482.173759 189.522694 
L 484.537003 189.664446 
" clip-path="url(#pc171c37b34)" style="fill: none; stroke: #800000; stroke-width: 2; stroke-linecap: square"/>
   </g>
   <g id="patch_7">
    <path d="M 335.65267 205.068125 
L 335.65267 49.094062 
" style="fill: none; stroke: #000000; stroke-width: 0.8; stroke-linejoin: miter; stroke-linecap: square"/>
   </g>
   <g id="patch_8">
    <path d="M 335.65267 205.068125 
L 491.626733 205.068125 
" style="fill: none; stroke: #000000; stroke-width: 0.8; stroke-linejoin: miter; stroke-linecap: square"/>
   </g>
   <g id="text_27">
    <!-- vRNA = 1fM -->
    <g transform="translate(380.175639 43.094062)scale(0.1 -0.1)">
     <defs>
      <path id="DejaVuSans-Bold-31" d="M 750 831 
L 1813 831 
L 1813 3847 
L 722 3622 
L 722 4441 
L 1806 4666 
L 2950 4666 
L 2950 831 
L 4013 831 
L 4013 0 
L 750 0 
L 750 831 
z
" transform="scale(0.015625)"/>
     </defs>
     <use xlink:href="#DejaVuSans-Bold-76"/>
     <use xlink:href="#DejaVuSans-Bold-52" x="65.185547"/>
     <use xlink:href="#DejaVuSans-Bold-4e" x="142.1875"/>
     <use xlink:href="#DejaVuSans-Bold-41" x="225.878906"/>
     <use xlink:href="#DejaVuSans-Bold-20" x="303.271484"/>
     <use xlink:href="#DejaVuSans-Bold-3d" x="338.085938"/>
     <use xlink:href="#DejaVuSans-Bold-20" x="421.875"/>
     <use xlink:href="#DejaVuSans-Bold-31" x="456.689453"/>
     <use xlink:href="#DejaVuSans-Bold-66" x="526.269531"/>
     <use xlink:href="#DejaVuSans-Bold-4d" x="569.775391"/>
    </g>
   </g>
   <g id="legend_2">
    <g id="patch_9">
     <path d="M 388.90017 101.128437 
L 484.626733 101.128437 
Q 486.626733 101.128437 486.626733 99.128437 
L 486.626733 56.094062 
Q 486.626733 54.094062 484.626733 54.094062 
L 388.90017 54.094062 
Q 386.90017 54.094062 386.90017 56.094062 
L 386.90017 99.128437 
Q 386.90017 101.128437 388.90017 101.128437 
z
" style="fill: #ffffff; opacity: 0.8; stroke: #cccccc; stroke-linejoin: miter"/>
    </g>
    <g id="line2d_28">
     <path d="M 390.90017 62.1925 
L 400.90017 62.1925 
L 410.90017 62.1925 
" style="fill: none; stroke: #f08080; stroke-width: 2; stroke-linecap: square"/>
    </g>
    <g id="text_28">
     <!-- RNase 0.001 -->
     <g transform="translate(418.90017 65.6925)scale(0.1 -0.1)">
      <use xlink:href="#DejaVuSans-52"/>
      <use xlink:href="#DejaVuSans-4e" x="69.482422"/>
      <use xlink:href="#DejaVuSans-61" x="144.287109"/>
      <use xlink:href="#DejaVuSans-73" x="205.566406"/>
      <use xlink:href="#DejaVuSans-65" x="257.666016"/>
      <use xlink:href="#DejaVuSans-20" x="319.189453"/>
      <use xlink:href="#DejaVuSans-30" x="350.976562"/>
      <use xlink:href="#DejaVuSans-2e" x="414.599609"/>
      <use xlink:href="#DejaVuSans-30" x="446.386719"/>
      <use xlink:href="#DejaVuSans-30" x="510.009766"/>
      <use xlink:href="#DejaVuSans-31" x="573.632812"/>
     </g>
    </g>
    <g id="line2d_29">
     <path d="M 390.90017 76.870625 
L 400.90017 76.870625 
L 410.90017 76.870625 
" style="fill: none; stroke: #ff0000; stroke-width: 2; stroke-linecap: square"/>
    </g>
    <g id="text_29">
     <!-- RNase 0.005 -->
     <g transform="translate(418.90017 80.370625)scale(0.1 -0.1)">
      <use xlink:href="#DejaVuSans-52"/>
      <use xlink:href="#DejaVuSans-4e" x="69.482422"/>
      <use xlink:href="#DejaVuSans-61" x="144.287109"/>
      <use xlink:href="#DejaVuSans-73" x="205.566406"/>
      <use xlink:href="#DejaVuSans-65" x="257.666016"/>
      <use xlink:href="#DejaVuSans-20" x="319.189453"/>
      <use xlink:href="#DejaVuSans-30" x="350.976562"/>
      <use xlink:href="#DejaVuSans-2e" x="414.599609"/>
      <use xlink:href="#DejaVuSans-30" x="446.386719"/>
      <use xlink:href="#DejaVuSans-30" x="510.009766"/>
      <use xlink:href="#DejaVuSans-35" x="573.632812"/>
     </g>
    </g>
    <g id="line2d_30">
     <path d="M 390.90017 91.54875 
L 400.90017 91.54875 
L 410.90017 91.54875 
" style="fill: none; stroke: #800000; stroke-width: 2; stroke-linecap: square"/>
    </g>
    <g id="text_30">
     <!-- RNase 0.02 -->
     <g transform="translate(418.90017 95.04875)scale(0.1 -0.1)">
      <use xlink:href="#DejaVuSans-52"/>
      <use xlink:href="#DejaVuSans-4e" x="69.482422"/>
      <use xlink:href="#DejaVuSans-61" x="144.287109"/>
      <use xlink:href="#DejaVuSans-73" x="205.566406"/>
      <use xlink:href="#DejaVuSans-65" x="257.666016"/>
      <use xlink:href="#DejaVuSans-20" x="319.189453"/>
      <use xlink:href="#DejaVuSans-30" x="350.976562"/>
      <use xlink:href="#DejaVuSans-2e" x="414.599609"/>
      <use xlink:href="#DejaVuSans-30" x="446.386719"/>
      <use xlink:href="#DejaVuSans-32" x="510.009766"/>
     </g>
    </g>
   </g>
  </g>
  <g id="axes_3">
   <g id="patch_10">
    <path d="M 619.588466 205.068125 
L 775.562528 205.068125 
L 775.562528 49.094062 
L 619.588466 49.094062 
z
" style="fill: #ffffff"/>
   </g>
   <g id="PolyCollection_7">
    <defs>
     <path id="m85352d545a" d="M 626.678196 -48.881254 
L 626.678196 -48.717573 
L 629.041439 -49.076181 
L 631.404683 -49.533665 
L 633.767926 -49.624077 
L 636.13117 -49.806505 
L 638.494413 -50.173047 
L 640.857656 -50.244606 
L 643.2209 -50.372732 
L 645.584143 -50.78226 
L 647.947386 -51.2366 
L 650.31063 -51.344971 
L 652.673873 -51.71064 
L 655.037116 -52.01138 
L 657.40036 -52.285562 
L 659.763603 -52.522757 
L 662.126847 -53.004712 
L 664.49009 -53.17146 
L 666.853333 -53.543369 
L 669.216577 -54.115195 
L 671.57982 -54.545673 
L 673.943063 -54.500654 
L 676.306307 -55.320849 
L 678.66955 -55.263092 
L 681.032794 -55.978471 
L 683.396037 -56.07076 
L 685.75928 -56.570021 
L 688.122524 -57.006445 
L 690.485767 -57.110687 
L 692.84901 -57.702457 
L 695.212254 -58.136122 
L 697.575497 -58.699616 
L 699.938741 -58.886649 
L 702.301984 -59.188236 
L 704.665227 -59.440642 
L 707.028471 -60.054443 
L 709.391714 -60.342777 
L 711.754957 -60.580939 
L 714.118201 -60.699422 
L 716.481444 -60.756881 
L 718.844687 -61.132012 
L 721.207931 -61.219438 
L 723.571174 -61.349023 
L 725.934418 -61.221865 
L 728.297661 -61.573896 
L 730.660904 -61.631228 
L 733.024148 -61.577302 
L 735.387391 -61.838587 
L 737.750634 -61.804786 
L 740.113878 -62.057871 
L 742.477121 -61.907458 
L 744.840365 -62.138652 
L 747.203608 -62.315073 
L 749.566851 -62.300636 
L 751.930095 -62.113636 
L 754.293338 -62.394521 
L 756.656581 -62.646103 
L 759.019825 -63.051493 
L 761.383068 -62.783257 
L 763.746312 -62.793787 
L 766.109555 -63.179424 
L 768.472798 -63.085398 
L 768.472798 -72.219367 
L 768.472798 -72.219367 
L 766.109555 -72.182041 
L 763.746312 -72.095173 
L 761.383068 -72.105703 
L 759.019825 -72.631276 
L 756.656581 -72.205056 
L 754.293338 -72.343238 
L 751.930095 -72.208318 
L 749.566851 -71.700014 
L 747.203608 -71.855679 
L 744.840365 -71.805297 
L 742.477121 -71.658487 
L 740.113878 -71.659276 
L 737.750634 -71.213053 
L 735.387391 -70.914649 
L 733.024148 -70.835729 
L 730.660904 -70.347099 
L 728.297661 -70.612332 
L 725.934418 -69.83035 
L 723.571174 -69.230687 
L 721.207931 -68.831066 
L 718.844687 -68.086882 
L 716.481444 -67.743805 
L 714.118201 -66.969654 
L 711.754957 -66.275428 
L 709.391714 -65.66308 
L 707.028471 -65.271006 
L 704.665227 -64.297189 
L 702.301984 -63.774685 
L 699.938741 -62.753257 
L 697.575497 -61.957479 
L 695.212254 -61.311359 
L 692.84901 -60.53541 
L 690.485767 -59.615162 
L 688.122524 -59.246899 
L 685.75928 -58.341407 
L 683.396037 -57.593254 
L 681.032794 -56.778332 
L 678.66955 -56.624301 
L 676.306307 -55.942836 
L 673.943063 -55.383316 
L 671.57982 -54.695689 
L 669.216577 -54.351258 
L 666.853333 -53.996974 
L 664.49009 -53.707374 
L 662.126847 -53.174814 
L 659.763603 -53.033063 
L 657.40036 -52.570949 
L 655.037116 -52.429327 
L 652.673873 -51.860656 
L 650.31063 -51.829421 
L 647.947386 -51.521987 
L 645.584143 -51.050216 
L 643.2209 -50.911637 
L 640.857656 -50.642859 
L 638.494413 -50.355314 
L 636.13117 -50.249351 
L 633.767926 -49.978173 
L 631.404683 -49.974084 
L 629.041439 -49.599959 
L 626.678196 -48.881254 
z
" style="stroke: #f08080; stroke-opacity: 0.2"/>
    </defs>
    <g clip-path="url(#p750e0551d4)">
     <use xlink:href="#m85352d545a" x="0" y="250.56" style="fill: #f08080; fill-opacity: 0.2; stroke: #f08080; stroke-opacity: 0.2"/>
    </g>
   </g>
   <g id="PolyCollection_8">
    <defs>
     <path id="m22cb4c952b" d="M 626.678196 -49.283914 
L 626.678196 -48.579516 
L 629.041439 -49.479231 
L 631.404683 -49.584435 
L 633.767926 -49.681405 
L 636.13117 -49.397388 
L 638.494413 -50.222809 
L 640.857656 -50.328934 
L 643.2209 -50.625651 
L 645.584143 -50.793438 
L 647.947386 -51.301703 
L 650.31063 -51.354119 
L 652.673873 -51.668346 
L 655.037116 -52.234471 
L 657.40036 -52.230099 
L 659.763603 -53.007409 
L 662.126847 -53.658446 
L 664.49009 -54.520483 
L 666.853333 -55.177153 
L 669.216577 -56.541452 
L 671.57982 -57.294934 
L 673.943063 -58.962232 
L 676.306307 -60.316907 
L 678.66955 -62.032673 
L 681.032794 -64.190375 
L 683.396037 -65.738197 
L 685.75928 -67.74059 
L 688.122524 -69.636981 
L 690.485767 -71.633426 
L 692.84901 -74.301962 
L 695.212254 -75.573517 
L 697.575497 -77.895562 
L 699.938741 -78.665348 
L 702.301984 -79.540538 
L 704.665227 -80.831962 
L 707.028471 -81.756056 
L 709.391714 -82.32427 
L 711.754957 -82.697718 
L 714.118201 -83.307125 
L 716.481444 -82.750271 
L 718.844687 -83.239521 
L 721.207931 -83.621335 
L 723.571174 -83.239692 
L 725.934418 -84.014682 
L 728.297661 -83.628334 
L 730.660904 -83.293517 
L 733.024148 -83.313148 
L 735.387391 -84.059262 
L 737.750634 -84.034866 
L 740.113878 -83.937141 
L 742.477121 -83.871817 
L 744.840365 -83.870259 
L 747.203608 -84.756605 
L 749.566851 -85.32299 
L 751.930095 -84.210105 
L 754.293338 -85.320311 
L 756.656581 -84.551616 
L 759.019825 -84.582582 
L 761.383068 -84.892126 
L 763.746312 -84.729692 
L 766.109555 -85.066054 
L 768.472798 -85.152619 
L 768.472798 -118.419739 
L 768.472798 -118.419739 
L 766.109555 -118.1472 
L 763.746312 -117.425149 
L 761.383068 -117.602919 
L 759.019825 -117.307656 
L 756.656581 -117.565425 
L 754.293338 -117.288137 
L 751.930095 -118.114839 
L 749.566851 -116.794052 
L 747.203608 -117.228134 
L 744.840365 -116.885967 
L 742.477121 -116.260701 
L 740.113878 -116.686783 
L 737.750634 -116.910362 
L 735.387391 -116.507961 
L 733.024148 -116.743769 
L 730.660904 -116.555498 
L 728.297661 -115.389072 
L 725.934418 -113.79311 
L 723.571174 -114.700401 
L 721.207931 -113.260345 
L 718.844687 -112.375845 
L 716.481444 -110.332466 
L 714.118201 -109.057403 
L 711.754957 -108.173693 
L 709.391714 -105.90111 
L 707.028471 -103.067284 
L 704.665227 -100.475938 
L 702.301984 -97.873917 
L 699.938741 -94.893462 
L 697.575497 -90.938193 
L 695.212254 -88.30838 
L 692.84901 -83.701967 
L 690.485767 -81.097342 
L 688.122524 -77.877325 
L 685.75928 -74.387155 
L 683.396037 -71.834594 
L 681.032794 -68.430559 
L 678.66955 -65.825406 
L 676.306307 -63.458724 
L 673.943063 -61.354659 
L 671.57982 -59.393114 
L 669.216577 -57.91637 
L 666.853333 -56.577938 
L 664.49009 -55.968294 
L 662.126847 -55.148211 
L 659.763603 -54.627435 
L 657.40036 -54.346333 
L 655.037116 -53.396949 
L 652.673873 -53.320467 
L 650.31063 -52.897585 
L 647.947386 -52.874401 
L 645.584143 -52.532155 
L 643.2209 -52.019534 
L 640.857656 -52.18395 
L 638.494413 -51.401765 
L 636.13117 -51.168773 
L 633.767926 -50.733555 
L 631.404683 -50.528122 
L 629.041439 -49.934016 
L 626.678196 -49.283914 
z
" style="stroke: #ff0000; stroke-opacity: 0.2"/>
    </defs>
    <g clip-path="url(#p750e0551d4)">
     <use xlink:href="#m22cb4c952b" x="0" y="250.56" style="fill: #ff0000; fill-opacity: 0.2; stroke: #ff0000; stroke-opacity: 0.2"/>
    </g>
   </g>
   <g id="PolyCollection_9">
    <defs>
     <path id="m9bbf94f9f1" d="M 626.678196 -49.201107 
L 626.678196 -48.152017 
L 629.041439 -48.897472 
L 631.404683 -48.856179 
L 633.767926 -49.34875 
L 636.13117 -49.744424 
L 638.494413 -49.783207 
L 640.857656 -50.13591 
L 643.2209 -50.490084 
L 645.584143 -50.774191 
L 647.947386 -50.75099 
L 650.31063 -51.18002 
L 652.673873 -51.453845 
L 655.037116 -51.617913 
L 657.40036 -51.949714 
L 659.763603 -52.253624 
L 662.126847 -52.739422 
L 664.49009 -53.094428 
L 666.853333 -53.950316 
L 669.216577 -54.231777 
L 671.57982 -54.680069 
L 673.943063 -55.24692 
L 676.306307 -55.771503 
L 678.66955 -55.866621 
L 681.032794 -56.003446 
L 683.396037 -56.4939 
L 685.75928 -56.822466 
L 688.122524 -56.739401 
L 690.485767 -57.314451 
L 692.84901 -57.554824 
L 695.212254 -57.665799 
L 697.575497 -58.198167 
L 699.938741 -58.398524 
L 702.301984 -58.625287 
L 704.665227 -58.865652 
L 707.028471 -58.893116 
L 709.391714 -58.965532 
L 711.754957 -59.268856 
L 714.118201 -59.466721 
L 716.481444 -59.462076 
L 718.844687 -59.582871 
L 721.207931 -59.867927 
L 723.571174 -60.016402 
L 725.934418 -60.06125 
L 728.297661 -60.084506 
L 730.660904 -59.934524 
L 733.024148 -59.99699 
L 735.387391 -60.292372 
L 737.750634 -60.230757 
L 740.113878 -60.213332 
L 742.477121 -60.558462 
L 744.840365 -60.423391 
L 747.203608 -60.490082 
L 749.566851 -60.826057 
L 751.930095 -60.682733 
L 754.293338 -60.619309 
L 756.656581 -60.762443 
L 759.019825 -60.745939 
L 761.383068 -61.072962 
L 763.746312 -61.33594 
L 766.109555 -61.017164 
L 768.472798 -61.053473 
L 768.472798 -68.997031 
L 768.472798 -68.997031 
L 766.109555 -69.146741 
L 763.746312 -68.922466 
L 761.383068 -69.072043 
L 759.019825 -68.85096 
L 756.656581 -69.042358 
L 754.293338 -68.769687 
L 751.930095 -69.329971 
L 749.566851 -68.808642 
L 747.203608 -68.785513 
L 744.840365 -68.512 
L 742.477121 -68.849435 
L 740.113878 -68.77876 
L 737.750634 -68.269929 
L 735.387391 -68.094913 
L 733.024148 -68.333594 
L 730.660904 -68.207058 
L 728.297661 -68.038176 
L 725.934418 -68.118132 
L 723.571174 -67.973978 
L 721.207931 -67.933451 
L 718.844687 -67.878302 
L 716.481444 -67.602193 
L 714.118201 -67.314045 
L 711.754957 -67.436309 
L 709.391714 -67.210427 
L 707.028471 -66.867038 
L 704.665227 -66.497597 
L 702.301984 -65.64175 
L 699.938741 -65.055803 
L 697.575497 -64.726955 
L 695.212254 -63.596103 
L 692.84901 -62.743167 
L 690.485767 -61.887327 
L 688.122524 -60.742457 
L 685.75928 -59.771082 
L 683.396037 -58.833332 
L 681.032794 -57.962971 
L 678.66955 -57.079184 
L 676.306307 -56.285992 
L 673.943063 -55.279657 
L 671.57982 -55.109399 
L 669.216577 -54.726082 
L 666.853333 -54.100332 
L 664.49009 -54.200212 
L 662.126847 -53.780308 
L 659.763603 -53.7369 
L 657.40036 -53.228101 
L 655.037116 -53.011796 
L 652.673873 -52.476555 
L 650.31063 -52.485777 
L 647.947386 -52.31 
L 645.584143 -51.681992 
L 643.2209 -51.682596 
L 640.857656 -51.261861 
L 638.494413 -51.236559 
L 636.13117 -50.651635 
L 633.767926 -50.291301 
L 631.404683 -50.235765 
L 629.041439 -49.797567 
L 626.678196 -49.201107 
z
" style="stroke: #800000; stroke-opacity: 0.2"/>
    </defs>
    <g clip-path="url(#p750e0551d4)">
     <use xlink:href="#m9bbf94f9f1" x="0" y="250.56" style="fill: #800000; fill-opacity: 0.2; stroke: #800000; stroke-opacity: 0.2"/>
    </g>
   </g>
   <g id="matplotlib.axis_5">
    <g id="xtick_7">
     <g id="line2d_31">
      <g>
       <use xlink:href="#mecf5ae0c97" x="626.678196" y="205.068125" style="stroke: #000000; stroke-width: 0.8"/>
      </g>
     </g>
     <g id="text_31">
      <!-- 0 -->
      <g transform="translate(623.496946 219.666562)scale(0.1 -0.1)">
       <use xlink:href="#DejaVuSans-30"/>
      </g>
     </g>
    </g>
    <g id="xtick_8">
     <g id="line2d_32">
      <g>
       <use xlink:href="#mecf5ae0c97" x="685.75928" y="205.068125" style="stroke: #000000; stroke-width: 0.8"/>
      </g>
     </g>
     <g id="text_32">
      <!-- 100 -->
      <g transform="translate(676.21553 219.666562)scale(0.1 -0.1)">
       <use xlink:href="#DejaVuSans-31"/>
       <use xlink:href="#DejaVuSans-30" x="63.623047"/>
       <use xlink:href="#DejaVuSans-30" x="127.246094"/>
      </g>
     </g>
    </g>
    <g id="xtick_9">
     <g id="line2d_33">
      <g>
       <use xlink:href="#mecf5ae0c97" x="744.840365" y="205.068125" style="stroke: #000000; stroke-width: 0.8"/>
      </g>
     </g>
     <g id="text_33">
      <!-- 200 -->
      <g transform="translate(735.296615 219.666562)scale(0.1 -0.1)">
       <use xlink:href="#DejaVuSans-32"/>
       <use xlink:href="#DejaVuSans-30" x="63.623047"/>
       <use xlink:href="#DejaVuSans-30" x="127.246094"/>
      </g>
     </g>
    </g>
    <g id="text_34">
     <!-- Time (min) -->
     <g transform="translate(664.992685 240.864375)scale(0.12 -0.12)">
      <use xlink:href="#DejaVuSans-54"/>
      <use xlink:href="#DejaVuSans-69" x="57.958984"/>
      <use xlink:href="#DejaVuSans-6d" x="85.742188"/>
      <use xlink:href="#DejaVuSans-65" x="183.154297"/>
      <use xlink:href="#DejaVuSans-20" x="244.677734"/>
      <use xlink:href="#DejaVuSans-28" x="276.464844"/>
      <use xlink:href="#DejaVuSans-6d" x="315.478516"/>
      <use xlink:href="#DejaVuSans-69" x="412.890625"/>
      <use xlink:href="#DejaVuSans-6e" x="440.673828"/>
      <use xlink:href="#DejaVuSans-29" x="504.052734"/>
     </g>
    </g>
   </g>
   <g id="matplotlib.axis_6">
    <g id="ytick_13">
     <g id="line2d_34">
      <g>
       <use xlink:href="#me9eccb3021" x="619.588466" y="205.068125" style="stroke: #000000; stroke-width: 0.8"/>
      </g>
     </g>
     <g id="text_35">
      <!-- 0.0 -->
      <g transform="translate(596.685341 208.867344)scale(0.1 -0.1)">
       <use xlink:href="#DejaVuSans-30"/>
       <use xlink:href="#DejaVuSans-2e" x="63.623047"/>
       <use xlink:href="#DejaVuSans-30" x="95.410156"/>
      </g>
     </g>
    </g>
    <g id="ytick_14">
     <g id="line2d_35">
      <g>
       <use xlink:href="#me9eccb3021" x="619.588466" y="173.873312" style="stroke: #000000; stroke-width: 0.8"/>
      </g>
     </g>
     <g id="text_36">
      <!-- 0.2 -->
      <g transform="translate(596.685341 177.672531)scale(0.1 -0.1)">
       <use xlink:href="#DejaVuSans-30"/>
       <use xlink:href="#DejaVuSans-2e" x="63.623047"/>
       <use xlink:href="#DejaVuSans-32" x="95.410156"/>
      </g>
     </g>
    </g>
    <g id="ytick_15">
     <g id="line2d_36">
      <g>
       <use xlink:href="#me9eccb3021" x="619.588466" y="142.6785" style="stroke: #000000; stroke-width: 0.8"/>
      </g>
     </g>
     <g id="text_37">
      <!-- 0.4 -->
      <g transform="translate(596.685341 146.477719)scale(0.1 -0.1)">
       <use xlink:href="#DejaVuSans-30"/>
       <use xlink:href="#DejaVuSans-2e" x="63.623047"/>
       <use xlink:href="#DejaVuSans-34" x="95.410156"/>
      </g>
     </g>
    </g>
    <g id="ytick_16">
     <g id="line2d_37">
      <g>
       <use xlink:href="#me9eccb3021" x="619.588466" y="111.483687" style="stroke: #000000; stroke-width: 0.8"/>
      </g>
     </g>
     <g id="text_38">
      <!-- 0.6 -->
      <g transform="translate(596.685341 115.282906)scale(0.1 -0.1)">
       <use xlink:href="#DejaVuSans-30"/>
       <use xlink:href="#DejaVuSans-2e" x="63.623047"/>
       <use xlink:href="#DejaVuSans-36" x="95.410156"/>
      </g>
     </g>
    </g>
    <g id="ytick_17">
     <g id="line2d_38">
      <g>
       <use xlink:href="#me9eccb3021" x="619.588466" y="80.288875" style="stroke: #000000; stroke-width: 0.8"/>
      </g>
     </g>
     <g id="text_39">
      <!-- 0.8 -->
      <g transform="translate(596.685341 84.088094)scale(0.1 -0.1)">
       <use xlink:href="#DejaVuSans-30"/>
       <use xlink:href="#DejaVuSans-2e" x="63.623047"/>
       <use xlink:href="#DejaVuSans-38" x="95.410156"/>
      </g>
     </g>
    </g>
    <g id="ytick_18">
     <g id="line2d_39">
      <g>
       <use xlink:href="#me9eccb3021" x="619.588466" y="49.094062" style="stroke: #000000; stroke-width: 0.8"/>
      </g>
     </g>
     <g id="text_40">
      <!-- 1.0 -->
      <g transform="translate(596.685341 52.893281)scale(0.1 -0.1)">
       <use xlink:href="#DejaVuSans-31"/>
       <use xlink:href="#DejaVuSans-2e" x="63.623047"/>
       <use xlink:href="#DejaVuSans-30" x="95.410156"/>
      </g>
     </g>
    </g>
   </g>
   <g id="line2d_40">
    <path d="M 626.678196 201.760587 
L 629.041439 201.22193 
L 631.404683 200.806125 
L 633.767926 200.758875 
L 636.13117 200.532072 
L 638.494413 200.29582 
L 640.857656 200.116267 
L 643.2209 199.917815 
L 645.584143 199.643762 
L 647.947386 199.180707 
L 650.31063 198.972804 
L 652.673873 198.774352 
L 655.037116 198.339647 
L 657.40036 198.131744 
L 659.763603 197.78209 
L 662.126847 197.470237 
L 664.49009 197.120583 
L 666.853333 196.789829 
L 669.216577 196.326773 
L 671.57982 195.939319 
L 673.943063 195.618015 
L 676.306307 194.928157 
L 678.66955 194.616304 
L 681.032794 194.181598 
L 683.396037 193.727993 
L 685.75928 193.104286 
L 688.122524 192.433328 
L 690.485767 192.197075 
L 692.84901 191.441067 
L 695.212254 190.83626 
L 697.575497 190.231453 
L 699.938741 189.740047 
L 702.301984 189.078539 
L 704.665227 188.691085 
L 707.028471 187.897275 
L 709.391714 187.557072 
L 711.754957 187.131817 
L 714.118201 186.725462 
L 716.481444 186.309657 
L 718.844687 185.950553 
L 721.207931 185.534748 
L 723.571174 185.270145 
L 725.934418 185.033892 
L 728.297661 184.466886 
L 730.660904 184.570837 
L 733.024148 184.353484 
L 735.387391 184.183382 
L 737.750634 184.051081 
L 740.113878 183.701427 
L 742.477121 183.777028 
L 744.840365 183.588025 
L 747.203608 183.474624 
L 749.566851 183.559675 
L 751.930095 183.399023 
L 754.293338 183.191121 
L 756.656581 183.13442 
L 759.019825 182.718615 
L 761.383068 183.11552 
L 763.746312 183.11552 
L 766.109555 182.879267 
L 768.472798 182.907617 
" clip-path="url(#p750e0551d4)" style="fill: none; stroke: #f08080; stroke-width: 2; stroke-linecap: square"/>
   </g>
   <g id="line2d_41">
    <path d="M 626.678196 201.628285 
L 629.041439 200.853376 
L 631.404683 200.503722 
L 633.767926 200.35252 
L 636.13117 200.276919 
L 638.494413 199.747713 
L 640.857656 199.303558 
L 643.2209 199.237407 
L 645.584143 198.897203 
L 647.947386 198.471948 
L 650.31063 198.434148 
L 652.673873 198.065594 
L 655.037116 197.74429 
L 657.40036 197.271784 
L 659.763603 196.742578 
L 662.126847 196.156671 
L 664.49009 195.315612 
L 666.853333 194.682454 
L 669.216577 193.331089 
L 671.57982 192.215976 
L 673.943063 190.401555 
L 676.306307 188.672184 
L 678.66955 186.630961 
L 681.032794 184.249533 
L 683.396037 181.773604 
L 685.75928 179.496128 
L 688.122524 176.802847 
L 690.485767 174.194616 
L 692.84901 171.558036 
L 695.212254 168.619051 
L 697.575497 166.143123 
L 699.938741 163.780595 
L 702.301984 161.852773 
L 704.665227 159.90605 
L 707.028471 158.14833 
L 709.391714 156.44731 
L 711.754957 155.124295 
L 714.118201 154.377736 
L 716.481444 154.018632 
L 718.844687 152.752317 
L 721.207931 152.11916 
L 723.571174 151.589954 
L 725.934418 151.656104 
L 728.297661 151.051297 
L 730.660904 150.635492 
L 733.024148 150.531541 
L 735.387391 150.276388 
L 737.750634 150.087386 
L 740.113878 150.248038 
L 742.477121 150.493741 
L 744.840365 150.181887 
L 747.203608 149.56763 
L 749.566851 149.501479 
L 751.930095 149.397528 
L 754.293338 149.255776 
L 756.656581 149.501479 
L 759.019825 149.614881 
L 761.383068 149.312477 
L 763.746312 149.482579 
L 766.109555 148.953373 
L 768.472798 148.773821 
" clip-path="url(#p750e0551d4)" style="fill: none; stroke: #ff0000; stroke-width: 2; stroke-linecap: square"/>
   </g>
   <g id="line2d_42">
    <path d="M 626.678196 201.883438 
L 629.041439 201.21248 
L 631.404683 201.014028 
L 633.767926 200.739975 
L 636.13117 200.36197 
L 638.494413 200.050117 
L 640.857656 199.861114 
L 643.2209 199.47366 
L 645.584143 199.331908 
L 647.947386 199.029505 
L 650.31063 198.727101 
L 652.673873 198.5948 
L 655.037116 198.245146 
L 657.40036 197.971093 
L 659.763603 197.564738 
L 662.126847 197.300135 
L 664.49009 196.91268 
L 666.853333 196.534676 
L 669.216577 196.081071 
L 671.57982 195.665266 
L 673.943063 195.296711 
L 676.306307 194.531253 
L 678.66955 194.087097 
L 681.032794 193.576791 
L 683.396037 192.896384 
L 685.75928 192.263226 
L 688.122524 191.819071 
L 690.485767 190.959111 
L 692.84901 190.411005 
L 695.212254 189.929049 
L 697.575497 189.097439 
L 699.938741 188.832836 
L 702.301984 188.426482 
L 704.665227 187.878375 
L 707.028471 187.679923 
L 709.391714 187.472021 
L 711.754957 187.207417 
L 714.118201 187.169617 
L 716.481444 187.027865 
L 718.844687 186.829413 
L 721.207931 186.659311 
L 723.571174 186.56481 
L 725.934418 186.470309 
L 728.297661 186.498659 
L 730.660904 186.489209 
L 733.024148 186.394708 
L 735.387391 186.366358 
L 737.750634 186.309657 
L 740.113878 186.063954 
L 742.477121 185.856052 
L 744.840365 186.092304 
L 747.203608 185.922203 
L 749.566851 185.74265 
L 751.930095 185.553648 
L 754.293338 185.865502 
L 756.656581 185.657599 
L 759.019825 185.761551 
L 761.383068 185.487497 
L 763.746312 185.430797 
L 766.109555 185.478047 
L 768.472798 185.534748 
" clip-path="url(#p750e0551d4)" style="fill: none; stroke: #800000; stroke-width: 2; stroke-linecap: square"/>
   </g>
   <g id="patch_11">
    <path d="M 619.588466 205.068125 
L 619.588466 49.094062 
" style="fill: none; stroke: #000000; stroke-width: 0.8; stroke-linejoin: miter; stroke-linecap: square"/>
   </g>
   <g id="patch_12">
    <path d="M 619.588466 205.068125 
L 775.562528 205.068125 
" style="fill: none; stroke: #000000; stroke-width: 0.8; stroke-linejoin: miter; stroke-linecap: square"/>
   </g>
   <g id="text_41">
    <!-- vRNA = 10fM -->
    <g transform="translate(660.632528 43.094062)scale(0.1 -0.1)">
     <use xlink:href="#DejaVuSans-Bold-76"/>
     <use xlink:href="#DejaVuSans-Bold-52" x="65.185547"/>
     <use xlink:href="#DejaVuSans-Bold-4e" x="142.1875"/>
     <use xlink:href="#DejaVuSans-Bold-41" x="225.878906"/>
     <use xlink:href="#DejaVuSans-Bold-20" x="303.271484"/>
     <use xlink:href="#DejaVuSans-Bold-3d" x="338.085938"/>
     <use xlink:href="#DejaVuSans-Bold-20" x="421.875"/>
     <use xlink:href="#DejaVuSans-Bold-31" x="456.689453"/>
     <use xlink:href="#DejaVuSans-Bold-30" x="526.269531"/>
     <use xlink:href="#DejaVuSans-Bold-66" x="595.849609"/>
     <use xlink:href="#DejaVuSans-Bold-4d" x="639.355469"/>
    </g>
   </g>
   <g id="legend_3">
    <g id="patch_13">
     <path d="M 672.835966 101.128437 
L 768.562528 101.128437 
Q 770.562528 101.128437 770.562528 99.128437 
L 770.562528 56.094062 
Q 770.562528 54.094062 768.562528 54.094062 
L 672.835966 54.094062 
Q 670.835966 54.094062 670.835966 56.094062 
L 670.835966 99.128437 
Q 670.835966 101.128437 672.835966 101.128437 
z
" style="fill: #ffffff; opacity: 0.8; stroke: #cccccc; stroke-linejoin: miter"/>
    </g>
    <g id="line2d_43">
     <path d="M 674.835966 62.1925 
L 684.835966 62.1925 
L 694.835966 62.1925 
" style="fill: none; stroke: #f08080; stroke-width: 2; stroke-linecap: square"/>
    </g>
    <g id="text_42">
     <!-- RNase 0.001 -->
     <g transform="translate(702.835966 65.6925)scale(0.1 -0.1)">
      <use xlink:href="#DejaVuSans-52"/>
      <use xlink:href="#DejaVuSans-4e" x="69.482422"/>
      <use xlink:href="#DejaVuSans-61" x="144.287109"/>
      <use xlink:href="#DejaVuSans-73" x="205.566406"/>
      <use xlink:href="#DejaVuSans-65" x="257.666016"/>
      <use xlink:href="#DejaVuSans-20" x="319.189453"/>
      <use xlink:href="#DejaVuSans-30" x="350.976562"/>
      <use xlink:href="#DejaVuSans-2e" x="414.599609"/>
      <use xlink:href="#DejaVuSans-30" x="446.386719"/>
      <use xlink:href="#DejaVuSans-30" x="510.009766"/>
      <use xlink:href="#DejaVuSans-31" x="573.632812"/>
     </g>
    </g>
    <g id="line2d_44">
     <path d="M 674.835966 76.870625 
L 684.835966 76.870625 
L 694.835966 76.870625 
" style="fill: none; stroke: #ff0000; stroke-width: 2; stroke-linecap: square"/>
    </g>
    <g id="text_43">
     <!-- RNase 0.005 -->
     <g transform="translate(702.835966 80.370625)scale(0.1 -0.1)">
      <use xlink:href="#DejaVuSans-52"/>
      <use xlink:href="#DejaVuSans-4e" x="69.482422"/>
      <use xlink:href="#DejaVuSans-61" x="144.287109"/>
      <use xlink:href="#DejaVuSans-73" x="205.566406"/>
      <use xlink:href="#DejaVuSans-65" x="257.666016"/>
      <use xlink:href="#DejaVuSans-20" x="319.189453"/>
      <use xlink:href="#DejaVuSans-30" x="350.976562"/>
      <use xlink:href="#DejaVuSans-2e" x="414.599609"/>
      <use xlink:href="#DejaVuSans-30" x="446.386719"/>
      <use xlink:href="#DejaVuSans-30" x="510.009766"/>
      <use xlink:href="#DejaVuSans-35" x="573.632812"/>
     </g>
    </g>
    <g id="line2d_45">
     <path d="M 674.835966 91.54875 
L 684.835966 91.54875 
L 694.835966 91.54875 
" style="fill: none; stroke: #800000; stroke-width: 2; stroke-linecap: square"/>
    </g>
    <g id="text_44">
     <!-- RNase 0.02 -->
     <g transform="translate(702.835966 95.04875)scale(0.1 -0.1)">
      <use xlink:href="#DejaVuSans-52"/>
      <use xlink:href="#DejaVuSans-4e" x="69.482422"/>
      <use xlink:href="#DejaVuSans-61" x="144.287109"/>
      <use xlink:href="#DejaVuSans-73" x="205.566406"/>
      <use xlink:href="#DejaVuSans-65" x="257.666016"/>
      <use xlink:href="#DejaVuSans-20" x="319.189453"/>
      <use xlink:href="#DejaVuSans-30" x="350.976562"/>
      <use xlink:href="#DejaVuSans-2e" x="414.599609"/>
      <use xlink:href="#DejaVuSans-30" x="446.386719"/>
      <use xlink:href="#DejaVuSans-32" x="510.009766"/>
     </g>
    </g>
   </g>
  </g>
  <g id="text_45">
   <!-- RNase_Sweep_Cas13=90 rep2 -->
   <g transform="translate(295.162827 16.10625)scale(0.12 -0.12)">
    <defs>
     <path id="DejaVuSans-Bold-61" d="M 2106 1575 
Q 1756 1575 1579 1456 
Q 1403 1338 1403 1106 
Q 1403 894 1545 773 
Q 1688 653 1941 653 
Q 2256 653 2472 879 
Q 2688 1106 2688 1447 
L 2688 1575 
L 2106 1575 
z
M 3816 1997 
L 3816 0 
L 2688 0 
L 2688 519 
Q 2463 200 2181 54 
Q 1900 -91 1497 -91 
Q 953 -91 614 226 
Q 275 544 275 1050 
Q 275 1666 698 1953 
Q 1122 2241 2028 2241 
L 2688 2241 
L 2688 2328 
Q 2688 2594 2478 2717 
Q 2269 2841 1825 2841 
Q 1466 2841 1156 2769 
Q 847 2697 581 2553 
L 581 3406 
Q 941 3494 1303 3539 
Q 1666 3584 2028 3584 
Q 2975 3584 3395 3211 
Q 3816 2838 3816 1997 
z
" transform="scale(0.015625)"/>
     <path id="DejaVuSans-Bold-73" d="M 3272 3391 
L 3272 2541 
Q 2913 2691 2578 2766 
Q 2244 2841 1947 2841 
Q 1628 2841 1473 2761 
Q 1319 2681 1319 2516 
Q 1319 2381 1436 2309 
Q 1553 2238 1856 2203 
L 2053 2175 
Q 2913 2066 3209 1816 
Q 3506 1566 3506 1031 
Q 3506 472 3093 190 
Q 2681 -91 1863 -91 
Q 1516 -91 1145 -36 
Q 775 19 384 128 
L 384 978 
Q 719 816 1070 734 
Q 1422 653 1784 653 
Q 2113 653 2278 743 
Q 2444 834 2444 1013 
Q 2444 1163 2330 1236 
Q 2216 1309 1875 1350 
L 1678 1375 
Q 931 1469 631 1722 
Q 331 1975 331 2491 
Q 331 3047 712 3315 
Q 1094 3584 1881 3584 
Q 2191 3584 2531 3537 
Q 2872 3491 3272 3391 
z
" transform="scale(0.015625)"/>
     <path id="DejaVuSans-Bold-65" d="M 4031 1759 
L 4031 1441 
L 1416 1441 
Q 1456 1047 1700 850 
Q 1944 653 2381 653 
Q 2734 653 3104 758 
Q 3475 863 3866 1075 
L 3866 213 
Q 3469 63 3072 -14 
Q 2675 -91 2278 -91 
Q 1328 -91 801 392 
Q 275 875 275 1747 
Q 275 2603 792 3093 
Q 1309 3584 2216 3584 
Q 3041 3584 3536 3087 
Q 4031 2591 4031 1759 
z
M 2881 2131 
Q 2881 2450 2695 2645 
Q 2509 2841 2209 2841 
Q 1884 2841 1681 2658 
Q 1478 2475 1428 2131 
L 2881 2131 
z
" transform="scale(0.015625)"/>
     <path id="DejaVuSans-Bold-5f" d="M 3200 -916 
L 3200 -1509 
L 0 -1509 
L 0 -916 
L 3200 -916 
z
" transform="scale(0.015625)"/>
     <path id="DejaVuSans-Bold-53" d="M 3834 4519 
L 3834 3531 
Q 3450 3703 3084 3790 
Q 2719 3878 2394 3878 
Q 1963 3878 1756 3759 
Q 1550 3641 1550 3391 
Q 1550 3203 1689 3098 
Q 1828 2994 2194 2919 
L 2706 2816 
Q 3484 2659 3812 2340 
Q 4141 2022 4141 1434 
Q 4141 663 3683 286 
Q 3225 -91 2284 -91 
Q 1841 -91 1394 -6 
Q 947 78 500 244 
L 500 1259 
Q 947 1022 1364 901 
Q 1781 781 2169 781 
Q 2563 781 2772 912 
Q 2981 1044 2981 1288 
Q 2981 1506 2839 1625 
Q 2697 1744 2272 1838 
L 1806 1941 
Q 1106 2091 782 2419 
Q 459 2747 459 3303 
Q 459 4000 909 4375 
Q 1359 4750 2203 4750 
Q 2588 4750 2994 4692 
Q 3400 4634 3834 4519 
z
" transform="scale(0.015625)"/>
     <path id="DejaVuSans-Bold-77" d="M 225 3500 
L 1313 3500 
L 1900 1088 
L 2491 3500 
L 3425 3500 
L 4013 1113 
L 4603 3500 
L 5691 3500 
L 4769 0 
L 3547 0 
L 2956 2406 
L 2369 0 
L 1147 0 
L 225 3500 
z
" transform="scale(0.015625)"/>
     <path id="DejaVuSans-Bold-70" d="M 1656 506 
L 1656 -1331 
L 538 -1331 
L 538 3500 
L 1656 3500 
L 1656 2988 
Q 1888 3294 2169 3439 
Q 2450 3584 2816 3584 
Q 3463 3584 3878 3070 
Q 4294 2556 4294 1747 
Q 4294 938 3878 423 
Q 3463 -91 2816 -91 
Q 2450 -91 2169 54 
Q 1888 200 1656 506 
z
M 2400 2772 
Q 2041 2772 1848 2508 
Q 1656 2244 1656 1747 
Q 1656 1250 1848 986 
Q 2041 722 2400 722 
Q 2759 722 2948 984 
Q 3138 1247 3138 1747 
Q 3138 2247 2948 2509 
Q 2759 2772 2400 2772 
z
" transform="scale(0.015625)"/>
     <path id="DejaVuSans-Bold-43" d="M 4288 256 
Q 3956 84 3597 -3 
Q 3238 -91 2847 -91 
Q 1681 -91 1000 561 
Q 319 1213 319 2328 
Q 319 3447 1000 4098 
Q 1681 4750 2847 4750 
Q 3238 4750 3597 4662 
Q 3956 4575 4288 4403 
L 4288 3438 
Q 3953 3666 3628 3772 
Q 3303 3878 2944 3878 
Q 2300 3878 1931 3465 
Q 1563 3053 1563 2328 
Q 1563 1606 1931 1193 
Q 2300 781 2944 781 
Q 3303 781 3628 887 
Q 3953 994 4288 1222 
L 4288 256 
z
" transform="scale(0.015625)"/>
     <path id="DejaVuSans-Bold-33" d="M 2981 2516 
Q 3453 2394 3698 2092 
Q 3944 1791 3944 1325 
Q 3944 631 3412 270 
Q 2881 -91 1863 -91 
Q 1503 -91 1142 -33 
Q 781 25 428 141 
L 428 1069 
Q 766 900 1098 814 
Q 1431 728 1753 728 
Q 2231 728 2486 893 
Q 2741 1059 2741 1369 
Q 2741 1688 2480 1852 
Q 2219 2016 1709 2016 
L 1228 2016 
L 1228 2791 
L 1734 2791 
Q 2188 2791 2409 2933 
Q 2631 3075 2631 3366 
Q 2631 3634 2415 3781 
Q 2200 3928 1806 3928 
Q 1516 3928 1219 3862 
Q 922 3797 628 3669 
L 628 4550 
Q 984 4650 1334 4700 
Q 1684 4750 2022 4750 
Q 2931 4750 3382 4451 
Q 3834 4153 3834 3553 
Q 3834 3144 3618 2883 
Q 3403 2622 2981 2516 
z
" transform="scale(0.015625)"/>
     <path id="DejaVuSans-Bold-39" d="M 641 103 
L 641 966 
Q 928 831 1190 764 
Q 1453 697 1709 697 
Q 2247 697 2547 995 
Q 2847 1294 2900 1881 
Q 2688 1725 2447 1647 
Q 2206 1569 1925 1569 
Q 1209 1569 770 1986 
Q 331 2403 331 3084 
Q 331 3838 820 4291 
Q 1309 4744 2131 4744 
Q 3044 4744 3544 4128 
Q 4044 3513 4044 2388 
Q 4044 1231 3459 570 
Q 2875 -91 1856 -91 
Q 1528 -91 1228 -42 
Q 928 6 641 103 
z
M 2125 2350 
Q 2441 2350 2600 2554 
Q 2759 2759 2759 3169 
Q 2759 3575 2600 3781 
Q 2441 3988 2125 3988 
Q 1809 3988 1650 3781 
Q 1491 3575 1491 3169 
Q 1491 2759 1650 2554 
Q 1809 2350 2125 2350 
z
" transform="scale(0.015625)"/>
     <path id="DejaVuSans-Bold-72" d="M 3138 2547 
Q 2991 2616 2845 2648 
Q 2700 2681 2553 2681 
Q 2122 2681 1889 2404 
Q 1656 2128 1656 1613 
L 1656 0 
L 538 0 
L 538 3500 
L 1656 3500 
L 1656 2925 
Q 1872 3269 2151 3426 
Q 2431 3584 2822 3584 
Q 2878 3584 2943 3579 
Q 3009 3575 3134 3559 
L 3138 2547 
z
" transform="scale(0.015625)"/>
     <path id="DejaVuSans-Bold-32" d="M 1844 884 
L 3897 884 
L 3897 0 
L 506 0 
L 506 884 
L 2209 2388 
Q 2438 2594 2547 2791 
Q 2656 2988 2656 3200 
Q 2656 3528 2436 3728 
Q 2216 3928 1850 3928 
Q 1569 3928 1234 3808 
Q 900 3688 519 3450 
L 519 4475 
Q 925 4609 1322 4679 
Q 1719 4750 2100 4750 
Q 2938 4750 3402 4381 
Q 3866 4013 3866 3353 
Q 3866 2972 3669 2642 
Q 3472 2313 2841 1759 
L 1844 884 
z
" transform="scale(0.015625)"/>
    </defs>
    <use xlink:href="#DejaVuSans-Bold-52"/>
    <use xlink:href="#DejaVuSans-Bold-4e" x="77.001953"/>
    <use xlink:href="#DejaVuSans-Bold-61" x="160.693359"/>
    <use xlink:href="#DejaVuSans-Bold-73" x="228.173828"/>
    <use xlink:href="#DejaVuSans-Bold-65" x="287.695312"/>
    <use xlink:href="#DejaVuSans-Bold-5f" x="355.517578"/>
    <use xlink:href="#DejaVuSans-Bold-53" x="405.517578"/>
    <use xlink:href="#DejaVuSans-Bold-77" x="477.539062"/>
    <use xlink:href="#DejaVuSans-Bold-65" x="569.921875"/>
    <use xlink:href="#DejaVuSans-Bold-65" x="637.744141"/>
    <use xlink:href="#DejaVuSans-Bold-70" x="705.566406"/>
    <use xlink:href="#DejaVuSans-Bold-5f" x="777.148438"/>
    <use xlink:href="#DejaVuSans-Bold-43" x="827.148438"/>
    <use xlink:href="#DejaVuSans-Bold-61" x="900.537109"/>
    <use xlink:href="#DejaVuSans-Bold-73" x="968.017578"/>
    <use xlink:href="#DejaVuSans-Bold-31" x="1027.539062"/>
    <use xlink:href="#DejaVuSans-Bold-33" x="1097.119141"/>
    <use xlink:href="#DejaVuSans-Bold-3d" x="1166.699219"/>
    <use xlink:href="#DejaVuSans-Bold-39" x="1250.488281"/>
    <use xlink:href="#DejaVuSans-Bold-30" x="1320.068359"/>
    <use xlink:href="#DejaVuSans-Bold-20" x="1389.648438"/>
    <use xlink:href="#DejaVuSans-Bold-72" x="1424.462891"/>
    <use xlink:href="#DejaVuSans-Bold-65" x="1473.779297"/>
    <use xlink:href="#DejaVuSans-Bold-70" x="1541.601562"/>
    <use xlink:href="#DejaVuSans-Bold-32" x="1613.183594"/>
   </g>
  </g>
 </g>
 <defs>
  <clipPath id="p442cee25a8">
   <rect x="51.716875" y="49.094062" width="155.974063" height="155.974063"/>
  </clipPath>
  <clipPath id="pc171c37b34">
   <rect x="335.65267" y="49.094062" width="155.974063" height="155.974063"/>
  </clipPath>
  <clipPath id="p750e0551d4">
   <rect x="619.588466" y="49.094062" width="155.974063" height="155.974063"/>
  </clipPath>
 </defs>
</svg>
