<?xml version="1.0" encoding="utf-8" standalone="no"?>
<!DOCTYPE svg PUBLIC "-//W3C//DTD SVG 1.1//EN"
  "http://www.w3.org/Graphics/SVG/1.1/DTD/svg11.dtd">
<svg xmlns:xlink="http://www.w3.org/1999/xlink" width="782.762528pt" height="250.56pt" viewBox="0 0 782.762528 250.56" xmlns="http://www.w3.org/2000/svg" version="1.1">
 <metadata>
  <rdf:RDF xmlns:dc="http://purl.org/dc/elements/1.1/" xmlns:cc="http://creativecommons.org/ns#" xmlns:rdf="http://www.w3.org/1999/02/22-rdf-syntax-ns#">
   <cc:Work>
    <dc:type rdf:resource="http://purl.org/dc/dcmitype/StillImage"/>
    <dc:date>2022-12-02T20:14:48.007104</dc:date>
    <dc:format>image/svg+xml</dc:format>
    <dc:creator>
     <cc:Agent>
      <dc:title>Matplotlib v3.5.1, https://matplotlib.org/</dc:title>
     </cc:Agent>
    </dc:creator>
   </cc:Work>
  </rdf:RDF>
 </metadata>
 <defs>
  <style type="text/css">*{stroke-linejoin: round; stroke-linecap: butt}</style>
 </defs>
 <g id="figure_1">
  <g id="patch_1">
   <path d="M 0 250.56 
L 782.762528 250.56 
L 782.762528 -0 
L 0 -0 
L 0 250.56 
z
" style="fill: none"/>
  </g>
  <g id="axes_1">
   <g id="patch_2">
    <path d="M 51.716875 205.068125 
L 207.690938 205.068125 
L 207.690938 49.094062 
L 51.716875 49.094062 
z
" style="fill: #ffffff"/>
   </g>
   <g id="PolyCollection_1">
    <defs>
     <path id="m61d5d0e084" d="M 58.806605 -48.737468 
L 58.806605 -48.403689 
L 61.169848 -48.803878 
L 63.533092 -49.026397 
L 65.896335 -49.159317 
L 68.259579 -49.534143 
L 70.622822 -49.809989 
L 72.986065 -49.840994 
L 75.349309 -50.058023 
L 77.712552 -50.355749 
L 80.075795 -50.533363 
L 82.439039 -50.6551 
L 84.802282 -50.924392 
L 87.165526 -50.83529 
L 89.528769 -51.150975 
L 91.892012 -51.145049 
L 94.255256 -51.477686 
L 96.618499 -51.367179 
L 98.981742 -51.543882 
L 101.344986 -51.779657 
L 103.708229 -51.635501 
L 106.071473 -51.681179 
L 108.434716 -51.960678 
L 110.797959 -52.055992 
L 113.161203 -52.274161 
L 115.524446 -52.277881 
L 117.887689 -52.29198 
L 120.250933 -52.420603 
L 122.614176 -52.512747 
L 124.97742 -52.668721 
L 127.340663 -52.697988 
L 129.703906 -52.821427 
L 132.06715 -52.948091 
L 134.430393 -52.865711 
L 136.793636 -53.083131 
L 139.15688 -53.4123 
L 141.520123 -53.377468 
L 143.883366 -53.511974 
L 146.24661 -53.610221 
L 148.609853 -53.619292 
L 150.973097 -53.59591 
L 153.33634 -54.143131 
L 155.699583 -53.915662 
L 158.062827 -54.068648 
L 160.42607 -54.168575 
L 162.789313 -54.309845 
L 165.152557 -54.220102 
L 167.5158 -54.512589 
L 169.879044 -54.574563 
L 172.242287 -54.604047 
L 174.60553 -54.694345 
L 176.968774 -54.890066 
L 179.332017 -54.961964 
L 181.69526 -54.843794 
L 184.058504 -55.216505 
L 186.421747 -55.223314 
L 188.784991 -55.193989 
L 191.148234 -55.61439 
L 193.511477 -55.367352 
L 195.874721 -55.36397 
L 198.237964 -55.476584 
L 200.601207 -55.578984 
L 200.601207 -56.459565 
L 200.601207 -56.459565 
L 198.237964 -56.344485 
L 195.874721 -56.076508 
L 193.511477 -55.991572 
L 191.148234 -56.138716 
L 188.784991 -56.124158 
L 186.421747 -55.918129 
L 184.058504 -55.843384 
L 181.69526 -55.862689 
L 179.332017 -55.595002 
L 176.968774 -55.653307 
L 174.60553 -55.237365 
L 172.242287 -55.382033 
L 169.879044 -55.098889 
L 167.5158 -55.242419 
L 165.152557 -54.923243 
L 162.789313 -55.05098 
L 160.42607 -54.933992 
L 158.062827 -54.979549 
L 155.699583 -54.656797 
L 153.33634 -54.510883 
L 150.973097 -54.405663 
L 148.609853 -54.232764 
L 146.24661 -54.296205 
L 143.883366 -54.136194 
L 141.520123 -53.971665 
L 139.15688 -53.923241 
L 136.793636 -53.939782 
L 134.430393 -53.776612 
L 132.06715 -53.585491 
L 129.703906 -53.426713 
L 127.340663 -53.427819 
L 124.97742 -53.402716 
L 122.614176 -53.055767 
L 120.250933 -53.052764 
L 117.887689 -52.624094 
L 115.524446 -52.910043 
L 113.161203 -52.641913 
L 110.797959 -52.533861 
L 108.434716 -52.411695 
L 106.071473 -52.392159 
L 103.708229 -52.369874 
L 101.344986 -51.926683 
L 98.981742 -52.135273 
L 96.618499 -51.958571 
L 94.255256 -51.807287 
L 91.892012 -51.74574 
L 89.528769 -51.576705 
L 87.165526 -51.307911 
L 84.802282 -51.042107 
L 82.439039 -50.944401 
L 80.075795 -50.603992 
L 77.712552 -50.604904 
L 75.349309 -50.454077 
L 72.986065 -50.127406 
L 70.622822 -50.10404 
L 68.259579 -49.904149 
L 65.896335 -49.653719 
L 63.533092 -49.419641 
L 61.169848 -49.071275 
L 58.806605 -48.737468 
z
" style="stroke: #f08080; stroke-opacity: 0.2"/>
    </defs>
    <g clip-path="url(#p04be4ee293)">
     <use xlink:href="#m61d5d0e084" x="0" y="250.56" style="fill: #f08080; fill-opacity: 0.2; stroke: #f08080; stroke-opacity: 0.2"/>
    </g>
   </g>
   <g id="PolyCollection_2">
    <defs>
     <path id="m666f615bf6" d="M 58.806605 -48.708169 
L 58.806605 -48.623284 
L 61.169848 -48.737558 
L 63.533092 -49.072566 
L 65.896335 -49.387514 
L 68.259579 -49.697673 
L 70.622822 -49.884939 
L 72.986065 -50.018181 
L 75.349309 -50.292048 
L 77.712552 -50.540972 
L 80.075795 -50.579412 
L 82.439039 -50.824252 
L 84.802282 -50.854121 
L 87.165526 -51.12015 
L 89.528769 -51.307805 
L 91.892012 -51.387065 
L 94.255256 -51.464096 
L 96.618499 -51.397291 
L 98.981742 -51.622267 
L 101.344986 -51.801301 
L 103.708229 -51.774955 
L 106.071473 -51.967861 
L 108.434716 -52.048017 
L 110.797959 -52.404155 
L 113.161203 -52.079886 
L 115.524446 -52.464833 
L 117.887689 -52.453468 
L 120.250933 -52.32584 
L 122.614176 -52.626256 
L 124.97742 -52.794695 
L 127.340663 -52.983063 
L 129.703906 -53.000404 
L 132.06715 -53.105396 
L 134.430393 -52.983576 
L 136.793636 -53.22644 
L 139.15688 -53.33433 
L 141.520123 -53.48757 
L 143.883366 -53.480904 
L 146.24661 -53.700906 
L 148.609853 -53.900089 
L 150.973097 -53.836344 
L 153.33634 -53.979065 
L 155.699583 -54.197878 
L 158.062827 -54.053469 
L 160.42607 -54.25007 
L 162.789313 -54.284182 
L 165.152557 -54.306279 
L 167.5158 -54.530124 
L 169.879044 -54.768764 
L 172.242287 -54.707597 
L 174.60553 -54.815492 
L 176.968774 -55.094984 
L 179.332017 -55.134991 
L 181.69526 -55.098043 
L 184.058504 -55.388591 
L 186.421747 -55.38589 
L 188.784991 -55.430866 
L 191.148234 -55.024854 
L 193.511477 -55.546781 
L 195.874721 -55.750891 
L 198.237964 -55.651712 
L 200.601207 -55.74537 
L 200.601207 -56.062107 
L 200.601207 -56.062107 
L 198.237964 -55.897507 
L 195.874721 -55.920661 
L 193.511477 -55.771366 
L 191.148234 -55.708815 
L 188.784991 -55.6698 
L 186.421747 -55.456519 
L 184.058504 -55.589742 
L 181.69526 -55.200665 
L 179.332017 -55.435567 
L 176.968774 -55.217317 
L 174.60553 -54.980293 
L 172.242287 -54.911485 
L 169.879044 -54.809541 
L 167.5158 -54.8307 
L 165.152557 -54.714733 
L 162.789313 -54.872755 
L 160.42607 -54.485499 
L 158.062827 -54.301509 
L 155.699583 -54.279433 
L 153.33634 -54.049694 
L 150.973097 -53.906972 
L 148.609853 -54.047115 
L 146.24661 -53.865707 
L 143.883366 -53.854636 
L 141.520123 -53.834378 
L 139.15688 -53.661398 
L 136.793636 -53.334327 
L 134.430393 -53.250972 
L 132.06715 -53.292262 
L 129.703906 -53.071033 
L 127.340663 -53.169929 
L 124.97742 -52.841781 
L 122.614176 -52.874296 
L 120.250933 -52.780529 
L 117.887689 -52.720864 
L 115.524446 -52.546388 
L 113.161203 -52.550745 
L 110.797959 -52.498326 
L 108.434716 -52.297172 
L 106.071473 -52.132662 
L 103.708229 -52.366346 
L 101.344986 -52.149704 
L 98.981742 -51.893778 
L 96.618499 -51.833312 
L 94.255256 -51.712136 
L 91.892012 -51.449354 
L 89.528769 -51.39269 
L 87.165526 -51.308494 
L 84.802282 -51.017231 
L 82.439039 -51.033506 
L 80.075795 -50.856979 
L 77.712552 -50.718717 
L 75.349309 -50.519088 
L 72.986065 -50.589067 
L 70.622822 -50.450459 
L 68.259579 -50.039654 
L 65.896335 -49.819705 
L 63.533092 -49.46862 
L 61.169848 -49.05604 
L 58.806605 -48.708169 
z
" style="stroke: #ff0000; stroke-opacity: 0.2"/>
    </defs>
    <g clip-path="url(#p04be4ee293)">
     <use xlink:href="#m666f615bf6" x="0" y="250.56" style="fill: #ff0000; fill-opacity: 0.2; stroke: #ff0000; stroke-opacity: 0.2"/>
    </g>
   </g>
   <g id="PolyCollection_3">
    <defs>
     <path id="m012080880d" d="M 58.806605 -48.940951 
L 58.806605 -48.444871 
L 61.169848 -49.086249 
L 63.533092 -49.382393 
L 65.896335 -49.569628 
L 68.259579 -49.64632 
L 70.622822 -49.762305 
L 72.986065 -49.970939 
L 75.349309 -50.15735 
L 77.712552 -50.427778 
L 80.075795 -50.555842 
L 82.439039 -50.535548 
L 84.802282 -50.783211 
L 87.165526 -51.072219 
L 89.528769 -51.182293 
L 91.892012 -51.1368 
L 94.255256 -51.112178 
L 96.618499 -51.361498 
L 98.981742 -51.249541 
L 101.344986 -51.559729 
L 103.708229 -51.610691 
L 106.071473 -51.64583 
L 108.434716 -51.705386 
L 110.797959 -51.753478 
L 113.161203 -51.886925 
L 115.524446 -52.160939 
L 117.887689 -52.173135 
L 120.250933 -52.179662 
L 122.614176 -52.322653 
L 124.97742 -52.457837 
L 127.340663 -52.52189 
L 129.703906 -52.857512 
L 132.06715 -52.783931 
L 134.430393 -52.757548 
L 136.793636 -53.017516 
L 139.15688 -52.998288 
L 141.520123 -52.939226 
L 143.883366 -53.030481 
L 146.24661 -53.371406 
L 148.609853 -53.175002 
L 150.973097 -53.450007 
L 153.33634 -53.308176 
L 155.699583 -53.667642 
L 158.062827 -53.536597 
L 160.42607 -53.782807 
L 162.789313 -54.052404 
L 165.152557 -54.014379 
L 167.5158 -53.971174 
L 169.879044 -54.28492 
L 172.242287 -53.933704 
L 174.60553 -54.273362 
L 176.968774 -54.341972 
L 179.332017 -54.590751 
L 181.69526 -54.360988 
L 184.058504 -54.574657 
L 186.421747 -54.849753 
L 188.784991 -54.626042 
L 191.148234 -54.585615 
L 193.511477 -54.760327 
L 195.874721 -54.904071 
L 198.237964 -55.026404 
L 200.601207 -55.054206 
L 200.601207 -55.951312 
L 200.601207 -55.951312 
L 198.237964 -56.074262 
L 195.874721 -55.802412 
L 193.511477 -56.000527 
L 191.148234 -55.903388 
L 188.784991 -55.686258 
L 186.421747 -55.58488 
L 184.058504 -55.329868 
L 181.69526 -55.380427 
L 179.332017 -55.191442 
L 176.968774 -55.181963 
L 174.60553 -55.101055 
L 172.242287 -55.087308 
L 169.879044 -54.88561 
L 167.5158 -54.981876 
L 165.152557 -54.82993 
L 162.789313 -54.642388 
L 160.42607 -54.245951 
L 158.062827 -54.532939 
L 155.699583 -54.388302 
L 153.33634 -54.448733 
L 150.973097 -53.939904 
L 148.609853 -54.051798 
L 146.24661 -53.801024 
L 143.883366 -53.503102 
L 141.520123 -53.730282 
L 139.15688 -53.67122 
L 136.793636 -53.733546 
L 134.430393 -53.436222 
L 132.06715 -53.491394 
L 129.703906 -53.227518 
L 127.340663 -53.155365 
L 124.97742 -53.151455 
L 122.614176 -52.919641 
L 120.250933 -52.858744 
L 117.887689 -52.770123 
L 115.524446 -52.755135 
L 113.161203 -52.499041 
L 110.797959 -52.510155 
L 108.434716 -52.449507 
L 106.071473 -52.277991 
L 103.708229 -52.326721 
L 101.344986 -51.983501 
L 98.981742 -52.144172 
L 96.618499 -51.89629 
L 94.255256 -51.805796 
L 91.892012 -51.590879 
L 89.528769 -51.558979 
L 87.165526 -51.519535 
L 84.802282 -51.115325 
L 82.439039 -50.914435 
L 80.075795 -50.921326 
L 77.712552 -50.45132 
L 75.349309 -50.381935 
L 72.986065 -50.527569 
L 70.622822 -50.070169 
L 68.259579 -49.955082 
L 65.896335 -49.855071 
L 63.533092 -49.485014 
L 61.169848 -49.251049 
L 58.806605 -48.940951 
z
" style="stroke: #800000; stroke-opacity: 0.2"/>
    </defs>
    <g clip-path="url(#p04be4ee293)">
     <use xlink:href="#m012080880d" x="0" y="250.56" style="fill: #800000; fill-opacity: 0.2; stroke: #800000; stroke-opacity: 0.2"/>
    </g>
   </g>
   <g id="matplotlib.axis_1">
    <g id="xtick_1">
     <g id="line2d_1">
      <defs>
       <path id="m496f4bd26c" d="M 0 0 
L 0 3.5 
" style="stroke: #000000; stroke-width: 0.8"/>
      </defs>
      <g>
       <use xlink:href="#m496f4bd26c" x="58.806605" y="205.068125" style="stroke: #000000; stroke-width: 0.8"/>
      </g>
     </g>
     <g id="text_1">
      <!-- 0 -->
      <g transform="translate(55.625355 219.666562)scale(0.1 -0.1)">
       <defs>
        <path id="DejaVuSans-30" d="M 2034 4250 
Q 1547 4250 1301 3770 
Q 1056 3291 1056 2328 
Q 1056 1369 1301 889 
Q 1547 409 2034 409 
Q 2525 409 2770 889 
Q 3016 1369 3016 2328 
Q 3016 3291 2770 3770 
Q 2525 4250 2034 4250 
z
M 2034 4750 
Q 2819 4750 3233 4129 
Q 3647 3509 3647 2328 
Q 3647 1150 3233 529 
Q 2819 -91 2034 -91 
Q 1250 -91 836 529 
Q 422 1150 422 2328 
Q 422 3509 836 4129 
Q 1250 4750 2034 4750 
z
" transform="scale(0.015625)"/>
       </defs>
       <use xlink:href="#DejaVuSans-30"/>
      </g>
     </g>
    </g>
    <g id="xtick_2">
     <g id="line2d_2">
      <g>
       <use xlink:href="#m496f4bd26c" x="117.887689" y="205.068125" style="stroke: #000000; stroke-width: 0.8"/>
      </g>
     </g>
     <g id="text_2">
      <!-- 100 -->
      <g transform="translate(108.343939 219.666562)scale(0.1 -0.1)">
       <defs>
        <path id="DejaVuSans-31" d="M 794 531 
L 1825 531 
L 1825 4091 
L 703 3866 
L 703 4441 
L 1819 4666 
L 2450 4666 
L 2450 531 
L 3481 531 
L 3481 0 
L 794 0 
L 794 531 
z
" transform="scale(0.015625)"/>
       </defs>
       <use xlink:href="#DejaVuSans-31"/>
       <use xlink:href="#DejaVuSans-30" x="63.623047"/>
       <use xlink:href="#DejaVuSans-30" x="127.246094"/>
      </g>
     </g>
    </g>
    <g id="xtick_3">
     <g id="line2d_3">
      <g>
       <use xlink:href="#m496f4bd26c" x="176.968774" y="205.068125" style="stroke: #000000; stroke-width: 0.8"/>
      </g>
     </g>
     <g id="text_3">
      <!-- 200 -->
      <g transform="translate(167.425024 219.666562)scale(0.1 -0.1)">
       <defs>
        <path id="DejaVuSans-32" d="M 1228 531 
L 3431 531 
L 3431 0 
L 469 0 
L 469 531 
Q 828 903 1448 1529 
Q 2069 2156 2228 2338 
Q 2531 2678 2651 2914 
Q 2772 3150 2772 3378 
Q 2772 3750 2511 3984 
Q 2250 4219 1831 4219 
Q 1534 4219 1204 4116 
Q 875 4013 500 3803 
L 500 4441 
Q 881 4594 1212 4672 
Q 1544 4750 1819 4750 
Q 2544 4750 2975 4387 
Q 3406 4025 3406 3419 
Q 3406 3131 3298 2873 
Q 3191 2616 2906 2266 
Q 2828 2175 2409 1742 
Q 1991 1309 1228 531 
z
" transform="scale(0.015625)"/>
       </defs>
       <use xlink:href="#DejaVuSans-32"/>
       <use xlink:href="#DejaVuSans-30" x="63.623047"/>
       <use xlink:href="#DejaVuSans-30" x="127.246094"/>
      </g>
     </g>
    </g>
    <g id="text_4">
     <!-- Time (min) -->
     <g transform="translate(97.121094 240.864375)scale(0.12 -0.12)">
      <defs>
       <path id="DejaVuSans-54" d="M -19 4666 
L 3928 4666 
L 3928 4134 
L 2272 4134 
L 2272 0 
L 1638 0 
L 1638 4134 
L -19 4134 
L -19 4666 
z
" transform="scale(0.015625)"/>
       <path id="DejaVuSans-69" d="M 603 3500 
L 1178 3500 
L 1178 0 
L 603 0 
L 603 3500 
z
M 603 4863 
L 1178 4863 
L 1178 4134 
L 603 4134 
L 603 4863 
z
" transform="scale(0.015625)"/>
       <path id="DejaVuSans-6d" d="M 3328 2828 
Q 3544 3216 3844 3400 
Q 4144 3584 4550 3584 
Q 5097 3584 5394 3201 
Q 5691 2819 5691 2113 
L 5691 0 
L 5113 0 
L 5113 2094 
Q 5113 2597 4934 2840 
Q 4756 3084 4391 3084 
Q 3944 3084 3684 2787 
Q 3425 2491 3425 1978 
L 3425 0 
L 2847 0 
L 2847 2094 
Q 2847 2600 2669 2842 
Q 2491 3084 2119 3084 
Q 1678 3084 1418 2786 
Q 1159 2488 1159 1978 
L 1159 0 
L 581 0 
L 581 3500 
L 1159 3500 
L 1159 2956 
Q 1356 3278 1631 3431 
Q 1906 3584 2284 3584 
Q 2666 3584 2933 3390 
Q 3200 3197 3328 2828 
z
" transform="scale(0.015625)"/>
       <path id="DejaVuSans-65" d="M 3597 1894 
L 3597 1613 
L 953 1613 
Q 991 1019 1311 708 
Q 1631 397 2203 397 
Q 2534 397 2845 478 
Q 3156 559 3463 722 
L 3463 178 
Q 3153 47 2828 -22 
Q 2503 -91 2169 -91 
Q 1331 -91 842 396 
Q 353 884 353 1716 
Q 353 2575 817 3079 
Q 1281 3584 2069 3584 
Q 2775 3584 3186 3129 
Q 3597 2675 3597 1894 
z
M 3022 2063 
Q 3016 2534 2758 2815 
Q 2500 3097 2075 3097 
Q 1594 3097 1305 2825 
Q 1016 2553 972 2059 
L 3022 2063 
z
" transform="scale(0.015625)"/>
       <path id="DejaVuSans-20" transform="scale(0.015625)"/>
       <path id="DejaVuSans-28" d="M 1984 4856 
Q 1566 4138 1362 3434 
Q 1159 2731 1159 2009 
Q 1159 1288 1364 580 
Q 1569 -128 1984 -844 
L 1484 -844 
Q 1016 -109 783 600 
Q 550 1309 550 2009 
Q 550 2706 781 3412 
Q 1013 4119 1484 4856 
L 1984 4856 
z
" transform="scale(0.015625)"/>
       <path id="DejaVuSans-6e" d="M 3513 2113 
L 3513 0 
L 2938 0 
L 2938 2094 
Q 2938 2591 2744 2837 
Q 2550 3084 2163 3084 
Q 1697 3084 1428 2787 
Q 1159 2491 1159 1978 
L 1159 0 
L 581 0 
L 581 3500 
L 1159 3500 
L 1159 2956 
Q 1366 3272 1645 3428 
Q 1925 3584 2291 3584 
Q 2894 3584 3203 3211 
Q 3513 2838 3513 2113 
z
" transform="scale(0.015625)"/>
       <path id="DejaVuSans-29" d="M 513 4856 
L 1013 4856 
Q 1481 4119 1714 3412 
Q 1947 2706 1947 2009 
Q 1947 1309 1714 600 
Q 1481 -109 1013 -844 
L 513 -844 
Q 928 -128 1133 580 
Q 1338 1288 1338 2009 
Q 1338 2731 1133 3434 
Q 928 4138 513 4856 
z
" transform="scale(0.015625)"/>
      </defs>
      <use xlink:href="#DejaVuSans-54"/>
      <use xlink:href="#DejaVuSans-69" x="57.958984"/>
      <use xlink:href="#DejaVuSans-6d" x="85.742188"/>
      <use xlink:href="#DejaVuSans-65" x="183.154297"/>
      <use xlink:href="#DejaVuSans-20" x="244.677734"/>
      <use xlink:href="#DejaVuSans-28" x="276.464844"/>
      <use xlink:href="#DejaVuSans-6d" x="315.478516"/>
      <use xlink:href="#DejaVuSans-69" x="412.890625"/>
      <use xlink:href="#DejaVuSans-6e" x="440.673828"/>
      <use xlink:href="#DejaVuSans-29" x="504.052734"/>
     </g>
    </g>
   </g>
   <g id="matplotlib.axis_2">
    <g id="ytick_1">
     <g id="line2d_4">
      <defs>
       <path id="mbdaca5b1f7" d="M 0 0 
L -3.5 0 
" style="stroke: #000000; stroke-width: 0.8"/>
      </defs>
      <g>
       <use xlink:href="#mbdaca5b1f7" x="51.716875" y="205.068125" style="stroke: #000000; stroke-width: 0.8"/>
      </g>
     </g>
     <g id="text_5">
      <!-- 0.0 -->
      <g transform="translate(28.81375 208.867344)scale(0.1 -0.1)">
       <defs>
        <path id="DejaVuSans-2e" d="M 684 794 
L 1344 794 
L 1344 0 
L 684 0 
L 684 794 
z
" transform="scale(0.015625)"/>
       </defs>
       <use xlink:href="#DejaVuSans-30"/>
       <use xlink:href="#DejaVuSans-2e" x="63.623047"/>
       <use xlink:href="#DejaVuSans-30" x="95.410156"/>
      </g>
     </g>
    </g>
    <g id="ytick_2">
     <g id="line2d_5">
      <g>
       <use xlink:href="#mbdaca5b1f7" x="51.716875" y="173.873312" style="stroke: #000000; stroke-width: 0.8"/>
      </g>
     </g>
     <g id="text_6">
      <!-- 0.2 -->
      <g transform="translate(28.81375 177.672531)scale(0.1 -0.1)">
       <use xlink:href="#DejaVuSans-30"/>
       <use xlink:href="#DejaVuSans-2e" x="63.623047"/>
       <use xlink:href="#DejaVuSans-32" x="95.410156"/>
      </g>
     </g>
    </g>
    <g id="ytick_3">
     <g id="line2d_6">
      <g>
       <use xlink:href="#mbdaca5b1f7" x="51.716875" y="142.6785" style="stroke: #000000; stroke-width: 0.8"/>
      </g>
     </g>
     <g id="text_7">
      <!-- 0.4 -->
      <g transform="translate(28.81375 146.477719)scale(0.1 -0.1)">
       <defs>
        <path id="DejaVuSans-34" d="M 2419 4116 
L 825 1625 
L 2419 1625 
L 2419 4116 
z
M 2253 4666 
L 3047 4666 
L 3047 1625 
L 3713 1625 
L 3713 1100 
L 3047 1100 
L 3047 0 
L 2419 0 
L 2419 1100 
L 313 1100 
L 313 1709 
L 2253 4666 
z
" transform="scale(0.015625)"/>
       </defs>
       <use xlink:href="#DejaVuSans-30"/>
       <use xlink:href="#DejaVuSans-2e" x="63.623047"/>
       <use xlink:href="#DejaVuSans-34" x="95.410156"/>
      </g>
     </g>
    </g>
    <g id="ytick_4">
     <g id="line2d_7">
      <g>
       <use xlink:href="#mbdaca5b1f7" x="51.716875" y="111.483687" style="stroke: #000000; stroke-width: 0.8"/>
      </g>
     </g>
     <g id="text_8">
      <!-- 0.6 -->
      <g transform="translate(28.81375 115.282906)scale(0.1 -0.1)">
       <defs>
        <path id="DejaVuSans-36" d="M 2113 2584 
Q 1688 2584 1439 2293 
Q 1191 2003 1191 1497 
Q 1191 994 1439 701 
Q 1688 409 2113 409 
Q 2538 409 2786 701 
Q 3034 994 3034 1497 
Q 3034 2003 2786 2293 
Q 2538 2584 2113 2584 
z
M 3366 4563 
L 3366 3988 
Q 3128 4100 2886 4159 
Q 2644 4219 2406 4219 
Q 1781 4219 1451 3797 
Q 1122 3375 1075 2522 
Q 1259 2794 1537 2939 
Q 1816 3084 2150 3084 
Q 2853 3084 3261 2657 
Q 3669 2231 3669 1497 
Q 3669 778 3244 343 
Q 2819 -91 2113 -91 
Q 1303 -91 875 529 
Q 447 1150 447 2328 
Q 447 3434 972 4092 
Q 1497 4750 2381 4750 
Q 2619 4750 2861 4703 
Q 3103 4656 3366 4563 
z
" transform="scale(0.015625)"/>
       </defs>
       <use xlink:href="#DejaVuSans-30"/>
       <use xlink:href="#DejaVuSans-2e" x="63.623047"/>
       <use xlink:href="#DejaVuSans-36" x="95.410156"/>
      </g>
     </g>
    </g>
    <g id="ytick_5">
     <g id="line2d_8">
      <g>
       <use xlink:href="#mbdaca5b1f7" x="51.716875" y="80.288875" style="stroke: #000000; stroke-width: 0.8"/>
      </g>
     </g>
     <g id="text_9">
      <!-- 0.8 -->
      <g transform="translate(28.81375 84.088094)scale(0.1 -0.1)">
       <defs>
        <path id="DejaVuSans-38" d="M 2034 2216 
Q 1584 2216 1326 1975 
Q 1069 1734 1069 1313 
Q 1069 891 1326 650 
Q 1584 409 2034 409 
Q 2484 409 2743 651 
Q 3003 894 3003 1313 
Q 3003 1734 2745 1975 
Q 2488 2216 2034 2216 
z
M 1403 2484 
Q 997 2584 770 2862 
Q 544 3141 544 3541 
Q 544 4100 942 4425 
Q 1341 4750 2034 4750 
Q 2731 4750 3128 4425 
Q 3525 4100 3525 3541 
Q 3525 3141 3298 2862 
Q 3072 2584 2669 2484 
Q 3125 2378 3379 2068 
Q 3634 1759 3634 1313 
Q 3634 634 3220 271 
Q 2806 -91 2034 -91 
Q 1263 -91 848 271 
Q 434 634 434 1313 
Q 434 1759 690 2068 
Q 947 2378 1403 2484 
z
M 1172 3481 
Q 1172 3119 1398 2916 
Q 1625 2713 2034 2713 
Q 2441 2713 2670 2916 
Q 2900 3119 2900 3481 
Q 2900 3844 2670 4047 
Q 2441 4250 2034 4250 
Q 1625 4250 1398 4047 
Q 1172 3844 1172 3481 
z
" transform="scale(0.015625)"/>
       </defs>
       <use xlink:href="#DejaVuSans-30"/>
       <use xlink:href="#DejaVuSans-2e" x="63.623047"/>
       <use xlink:href="#DejaVuSans-38" x="95.410156"/>
      </g>
     </g>
    </g>
    <g id="ytick_6">
     <g id="line2d_9">
      <g>
       <use xlink:href="#mbdaca5b1f7" x="51.716875" y="49.094062" style="stroke: #000000; stroke-width: 0.8"/>
      </g>
     </g>
     <g id="text_10">
      <!-- 1.0 -->
      <g transform="translate(28.81375 52.893281)scale(0.1 -0.1)">
       <use xlink:href="#DejaVuSans-31"/>
       <use xlink:href="#DejaVuSans-2e" x="63.623047"/>
       <use xlink:href="#DejaVuSans-30" x="95.410156"/>
      </g>
     </g>
    </g>
    <g id="text_11">
     <!-- Normalized exp output -->
     <g transform="translate(16.318125 195.658281)rotate(-90)scale(0.12 -0.12)">
      <defs>
       <path id="DejaVuSans-4e" d="M 628 4666 
L 1478 4666 
L 3547 763 
L 3547 4666 
L 4159 4666 
L 4159 0 
L 3309 0 
L 1241 3903 
L 1241 0 
L 628 0 
L 628 4666 
z
" transform="scale(0.015625)"/>
       <path id="DejaVuSans-6f" d="M 1959 3097 
Q 1497 3097 1228 2736 
Q 959 2375 959 1747 
Q 959 1119 1226 758 
Q 1494 397 1959 397 
Q 2419 397 2687 759 
Q 2956 1122 2956 1747 
Q 2956 2369 2687 2733 
Q 2419 3097 1959 3097 
z
M 1959 3584 
Q 2709 3584 3137 3096 
Q 3566 2609 3566 1747 
Q 3566 888 3137 398 
Q 2709 -91 1959 -91 
Q 1206 -91 779 398 
Q 353 888 353 1747 
Q 353 2609 779 3096 
Q 1206 3584 1959 3584 
z
" transform="scale(0.015625)"/>
       <path id="DejaVuSans-72" d="M 2631 2963 
Q 2534 3019 2420 3045 
Q 2306 3072 2169 3072 
Q 1681 3072 1420 2755 
Q 1159 2438 1159 1844 
L 1159 0 
L 581 0 
L 581 3500 
L 1159 3500 
L 1159 2956 
Q 1341 3275 1631 3429 
Q 1922 3584 2338 3584 
Q 2397 3584 2469 3576 
Q 2541 3569 2628 3553 
L 2631 2963 
z
" transform="scale(0.015625)"/>
       <path id="DejaVuSans-61" d="M 2194 1759 
Q 1497 1759 1228 1600 
Q 959 1441 959 1056 
Q 959 750 1161 570 
Q 1363 391 1709 391 
Q 2188 391 2477 730 
Q 2766 1069 2766 1631 
L 2766 1759 
L 2194 1759 
z
M 3341 1997 
L 3341 0 
L 2766 0 
L 2766 531 
Q 2569 213 2275 61 
Q 1981 -91 1556 -91 
Q 1019 -91 701 211 
Q 384 513 384 1019 
Q 384 1609 779 1909 
Q 1175 2209 1959 2209 
L 2766 2209 
L 2766 2266 
Q 2766 2663 2505 2880 
Q 2244 3097 1772 3097 
Q 1472 3097 1187 3025 
Q 903 2953 641 2809 
L 641 3341 
Q 956 3463 1253 3523 
Q 1550 3584 1831 3584 
Q 2591 3584 2966 3190 
Q 3341 2797 3341 1997 
z
" transform="scale(0.015625)"/>
       <path id="DejaVuSans-6c" d="M 603 4863 
L 1178 4863 
L 1178 0 
L 603 0 
L 603 4863 
z
" transform="scale(0.015625)"/>
       <path id="DejaVuSans-7a" d="M 353 3500 
L 3084 3500 
L 3084 2975 
L 922 459 
L 3084 459 
L 3084 0 
L 275 0 
L 275 525 
L 2438 3041 
L 353 3041 
L 353 3500 
z
" transform="scale(0.015625)"/>
       <path id="DejaVuSans-64" d="M 2906 2969 
L 2906 4863 
L 3481 4863 
L 3481 0 
L 2906 0 
L 2906 525 
Q 2725 213 2448 61 
Q 2172 -91 1784 -91 
Q 1150 -91 751 415 
Q 353 922 353 1747 
Q 353 2572 751 3078 
Q 1150 3584 1784 3584 
Q 2172 3584 2448 3432 
Q 2725 3281 2906 2969 
z
M 947 1747 
Q 947 1113 1208 752 
Q 1469 391 1925 391 
Q 2381 391 2643 752 
Q 2906 1113 2906 1747 
Q 2906 2381 2643 2742 
Q 2381 3103 1925 3103 
Q 1469 3103 1208 2742 
Q 947 2381 947 1747 
z
" transform="scale(0.015625)"/>
       <path id="DejaVuSans-78" d="M 3513 3500 
L 2247 1797 
L 3578 0 
L 2900 0 
L 1881 1375 
L 863 0 
L 184 0 
L 1544 1831 
L 300 3500 
L 978 3500 
L 1906 2253 
L 2834 3500 
L 3513 3500 
z
" transform="scale(0.015625)"/>
       <path id="DejaVuSans-70" d="M 1159 525 
L 1159 -1331 
L 581 -1331 
L 581 3500 
L 1159 3500 
L 1159 2969 
Q 1341 3281 1617 3432 
Q 1894 3584 2278 3584 
Q 2916 3584 3314 3078 
Q 3713 2572 3713 1747 
Q 3713 922 3314 415 
Q 2916 -91 2278 -91 
Q 1894 -91 1617 61 
Q 1341 213 1159 525 
z
M 3116 1747 
Q 3116 2381 2855 2742 
Q 2594 3103 2138 3103 
Q 1681 3103 1420 2742 
Q 1159 2381 1159 1747 
Q 1159 1113 1420 752 
Q 1681 391 2138 391 
Q 2594 391 2855 752 
Q 3116 1113 3116 1747 
z
" transform="scale(0.015625)"/>
       <path id="DejaVuSans-75" d="M 544 1381 
L 544 3500 
L 1119 3500 
L 1119 1403 
Q 1119 906 1312 657 
Q 1506 409 1894 409 
Q 2359 409 2629 706 
Q 2900 1003 2900 1516 
L 2900 3500 
L 3475 3500 
L 3475 0 
L 2900 0 
L 2900 538 
Q 2691 219 2414 64 
Q 2138 -91 1772 -91 
Q 1169 -91 856 284 
Q 544 659 544 1381 
z
M 1991 3584 
L 1991 3584 
z
" transform="scale(0.015625)"/>
       <path id="DejaVuSans-74" d="M 1172 4494 
L 1172 3500 
L 2356 3500 
L 2356 3053 
L 1172 3053 
L 1172 1153 
Q 1172 725 1289 603 
Q 1406 481 1766 481 
L 2356 481 
L 2356 0 
L 1766 0 
Q 1100 0 847 248 
Q 594 497 594 1153 
L 594 3053 
L 172 3053 
L 172 3500 
L 594 3500 
L 594 4494 
L 1172 4494 
z
" transform="scale(0.015625)"/>
      </defs>
      <use xlink:href="#DejaVuSans-4e"/>
      <use xlink:href="#DejaVuSans-6f" x="74.804688"/>
      <use xlink:href="#DejaVuSans-72" x="135.986328"/>
      <use xlink:href="#DejaVuSans-6d" x="175.349609"/>
      <use xlink:href="#DejaVuSans-61" x="272.761719"/>
      <use xlink:href="#DejaVuSans-6c" x="334.041016"/>
      <use xlink:href="#DejaVuSans-69" x="361.824219"/>
      <use xlink:href="#DejaVuSans-7a" x="389.607422"/>
      <use xlink:href="#DejaVuSans-65" x="442.097656"/>
      <use xlink:href="#DejaVuSans-64" x="503.621094"/>
      <use xlink:href="#DejaVuSans-20" x="567.097656"/>
      <use xlink:href="#DejaVuSans-65" x="598.884766"/>
      <use xlink:href="#DejaVuSans-78" x="658.658203"/>
      <use xlink:href="#DejaVuSans-70" x="717.837891"/>
      <use xlink:href="#DejaVuSans-20" x="781.314453"/>
      <use xlink:href="#DejaVuSans-6f" x="813.101562"/>
      <use xlink:href="#DejaVuSans-75" x="874.283203"/>
      <use xlink:href="#DejaVuSans-74" x="937.662109"/>
      <use xlink:href="#DejaVuSans-70" x="976.871094"/>
      <use xlink:href="#DejaVuSans-75" x="1040.347656"/>
      <use xlink:href="#DejaVuSans-74" x="1103.726562"/>
     </g>
    </g>
   </g>
   <g id="line2d_10">
    <path d="M 58.806605 201.989421 
L 61.169848 201.622423 
L 63.533092 201.336981 
L 65.896335 201.153482 
L 68.259579 200.840854 
L 70.622822 200.602985 
L 72.986065 200.5758 
L 75.349309 200.30395 
L 77.712552 200.079674 
L 80.075795 199.991322 
L 82.439039 199.760249 
L 84.802282 199.576751 
L 87.165526 199.488399 
L 89.528769 199.19616 
L 91.892012 199.114605 
L 94.255256 198.917514 
L 96.618499 198.897125 
L 98.981742 198.720422 
L 101.344986 198.70683 
L 103.708229 198.557312 
L 106.071473 198.523331 
L 108.434716 198.373813 
L 110.797959 198.265073 
L 113.161203 198.101963 
L 115.524446 197.966038 
L 117.887689 198.101963 
L 120.250933 197.823317 
L 122.614176 197.775743 
L 124.97742 197.524281 
L 127.340663 197.497096 
L 129.703906 197.43593 
L 132.06715 197.293209 
L 134.430393 197.238839 
L 136.793636 197.048544 
L 139.15688 196.89223 
L 141.520123 196.885433 
L 143.883366 196.735916 
L 146.24661 196.606787 
L 148.609853 196.633972 
L 150.973097 196.559213 
L 153.33634 196.232993 
L 155.699583 196.27377 
L 158.062827 196.035902 
L 160.42607 196.008716 
L 162.789313 195.879588 
L 165.152557 195.988328 
L 167.5158 195.682496 
L 169.879044 195.723274 
L 172.242287 195.56696 
L 174.60553 195.594145 
L 176.968774 195.288313 
L 179.332017 195.281517 
L 181.69526 195.206758 
L 184.058504 195.030056 
L 186.421747 194.989278 
L 188.784991 194.900927 
L 191.148234 194.683447 
L 193.511477 194.880538 
L 195.874721 194.839761 
L 198.237964 194.649465 
L 200.601207 194.540725 
" clip-path="url(#p04be4ee293)" style="fill: none; stroke: #f08080; stroke-width: 2; stroke-linecap: square"/>
   </g>
   <g id="line2d_11">
    <path d="M 58.806605 201.894274 
L 61.169848 201.663201 
L 63.533092 201.289407 
L 65.896335 200.95639 
L 68.259579 200.691336 
L 70.622822 200.392301 
L 72.986065 200.256376 
L 75.349309 200.154432 
L 77.712552 199.930156 
L 80.075795 199.841805 
L 82.439039 199.631121 
L 84.802282 199.624324 
L 87.165526 199.345678 
L 89.528769 199.209753 
L 91.892012 199.14179 
L 94.255256 198.971884 
L 96.618499 198.944699 
L 98.981742 198.801977 
L 101.344986 198.584497 
L 103.708229 198.48935 
L 106.071473 198.509738 
L 108.434716 198.387406 
L 110.797959 198.108759 
L 113.161203 198.244685 
L 115.524446 198.054389 
L 117.887689 197.972834 
L 120.250933 198.006816 
L 122.614176 197.809724 
L 124.97742 197.741762 
L 127.340663 197.483504 
L 129.703906 197.524281 
L 132.06715 197.361171 
L 134.430393 197.442726 
L 136.793636 197.279616 
L 139.15688 197.062136 
L 141.520123 196.899026 
L 143.883366 196.89223 
L 146.24661 196.776693 
L 148.609853 196.586398 
L 150.973097 196.688342 
L 153.33634 196.545621 
L 155.699583 196.321344 
L 158.062827 196.382511 
L 160.42607 196.192215 
L 162.789313 195.981531 
L 165.152557 196.049494 
L 167.5158 195.879588 
L 169.879044 195.770848 
L 172.242287 195.750459 
L 174.60553 195.662107 
L 176.968774 195.40385 
L 179.332017 195.274721 
L 181.69526 195.410646 
L 184.058504 195.070833 
L 186.421747 195.138796 
L 188.784991 195.009667 
L 191.148234 195.193166 
L 193.511477 194.900927 
L 195.874721 194.724224 
L 198.237964 194.785391 
L 200.601207 194.656262 
" clip-path="url(#p04be4ee293)" style="fill: none; stroke: #ff0000; stroke-width: 2; stroke-linecap: square"/>
   </g>
   <g id="line2d_12">
    <path d="M 58.806605 201.867089 
L 61.169848 201.391351 
L 63.533092 201.126297 
L 65.896335 200.84765 
L 68.259579 200.759299 
L 70.622822 200.643763 
L 72.986065 200.310746 
L 75.349309 200.290357 
L 77.712552 200.120451 
L 80.075795 199.821416 
L 82.439039 199.835008 
L 84.802282 199.610732 
L 87.165526 199.264123 
L 89.528769 199.189364 
L 91.892012 199.19616 
L 94.255256 199.101013 
L 96.618499 198.931106 
L 98.981742 198.863144 
L 101.344986 198.788385 
L 103.708229 198.591294 
L 106.071473 198.59809 
L 108.434716 198.482553 
L 110.797959 198.428183 
L 113.161203 198.367017 
L 115.524446 198.101963 
L 117.887689 198.088371 
L 120.250933 198.040797 
L 122.614176 197.938853 
L 124.97742 197.755354 
L 127.340663 197.721373 
L 129.703906 197.517485 
L 132.06715 197.422338 
L 134.430393 197.463115 
L 136.793636 197.184469 
L 139.15688 197.225246 
L 141.520123 197.225246 
L 143.883366 197.293209 
L 146.24661 196.973785 
L 148.609853 196.9466 
L 150.973097 196.865045 
L 153.33634 196.681546 
L 155.699583 196.532028 
L 158.062827 196.525232 
L 160.42607 196.545621 
L 162.789313 196.212604 
L 165.152557 196.137845 
L 167.5158 196.083475 
L 169.879044 195.974735 
L 172.242287 196.049494 
L 174.60553 195.872791 
L 176.968774 195.798033 
L 179.332017 195.668904 
L 181.69526 195.689292 
L 184.058504 195.607737 
L 186.421747 195.342683 
L 188.784991 195.40385 
L 191.148234 195.315498 
L 193.511477 195.179573 
L 195.874721 195.206758 
L 198.237964 195.009667 
L 200.601207 195.057241 
" clip-path="url(#p04be4ee293)" style="fill: none; stroke: #800000; stroke-width: 2; stroke-linecap: square"/>
   </g>
   <g id="patch_3">
    <path d="M 51.716875 205.068125 
L 51.716875 49.094062 
" style="fill: none; stroke: #000000; stroke-width: 0.8; stroke-linejoin: miter; stroke-linecap: square"/>
   </g>
   <g id="patch_4">
    <path d="M 51.716875 205.068125 
L 207.690938 205.068125 
" style="fill: none; stroke: #000000; stroke-width: 0.8; stroke-linejoin: miter; stroke-linecap: square"/>
   </g>
   <g id="text_12">
    <!-- vRNA = 0fM -->
    <g transform="translate(96.239844 43.094062)scale(0.1 -0.1)">
     <defs>
      <path id="DejaVuSans-Bold-76" d="M 97 3500 
L 1216 3500 
L 2088 1081 
L 2956 3500 
L 4078 3500 
L 2700 0 
L 1472 0 
L 97 3500 
z
" transform="scale(0.015625)"/>
      <path id="DejaVuSans-Bold-52" d="M 2297 2597 
Q 2675 2597 2839 2737 
Q 3003 2878 3003 3200 
Q 3003 3519 2839 3656 
Q 2675 3794 2297 3794 
L 1791 3794 
L 1791 2597 
L 2297 2597 
z
M 1791 1766 
L 1791 0 
L 588 0 
L 588 4666 
L 2425 4666 
Q 3347 4666 3776 4356 
Q 4206 4047 4206 3378 
Q 4206 2916 3982 2619 
Q 3759 2322 3309 2181 
Q 3556 2125 3751 1926 
Q 3947 1728 4147 1325 
L 4800 0 
L 3519 0 
L 2950 1159 
Q 2778 1509 2601 1637 
Q 2425 1766 2131 1766 
L 1791 1766 
z
" transform="scale(0.015625)"/>
      <path id="DejaVuSans-Bold-4e" d="M 588 4666 
L 1931 4666 
L 3628 1466 
L 3628 4666 
L 4769 4666 
L 4769 0 
L 3425 0 
L 1728 3200 
L 1728 0 
L 588 0 
L 588 4666 
z
" transform="scale(0.015625)"/>
      <path id="DejaVuSans-Bold-41" d="M 3419 850 
L 1538 850 
L 1241 0 
L 31 0 
L 1759 4666 
L 3194 4666 
L 4922 0 
L 3713 0 
L 3419 850 
z
M 1838 1716 
L 3116 1716 
L 2478 3572 
L 1838 1716 
z
" transform="scale(0.015625)"/>
      <path id="DejaVuSans-Bold-20" transform="scale(0.015625)"/>
      <path id="DejaVuSans-Bold-3d" d="M 678 3084 
L 4684 3084 
L 4684 2350 
L 678 2350 
L 678 3084 
z
M 678 1663 
L 4684 1663 
L 4684 922 
L 678 922 
L 678 1663 
z
" transform="scale(0.015625)"/>
      <path id="DejaVuSans-Bold-30" d="M 2944 2338 
Q 2944 3213 2780 3570 
Q 2616 3928 2228 3928 
Q 1841 3928 1675 3570 
Q 1509 3213 1509 2338 
Q 1509 1453 1675 1090 
Q 1841 728 2228 728 
Q 2613 728 2778 1090 
Q 2944 1453 2944 2338 
z
M 4147 2328 
Q 4147 1169 3647 539 
Q 3147 -91 2228 -91 
Q 1306 -91 806 539 
Q 306 1169 306 2328 
Q 306 3491 806 4120 
Q 1306 4750 2228 4750 
Q 3147 4750 3647 4120 
Q 4147 3491 4147 2328 
z
" transform="scale(0.015625)"/>
      <path id="DejaVuSans-Bold-66" d="M 2841 4863 
L 2841 4128 
L 2222 4128 
Q 1984 4128 1890 4042 
Q 1797 3956 1797 3744 
L 1797 3500 
L 2753 3500 
L 2753 2700 
L 1797 2700 
L 1797 0 
L 678 0 
L 678 2700 
L 122 2700 
L 122 3500 
L 678 3500 
L 678 3744 
Q 678 4316 997 4589 
Q 1316 4863 1984 4863 
L 2841 4863 
z
" transform="scale(0.015625)"/>
      <path id="DejaVuSans-Bold-4d" d="M 588 4666 
L 2119 4666 
L 3181 2169 
L 4250 4666 
L 5778 4666 
L 5778 0 
L 4641 0 
L 4641 3413 
L 3566 897 
L 2803 897 
L 1728 3413 
L 1728 0 
L 588 0 
L 588 4666 
z
" transform="scale(0.015625)"/>
     </defs>
     <use xlink:href="#DejaVuSans-Bold-76"/>
     <use xlink:href="#DejaVuSans-Bold-52" x="65.185547"/>
     <use xlink:href="#DejaVuSans-Bold-4e" x="142.1875"/>
     <use xlink:href="#DejaVuSans-Bold-41" x="225.878906"/>
     <use xlink:href="#DejaVuSans-Bold-20" x="303.271484"/>
     <use xlink:href="#DejaVuSans-Bold-3d" x="338.085938"/>
     <use xlink:href="#DejaVuSans-Bold-20" x="421.875"/>
     <use xlink:href="#DejaVuSans-Bold-30" x="456.689453"/>
     <use xlink:href="#DejaVuSans-Bold-66" x="526.269531"/>
     <use xlink:href="#DejaVuSans-Bold-4d" x="569.775391"/>
    </g>
   </g>
   <g id="legend_1">
    <g id="patch_5">
     <path d="M 104.964375 101.128437 
L 200.690938 101.128437 
Q 202.690938 101.128437 202.690938 99.128437 
L 202.690938 56.094062 
Q 202.690938 54.094062 200.690938 54.094062 
L 104.964375 54.094062 
Q 102.964375 54.094062 102.964375 56.094062 
L 102.964375 99.128437 
Q 102.964375 101.128437 104.964375 101.128437 
z
" style="fill: #ffffff; opacity: 0.8; stroke: #cccccc; stroke-linejoin: miter"/>
    </g>
    <g id="line2d_13">
     <path d="M 106.964375 62.1925 
L 116.964375 62.1925 
L 126.964375 62.1925 
" style="fill: none; stroke: #f08080; stroke-width: 2; stroke-linecap: square"/>
    </g>
    <g id="text_13">
     <!-- RNase 0.001 -->
     <g transform="translate(134.964375 65.6925)scale(0.1 -0.1)">
      <defs>
       <path id="DejaVuSans-52" d="M 2841 2188 
Q 3044 2119 3236 1894 
Q 3428 1669 3622 1275 
L 4263 0 
L 3584 0 
L 2988 1197 
Q 2756 1666 2539 1819 
Q 2322 1972 1947 1972 
L 1259 1972 
L 1259 0 
L 628 0 
L 628 4666 
L 2053 4666 
Q 2853 4666 3247 4331 
Q 3641 3997 3641 3322 
Q 3641 2881 3436 2590 
Q 3231 2300 2841 2188 
z
M 1259 4147 
L 1259 2491 
L 2053 2491 
Q 2509 2491 2742 2702 
Q 2975 2913 2975 3322 
Q 2975 3731 2742 3939 
Q 2509 4147 2053 4147 
L 1259 4147 
z
" transform="scale(0.015625)"/>
       <path id="DejaVuSans-73" d="M 2834 3397 
L 2834 2853 
Q 2591 2978 2328 3040 
Q 2066 3103 1784 3103 
Q 1356 3103 1142 2972 
Q 928 2841 928 2578 
Q 928 2378 1081 2264 
Q 1234 2150 1697 2047 
L 1894 2003 
Q 2506 1872 2764 1633 
Q 3022 1394 3022 966 
Q 3022 478 2636 193 
Q 2250 -91 1575 -91 
Q 1294 -91 989 -36 
Q 684 19 347 128 
L 347 722 
Q 666 556 975 473 
Q 1284 391 1588 391 
Q 1994 391 2212 530 
Q 2431 669 2431 922 
Q 2431 1156 2273 1281 
Q 2116 1406 1581 1522 
L 1381 1569 
Q 847 1681 609 1914 
Q 372 2147 372 2553 
Q 372 3047 722 3315 
Q 1072 3584 1716 3584 
Q 2034 3584 2315 3537 
Q 2597 3491 2834 3397 
z
" transform="scale(0.015625)"/>
      </defs>
      <use xlink:href="#DejaVuSans-52"/>
      <use xlink:href="#DejaVuSans-4e" x="69.482422"/>
      <use xlink:href="#DejaVuSans-61" x="144.287109"/>
      <use xlink:href="#DejaVuSans-73" x="205.566406"/>
      <use xlink:href="#DejaVuSans-65" x="257.666016"/>
      <use xlink:href="#DejaVuSans-20" x="319.189453"/>
      <use xlink:href="#DejaVuSans-30" x="350.976562"/>
      <use xlink:href="#DejaVuSans-2e" x="414.599609"/>
      <use xlink:href="#DejaVuSans-30" x="446.386719"/>
      <use xlink:href="#DejaVuSans-30" x="510.009766"/>
      <use xlink:href="#DejaVuSans-31" x="573.632812"/>
     </g>
    </g>
    <g id="line2d_14">
     <path d="M 106.964375 76.870625 
L 116.964375 76.870625 
L 126.964375 76.870625 
" style="fill: none; stroke: #ff0000; stroke-width: 2; stroke-linecap: square"/>
    </g>
    <g id="text_14">
     <!-- RNase 0.005 -->
     <g transform="translate(134.964375 80.370625)scale(0.1 -0.1)">
      <defs>
       <path id="DejaVuSans-35" d="M 691 4666 
L 3169 4666 
L 3169 4134 
L 1269 4134 
L 1269 2991 
Q 1406 3038 1543 3061 
Q 1681 3084 1819 3084 
Q 2600 3084 3056 2656 
Q 3513 2228 3513 1497 
Q 3513 744 3044 326 
Q 2575 -91 1722 -91 
Q 1428 -91 1123 -41 
Q 819 9 494 109 
L 494 744 
Q 775 591 1075 516 
Q 1375 441 1709 441 
Q 2250 441 2565 725 
Q 2881 1009 2881 1497 
Q 2881 1984 2565 2268 
Q 2250 2553 1709 2553 
Q 1456 2553 1204 2497 
Q 953 2441 691 2322 
L 691 4666 
z
" transform="scale(0.015625)"/>
      </defs>
      <use xlink:href="#DejaVuSans-52"/>
      <use xlink:href="#DejaVuSans-4e" x="69.482422"/>
      <use xlink:href="#DejaVuSans-61" x="144.287109"/>
      <use xlink:href="#DejaVuSans-73" x="205.566406"/>
      <use xlink:href="#DejaVuSans-65" x="257.666016"/>
      <use xlink:href="#DejaVuSans-20" x="319.189453"/>
      <use xlink:href="#DejaVuSans-30" x="350.976562"/>
      <use xlink:href="#DejaVuSans-2e" x="414.599609"/>
      <use xlink:href="#DejaVuSans-30" x="446.386719"/>
      <use xlink:href="#DejaVuSans-30" x="510.009766"/>
      <use xlink:href="#DejaVuSans-35" x="573.632812"/>
     </g>
    </g>
    <g id="line2d_15">
     <path d="M 106.964375 91.54875 
L 116.964375 91.54875 
L 126.964375 91.54875 
" style="fill: none; stroke: #800000; stroke-width: 2; stroke-linecap: square"/>
    </g>
    <g id="text_15">
     <!-- RNase 0.02 -->
     <g transform="translate(134.964375 95.04875)scale(0.1 -0.1)">
      <use xlink:href="#DejaVuSans-52"/>
      <use xlink:href="#DejaVuSans-4e" x="69.482422"/>
      <use xlink:href="#DejaVuSans-61" x="144.287109"/>
      <use xlink:href="#DejaVuSans-73" x="205.566406"/>
      <use xlink:href="#DejaVuSans-65" x="257.666016"/>
      <use xlink:href="#DejaVuSans-20" x="319.189453"/>
      <use xlink:href="#DejaVuSans-30" x="350.976562"/>
      <use xlink:href="#DejaVuSans-2e" x="414.599609"/>
      <use xlink:href="#DejaVuSans-30" x="446.386719"/>
      <use xlink:href="#DejaVuSans-32" x="510.009766"/>
     </g>
    </g>
   </g>
  </g>
  <g id="axes_2">
   <g id="patch_6">
    <path d="M 335.65267 205.068125 
L 491.626733 205.068125 
L 491.626733 49.094062 
L 335.65267 49.094062 
z
" style="fill: #ffffff"/>
   </g>
   <g id="PolyCollection_4">
    <defs>
     <path id="mfd018c0837" d="M 342.742401 -48.774865 
L 342.742401 -48.542995 
L 345.105644 -49.080298 
L 347.468887 -49.407494 
L 349.832131 -49.569628 
L 352.195374 -49.678185 
L 354.558617 -49.992555 
L 356.921861 -50.167359 
L 359.285104 -50.245317 
L 361.648348 -50.419484 
L 364.011591 -50.583787 
L 366.374834 -50.771155 
L 368.738078 -51.01492 
L 371.101321 -51.154426 
L 373.464564 -51.23838 
L 375.827808 -51.421878 
L 378.191051 -51.377469 
L 380.554295 -51.5537 
L 382.917538 -51.619674 
L 385.280781 -51.703796 
L 387.644025 -51.804221 
L 390.007268 -51.853438 
L 392.370511 -52.115363 
L 394.733755 -52.146815 
L 397.096998 -52.169911 
L 399.460241 -52.359101 
L 401.823485 -52.385275 
L 404.186728 -52.303004 
L 406.549972 -52.592379 
L 408.913215 -52.476693 
L 411.276458 -52.760294 
L 413.639702 -52.780597 
L 416.002945 -52.808124 
L 418.366188 -53.053614 
L 420.729432 -53.409204 
L 423.092675 -53.3409 
L 425.455919 -53.416037 
L 427.819162 -53.546761 
L 430.182405 -53.681941 
L 432.545649 -53.740927 
L 434.908892 -53.611646 
L 437.272135 -53.704326 
L 439.635379 -54.011886 
L 441.998622 -54.013362 
L 444.361866 -54.065231 
L 446.725109 -54.072134 
L 449.088352 -54.318207 
L 451.451596 -54.269243 
L 453.814839 -54.281517 
L 456.178082 -54.507095 
L 458.541326 -54.561163 
L 460.904569 -54.581151 
L 463.267813 -54.853704 
L 465.631056 -54.809104 
L 467.994299 -55.064291 
L 470.357543 -54.977615 
L 472.720786 -54.815756 
L 475.084029 -55.074595 
L 477.447273 -55.325351 
L 479.810516 -55.335883 
L 482.173759 -55.358528 
L 484.537003 -55.353876 
L 484.537003 -58.410922 
L 484.537003 -58.410922 
L 482.173759 -58.664528 
L 479.810516 -58.320175 
L 477.447273 -58.466633 
L 475.084029 -58.214465 
L 472.720786 -57.916011 
L 470.357543 -57.90367 
L 467.994299 -57.898549 
L 465.631056 -57.664405 
L 463.267813 -57.524658 
L 460.904569 -57.470991 
L 458.541326 -57.314276 
L 456.178082 -57.137272 
L 453.814839 -57.226924 
L 451.451596 -56.885793 
L 449.088352 -56.809644 
L 446.725109 -56.661534 
L 444.361866 -56.654845 
L 441.998622 -56.285346 
L 439.635379 -56.014972 
L 437.272135 -55.765239 
L 434.908892 -56.061807 
L 432.545649 -55.90534 
L 430.182405 -55.597328 
L 427.819162 -55.569398 
L 425.455919 -55.455457 
L 423.092675 -55.258745 
L 420.729432 -55.204033 
L 418.366188 -55.0567 
L 416.002945 -54.690527 
L 413.639702 -54.853979 
L 411.276458 -54.534469 
L 408.913215 -54.478257 
L 406.549972 -54.403349 
L 404.186728 -54.284949 
L 401.823485 -54.257048 
L 399.460241 -54.106519 
L 397.096998 -53.928711 
L 394.733755 -53.557624 
L 392.370511 -53.425966 
L 390.007268 -53.402448 
L 387.644025 -53.383703 
L 385.280781 -52.994798 
L 382.917538 -53.051734 
L 380.554295 -52.723525 
L 378.191051 -52.627906 
L 375.827808 -52.488349 
L 373.464564 -52.30485 
L 371.101321 -52.062584 
L 368.738078 -51.916647 
L 366.374834 -51.820599 
L 364.011591 -51.708932 
L 361.648348 -51.275165 
L 359.285104 -51.082333 
L 356.921861 -50.575814 
L 354.558617 -50.465175 
L 352.195374 -50.181475 
L 349.832131 -49.977404 
L 347.468887 -49.595837 
L 345.105644 -49.20263 
L 342.742401 -48.774865 
z
" style="stroke: #f08080; stroke-opacity: 0.2"/>
    </defs>
    <g clip-path="url(#pf8d1ca3c85)">
     <use xlink:href="#mfd018c0837" x="0" y="250.56" style="fill: #f08080; fill-opacity: 0.2; stroke: #f08080; stroke-opacity: 0.2"/>
    </g>
   </g>
   <g id="PolyCollection_5">
    <defs>
     <path id="me7da52b5dd" d="M 342.742401 -48.880341 
L 342.742401 -48.641407 
L 345.105644 -49.059909 
L 347.468887 -49.229138 
L 349.832131 -49.447296 
L 352.195374 -49.6835 
L 354.558617 -49.822458 
L 356.921861 -50.082814 
L 359.285104 -50.153429 
L 361.648348 -50.179604 
L 364.011591 -50.418315 
L 366.374834 -50.496514 
L 368.738078 -50.84417 
L 371.101321 -50.764834 
L 373.464564 -51.017231 
L 375.827808 -51.01001 
L 378.191051 -51.148381 
L 380.554295 -51.38137 
L 382.917538 -51.393526 
L 385.280781 -51.523452 
L 387.644025 -51.588286 
L 390.007268 -51.777566 
L 392.370511 -51.854146 
L 394.733755 -51.895227 
L 397.096998 -52.030043 
L 399.460241 -52.115366 
L 401.823485 -52.24958 
L 404.186728 -52.359337 
L 406.549972 -52.590225 
L 408.913215 -52.592033 
L 411.276458 -52.431278 
L 413.639702 -52.540349 
L 416.002945 -52.631228 
L 418.366188 -52.762178 
L 420.729432 -52.787525 
L 423.092675 -52.840333 
L 425.455919 -52.994941 
L 427.819162 -53.251844 
L 430.182405 -53.382328 
L 432.545649 -53.35908 
L 434.908892 -53.466964 
L 437.272135 -53.515821 
L 439.635379 -53.771736 
L 441.998622 -53.655707 
L 444.361866 -54.002501 
L 446.725109 -54.10885 
L 449.088352 -53.864363 
L 451.451596 -54.210348 
L 453.814839 -54.165143 
L 456.178082 -54.02953 
L 458.541326 -54.495791 
L 460.904569 -54.40832 
L 463.267813 -54.598012 
L 465.631056 -54.50704 
L 467.994299 -54.688767 
L 470.357543 -54.580406 
L 472.720786 -54.843693 
L 475.084029 -55.009125 
L 477.447273 -54.979139 
L 479.810516 -55.075083 
L 482.173759 -54.995347 
L 484.537003 -55.078333 
L 484.537003 -55.51941 
L 484.537003 -55.51941 
L 482.173759 -55.493656 
L 479.810516 -55.169255 
L 477.447273 -55.428309 
L 475.084029 -55.303176 
L 472.720786 -55.115203 
L 470.357543 -55.174602 
L 467.994299 -55.161388 
L 465.631056 -55.016895 
L 463.267813 -54.762813 
L 460.904569 -54.97969 
L 458.541326 -54.620368 
L 456.178082 -54.502151 
L 453.814839 -54.312169 
L 451.451596 -54.334926 
L 449.088352 -54.327506 
L 446.725109 -54.314092 
L 444.361866 -54.189367 
L 441.998622 -54.318682 
L 439.635379 -54.066728 
L 437.272135 -53.670202 
L 434.908892 -53.868576 
L 432.545649 -53.636647 
L 430.182405 -53.423105 
L 427.819162 -53.662329 
L 425.455919 -53.321161 
L 423.092675 -53.271882 
L 420.729432 -53.05284 
L 418.366188 -53.091779 
L 416.002945 -52.937286 
L 413.639702 -52.905833 
L 411.276458 -52.539165 
L 408.913215 -52.881333 
L 406.549972 -52.692846 
L 404.186728 -52.583922 
L 401.823485 -52.516976 
L 399.460241 -52.392933 
L 397.096998 -52.301553 
L 394.733755 -52.218889 
L 392.370511 -52.042489 
L 390.007268 -51.942367 
L 387.644025 -51.859796 
L 385.280781 -51.870261 
L 382.917538 -51.741929 
L 380.554295 -51.658937 
L 378.191051 -51.443373 
L 375.827808 -51.337079 
L 373.464564 -51.098786 
L 371.101321 -51.160887 
L 368.738078 -50.891256 
L 366.374834 -50.885507 
L 364.011591 -50.583115 
L 361.648348 -50.427644 
L 359.285104 -50.358671 
L 356.921861 -50.252584 
L 354.558617 -50.023609 
L 352.195374 -49.768385 
L 349.832131 -49.569628 
L 347.468887 -49.434381 
L 345.105644 -49.223019 
L 342.742401 -48.880341 
z
" style="stroke: #ff0000; stroke-opacity: 0.2"/>
    </defs>
    <g clip-path="url(#pf8d1ca3c85)">
     <use xlink:href="#me7da52b5dd" x="0" y="250.56" style="fill: #ff0000; fill-opacity: 0.2; stroke: #ff0000; stroke-opacity: 0.2"/>
    </g>
   </g>
   <g id="PolyCollection_6">
    <defs>
     <path id="mc773862a7c" d="M 342.742401 -49.016072 
L 342.742401 -48.913451 
L 345.105644 -49.083454 
L 347.468887 -49.191633 
L 349.832131 -49.612227 
L 352.195374 -49.71235 
L 354.558617 -49.803566 
L 356.921861 -50.000948 
L 359.285104 -50.062244 
L 361.648348 -50.21404 
L 364.011591 -50.358847 
L 366.374834 -50.504013 
L 368.738078 -50.811656 
L 371.101321 -51.015543 
L 373.464564 -51.221606 
L 375.827808 -51.158746 
L 378.191051 -51.144529 
L 380.554295 -51.277981 
L 382.917538 -51.547339 
L 385.280781 -51.550647 
L 387.644025 -51.682779 
L 390.007268 -51.53809 
L 392.370511 -51.78606 
L 394.733755 -51.964332 
L 397.096998 -51.937005 
L 399.460241 -52.159002 
L 401.823485 -52.199779 
L 404.186728 -52.089837 
L 406.549972 -52.123516 
L 408.913215 -52.306567 
L 411.276458 -52.430287 
L 413.639702 -52.514832 
L 416.002945 -52.500199 
L 418.366188 -52.729693 
L 420.729432 -52.998407 
L 423.092675 -53.096885 
L 425.455919 -53.041385 
L 427.819162 -53.050731 
L 430.182405 -53.240582 
L 432.545649 -53.350941 
L 434.908892 -53.401029 
L 437.272135 -53.444924 
L 439.635379 -53.790103 
L 441.998622 -53.583452 
L 444.361866 -53.677213 
L 446.725109 -53.693645 
L 449.088352 -53.934938 
L 451.451596 -53.859771 
L 453.814839 -53.972887 
L 456.178082 -54.066694 
L 458.541326 -54.212891 
L 460.904569 -54.475847 
L 463.267813 -54.353062 
L 465.631056 -54.533277 
L 467.994299 -54.726034 
L 470.357543 -54.450281 
L 472.720786 -54.849113 
L 475.084029 -54.728156 
L 477.447273 -55.004268 
L 479.810516 -54.875575 
L 482.173759 -54.980868 
L 484.537003 -55.137191 
L 484.537003 -55.555699 
L 484.537003 -55.555699 
L 482.173759 -55.467358 
L 479.810516 -55.164875 
L 477.447273 -55.416773 
L 475.084029 -54.999666 
L 472.720786 -55.04182 
L 470.357543 -55.087246 
L 467.994299 -54.988196 
L 465.631056 -54.84114 
L 463.267813 -54.844653 
L 460.904569 -54.68109 
L 458.541326 -54.699381 
L 456.178082 -54.383432 
L 453.814839 -54.490832 
L 451.451596 -54.29132 
L 449.088352 -54.610336 
L 446.725109 -54.294336 
L 444.361866 -54.215621 
L 441.998622 -54.037531 
L 439.635379 -53.871658 
L 437.272135 -53.863432 
L 434.908892 -53.649069 
L 432.545649 -53.739934 
L 430.182405 -53.428925 
L 427.819162 -53.537221 
L 425.455919 -53.532975 
L 423.092675 -53.259995 
L 420.729432 -53.168178 
L 418.366188 -53.205819 
L 416.002945 -52.93239 
L 413.639702 -52.931349 
L 411.276458 -52.676082 
L 408.913215 -52.568729 
L 406.549972 -52.493522 
L 404.186728 -52.513609 
L 401.823485 -52.362889 
L 399.460241 -52.240557 
L 397.096998 -52.299443 
L 394.733755 -52.095413 
L 392.370511 -52.001835 
L 390.007268 -52.086695 
L 387.644025 -51.969191 
L 385.280781 -51.938213 
L 382.917538 -51.669671 
L 380.554295 -51.572031 
L 378.191051 -51.651113 
L 375.827808 -51.351453 
L 373.464564 -51.315778 
L 371.101321 -51.263583 
L 368.738078 -51.059696 
L 366.374834 -50.850822 
L 364.011591 -50.574621 
L 361.648348 -50.665058 
L 359.285104 -50.368302 
L 356.921861 -50.144154 
L 354.558617 -50.042501 
L 352.195374 -49.834682 
L 349.832131 -49.63577 
L 347.468887 -49.580626 
L 345.105644 -49.22666 
L 342.742401 -49.016072 
z
" style="stroke: #800000; stroke-opacity: 0.2"/>
    </defs>
    <g clip-path="url(#pf8d1ca3c85)">
     <use xlink:href="#mc773862a7c" x="0" y="250.56" style="fill: #800000; fill-opacity: 0.2; stroke: #800000; stroke-opacity: 0.2"/>
    </g>
   </g>
   <g id="matplotlib.axis_3">
    <g id="xtick_4">
     <g id="line2d_16">
      <g>
       <use xlink:href="#m496f4bd26c" x="342.742401" y="205.068125" style="stroke: #000000; stroke-width: 0.8"/>
      </g>
     </g>
     <g id="text_16">
      <!-- 0 -->
      <g transform="translate(339.561151 219.666562)scale(0.1 -0.1)">
       <use xlink:href="#DejaVuSans-30"/>
      </g>
     </g>
    </g>
    <g id="xtick_5">
     <g id="line2d_17">
      <g>
       <use xlink:href="#m496f4bd26c" x="401.823485" y="205.068125" style="stroke: #000000; stroke-width: 0.8"/>
      </g>
     </g>
     <g id="text_17">
      <!-- 100 -->
      <g transform="translate(392.279735 219.666562)scale(0.1 -0.1)">
       <use xlink:href="#DejaVuSans-31"/>
       <use xlink:href="#DejaVuSans-30" x="63.623047"/>
       <use xlink:href="#DejaVuSans-30" x="127.246094"/>
      </g>
     </g>
    </g>
    <g id="xtick_6">
     <g id="line2d_18">
      <g>
       <use xlink:href="#m496f4bd26c" x="460.904569" y="205.068125" style="stroke: #000000; stroke-width: 0.8"/>
      </g>
     </g>
     <g id="text_18">
      <!-- 200 -->
      <g transform="translate(451.360819 219.666562)scale(0.1 -0.1)">
       <use xlink:href="#DejaVuSans-32"/>
       <use xlink:href="#DejaVuSans-30" x="63.623047"/>
       <use xlink:href="#DejaVuSans-30" x="127.246094"/>
      </g>
     </g>
    </g>
    <g id="text_19">
     <!-- Time (min) -->
     <g transform="translate(381.056889 240.864375)scale(0.12 -0.12)">
      <use xlink:href="#DejaVuSans-54"/>
      <use xlink:href="#DejaVuSans-69" x="57.958984"/>
      <use xlink:href="#DejaVuSans-6d" x="85.742188"/>
      <use xlink:href="#DejaVuSans-65" x="183.154297"/>
      <use xlink:href="#DejaVuSans-20" x="244.677734"/>
      <use xlink:href="#DejaVuSans-28" x="276.464844"/>
      <use xlink:href="#DejaVuSans-6d" x="315.478516"/>
      <use xlink:href="#DejaVuSans-69" x="412.890625"/>
      <use xlink:href="#DejaVuSans-6e" x="440.673828"/>
      <use xlink:href="#DejaVuSans-29" x="504.052734"/>
     </g>
    </g>
   </g>
   <g id="matplotlib.axis_4">
    <g id="ytick_7">
     <g id="line2d_19">
      <g>
       <use xlink:href="#mbdaca5b1f7" x="335.65267" y="205.068125" style="stroke: #000000; stroke-width: 0.8"/>
      </g>
     </g>
     <g id="text_20">
      <!-- 0.0 -->
      <g transform="translate(312.749545 208.867344)scale(0.1 -0.1)">
       <use xlink:href="#DejaVuSans-30"/>
       <use xlink:href="#DejaVuSans-2e" x="63.623047"/>
       <use xlink:href="#DejaVuSans-30" x="95.410156"/>
      </g>
     </g>
    </g>
    <g id="ytick_8">
     <g id="line2d_20">
      <g>
       <use xlink:href="#mbdaca5b1f7" x="335.65267" y="173.873312" style="stroke: #000000; stroke-width: 0.8"/>
      </g>
     </g>
     <g id="text_21">
      <!-- 0.2 -->
      <g transform="translate(312.749545 177.672531)scale(0.1 -0.1)">
       <use xlink:href="#DejaVuSans-30"/>
       <use xlink:href="#DejaVuSans-2e" x="63.623047"/>
       <use xlink:href="#DejaVuSans-32" x="95.410156"/>
      </g>
     </g>
    </g>
    <g id="ytick_9">
     <g id="line2d_21">
      <g>
       <use xlink:href="#mbdaca5b1f7" x="335.65267" y="142.6785" style="stroke: #000000; stroke-width: 0.8"/>
      </g>
     </g>
     <g id="text_22">
      <!-- 0.4 -->
      <g transform="translate(312.749545 146.477719)scale(0.1 -0.1)">
       <use xlink:href="#DejaVuSans-30"/>
       <use xlink:href="#DejaVuSans-2e" x="63.623047"/>
       <use xlink:href="#DejaVuSans-34" x="95.410156"/>
      </g>
     </g>
    </g>
    <g id="ytick_10">
     <g id="line2d_22">
      <g>
       <use xlink:href="#mbdaca5b1f7" x="335.65267" y="111.483687" style="stroke: #000000; stroke-width: 0.8"/>
      </g>
     </g>
     <g id="text_23">
      <!-- 0.6 -->
      <g transform="translate(312.749545 115.282906)scale(0.1 -0.1)">
       <use xlink:href="#DejaVuSans-30"/>
       <use xlink:href="#DejaVuSans-2e" x="63.623047"/>
       <use xlink:href="#DejaVuSans-36" x="95.410156"/>
      </g>
     </g>
    </g>
    <g id="ytick_11">
     <g id="line2d_23">
      <g>
       <use xlink:href="#mbdaca5b1f7" x="335.65267" y="80.288875" style="stroke: #000000; stroke-width: 0.8"/>
      </g>
     </g>
     <g id="text_24">
      <!-- 0.8 -->
      <g transform="translate(312.749545 84.088094)scale(0.1 -0.1)">
       <use xlink:href="#DejaVuSans-30"/>
       <use xlink:href="#DejaVuSans-2e" x="63.623047"/>
       <use xlink:href="#DejaVuSans-38" x="95.410156"/>
      </g>
     </g>
    </g>
    <g id="ytick_12">
     <g id="line2d_24">
      <g>
       <use xlink:href="#mbdaca5b1f7" x="335.65267" y="49.094062" style="stroke: #000000; stroke-width: 0.8"/>
      </g>
     </g>
     <g id="text_25">
      <!-- 1.0 -->
      <g transform="translate(312.749545 52.893281)scale(0.1 -0.1)">
       <use xlink:href="#DejaVuSans-31"/>
       <use xlink:href="#DejaVuSans-2e" x="63.623047"/>
       <use xlink:href="#DejaVuSans-30" x="95.410156"/>
      </g>
     </g>
    </g>
    <g id="text_26">
     <!-- Normalized exp output -->
     <g transform="translate(300.25392 195.658281)rotate(-90)scale(0.12 -0.12)">
      <use xlink:href="#DejaVuSans-4e"/>
      <use xlink:href="#DejaVuSans-6f" x="74.804688"/>
      <use xlink:href="#DejaVuSans-72" x="135.986328"/>
      <use xlink:href="#DejaVuSans-6d" x="175.349609"/>
      <use xlink:href="#DejaVuSans-61" x="272.761719"/>
      <use xlink:href="#DejaVuSans-6c" x="334.041016"/>
      <use xlink:href="#DejaVuSans-69" x="361.824219"/>
      <use xlink:href="#DejaVuSans-7a" x="389.607422"/>
      <use xlink:href="#DejaVuSans-65" x="442.097656"/>
      <use xlink:href="#DejaVuSans-64" x="503.621094"/>
      <use xlink:href="#DejaVuSans-20" x="567.097656"/>
      <use xlink:href="#DejaVuSans-65" x="598.884766"/>
      <use xlink:href="#DejaVuSans-78" x="658.658203"/>
      <use xlink:href="#DejaVuSans-70" x="717.837891"/>
      <use xlink:href="#DejaVuSans-20" x="781.314453"/>
      <use xlink:href="#DejaVuSans-6f" x="813.101562"/>
      <use xlink:href="#DejaVuSans-75" x="874.283203"/>
      <use xlink:href="#DejaVuSans-74" x="937.662109"/>
      <use xlink:href="#DejaVuSans-70" x="976.871094"/>
      <use xlink:href="#DejaVuSans-75" x="1040.347656"/>
      <use xlink:href="#DejaVuSans-74" x="1103.726562"/>
     </g>
    </g>
   </g>
   <g id="line2d_25">
    <path d="M 342.742401 201.90107 
L 345.105644 201.418536 
L 347.468887 201.058334 
L 349.832131 200.786484 
L 352.195374 200.63017 
L 354.558617 200.331135 
L 356.921861 200.188414 
L 359.285104 199.896175 
L 361.648348 199.712676 
L 364.011591 199.41364 
L 366.374834 199.264123 
L 368.738078 199.094216 
L 371.101321 198.951495 
L 373.464564 198.788385 
L 375.827808 198.604886 
L 378.191051 198.557312 
L 380.554295 198.421387 
L 382.917538 198.224296 
L 385.280781 198.210703 
L 387.644025 197.966038 
L 390.007268 197.932057 
L 392.370511 197.789335 
L 394.733755 197.70778 
L 397.096998 197.510689 
L 399.460241 197.32719 
L 401.823485 197.238839 
L 404.186728 197.266024 
L 406.549972 197.062136 
L 408.913215 197.082525 
L 411.276458 196.912618 
L 413.639702 196.742712 
L 416.002945 196.810675 
L 418.366188 196.504843 
L 420.729432 196.253382 
L 423.092675 196.260178 
L 425.455919 196.124253 
L 427.819162 196.00192 
L 430.182405 195.920365 
L 432.545649 195.736866 
L 434.908892 195.723274 
L 437.272135 195.825218 
L 439.635379 195.546571 
L 441.998622 195.410646 
L 444.361866 195.199962 
L 446.725109 195.193166 
L 449.088352 194.996074 
L 451.451596 194.982482 
L 453.814839 194.805779 
L 456.178082 194.737817 
L 458.541326 194.62228 
L 460.904569 194.533929 
L 463.267813 194.370819 
L 465.631056 194.323245 
L 467.994299 194.07858 
L 470.357543 194.119357 
L 472.720786 194.194116 
L 475.084029 193.91547 
L 477.447273 193.664008 
L 479.810516 193.731971 
L 482.173759 193.548472 
L 484.537003 193.677601 
" clip-path="url(#pf8d1ca3c85)" style="fill: none; stroke: #f08080; stroke-width: 2; stroke-linecap: square"/>
   </g>
   <g id="line2d_26">
    <path d="M 342.742401 201.799126 
L 345.105644 201.418536 
L 347.468887 201.228241 
L 349.832131 201.051538 
L 352.195374 200.834058 
L 354.558617 200.636966 
L 356.921861 200.392301 
L 359.285104 200.30395 
L 361.648348 200.256376 
L 364.011591 200.059285 
L 366.374834 199.86899 
L 368.738078 199.692287 
L 371.101321 199.597139 
L 373.464564 199.501992 
L 375.827808 199.386455 
L 378.191051 199.264123 
L 380.554295 199.039846 
L 382.917538 198.992273 
L 385.280781 198.863144 
L 387.644025 198.835959 
L 390.007268 198.700034 
L 392.370511 198.611682 
L 394.733755 198.502942 
L 397.096998 198.394202 
L 399.460241 198.305851 
L 401.823485 198.176722 
L 404.186728 198.088371 
L 406.549972 197.918464 
L 408.913215 197.823317 
L 411.276458 198.074778 
L 413.639702 197.836909 
L 416.002945 197.775743 
L 418.366188 197.633022 
L 420.729432 197.639818 
L 423.092675 197.503893 
L 425.455919 197.401949 
L 427.819162 197.102914 
L 430.182405 197.157284 
L 432.545649 197.062136 
L 434.908892 196.89223 
L 437.272135 196.966989 
L 439.635379 196.640768 
L 441.998622 196.572806 
L 444.361866 196.464066 
L 446.725109 196.348529 
L 449.088352 196.464066 
L 451.451596 196.287363 
L 453.814839 196.321344 
L 456.178082 196.294159 
L 458.541326 196.00192 
L 460.904569 195.865995 
L 463.267813 195.879588 
L 465.631056 195.798033 
L 467.994299 195.634922 
L 470.357543 195.682496 
L 472.720786 195.580552 
L 475.084029 195.40385 
L 477.447273 195.356276 
L 479.810516 195.437831 
L 482.173759 195.315498 
L 484.537003 195.261128 
" clip-path="url(#pf8d1ca3c85)" style="fill: none; stroke: #ff0000; stroke-width: 2; stroke-linecap: square"/>
   </g>
   <g id="line2d_27">
    <path d="M 342.742401 201.595238 
L 345.105644 201.404943 
L 347.468887 201.173871 
L 349.832131 200.936002 
L 352.195374 200.786484 
L 354.558617 200.636966 
L 356.921861 200.487449 
L 359.285104 200.344727 
L 361.648348 200.120451 
L 364.011591 200.093266 
L 366.374834 199.882582 
L 368.738078 199.624324 
L 371.101321 199.420437 
L 373.464564 199.291308 
L 375.827808 199.3049 
L 378.191051 199.162179 
L 380.554295 199.134994 
L 382.917538 198.951495 
L 385.280781 198.81557 
L 387.644025 198.734015 
L 390.007268 198.747607 
L 392.370511 198.666052 
L 394.733755 198.530127 
L 397.096998 198.441776 
L 399.460241 198.360221 
L 401.823485 198.278666 
L 404.186728 198.258277 
L 406.549972 198.251481 
L 408.913215 198.122352 
L 411.276458 198.006816 
L 413.639702 197.836909 
L 416.002945 197.843705 
L 418.366188 197.592244 
L 420.729432 197.476708 
L 423.092675 197.38156 
L 425.455919 197.27282 
L 427.819162 197.266024 
L 430.182405 197.225246 
L 432.545649 197.014562 
L 434.908892 197.034951 
L 437.272135 196.905822 
L 439.635379 196.72912 
L 441.998622 196.749508 
L 444.361866 196.613583 
L 446.725109 196.566009 
L 449.088352 196.287363 
L 451.451596 196.484454 
L 453.814839 196.32814 
L 456.178082 196.334937 
L 458.541326 196.103864 
L 460.904569 195.981531 
L 463.267813 195.961143 
L 465.631056 195.872791 
L 467.994299 195.702885 
L 470.357543 195.791236 
L 472.720786 195.614534 
L 475.084029 195.696089 
L 477.447273 195.34948 
L 479.810516 195.539775 
L 482.173759 195.335887 
L 484.537003 195.213555 
" clip-path="url(#pf8d1ca3c85)" style="fill: none; stroke: #800000; stroke-width: 2; stroke-linecap: square"/>
   </g>
   <g id="patch_7">
    <path d="M 335.65267 205.068125 
L 335.65267 49.094062 
" style="fill: none; stroke: #000000; stroke-width: 0.8; stroke-linejoin: miter; stroke-linecap: square"/>
   </g>
   <g id="patch_8">
    <path d="M 335.65267 205.068125 
L 491.626733 205.068125 
" style="fill: none; stroke: #000000; stroke-width: 0.8; stroke-linejoin: miter; stroke-linecap: square"/>
   </g>
   <g id="text_27">
    <!-- vRNA = 1fM -->
    <g transform="translate(380.175639 43.094062)scale(0.1 -0.1)">
     <defs>
      <path id="DejaVuSans-Bold-31" d="M 750 831 
L 1813 831 
L 1813 3847 
L 722 3622 
L 722 4441 
L 1806 4666 
L 2950 4666 
L 2950 831 
L 4013 831 
L 4013 0 
L 750 0 
L 750 831 
z
" transform="scale(0.015625)"/>
     </defs>
     <use xlink:href="#DejaVuSans-Bold-76"/>
     <use xlink:href="#DejaVuSans-Bold-52" x="65.185547"/>
     <use xlink:href="#DejaVuSans-Bold-4e" x="142.1875"/>
     <use xlink:href="#DejaVuSans-Bold-41" x="225.878906"/>
     <use xlink:href="#DejaVuSans-Bold-20" x="303.271484"/>
     <use xlink:href="#DejaVuSans-Bold-3d" x="338.085938"/>
     <use xlink:href="#DejaVuSans-Bold-20" x="421.875"/>
     <use xlink:href="#DejaVuSans-Bold-31" x="456.689453"/>
     <use xlink:href="#DejaVuSans-Bold-66" x="526.269531"/>
     <use xlink:href="#DejaVuSans-Bold-4d" x="569.775391"/>
    </g>
   </g>
   <g id="legend_2">
    <g id="patch_9">
     <path d="M 388.90017 101.128437 
L 484.626733 101.128437 
Q 486.626733 101.128437 486.626733 99.128437 
L 486.626733 56.094062 
Q 486.626733 54.094062 484.626733 54.094062 
L 388.90017 54.094062 
Q 386.90017 54.094062 386.90017 56.094062 
L 386.90017 99.128437 
Q 386.90017 101.128437 388.90017 101.128437 
z
" style="fill: #ffffff; opacity: 0.8; stroke: #cccccc; stroke-linejoin: miter"/>
    </g>
    <g id="line2d_28">
     <path d="M 390.90017 62.1925 
L 400.90017 62.1925 
L 410.90017 62.1925 
" style="fill: none; stroke: #f08080; stroke-width: 2; stroke-linecap: square"/>
    </g>
    <g id="text_28">
     <!-- RNase 0.001 -->
     <g transform="translate(418.90017 65.6925)scale(0.1 -0.1)">
      <use xlink:href="#DejaVuSans-52"/>
      <use xlink:href="#DejaVuSans-4e" x="69.482422"/>
      <use xlink:href="#DejaVuSans-61" x="144.287109"/>
      <use xlink:href="#DejaVuSans-73" x="205.566406"/>
      <use xlink:href="#DejaVuSans-65" x="257.666016"/>
      <use xlink:href="#DejaVuSans-20" x="319.189453"/>
      <use xlink:href="#DejaVuSans-30" x="350.976562"/>
      <use xlink:href="#DejaVuSans-2e" x="414.599609"/>
      <use xlink:href="#DejaVuSans-30" x="446.386719"/>
      <use xlink:href="#DejaVuSans-30" x="510.009766"/>
      <use xlink:href="#DejaVuSans-31" x="573.632812"/>
     </g>
    </g>
    <g id="line2d_29">
     <path d="M 390.90017 76.870625 
L 400.90017 76.870625 
L 410.90017 76.870625 
" style="fill: none; stroke: #ff0000; stroke-width: 2; stroke-linecap: square"/>
    </g>
    <g id="text_29">
     <!-- RNase 0.005 -->
     <g transform="translate(418.90017 80.370625)scale(0.1 -0.1)">
      <use xlink:href="#DejaVuSans-52"/>
      <use xlink:href="#DejaVuSans-4e" x="69.482422"/>
      <use xlink:href="#DejaVuSans-61" x="144.287109"/>
      <use xlink:href="#DejaVuSans-73" x="205.566406"/>
      <use xlink:href="#DejaVuSans-65" x="257.666016"/>
      <use xlink:href="#DejaVuSans-20" x="319.189453"/>
      <use xlink:href="#DejaVuSans-30" x="350.976562"/>
      <use xlink:href="#DejaVuSans-2e" x="414.599609"/>
      <use xlink:href="#DejaVuSans-30" x="446.386719"/>
      <use xlink:href="#DejaVuSans-30" x="510.009766"/>
      <use xlink:href="#DejaVuSans-35" x="573.632812"/>
     </g>
    </g>
    <g id="line2d_30">
     <path d="M 390.90017 91.54875 
L 400.90017 91.54875 
L 410.90017 91.54875 
" style="fill: none; stroke: #800000; stroke-width: 2; stroke-linecap: square"/>
    </g>
    <g id="text_30">
     <!-- RNase 0.02 -->
     <g transform="translate(418.90017 95.04875)scale(0.1 -0.1)">
      <use xlink:href="#DejaVuSans-52"/>
      <use xlink:href="#DejaVuSans-4e" x="69.482422"/>
      <use xlink:href="#DejaVuSans-61" x="144.287109"/>
      <use xlink:href="#DejaVuSans-73" x="205.566406"/>
      <use xlink:href="#DejaVuSans-65" x="257.666016"/>
      <use xlink:href="#DejaVuSans-20" x="319.189453"/>
      <use xlink:href="#DejaVuSans-30" x="350.976562"/>
      <use xlink:href="#DejaVuSans-2e" x="414.599609"/>
      <use xlink:href="#DejaVuSans-30" x="446.386719"/>
      <use xlink:href="#DejaVuSans-32" x="510.009766"/>
     </g>
    </g>
   </g>
  </g>
  <g id="axes_3">
   <g id="patch_10">
    <path d="M 619.588466 205.068125 
L 775.562528 205.068125 
L 775.562528 49.094062 
L 619.588466 49.094062 
z
" style="fill: #ffffff"/>
   </g>
   <g id="PolyCollection_7">
    <defs>
     <path id="m2d661f42b0" d="M 626.678196 -48.668585 
L 626.678196 -48.391018 
L 629.041439 -48.929691 
L 631.404683 -49.176412 
L 633.767926 -49.096353 
L 636.13117 -49.221664 
L 638.494413 -49.242693 
L 640.857656 -49.141221 
L 643.2209 -49.361875 
L 645.584143 -49.61028 
L 647.947386 -49.853374 
L 650.31063 -49.934754 
L 652.673873 -49.711371 
L 655.037116 -49.870241 
L 657.40036 -49.890686 
L 659.763603 -49.912085 
L 662.126847 -49.915638 
L 664.49009 -49.866889 
L 666.853333 -50.320622 
L 669.216577 -50.506707 
L 671.57982 -50.608944 
L 673.943063 -50.40543 
L 676.306307 -50.109732 
L 678.66955 -50.629686 
L 681.032794 -50.830279 
L 683.396037 -50.746687 
L 685.75928 -50.6948 
L 688.122524 -51.023589 
L 690.485767 -50.708191 
L 692.84901 -50.833675 
L 695.212254 -50.852503 
L 697.575497 -50.949656 
L 699.938741 -50.956014 
L 702.301984 -50.893936 
L 704.665227 -51.363313 
L 707.028471 -50.895449 
L 709.391714 -51.074682 
L 711.754957 -51.015578 
L 714.118201 -51.241214 
L 716.481444 -51.236795 
L 718.844687 -51.362751 
L 721.207931 -51.523472 
L 723.571174 -51.240319 
L 725.934418 -51.547297 
L 728.297661 -51.252037 
L 730.660904 -51.587117 
L 733.024148 -51.212313 
L 735.387391 -51.472255 
L 737.750634 -51.588079 
L 740.113878 -51.5673 
L 742.477121 -51.708318 
L 744.840365 -51.54983 
L 747.203608 -51.668071 
L 749.566851 -51.934182 
L 751.930095 -51.770987 
L 754.293338 -51.777505 
L 756.656581 -51.934591 
L 759.019825 -51.84972 
L 761.383068 -51.872787 
L 763.746312 -52.028321 
L 766.109555 -51.914068 
L 768.472798 -52.116654 
L 768.472798 -56.442213 
L 768.472798 -56.442213 
L 766.109555 -56.563243 
L 763.746312 -56.285881 
L 761.383068 -56.35986 
L 759.019825 -56.280983 
L 756.656581 -56.053391 
L 754.293338 -56.006589 
L 751.930095 -56.237383 
L 749.566851 -56.013022 
L 747.203608 -55.912135 
L 744.840365 -55.663378 
L 742.477121 -55.871888 
L 740.113878 -55.543964 
L 737.750634 -55.339686 
L 735.387391 -55.272012 
L 733.024148 -55.001846 
L 730.660904 -55.055206 
L 728.297661 -54.860177 
L 725.934418 -54.850361 
L 723.571174 -54.769952 
L 721.207931 -54.405244 
L 718.844687 -54.545576 
L 716.481444 -54.182202 
L 714.118201 -54.198171 
L 711.754957 -54.03642 
L 709.391714 -54.099649 
L 707.028471 -53.850718 
L 704.665227 -53.729464 
L 702.301984 -53.811454 
L 699.938741 -53.728987 
L 697.575497 -53.572235 
L 695.212254 -53.445112 
L 692.84901 -53.28044 
L 690.485767 -53.140871 
L 688.122524 -52.580807 
L 685.75928 -52.84843 
L 683.396037 -52.796544 
L 681.032794 -52.529452 
L 678.66955 -52.607712 
L 676.306307 -52.373283 
L 673.943063 -52.668859 
L 671.57982 -52.302235 
L 669.216577 -52.057862 
L 666.853333 -51.795394 
L 664.49009 -51.657854 
L 662.126847 -51.996491 
L 659.763603 -51.551491 
L 657.40036 -51.613667 
L 655.037116 -51.369058 
L 652.673873 -51.446374 
L 650.31063 -51.121046 
L 647.947386 -51.161649 
L 645.584143 -50.711525 
L 643.2209 -50.45021 
L 640.857656 -50.426199 
L 638.494413 -50.018896 
L 636.13117 -49.632149 
L 633.767926 -49.492407 
L 631.404683 -49.330793 
L 629.041439 -49.047406 
L 626.678196 -48.668585 
z
" style="stroke: #f08080; stroke-opacity: 0.2"/>
    </defs>
    <g clip-path="url(#p5e1d19a7c0)">
     <use xlink:href="#m2d661f42b0" x="0" y="250.56" style="fill: #f08080; fill-opacity: 0.2; stroke: #f08080; stroke-opacity: 0.2"/>
    </g>
   </g>
   <g id="PolyCollection_8">
    <defs>
     <path id="m16a6362a42" d="M 626.678196 -48.401237 
L 626.678196 -48.155442 
L 629.041439 -48.578621 
L 631.404683 -48.612741 
L 633.767926 -48.864064 
L 636.13117 -49.081149 
L 638.494413 -49.224195 
L 640.857656 -49.504683 
L 643.2209 -49.578441 
L 645.584143 -49.919074 
L 647.947386 -49.894161 
L 650.31063 -49.991588 
L 652.673873 -50.216125 
L 655.037116 -50.511154 
L 657.40036 -50.653442 
L 659.763603 -50.792954 
L 662.126847 -50.928358 
L 664.49009 -50.97051 
L 666.853333 -51.201218 
L 669.216577 -51.045267 
L 671.57982 -51.108998 
L 673.943063 -51.280106 
L 676.306307 -51.291676 
L 678.66955 -51.519589 
L 681.032794 -51.657325 
L 683.396037 -51.658306 
L 685.75928 -51.784686 
L 688.122524 -52.14145 
L 690.485767 -51.90763 
L 692.84901 -52.204885 
L 695.212254 -52.273861 
L 697.575497 -52.286626 
L 699.938741 -52.282719 
L 702.301984 -52.586767 
L 704.665227 -52.620723 
L 707.028471 -52.657554 
L 709.391714 -52.862954 
L 711.754957 -52.948736 
L 714.118201 -53.066753 
L 716.481444 -53.181725 
L 718.844687 -53.219217 
L 721.207931 -53.272083 
L 723.571174 -53.359176 
L 725.934418 -53.609441 
L 728.297661 -53.677238 
L 730.660904 -53.903207 
L 733.024148 -53.83088 
L 735.387391 -53.943087 
L 737.750634 -54.171546 
L 740.113878 -54.247874 
L 742.477121 -54.323509 
L 744.840365 -54.394124 
L 747.203608 -54.514619 
L 749.566851 -54.516818 
L 751.930095 -54.781511 
L 754.293338 -54.754747 
L 756.656581 -54.783209 
L 759.019825 -54.891584 
L 761.383068 -54.883876 
L 763.746312 -55.050839 
L 766.109555 -54.989673 
L 768.472798 -55.217317 
L 768.472798 -55.421204 
L 768.472798 -55.421204 
L 766.109555 -55.363405 
L 763.746312 -55.424571 
L 761.383068 -55.210945 
L 759.019825 -54.985756 
L 756.656581 -54.998983 
L 754.293338 -55.081816 
L 751.930095 -54.946311 
L 749.566851 -54.80323 
L 747.203608 -54.723873 
L 744.840365 -54.558925 
L 742.477121 -54.670318 
L 740.113878 -54.378955 
L 737.750634 -54.387321 
L 735.387391 -54.112857 
L 733.024148 -54.197878 
L 730.660904 -54.057589 
L 728.297661 -54.106856 
L 725.934418 -53.67173 
L 723.571174 -53.813255 
L 721.207931 -53.642089 
L 718.844687 -53.423105 
L 716.481444 -53.487783 
L 714.118201 -53.398867 
L 711.754957 -53.149886 
L 709.391714 -53.140521 
L 707.028471 -53.074071 
L 704.665227 -52.947791 
L 702.301984 -52.818637 
L 699.938741 -52.71491 
L 697.575497 -52.656632 
L 695.212254 -52.479103 
L 692.84901 -52.534486 
L 690.485767 -52.423966 
L 688.122524 -52.203738 
L 685.75928 -51.962431 
L 683.396037 -51.925702 
L 681.032794 -51.80435 
L 678.66955 -51.765384 
L 676.306307 -51.680669 
L 673.943063 -51.515536 
L 671.57982 -51.768199 
L 669.216577 -51.424155 
L 666.853333 -51.295389 
L 664.49009 -51.186284 
L 662.126847 -51.106103 
L 659.763603 -50.956064 
L 657.40036 -50.837318 
L 655.037116 -50.558239 
L 652.673873 -50.4319 
L 650.31063 -50.303032 
L 647.947386 -50.142201 
L 645.584143 -49.981363 
L 643.2209 -49.805481 
L 640.857656 -49.838461 
L 638.494413 -49.616027 
L 636.13117 -49.460037 
L 633.767926 -49.011089 
L 631.404683 -49.044932 
L 629.041439 -48.725647 
L 626.678196 -48.401237 
z
" style="stroke: #ff0000; stroke-opacity: 0.2"/>
    </defs>
    <g clip-path="url(#p5e1d19a7c0)">
     <use xlink:href="#m16a6362a42" x="0" y="250.56" style="fill: #ff0000; fill-opacity: 0.2; stroke: #ff0000; stroke-opacity: 0.2"/>
    </g>
   </g>
   <g id="PolyCollection_9">
    <defs>
     <path id="m4042c081e0" d="M 626.678196 -48.333916 
L 626.678196 -48.141209 
L 629.041439 -48.457714 
L 631.404683 -48.652304 
L 633.767926 -48.984305 
L 636.13117 -49.177754 
L 638.494413 -49.443336 
L 640.857656 -49.561167 
L 643.2209 -49.711579 
L 645.584143 -49.934673 
L 647.947386 -50.120125 
L 650.31063 -50.228508 
L 652.673873 -50.36479 
L 655.037116 -50.531769 
L 657.40036 -50.524533 
L 659.763603 -50.817894 
L 662.126847 -50.707957 
L 664.49009 -51.236512 
L 666.853333 -51.06723 
L 669.216577 -51.122903 
L 671.57982 -51.347189 
L 673.943063 -51.519476 
L 676.306307 -51.401145 
L 678.66955 -51.586552 
L 681.032794 -51.638424 
L 683.396037 -51.782349 
L 685.75928 -51.849184 
L 688.122524 -52.120504 
L 690.485767 -51.9606 
L 692.84901 -52.414827 
L 695.212254 -52.418679 
L 697.575497 -52.449931 
L 699.938741 -52.473851 
L 702.301984 -52.588695 
L 704.665227 -52.542946 
L 707.028471 -52.745417 
L 709.391714 -52.935808 
L 711.754957 -52.930331 
L 714.118201 -53.10022 
L 716.481444 -53.164093 
L 718.844687 -53.241169 
L 721.207931 -53.486464 
L 723.571174 -53.575218 
L 725.934418 -53.799686 
L 728.297661 -53.639823 
L 730.660904 -53.955999 
L 733.024148 -53.976372 
L 735.387391 -54.131619 
L 737.750634 -54.033411 
L 740.113878 -54.245928 
L 742.477121 -54.347207 
L 744.840365 -54.418715 
L 747.203608 -54.628689 
L 749.566851 -54.52955 
L 751.930095 -54.699326 
L 754.293338 -54.717241 
L 756.656581 -54.661853 
L 759.019825 -54.765322 
L 761.383068 -54.813379 
L 763.746312 -54.969225 
L 766.109555 -55.09109 
L 768.472798 -55.370622 
L 768.472798 -56.110634 
L 768.472798 -56.110634 
L 766.109555 -56.186279 
L 763.746312 -56.212996 
L 761.383068 -55.784364 
L 759.019825 -55.560571 
L 756.656581 -55.745595 
L 754.293338 -55.703799 
L 751.930095 -55.64016 
L 749.566851 -55.320606 
L 747.203608 -55.167096 
L 744.840365 -55.254737 
L 742.477121 -55.08158 
L 740.113878 -54.924601 
L 737.750634 -54.919638 
L 735.387391 -54.889393 
L 733.024148 -54.840753 
L 730.660904 -54.61646 
L 728.297661 -54.30738 
L 725.934418 -54.310627 
L 723.571174 -53.964211 
L 721.207931 -54.052964 
L 718.844687 -54.067187 
L 716.481444 -53.899597 
L 714.118201 -53.650843 
L 711.754957 -53.684807 
L 709.391714 -53.84244 
L 707.028471 -53.339613 
L 704.665227 -53.338195 
L 702.301984 -53.25167 
L 699.938741 -53.053886 
L 697.575497 -53.050621 
L 695.212254 -52.90517 
L 692.84901 -52.569209 
L 690.485767 -52.561291 
L 688.122524 -52.482942 
L 685.75928 -52.536782 
L 683.396037 -52.059916 
L 681.032794 -52.108694 
L 678.66955 -52.119788 
L 676.306307 -51.870235 
L 673.943063 -51.724719 
L 671.57982 -51.788266 
L 669.216577 -51.577592 
L 666.853333 -51.483747 
L 664.49009 -51.491168 
L 662.126847 -51.503207 
L 659.763603 -51.067049 
L 657.40036 -50.898265 
L 655.037116 -50.850252 
L 652.673873 -50.487123 
L 650.31063 -50.48748 
L 647.947386 -50.446345 
L 645.584143 -50.196836 
L 643.2209 -50.012155 
L 640.857656 -49.646052 
L 638.494413 -49.505625 
L 636.13117 -49.295469 
L 633.767926 -49.149106 
L 631.404683 -48.923814 
L 629.041439 -48.887332 
L 626.678196 -48.333916 
z
" style="stroke: #800000; stroke-opacity: 0.2"/>
    </defs>
    <g clip-path="url(#p5e1d19a7c0)">
     <use xlink:href="#m4042c081e0" x="0" y="250.56" style="fill: #800000; fill-opacity: 0.2; stroke: #800000; stroke-opacity: 0.2"/>
    </g>
   </g>
   <g id="matplotlib.axis_5">
    <g id="xtick_7">
     <g id="line2d_31">
      <g>
       <use xlink:href="#m496f4bd26c" x="626.678196" y="205.068125" style="stroke: #000000; stroke-width: 0.8"/>
      </g>
     </g>
     <g id="text_31">
      <!-- 0 -->
      <g transform="translate(623.496946 219.666562)scale(0.1 -0.1)">
       <use xlink:href="#DejaVuSans-30"/>
      </g>
     </g>
    </g>
    <g id="xtick_8">
     <g id="line2d_32">
      <g>
       <use xlink:href="#m496f4bd26c" x="685.75928" y="205.068125" style="stroke: #000000; stroke-width: 0.8"/>
      </g>
     </g>
     <g id="text_32">
      <!-- 100 -->
      <g transform="translate(676.21553 219.666562)scale(0.1 -0.1)">
       <use xlink:href="#DejaVuSans-31"/>
       <use xlink:href="#DejaVuSans-30" x="63.623047"/>
       <use xlink:href="#DejaVuSans-30" x="127.246094"/>
      </g>
     </g>
    </g>
    <g id="xtick_9">
     <g id="line2d_33">
      <g>
       <use xlink:href="#m496f4bd26c" x="744.840365" y="205.068125" style="stroke: #000000; stroke-width: 0.8"/>
      </g>
     </g>
     <g id="text_33">
      <!-- 200 -->
      <g transform="translate(735.296615 219.666562)scale(0.1 -0.1)">
       <use xlink:href="#DejaVuSans-32"/>
       <use xlink:href="#DejaVuSans-30" x="63.623047"/>
       <use xlink:href="#DejaVuSans-30" x="127.246094"/>
      </g>
     </g>
    </g>
    <g id="text_34">
     <!-- Time (min) -->
     <g transform="translate(664.992685 240.864375)scale(0.12 -0.12)">
      <use xlink:href="#DejaVuSans-54"/>
      <use xlink:href="#DejaVuSans-69" x="57.958984"/>
      <use xlink:href="#DejaVuSans-6d" x="85.742188"/>
      <use xlink:href="#DejaVuSans-65" x="183.154297"/>
      <use xlink:href="#DejaVuSans-20" x="244.677734"/>
      <use xlink:href="#DejaVuSans-28" x="276.464844"/>
      <use xlink:href="#DejaVuSans-6d" x="315.478516"/>
      <use xlink:href="#DejaVuSans-69" x="412.890625"/>
      <use xlink:href="#DejaVuSans-6e" x="440.673828"/>
      <use xlink:href="#DejaVuSans-29" x="504.052734"/>
     </g>
    </g>
   </g>
   <g id="matplotlib.axis_6">
    <g id="ytick_13">
     <g id="line2d_34">
      <g>
       <use xlink:href="#mbdaca5b1f7" x="619.588466" y="205.068125" style="stroke: #000000; stroke-width: 0.8"/>
      </g>
     </g>
     <g id="text_35">
      <!-- 0.0 -->
      <g transform="translate(596.685341 208.867344)scale(0.1 -0.1)">
       <use xlink:href="#DejaVuSans-30"/>
       <use xlink:href="#DejaVuSans-2e" x="63.623047"/>
       <use xlink:href="#DejaVuSans-30" x="95.410156"/>
      </g>
     </g>
    </g>
    <g id="ytick_14">
     <g id="line2d_35">
      <g>
       <use xlink:href="#mbdaca5b1f7" x="619.588466" y="173.873312" style="stroke: #000000; stroke-width: 0.8"/>
      </g>
     </g>
     <g id="text_36">
      <!-- 0.2 -->
      <g transform="translate(596.685341 177.672531)scale(0.1 -0.1)">
       <use xlink:href="#DejaVuSans-30"/>
       <use xlink:href="#DejaVuSans-2e" x="63.623047"/>
       <use xlink:href="#DejaVuSans-32" x="95.410156"/>
      </g>
     </g>
    </g>
    <g id="ytick_15">
     <g id="line2d_36">
      <g>
       <use xlink:href="#mbdaca5b1f7" x="619.588466" y="142.6785" style="stroke: #000000; stroke-width: 0.8"/>
      </g>
     </g>
     <g id="text_37">
      <!-- 0.4 -->
      <g transform="translate(596.685341 146.477719)scale(0.1 -0.1)">
       <use xlink:href="#DejaVuSans-30"/>
       <use xlink:href="#DejaVuSans-2e" x="63.623047"/>
       <use xlink:href="#DejaVuSans-34" x="95.410156"/>
      </g>
     </g>
    </g>
    <g id="ytick_16">
     <g id="line2d_37">
      <g>
       <use xlink:href="#mbdaca5b1f7" x="619.588466" y="111.483687" style="stroke: #000000; stroke-width: 0.8"/>
      </g>
     </g>
     <g id="text_38">
      <!-- 0.6 -->
      <g transform="translate(596.685341 115.282906)scale(0.1 -0.1)">
       <use xlink:href="#DejaVuSans-30"/>
       <use xlink:href="#DejaVuSans-2e" x="63.623047"/>
       <use xlink:href="#DejaVuSans-36" x="95.410156"/>
      </g>
     </g>
    </g>
    <g id="ytick_17">
     <g id="line2d_38">
      <g>
       <use xlink:href="#mbdaca5b1f7" x="619.588466" y="80.288875" style="stroke: #000000; stroke-width: 0.8"/>
      </g>
     </g>
     <g id="text_39">
      <!-- 0.8 -->
      <g transform="translate(596.685341 84.088094)scale(0.1 -0.1)">
       <use xlink:href="#DejaVuSans-30"/>
       <use xlink:href="#DejaVuSans-2e" x="63.623047"/>
       <use xlink:href="#DejaVuSans-38" x="95.410156"/>
      </g>
     </g>
    </g>
    <g id="ytick_18">
     <g id="line2d_39">
      <g>
       <use xlink:href="#mbdaca5b1f7" x="619.588466" y="49.094062" style="stroke: #000000; stroke-width: 0.8"/>
      </g>
     </g>
     <g id="text_40">
      <!-- 1.0 -->
      <g transform="translate(596.685341 52.893281)scale(0.1 -0.1)">
       <use xlink:href="#DejaVuSans-31"/>
       <use xlink:href="#DejaVuSans-2e" x="63.623047"/>
       <use xlink:href="#DejaVuSans-30" x="95.410156"/>
      </g>
     </g>
    </g>
   </g>
   <g id="line2d_40">
    <path d="M 626.678196 202.030199 
L 629.041439 201.571452 
L 631.404683 201.306398 
L 633.767926 201.26562 
L 636.13117 201.133093 
L 638.494413 200.929205 
L 640.857656 200.77629 
L 643.2209 200.653957 
L 645.584143 200.399098 
L 647.947386 200.052488 
L 650.31063 200.0321 
L 652.673873 199.981128 
L 655.037116 199.94035 
L 657.40036 199.807823 
L 659.763603 199.828212 
L 662.126847 199.603936 
L 664.49009 199.797629 
L 666.853333 199.501992 
L 669.216577 199.277715 
L 671.57982 199.104411 
L 673.943063 199.022856 
L 676.306307 199.318493 
L 678.66955 198.941301 
L 681.032794 198.880134 
L 683.396037 198.788385 
L 685.75928 198.788385 
L 688.122524 198.757802 
L 690.485767 198.635469 
L 692.84901 198.502942 
L 695.212254 198.411193 
L 697.575497 198.299055 
L 699.938741 198.2175 
L 702.301984 198.207305 
L 704.665227 198.013612 
L 707.028471 198.186916 
L 709.391714 197.972834 
L 711.754957 198.034001 
L 714.118201 197.840307 
L 716.481444 197.850502 
L 718.844687 197.605837 
L 721.207931 197.595642 
L 723.571174 197.554865 
L 725.934418 197.361171 
L 728.297661 197.503893 
L 730.660904 197.238839 
L 733.024148 197.452921 
L 735.387391 197.187867 
L 737.750634 197.096117 
L 740.113878 197.004368 
L 742.477121 196.769897 
L 744.840365 196.953396 
L 747.203608 196.769897 
L 749.566851 196.586398 
L 751.930095 196.555815 
L 754.293338 196.667953 
L 756.656581 196.566009 
L 759.019825 196.494649 
L 761.383068 196.443677 
L 763.746312 196.402899 
L 766.109555 196.321344 
L 768.472798 196.280567 
" clip-path="url(#p5e1d19a7c0)" style="fill: none; stroke: #f08080; stroke-width: 2; stroke-linecap: square"/>
   </g>
   <g id="line2d_41">
    <path d="M 626.678196 202.28166 
L 629.041439 201.907866 
L 631.404683 201.731164 
L 633.767926 201.622423 
L 636.13117 201.289407 
L 638.494413 201.139889 
L 640.857656 200.888428 
L 643.2209 200.868039 
L 645.584143 200.609781 
L 647.947386 200.541819 
L 650.31063 200.41269 
L 652.673873 200.235987 
L 655.037116 200.025303 
L 657.40036 199.81462 
L 659.763603 199.685491 
L 662.126847 199.542769 
L 664.49009 199.481603 
L 666.853333 199.311697 
L 669.216577 199.325289 
L 671.57982 199.121401 
L 673.943063 199.162179 
L 676.306307 199.073828 
L 678.66955 198.917514 
L 681.032794 198.829162 
L 683.396037 198.767996 
L 685.75928 198.686441 
L 688.122524 198.387406 
L 690.485767 198.394202 
L 692.84901 198.190314 
L 695.212254 198.183518 
L 697.575497 198.088371 
L 699.938741 198.061186 
L 702.301984 197.857298 
L 704.665227 197.775743 
L 707.028471 197.694188 
L 709.391714 197.558263 
L 711.754957 197.510689 
L 714.118201 197.32719 
L 716.481444 197.225246 
L 718.844687 197.238839 
L 721.207931 197.102914 
L 723.571174 196.973785 
L 725.934418 196.919415 
L 728.297661 196.667953 
L 730.660904 196.579602 
L 733.024148 196.545621 
L 735.387391 196.532028 
L 737.750634 196.280567 
L 740.113878 196.246585 
L 742.477121 196.063087 
L 744.840365 196.083475 
L 747.203608 195.940754 
L 749.566851 195.899976 
L 751.930095 195.696089 
L 754.293338 195.641719 
L 756.656581 195.668904 
L 759.019825 195.62133 
L 761.383068 195.51259 
L 763.746312 195.322295 
L 766.109555 195.383461 
L 768.472798 195.24074 
" clip-path="url(#p5e1d19a7c0)" style="fill: none; stroke: #ff0000; stroke-width: 2; stroke-linecap: square"/>
   </g>
   <g id="line2d_42">
    <path d="M 626.678196 202.322438 
L 629.041439 201.887477 
L 631.404683 201.771941 
L 633.767926 201.493295 
L 636.13117 201.323388 
L 638.494413 201.085519 
L 640.857656 200.95639 
L 643.2209 200.698133 
L 645.584143 200.494245 
L 647.947386 200.276765 
L 650.31063 200.202006 
L 652.673873 200.134044 
L 655.037116 199.86899 
L 657.40036 199.848601 
L 659.763603 199.617528 
L 662.126847 199.454418 
L 664.49009 199.19616 
L 666.853333 199.284512 
L 669.216577 199.209753 
L 671.57982 198.992273 
L 673.943063 198.937903 
L 676.306307 198.92431 
L 678.66955 198.70683 
L 681.032794 198.686441 
L 683.396037 198.638867 
L 685.75928 198.367017 
L 688.122524 198.258277 
L 690.485767 198.299055 
L 692.84901 198.067982 
L 695.212254 197.898076 
L 697.575497 197.809724 
L 699.938741 197.796132 
L 702.301984 197.639818 
L 704.665227 197.619429 
L 707.028471 197.517485 
L 709.391714 197.170876 
L 711.754957 197.252431 
L 714.118201 197.184469 
L 716.481444 197.028155 
L 718.844687 196.905822 
L 721.207931 196.790286 
L 723.571174 196.790286 
L 725.934418 196.504843 
L 728.297661 196.586398 
L 730.660904 196.27377 
L 733.024148 196.151438 
L 735.387391 196.049494 
L 737.750634 196.083475 
L 740.113878 195.974735 
L 742.477121 195.845606 
L 744.840365 195.723274 
L 747.203608 195.662107 
L 749.566851 195.634922 
L 751.930095 195.390257 
L 754.293338 195.34948 
L 756.656581 195.356276 
L 759.019825 195.397053 
L 761.383068 195.261128 
L 763.746312 194.968889 
L 766.109555 194.921316 
L 768.472798 194.819372 
" clip-path="url(#p5e1d19a7c0)" style="fill: none; stroke: #800000; stroke-width: 2; stroke-linecap: square"/>
   </g>
   <g id="patch_11">
    <path d="M 619.588466 205.068125 
L 619.588466 49.094062 
" style="fill: none; stroke: #000000; stroke-width: 0.8; stroke-linejoin: miter; stroke-linecap: square"/>
   </g>
   <g id="patch_12">
    <path d="M 619.588466 205.068125 
L 775.562528 205.068125 
" style="fill: none; stroke: #000000; stroke-width: 0.8; stroke-linejoin: miter; stroke-linecap: square"/>
   </g>
   <g id="text_41">
    <!-- vRNA = 10fM -->
    <g transform="translate(660.632528 43.094062)scale(0.1 -0.1)">
     <use xlink:href="#DejaVuSans-Bold-76"/>
     <use xlink:href="#DejaVuSans-Bold-52" x="65.185547"/>
     <use xlink:href="#DejaVuSans-Bold-4e" x="142.1875"/>
     <use xlink:href="#DejaVuSans-Bold-41" x="225.878906"/>
     <use xlink:href="#DejaVuSans-Bold-20" x="303.271484"/>
     <use xlink:href="#DejaVuSans-Bold-3d" x="338.085938"/>
     <use xlink:href="#DejaVuSans-Bold-20" x="421.875"/>
     <use xlink:href="#DejaVuSans-Bold-31" x="456.689453"/>
     <use xlink:href="#DejaVuSans-Bold-30" x="526.269531"/>
     <use xlink:href="#DejaVuSans-Bold-66" x="595.849609"/>
     <use xlink:href="#DejaVuSans-Bold-4d" x="639.355469"/>
    </g>
   </g>
   <g id="legend_3">
    <g id="patch_13">
     <path d="M 672.835966 101.128437 
L 768.562528 101.128437 
Q 770.562528 101.128437 770.562528 99.128437 
L 770.562528 56.094062 
Q 770.562528 54.094062 768.562528 54.094062 
L 672.835966 54.094062 
Q 670.835966 54.094062 670.835966 56.094062 
L 670.835966 99.128437 
Q 670.835966 101.128437 672.835966 101.128437 
z
" style="fill: #ffffff; opacity: 0.8; stroke: #cccccc; stroke-linejoin: miter"/>
    </g>
    <g id="line2d_43">
     <path d="M 674.835966 62.1925 
L 684.835966 62.1925 
L 694.835966 62.1925 
" style="fill: none; stroke: #f08080; stroke-width: 2; stroke-linecap: square"/>
    </g>
    <g id="text_42">
     <!-- RNase 0.001 -->
     <g transform="translate(702.835966 65.6925)scale(0.1 -0.1)">
      <use xlink:href="#DejaVuSans-52"/>
      <use xlink:href="#DejaVuSans-4e" x="69.482422"/>
      <use xlink:href="#DejaVuSans-61" x="144.287109"/>
      <use xlink:href="#DejaVuSans-73" x="205.566406"/>
      <use xlink:href="#DejaVuSans-65" x="257.666016"/>
      <use xlink:href="#DejaVuSans-20" x="319.189453"/>
      <use xlink:href="#DejaVuSans-30" x="350.976562"/>
      <use xlink:href="#DejaVuSans-2e" x="414.599609"/>
      <use xlink:href="#DejaVuSans-30" x="446.386719"/>
      <use xlink:href="#DejaVuSans-30" x="510.009766"/>
      <use xlink:href="#DejaVuSans-31" x="573.632812"/>
     </g>
    </g>
    <g id="line2d_44">
     <path d="M 674.835966 76.870625 
L 684.835966 76.870625 
L 694.835966 76.870625 
" style="fill: none; stroke: #ff0000; stroke-width: 2; stroke-linecap: square"/>
    </g>
    <g id="text_43">
     <!-- RNase 0.005 -->
     <g transform="translate(702.835966 80.370625)scale(0.1 -0.1)">
      <use xlink:href="#DejaVuSans-52"/>
      <use xlink:href="#DejaVuSans-4e" x="69.482422"/>
      <use xlink:href="#DejaVuSans-61" x="144.287109"/>
      <use xlink:href="#DejaVuSans-73" x="205.566406"/>
      <use xlink:href="#DejaVuSans-65" x="257.666016"/>
      <use xlink:href="#DejaVuSans-20" x="319.189453"/>
      <use xlink:href="#DejaVuSans-30" x="350.976562"/>
      <use xlink:href="#DejaVuSans-2e" x="414.599609"/>
      <use xlink:href="#DejaVuSans-30" x="446.386719"/>
      <use xlink:href="#DejaVuSans-30" x="510.009766"/>
      <use xlink:href="#DejaVuSans-35" x="573.632812"/>
     </g>
    </g>
    <g id="line2d_45">
     <path d="M 674.835966 91.54875 
L 684.835966 91.54875 
L 694.835966 91.54875 
" style="fill: none; stroke: #800000; stroke-width: 2; stroke-linecap: square"/>
    </g>
    <g id="text_44">
     <!-- RNase 0.02 -->
     <g transform="translate(702.835966 95.04875)scale(0.1 -0.1)">
      <use xlink:href="#DejaVuSans-52"/>
      <use xlink:href="#DejaVuSans-4e" x="69.482422"/>
      <use xlink:href="#DejaVuSans-61" x="144.287109"/>
      <use xlink:href="#DejaVuSans-73" x="205.566406"/>
      <use xlink:href="#DejaVuSans-65" x="257.666016"/>
      <use xlink:href="#DejaVuSans-20" x="319.189453"/>
      <use xlink:href="#DejaVuSans-30" x="350.976562"/>
      <use xlink:href="#DejaVuSans-2e" x="414.599609"/>
      <use xlink:href="#DejaVuSans-30" x="446.386719"/>
      <use xlink:href="#DejaVuSans-32" x="510.009766"/>
     </g>
    </g>
   </g>
  </g>
  <g id="text_45">
   <!-- RNase_Sweep_Cas13=4.5 rep1 -->
   <g transform="translate(292.883764 16.10625)scale(0.12 -0.12)">
    <defs>
     <path id="DejaVuSans-Bold-61" d="M 2106 1575 
Q 1756 1575 1579 1456 
Q 1403 1338 1403 1106 
Q 1403 894 1545 773 
Q 1688 653 1941 653 
Q 2256 653 2472 879 
Q 2688 1106 2688 1447 
L 2688 1575 
L 2106 1575 
z
M 3816 1997 
L 3816 0 
L 2688 0 
L 2688 519 
Q 2463 200 2181 54 
Q 1900 -91 1497 -91 
Q 953 -91 614 226 
Q 275 544 275 1050 
Q 275 1666 698 1953 
Q 1122 2241 2028 2241 
L 2688 2241 
L 2688 2328 
Q 2688 2594 2478 2717 
Q 2269 2841 1825 2841 
Q 1466 2841 1156 2769 
Q 847 2697 581 2553 
L 581 3406 
Q 941 3494 1303 3539 
Q 1666 3584 2028 3584 
Q 2975 3584 3395 3211 
Q 3816 2838 3816 1997 
z
" transform="scale(0.015625)"/>
     <path id="DejaVuSans-Bold-73" d="M 3272 3391 
L 3272 2541 
Q 2913 2691 2578 2766 
Q 2244 2841 1947 2841 
Q 1628 2841 1473 2761 
Q 1319 2681 1319 2516 
Q 1319 2381 1436 2309 
Q 1553 2238 1856 2203 
L 2053 2175 
Q 2913 2066 3209 1816 
Q 3506 1566 3506 1031 
Q 3506 472 3093 190 
Q 2681 -91 1863 -91 
Q 1516 -91 1145 -36 
Q 775 19 384 128 
L 384 978 
Q 719 816 1070 734 
Q 1422 653 1784 653 
Q 2113 653 2278 743 
Q 2444 834 2444 1013 
Q 2444 1163 2330 1236 
Q 2216 1309 1875 1350 
L 1678 1375 
Q 931 1469 631 1722 
Q 331 1975 331 2491 
Q 331 3047 712 3315 
Q 1094 3584 1881 3584 
Q 2191 3584 2531 3537 
Q 2872 3491 3272 3391 
z
" transform="scale(0.015625)"/>
     <path id="DejaVuSans-Bold-65" d="M 4031 1759 
L 4031 1441 
L 1416 1441 
Q 1456 1047 1700 850 
Q 1944 653 2381 653 
Q 2734 653 3104 758 
Q 3475 863 3866 1075 
L 3866 213 
Q 3469 63 3072 -14 
Q 2675 -91 2278 -91 
Q 1328 -91 801 392 
Q 275 875 275 1747 
Q 275 2603 792 3093 
Q 1309 3584 2216 3584 
Q 3041 3584 3536 3087 
Q 4031 2591 4031 1759 
z
M 2881 2131 
Q 2881 2450 2695 2645 
Q 2509 2841 2209 2841 
Q 1884 2841 1681 2658 
Q 1478 2475 1428 2131 
L 2881 2131 
z
" transform="scale(0.015625)"/>
     <path id="DejaVuSans-Bold-5f" d="M 3200 -916 
L 3200 -1509 
L 0 -1509 
L 0 -916 
L 3200 -916 
z
" transform="scale(0.015625)"/>
     <path id="DejaVuSans-Bold-53" d="M 3834 4519 
L 3834 3531 
Q 3450 3703 3084 3790 
Q 2719 3878 2394 3878 
Q 1963 3878 1756 3759 
Q 1550 3641 1550 3391 
Q 1550 3203 1689 3098 
Q 1828 2994 2194 2919 
L 2706 2816 
Q 3484 2659 3812 2340 
Q 4141 2022 4141 1434 
Q 4141 663 3683 286 
Q 3225 -91 2284 -91 
Q 1841 -91 1394 -6 
Q 947 78 500 244 
L 500 1259 
Q 947 1022 1364 901 
Q 1781 781 2169 781 
Q 2563 781 2772 912 
Q 2981 1044 2981 1288 
Q 2981 1506 2839 1625 
Q 2697 1744 2272 1838 
L 1806 1941 
Q 1106 2091 782 2419 
Q 459 2747 459 3303 
Q 459 4000 909 4375 
Q 1359 4750 2203 4750 
Q 2588 4750 2994 4692 
Q 3400 4634 3834 4519 
z
" transform="scale(0.015625)"/>
     <path id="DejaVuSans-Bold-77" d="M 225 3500 
L 1313 3500 
L 1900 1088 
L 2491 3500 
L 3425 3500 
L 4013 1113 
L 4603 3500 
L 5691 3500 
L 4769 0 
L 3547 0 
L 2956 2406 
L 2369 0 
L 1147 0 
L 225 3500 
z
" transform="scale(0.015625)"/>
     <path id="DejaVuSans-Bold-70" d="M 1656 506 
L 1656 -1331 
L 538 -1331 
L 538 3500 
L 1656 3500 
L 1656 2988 
Q 1888 3294 2169 3439 
Q 2450 3584 2816 3584 
Q 3463 3584 3878 3070 
Q 4294 2556 4294 1747 
Q 4294 938 3878 423 
Q 3463 -91 2816 -91 
Q 2450 -91 2169 54 
Q 1888 200 1656 506 
z
M 2400 2772 
Q 2041 2772 1848 2508 
Q 1656 2244 1656 1747 
Q 1656 1250 1848 986 
Q 2041 722 2400 722 
Q 2759 722 2948 984 
Q 3138 1247 3138 1747 
Q 3138 2247 2948 2509 
Q 2759 2772 2400 2772 
z
" transform="scale(0.015625)"/>
     <path id="DejaVuSans-Bold-43" d="M 4288 256 
Q 3956 84 3597 -3 
Q 3238 -91 2847 -91 
Q 1681 -91 1000 561 
Q 319 1213 319 2328 
Q 319 3447 1000 4098 
Q 1681 4750 2847 4750 
Q 3238 4750 3597 4662 
Q 3956 4575 4288 4403 
L 4288 3438 
Q 3953 3666 3628 3772 
Q 3303 3878 2944 3878 
Q 2300 3878 1931 3465 
Q 1563 3053 1563 2328 
Q 1563 1606 1931 1193 
Q 2300 781 2944 781 
Q 3303 781 3628 887 
Q 3953 994 4288 1222 
L 4288 256 
z
" transform="scale(0.015625)"/>
     <path id="DejaVuSans-Bold-33" d="M 2981 2516 
Q 3453 2394 3698 2092 
Q 3944 1791 3944 1325 
Q 3944 631 3412 270 
Q 2881 -91 1863 -91 
Q 1503 -91 1142 -33 
Q 781 25 428 141 
L 428 1069 
Q 766 900 1098 814 
Q 1431 728 1753 728 
Q 2231 728 2486 893 
Q 2741 1059 2741 1369 
Q 2741 1688 2480 1852 
Q 2219 2016 1709 2016 
L 1228 2016 
L 1228 2791 
L 1734 2791 
Q 2188 2791 2409 2933 
Q 2631 3075 2631 3366 
Q 2631 3634 2415 3781 
Q 2200 3928 1806 3928 
Q 1516 3928 1219 3862 
Q 922 3797 628 3669 
L 628 4550 
Q 984 4650 1334 4700 
Q 1684 4750 2022 4750 
Q 2931 4750 3382 4451 
Q 3834 4153 3834 3553 
Q 3834 3144 3618 2883 
Q 3403 2622 2981 2516 
z
" transform="scale(0.015625)"/>
     <path id="DejaVuSans-Bold-34" d="M 2356 3675 
L 1038 1722 
L 2356 1722 
L 2356 3675 
z
M 2156 4666 
L 3494 4666 
L 3494 1722 
L 4159 1722 
L 4159 850 
L 3494 850 
L 3494 0 
L 2356 0 
L 2356 850 
L 288 850 
L 288 1881 
L 2156 4666 
z
" transform="scale(0.015625)"/>
     <path id="DejaVuSans-Bold-2e" d="M 653 1209 
L 1778 1209 
L 1778 0 
L 653 0 
L 653 1209 
z
" transform="scale(0.015625)"/>
     <path id="DejaVuSans-Bold-35" d="M 678 4666 
L 3669 4666 
L 3669 3781 
L 1638 3781 
L 1638 3059 
Q 1775 3097 1914 3117 
Q 2053 3138 2203 3138 
Q 3056 3138 3531 2711 
Q 4006 2284 4006 1522 
Q 4006 766 3489 337 
Q 2972 -91 2053 -91 
Q 1656 -91 1267 -14 
Q 878 63 494 219 
L 494 1166 
Q 875 947 1217 837 
Q 1559 728 1863 728 
Q 2300 728 2551 942 
Q 2803 1156 2803 1522 
Q 2803 1891 2551 2103 
Q 2300 2316 1863 2316 
Q 1603 2316 1309 2248 
Q 1016 2181 678 2041 
L 678 4666 
z
" transform="scale(0.015625)"/>
     <path id="DejaVuSans-Bold-72" d="M 3138 2547 
Q 2991 2616 2845 2648 
Q 2700 2681 2553 2681 
Q 2122 2681 1889 2404 
Q 1656 2128 1656 1613 
L 1656 0 
L 538 0 
L 538 3500 
L 1656 3500 
L 1656 2925 
Q 1872 3269 2151 3426 
Q 2431 3584 2822 3584 
Q 2878 3584 2943 3579 
Q 3009 3575 3134 3559 
L 3138 2547 
z
" transform="scale(0.015625)"/>
    </defs>
    <use xlink:href="#DejaVuSans-Bold-52"/>
    <use xlink:href="#DejaVuSans-Bold-4e" x="77.001953"/>
    <use xlink:href="#DejaVuSans-Bold-61" x="160.693359"/>
    <use xlink:href="#DejaVuSans-Bold-73" x="228.173828"/>
    <use xlink:href="#DejaVuSans-Bold-65" x="287.695312"/>
    <use xlink:href="#DejaVuSans-Bold-5f" x="355.517578"/>
    <use xlink:href="#DejaVuSans-Bold-53" x="405.517578"/>
    <use xlink:href="#DejaVuSans-Bold-77" x="477.539062"/>
    <use xlink:href="#DejaVuSans-Bold-65" x="569.921875"/>
    <use xlink:href="#DejaVuSans-Bold-65" x="637.744141"/>
    <use xlink:href="#DejaVuSans-Bold-70" x="705.566406"/>
    <use xlink:href="#DejaVuSans-Bold-5f" x="777.148438"/>
    <use xlink:href="#DejaVuSans-Bold-43" x="827.148438"/>
    <use xlink:href="#DejaVuSans-Bold-61" x="900.537109"/>
    <use xlink:href="#DejaVuSans-Bold-73" x="968.017578"/>
    <use xlink:href="#DejaVuSans-Bold-31" x="1027.539062"/>
    <use xlink:href="#DejaVuSans-Bold-33" x="1097.119141"/>
    <use xlink:href="#DejaVuSans-Bold-3d" x="1166.699219"/>
    <use xlink:href="#DejaVuSans-Bold-34" x="1250.488281"/>
    <use xlink:href="#DejaVuSans-Bold-2e" x="1320.068359"/>
    <use xlink:href="#DejaVuSans-Bold-35" x="1358.056641"/>
    <use xlink:href="#DejaVuSans-Bold-20" x="1427.636719"/>
    <use xlink:href="#DejaVuSans-Bold-72" x="1462.451172"/>
    <use xlink:href="#DejaVuSans-Bold-65" x="1511.767578"/>
    <use xlink:href="#DejaVuSans-Bold-70" x="1579.589844"/>
    <use xlink:href="#DejaVuSans-Bold-31" x="1651.171875"/>
   </g>
  </g>
 </g>
 <defs>
  <clipPath id="p04be4ee293">
   <rect x="51.716875" y="49.094062" width="155.974063" height="155.974063"/>
  </clipPath>
  <clipPath id="pf8d1ca3c85">
   <rect x="335.65267" y="49.094062" width="155.974063" height="155.974063"/>
  </clipPath>
  <clipPath id="p5e1d19a7c0">
   <rect x="619.588466" y="49.094062" width="155.974063" height="155.974063"/>
  </clipPath>
 </defs>
</svg>
