<?xml version="1.0" encoding="utf-8" standalone="no"?>
<!DOCTYPE svg PUBLIC "-//W3C//DTD SVG 1.1//EN"
  "http://www.w3.org/Graphics/SVG/1.1/DTD/svg11.dtd">
<svg xmlns:xlink="http://www.w3.org/1999/xlink" width="782.762528pt" height="250.56pt" viewBox="0 0 782.762528 250.56" xmlns="http://www.w3.org/2000/svg" version="1.1">
 <metadata>
  <rdf:RDF xmlns:dc="http://purl.org/dc/elements/1.1/" xmlns:cc="http://creativecommons.org/ns#" xmlns:rdf="http://www.w3.org/1999/02/22-rdf-syntax-ns#">
   <cc:Work>
    <dc:type rdf:resource="http://purl.org/dc/dcmitype/StillImage"/>
    <dc:date>2022-12-02T20:11:09.890635</dc:date>
    <dc:format>image/svg+xml</dc:format>
    <dc:creator>
     <cc:Agent>
      <dc:title>Matplotlib v3.5.1, https://matplotlib.org/</dc:title>
     </cc:Agent>
    </dc:creator>
   </cc:Work>
  </rdf:RDF>
 </metadata>
 <defs>
  <style type="text/css">*{stroke-linejoin: round; stroke-linecap: butt}</style>
 </defs>
 <g id="figure_1">
  <g id="patch_1">
   <path d="M 0 250.56 
L 782.762528 250.56 
L 782.762528 -0 
L 0 -0 
L 0 250.56 
z
" style="fill: none"/>
  </g>
  <g id="axes_1">
   <g id="patch_2">
    <path d="M 51.716875 205.068125 
L 207.690938 205.068125 
L 207.690938 49.094062 
L 51.716875 49.094062 
z
" style="fill: #ffffff"/>
   </g>
   <g id="PolyCollection_1">
    <defs>
     <path id="m5964097554" d="M 58.806605 -45.491875 
L 58.806605 -45.491875 
L 61.169848 -45.491875 
L 63.533092 -45.491875 
L 65.896335 -45.491875 
L 68.259579 -45.491875 
L 70.622822 -45.491875 
L 72.986065 -45.491875 
L 75.349309 -45.491875 
L 77.712552 -45.491875 
L 80.075795 -45.491875 
L 82.439039 -45.491875 
L 84.802282 -45.491875 
L 87.165526 -45.491875 
L 89.528769 -45.491875 
L 91.892012 -45.491875 
L 94.255256 -45.491875 
L 96.618499 -45.491875 
L 98.981742 -45.491875 
L 101.344986 -45.491875 
L 103.708229 -45.491875 
L 106.071473 -45.491875 
L 108.434716 -45.491875 
L 110.797959 -45.491875 
L 113.161203 -45.491875 
L 115.524446 -45.491875 
L 117.887689 -45.491875 
L 120.250933 -45.491875 
L 122.614176 -45.491875 
L 124.97742 -45.491875 
L 127.340663 -45.491875 
L 129.703906 -45.491875 
L 132.06715 -45.491875 
L 134.430393 -45.491875 
L 136.793636 -45.491875 
L 139.15688 -45.491875 
L 141.520123 -45.491875 
L 143.883366 -45.491875 
L 146.24661 -45.491875 
L 148.609853 -45.491875 
L 150.973097 -45.491875 
L 153.33634 -45.491875 
L 155.699583 -45.491875 
L 158.062827 -45.491875 
L 160.42607 -45.491875 
L 162.789313 -45.491875 
L 165.152557 -45.491875 
L 167.5158 -45.491875 
L 169.879044 -45.491875 
L 172.242287 -45.491875 
L 174.60553 -45.491875 
L 176.968774 -45.491875 
L 179.332017 -45.491875 
L 181.69526 -45.491875 
L 184.058504 -45.491875 
L 186.421747 -45.491875 
L 188.784991 -45.491875 
L 191.148234 -45.491875 
L 193.511477 -45.491875 
L 195.874721 -45.491875 
L 198.237964 -45.491875 
L 200.601207 -45.491875 
L 200.601207 -45.491875 
L 200.601207 -45.491875 
L 198.237964 -45.491875 
L 195.874721 -45.491875 
L 193.511477 -45.491875 
L 191.148234 -45.491875 
L 188.784991 -45.491875 
L 186.421747 -45.491875 
L 184.058504 -45.491875 
L 181.69526 -45.491875 
L 179.332017 -45.491875 
L 176.968774 -45.491875 
L 174.60553 -45.491875 
L 172.242287 -45.491875 
L 169.879044 -45.491875 
L 167.5158 -45.491875 
L 165.152557 -45.491875 
L 162.789313 -45.491875 
L 160.42607 -45.491875 
L 158.062827 -45.491875 
L 155.699583 -45.491875 
L 153.33634 -45.491875 
L 150.973097 -45.491875 
L 148.609853 -45.491875 
L 146.24661 -45.491875 
L 143.883366 -45.491875 
L 141.520123 -45.491875 
L 139.15688 -45.491875 
L 136.793636 -45.491875 
L 134.430393 -45.491875 
L 132.06715 -45.491875 
L 129.703906 -45.491875 
L 127.340663 -45.491875 
L 124.97742 -45.491875 
L 122.614176 -45.491875 
L 120.250933 -45.491875 
L 117.887689 -45.491875 
L 115.524446 -45.491875 
L 113.161203 -45.491875 
L 110.797959 -45.491875 
L 108.434716 -45.491875 
L 106.071473 -45.491875 
L 103.708229 -45.491875 
L 101.344986 -45.491875 
L 98.981742 -45.491875 
L 96.618499 -45.491875 
L 94.255256 -45.491875 
L 91.892012 -45.491875 
L 89.528769 -45.491875 
L 87.165526 -45.491875 
L 84.802282 -45.491875 
L 82.439039 -45.491875 
L 80.075795 -45.491875 
L 77.712552 -45.491875 
L 75.349309 -45.491875 
L 72.986065 -45.491875 
L 70.622822 -45.491875 
L 68.259579 -45.491875 
L 65.896335 -45.491875 
L 63.533092 -45.491875 
L 61.169848 -45.491875 
L 58.806605 -45.491875 
z
" style="stroke: #f08080; stroke-opacity: 0.2"/>
    </defs>
    <g clip-path="url(#p051acd7e5c)">
     <use xlink:href="#m5964097554" x="0" y="250.56" style="fill: #f08080; fill-opacity: 0.2; stroke: #f08080; stroke-opacity: 0.2"/>
    </g>
   </g>
   <g id="PolyCollection_2">
    <defs>
     <path id="m246dbc197c" d="M 58.806605 -48.537162 
L 58.806605 -48.291367 
L 61.169848 -48.566992 
L 63.533092 -48.911244 
L 65.896335 -49.378488 
L 68.259579 -49.650989 
L 70.622822 -50.094761 
L 72.986065 -50.385667 
L 75.349309 -50.657648 
L 77.712552 -51.1424 
L 80.075795 -51.241108 
L 82.439039 -51.758449 
L 84.802282 -51.921263 
L 87.165526 -52.209441 
L 89.528769 -52.495956 
L 91.892012 -52.910528 
L 94.255256 -53.022552 
L 96.618499 -53.103257 
L 98.981742 -53.316857 
L 101.344986 -53.3449 
L 103.708229 -53.516072 
L 106.071473 -53.58318 
L 108.434716 -53.823407 
L 110.797959 -53.969642 
L 113.161203 -53.934846 
L 115.524446 -54.003096 
L 117.887689 -53.921966 
L 120.250933 -54.220289 
L 122.614176 -54.259586 
L 124.97742 -54.509173 
L 127.340663 -54.384717 
L 129.703906 -54.583736 
L 132.06715 -54.831489 
L 134.430393 -54.789152 
L 136.793636 -54.89624 
L 139.15688 -55.221868 
L 141.520123 -54.924487 
L 143.883366 -55.097923 
L 146.24661 -55.376123 
L 148.609853 -55.543673 
L 150.973097 -55.543343 
L 153.33634 -55.577209 
L 155.699583 -55.782826 
L 158.062827 -56.00895 
L 160.42607 -56.215967 
L 162.789313 -56.085882 
L 165.152557 -56.253632 
L 167.5158 -56.434016 
L 169.879044 -56.412225 
L 172.242287 -56.511339 
L 174.60553 -56.80711 
L 176.968774 -56.819543 
L 179.332017 -56.854649 
L 181.69526 -56.722467 
L 184.058504 -56.940542 
L 186.421747 -56.934258 
L 188.784991 -57.354358 
L 191.148234 -57.326988 
L 193.511477 -57.64358 
L 195.874721 -57.400821 
L 198.237964 -57.585731 
L 200.601207 -57.568621 
L 200.601207 -58.262239 
L 200.601207 -58.262239 
L 198.237964 -58.014057 
L 195.874721 -57.859153 
L 193.511477 -57.765912 
L 191.148234 -57.878616 
L 188.784991 -57.688136 
L 186.421747 -57.415018 
L 184.058504 -57.340772 
L 181.69526 -57.300589 
L 179.332017 -57.100444 
L 176.968774 -57.149143 
L 174.60553 -57.243131 
L 172.242287 -56.981609 
L 169.879044 -56.863243 
L 167.5158 -56.705526 
L 165.152557 -56.55969 
L 162.789313 -56.496367 
L 160.42607 -56.447838 
L 158.062827 -56.274265 
L 155.699583 -56.269316 
L 153.33634 -56.02638 
L 150.973097 -56.019469 
L 148.609853 -55.883214 
L 146.24661 -55.670174 
L 143.883366 -55.676523 
L 141.520123 -55.863551 
L 139.15688 -55.471023 
L 136.793636 -55.456838 
L 134.430393 -54.911485 
L 132.06715 -55.304109 
L 129.703906 -55.008162 
L 127.340663 -54.976108 
L 124.97742 -54.579802 
L 122.614176 -54.856574 
L 120.250933 -54.515281 
L 117.887689 -54.392235 
L 115.524446 -54.12081 
L 113.161203 -54.229838 
L 110.797959 -54.031931 
L 108.434716 -54.028649 
L 106.071473 -53.997026 
L 103.708229 -53.941802 
L 101.344986 -54.058604 
L 98.981742 -53.610908 
L 96.618499 -53.430326 
L 94.255256 -53.13044 
L 91.892012 -53.188095 
L 89.528769 -52.773523 
L 87.165526 -52.448375 
L 84.802282 -52.274407 
L 82.439039 -51.866336 
L 80.075795 -51.472979 
L 77.712552 -51.204689 
L 75.349309 -51.104963 
L 72.986065 -50.479839 
L 70.622822 -50.118304 
L 68.259579 -50.127115 
L 65.896335 -49.543288 
L 63.533092 -49.127019 
L 61.169848 -48.750868 
L 58.806605 -48.537162 
z
" style="stroke: #ff0000; stroke-opacity: 0.2"/>
    </defs>
    <g clip-path="url(#p051acd7e5c)">
     <use xlink:href="#m246dbc197c" x="0" y="250.56" style="fill: #ff0000; fill-opacity: 0.2; stroke: #ff0000; stroke-opacity: 0.2"/>
    </g>
   </g>
   <g id="PolyCollection_3">
    <defs>
     <path id="m00cbe31254" d="M 58.806605 -48.564348 
L 58.806605 -48.318552 
L 61.169848 -48.747451 
L 63.533092 -49.056357 
L 65.896335 -49.244 
L 68.259579 -49.651183 
L 70.622822 -50.189334 
L 72.986065 -50.514734 
L 75.349309 -50.613305 
L 77.712552 -51.078567 
L 80.075795 -51.415544 
L 82.439039 -51.534086 
L 84.802282 -51.902971 
L 87.165526 -52.243824 
L 89.528769 -52.522263 
L 91.892012 -52.839873 
L 94.255256 -52.741975 
L 96.618499 -53.010335 
L 98.981742 -53.191633 
L 101.344986 -53.378368 
L 103.708229 -53.331895 
L 106.071473 -53.554656 
L 108.434716 -53.344478 
L 110.797959 -53.655424 
L 113.161203 -53.655892 
L 115.524446 -53.844643 
L 117.887689 -53.907469 
L 120.250933 -53.997234 
L 122.614176 -54.064454 
L 124.97742 -54.261466 
L 127.340663 -54.306134 
L 129.703906 -54.455459 
L 132.06715 -54.563312 
L 134.430393 -54.742555 
L 136.793636 -54.866971 
L 139.15688 -54.777942 
L 141.520123 -54.804574 
L 143.883366 -55.128626 
L 146.24661 -55.243459 
L 148.609853 -55.343762 
L 150.973097 -55.509692 
L 153.33634 -55.532879 
L 155.699583 -55.552979 
L 158.062827 -55.695281 
L 160.42607 -55.849368 
L 162.789313 -55.818522 
L 165.152557 -56.064667 
L 167.5158 -56.254712 
L 169.879044 -56.135041 
L 172.242287 -56.451288 
L 174.60553 -56.409395 
L 176.968774 -56.472171 
L 179.332017 -56.429116 
L 181.69526 -56.554564 
L 184.058504 -56.91455 
L 186.421747 -57.061839 
L 188.784991 -56.987686 
L 191.148234 -57.018648 
L 193.511477 -57.279008 
L 195.874721 -57.443542 
L 198.237964 -57.42973 
L 200.601207 -57.494446 
L 200.601207 -58.336414 
L 200.601207 -58.336414 
L 198.237964 -58.074909 
L 195.874721 -57.775655 
L 193.511477 -57.980966 
L 191.148234 -57.874329 
L 188.784991 -57.619848 
L 186.421747 -57.46414 
L 184.058504 -57.421133 
L 181.69526 -57.414122 
L 179.332017 -57.254127 
L 176.968774 -57.020777 
L 174.60553 -56.879665 
L 172.242287 -56.783402 
L 169.879044 -56.936539 
L 167.5158 -56.409093 
L 165.152557 -56.490397 
L 162.789313 -56.301582 
L 160.42607 -56.134811 
L 158.062827 -55.962678 
L 155.699583 -56.091387 
L 153.33634 -56.206635 
L 150.973097 -55.849232 
L 148.609853 -55.553016 
L 146.24661 -55.598949 
L 143.883366 -55.53708 
L 141.520123 -55.358209 
L 139.15688 -55.085806 
L 136.793636 -54.969592 
L 134.430393 -54.930898 
L 132.06715 -55.096548 
L 129.703906 -54.660701 
L 127.340663 -54.592546 
L 124.97742 -54.392548 
L 122.614176 -54.412857 
L 120.250933 -54.221819 
L 117.887689 -54.461103 
L 115.524446 -54.116153 
L 113.161203 -53.842758 
L 110.797959 -53.802449 
L 108.434716 -53.909508 
L 106.071473 -53.685737 
L 103.708229 -53.609462 
L 101.344986 -53.440657 
L 98.981742 -53.423504 
L 96.618499 -53.26499 
L 94.255256 -53.111981 
L 91.892012 -52.986899 
L 89.528769 -52.624884 
L 87.165526 -52.509139 
L 84.802282 -52.170367 
L 82.439039 -52.077107 
L 80.075795 -51.556801 
L 77.712552 -51.350077 
L 75.349309 -50.945419 
L 72.986065 -50.622621 
L 70.622822 -50.336359 
L 68.259579 -49.895849 
L 65.896335 -49.555444 
L 63.533092 -49.280942 
L 61.169848 -49.018962 
L 58.806605 -48.564348 
z
" style="stroke: #800000; stroke-opacity: 0.2"/>
    </defs>
    <g clip-path="url(#p051acd7e5c)">
     <use xlink:href="#m00cbe31254" x="0" y="250.56" style="fill: #800000; fill-opacity: 0.2; stroke: #800000; stroke-opacity: 0.2"/>
    </g>
   </g>
   <g id="matplotlib.axis_1">
    <g id="xtick_1">
     <g id="line2d_1">
      <defs>
       <path id="ma415247ad6" d="M 0 0 
L 0 3.5 
" style="stroke: #000000; stroke-width: 0.8"/>
      </defs>
      <g>
       <use xlink:href="#ma415247ad6" x="58.806605" y="205.068125" style="stroke: #000000; stroke-width: 0.8"/>
      </g>
     </g>
     <g id="text_1">
      <!-- 0 -->
      <g transform="translate(55.625355 219.666562)scale(0.1 -0.1)">
       <defs>
        <path id="DejaVuSans-30" d="M 2034 4250 
Q 1547 4250 1301 3770 
Q 1056 3291 1056 2328 
Q 1056 1369 1301 889 
Q 1547 409 2034 409 
Q 2525 409 2770 889 
Q 3016 1369 3016 2328 
Q 3016 3291 2770 3770 
Q 2525 4250 2034 4250 
z
M 2034 4750 
Q 2819 4750 3233 4129 
Q 3647 3509 3647 2328 
Q 3647 1150 3233 529 
Q 2819 -91 2034 -91 
Q 1250 -91 836 529 
Q 422 1150 422 2328 
Q 422 3509 836 4129 
Q 1250 4750 2034 4750 
z
" transform="scale(0.015625)"/>
       </defs>
       <use xlink:href="#DejaVuSans-30"/>
      </g>
     </g>
    </g>
    <g id="xtick_2">
     <g id="line2d_2">
      <g>
       <use xlink:href="#ma415247ad6" x="117.887689" y="205.068125" style="stroke: #000000; stroke-width: 0.8"/>
      </g>
     </g>
     <g id="text_2">
      <!-- 100 -->
      <g transform="translate(108.343939 219.666562)scale(0.1 -0.1)">
       <defs>
        <path id="DejaVuSans-31" d="M 794 531 
L 1825 531 
L 1825 4091 
L 703 3866 
L 703 4441 
L 1819 4666 
L 2450 4666 
L 2450 531 
L 3481 531 
L 3481 0 
L 794 0 
L 794 531 
z
" transform="scale(0.015625)"/>
       </defs>
       <use xlink:href="#DejaVuSans-31"/>
       <use xlink:href="#DejaVuSans-30" x="63.623047"/>
       <use xlink:href="#DejaVuSans-30" x="127.246094"/>
      </g>
     </g>
    </g>
    <g id="xtick_3">
     <g id="line2d_3">
      <g>
       <use xlink:href="#ma415247ad6" x="176.968774" y="205.068125" style="stroke: #000000; stroke-width: 0.8"/>
      </g>
     </g>
     <g id="text_3">
      <!-- 200 -->
      <g transform="translate(167.425024 219.666562)scale(0.1 -0.1)">
       <defs>
        <path id="DejaVuSans-32" d="M 1228 531 
L 3431 531 
L 3431 0 
L 469 0 
L 469 531 
Q 828 903 1448 1529 
Q 2069 2156 2228 2338 
Q 2531 2678 2651 2914 
Q 2772 3150 2772 3378 
Q 2772 3750 2511 3984 
Q 2250 4219 1831 4219 
Q 1534 4219 1204 4116 
Q 875 4013 500 3803 
L 500 4441 
Q 881 4594 1212 4672 
Q 1544 4750 1819 4750 
Q 2544 4750 2975 4387 
Q 3406 4025 3406 3419 
Q 3406 3131 3298 2873 
Q 3191 2616 2906 2266 
Q 2828 2175 2409 1742 
Q 1991 1309 1228 531 
z
" transform="scale(0.015625)"/>
       </defs>
       <use xlink:href="#DejaVuSans-32"/>
       <use xlink:href="#DejaVuSans-30" x="63.623047"/>
       <use xlink:href="#DejaVuSans-30" x="127.246094"/>
      </g>
     </g>
    </g>
    <g id="text_4">
     <!-- Time (min) -->
     <g transform="translate(97.121094 240.864375)scale(0.12 -0.12)">
      <defs>
       <path id="DejaVuSans-54" d="M -19 4666 
L 3928 4666 
L 3928 4134 
L 2272 4134 
L 2272 0 
L 1638 0 
L 1638 4134 
L -19 4134 
L -19 4666 
z
" transform="scale(0.015625)"/>
       <path id="DejaVuSans-69" d="M 603 3500 
L 1178 3500 
L 1178 0 
L 603 0 
L 603 3500 
z
M 603 4863 
L 1178 4863 
L 1178 4134 
L 603 4134 
L 603 4863 
z
" transform="scale(0.015625)"/>
       <path id="DejaVuSans-6d" d="M 3328 2828 
Q 3544 3216 3844 3400 
Q 4144 3584 4550 3584 
Q 5097 3584 5394 3201 
Q 5691 2819 5691 2113 
L 5691 0 
L 5113 0 
L 5113 2094 
Q 5113 2597 4934 2840 
Q 4756 3084 4391 3084 
Q 3944 3084 3684 2787 
Q 3425 2491 3425 1978 
L 3425 0 
L 2847 0 
L 2847 2094 
Q 2847 2600 2669 2842 
Q 2491 3084 2119 3084 
Q 1678 3084 1418 2786 
Q 1159 2488 1159 1978 
L 1159 0 
L 581 0 
L 581 3500 
L 1159 3500 
L 1159 2956 
Q 1356 3278 1631 3431 
Q 1906 3584 2284 3584 
Q 2666 3584 2933 3390 
Q 3200 3197 3328 2828 
z
" transform="scale(0.015625)"/>
       <path id="DejaVuSans-65" d="M 3597 1894 
L 3597 1613 
L 953 1613 
Q 991 1019 1311 708 
Q 1631 397 2203 397 
Q 2534 397 2845 478 
Q 3156 559 3463 722 
L 3463 178 
Q 3153 47 2828 -22 
Q 2503 -91 2169 -91 
Q 1331 -91 842 396 
Q 353 884 353 1716 
Q 353 2575 817 3079 
Q 1281 3584 2069 3584 
Q 2775 3584 3186 3129 
Q 3597 2675 3597 1894 
z
M 3022 2063 
Q 3016 2534 2758 2815 
Q 2500 3097 2075 3097 
Q 1594 3097 1305 2825 
Q 1016 2553 972 2059 
L 3022 2063 
z
" transform="scale(0.015625)"/>
       <path id="DejaVuSans-20" transform="scale(0.015625)"/>
       <path id="DejaVuSans-28" d="M 1984 4856 
Q 1566 4138 1362 3434 
Q 1159 2731 1159 2009 
Q 1159 1288 1364 580 
Q 1569 -128 1984 -844 
L 1484 -844 
Q 1016 -109 783 600 
Q 550 1309 550 2009 
Q 550 2706 781 3412 
Q 1013 4119 1484 4856 
L 1984 4856 
z
" transform="scale(0.015625)"/>
       <path id="DejaVuSans-6e" d="M 3513 2113 
L 3513 0 
L 2938 0 
L 2938 2094 
Q 2938 2591 2744 2837 
Q 2550 3084 2163 3084 
Q 1697 3084 1428 2787 
Q 1159 2491 1159 1978 
L 1159 0 
L 581 0 
L 581 3500 
L 1159 3500 
L 1159 2956 
Q 1366 3272 1645 3428 
Q 1925 3584 2291 3584 
Q 2894 3584 3203 3211 
Q 3513 2838 3513 2113 
z
" transform="scale(0.015625)"/>
       <path id="DejaVuSans-29" d="M 513 4856 
L 1013 4856 
Q 1481 4119 1714 3412 
Q 1947 2706 1947 2009 
Q 1947 1309 1714 600 
Q 1481 -109 1013 -844 
L 513 -844 
Q 928 -128 1133 580 
Q 1338 1288 1338 2009 
Q 1338 2731 1133 3434 
Q 928 4138 513 4856 
z
" transform="scale(0.015625)"/>
      </defs>
      <use xlink:href="#DejaVuSans-54"/>
      <use xlink:href="#DejaVuSans-69" x="57.958984"/>
      <use xlink:href="#DejaVuSans-6d" x="85.742188"/>
      <use xlink:href="#DejaVuSans-65" x="183.154297"/>
      <use xlink:href="#DejaVuSans-20" x="244.677734"/>
      <use xlink:href="#DejaVuSans-28" x="276.464844"/>
      <use xlink:href="#DejaVuSans-6d" x="315.478516"/>
      <use xlink:href="#DejaVuSans-69" x="412.890625"/>
      <use xlink:href="#DejaVuSans-6e" x="440.673828"/>
      <use xlink:href="#DejaVuSans-29" x="504.052734"/>
     </g>
    </g>
   </g>
   <g id="matplotlib.axis_2">
    <g id="ytick_1">
     <g id="line2d_4">
      <defs>
       <path id="me63e444bea" d="M 0 0 
L -3.5 0 
" style="stroke: #000000; stroke-width: 0.8"/>
      </defs>
      <g>
       <use xlink:href="#me63e444bea" x="51.716875" y="205.068125" style="stroke: #000000; stroke-width: 0.8"/>
      </g>
     </g>
     <g id="text_5">
      <!-- 0.0 -->
      <g transform="translate(28.81375 208.867344)scale(0.1 -0.1)">
       <defs>
        <path id="DejaVuSans-2e" d="M 684 794 
L 1344 794 
L 1344 0 
L 684 0 
L 684 794 
z
" transform="scale(0.015625)"/>
       </defs>
       <use xlink:href="#DejaVuSans-30"/>
       <use xlink:href="#DejaVuSans-2e" x="63.623047"/>
       <use xlink:href="#DejaVuSans-30" x="95.410156"/>
      </g>
     </g>
    </g>
    <g id="ytick_2">
     <g id="line2d_5">
      <g>
       <use xlink:href="#me63e444bea" x="51.716875" y="173.873312" style="stroke: #000000; stroke-width: 0.8"/>
      </g>
     </g>
     <g id="text_6">
      <!-- 0.2 -->
      <g transform="translate(28.81375 177.672531)scale(0.1 -0.1)">
       <use xlink:href="#DejaVuSans-30"/>
       <use xlink:href="#DejaVuSans-2e" x="63.623047"/>
       <use xlink:href="#DejaVuSans-32" x="95.410156"/>
      </g>
     </g>
    </g>
    <g id="ytick_3">
     <g id="line2d_6">
      <g>
       <use xlink:href="#me63e444bea" x="51.716875" y="142.6785" style="stroke: #000000; stroke-width: 0.8"/>
      </g>
     </g>
     <g id="text_7">
      <!-- 0.4 -->
      <g transform="translate(28.81375 146.477719)scale(0.1 -0.1)">
       <defs>
        <path id="DejaVuSans-34" d="M 2419 4116 
L 825 1625 
L 2419 1625 
L 2419 4116 
z
M 2253 4666 
L 3047 4666 
L 3047 1625 
L 3713 1625 
L 3713 1100 
L 3047 1100 
L 3047 0 
L 2419 0 
L 2419 1100 
L 313 1100 
L 313 1709 
L 2253 4666 
z
" transform="scale(0.015625)"/>
       </defs>
       <use xlink:href="#DejaVuSans-30"/>
       <use xlink:href="#DejaVuSans-2e" x="63.623047"/>
       <use xlink:href="#DejaVuSans-34" x="95.410156"/>
      </g>
     </g>
    </g>
    <g id="ytick_4">
     <g id="line2d_7">
      <g>
       <use xlink:href="#me63e444bea" x="51.716875" y="111.483687" style="stroke: #000000; stroke-width: 0.8"/>
      </g>
     </g>
     <g id="text_8">
      <!-- 0.6 -->
      <g transform="translate(28.81375 115.282906)scale(0.1 -0.1)">
       <defs>
        <path id="DejaVuSans-36" d="M 2113 2584 
Q 1688 2584 1439 2293 
Q 1191 2003 1191 1497 
Q 1191 994 1439 701 
Q 1688 409 2113 409 
Q 2538 409 2786 701 
Q 3034 994 3034 1497 
Q 3034 2003 2786 2293 
Q 2538 2584 2113 2584 
z
M 3366 4563 
L 3366 3988 
Q 3128 4100 2886 4159 
Q 2644 4219 2406 4219 
Q 1781 4219 1451 3797 
Q 1122 3375 1075 2522 
Q 1259 2794 1537 2939 
Q 1816 3084 2150 3084 
Q 2853 3084 3261 2657 
Q 3669 2231 3669 1497 
Q 3669 778 3244 343 
Q 2819 -91 2113 -91 
Q 1303 -91 875 529 
Q 447 1150 447 2328 
Q 447 3434 972 4092 
Q 1497 4750 2381 4750 
Q 2619 4750 2861 4703 
Q 3103 4656 3366 4563 
z
" transform="scale(0.015625)"/>
       </defs>
       <use xlink:href="#DejaVuSans-30"/>
       <use xlink:href="#DejaVuSans-2e" x="63.623047"/>
       <use xlink:href="#DejaVuSans-36" x="95.410156"/>
      </g>
     </g>
    </g>
    <g id="ytick_5">
     <g id="line2d_8">
      <g>
       <use xlink:href="#me63e444bea" x="51.716875" y="80.288875" style="stroke: #000000; stroke-width: 0.8"/>
      </g>
     </g>
     <g id="text_9">
      <!-- 0.8 -->
      <g transform="translate(28.81375 84.088094)scale(0.1 -0.1)">
       <defs>
        <path id="DejaVuSans-38" d="M 2034 2216 
Q 1584 2216 1326 1975 
Q 1069 1734 1069 1313 
Q 1069 891 1326 650 
Q 1584 409 2034 409 
Q 2484 409 2743 651 
Q 3003 894 3003 1313 
Q 3003 1734 2745 1975 
Q 2488 2216 2034 2216 
z
M 1403 2484 
Q 997 2584 770 2862 
Q 544 3141 544 3541 
Q 544 4100 942 4425 
Q 1341 4750 2034 4750 
Q 2731 4750 3128 4425 
Q 3525 4100 3525 3541 
Q 3525 3141 3298 2862 
Q 3072 2584 2669 2484 
Q 3125 2378 3379 2068 
Q 3634 1759 3634 1313 
Q 3634 634 3220 271 
Q 2806 -91 2034 -91 
Q 1263 -91 848 271 
Q 434 634 434 1313 
Q 434 1759 690 2068 
Q 947 2378 1403 2484 
z
M 1172 3481 
Q 1172 3119 1398 2916 
Q 1625 2713 2034 2713 
Q 2441 2713 2670 2916 
Q 2900 3119 2900 3481 
Q 2900 3844 2670 4047 
Q 2441 4250 2034 4250 
Q 1625 4250 1398 4047 
Q 1172 3844 1172 3481 
z
" transform="scale(0.015625)"/>
       </defs>
       <use xlink:href="#DejaVuSans-30"/>
       <use xlink:href="#DejaVuSans-2e" x="63.623047"/>
       <use xlink:href="#DejaVuSans-38" x="95.410156"/>
      </g>
     </g>
    </g>
    <g id="ytick_6">
     <g id="line2d_9">
      <g>
       <use xlink:href="#me63e444bea" x="51.716875" y="49.094062" style="stroke: #000000; stroke-width: 0.8"/>
      </g>
     </g>
     <g id="text_10">
      <!-- 1.0 -->
      <g transform="translate(28.81375 52.893281)scale(0.1 -0.1)">
       <use xlink:href="#DejaVuSans-31"/>
       <use xlink:href="#DejaVuSans-2e" x="63.623047"/>
       <use xlink:href="#DejaVuSans-30" x="95.410156"/>
      </g>
     </g>
    </g>
    <g id="text_11">
     <!-- Normalized exp output -->
     <g transform="translate(16.318125 195.658281)rotate(-90)scale(0.12 -0.12)">
      <defs>
       <path id="DejaVuSans-4e" d="M 628 4666 
L 1478 4666 
L 3547 763 
L 3547 4666 
L 4159 4666 
L 4159 0 
L 3309 0 
L 1241 3903 
L 1241 0 
L 628 0 
L 628 4666 
z
" transform="scale(0.015625)"/>
       <path id="DejaVuSans-6f" d="M 1959 3097 
Q 1497 3097 1228 2736 
Q 959 2375 959 1747 
Q 959 1119 1226 758 
Q 1494 397 1959 397 
Q 2419 397 2687 759 
Q 2956 1122 2956 1747 
Q 2956 2369 2687 2733 
Q 2419 3097 1959 3097 
z
M 1959 3584 
Q 2709 3584 3137 3096 
Q 3566 2609 3566 1747 
Q 3566 888 3137 398 
Q 2709 -91 1959 -91 
Q 1206 -91 779 398 
Q 353 888 353 1747 
Q 353 2609 779 3096 
Q 1206 3584 1959 3584 
z
" transform="scale(0.015625)"/>
       <path id="DejaVuSans-72" d="M 2631 2963 
Q 2534 3019 2420 3045 
Q 2306 3072 2169 3072 
Q 1681 3072 1420 2755 
Q 1159 2438 1159 1844 
L 1159 0 
L 581 0 
L 581 3500 
L 1159 3500 
L 1159 2956 
Q 1341 3275 1631 3429 
Q 1922 3584 2338 3584 
Q 2397 3584 2469 3576 
Q 2541 3569 2628 3553 
L 2631 2963 
z
" transform="scale(0.015625)"/>
       <path id="DejaVuSans-61" d="M 2194 1759 
Q 1497 1759 1228 1600 
Q 959 1441 959 1056 
Q 959 750 1161 570 
Q 1363 391 1709 391 
Q 2188 391 2477 730 
Q 2766 1069 2766 1631 
L 2766 1759 
L 2194 1759 
z
M 3341 1997 
L 3341 0 
L 2766 0 
L 2766 531 
Q 2569 213 2275 61 
Q 1981 -91 1556 -91 
Q 1019 -91 701 211 
Q 384 513 384 1019 
Q 384 1609 779 1909 
Q 1175 2209 1959 2209 
L 2766 2209 
L 2766 2266 
Q 2766 2663 2505 2880 
Q 2244 3097 1772 3097 
Q 1472 3097 1187 3025 
Q 903 2953 641 2809 
L 641 3341 
Q 956 3463 1253 3523 
Q 1550 3584 1831 3584 
Q 2591 3584 2966 3190 
Q 3341 2797 3341 1997 
z
" transform="scale(0.015625)"/>
       <path id="DejaVuSans-6c" d="M 603 4863 
L 1178 4863 
L 1178 0 
L 603 0 
L 603 4863 
z
" transform="scale(0.015625)"/>
       <path id="DejaVuSans-7a" d="M 353 3500 
L 3084 3500 
L 3084 2975 
L 922 459 
L 3084 459 
L 3084 0 
L 275 0 
L 275 525 
L 2438 3041 
L 353 3041 
L 353 3500 
z
" transform="scale(0.015625)"/>
       <path id="DejaVuSans-64" d="M 2906 2969 
L 2906 4863 
L 3481 4863 
L 3481 0 
L 2906 0 
L 2906 525 
Q 2725 213 2448 61 
Q 2172 -91 1784 -91 
Q 1150 -91 751 415 
Q 353 922 353 1747 
Q 353 2572 751 3078 
Q 1150 3584 1784 3584 
Q 2172 3584 2448 3432 
Q 2725 3281 2906 2969 
z
M 947 1747 
Q 947 1113 1208 752 
Q 1469 391 1925 391 
Q 2381 391 2643 752 
Q 2906 1113 2906 1747 
Q 2906 2381 2643 2742 
Q 2381 3103 1925 3103 
Q 1469 3103 1208 2742 
Q 947 2381 947 1747 
z
" transform="scale(0.015625)"/>
       <path id="DejaVuSans-78" d="M 3513 3500 
L 2247 1797 
L 3578 0 
L 2900 0 
L 1881 1375 
L 863 0 
L 184 0 
L 1544 1831 
L 300 3500 
L 978 3500 
L 1906 2253 
L 2834 3500 
L 3513 3500 
z
" transform="scale(0.015625)"/>
       <path id="DejaVuSans-70" d="M 1159 525 
L 1159 -1331 
L 581 -1331 
L 581 3500 
L 1159 3500 
L 1159 2969 
Q 1341 3281 1617 3432 
Q 1894 3584 2278 3584 
Q 2916 3584 3314 3078 
Q 3713 2572 3713 1747 
Q 3713 922 3314 415 
Q 2916 -91 2278 -91 
Q 1894 -91 1617 61 
Q 1341 213 1159 525 
z
M 3116 1747 
Q 3116 2381 2855 2742 
Q 2594 3103 2138 3103 
Q 1681 3103 1420 2742 
Q 1159 2381 1159 1747 
Q 1159 1113 1420 752 
Q 1681 391 2138 391 
Q 2594 391 2855 752 
Q 3116 1113 3116 1747 
z
" transform="scale(0.015625)"/>
       <path id="DejaVuSans-75" d="M 544 1381 
L 544 3500 
L 1119 3500 
L 1119 1403 
Q 1119 906 1312 657 
Q 1506 409 1894 409 
Q 2359 409 2629 706 
Q 2900 1003 2900 1516 
L 2900 3500 
L 3475 3500 
L 3475 0 
L 2900 0 
L 2900 538 
Q 2691 219 2414 64 
Q 2138 -91 1772 -91 
Q 1169 -91 856 284 
Q 544 659 544 1381 
z
M 1991 3584 
L 1991 3584 
z
" transform="scale(0.015625)"/>
       <path id="DejaVuSans-74" d="M 1172 4494 
L 1172 3500 
L 2356 3500 
L 2356 3053 
L 1172 3053 
L 1172 1153 
Q 1172 725 1289 603 
Q 1406 481 1766 481 
L 2356 481 
L 2356 0 
L 1766 0 
Q 1100 0 847 248 
Q 594 497 594 1153 
L 594 3053 
L 172 3053 
L 172 3500 
L 594 3500 
L 594 4494 
L 1172 4494 
z
" transform="scale(0.015625)"/>
      </defs>
      <use xlink:href="#DejaVuSans-4e"/>
      <use xlink:href="#DejaVuSans-6f" x="74.804688"/>
      <use xlink:href="#DejaVuSans-72" x="135.986328"/>
      <use xlink:href="#DejaVuSans-6d" x="175.349609"/>
      <use xlink:href="#DejaVuSans-61" x="272.761719"/>
      <use xlink:href="#DejaVuSans-6c" x="334.041016"/>
      <use xlink:href="#DejaVuSans-69" x="361.824219"/>
      <use xlink:href="#DejaVuSans-7a" x="389.607422"/>
      <use xlink:href="#DejaVuSans-65" x="442.097656"/>
      <use xlink:href="#DejaVuSans-64" x="503.621094"/>
      <use xlink:href="#DejaVuSans-20" x="567.097656"/>
      <use xlink:href="#DejaVuSans-65" x="598.884766"/>
      <use xlink:href="#DejaVuSans-78" x="658.658203"/>
      <use xlink:href="#DejaVuSans-70" x="717.837891"/>
      <use xlink:href="#DejaVuSans-20" x="781.314453"/>
      <use xlink:href="#DejaVuSans-6f" x="813.101562"/>
      <use xlink:href="#DejaVuSans-75" x="874.283203"/>
      <use xlink:href="#DejaVuSans-74" x="937.662109"/>
      <use xlink:href="#DejaVuSans-70" x="976.871094"/>
      <use xlink:href="#DejaVuSans-75" x="1040.347656"/>
      <use xlink:href="#DejaVuSans-74" x="1103.726562"/>
     </g>
    </g>
   </g>
   <g id="line2d_10">
    <path d="M 58.806605 205.068125 
L 61.169848 205.068125 
L 63.533092 205.068125 
L 65.896335 205.068125 
L 68.259579 205.068125 
L 70.622822 205.068125 
L 72.986065 205.068125 
L 75.349309 205.068125 
L 77.712552 205.068125 
L 80.075795 205.068125 
L 82.439039 205.068125 
L 84.802282 205.068125 
L 87.165526 205.068125 
L 89.528769 205.068125 
L 91.892012 205.068125 
L 94.255256 205.068125 
L 96.618499 205.068125 
L 98.981742 205.068125 
L 101.344986 205.068125 
L 103.708229 205.068125 
L 106.071473 205.068125 
L 108.434716 205.068125 
L 110.797959 205.068125 
L 113.161203 205.068125 
L 115.524446 205.068125 
L 117.887689 205.068125 
L 120.250933 205.068125 
L 122.614176 205.068125 
L 124.97742 205.068125 
L 127.340663 205.068125 
L 129.703906 205.068125 
L 132.06715 205.068125 
L 134.430393 205.068125 
L 136.793636 205.068125 
L 139.15688 205.068125 
L 141.520123 205.068125 
L 143.883366 205.068125 
L 146.24661 205.068125 
L 148.609853 205.068125 
L 150.973097 205.068125 
L 153.33634 205.068125 
L 155.699583 205.068125 
L 158.062827 205.068125 
L 160.42607 205.068125 
L 162.789313 205.068125 
L 165.152557 205.068125 
L 167.5158 205.068125 
L 169.879044 205.068125 
L 172.242287 205.068125 
L 174.60553 205.068125 
L 176.968774 205.068125 
L 179.332017 205.068125 
L 181.69526 205.068125 
L 184.058504 205.068125 
L 186.421747 205.068125 
L 188.784991 205.068125 
L 191.148234 205.068125 
L 193.511477 205.068125 
L 195.874721 205.068125 
L 198.237964 205.068125 
L 200.601207 205.068125 
" clip-path="url(#p051acd7e5c)" style="fill: none; stroke: #f08080; stroke-width: 2; stroke-linecap: square"/>
   </g>
   <g id="line2d_11">
    <path d="M 58.806605 202.145735 
L 61.169848 201.90107 
L 63.533092 201.540868 
L 65.896335 201.099112 
L 68.259579 200.670948 
L 70.622822 200.453468 
L 72.986065 200.127247 
L 75.349309 199.678694 
L 77.712552 199.386455 
L 80.075795 199.202957 
L 82.439039 198.747607 
L 84.802282 198.462165 
L 87.165526 198.231092 
L 89.528769 197.925261 
L 91.892012 197.510689 
L 94.255256 197.483504 
L 96.618499 197.293209 
L 98.981742 197.096117 
L 101.344986 196.858248 
L 103.708229 196.831063 
L 106.071473 196.769897 
L 108.434716 196.633972 
L 110.797959 196.559213 
L 113.161203 196.477658 
L 115.524446 196.498047 
L 117.887689 196.402899 
L 120.250933 196.192215 
L 122.614176 196.00192 
L 124.97742 196.015513 
L 127.340663 195.879588 
L 129.703906 195.764051 
L 132.06715 195.492201 
L 134.430393 195.709681 
L 136.793636 195.383461 
L 139.15688 195.213555 
L 141.520123 195.165981 
L 143.883366 195.172777 
L 146.24661 195.036852 
L 148.609853 194.846557 
L 150.973097 194.778594 
L 153.33634 194.758205 
L 155.699583 194.533929 
L 158.062827 194.418393 
L 160.42607 194.228098 
L 162.789313 194.268875 
L 165.152557 194.153339 
L 167.5158 193.990229 
L 169.879044 193.922266 
L 172.242287 193.813526 
L 174.60553 193.53488 
L 176.968774 193.575657 
L 179.332017 193.582453 
L 181.69526 193.548472 
L 184.058504 193.419343 
L 186.421747 193.385362 
L 188.784991 193.038753 
L 191.148234 192.957198 
L 193.511477 192.855254 
L 195.874721 192.930013 
L 198.237964 192.760106 
L 200.601207 192.64457 
" clip-path="url(#p051acd7e5c)" style="fill: none; stroke: #ff0000; stroke-width: 2; stroke-linecap: square"/>
   </g>
   <g id="line2d_12">
    <path d="M 58.806605 202.11855 
L 61.169848 201.676794 
L 63.533092 201.391351 
L 65.896335 201.160278 
L 68.259579 200.786484 
L 70.622822 200.297154 
L 72.986065 199.991322 
L 75.349309 199.780638 
L 77.712552 199.345678 
L 80.075795 199.073828 
L 82.439039 198.754404 
L 84.802282 198.523331 
L 87.165526 198.183518 
L 89.528769 197.986427 
L 91.892012 197.646614 
L 94.255256 197.633022 
L 96.618499 197.422338 
L 98.981742 197.252431 
L 101.344986 197.150487 
L 103.708229 197.089321 
L 106.071473 196.939803 
L 108.434716 196.933007 
L 110.797959 196.831063 
L 113.161203 196.810675 
L 115.524446 196.579602 
L 117.887689 196.375714 
L 120.250933 196.450473 
L 122.614176 196.321344 
L 124.97742 196.232993 
L 127.340663 196.11066 
L 129.703906 196.00192 
L 132.06715 195.73007 
L 134.430393 195.723274 
L 136.793636 195.641719 
L 139.15688 195.628126 
L 141.520123 195.478609 
L 143.883366 195.227147 
L 146.24661 195.138796 
L 148.609853 195.111611 
L 150.973097 194.880538 
L 153.33634 194.690243 
L 155.699583 194.737817 
L 158.062827 194.73102 
L 160.42607 194.56791 
L 162.789313 194.499948 
L 165.152557 194.282468 
L 167.5158 194.228098 
L 169.879044 194.02421 
L 172.242287 193.942655 
L 174.60553 193.91547 
L 176.968774 193.813526 
L 179.332017 193.718378 
L 181.69526 193.575657 
L 184.058504 193.392158 
L 186.421747 193.297011 
L 188.784991 193.256233 
L 191.148234 193.113512 
L 193.511477 192.930013 
L 195.874721 192.950402 
L 198.237964 192.80768 
L 200.601207 192.64457 
" clip-path="url(#p051acd7e5c)" style="fill: none; stroke: #800000; stroke-width: 2; stroke-linecap: square"/>
   </g>
   <g id="patch_3">
    <path d="M 51.716875 205.068125 
L 51.716875 49.094062 
" style="fill: none; stroke: #000000; stroke-width: 0.8; stroke-linejoin: miter; stroke-linecap: square"/>
   </g>
   <g id="patch_4">
    <path d="M 51.716875 205.068125 
L 207.690938 205.068125 
" style="fill: none; stroke: #000000; stroke-width: 0.8; stroke-linejoin: miter; stroke-linecap: square"/>
   </g>
   <g id="text_12">
    <!-- vRNA = 0fM -->
    <g transform="translate(96.239844 43.094062)scale(0.1 -0.1)">
     <defs>
      <path id="DejaVuSans-Bold-76" d="M 97 3500 
L 1216 3500 
L 2088 1081 
L 2956 3500 
L 4078 3500 
L 2700 0 
L 1472 0 
L 97 3500 
z
" transform="scale(0.015625)"/>
      <path id="DejaVuSans-Bold-52" d="M 2297 2597 
Q 2675 2597 2839 2737 
Q 3003 2878 3003 3200 
Q 3003 3519 2839 3656 
Q 2675 3794 2297 3794 
L 1791 3794 
L 1791 2597 
L 2297 2597 
z
M 1791 1766 
L 1791 0 
L 588 0 
L 588 4666 
L 2425 4666 
Q 3347 4666 3776 4356 
Q 4206 4047 4206 3378 
Q 4206 2916 3982 2619 
Q 3759 2322 3309 2181 
Q 3556 2125 3751 1926 
Q 3947 1728 4147 1325 
L 4800 0 
L 3519 0 
L 2950 1159 
Q 2778 1509 2601 1637 
Q 2425 1766 2131 1766 
L 1791 1766 
z
" transform="scale(0.015625)"/>
      <path id="DejaVuSans-Bold-4e" d="M 588 4666 
L 1931 4666 
L 3628 1466 
L 3628 4666 
L 4769 4666 
L 4769 0 
L 3425 0 
L 1728 3200 
L 1728 0 
L 588 0 
L 588 4666 
z
" transform="scale(0.015625)"/>
      <path id="DejaVuSans-Bold-41" d="M 3419 850 
L 1538 850 
L 1241 0 
L 31 0 
L 1759 4666 
L 3194 4666 
L 4922 0 
L 3713 0 
L 3419 850 
z
M 1838 1716 
L 3116 1716 
L 2478 3572 
L 1838 1716 
z
" transform="scale(0.015625)"/>
      <path id="DejaVuSans-Bold-20" transform="scale(0.015625)"/>
      <path id="DejaVuSans-Bold-3d" d="M 678 3084 
L 4684 3084 
L 4684 2350 
L 678 2350 
L 678 3084 
z
M 678 1663 
L 4684 1663 
L 4684 922 
L 678 922 
L 678 1663 
z
" transform="scale(0.015625)"/>
      <path id="DejaVuSans-Bold-30" d="M 2944 2338 
Q 2944 3213 2780 3570 
Q 2616 3928 2228 3928 
Q 1841 3928 1675 3570 
Q 1509 3213 1509 2338 
Q 1509 1453 1675 1090 
Q 1841 728 2228 728 
Q 2613 728 2778 1090 
Q 2944 1453 2944 2338 
z
M 4147 2328 
Q 4147 1169 3647 539 
Q 3147 -91 2228 -91 
Q 1306 -91 806 539 
Q 306 1169 306 2328 
Q 306 3491 806 4120 
Q 1306 4750 2228 4750 
Q 3147 4750 3647 4120 
Q 4147 3491 4147 2328 
z
" transform="scale(0.015625)"/>
      <path id="DejaVuSans-Bold-66" d="M 2841 4863 
L 2841 4128 
L 2222 4128 
Q 1984 4128 1890 4042 
Q 1797 3956 1797 3744 
L 1797 3500 
L 2753 3500 
L 2753 2700 
L 1797 2700 
L 1797 0 
L 678 0 
L 678 2700 
L 122 2700 
L 122 3500 
L 678 3500 
L 678 3744 
Q 678 4316 997 4589 
Q 1316 4863 1984 4863 
L 2841 4863 
z
" transform="scale(0.015625)"/>
      <path id="DejaVuSans-Bold-4d" d="M 588 4666 
L 2119 4666 
L 3181 2169 
L 4250 4666 
L 5778 4666 
L 5778 0 
L 4641 0 
L 4641 3413 
L 3566 897 
L 2803 897 
L 1728 3413 
L 1728 0 
L 588 0 
L 588 4666 
z
" transform="scale(0.015625)"/>
     </defs>
     <use xlink:href="#DejaVuSans-Bold-76"/>
     <use xlink:href="#DejaVuSans-Bold-52" x="65.185547"/>
     <use xlink:href="#DejaVuSans-Bold-4e" x="142.1875"/>
     <use xlink:href="#DejaVuSans-Bold-41" x="225.878906"/>
     <use xlink:href="#DejaVuSans-Bold-20" x="303.271484"/>
     <use xlink:href="#DejaVuSans-Bold-3d" x="338.085938"/>
     <use xlink:href="#DejaVuSans-Bold-20" x="421.875"/>
     <use xlink:href="#DejaVuSans-Bold-30" x="456.689453"/>
     <use xlink:href="#DejaVuSans-Bold-66" x="526.269531"/>
     <use xlink:href="#DejaVuSans-Bold-4d" x="569.775391"/>
    </g>
   </g>
   <g id="legend_1">
    <g id="patch_5">
     <path d="M 104.964375 101.128437 
L 200.690938 101.128437 
Q 202.690938 101.128437 202.690938 99.128437 
L 202.690938 56.094062 
Q 202.690938 54.094062 200.690938 54.094062 
L 104.964375 54.094062 
Q 102.964375 54.094062 102.964375 56.094062 
L 102.964375 99.128437 
Q 102.964375 101.128437 104.964375 101.128437 
z
" style="fill: #ffffff; opacity: 0.8; stroke: #cccccc; stroke-linejoin: miter"/>
    </g>
    <g id="line2d_13">
     <path d="M 106.964375 62.1925 
L 116.964375 62.1925 
L 126.964375 62.1925 
" style="fill: none; stroke: #f08080; stroke-width: 2; stroke-linecap: square"/>
    </g>
    <g id="text_13">
     <!-- RNase 0.001 -->
     <g transform="translate(134.964375 65.6925)scale(0.1 -0.1)">
      <defs>
       <path id="DejaVuSans-52" d="M 2841 2188 
Q 3044 2119 3236 1894 
Q 3428 1669 3622 1275 
L 4263 0 
L 3584 0 
L 2988 1197 
Q 2756 1666 2539 1819 
Q 2322 1972 1947 1972 
L 1259 1972 
L 1259 0 
L 628 0 
L 628 4666 
L 2053 4666 
Q 2853 4666 3247 4331 
Q 3641 3997 3641 3322 
Q 3641 2881 3436 2590 
Q 3231 2300 2841 2188 
z
M 1259 4147 
L 1259 2491 
L 2053 2491 
Q 2509 2491 2742 2702 
Q 2975 2913 2975 3322 
Q 2975 3731 2742 3939 
Q 2509 4147 2053 4147 
L 1259 4147 
z
" transform="scale(0.015625)"/>
       <path id="DejaVuSans-73" d="M 2834 3397 
L 2834 2853 
Q 2591 2978 2328 3040 
Q 2066 3103 1784 3103 
Q 1356 3103 1142 2972 
Q 928 2841 928 2578 
Q 928 2378 1081 2264 
Q 1234 2150 1697 2047 
L 1894 2003 
Q 2506 1872 2764 1633 
Q 3022 1394 3022 966 
Q 3022 478 2636 193 
Q 2250 -91 1575 -91 
Q 1294 -91 989 -36 
Q 684 19 347 128 
L 347 722 
Q 666 556 975 473 
Q 1284 391 1588 391 
Q 1994 391 2212 530 
Q 2431 669 2431 922 
Q 2431 1156 2273 1281 
Q 2116 1406 1581 1522 
L 1381 1569 
Q 847 1681 609 1914 
Q 372 2147 372 2553 
Q 372 3047 722 3315 
Q 1072 3584 1716 3584 
Q 2034 3584 2315 3537 
Q 2597 3491 2834 3397 
z
" transform="scale(0.015625)"/>
      </defs>
      <use xlink:href="#DejaVuSans-52"/>
      <use xlink:href="#DejaVuSans-4e" x="69.482422"/>
      <use xlink:href="#DejaVuSans-61" x="144.287109"/>
      <use xlink:href="#DejaVuSans-73" x="205.566406"/>
      <use xlink:href="#DejaVuSans-65" x="257.666016"/>
      <use xlink:href="#DejaVuSans-20" x="319.189453"/>
      <use xlink:href="#DejaVuSans-30" x="350.976562"/>
      <use xlink:href="#DejaVuSans-2e" x="414.599609"/>
      <use xlink:href="#DejaVuSans-30" x="446.386719"/>
      <use xlink:href="#DejaVuSans-30" x="510.009766"/>
      <use xlink:href="#DejaVuSans-31" x="573.632812"/>
     </g>
    </g>
    <g id="line2d_14">
     <path d="M 106.964375 76.870625 
L 116.964375 76.870625 
L 126.964375 76.870625 
" style="fill: none; stroke: #ff0000; stroke-width: 2; stroke-linecap: square"/>
    </g>
    <g id="text_14">
     <!-- RNase 0.005 -->
     <g transform="translate(134.964375 80.370625)scale(0.1 -0.1)">
      <defs>
       <path id="DejaVuSans-35" d="M 691 4666 
L 3169 4666 
L 3169 4134 
L 1269 4134 
L 1269 2991 
Q 1406 3038 1543 3061 
Q 1681 3084 1819 3084 
Q 2600 3084 3056 2656 
Q 3513 2228 3513 1497 
Q 3513 744 3044 326 
Q 2575 -91 1722 -91 
Q 1428 -91 1123 -41 
Q 819 9 494 109 
L 494 744 
Q 775 591 1075 516 
Q 1375 441 1709 441 
Q 2250 441 2565 725 
Q 2881 1009 2881 1497 
Q 2881 1984 2565 2268 
Q 2250 2553 1709 2553 
Q 1456 2553 1204 2497 
Q 953 2441 691 2322 
L 691 4666 
z
" transform="scale(0.015625)"/>
      </defs>
      <use xlink:href="#DejaVuSans-52"/>
      <use xlink:href="#DejaVuSans-4e" x="69.482422"/>
      <use xlink:href="#DejaVuSans-61" x="144.287109"/>
      <use xlink:href="#DejaVuSans-73" x="205.566406"/>
      <use xlink:href="#DejaVuSans-65" x="257.666016"/>
      <use xlink:href="#DejaVuSans-20" x="319.189453"/>
      <use xlink:href="#DejaVuSans-30" x="350.976562"/>
      <use xlink:href="#DejaVuSans-2e" x="414.599609"/>
      <use xlink:href="#DejaVuSans-30" x="446.386719"/>
      <use xlink:href="#DejaVuSans-30" x="510.009766"/>
      <use xlink:href="#DejaVuSans-35" x="573.632812"/>
     </g>
    </g>
    <g id="line2d_15">
     <path d="M 106.964375 91.54875 
L 116.964375 91.54875 
L 126.964375 91.54875 
" style="fill: none; stroke: #800000; stroke-width: 2; stroke-linecap: square"/>
    </g>
    <g id="text_15">
     <!-- RNase 0.02 -->
     <g transform="translate(134.964375 95.04875)scale(0.1 -0.1)">
      <use xlink:href="#DejaVuSans-52"/>
      <use xlink:href="#DejaVuSans-4e" x="69.482422"/>
      <use xlink:href="#DejaVuSans-61" x="144.287109"/>
      <use xlink:href="#DejaVuSans-73" x="205.566406"/>
      <use xlink:href="#DejaVuSans-65" x="257.666016"/>
      <use xlink:href="#DejaVuSans-20" x="319.189453"/>
      <use xlink:href="#DejaVuSans-30" x="350.976562"/>
      <use xlink:href="#DejaVuSans-2e" x="414.599609"/>
      <use xlink:href="#DejaVuSans-30" x="446.386719"/>
      <use xlink:href="#DejaVuSans-32" x="510.009766"/>
     </g>
    </g>
   </g>
  </g>
  <g id="axes_2">
   <g id="patch_6">
    <path d="M 335.65267 205.068125 
L 491.626733 205.068125 
L 491.626733 49.094062 
L 335.65267 49.094062 
z
" style="fill: #ffffff"/>
   </g>
   <g id="PolyCollection_4">
    <defs>
     <path id="m5ee8c5eea0" d="M 342.742401 -48.47574 
L 342.742401 -48.02657 
L 345.105644 -48.476861 
L 347.468887 -48.624706 
L 349.832131 -48.940992 
L 352.195374 -49.185596 
L 354.558617 -49.443097 
L 356.921861 -49.367926 
L 359.285104 -49.618023 
L 361.648348 -50.096251 
L 364.011591 -50.136148 
L 366.374834 -50.191491 
L 368.738078 -50.577223 
L 371.101321 -50.864388 
L 373.464564 -51.050985 
L 375.827808 -51.317806 
L 378.191051 -51.310666 
L 380.554295 -51.751676 
L 382.917538 -51.866255 
L 385.280781 -52.087209 
L 387.644025 -52.205596 
L 390.007268 -52.387745 
L 392.370511 -52.254967 
L 394.733755 -52.522652 
L 397.096998 -52.785791 
L 399.460241 -52.82513 
L 401.823485 -52.890681 
L 404.186728 -52.986348 
L 406.549972 -52.8551 
L 408.913215 -53.013782 
L 411.276458 -53.453735 
L 413.639702 -53.28774 
L 416.002945 -53.385459 
L 418.366188 -53.72006 
L 420.729432 -53.610614 
L 423.092675 -53.612522 
L 425.455919 -53.85415 
L 427.819162 -53.85471 
L 430.182405 -53.935873 
L 432.545649 -54.001568 
L 434.908892 -54.004778 
L 437.272135 -54.42872 
L 439.635379 -54.419209 
L 441.998622 -54.23163 
L 444.361866 -54.563309 
L 446.725109 -54.549312 
L 449.088352 -54.690572 
L 451.451596 -54.834562 
L 453.814839 -54.736788 
L 456.178082 -54.842999 
L 458.541326 -54.997865 
L 460.904569 -54.899733 
L 463.267813 -55.315208 
L 465.631056 -55.0724 
L 467.994299 -55.116903 
L 470.357543 -55.425439 
L 472.720786 -55.449654 
L 475.084029 -55.54855 
L 477.447273 -55.466201 
L 479.810516 -55.514051 
L 482.173759 -55.810824 
L 484.537003 -55.583937 
L 484.537003 -59.988665 
L 484.537003 -59.988665 
L 482.173759 -59.489928 
L 479.810516 -59.773108 
L 477.447273 -59.698626 
L 475.084029 -59.643462 
L 472.720786 -59.53847 
L 470.357543 -59.358798 
L 467.994299 -59.49063 
L 465.631056 -59.535134 
L 463.267813 -59.319511 
L 460.904569 -58.83788 
L 458.541326 -59.052376 
L 456.178082 -58.989762 
L 453.814839 -58.81053 
L 451.451596 -58.848681 
L 449.088352 -58.3946 
L 446.725109 -58.603824 
L 444.361866 -58.426716 
L 441.998622 -58.255472 
L 439.635379 -57.809635 
L 437.272135 -57.82731 
L 434.908892 -57.761921 
L 432.545649 -57.547651 
L 430.182405 -57.47742 
L 427.819162 -57.368289 
L 425.455919 -57.314479 
L 423.092675 -57.189109 
L 420.729432 -57.027907 
L 418.366188 -56.986423 
L 416.002945 -56.627807 
L 413.639702 -56.75271 
L 411.276458 -56.66827 
L 408.913215 -56.238303 
L 406.549972 -56.315429 
L 404.186728 -56.279329 
L 401.823485 -56.103146 
L 399.460241 -55.720144 
L 397.096998 -55.705113 
L 394.733755 -55.492514 
L 392.370511 -55.529126 
L 390.007268 -55.464311 
L 387.644025 -55.129945 
L 385.280781 -54.949296 
L 382.917538 -54.776068 
L 380.554295 -54.523649 
L 378.191051 -54.013183 
L 375.827808 -53.77497 
L 373.464564 -53.49809 
L 371.101321 -52.909914 
L 368.738078 -52.503862 
L 366.374834 -52.196375 
L 364.011591 -52.129386 
L 361.648348 -51.55762 
L 359.285104 -51.193113 
L 356.921861 -50.845139 
L 354.558617 -50.525303 
L 352.195374 -49.980845 
L 349.832131 -49.600194 
L 347.468887 -49.196077 
L 345.105644 -48.895369 
L 342.742401 -48.47574 
z
" style="stroke: #f08080; stroke-opacity: 0.2"/>
    </defs>
    <g clip-path="url(#pab9eaae1e3)">
     <use xlink:href="#m5ee8c5eea0" x="0" y="250.56" style="fill: #f08080; fill-opacity: 0.2; stroke: #f08080; stroke-opacity: 0.2"/>
    </g>
   </g>
   <g id="PolyCollection_5">
    <defs>
     <path id="mfe4539c5e8" d="M 342.742401 -48.580041 
L 342.742401 -48.438784 
L 345.105644 -48.692911 
L 347.468887 -49.155227 
L 349.832131 -49.362243 
L 352.195374 -49.83841 
L 354.558617 -50.309622 
L 356.921861 -50.618473 
L 359.285104 -50.975923 
L 361.648348 -51.508841 
L 364.011591 -51.618959 
L 366.374834 -52.340813 
L 368.738078 -52.485814 
L 371.101321 -53.149281 
L 373.464564 -53.767302 
L 375.827808 -54.496392 
L 378.191051 -54.519666 
L 380.554295 -55.388164 
L 382.917538 -56.038353 
L 385.280781 -56.569138 
L 387.644025 -56.87875 
L 390.007268 -57.10636 
L 392.370511 -57.397182 
L 394.733755 -57.866123 
L 397.096998 -58.084861 
L 399.460241 -58.2643 
L 401.823485 -58.491801 
L 404.186728 -58.522588 
L 406.549972 -58.67811 
L 408.913215 -58.872544 
L 411.276458 -59.125569 
L 413.639702 -59.49057 
L 416.002945 -59.227076 
L 418.366188 -59.629677 
L 420.729432 -59.851695 
L 423.092675 -59.7844 
L 425.455919 -60.171441 
L 427.819162 -60.052547 
L 430.182405 -60.319659 
L 432.545649 -60.367933 
L 434.908892 -60.46002 
L 437.272135 -60.593105 
L 439.635379 -60.926525 
L 441.998622 -60.772358 
L 444.361866 -61.047585 
L 446.725109 -61.380539 
L 449.088352 -61.28746 
L 451.451596 -61.45555 
L 453.814839 -61.713637 
L 456.178082 -61.751129 
L 458.541326 -61.722831 
L 460.904569 -61.814758 
L 463.267813 -62.029751 
L 465.631056 -62.09724 
L 467.994299 -62.572842 
L 470.357543 -62.348639 
L 472.720786 -62.31636 
L 475.084029 -62.486393 
L 477.447273 -62.389614 
L 479.810516 -62.587514 
L 482.173759 -62.570882 
L 484.537003 -62.904922 
L 484.537003 -65.743675 
L 484.537003 -65.743675 
L 482.173759 -65.28935 
L 479.810516 -65.802826 
L 477.447273 -65.674505 
L 475.084029 -65.387431 
L 472.720786 -65.081726 
L 470.357543 -65.11741 
L 467.994299 -64.906799 
L 465.631056 -64.784332 
L 463.267813 -64.919783 
L 460.904569 -64.604668 
L 458.541326 -64.805335 
L 456.178082 -64.260522 
L 453.814839 -64.433939 
L 451.451596 -64.243473 
L 449.088352 -64.003787 
L 446.725109 -63.734006 
L 444.361866 -63.713554 
L 441.998622 -64.002374 
L 439.635379 -63.793837 
L 437.272135 -63.406854 
L 434.908892 -63.254496 
L 432.545649 -63.251436 
L 430.182405 -62.932711 
L 427.819162 -62.887196 
L 425.455919 -62.578007 
L 423.092675 -62.76116 
L 420.729432 -62.272498 
L 418.366188 -62.154703 
L 416.002945 -62.149529 
L 413.639702 -62.076329 
L 411.276458 -61.856852 
L 408.913215 -61.824435 
L 406.549972 -61.665464 
L 404.186728 -61.14136 
L 401.823485 -60.818742 
L 399.460241 -60.733615 
L 397.096998 -60.029541 
L 394.733755 -59.840503 
L 392.370511 -59.371561 
L 390.007268 -58.860426 
L 387.644025 -58.122966 
L 385.280781 -57.372363 
L 382.917538 -56.639044 
L 380.554295 -56.02513 
L 378.191051 -55.357675 
L 375.827808 -54.674137 
L 373.464564 -54.152716 
L 371.101321 -53.64256 
L 368.738078 -52.797258 
L 366.374834 -52.588853 
L 364.011591 -52.196121 
L 361.648348 -51.871279 
L 359.285104 -51.411944 
L 356.921861 -51.198508 
L 354.558617 -50.773364 
L 352.195374 -50.2931 
L 349.832131 -49.709051 
L 347.468887 -49.426737 
L 345.105644 -48.978354 
L 342.742401 -48.580041 
z
" style="stroke: #ff0000; stroke-opacity: 0.2"/>
    </defs>
    <g clip-path="url(#pab9eaae1e3)">
     <use xlink:href="#mfe4539c5e8" x="0" y="250.56" style="fill: #ff0000; fill-opacity: 0.2; stroke: #ff0000; stroke-opacity: 0.2"/>
    </g>
   </g>
   <g id="PolyCollection_6">
    <defs>
     <path id="mb6c9cd5e18" d="M 342.742401 -48.829682 
L 342.742401 -48.664881 
L 345.105644 -49.068135 
L 347.468887 -49.354795 
L 349.832131 -49.880282 
L 352.195374 -50.285257 
L 354.558617 -50.760393 
L 356.921861 -51.132237 
L 359.285104 -51.421631 
L 361.648348 -51.992339 
L 364.011591 -52.444784 
L 366.374834 -52.99647 
L 368.738078 -53.42244 
L 371.101321 -53.816947 
L 373.464564 -54.271225 
L 375.827808 -54.929225 
L 378.191051 -55.200321 
L 380.554295 -55.449844 
L 382.917538 -56.182958 
L 385.280781 -56.608428 
L 387.644025 -56.870577 
L 390.007268 -57.276706 
L 392.370511 -57.816382 
L 394.733755 -58.084648 
L 397.096998 -58.479914 
L 399.460241 -58.659916 
L 401.823485 -59.039239 
L 404.186728 -59.221058 
L 406.549972 -59.438954 
L 408.913215 -59.545384 
L 411.276458 -59.927461 
L 413.639702 -59.882403 
L 416.002945 -60.369848 
L 418.366188 -60.186612 
L 420.729432 -60.303658 
L 423.092675 -60.474697 
L 425.455919 -60.849419 
L 427.819162 -60.933728 
L 430.182405 -60.862292 
L 432.545649 -61.444623 
L 434.908892 -61.372678 
L 437.272135 -61.604051 
L 439.635379 -61.71912 
L 441.998622 -61.564908 
L 444.361866 -61.77099 
L 446.725109 -62.177924 
L 449.088352 -62.260854 
L 451.451596 -62.241954 
L 453.814839 -62.33773 
L 456.178082 -62.655295 
L 458.541326 -62.765175 
L 460.904569 -62.770317 
L 463.267813 -62.773779 
L 465.631056 -63.452165 
L 467.994299 -63.08369 
L 470.357543 -63.478782 
L 472.720786 -63.399002 
L 475.084029 -63.897953 
L 477.447273 -63.755724 
L 479.810516 -63.844085 
L 482.173759 -64.145138 
L 484.537003 -63.925145 
L 484.537003 -83.739376 
L 484.537003 -83.739376 
L 482.173759 -83.465012 
L 479.810516 -83.929176 
L 477.447273 -83.501021 
L 475.084029 -83.12772 
L 472.720786 -83.19171 
L 470.357543 -82.94882 
L 467.994299 -83.126432 
L 465.631056 -82.717179 
L 463.267813 -82.376127 
L 460.904569 -82.393181 
L 458.541326 -82.330361 
L 456.178082 -81.978095 
L 453.814839 -82.363623 
L 451.451596 -81.643848 
L 449.088352 -81.815244 
L 446.725109 -81.408843 
L 444.361866 -81.258484 
L 441.998622 -81.464566 
L 439.635379 -80.984134 
L 437.272135 -80.97687 
L 434.908892 -80.854838 
L 432.545649 -80.429488 
L 430.182405 -80.821523 
L 427.819162 -80.315128 
L 425.455919 -80.358659 
L 423.092675 -79.9722 
L 420.729432 -79.925759 
L 418.366188 -79.961249 
L 416.002945 -79.424609 
L 413.639702 -79.504279 
L 411.276458 -79.268925 
L 408.913215 -79.188857 
L 406.549972 -78.425366 
L 404.186728 -77.460714 
L 401.823485 -77.438645 
L 399.460241 -76.513087 
L 397.096998 -75.78239 
L 394.733755 -74.600925 
L 392.370511 -73.523533 
L 390.007268 -72.133072 
L 387.644025 -70.432362 
L 385.280781 -68.873114 
L 382.917538 -66.89271 
L 380.554295 -64.78499 
L 378.191051 -62.927673 
L 375.827808 -60.98319 
L 373.464564 -58.949873 
L 371.101321 -56.930314 
L 368.738078 -55.299536 
L 366.374834 -53.659445 
L 364.011591 -52.987805 
L 361.648348 -52.216924 
L 359.285104 -51.917711 
L 356.921861 -51.568258 
L 354.558617 -51.246883 
L 352.195374 -50.580249 
L 349.832131 -50.373561 
L 347.468887 -49.893202 
L 345.105644 -49.486643 
L 342.742401 -48.829682 
z
" style="stroke: #800000; stroke-opacity: 0.2"/>
    </defs>
    <g clip-path="url(#pab9eaae1e3)">
     <use xlink:href="#mb6c9cd5e18" x="0" y="250.56" style="fill: #800000; fill-opacity: 0.2; stroke: #800000; stroke-opacity: 0.2"/>
    </g>
   </g>
   <g id="matplotlib.axis_3">
    <g id="xtick_4">
     <g id="line2d_16">
      <g>
       <use xlink:href="#ma415247ad6" x="342.742401" y="205.068125" style="stroke: #000000; stroke-width: 0.8"/>
      </g>
     </g>
     <g id="text_16">
      <!-- 0 -->
      <g transform="translate(339.561151 219.666562)scale(0.1 -0.1)">
       <use xlink:href="#DejaVuSans-30"/>
      </g>
     </g>
    </g>
    <g id="xtick_5">
     <g id="line2d_17">
      <g>
       <use xlink:href="#ma415247ad6" x="401.823485" y="205.068125" style="stroke: #000000; stroke-width: 0.8"/>
      </g>
     </g>
     <g id="text_17">
      <!-- 100 -->
      <g transform="translate(392.279735 219.666562)scale(0.1 -0.1)">
       <use xlink:href="#DejaVuSans-31"/>
       <use xlink:href="#DejaVuSans-30" x="63.623047"/>
       <use xlink:href="#DejaVuSans-30" x="127.246094"/>
      </g>
     </g>
    </g>
    <g id="xtick_6">
     <g id="line2d_18">
      <g>
       <use xlink:href="#ma415247ad6" x="460.904569" y="205.068125" style="stroke: #000000; stroke-width: 0.8"/>
      </g>
     </g>
     <g id="text_18">
      <!-- 200 -->
      <g transform="translate(451.360819 219.666562)scale(0.1 -0.1)">
       <use xlink:href="#DejaVuSans-32"/>
       <use xlink:href="#DejaVuSans-30" x="63.623047"/>
       <use xlink:href="#DejaVuSans-30" x="127.246094"/>
      </g>
     </g>
    </g>
    <g id="text_19">
     <!-- Time (min) -->
     <g transform="translate(381.056889 240.864375)scale(0.12 -0.12)">
      <use xlink:href="#DejaVuSans-54"/>
      <use xlink:href="#DejaVuSans-69" x="57.958984"/>
      <use xlink:href="#DejaVuSans-6d" x="85.742188"/>
      <use xlink:href="#DejaVuSans-65" x="183.154297"/>
      <use xlink:href="#DejaVuSans-20" x="244.677734"/>
      <use xlink:href="#DejaVuSans-28" x="276.464844"/>
      <use xlink:href="#DejaVuSans-6d" x="315.478516"/>
      <use xlink:href="#DejaVuSans-69" x="412.890625"/>
      <use xlink:href="#DejaVuSans-6e" x="440.673828"/>
      <use xlink:href="#DejaVuSans-29" x="504.052734"/>
     </g>
    </g>
   </g>
   <g id="matplotlib.axis_4">
    <g id="ytick_7">
     <g id="line2d_19">
      <g>
       <use xlink:href="#me63e444bea" x="335.65267" y="205.068125" style="stroke: #000000; stroke-width: 0.8"/>
      </g>
     </g>
     <g id="text_20">
      <!-- 0.0 -->
      <g transform="translate(312.749545 208.867344)scale(0.1 -0.1)">
       <use xlink:href="#DejaVuSans-30"/>
       <use xlink:href="#DejaVuSans-2e" x="63.623047"/>
       <use xlink:href="#DejaVuSans-30" x="95.410156"/>
      </g>
     </g>
    </g>
    <g id="ytick_8">
     <g id="line2d_20">
      <g>
       <use xlink:href="#me63e444bea" x="335.65267" y="173.873312" style="stroke: #000000; stroke-width: 0.8"/>
      </g>
     </g>
     <g id="text_21">
      <!-- 0.2 -->
      <g transform="translate(312.749545 177.672531)scale(0.1 -0.1)">
       <use xlink:href="#DejaVuSans-30"/>
       <use xlink:href="#DejaVuSans-2e" x="63.623047"/>
       <use xlink:href="#DejaVuSans-32" x="95.410156"/>
      </g>
     </g>
    </g>
    <g id="ytick_9">
     <g id="line2d_21">
      <g>
       <use xlink:href="#me63e444bea" x="335.65267" y="142.6785" style="stroke: #000000; stroke-width: 0.8"/>
      </g>
     </g>
     <g id="text_22">
      <!-- 0.4 -->
      <g transform="translate(312.749545 146.477719)scale(0.1 -0.1)">
       <use xlink:href="#DejaVuSans-30"/>
       <use xlink:href="#DejaVuSans-2e" x="63.623047"/>
       <use xlink:href="#DejaVuSans-34" x="95.410156"/>
      </g>
     </g>
    </g>
    <g id="ytick_10">
     <g id="line2d_22">
      <g>
       <use xlink:href="#me63e444bea" x="335.65267" y="111.483687" style="stroke: #000000; stroke-width: 0.8"/>
      </g>
     </g>
     <g id="text_23">
      <!-- 0.6 -->
      <g transform="translate(312.749545 115.282906)scale(0.1 -0.1)">
       <use xlink:href="#DejaVuSans-30"/>
       <use xlink:href="#DejaVuSans-2e" x="63.623047"/>
       <use xlink:href="#DejaVuSans-36" x="95.410156"/>
      </g>
     </g>
    </g>
    <g id="ytick_11">
     <g id="line2d_23">
      <g>
       <use xlink:href="#me63e444bea" x="335.65267" y="80.288875" style="stroke: #000000; stroke-width: 0.8"/>
      </g>
     </g>
     <g id="text_24">
      <!-- 0.8 -->
      <g transform="translate(312.749545 84.088094)scale(0.1 -0.1)">
       <use xlink:href="#DejaVuSans-30"/>
       <use xlink:href="#DejaVuSans-2e" x="63.623047"/>
       <use xlink:href="#DejaVuSans-38" x="95.410156"/>
      </g>
     </g>
    </g>
    <g id="ytick_12">
     <g id="line2d_24">
      <g>
       <use xlink:href="#me63e444bea" x="335.65267" y="49.094062" style="stroke: #000000; stroke-width: 0.8"/>
      </g>
     </g>
     <g id="text_25">
      <!-- 1.0 -->
      <g transform="translate(312.749545 52.893281)scale(0.1 -0.1)">
       <use xlink:href="#DejaVuSans-31"/>
       <use xlink:href="#DejaVuSans-2e" x="63.623047"/>
       <use xlink:href="#DejaVuSans-30" x="95.410156"/>
      </g>
     </g>
    </g>
    <g id="text_26">
     <!-- Normalized exp output -->
     <g transform="translate(300.25392 195.658281)rotate(-90)scale(0.12 -0.12)">
      <use xlink:href="#DejaVuSans-4e"/>
      <use xlink:href="#DejaVuSans-6f" x="74.804688"/>
      <use xlink:href="#DejaVuSans-72" x="135.986328"/>
      <use xlink:href="#DejaVuSans-6d" x="175.349609"/>
      <use xlink:href="#DejaVuSans-61" x="272.761719"/>
      <use xlink:href="#DejaVuSans-6c" x="334.041016"/>
      <use xlink:href="#DejaVuSans-69" x="361.824219"/>
      <use xlink:href="#DejaVuSans-7a" x="389.607422"/>
      <use xlink:href="#DejaVuSans-65" x="442.097656"/>
      <use xlink:href="#DejaVuSans-64" x="503.621094"/>
      <use xlink:href="#DejaVuSans-20" x="567.097656"/>
      <use xlink:href="#DejaVuSans-65" x="598.884766"/>
      <use xlink:href="#DejaVuSans-78" x="658.658203"/>
      <use xlink:href="#DejaVuSans-70" x="717.837891"/>
      <use xlink:href="#DejaVuSans-20" x="781.314453"/>
      <use xlink:href="#DejaVuSans-6f" x="813.101562"/>
      <use xlink:href="#DejaVuSans-75" x="874.283203"/>
      <use xlink:href="#DejaVuSans-74" x="937.662109"/>
      <use xlink:href="#DejaVuSans-70" x="976.871094"/>
      <use xlink:href="#DejaVuSans-75" x="1040.347656"/>
      <use xlink:href="#DejaVuSans-74" x="1103.726562"/>
     </g>
    </g>
   </g>
   <g id="line2d_25">
    <path d="M 342.742401 202.308845 
L 345.105644 201.873885 
L 347.468887 201.649609 
L 349.832131 201.289407 
L 352.195374 200.976779 
L 354.558617 200.5758 
L 356.921861 200.453468 
L 359.285104 200.154432 
L 361.648348 199.733064 
L 364.011591 199.427233 
L 366.374834 199.366067 
L 368.738078 199.019458 
L 371.101321 198.672849 
L 373.464564 198.285462 
L 375.827808 198.013612 
L 378.191051 197.898076 
L 380.554295 197.422338 
L 382.917538 197.238839 
L 385.280781 197.041747 
L 387.644025 196.89223 
L 390.007268 196.633972 
L 392.370511 196.667953 
L 394.733755 196.552417 
L 397.096998 196.314548 
L 399.460241 196.287363 
L 401.823485 196.063087 
L 404.186728 195.927161 
L 406.549972 195.974735 
L 408.913215 195.933958 
L 411.276458 195.498997 
L 413.639702 195.539775 
L 416.002945 195.553367 
L 418.366188 195.206758 
L 420.729432 195.24074 
L 423.092675 195.159185 
L 425.455919 194.975686 
L 427.819162 194.948501 
L 430.182405 194.853353 
L 432.545649 194.785391 
L 434.908892 194.67665 
L 437.272135 194.431985 
L 439.635379 194.445578 
L 441.998622 194.316449 
L 444.361866 194.064987 
L 446.725109 193.983432 
L 449.088352 194.017414 
L 451.451596 193.718378 
L 453.814839 193.786341 
L 456.178082 193.64362 
L 458.541326 193.53488 
L 460.904569 193.691193 
L 463.267813 193.242641 
L 465.631056 193.256233 
L 467.994299 193.256233 
L 470.357543 193.167882 
L 472.720786 193.065938 
L 475.084029 192.963994 
L 477.447273 192.977587 
L 479.810516 192.91642 
L 482.173759 192.909624 
L 484.537003 192.773699 
" clip-path="url(#pab9eaae1e3)" style="fill: none; stroke: #f08080; stroke-width: 2; stroke-linecap: square"/>
   </g>
   <g id="line2d_26">
    <path d="M 342.742401 202.050588 
L 345.105644 201.724367 
L 347.468887 201.269018 
L 349.832131 201.024353 
L 352.195374 200.494245 
L 354.558617 200.018507 
L 356.921861 199.651509 
L 359.285104 199.366067 
L 361.648348 198.86994 
L 364.011591 198.65246 
L 366.374834 198.095167 
L 368.738078 197.918464 
L 371.101321 197.16408 
L 373.464564 196.599991 
L 375.827808 195.974735 
L 378.191051 195.62133 
L 380.554295 194.853353 
L 382.917538 194.221301 
L 385.280781 193.58925 
L 387.644025 193.059142 
L 390.007268 192.576607 
L 392.370511 192.175628 
L 394.733755 191.706687 
L 397.096998 191.502799 
L 399.460241 191.061043 
L 401.823485 190.904729 
L 404.186728 190.728026 
L 406.549972 190.388213 
L 408.913215 190.211511 
L 411.276458 190.068789 
L 413.639702 189.77655 
L 416.002945 189.871698 
L 418.366188 189.66781 
L 420.729432 189.497904 
L 423.092675 189.28722 
L 425.455919 189.185276 
L 427.819162 189.090128 
L 430.182405 188.933815 
L 432.545649 188.750316 
L 434.908892 188.702742 
L 437.272135 188.560021 
L 439.635379 188.199819 
L 441.998622 188.172634 
L 444.361866 188.17943 
L 446.725109 188.002728 
L 449.088352 187.914376 
L 451.451596 187.710489 
L 453.814839 187.486212 
L 456.178082 187.554175 
L 458.541326 187.295917 
L 460.904569 187.350287 
L 463.267813 187.085233 
L 465.631056 187.119214 
L 467.994299 186.820179 
L 470.357543 186.826975 
L 472.720786 186.860957 
L 475.084029 186.623088 
L 477.447273 186.52794 
L 479.810516 186.36483 
L 482.173759 186.629884 
L 484.537003 186.235701 
" clip-path="url(#pab9eaae1e3)" style="fill: none; stroke: #ff0000; stroke-width: 2; stroke-linecap: square"/>
   </g>
   <g id="line2d_27">
    <path d="M 342.742401 201.812719 
L 345.105644 201.282611 
L 347.468887 200.936002 
L 349.832131 200.433079 
L 352.195374 200.127247 
L 354.558617 199.556362 
L 356.921861 199.209753 
L 359.285104 198.890329 
L 361.648348 198.455368 
L 364.011591 197.843705 
L 366.374834 197.232042 
L 368.738078 196.199012 
L 371.101321 195.18637 
L 373.464564 193.949451 
L 375.827808 192.603793 
L 378.191051 191.496003 
L 380.554295 190.442583 
L 382.917538 189.022166 
L 385.280781 187.819229 
L 387.644025 186.90853 
L 390.007268 185.855111 
L 392.370511 184.890043 
L 394.733755 184.217213 
L 397.096998 183.428848 
L 399.460241 182.973499 
L 401.823485 182.321058 
L 404.186728 182.219114 
L 406.549972 181.62784 
L 408.913215 181.19288 
L 411.276458 180.961807 
L 413.639702 180.866659 
L 416.002945 180.662772 
L 418.366188 180.486069 
L 420.729432 180.445292 
L 423.092675 180.336551 
L 425.455919 179.955961 
L 427.819162 179.935572 
L 430.182405 179.718092 
L 432.545649 179.622945 
L 434.908892 179.446242 
L 437.272135 179.269539 
L 439.635379 179.208373 
L 441.998622 179.045263 
L 444.361866 179.045263 
L 446.725109 178.766616 
L 449.088352 178.521951 
L 451.451596 178.617099 
L 453.814839 178.209323 
L 456.178082 178.243305 
L 458.541326 178.012232 
L 460.904569 177.978251 
L 463.267813 177.985047 
L 465.631056 177.475328 
L 467.994299 177.454939 
L 470.357543 177.346199 
L 472.720786 177.264644 
L 475.084029 177.047164 
L 477.447273 176.931627 
L 479.810516 176.67337 
L 482.173759 176.754925 
L 484.537003 176.72774 
" clip-path="url(#pab9eaae1e3)" style="fill: none; stroke: #800000; stroke-width: 2; stroke-linecap: square"/>
   </g>
   <g id="patch_7">
    <path d="M 335.65267 205.068125 
L 335.65267 49.094062 
" style="fill: none; stroke: #000000; stroke-width: 0.8; stroke-linejoin: miter; stroke-linecap: square"/>
   </g>
   <g id="patch_8">
    <path d="M 335.65267 205.068125 
L 491.626733 205.068125 
" style="fill: none; stroke: #000000; stroke-width: 0.8; stroke-linejoin: miter; stroke-linecap: square"/>
   </g>
   <g id="text_27">
    <!-- vRNA = 1fM -->
    <g transform="translate(380.175639 43.094062)scale(0.1 -0.1)">
     <defs>
      <path id="DejaVuSans-Bold-31" d="M 750 831 
L 1813 831 
L 1813 3847 
L 722 3622 
L 722 4441 
L 1806 4666 
L 2950 4666 
L 2950 831 
L 4013 831 
L 4013 0 
L 750 0 
L 750 831 
z
" transform="scale(0.015625)"/>
     </defs>
     <use xlink:href="#DejaVuSans-Bold-76"/>
     <use xlink:href="#DejaVuSans-Bold-52" x="65.185547"/>
     <use xlink:href="#DejaVuSans-Bold-4e" x="142.1875"/>
     <use xlink:href="#DejaVuSans-Bold-41" x="225.878906"/>
     <use xlink:href="#DejaVuSans-Bold-20" x="303.271484"/>
     <use xlink:href="#DejaVuSans-Bold-3d" x="338.085938"/>
     <use xlink:href="#DejaVuSans-Bold-20" x="421.875"/>
     <use xlink:href="#DejaVuSans-Bold-31" x="456.689453"/>
     <use xlink:href="#DejaVuSans-Bold-66" x="526.269531"/>
     <use xlink:href="#DejaVuSans-Bold-4d" x="569.775391"/>
    </g>
   </g>
   <g id="legend_2">
    <g id="patch_9">
     <path d="M 388.90017 101.128437 
L 484.626733 101.128437 
Q 486.626733 101.128437 486.626733 99.128437 
L 486.626733 56.094062 
Q 486.626733 54.094062 484.626733 54.094062 
L 388.90017 54.094062 
Q 386.90017 54.094062 386.90017 56.094062 
L 386.90017 99.128437 
Q 386.90017 101.128437 388.90017 101.128437 
z
" style="fill: #ffffff; opacity: 0.8; stroke: #cccccc; stroke-linejoin: miter"/>
    </g>
    <g id="line2d_28">
     <path d="M 390.90017 62.1925 
L 400.90017 62.1925 
L 410.90017 62.1925 
" style="fill: none; stroke: #f08080; stroke-width: 2; stroke-linecap: square"/>
    </g>
    <g id="text_28">
     <!-- RNase 0.001 -->
     <g transform="translate(418.90017 65.6925)scale(0.1 -0.1)">
      <use xlink:href="#DejaVuSans-52"/>
      <use xlink:href="#DejaVuSans-4e" x="69.482422"/>
      <use xlink:href="#DejaVuSans-61" x="144.287109"/>
      <use xlink:href="#DejaVuSans-73" x="205.566406"/>
      <use xlink:href="#DejaVuSans-65" x="257.666016"/>
      <use xlink:href="#DejaVuSans-20" x="319.189453"/>
      <use xlink:href="#DejaVuSans-30" x="350.976562"/>
      <use xlink:href="#DejaVuSans-2e" x="414.599609"/>
      <use xlink:href="#DejaVuSans-30" x="446.386719"/>
      <use xlink:href="#DejaVuSans-30" x="510.009766"/>
      <use xlink:href="#DejaVuSans-31" x="573.632812"/>
     </g>
    </g>
    <g id="line2d_29">
     <path d="M 390.90017 76.870625 
L 400.90017 76.870625 
L 410.90017 76.870625 
" style="fill: none; stroke: #ff0000; stroke-width: 2; stroke-linecap: square"/>
    </g>
    <g id="text_29">
     <!-- RNase 0.005 -->
     <g transform="translate(418.90017 80.370625)scale(0.1 -0.1)">
      <use xlink:href="#DejaVuSans-52"/>
      <use xlink:href="#DejaVuSans-4e" x="69.482422"/>
      <use xlink:href="#DejaVuSans-61" x="144.287109"/>
      <use xlink:href="#DejaVuSans-73" x="205.566406"/>
      <use xlink:href="#DejaVuSans-65" x="257.666016"/>
      <use xlink:href="#DejaVuSans-20" x="319.189453"/>
      <use xlink:href="#DejaVuSans-30" x="350.976562"/>
      <use xlink:href="#DejaVuSans-2e" x="414.599609"/>
      <use xlink:href="#DejaVuSans-30" x="446.386719"/>
      <use xlink:href="#DejaVuSans-30" x="510.009766"/>
      <use xlink:href="#DejaVuSans-35" x="573.632812"/>
     </g>
    </g>
    <g id="line2d_30">
     <path d="M 390.90017 91.54875 
L 400.90017 91.54875 
L 410.90017 91.54875 
" style="fill: none; stroke: #800000; stroke-width: 2; stroke-linecap: square"/>
    </g>
    <g id="text_30">
     <!-- RNase 0.02 -->
     <g transform="translate(418.90017 95.04875)scale(0.1 -0.1)">
      <use xlink:href="#DejaVuSans-52"/>
      <use xlink:href="#DejaVuSans-4e" x="69.482422"/>
      <use xlink:href="#DejaVuSans-61" x="144.287109"/>
      <use xlink:href="#DejaVuSans-73" x="205.566406"/>
      <use xlink:href="#DejaVuSans-65" x="257.666016"/>
      <use xlink:href="#DejaVuSans-20" x="319.189453"/>
      <use xlink:href="#DejaVuSans-30" x="350.976562"/>
      <use xlink:href="#DejaVuSans-2e" x="414.599609"/>
      <use xlink:href="#DejaVuSans-30" x="446.386719"/>
      <use xlink:href="#DejaVuSans-32" x="510.009766"/>
     </g>
    </g>
   </g>
  </g>
  <g id="axes_3">
   <g id="patch_10">
    <path d="M 619.588466 205.068125 
L 775.562528 205.068125 
L 775.562528 49.094062 
L 619.588466 49.094062 
z
" style="fill: #ffffff"/>
   </g>
   <g id="PolyCollection_7">
    <defs>
     <path id="m9af3669d4a" d="M 626.678196 -49.434934 
L 626.678196 -48.345072 
L 629.041439 -48.845269 
L 631.404683 -49.16677 
L 633.767926 -49.575315 
L 636.13117 -49.446277 
L 638.494413 -50.045243 
L 640.857656 -50.290839 
L 643.2209 -50.715268 
L 645.584143 -50.863816 
L 647.947386 -51.278832 
L 650.31063 -51.75269 
L 652.673873 -52.241987 
L 655.037116 -52.076432 
L 657.40036 -52.425076 
L 659.763603 -52.476703 
L 662.126847 -52.679038 
L 664.49009 -52.529211 
L 666.853333 -52.255839 
L 669.216577 -52.537807 
L 671.57982 -52.162495 
L 673.943063 -52.44003 
L 676.306307 -52.377991 
L 678.66955 -52.353641 
L 681.032794 -52.465036 
L 683.396037 -52.929657 
L 685.75928 -53.084314 
L 688.122524 -53.285175 
L 690.485767 -53.945064 
L 692.84901 -54.312009 
L 695.212254 -55.257405 
L 697.575497 -55.939175 
L 699.938741 -56.861528 
L 702.301984 -57.851735 
L 704.665227 -58.873579 
L 707.028471 -59.898895 
L 709.391714 -61.259932 
L 711.754957 -62.639317 
L 714.118201 -64.108424 
L 716.481444 -65.142758 
L 718.844687 -66.435542 
L 721.207931 -68.031987 
L 723.571174 -69.141409 
L 725.934418 -70.521063 
L 728.297661 -71.679989 
L 730.660904 -73.146806 
L 733.024148 -74.026639 
L 735.387391 -75.220213 
L 737.750634 -76.568991 
L 740.113878 -77.546633 
L 742.477121 -78.407305 
L 744.840365 -79.037219 
L 747.203608 -79.561273 
L 749.566851 -80.656478 
L 751.930095 -80.351598 
L 754.293338 -80.778554 
L 756.656581 -80.758694 
L 759.019825 -80.753715 
L 761.383068 -81.206663 
L 763.746312 -80.948256 
L 766.109555 -81.150186 
L 768.472798 -80.905261 
L 768.472798 -105.076548 
L 768.472798 -105.076548 
L 766.109555 -104.260737 
L 763.746312 -104.299557 
L 761.383068 -103.619782 
L 759.019825 -102.890182 
L 756.656581 -100.873511 
L 754.293338 -100.473061 
L 751.930095 -99.296101 
L 749.566851 -97.998967 
L 747.203608 -96.756261 
L 744.840365 -95.662805 
L 742.477121 -94.348991 
L 740.113878 -93.415451 
L 737.750634 -92.653251 
L 735.387391 -91.147603 
L 733.024148 -89.948895 
L 730.660904 -88.667519 
L 728.297661 -87.483795 
L 725.934418 -85.706739 
L 723.571174 -84.367891 
L 721.207931 -83.152994 
L 718.844687 -82.112492 
L 716.481444 -80.673181 
L 714.118201 -79.668638 
L 711.754957 -78.881389 
L 709.391714 -78.45297 
L 707.028471 -77.598427 
L 704.665227 -76.938272 
L 702.301984 -75.975609 
L 699.938741 -75.14442 
L 697.575497 -74.408487 
L 695.212254 -73.499932 
L 692.84901 -72.746265 
L 690.485767 -72.24329 
L 688.122524 -71.163337 
L 685.75928 -70.358352 
L 683.396037 -69.085796 
L 681.032794 -68.38146 
L 678.66955 -66.576312 
L 676.306307 -65.355821 
L 673.943063 -63.744235 
L 671.57982 -62.513002 
L 669.216577 -60.533774 
L 666.853333 -59.306973 
L 664.49009 -57.674349 
L 662.126847 -56.151679 
L 659.763603 -55.266613 
L 657.40036 -54.054137 
L 655.037116 -53.125084 
L 652.673873 -52.660495 
L 650.31063 -52.035205 
L 647.947386 -51.910993 
L 645.584143 -51.673569 
L 643.2209 -51.033751 
L 640.857656 -51.376625 
L 638.494413 -50.793078 
L 636.13117 -50.67164 
L 633.767926 -50.284344 
L 631.404683 -50.176374 
L 629.041439 -49.81825 
L 626.678196 -49.434934 
z
" style="stroke: #f08080; stroke-opacity: 0.2"/>
    </defs>
    <g clip-path="url(#p98d9d3a09c)">
     <use xlink:href="#m9af3669d4a" x="0" y="250.56" style="fill: #f08080; fill-opacity: 0.2; stroke: #f08080; stroke-opacity: 0.2"/>
    </g>
   </g>
   <g id="PolyCollection_8">
    <defs>
     <path id="m2fb9e89ab7" d="M 626.678196 -48.502956 
L 626.678196 -48.094501 
L 629.041439 -48.698585 
L 631.404683 -48.915982 
L 633.767926 -49.258369 
L 636.13117 -49.593886 
L 638.494413 -50.067001 
L 640.857656 -50.331235 
L 643.2209 -50.440969 
L 645.584143 -50.952121 
L 647.947386 -51.287939 
L 650.31063 -51.616261 
L 652.673873 -52.123267 
L 655.037116 -52.988657 
L 657.40036 -53.576997 
L 659.763603 -54.648703 
L 662.126847 -55.529583 
L 664.49009 -56.941952 
L 666.853333 -58.059295 
L 669.216577 -59.148624 
L 671.57982 -60.193374 
L 673.943063 -61.324185 
L 676.306307 -62.656073 
L 678.66955 -63.832217 
L 681.032794 -65.200793 
L 683.396037 -66.591098 
L 685.75928 -67.892231 
L 688.122524 -69.637356 
L 690.485767 -71.333811 
L 692.84901 -73.017133 
L 695.212254 -74.918559 
L 697.575497 -77.1026 
L 699.938741 -78.60702 
L 702.301984 -81.174778 
L 704.665227 -83.16029 
L 707.028471 -85.265409 
L 709.391714 -87.203337 
L 711.754957 -89.542126 
L 714.118201 -91.72813 
L 716.481444 -93.618038 
L 718.844687 -95.843905 
L 721.207931 -98.245799 
L 723.571174 -100.230325 
L 725.934418 -102.318819 
L 728.297661 -104.389045 
L 730.660904 -106.807643 
L 733.024148 -109.205974 
L 735.387391 -110.855228 
L 737.750634 -112.860446 
L 740.113878 -113.850767 
L 742.477121 -116.460268 
L 744.840365 -117.872513 
L 747.203608 -120.102072 
L 749.566851 -121.317413 
L 751.930095 -123.63826 
L 754.293338 -124.462441 
L 756.656581 -126.111296 
L 759.019825 -127.693249 
L 761.383068 -128.267204 
L 763.746312 -129.516807 
L 766.109555 -131.749134 
L 768.472798 -132.942721 
L 768.472798 -174.189137 
L 768.472798 -174.189137 
L 766.109555 -175.573019 
L 763.746312 -175.263547 
L 761.383068 -174.990789 
L 759.019825 -174.273455 
L 756.656581 -174.034012 
L 754.293338 -175.696459 
L 751.930095 -175.107019 
L 749.566851 -175.38899 
L 747.203608 -176.237333 
L 744.840365 -176.033832 
L 742.477121 -176.712082 
L 740.113878 -176.05938 
L 737.750634 -176.818629 
L 735.387391 -176.417972 
L 733.024148 -176.748752 
L 730.660904 -178.413087 
L 728.297661 -178.724847 
L 725.934418 -178.062977 
L 723.571174 -179.240773 
L 721.207931 -178.996128 
L 718.844687 -179.563033 
L 716.481444 -179.872355 
L 714.118201 -181.340896 
L 711.754957 -181.678318 
L 709.391714 -181.203458 
L 707.028471 -182.434576 
L 704.665227 -182.337707 
L 702.301984 -182.610563 
L 699.938741 -180.869495 
L 697.575497 -181.993324 
L 695.212254 -181.785083 
L 692.84901 -181.03597 
L 690.485767 -178.464836 
L 688.122524 -178.666115 
L 685.75928 -175.545121 
L 683.396037 -173.502497 
L 681.032794 -170.121831 
L 678.66955 -166.202919 
L 676.306307 -160.460476 
L 673.943063 -153.188304 
L 671.57982 -145.184947 
L 669.216577 -135.151801 
L 666.853333 -124.592348 
L 664.49009 -112.212328 
L 662.126847 -99.651596 
L 659.763603 -87.483666 
L 657.40036 -76.729887 
L 655.037116 -67.69473 
L 652.673873 -60.975498 
L 650.31063 -55.705687 
L 647.947386 -52.826177 
L 645.584143 -51.694003 
L 643.2209 -50.927459 
L 640.857656 -50.439123 
L 638.494413 -50.214026 
L 636.13117 -49.912369 
L 633.767926 -49.45952 
L 631.404683 -49.108689 
L 629.041439 -48.823163 
L 626.678196 -48.502956 
z
" style="stroke: #ff0000; stroke-opacity: 0.2"/>
    </defs>
    <g clip-path="url(#p98d9d3a09c)">
     <use xlink:href="#m2fb9e89ab7" x="0" y="250.56" style="fill: #ff0000; fill-opacity: 0.2; stroke: #ff0000; stroke-opacity: 0.2"/>
    </g>
   </g>
   <g id="PolyCollection_9">
    <defs>
     <path id="m8e4cfa085c" d="M 626.678196 -48.679545 
L 626.678196 -48.067429 
L 629.041439 -48.789444 
L 631.404683 -49.038722 
L 633.767926 -49.247066 
L 636.13117 -49.619873 
L 638.494413 -49.644217 
L 640.857656 -50.320534 
L 643.2209 -50.525908 
L 645.584143 -51.518342 
L 647.947386 -52.988737 
L 650.31063 -54.916212 
L 652.673873 -57.491191 
L 655.037116 -61.422032 
L 657.40036 -65.898864 
L 659.763603 -71.242198 
L 662.126847 -77.274055 
L 664.49009 -83.437865 
L 666.853333 -89.030787 
L 669.216577 -95.177318 
L 671.57982 -100.999097 
L 673.943063 -106.137719 
L 676.306307 -110.144888 
L 678.66955 -114.300283 
L 681.032794 -116.770099 
L 683.396037 -120.23638 
L 685.75928 -122.437951 
L 688.122524 -123.55209 
L 690.485767 -126.447708 
L 692.84901 -126.860654 
L 695.212254 -127.638593 
L 697.575497 -128.399693 
L 699.938741 -129.239449 
L 702.301984 -129.778861 
L 704.665227 -129.92029 
L 707.028471 -131.798518 
L 709.391714 -130.316382 
L 711.754957 -130.549825 
L 714.118201 -131.513004 
L 716.481444 -130.87229 
L 718.844687 -131.739651 
L 721.207931 -131.872997 
L 723.571174 -130.955537 
L 725.934418 -133.088389 
L 728.297661 -132.788568 
L 730.660904 -132.440664 
L 733.024148 -133.127027 
L 735.387391 -133.17073 
L 737.750634 -132.048079 
L 740.113878 -132.646295 
L 742.477121 -132.377268 
L 744.840365 -133.368926 
L 747.203608 -133.340904 
L 749.566851 -133.432921 
L 751.930095 -134.434428 
L 754.293338 -134.144513 
L 756.656581 -135.176207 
L 759.019825 -134.734893 
L 761.383068 -134.500127 
L 763.746312 -134.325684 
L 766.109555 -135.204913 
L 768.472798 -135.253101 
L 768.472798 -171.606907 
L 768.472798 -171.606907 
L 766.109555 -171.614318 
L 763.746312 -169.340084 
L 761.383068 -169.994785 
L 759.019825 -169.474575 
L 756.656581 -168.788596 
L 754.293338 -169.92903 
L 751.930095 -169.693485 
L 749.566851 -169.077484 
L 747.203608 -168.544245 
L 744.840365 -167.184157 
L 742.477121 -168.597183 
L 740.113878 -169.252446 
L 737.750634 -168.559374 
L 735.387391 -168.415384 
L 733.024148 -167.426056 
L 730.660904 -168.533787 
L 728.297661 -167.655775 
L 725.934418 -168.810353 
L 723.571174 -167.232449 
L 721.207931 -167.769388 
L 718.844687 -168.296916 
L 716.481444 -169.408943 
L 714.118201 -168.319676 
L 711.754957 -168.440119 
L 709.391714 -169.244448 
L 707.028471 -169.16234 
L 704.665227 -168.811397 
L 702.301984 -168.449903 
L 699.938741 -168.499984 
L 697.575497 -168.089229 
L 695.212254 -167.694966 
L 692.84901 -167.059284 
L 690.485767 -165.922683 
L 688.122524 -165.066769 
L 685.75928 -163.43522 
L 683.396037 -160.526007 
L 681.032794 -157.263995 
L 678.66955 -152.937556 
L 676.306307 -148.121894 
L 673.943063 -142.043419 
L 671.57982 -133.942936 
L 669.216577 -126.566387 
L 666.853333 -118.264079 
L 664.49009 -108.606204 
L 662.126847 -98.227928 
L 659.763603 -86.942925 
L 657.40036 -77.266535 
L 655.037116 -68.545039 
L 652.673873 -61.629056 
L 650.31063 -56.59223 
L 647.947386 -53.30018 
L 645.584143 -52.106444 
L 643.2209 -51.617294 
L 640.857656 -50.748859 
L 638.494413 -50.460108 
L 636.13117 -50.049491 
L 633.767926 -49.824228 
L 631.404683 -49.502464 
L 629.041439 -49.221634 
L 626.678196 -48.679545 
z
" style="stroke: #800000; stroke-opacity: 0.2"/>
    </defs>
    <g clip-path="url(#p98d9d3a09c)">
     <use xlink:href="#m8e4cfa085c" x="0" y="250.56" style="fill: #800000; fill-opacity: 0.2; stroke: #800000; stroke-opacity: 0.2"/>
    </g>
   </g>
   <g id="matplotlib.axis_5">
    <g id="xtick_7">
     <g id="line2d_31">
      <g>
       <use xlink:href="#ma415247ad6" x="626.678196" y="205.068125" style="stroke: #000000; stroke-width: 0.8"/>
      </g>
     </g>
     <g id="text_31">
      <!-- 0 -->
      <g transform="translate(623.496946 219.666562)scale(0.1 -0.1)">
       <use xlink:href="#DejaVuSans-30"/>
      </g>
     </g>
    </g>
    <g id="xtick_8">
     <g id="line2d_32">
      <g>
       <use xlink:href="#ma415247ad6" x="685.75928" y="205.068125" style="stroke: #000000; stroke-width: 0.8"/>
      </g>
     </g>
     <g id="text_32">
      <!-- 100 -->
      <g transform="translate(676.21553 219.666562)scale(0.1 -0.1)">
       <use xlink:href="#DejaVuSans-31"/>
       <use xlink:href="#DejaVuSans-30" x="63.623047"/>
       <use xlink:href="#DejaVuSans-30" x="127.246094"/>
      </g>
     </g>
    </g>
    <g id="xtick_9">
     <g id="line2d_33">
      <g>
       <use xlink:href="#ma415247ad6" x="744.840365" y="205.068125" style="stroke: #000000; stroke-width: 0.8"/>
      </g>
     </g>
     <g id="text_33">
      <!-- 200 -->
      <g transform="translate(735.296615 219.666562)scale(0.1 -0.1)">
       <use xlink:href="#DejaVuSans-32"/>
       <use xlink:href="#DejaVuSans-30" x="63.623047"/>
       <use xlink:href="#DejaVuSans-30" x="127.246094"/>
      </g>
     </g>
    </g>
    <g id="text_34">
     <!-- Time (min) -->
     <g transform="translate(664.992685 240.864375)scale(0.12 -0.12)">
      <use xlink:href="#DejaVuSans-54"/>
      <use xlink:href="#DejaVuSans-69" x="57.958984"/>
      <use xlink:href="#DejaVuSans-6d" x="85.742188"/>
      <use xlink:href="#DejaVuSans-65" x="183.154297"/>
      <use xlink:href="#DejaVuSans-20" x="244.677734"/>
      <use xlink:href="#DejaVuSans-28" x="276.464844"/>
      <use xlink:href="#DejaVuSans-6d" x="315.478516"/>
      <use xlink:href="#DejaVuSans-69" x="412.890625"/>
      <use xlink:href="#DejaVuSans-6e" x="440.673828"/>
      <use xlink:href="#DejaVuSans-29" x="504.052734"/>
     </g>
    </g>
   </g>
   <g id="matplotlib.axis_6">
    <g id="ytick_13">
     <g id="line2d_34">
      <g>
       <use xlink:href="#me63e444bea" x="619.588466" y="205.068125" style="stroke: #000000; stroke-width: 0.8"/>
      </g>
     </g>
     <g id="text_35">
      <!-- 0.0 -->
      <g transform="translate(596.685341 208.867344)scale(0.1 -0.1)">
       <use xlink:href="#DejaVuSans-30"/>
       <use xlink:href="#DejaVuSans-2e" x="63.623047"/>
       <use xlink:href="#DejaVuSans-30" x="95.410156"/>
      </g>
     </g>
    </g>
    <g id="ytick_14">
     <g id="line2d_35">
      <g>
       <use xlink:href="#me63e444bea" x="619.588466" y="173.873312" style="stroke: #000000; stroke-width: 0.8"/>
      </g>
     </g>
     <g id="text_36">
      <!-- 0.2 -->
      <g transform="translate(596.685341 177.672531)scale(0.1 -0.1)">
       <use xlink:href="#DejaVuSans-30"/>
       <use xlink:href="#DejaVuSans-2e" x="63.623047"/>
       <use xlink:href="#DejaVuSans-32" x="95.410156"/>
      </g>
     </g>
    </g>
    <g id="ytick_15">
     <g id="line2d_36">
      <g>
       <use xlink:href="#me63e444bea" x="619.588466" y="142.6785" style="stroke: #000000; stroke-width: 0.8"/>
      </g>
     </g>
     <g id="text_37">
      <!-- 0.4 -->
      <g transform="translate(596.685341 146.477719)scale(0.1 -0.1)">
       <use xlink:href="#DejaVuSans-30"/>
       <use xlink:href="#DejaVuSans-2e" x="63.623047"/>
       <use xlink:href="#DejaVuSans-34" x="95.410156"/>
      </g>
     </g>
    </g>
    <g id="ytick_16">
     <g id="line2d_37">
      <g>
       <use xlink:href="#me63e444bea" x="619.588466" y="111.483687" style="stroke: #000000; stroke-width: 0.8"/>
      </g>
     </g>
     <g id="text_38">
      <!-- 0.6 -->
      <g transform="translate(596.685341 115.282906)scale(0.1 -0.1)">
       <use xlink:href="#DejaVuSans-30"/>
       <use xlink:href="#DejaVuSans-2e" x="63.623047"/>
       <use xlink:href="#DejaVuSans-36" x="95.410156"/>
      </g>
     </g>
    </g>
    <g id="ytick_17">
     <g id="line2d_38">
      <g>
       <use xlink:href="#me63e444bea" x="619.588466" y="80.288875" style="stroke: #000000; stroke-width: 0.8"/>
      </g>
     </g>
     <g id="text_39">
      <!-- 0.8 -->
      <g transform="translate(596.685341 84.088094)scale(0.1 -0.1)">
       <use xlink:href="#DejaVuSans-30"/>
       <use xlink:href="#DejaVuSans-2e" x="63.623047"/>
       <use xlink:href="#DejaVuSans-38" x="95.410156"/>
      </g>
     </g>
    </g>
    <g id="ytick_18">
     <g id="line2d_39">
      <g>
       <use xlink:href="#me63e444bea" x="619.588466" y="49.094062" style="stroke: #000000; stroke-width: 0.8"/>
      </g>
     </g>
     <g id="text_40">
      <!-- 1.0 -->
      <g transform="translate(596.685341 52.893281)scale(0.1 -0.1)">
       <use xlink:href="#DejaVuSans-31"/>
       <use xlink:href="#DejaVuSans-2e" x="63.623047"/>
       <use xlink:href="#DejaVuSans-30" x="95.410156"/>
      </g>
     </g>
    </g>
   </g>
   <g id="line2d_40">
    <path d="M 626.678196 201.669997 
L 629.041439 201.228241 
L 631.404683 200.888428 
L 633.767926 200.63017 
L 636.13117 200.501041 
L 638.494413 200.14084 
L 640.857656 199.726268 
L 643.2209 199.685491 
L 645.584143 199.291308 
L 647.947386 198.965088 
L 650.31063 198.666052 
L 652.673873 198.108759 
L 655.037116 197.959242 
L 657.40036 197.320394 
L 659.763603 196.688342 
L 662.126847 196.144642 
L 664.49009 195.45822 
L 666.853333 194.778594 
L 669.216577 194.02421 
L 671.57982 193.222252 
L 673.943063 192.467867 
L 676.306307 191.693094 
L 678.66955 191.095024 
L 681.032794 190.136752 
L 683.396037 189.552274 
L 685.75928 188.838667 
L 688.122524 188.335744 
L 690.485767 187.465823 
L 692.84901 187.030863 
L 695.212254 186.181331 
L 697.575497 185.386169 
L 699.938741 184.557026 
L 702.301984 183.646328 
L 704.665227 182.654075 
L 707.028471 181.811339 
L 709.391714 180.703549 
L 711.754957 179.799647 
L 714.118201 178.671469 
L 716.481444 177.652031 
L 718.844687 176.285983 
L 721.207931 174.96751 
L 723.571174 173.80535 
L 725.934418 172.446099 
L 728.297661 170.978108 
L 730.660904 169.652838 
L 733.024148 168.572233 
L 735.387391 167.376092 
L 737.750634 165.948879 
L 740.113878 165.078958 
L 742.477121 164.181852 
L 744.840365 163.209988 
L 747.203608 162.401233 
L 749.566851 161.232277 
L 751.930095 160.736151 
L 754.293338 159.934193 
L 756.656581 159.743897 
L 759.019825 158.738052 
L 761.383068 158.146777 
L 763.746312 157.936093 
L 766.109555 157.854538 
L 768.472798 157.569096 
" clip-path="url(#p98d9d3a09c)" style="fill: none; stroke: #f08080; stroke-width: 2; stroke-linecap: square"/>
   </g>
   <g id="line2d_41">
    <path d="M 626.678196 202.261272 
L 629.041439 201.799126 
L 631.404683 201.547665 
L 633.767926 201.201056 
L 636.13117 200.806873 
L 638.494413 200.419486 
L 640.857656 200.174821 
L 643.2209 199.875786 
L 645.584143 199.236938 
L 647.947386 198.502942 
L 650.31063 196.899026 
L 652.673873 194.010617 
L 655.037116 190.218307 
L 657.40036 185.406558 
L 659.763603 179.493816 
L 662.126847 172.969411 
L 664.49009 165.98286 
L 666.853333 159.234178 
L 669.216577 153.409787 
L 671.57982 147.870839 
L 673.943063 143.303756 
L 676.306307 139.001726 
L 678.66955 135.542432 
L 681.032794 132.898688 
L 683.396037 130.513203 
L 685.75928 128.841324 
L 688.122524 126.408264 
L 690.485767 125.660676 
L 692.84901 123.533448 
L 695.212254 122.208179 
L 697.575497 121.012038 
L 699.938741 120.821742 
L 702.301984 118.66733 
L 704.665227 117.811001 
L 707.028471 116.710008 
L 709.391714 116.356603 
L 711.754957 114.949778 
L 714.118201 114.025487 
L 716.481444 113.814803 
L 718.844687 112.856531 
L 721.207931 111.939037 
L 723.571174 110.824451 
L 725.934418 110.369102 
L 728.297661 109.003054 
L 730.660904 107.949635 
L 733.024148 107.582637 
L 735.387391 106.9234 
L 737.750634 105.720463 
L 740.113878 105.604927 
L 742.477121 103.973825 
L 744.840365 103.606827 
L 747.203608 102.390298 
L 749.566851 102.206799 
L 751.930095 101.18736 
L 754.293338 100.48055 
L 756.656581 100.487346 
L 759.019825 99.576648 
L 761.383068 98.931004 
L 763.746312 98.169823 
L 766.109555 96.898923 
L 768.472798 96.994071 
" clip-path="url(#p98d9d3a09c)" style="fill: none; stroke: #ff0000; stroke-width: 2; stroke-linecap: square"/>
   </g>
   <g id="line2d_42">
    <path d="M 626.678196 202.186513 
L 629.041439 201.554461 
L 631.404683 201.289407 
L 633.767926 201.024353 
L 636.13117 200.725318 
L 638.494413 200.507838 
L 640.857656 200.025303 
L 643.2209 199.488399 
L 645.584143 198.747607 
L 647.947386 197.415541 
L 650.31063 194.805779 
L 652.673873 190.999876 
L 655.037116 185.576464 
L 657.40036 178.9773 
L 659.763603 171.467438 
L 662.126847 162.809009 
L 664.49009 154.537966 
L 666.853333 146.912567 
L 669.216577 139.688148 
L 671.57982 133.088984 
L 673.943063 126.469431 
L 676.306307 121.426609 
L 678.66955 116.941081 
L 681.032794 113.542953 
L 683.396037 110.178806 
L 685.75928 107.623414 
L 688.122524 106.250571 
L 690.485767 104.374804 
L 692.84901 103.600031 
L 695.212254 102.893221 
L 697.575497 102.315539 
L 699.938741 101.690283 
L 702.301984 101.445618 
L 704.665227 101.194157 
L 707.028471 100.079571 
L 709.391714 100.779585 
L 711.754957 101.065028 
L 714.118201 100.64366 
L 716.481444 100.419384 
L 718.844687 100.541716 
L 721.207931 100.738808 
L 723.571174 101.466007 
L 725.934418 99.610629 
L 728.297661 100.337829 
L 730.660904 100.072775 
L 733.024148 100.283459 
L 735.387391 99.766943 
L 737.750634 100.256274 
L 740.113878 99.610629 
L 742.477121 100.072775 
L 744.840365 100.283459 
L 747.203608 99.617425 
L 749.566851 99.304798 
L 751.930095 98.496043 
L 754.293338 98.523228 
L 756.656581 98.577598 
L 759.019825 98.455266 
L 761.383068 98.312544 
L 763.746312 98.727116 
L 766.109555 97.150385 
L 768.472798 97.129996 
" clip-path="url(#p98d9d3a09c)" style="fill: none; stroke: #800000; stroke-width: 2; stroke-linecap: square"/>
   </g>
   <g id="patch_11">
    <path d="M 619.588466 205.068125 
L 619.588466 49.094062 
" style="fill: none; stroke: #000000; stroke-width: 0.8; stroke-linejoin: miter; stroke-linecap: square"/>
   </g>
   <g id="patch_12">
    <path d="M 619.588466 205.068125 
L 775.562528 205.068125 
" style="fill: none; stroke: #000000; stroke-width: 0.8; stroke-linejoin: miter; stroke-linecap: square"/>
   </g>
   <g id="text_41">
    <!-- vRNA = 10fM -->
    <g transform="translate(660.632528 43.094062)scale(0.1 -0.1)">
     <use xlink:href="#DejaVuSans-Bold-76"/>
     <use xlink:href="#DejaVuSans-Bold-52" x="65.185547"/>
     <use xlink:href="#DejaVuSans-Bold-4e" x="142.1875"/>
     <use xlink:href="#DejaVuSans-Bold-41" x="225.878906"/>
     <use xlink:href="#DejaVuSans-Bold-20" x="303.271484"/>
     <use xlink:href="#DejaVuSans-Bold-3d" x="338.085938"/>
     <use xlink:href="#DejaVuSans-Bold-20" x="421.875"/>
     <use xlink:href="#DejaVuSans-Bold-31" x="456.689453"/>
     <use xlink:href="#DejaVuSans-Bold-30" x="526.269531"/>
     <use xlink:href="#DejaVuSans-Bold-66" x="595.849609"/>
     <use xlink:href="#DejaVuSans-Bold-4d" x="639.355469"/>
    </g>
   </g>
   <g id="legend_3">
    <g id="patch_13">
     <path d="M 626.588466 101.128437 
L 722.315028 101.128437 
Q 724.315028 101.128437 724.315028 99.128437 
L 724.315028 56.094062 
Q 724.315028 54.094062 722.315028 54.094062 
L 626.588466 54.094062 
Q 624.588466 54.094062 624.588466 56.094062 
L 624.588466 99.128437 
Q 624.588466 101.128437 626.588466 101.128437 
z
" style="fill: #ffffff; opacity: 0.8; stroke: #cccccc; stroke-linejoin: miter"/>
    </g>
    <g id="line2d_43">
     <path d="M 628.588466 62.1925 
L 638.588466 62.1925 
L 648.588466 62.1925 
" style="fill: none; stroke: #f08080; stroke-width: 2; stroke-linecap: square"/>
    </g>
    <g id="text_42">
     <!-- RNase 0.001 -->
     <g transform="translate(656.588466 65.6925)scale(0.1 -0.1)">
      <use xlink:href="#DejaVuSans-52"/>
      <use xlink:href="#DejaVuSans-4e" x="69.482422"/>
      <use xlink:href="#DejaVuSans-61" x="144.287109"/>
      <use xlink:href="#DejaVuSans-73" x="205.566406"/>
      <use xlink:href="#DejaVuSans-65" x="257.666016"/>
      <use xlink:href="#DejaVuSans-20" x="319.189453"/>
      <use xlink:href="#DejaVuSans-30" x="350.976562"/>
      <use xlink:href="#DejaVuSans-2e" x="414.599609"/>
      <use xlink:href="#DejaVuSans-30" x="446.386719"/>
      <use xlink:href="#DejaVuSans-30" x="510.009766"/>
      <use xlink:href="#DejaVuSans-31" x="573.632812"/>
     </g>
    </g>
    <g id="line2d_44">
     <path d="M 628.588466 76.870625 
L 638.588466 76.870625 
L 648.588466 76.870625 
" style="fill: none; stroke: #ff0000; stroke-width: 2; stroke-linecap: square"/>
    </g>
    <g id="text_43">
     <!-- RNase 0.005 -->
     <g transform="translate(656.588466 80.370625)scale(0.1 -0.1)">
      <use xlink:href="#DejaVuSans-52"/>
      <use xlink:href="#DejaVuSans-4e" x="69.482422"/>
      <use xlink:href="#DejaVuSans-61" x="144.287109"/>
      <use xlink:href="#DejaVuSans-73" x="205.566406"/>
      <use xlink:href="#DejaVuSans-65" x="257.666016"/>
      <use xlink:href="#DejaVuSans-20" x="319.189453"/>
      <use xlink:href="#DejaVuSans-30" x="350.976562"/>
      <use xlink:href="#DejaVuSans-2e" x="414.599609"/>
      <use xlink:href="#DejaVuSans-30" x="446.386719"/>
      <use xlink:href="#DejaVuSans-30" x="510.009766"/>
      <use xlink:href="#DejaVuSans-35" x="573.632812"/>
     </g>
    </g>
    <g id="line2d_45">
     <path d="M 628.588466 91.54875 
L 638.588466 91.54875 
L 648.588466 91.54875 
" style="fill: none; stroke: #800000; stroke-width: 2; stroke-linecap: square"/>
    </g>
    <g id="text_44">
     <!-- RNase 0.02 -->
     <g transform="translate(656.588466 95.04875)scale(0.1 -0.1)">
      <use xlink:href="#DejaVuSans-52"/>
      <use xlink:href="#DejaVuSans-4e" x="69.482422"/>
      <use xlink:href="#DejaVuSans-61" x="144.287109"/>
      <use xlink:href="#DejaVuSans-73" x="205.566406"/>
      <use xlink:href="#DejaVuSans-65" x="257.666016"/>
      <use xlink:href="#DejaVuSans-20" x="319.189453"/>
      <use xlink:href="#DejaVuSans-30" x="350.976562"/>
      <use xlink:href="#DejaVuSans-2e" x="414.599609"/>
      <use xlink:href="#DejaVuSans-30" x="446.386719"/>
      <use xlink:href="#DejaVuSans-32" x="510.009766"/>
     </g>
    </g>
   </g>
  </g>
  <g id="text_45">
   <!-- RNase_Sweep_Cas13=90 rep1 -->
   <g transform="translate(295.162827 16.10625)scale(0.12 -0.12)">
    <defs>
     <path id="DejaVuSans-Bold-61" d="M 2106 1575 
Q 1756 1575 1579 1456 
Q 1403 1338 1403 1106 
Q 1403 894 1545 773 
Q 1688 653 1941 653 
Q 2256 653 2472 879 
Q 2688 1106 2688 1447 
L 2688 1575 
L 2106 1575 
z
M 3816 1997 
L 3816 0 
L 2688 0 
L 2688 519 
Q 2463 200 2181 54 
Q 1900 -91 1497 -91 
Q 953 -91 614 226 
Q 275 544 275 1050 
Q 275 1666 698 1953 
Q 1122 2241 2028 2241 
L 2688 2241 
L 2688 2328 
Q 2688 2594 2478 2717 
Q 2269 2841 1825 2841 
Q 1466 2841 1156 2769 
Q 847 2697 581 2553 
L 581 3406 
Q 941 3494 1303 3539 
Q 1666 3584 2028 3584 
Q 2975 3584 3395 3211 
Q 3816 2838 3816 1997 
z
" transform="scale(0.015625)"/>
     <path id="DejaVuSans-Bold-73" d="M 3272 3391 
L 3272 2541 
Q 2913 2691 2578 2766 
Q 2244 2841 1947 2841 
Q 1628 2841 1473 2761 
Q 1319 2681 1319 2516 
Q 1319 2381 1436 2309 
Q 1553 2238 1856 2203 
L 2053 2175 
Q 2913 2066 3209 1816 
Q 3506 1566 3506 1031 
Q 3506 472 3093 190 
Q 2681 -91 1863 -91 
Q 1516 -91 1145 -36 
Q 775 19 384 128 
L 384 978 
Q 719 816 1070 734 
Q 1422 653 1784 653 
Q 2113 653 2278 743 
Q 2444 834 2444 1013 
Q 2444 1163 2330 1236 
Q 2216 1309 1875 1350 
L 1678 1375 
Q 931 1469 631 1722 
Q 331 1975 331 2491 
Q 331 3047 712 3315 
Q 1094 3584 1881 3584 
Q 2191 3584 2531 3537 
Q 2872 3491 3272 3391 
z
" transform="scale(0.015625)"/>
     <path id="DejaVuSans-Bold-65" d="M 4031 1759 
L 4031 1441 
L 1416 1441 
Q 1456 1047 1700 850 
Q 1944 653 2381 653 
Q 2734 653 3104 758 
Q 3475 863 3866 1075 
L 3866 213 
Q 3469 63 3072 -14 
Q 2675 -91 2278 -91 
Q 1328 -91 801 392 
Q 275 875 275 1747 
Q 275 2603 792 3093 
Q 1309 3584 2216 3584 
Q 3041 3584 3536 3087 
Q 4031 2591 4031 1759 
z
M 2881 2131 
Q 2881 2450 2695 2645 
Q 2509 2841 2209 2841 
Q 1884 2841 1681 2658 
Q 1478 2475 1428 2131 
L 2881 2131 
z
" transform="scale(0.015625)"/>
     <path id="DejaVuSans-Bold-5f" d="M 3200 -916 
L 3200 -1509 
L 0 -1509 
L 0 -916 
L 3200 -916 
z
" transform="scale(0.015625)"/>
     <path id="DejaVuSans-Bold-53" d="M 3834 4519 
L 3834 3531 
Q 3450 3703 3084 3790 
Q 2719 3878 2394 3878 
Q 1963 3878 1756 3759 
Q 1550 3641 1550 3391 
Q 1550 3203 1689 3098 
Q 1828 2994 2194 2919 
L 2706 2816 
Q 3484 2659 3812 2340 
Q 4141 2022 4141 1434 
Q 4141 663 3683 286 
Q 3225 -91 2284 -91 
Q 1841 -91 1394 -6 
Q 947 78 500 244 
L 500 1259 
Q 947 1022 1364 901 
Q 1781 781 2169 781 
Q 2563 781 2772 912 
Q 2981 1044 2981 1288 
Q 2981 1506 2839 1625 
Q 2697 1744 2272 1838 
L 1806 1941 
Q 1106 2091 782 2419 
Q 459 2747 459 3303 
Q 459 4000 909 4375 
Q 1359 4750 2203 4750 
Q 2588 4750 2994 4692 
Q 3400 4634 3834 4519 
z
" transform="scale(0.015625)"/>
     <path id="DejaVuSans-Bold-77" d="M 225 3500 
L 1313 3500 
L 1900 1088 
L 2491 3500 
L 3425 3500 
L 4013 1113 
L 4603 3500 
L 5691 3500 
L 4769 0 
L 3547 0 
L 2956 2406 
L 2369 0 
L 1147 0 
L 225 3500 
z
" transform="scale(0.015625)"/>
     <path id="DejaVuSans-Bold-70" d="M 1656 506 
L 1656 -1331 
L 538 -1331 
L 538 3500 
L 1656 3500 
L 1656 2988 
Q 1888 3294 2169 3439 
Q 2450 3584 2816 3584 
Q 3463 3584 3878 3070 
Q 4294 2556 4294 1747 
Q 4294 938 3878 423 
Q 3463 -91 2816 -91 
Q 2450 -91 2169 54 
Q 1888 200 1656 506 
z
M 2400 2772 
Q 2041 2772 1848 2508 
Q 1656 2244 1656 1747 
Q 1656 1250 1848 986 
Q 2041 722 2400 722 
Q 2759 722 2948 984 
Q 3138 1247 3138 1747 
Q 3138 2247 2948 2509 
Q 2759 2772 2400 2772 
z
" transform="scale(0.015625)"/>
     <path id="DejaVuSans-Bold-43" d="M 4288 256 
Q 3956 84 3597 -3 
Q 3238 -91 2847 -91 
Q 1681 -91 1000 561 
Q 319 1213 319 2328 
Q 319 3447 1000 4098 
Q 1681 4750 2847 4750 
Q 3238 4750 3597 4662 
Q 3956 4575 4288 4403 
L 4288 3438 
Q 3953 3666 3628 3772 
Q 3303 3878 2944 3878 
Q 2300 3878 1931 3465 
Q 1563 3053 1563 2328 
Q 1563 1606 1931 1193 
Q 2300 781 2944 781 
Q 3303 781 3628 887 
Q 3953 994 4288 1222 
L 4288 256 
z
" transform="scale(0.015625)"/>
     <path id="DejaVuSans-Bold-33" d="M 2981 2516 
Q 3453 2394 3698 2092 
Q 3944 1791 3944 1325 
Q 3944 631 3412 270 
Q 2881 -91 1863 -91 
Q 1503 -91 1142 -33 
Q 781 25 428 141 
L 428 1069 
Q 766 900 1098 814 
Q 1431 728 1753 728 
Q 2231 728 2486 893 
Q 2741 1059 2741 1369 
Q 2741 1688 2480 1852 
Q 2219 2016 1709 2016 
L 1228 2016 
L 1228 2791 
L 1734 2791 
Q 2188 2791 2409 2933 
Q 2631 3075 2631 3366 
Q 2631 3634 2415 3781 
Q 2200 3928 1806 3928 
Q 1516 3928 1219 3862 
Q 922 3797 628 3669 
L 628 4550 
Q 984 4650 1334 4700 
Q 1684 4750 2022 4750 
Q 2931 4750 3382 4451 
Q 3834 4153 3834 3553 
Q 3834 3144 3618 2883 
Q 3403 2622 2981 2516 
z
" transform="scale(0.015625)"/>
     <path id="DejaVuSans-Bold-39" d="M 641 103 
L 641 966 
Q 928 831 1190 764 
Q 1453 697 1709 697 
Q 2247 697 2547 995 
Q 2847 1294 2900 1881 
Q 2688 1725 2447 1647 
Q 2206 1569 1925 1569 
Q 1209 1569 770 1986 
Q 331 2403 331 3084 
Q 331 3838 820 4291 
Q 1309 4744 2131 4744 
Q 3044 4744 3544 4128 
Q 4044 3513 4044 2388 
Q 4044 1231 3459 570 
Q 2875 -91 1856 -91 
Q 1528 -91 1228 -42 
Q 928 6 641 103 
z
M 2125 2350 
Q 2441 2350 2600 2554 
Q 2759 2759 2759 3169 
Q 2759 3575 2600 3781 
Q 2441 3988 2125 3988 
Q 1809 3988 1650 3781 
Q 1491 3575 1491 3169 
Q 1491 2759 1650 2554 
Q 1809 2350 2125 2350 
z
" transform="scale(0.015625)"/>
     <path id="DejaVuSans-Bold-72" d="M 3138 2547 
Q 2991 2616 2845 2648 
Q 2700 2681 2553 2681 
Q 2122 2681 1889 2404 
Q 1656 2128 1656 1613 
L 1656 0 
L 538 0 
L 538 3500 
L 1656 3500 
L 1656 2925 
Q 1872 3269 2151 3426 
Q 2431 3584 2822 3584 
Q 2878 3584 2943 3579 
Q 3009 3575 3134 3559 
L 3138 2547 
z
" transform="scale(0.015625)"/>
    </defs>
    <use xlink:href="#DejaVuSans-Bold-52"/>
    <use xlink:href="#DejaVuSans-Bold-4e" x="77.001953"/>
    <use xlink:href="#DejaVuSans-Bold-61" x="160.693359"/>
    <use xlink:href="#DejaVuSans-Bold-73" x="228.173828"/>
    <use xlink:href="#DejaVuSans-Bold-65" x="287.695312"/>
    <use xlink:href="#DejaVuSans-Bold-5f" x="355.517578"/>
    <use xlink:href="#DejaVuSans-Bold-53" x="405.517578"/>
    <use xlink:href="#DejaVuSans-Bold-77" x="477.539062"/>
    <use xlink:href="#DejaVuSans-Bold-65" x="569.921875"/>
    <use xlink:href="#DejaVuSans-Bold-65" x="637.744141"/>
    <use xlink:href="#DejaVuSans-Bold-70" x="705.566406"/>
    <use xlink:href="#DejaVuSans-Bold-5f" x="777.148438"/>
    <use xlink:href="#DejaVuSans-Bold-43" x="827.148438"/>
    <use xlink:href="#DejaVuSans-Bold-61" x="900.537109"/>
    <use xlink:href="#DejaVuSans-Bold-73" x="968.017578"/>
    <use xlink:href="#DejaVuSans-Bold-31" x="1027.539062"/>
    <use xlink:href="#DejaVuSans-Bold-33" x="1097.119141"/>
    <use xlink:href="#DejaVuSans-Bold-3d" x="1166.699219"/>
    <use xlink:href="#DejaVuSans-Bold-39" x="1250.488281"/>
    <use xlink:href="#DejaVuSans-Bold-30" x="1320.068359"/>
    <use xlink:href="#DejaVuSans-Bold-20" x="1389.648438"/>
    <use xlink:href="#DejaVuSans-Bold-72" x="1424.462891"/>
    <use xlink:href="#DejaVuSans-Bold-65" x="1473.779297"/>
    <use xlink:href="#DejaVuSans-Bold-70" x="1541.601562"/>
    <use xlink:href="#DejaVuSans-Bold-31" x="1613.183594"/>
   </g>
  </g>
 </g>
 <defs>
  <clipPath id="p051acd7e5c">
   <rect x="51.716875" y="49.094062" width="155.974063" height="155.974063"/>
  </clipPath>
  <clipPath id="pab9eaae1e3">
   <rect x="335.65267" y="49.094062" width="155.974063" height="155.974063"/>
  </clipPath>
  <clipPath id="p98d9d3a09c">
   <rect x="619.588466" y="49.094062" width="155.974063" height="155.974063"/>
  </clipPath>
 </defs>
</svg>
