<?xml version="1.0" encoding="utf-8" standalone="no"?>
<!DOCTYPE svg PUBLIC "-//W3C//DTD SVG 1.1//EN"
  "http://www.w3.org/Graphics/SVG/1.1/DTD/svg11.dtd">
<svg xmlns:xlink="http://www.w3.org/1999/xlink" width="782.762528pt" height="250.56pt" viewBox="0 0 782.762528 250.56" xmlns="http://www.w3.org/2000/svg" version="1.1">
 <metadata>
  <rdf:RDF xmlns:dc="http://purl.org/dc/elements/1.1/" xmlns:cc="http://creativecommons.org/ns#" xmlns:rdf="http://www.w3.org/1999/02/22-rdf-syntax-ns#">
   <cc:Work>
    <dc:type rdf:resource="http://purl.org/dc/dcmitype/StillImage"/>
    <dc:date>2022-12-02T20:15:38.202509</dc:date>
    <dc:format>image/svg+xml</dc:format>
    <dc:creator>
     <cc:Agent>
      <dc:title>Matplotlib v3.5.1, https://matplotlib.org/</dc:title>
     </cc:Agent>
    </dc:creator>
   </cc:Work>
  </rdf:RDF>
 </metadata>
 <defs>
  <style type="text/css">*{stroke-linejoin: round; stroke-linecap: butt}</style>
 </defs>
 <g id="figure_1">
  <g id="patch_1">
   <path d="M 0 250.56 
L 782.762528 250.56 
L 782.762528 -0 
L 0 -0 
L 0 250.56 
z
" style="fill: none"/>
  </g>
  <g id="axes_1">
   <g id="patch_2">
    <path d="M 51.716875 205.068125 
L 207.690938 205.068125 
L 207.690938 49.094062 
L 51.716875 49.094062 
z
" style="fill: #ffffff"/>
   </g>
   <g id="PolyCollection_1">
    <defs>
     <path id="m5818970925" d="M 58.806605 -50.32131 
L 58.806605 -49.696745 
L 61.169848 -50.228415 
L 63.533092 -50.684239 
L 65.896335 -50.946321 
L 68.259579 -51.120433 
L 70.622822 -51.704542 
L 72.986065 -51.772821 
L 75.349309 -52.179171 
L 77.712552 -52.28769 
L 80.075795 -52.437706 
L 82.439039 -52.774556 
L 84.802282 -53.038442 
L 87.165526 -53.605134 
L 89.528769 -53.893616 
L 91.892012 -53.96053 
L 94.255256 -54.293024 
L 96.618499 -54.649031 
L 98.981742 -55.025182 
L 101.344986 -55.219406 
L 103.708229 -55.370552 
L 106.071473 -55.669643 
L 108.434716 -56.361234 
L 110.797959 -56.642063 
L 113.161203 -56.952176 
L 115.524446 -57.273305 
L 117.887689 -57.535299 
L 120.250933 -58.182587 
L 122.614176 -58.267729 
L 124.97742 -58.753344 
L 127.340663 -58.919787 
L 129.703906 -59.57435 
L 132.06715 -60.148995 
L 134.430393 -60.0614 
L 136.793636 -60.720512 
L 139.15688 -60.892062 
L 141.520123 -61.117577 
L 143.883366 -61.85829 
L 146.24661 -62.159011 
L 148.609853 -62.349613 
L 150.973097 -62.936384 
L 153.33634 -63.338769 
L 155.699583 -63.310966 
L 158.062827 -63.937934 
L 160.42607 -64.056648 
L 162.789313 -64.410566 
L 165.152557 -64.404757 
L 167.5158 -64.953129 
L 169.879044 -65.134195 
L 172.242287 -65.619872 
L 174.60553 -66.022543 
L 176.968774 -66.177055 
L 179.332017 -66.268462 
L 181.69526 -66.337559 
L 184.058504 -67.130311 
L 186.421747 -66.966398 
L 188.784991 -67.301619 
L 191.148234 -67.191556 
L 193.511477 -67.616954 
L 195.874721 -67.780702 
L 198.237964 -68.05278 
L 200.601207 -68.202855 
L 200.601207 -69.596739 
L 200.601207 -69.596739 
L 198.237964 -69.123107 
L 195.874721 -68.771477 
L 193.511477 -68.217017 
L 191.148234 -68.15101 
L 188.784991 -67.946446 
L 186.421747 -67.884762 
L 184.058504 -67.248343 
L 181.69526 -67.190585 
L 179.332017 -66.824977 
L 176.968774 -67.143187 
L 174.60553 -66.976395 
L 172.242287 -66.226153 
L 169.879044 -66.220424 
L 167.5158 -65.437579 
L 165.152557 -65.513445 
L 162.789313 -65.035131 
L 160.42607 -64.746441 
L 158.062827 -64.260348 
L 155.699583 -64.41481 
L 153.33634 -64.141305 
L 150.973097 -63.617579 
L 148.609853 -63.202639 
L 146.24661 -62.599431 
L 143.883366 -62.087443 
L 141.520123 -62.336751 
L 139.15688 -61.560553 
L 136.793636 -61.032795 
L 134.430393 -60.765797 
L 132.06715 -60.602601 
L 129.703906 -60.213334 
L 127.340663 -59.563783 
L 124.97742 -59.503423 
L 122.614176 -58.911725 
L 120.250933 -58.524362 
L 117.887689 -57.867535 
L 115.524446 -57.713724 
L 113.161203 -57.354445 
L 110.797959 -56.92745 
L 108.434716 -56.565671 
L 106.071473 -56.066548 
L 103.708229 -55.798633 
L 101.344986 -55.401673 
L 98.981742 -55.123391 
L 96.618499 -54.819133 
L 94.255256 -54.664835 
L 91.892012 -54.222419 
L 89.528769 -54.043631 
L 87.165526 -53.670606 
L 84.802282 -53.481288 
L 82.439039 -53.31047 
L 80.075795 -52.77791 
L 77.712552 -52.587722 
L 75.349309 -52.393837 
L 72.986065 -52.384382 
L 70.622822 -51.791154 
L 68.259579 -51.31685 
L 65.896335 -51.150758 
L 63.533092 -50.826933 
L 61.169848 -50.621249 
L 58.806605 -50.32131 
z
" style="stroke: #b0c4de; stroke-opacity: 0.2"/>
    </defs>
    <g clip-path="url(#p95e0aaa2f3)">
     <use xlink:href="#m5818970925" x="0" y="250.56" style="fill: #b0c4de; fill-opacity: 0.2; stroke: #b0c4de; stroke-opacity: 0.2"/>
    </g>
   </g>
   <g id="PolyCollection_2">
    <defs>
     <path id="ma0eb264d14" d="M 58.806605 -50.173247 
L 58.806605 -46.064764 
L 61.169848 -46.224323 
L 63.533092 -46.187309 
L 65.896335 -46.241097 
L 68.259579 -46.26945 
L 70.622822 -46.626485 
L 72.986065 -46.478679 
L 75.349309 -46.464503 
L 77.712552 -46.392395 
L 80.075795 -46.542052 
L 82.439039 -46.611218 
L 84.802282 -46.385149 
L 87.165526 -46.491209 
L 89.528769 -46.798523 
L 91.892012 -46.805857 
L 94.255256 -46.738857 
L 96.618499 -46.861036 
L 98.981742 -46.819282 
L 101.344986 -46.722466 
L 103.708229 -46.784951 
L 106.071473 -46.630755 
L 108.434716 -46.839563 
L 110.797959 -47.010229 
L 113.161203 -47.076582 
L 115.524446 -46.947284 
L 117.887689 -47.195147 
L 120.250933 -47.180853 
L 122.614176 -47.132475 
L 124.97742 -46.91848 
L 127.340663 -47.344201 
L 129.703906 -47.231763 
L 132.06715 -47.154255 
L 134.430393 -47.221215 
L 136.793636 -47.156093 
L 139.15688 -47.04842 
L 141.520123 -47.125028 
L 143.883366 -47.653351 
L 146.24661 -47.53633 
L 148.609853 -47.589609 
L 150.973097 -47.263339 
L 153.33634 -47.302583 
L 155.699583 -47.290149 
L 158.062827 -47.42504 
L 160.42607 -47.398697 
L 162.789313 -47.461685 
L 165.152557 -47.609765 
L 167.5158 -47.237021 
L 169.879044 -47.43389 
L 172.242287 -47.373847 
L 174.60553 -47.340537 
L 176.968774 -47.500554 
L 179.332017 -47.450451 
L 181.69526 -47.45392 
L 184.058504 -47.825265 
L 186.421747 -47.590359 
L 188.784991 -47.796078 
L 191.148234 -47.598999 
L 193.511477 -47.740456 
L 195.874721 -47.444686 
L 198.237964 -47.472719 
L 200.601207 -47.429423 
L 200.601207 -65.27068 
L 200.601207 -65.27068 
L 198.237964 -65.170683 
L 195.874721 -64.556108 
L 193.511477 -64.789544 
L 191.148234 -64.723099 
L 188.784991 -64.733923 
L 186.421747 -64.82624 
L 184.058504 -64.496833 
L 181.69526 -64.20667 
L 179.332017 -64.096738 
L 176.968774 -64.027735 
L 174.60553 -63.677446 
L 172.242287 -63.889838 
L 169.879044 -63.980997 
L 167.5158 -63.932164 
L 165.152557 -63.200315 
L 162.789313 -63.537397 
L 160.42607 -63.222381 
L 158.062827 -62.931435 
L 155.699583 -63.179727 
L 153.33634 -62.940491 
L 150.973097 -62.734032 
L 148.609853 -62.634564 
L 146.24661 -62.650043 
L 143.883366 -62.36292 
L 141.520123 -62.683341 
L 139.15688 -62.268543 
L 136.793636 -62.17977 
L 134.430393 -62.114648 
L 132.06715 -62.049307 
L 129.703906 -62.028499 
L 127.340663 -61.046651 
L 124.97742 -60.980967 
L 122.614176 -60.653571 
L 120.250933 -60.624092 
L 117.887689 -60.080592 
L 115.524446 -59.572447 
L 113.161203 -59.197445 
L 110.797959 -58.602291 
L 108.434716 -58.546155 
L 106.071473 -58.093454 
L 103.708229 -57.353352 
L 101.344986 -57.340236 
L 98.981742 -56.657513 
L 96.618499 -56.559059 
L 94.255256 -56.03863 
L 91.892012 -55.385724 
L 89.528769 -54.977253 
L 87.165526 -54.71756 
L 84.802282 -54.332214 
L 82.439039 -54.143946 
L 80.075795 -53.891808 
L 77.712552 -53.60676 
L 75.349309 -53.288948 
L 72.986065 -52.669966 
L 70.622822 -52.011854 
L 68.259579 -52.028685 
L 65.896335 -51.603433 
L 63.533092 -51.146915 
L 61.169848 -50.694096 
L 58.806605 -50.173247 
z
" style="stroke: #4169e1; stroke-opacity: 0.2"/>
    </defs>
    <g clip-path="url(#p95e0aaa2f3)">
     <use xlink:href="#ma0eb264d14" x="0" y="250.56" style="fill: #4169e1; fill-opacity: 0.2; stroke: #4169e1; stroke-opacity: 0.2"/>
    </g>
   </g>
   <g id="PolyCollection_3">
    <defs>
     <path id="m33424e4de2" d="M 58.806605 -49.120717 
L 58.806605 -48.780513 
L 61.169848 -49.299094 
L 63.533092 -49.636403 
L 65.896335 -50.050039 
L 68.259579 -50.177246 
L 70.622822 -50.527223 
L 72.986065 -50.607757 
L 75.349309 -51.040275 
L 77.712552 -51.078074 
L 80.075795 -51.25138 
L 82.439039 -51.726601 
L 84.802282 -51.933496 
L 87.165526 -52.295954 
L 89.528769 -52.444034 
L 91.892012 -52.710973 
L 94.255256 -52.96107 
L 96.618499 -53.094048 
L 98.981742 -53.75146 
L 101.344986 -54.053674 
L 103.708229 -53.925249 
L 106.071473 -54.315979 
L 108.434716 -54.43823 
L 110.797959 -54.731975 
L 113.161203 -54.474581 
L 115.524446 -54.512993 
L 117.887689 -54.909214 
L 120.250933 -54.917542 
L 122.614176 -54.945358 
L 124.97742 -55.030943 
L 127.340663 -55.266184 
L 129.703906 -55.337631 
L 132.06715 -55.678922 
L 134.430393 -55.956196 
L 136.793636 -56.130453 
L 139.15688 -56.237111 
L 141.520123 -56.639263 
L 143.883366 -56.511711 
L 146.24661 -57.145495 
L 148.609853 -56.953978 
L 150.973097 -56.929776 
L 153.33634 -57.484064 
L 155.699583 -57.416803 
L 158.062827 -57.632203 
L 160.42607 -57.904523 
L 162.789313 -57.858241 
L 165.152557 -57.953555 
L 167.5158 -57.986225 
L 169.879044 -58.584935 
L 172.242287 -58.726049 
L 174.60553 -58.713241 
L 176.968774 -58.806817 
L 179.332017 -59.166904 
L 181.69526 -59.014124 
L 184.058504 -59.641383 
L 186.421747 -59.639151 
L 188.784991 -59.605817 
L 191.148234 -59.80602 
L 193.511477 -59.797084 
L 195.874721 -60.208625 
L 198.237964 -60.281034 
L 200.601207 -60.216092 
L 200.601207 -61.442715 
L 200.601207 -61.442715 
L 198.237964 -61.302171 
L 195.874721 -61.242279 
L 193.511477 -61.540418 
L 191.148234 -61.32358 
L 188.784991 -61.032377 
L 186.421747 -60.413137 
L 184.058504 -60.467606 
L 181.69526 -60.471158 
L 179.332017 -60.034874 
L 176.968774 -59.827954 
L 174.60553 -59.656928 
L 172.242287 -59.455117 
L 169.879044 -59.577331 
L 167.5158 -59.079828 
L 165.152557 -58.904595 
L 162.789313 -58.678606 
L 160.42607 -58.840227 
L 158.062827 -58.772342 
L 155.699583 -58.382935 
L 153.33634 -58.107772 
L 150.973097 -58.019452 
L 148.609853 -58.070851 
L 146.24661 -57.690333 
L 143.883366 -57.662609 
L 141.520123 -57.478356 
L 139.15688 -57.011098 
L 136.793636 -57.325658 
L 134.430393 -56.743907 
L 132.06715 -56.718777 
L 129.703906 -56.190657 
L 127.340663 -56.281005 
L 124.97742 -55.98704 
L 122.614176 -55.921423 
L 120.250933 -55.873639 
L 117.887689 -55.863066 
L 115.524446 -56.070284 
L 113.161203 -55.957495 
L 110.797959 -55.454398 
L 108.434716 -55.42684 
L 106.071473 -55.095485 
L 103.708229 -54.635706 
L 101.344986 -54.110375 
L 98.981742 -54.223587 
L 96.618499 -53.652485 
L 94.255256 -53.50196 
L 91.892012 -53.052749 
L 89.528769 -52.790481 
L 87.165526 -52.352655 
L 84.802282 -52.46941 
L 82.439039 -52.071498 
L 80.075795 -51.450506 
L 77.712552 -51.604912 
L 75.349309 -51.340307 
L 72.986065 -51.186919 
L 70.622822 -50.700446 
L 68.259579 -50.74802 
L 65.896335 -50.213719 
L 63.533092 -50.079249 
L 61.169848 -49.528247 
L 58.806605 -49.120717 
z
" style="stroke: #191970; stroke-opacity: 0.2"/>
    </defs>
    <g clip-path="url(#p95e0aaa2f3)">
     <use xlink:href="#m33424e4de2" x="0" y="250.56" style="fill: #191970; fill-opacity: 0.2; stroke: #191970; stroke-opacity: 0.2"/>
    </g>
   </g>
   <g id="matplotlib.axis_1">
    <g id="xtick_1">
     <g id="line2d_1">
      <defs>
       <path id="ma6bc1b652a" d="M 0 0 
L 0 3.5 
" style="stroke: #000000; stroke-width: 0.8"/>
      </defs>
      <g>
       <use xlink:href="#ma6bc1b652a" x="58.806605" y="205.068125" style="stroke: #000000; stroke-width: 0.8"/>
      </g>
     </g>
     <g id="text_1">
      <!-- 0 -->
      <g transform="translate(55.625355 219.666562)scale(0.1 -0.1)">
       <defs>
        <path id="DejaVuSans-30" d="M 2034 4250 
Q 1547 4250 1301 3770 
Q 1056 3291 1056 2328 
Q 1056 1369 1301 889 
Q 1547 409 2034 409 
Q 2525 409 2770 889 
Q 3016 1369 3016 2328 
Q 3016 3291 2770 3770 
Q 2525 4250 2034 4250 
z
M 2034 4750 
Q 2819 4750 3233 4129 
Q 3647 3509 3647 2328 
Q 3647 1150 3233 529 
Q 2819 -91 2034 -91 
Q 1250 -91 836 529 
Q 422 1150 422 2328 
Q 422 3509 836 4129 
Q 1250 4750 2034 4750 
z
" transform="scale(0.015625)"/>
       </defs>
       <use xlink:href="#DejaVuSans-30"/>
      </g>
     </g>
    </g>
    <g id="xtick_2">
     <g id="line2d_2">
      <g>
       <use xlink:href="#ma6bc1b652a" x="117.887689" y="205.068125" style="stroke: #000000; stroke-width: 0.8"/>
      </g>
     </g>
     <g id="text_2">
      <!-- 100 -->
      <g transform="translate(108.343939 219.666562)scale(0.1 -0.1)">
       <defs>
        <path id="DejaVuSans-31" d="M 794 531 
L 1825 531 
L 1825 4091 
L 703 3866 
L 703 4441 
L 1819 4666 
L 2450 4666 
L 2450 531 
L 3481 531 
L 3481 0 
L 794 0 
L 794 531 
z
" transform="scale(0.015625)"/>
       </defs>
       <use xlink:href="#DejaVuSans-31"/>
       <use xlink:href="#DejaVuSans-30" x="63.623047"/>
       <use xlink:href="#DejaVuSans-30" x="127.246094"/>
      </g>
     </g>
    </g>
    <g id="xtick_3">
     <g id="line2d_3">
      <g>
       <use xlink:href="#ma6bc1b652a" x="176.968774" y="205.068125" style="stroke: #000000; stroke-width: 0.8"/>
      </g>
     </g>
     <g id="text_3">
      <!-- 200 -->
      <g transform="translate(167.425024 219.666562)scale(0.1 -0.1)">
       <defs>
        <path id="DejaVuSans-32" d="M 1228 531 
L 3431 531 
L 3431 0 
L 469 0 
L 469 531 
Q 828 903 1448 1529 
Q 2069 2156 2228 2338 
Q 2531 2678 2651 2914 
Q 2772 3150 2772 3378 
Q 2772 3750 2511 3984 
Q 2250 4219 1831 4219 
Q 1534 4219 1204 4116 
Q 875 4013 500 3803 
L 500 4441 
Q 881 4594 1212 4672 
Q 1544 4750 1819 4750 
Q 2544 4750 2975 4387 
Q 3406 4025 3406 3419 
Q 3406 3131 3298 2873 
Q 3191 2616 2906 2266 
Q 2828 2175 2409 1742 
Q 1991 1309 1228 531 
z
" transform="scale(0.015625)"/>
       </defs>
       <use xlink:href="#DejaVuSans-32"/>
       <use xlink:href="#DejaVuSans-30" x="63.623047"/>
       <use xlink:href="#DejaVuSans-30" x="127.246094"/>
      </g>
     </g>
    </g>
    <g id="text_4">
     <!-- Time (min) -->
     <g transform="translate(97.121094 240.864375)scale(0.12 -0.12)">
      <defs>
       <path id="DejaVuSans-54" d="M -19 4666 
L 3928 4666 
L 3928 4134 
L 2272 4134 
L 2272 0 
L 1638 0 
L 1638 4134 
L -19 4134 
L -19 4666 
z
" transform="scale(0.015625)"/>
       <path id="DejaVuSans-69" d="M 603 3500 
L 1178 3500 
L 1178 0 
L 603 0 
L 603 3500 
z
M 603 4863 
L 1178 4863 
L 1178 4134 
L 603 4134 
L 603 4863 
z
" transform="scale(0.015625)"/>
       <path id="DejaVuSans-6d" d="M 3328 2828 
Q 3544 3216 3844 3400 
Q 4144 3584 4550 3584 
Q 5097 3584 5394 3201 
Q 5691 2819 5691 2113 
L 5691 0 
L 5113 0 
L 5113 2094 
Q 5113 2597 4934 2840 
Q 4756 3084 4391 3084 
Q 3944 3084 3684 2787 
Q 3425 2491 3425 1978 
L 3425 0 
L 2847 0 
L 2847 2094 
Q 2847 2600 2669 2842 
Q 2491 3084 2119 3084 
Q 1678 3084 1418 2786 
Q 1159 2488 1159 1978 
L 1159 0 
L 581 0 
L 581 3500 
L 1159 3500 
L 1159 2956 
Q 1356 3278 1631 3431 
Q 1906 3584 2284 3584 
Q 2666 3584 2933 3390 
Q 3200 3197 3328 2828 
z
" transform="scale(0.015625)"/>
       <path id="DejaVuSans-65" d="M 3597 1894 
L 3597 1613 
L 953 1613 
Q 991 1019 1311 708 
Q 1631 397 2203 397 
Q 2534 397 2845 478 
Q 3156 559 3463 722 
L 3463 178 
Q 3153 47 2828 -22 
Q 2503 -91 2169 -91 
Q 1331 -91 842 396 
Q 353 884 353 1716 
Q 353 2575 817 3079 
Q 1281 3584 2069 3584 
Q 2775 3584 3186 3129 
Q 3597 2675 3597 1894 
z
M 3022 2063 
Q 3016 2534 2758 2815 
Q 2500 3097 2075 3097 
Q 1594 3097 1305 2825 
Q 1016 2553 972 2059 
L 3022 2063 
z
" transform="scale(0.015625)"/>
       <path id="DejaVuSans-20" transform="scale(0.015625)"/>
       <path id="DejaVuSans-28" d="M 1984 4856 
Q 1566 4138 1362 3434 
Q 1159 2731 1159 2009 
Q 1159 1288 1364 580 
Q 1569 -128 1984 -844 
L 1484 -844 
Q 1016 -109 783 600 
Q 550 1309 550 2009 
Q 550 2706 781 3412 
Q 1013 4119 1484 4856 
L 1984 4856 
z
" transform="scale(0.015625)"/>
       <path id="DejaVuSans-6e" d="M 3513 2113 
L 3513 0 
L 2938 0 
L 2938 2094 
Q 2938 2591 2744 2837 
Q 2550 3084 2163 3084 
Q 1697 3084 1428 2787 
Q 1159 2491 1159 1978 
L 1159 0 
L 581 0 
L 581 3500 
L 1159 3500 
L 1159 2956 
Q 1366 3272 1645 3428 
Q 1925 3584 2291 3584 
Q 2894 3584 3203 3211 
Q 3513 2838 3513 2113 
z
" transform="scale(0.015625)"/>
       <path id="DejaVuSans-29" d="M 513 4856 
L 1013 4856 
Q 1481 4119 1714 3412 
Q 1947 2706 1947 2009 
Q 1947 1309 1714 600 
Q 1481 -109 1013 -844 
L 513 -844 
Q 928 -128 1133 580 
Q 1338 1288 1338 2009 
Q 1338 2731 1133 3434 
Q 928 4138 513 4856 
z
" transform="scale(0.015625)"/>
      </defs>
      <use xlink:href="#DejaVuSans-54"/>
      <use xlink:href="#DejaVuSans-69" x="57.958984"/>
      <use xlink:href="#DejaVuSans-6d" x="85.742188"/>
      <use xlink:href="#DejaVuSans-65" x="183.154297"/>
      <use xlink:href="#DejaVuSans-20" x="244.677734"/>
      <use xlink:href="#DejaVuSans-28" x="276.464844"/>
      <use xlink:href="#DejaVuSans-6d" x="315.478516"/>
      <use xlink:href="#DejaVuSans-69" x="412.890625"/>
      <use xlink:href="#DejaVuSans-6e" x="440.673828"/>
      <use xlink:href="#DejaVuSans-29" x="504.052734"/>
     </g>
    </g>
   </g>
   <g id="matplotlib.axis_2">
    <g id="ytick_1">
     <g id="line2d_4">
      <defs>
       <path id="m20bf0cdb9a" d="M 0 0 
L -3.5 0 
" style="stroke: #000000; stroke-width: 0.8"/>
      </defs>
      <g>
       <use xlink:href="#m20bf0cdb9a" x="51.716875" y="205.068125" style="stroke: #000000; stroke-width: 0.8"/>
      </g>
     </g>
     <g id="text_5">
      <!-- 0.0 -->
      <g transform="translate(28.81375 208.867344)scale(0.1 -0.1)">
       <defs>
        <path id="DejaVuSans-2e" d="M 684 794 
L 1344 794 
L 1344 0 
L 684 0 
L 684 794 
z
" transform="scale(0.015625)"/>
       </defs>
       <use xlink:href="#DejaVuSans-30"/>
       <use xlink:href="#DejaVuSans-2e" x="63.623047"/>
       <use xlink:href="#DejaVuSans-30" x="95.410156"/>
      </g>
     </g>
    </g>
    <g id="ytick_2">
     <g id="line2d_5">
      <g>
       <use xlink:href="#m20bf0cdb9a" x="51.716875" y="173.873312" style="stroke: #000000; stroke-width: 0.8"/>
      </g>
     </g>
     <g id="text_6">
      <!-- 0.2 -->
      <g transform="translate(28.81375 177.672531)scale(0.1 -0.1)">
       <use xlink:href="#DejaVuSans-30"/>
       <use xlink:href="#DejaVuSans-2e" x="63.623047"/>
       <use xlink:href="#DejaVuSans-32" x="95.410156"/>
      </g>
     </g>
    </g>
    <g id="ytick_3">
     <g id="line2d_6">
      <g>
       <use xlink:href="#m20bf0cdb9a" x="51.716875" y="142.6785" style="stroke: #000000; stroke-width: 0.8"/>
      </g>
     </g>
     <g id="text_7">
      <!-- 0.4 -->
      <g transform="translate(28.81375 146.477719)scale(0.1 -0.1)">
       <defs>
        <path id="DejaVuSans-34" d="M 2419 4116 
L 825 1625 
L 2419 1625 
L 2419 4116 
z
M 2253 4666 
L 3047 4666 
L 3047 1625 
L 3713 1625 
L 3713 1100 
L 3047 1100 
L 3047 0 
L 2419 0 
L 2419 1100 
L 313 1100 
L 313 1709 
L 2253 4666 
z
" transform="scale(0.015625)"/>
       </defs>
       <use xlink:href="#DejaVuSans-30"/>
       <use xlink:href="#DejaVuSans-2e" x="63.623047"/>
       <use xlink:href="#DejaVuSans-34" x="95.410156"/>
      </g>
     </g>
    </g>
    <g id="ytick_4">
     <g id="line2d_7">
      <g>
       <use xlink:href="#m20bf0cdb9a" x="51.716875" y="111.483687" style="stroke: #000000; stroke-width: 0.8"/>
      </g>
     </g>
     <g id="text_8">
      <!-- 0.6 -->
      <g transform="translate(28.81375 115.282906)scale(0.1 -0.1)">
       <defs>
        <path id="DejaVuSans-36" d="M 2113 2584 
Q 1688 2584 1439 2293 
Q 1191 2003 1191 1497 
Q 1191 994 1439 701 
Q 1688 409 2113 409 
Q 2538 409 2786 701 
Q 3034 994 3034 1497 
Q 3034 2003 2786 2293 
Q 2538 2584 2113 2584 
z
M 3366 4563 
L 3366 3988 
Q 3128 4100 2886 4159 
Q 2644 4219 2406 4219 
Q 1781 4219 1451 3797 
Q 1122 3375 1075 2522 
Q 1259 2794 1537 2939 
Q 1816 3084 2150 3084 
Q 2853 3084 3261 2657 
Q 3669 2231 3669 1497 
Q 3669 778 3244 343 
Q 2819 -91 2113 -91 
Q 1303 -91 875 529 
Q 447 1150 447 2328 
Q 447 3434 972 4092 
Q 1497 4750 2381 4750 
Q 2619 4750 2861 4703 
Q 3103 4656 3366 4563 
z
" transform="scale(0.015625)"/>
       </defs>
       <use xlink:href="#DejaVuSans-30"/>
       <use xlink:href="#DejaVuSans-2e" x="63.623047"/>
       <use xlink:href="#DejaVuSans-36" x="95.410156"/>
      </g>
     </g>
    </g>
    <g id="ytick_5">
     <g id="line2d_8">
      <g>
       <use xlink:href="#m20bf0cdb9a" x="51.716875" y="80.288875" style="stroke: #000000; stroke-width: 0.8"/>
      </g>
     </g>
     <g id="text_9">
      <!-- 0.8 -->
      <g transform="translate(28.81375 84.088094)scale(0.1 -0.1)">
       <defs>
        <path id="DejaVuSans-38" d="M 2034 2216 
Q 1584 2216 1326 1975 
Q 1069 1734 1069 1313 
Q 1069 891 1326 650 
Q 1584 409 2034 409 
Q 2484 409 2743 651 
Q 3003 894 3003 1313 
Q 3003 1734 2745 1975 
Q 2488 2216 2034 2216 
z
M 1403 2484 
Q 997 2584 770 2862 
Q 544 3141 544 3541 
Q 544 4100 942 4425 
Q 1341 4750 2034 4750 
Q 2731 4750 3128 4425 
Q 3525 4100 3525 3541 
Q 3525 3141 3298 2862 
Q 3072 2584 2669 2484 
Q 3125 2378 3379 2068 
Q 3634 1759 3634 1313 
Q 3634 634 3220 271 
Q 2806 -91 2034 -91 
Q 1263 -91 848 271 
Q 434 634 434 1313 
Q 434 1759 690 2068 
Q 947 2378 1403 2484 
z
M 1172 3481 
Q 1172 3119 1398 2916 
Q 1625 2713 2034 2713 
Q 2441 2713 2670 2916 
Q 2900 3119 2900 3481 
Q 2900 3844 2670 4047 
Q 2441 4250 2034 4250 
Q 1625 4250 1398 4047 
Q 1172 3844 1172 3481 
z
" transform="scale(0.015625)"/>
       </defs>
       <use xlink:href="#DejaVuSans-30"/>
       <use xlink:href="#DejaVuSans-2e" x="63.623047"/>
       <use xlink:href="#DejaVuSans-38" x="95.410156"/>
      </g>
     </g>
    </g>
    <g id="ytick_6">
     <g id="line2d_9">
      <g>
       <use xlink:href="#m20bf0cdb9a" x="51.716875" y="49.094062" style="stroke: #000000; stroke-width: 0.8"/>
      </g>
     </g>
     <g id="text_10">
      <!-- 1.0 -->
      <g transform="translate(28.81375 52.893281)scale(0.1 -0.1)">
       <use xlink:href="#DejaVuSans-31"/>
       <use xlink:href="#DejaVuSans-2e" x="63.623047"/>
       <use xlink:href="#DejaVuSans-30" x="95.410156"/>
      </g>
     </g>
    </g>
    <g id="text_11">
     <!-- Normalized exp output -->
     <g transform="translate(16.318125 195.658281)rotate(-90)scale(0.12 -0.12)">
      <defs>
       <path id="DejaVuSans-4e" d="M 628 4666 
L 1478 4666 
L 3547 763 
L 3547 4666 
L 4159 4666 
L 4159 0 
L 3309 0 
L 1241 3903 
L 1241 0 
L 628 0 
L 628 4666 
z
" transform="scale(0.015625)"/>
       <path id="DejaVuSans-6f" d="M 1959 3097 
Q 1497 3097 1228 2736 
Q 959 2375 959 1747 
Q 959 1119 1226 758 
Q 1494 397 1959 397 
Q 2419 397 2687 759 
Q 2956 1122 2956 1747 
Q 2956 2369 2687 2733 
Q 2419 3097 1959 3097 
z
M 1959 3584 
Q 2709 3584 3137 3096 
Q 3566 2609 3566 1747 
Q 3566 888 3137 398 
Q 2709 -91 1959 -91 
Q 1206 -91 779 398 
Q 353 888 353 1747 
Q 353 2609 779 3096 
Q 1206 3584 1959 3584 
z
" transform="scale(0.015625)"/>
       <path id="DejaVuSans-72" d="M 2631 2963 
Q 2534 3019 2420 3045 
Q 2306 3072 2169 3072 
Q 1681 3072 1420 2755 
Q 1159 2438 1159 1844 
L 1159 0 
L 581 0 
L 581 3500 
L 1159 3500 
L 1159 2956 
Q 1341 3275 1631 3429 
Q 1922 3584 2338 3584 
Q 2397 3584 2469 3576 
Q 2541 3569 2628 3553 
L 2631 2963 
z
" transform="scale(0.015625)"/>
       <path id="DejaVuSans-61" d="M 2194 1759 
Q 1497 1759 1228 1600 
Q 959 1441 959 1056 
Q 959 750 1161 570 
Q 1363 391 1709 391 
Q 2188 391 2477 730 
Q 2766 1069 2766 1631 
L 2766 1759 
L 2194 1759 
z
M 3341 1997 
L 3341 0 
L 2766 0 
L 2766 531 
Q 2569 213 2275 61 
Q 1981 -91 1556 -91 
Q 1019 -91 701 211 
Q 384 513 384 1019 
Q 384 1609 779 1909 
Q 1175 2209 1959 2209 
L 2766 2209 
L 2766 2266 
Q 2766 2663 2505 2880 
Q 2244 3097 1772 3097 
Q 1472 3097 1187 3025 
Q 903 2953 641 2809 
L 641 3341 
Q 956 3463 1253 3523 
Q 1550 3584 1831 3584 
Q 2591 3584 2966 3190 
Q 3341 2797 3341 1997 
z
" transform="scale(0.015625)"/>
       <path id="DejaVuSans-6c" d="M 603 4863 
L 1178 4863 
L 1178 0 
L 603 0 
L 603 4863 
z
" transform="scale(0.015625)"/>
       <path id="DejaVuSans-7a" d="M 353 3500 
L 3084 3500 
L 3084 2975 
L 922 459 
L 3084 459 
L 3084 0 
L 275 0 
L 275 525 
L 2438 3041 
L 353 3041 
L 353 3500 
z
" transform="scale(0.015625)"/>
       <path id="DejaVuSans-64" d="M 2906 2969 
L 2906 4863 
L 3481 4863 
L 3481 0 
L 2906 0 
L 2906 525 
Q 2725 213 2448 61 
Q 2172 -91 1784 -91 
Q 1150 -91 751 415 
Q 353 922 353 1747 
Q 353 2572 751 3078 
Q 1150 3584 1784 3584 
Q 2172 3584 2448 3432 
Q 2725 3281 2906 2969 
z
M 947 1747 
Q 947 1113 1208 752 
Q 1469 391 1925 391 
Q 2381 391 2643 752 
Q 2906 1113 2906 1747 
Q 2906 2381 2643 2742 
Q 2381 3103 1925 3103 
Q 1469 3103 1208 2742 
Q 947 2381 947 1747 
z
" transform="scale(0.015625)"/>
       <path id="DejaVuSans-78" d="M 3513 3500 
L 2247 1797 
L 3578 0 
L 2900 0 
L 1881 1375 
L 863 0 
L 184 0 
L 1544 1831 
L 300 3500 
L 978 3500 
L 1906 2253 
L 2834 3500 
L 3513 3500 
z
" transform="scale(0.015625)"/>
       <path id="DejaVuSans-70" d="M 1159 525 
L 1159 -1331 
L 581 -1331 
L 581 3500 
L 1159 3500 
L 1159 2969 
Q 1341 3281 1617 3432 
Q 1894 3584 2278 3584 
Q 2916 3584 3314 3078 
Q 3713 2572 3713 1747 
Q 3713 922 3314 415 
Q 2916 -91 2278 -91 
Q 1894 -91 1617 61 
Q 1341 213 1159 525 
z
M 3116 1747 
Q 3116 2381 2855 2742 
Q 2594 3103 2138 3103 
Q 1681 3103 1420 2742 
Q 1159 2381 1159 1747 
Q 1159 1113 1420 752 
Q 1681 391 2138 391 
Q 2594 391 2855 752 
Q 3116 1113 3116 1747 
z
" transform="scale(0.015625)"/>
       <path id="DejaVuSans-75" d="M 544 1381 
L 544 3500 
L 1119 3500 
L 1119 1403 
Q 1119 906 1312 657 
Q 1506 409 1894 409 
Q 2359 409 2629 706 
Q 2900 1003 2900 1516 
L 2900 3500 
L 3475 3500 
L 3475 0 
L 2900 0 
L 2900 538 
Q 2691 219 2414 64 
Q 2138 -91 1772 -91 
Q 1169 -91 856 284 
Q 544 659 544 1381 
z
M 1991 3584 
L 1991 3584 
z
" transform="scale(0.015625)"/>
       <path id="DejaVuSans-74" d="M 1172 4494 
L 1172 3500 
L 2356 3500 
L 2356 3053 
L 1172 3053 
L 1172 1153 
Q 1172 725 1289 603 
Q 1406 481 1766 481 
L 2356 481 
L 2356 0 
L 1766 0 
Q 1100 0 847 248 
Q 594 497 594 1153 
L 594 3053 
L 172 3053 
L 172 3500 
L 594 3500 
L 594 4494 
L 1172 4494 
z
" transform="scale(0.015625)"/>
      </defs>
      <use xlink:href="#DejaVuSans-4e"/>
      <use xlink:href="#DejaVuSans-6f" x="74.804688"/>
      <use xlink:href="#DejaVuSans-72" x="135.986328"/>
      <use xlink:href="#DejaVuSans-6d" x="175.349609"/>
      <use xlink:href="#DejaVuSans-61" x="272.761719"/>
      <use xlink:href="#DejaVuSans-6c" x="334.041016"/>
      <use xlink:href="#DejaVuSans-69" x="361.824219"/>
      <use xlink:href="#DejaVuSans-7a" x="389.607422"/>
      <use xlink:href="#DejaVuSans-65" x="442.097656"/>
      <use xlink:href="#DejaVuSans-64" x="503.621094"/>
      <use xlink:href="#DejaVuSans-20" x="567.097656"/>
      <use xlink:href="#DejaVuSans-65" x="598.884766"/>
      <use xlink:href="#DejaVuSans-78" x="658.658203"/>
      <use xlink:href="#DejaVuSans-70" x="717.837891"/>
      <use xlink:href="#DejaVuSans-20" x="781.314453"/>
      <use xlink:href="#DejaVuSans-6f" x="813.101562"/>
      <use xlink:href="#DejaVuSans-75" x="874.283203"/>
      <use xlink:href="#DejaVuSans-74" x="937.662109"/>
      <use xlink:href="#DejaVuSans-70" x="976.871094"/>
      <use xlink:href="#DejaVuSans-75" x="1040.347656"/>
      <use xlink:href="#DejaVuSans-74" x="1103.726562"/>
     </g>
    </g>
   </g>
   <g id="line2d_10">
    <path d="M 58.806605 200.550973 
L 61.169848 200.135168 
L 63.533092 199.804414 
L 65.896335 199.51146 
L 68.259579 199.341358 
L 70.622822 198.812152 
L 72.986065 198.481398 
L 75.349309 198.273496 
L 77.712552 198.122294 
L 80.075795 197.952192 
L 82.439039 197.517487 
L 84.802282 197.300135 
L 87.165526 196.92213 
L 89.528769 196.591376 
L 91.892012 196.468525 
L 94.255256 196.081071 
L 96.618499 195.825918 
L 98.981742 195.485714 
L 101.344986 195.249461 
L 103.708229 194.975408 
L 106.071473 194.691904 
L 108.434716 194.096548 
L 110.797959 193.775244 
L 113.161203 193.406689 
L 115.524446 193.066486 
L 117.887689 192.858583 
L 120.250933 192.206526 
L 122.614176 191.970273 
L 124.97742 191.431617 
L 127.340663 191.318215 
L 129.703906 190.666158 
L 132.06715 190.184202 
L 134.430393 190.146402 
L 136.793636 189.683346 
L 139.15688 189.333692 
L 141.520123 188.832836 
L 143.883366 188.587133 
L 146.24661 188.180779 
L 148.609853 187.783874 
L 150.973097 187.283018 
L 153.33634 186.819963 
L 155.699583 186.697112 
L 158.062827 186.460859 
L 160.42607 186.158455 
L 162.789313 185.837152 
L 165.152557 185.600899 
L 167.5158 185.364646 
L 169.879044 184.88269 
L 172.242287 184.636988 
L 174.60553 184.060531 
L 176.968774 183.899879 
L 179.332017 184.01328 
L 181.69526 183.795928 
L 184.058504 183.370673 
L 186.421747 183.13442 
L 188.784991 182.935968 
L 191.148234 182.888717 
L 193.511477 182.643014 
L 195.874721 182.28391 
L 198.237964 181.972057 
L 200.601207 181.660203 
" clip-path="url(#p95e0aaa2f3)" style="fill: none; stroke: #b0c4de; stroke-width: 2; stroke-linecap: square"/>
   </g>
   <g id="line2d_11">
    <path d="M 58.806605 202.440994 
L 61.169848 202.100791 
L 63.533092 201.892888 
L 65.896335 201.637735 
L 68.259579 201.410933 
L 70.622822 201.240831 
L 72.986065 200.985678 
L 75.349309 200.683274 
L 77.712552 200.560423 
L 80.075795 200.34307 
L 82.439039 200.182418 
L 84.802282 200.201318 
L 87.165526 199.955616 
L 89.528769 199.672112 
L 91.892012 199.46421 
L 94.255256 199.171256 
L 96.618499 198.849953 
L 98.981742 198.821602 
L 101.344986 198.528649 
L 103.708229 198.490849 
L 106.071473 198.197895 
L 108.434716 197.867141 
L 110.797959 197.75374 
L 113.161203 197.422986 
L 115.524446 197.300135 
L 117.887689 196.92213 
L 120.250933 196.657527 
L 122.614176 196.666977 
L 124.97742 196.610277 
L 127.340663 196.364574 
L 129.703906 195.929869 
L 132.06715 195.958219 
L 134.430393 195.892068 
L 136.793636 195.892068 
L 139.15688 195.901518 
L 141.520123 195.655816 
L 143.883366 195.551864 
L 146.24661 195.466813 
L 148.609853 195.447913 
L 150.973097 195.561315 
L 153.33634 195.438463 
L 155.699583 195.325062 
L 158.062827 195.381762 
L 160.42607 195.249461 
L 162.789313 195.060459 
L 165.152557 195.15496 
L 167.5158 194.975408 
L 169.879044 194.852556 
L 172.242287 194.928157 
L 174.60553 195.051009 
L 176.968774 194.795856 
L 179.332017 194.786406 
L 181.69526 194.729705 
L 184.058504 194.398951 
L 186.421747 194.3517 
L 188.784991 194.295 
L 191.148234 194.398951 
L 193.511477 194.295 
L 195.874721 194.559603 
L 198.237964 194.238299 
L 200.601207 194.209949 
" clip-path="url(#p95e0aaa2f3)" style="fill: none; stroke: #4169e1; stroke-width: 2; stroke-linecap: square"/>
   </g>
   <g id="line2d_12">
    <path d="M 58.806605 201.609385 
L 61.169848 201.146329 
L 63.533092 200.702174 
L 65.896335 200.428121 
L 68.259579 200.097367 
L 70.622822 199.946165 
L 72.986065 199.662662 
L 75.349309 199.369709 
L 77.712552 199.218507 
L 80.075795 199.209057 
L 82.439039 198.660951 
L 84.802282 198.358547 
L 87.165526 198.235696 
L 89.528769 197.942742 
L 91.892012 197.678139 
L 94.255256 197.328485 
L 96.618499 197.186733 
L 98.981742 196.572476 
L 101.344986 196.477975 
L 103.708229 196.279523 
L 106.071473 195.854268 
L 108.434716 195.627465 
L 110.797959 195.466813 
L 113.161203 195.343962 
L 115.524446 195.268361 
L 117.887689 195.17386 
L 120.250933 195.16441 
L 122.614176 195.126609 
L 124.97742 195.051009 
L 127.340663 194.786406 
L 129.703906 194.795856 
L 132.06715 194.361151 
L 134.430393 194.209949 
L 136.793636 193.831944 
L 139.15688 193.935896 
L 141.520123 193.501191 
L 143.883366 193.47284 
L 146.24661 193.142086 
L 148.609853 193.047585 
L 150.973097 193.085386 
L 153.33634 192.764082 
L 155.699583 192.660131 
L 158.062827 192.357727 
L 160.42607 192.187625 
L 162.789313 192.291577 
L 165.152557 192.130925 
L 167.5158 192.026973 
L 169.879044 191.478867 
L 172.242287 191.469417 
L 174.60553 191.374916 
L 176.968774 191.242614 
L 179.332017 190.959111 
L 181.69526 190.817359 
L 184.058504 190.505506 
L 186.421747 190.533856 
L 188.784991 190.240903 
L 191.148234 189.9952 
L 193.511477 189.891249 
L 195.874721 189.834548 
L 198.237964 189.768397 
L 200.601207 189.730597 
" clip-path="url(#p95e0aaa2f3)" style="fill: none; stroke: #191970; stroke-width: 2; stroke-linecap: square"/>
   </g>
   <g id="patch_3">
    <path d="M 51.716875 205.068125 
L 51.716875 49.094062 
" style="fill: none; stroke: #000000; stroke-width: 0.8; stroke-linejoin: miter; stroke-linecap: square"/>
   </g>
   <g id="patch_4">
    <path d="M 51.716875 205.068125 
L 207.690938 205.068125 
" style="fill: none; stroke: #000000; stroke-width: 0.8; stroke-linejoin: miter; stroke-linecap: square"/>
   </g>
   <g id="text_12">
    <!-- vRNA = 0fM -->
    <g transform="translate(96.239844 43.094062)scale(0.1 -0.1)">
     <defs>
      <path id="DejaVuSans-Bold-76" d="M 97 3500 
L 1216 3500 
L 2088 1081 
L 2956 3500 
L 4078 3500 
L 2700 0 
L 1472 0 
L 97 3500 
z
" transform="scale(0.015625)"/>
      <path id="DejaVuSans-Bold-52" d="M 2297 2597 
Q 2675 2597 2839 2737 
Q 3003 2878 3003 3200 
Q 3003 3519 2839 3656 
Q 2675 3794 2297 3794 
L 1791 3794 
L 1791 2597 
L 2297 2597 
z
M 1791 1766 
L 1791 0 
L 588 0 
L 588 4666 
L 2425 4666 
Q 3347 4666 3776 4356 
Q 4206 4047 4206 3378 
Q 4206 2916 3982 2619 
Q 3759 2322 3309 2181 
Q 3556 2125 3751 1926 
Q 3947 1728 4147 1325 
L 4800 0 
L 3519 0 
L 2950 1159 
Q 2778 1509 2601 1637 
Q 2425 1766 2131 1766 
L 1791 1766 
z
" transform="scale(0.015625)"/>
      <path id="DejaVuSans-Bold-4e" d="M 588 4666 
L 1931 4666 
L 3628 1466 
L 3628 4666 
L 4769 4666 
L 4769 0 
L 3425 0 
L 1728 3200 
L 1728 0 
L 588 0 
L 588 4666 
z
" transform="scale(0.015625)"/>
      <path id="DejaVuSans-Bold-41" d="M 3419 850 
L 1538 850 
L 1241 0 
L 31 0 
L 1759 4666 
L 3194 4666 
L 4922 0 
L 3713 0 
L 3419 850 
z
M 1838 1716 
L 3116 1716 
L 2478 3572 
L 1838 1716 
z
" transform="scale(0.015625)"/>
      <path id="DejaVuSans-Bold-20" transform="scale(0.015625)"/>
      <path id="DejaVuSans-Bold-3d" d="M 678 3084 
L 4684 3084 
L 4684 2350 
L 678 2350 
L 678 3084 
z
M 678 1663 
L 4684 1663 
L 4684 922 
L 678 922 
L 678 1663 
z
" transform="scale(0.015625)"/>
      <path id="DejaVuSans-Bold-30" d="M 2944 2338 
Q 2944 3213 2780 3570 
Q 2616 3928 2228 3928 
Q 1841 3928 1675 3570 
Q 1509 3213 1509 2338 
Q 1509 1453 1675 1090 
Q 1841 728 2228 728 
Q 2613 728 2778 1090 
Q 2944 1453 2944 2338 
z
M 4147 2328 
Q 4147 1169 3647 539 
Q 3147 -91 2228 -91 
Q 1306 -91 806 539 
Q 306 1169 306 2328 
Q 306 3491 806 4120 
Q 1306 4750 2228 4750 
Q 3147 4750 3647 4120 
Q 4147 3491 4147 2328 
z
" transform="scale(0.015625)"/>
      <path id="DejaVuSans-Bold-66" d="M 2841 4863 
L 2841 4128 
L 2222 4128 
Q 1984 4128 1890 4042 
Q 1797 3956 1797 3744 
L 1797 3500 
L 2753 3500 
L 2753 2700 
L 1797 2700 
L 1797 0 
L 678 0 
L 678 2700 
L 122 2700 
L 122 3500 
L 678 3500 
L 678 3744 
Q 678 4316 997 4589 
Q 1316 4863 1984 4863 
L 2841 4863 
z
" transform="scale(0.015625)"/>
      <path id="DejaVuSans-Bold-4d" d="M 588 4666 
L 2119 4666 
L 3181 2169 
L 4250 4666 
L 5778 4666 
L 5778 0 
L 4641 0 
L 4641 3413 
L 3566 897 
L 2803 897 
L 1728 3413 
L 1728 0 
L 588 0 
L 588 4666 
z
" transform="scale(0.015625)"/>
     </defs>
     <use xlink:href="#DejaVuSans-Bold-76"/>
     <use xlink:href="#DejaVuSans-Bold-52" x="65.185547"/>
     <use xlink:href="#DejaVuSans-Bold-4e" x="142.1875"/>
     <use xlink:href="#DejaVuSans-Bold-41" x="225.878906"/>
     <use xlink:href="#DejaVuSans-Bold-20" x="303.271484"/>
     <use xlink:href="#DejaVuSans-Bold-3d" x="338.085938"/>
     <use xlink:href="#DejaVuSans-Bold-20" x="421.875"/>
     <use xlink:href="#DejaVuSans-Bold-30" x="456.689453"/>
     <use xlink:href="#DejaVuSans-Bold-66" x="526.269531"/>
     <use xlink:href="#DejaVuSans-Bold-4d" x="569.775391"/>
    </g>
   </g>
   <g id="legend_1">
    <g id="patch_5">
     <path d="M 130.915938 101.128437 
L 200.690938 101.128437 
Q 202.690938 101.128437 202.690938 99.128437 
L 202.690938 56.094062 
Q 202.690938 54.094062 200.690938 54.094062 
L 130.915938 54.094062 
Q 128.915938 54.094062 128.915938 56.094062 
L 128.915938 99.128437 
Q 128.915938 101.128437 130.915938 101.128437 
z
" style="fill: #ffffff; opacity: 0.8; stroke: #cccccc; stroke-linejoin: miter"/>
    </g>
    <g id="line2d_13">
     <path d="M 132.915938 62.1925 
L 142.915938 62.1925 
L 152.915938 62.1925 
" style="fill: none; stroke: #b0c4de; stroke-width: 2; stroke-linecap: square"/>
    </g>
    <g id="text_13">
     <!-- RT 0.5 -->
     <g transform="translate(160.915938 65.6925)scale(0.1 -0.1)">
      <defs>
       <path id="DejaVuSans-52" d="M 2841 2188 
Q 3044 2119 3236 1894 
Q 3428 1669 3622 1275 
L 4263 0 
L 3584 0 
L 2988 1197 
Q 2756 1666 2539 1819 
Q 2322 1972 1947 1972 
L 1259 1972 
L 1259 0 
L 628 0 
L 628 4666 
L 2053 4666 
Q 2853 4666 3247 4331 
Q 3641 3997 3641 3322 
Q 3641 2881 3436 2590 
Q 3231 2300 2841 2188 
z
M 1259 4147 
L 1259 2491 
L 2053 2491 
Q 2509 2491 2742 2702 
Q 2975 2913 2975 3322 
Q 2975 3731 2742 3939 
Q 2509 4147 2053 4147 
L 1259 4147 
z
" transform="scale(0.015625)"/>
       <path id="DejaVuSans-35" d="M 691 4666 
L 3169 4666 
L 3169 4134 
L 1269 4134 
L 1269 2991 
Q 1406 3038 1543 3061 
Q 1681 3084 1819 3084 
Q 2600 3084 3056 2656 
Q 3513 2228 3513 1497 
Q 3513 744 3044 326 
Q 2575 -91 1722 -91 
Q 1428 -91 1123 -41 
Q 819 9 494 109 
L 494 744 
Q 775 591 1075 516 
Q 1375 441 1709 441 
Q 2250 441 2565 725 
Q 2881 1009 2881 1497 
Q 2881 1984 2565 2268 
Q 2250 2553 1709 2553 
Q 1456 2553 1204 2497 
Q 953 2441 691 2322 
L 691 4666 
z
" transform="scale(0.015625)"/>
      </defs>
      <use xlink:href="#DejaVuSans-52"/>
      <use xlink:href="#DejaVuSans-54" x="62.232422"/>
      <use xlink:href="#DejaVuSans-20" x="123.316406"/>
      <use xlink:href="#DejaVuSans-30" x="155.103516"/>
      <use xlink:href="#DejaVuSans-2e" x="218.726562"/>
      <use xlink:href="#DejaVuSans-35" x="250.513672"/>
     </g>
    </g>
    <g id="line2d_14">
     <path d="M 132.915938 76.870625 
L 142.915938 76.870625 
L 152.915938 76.870625 
" style="fill: none; stroke: #4169e1; stroke-width: 2; stroke-linecap: square"/>
    </g>
    <g id="text_14">
     <!-- RT 2.5 -->
     <g transform="translate(160.915938 80.370625)scale(0.1 -0.1)">
      <use xlink:href="#DejaVuSans-52"/>
      <use xlink:href="#DejaVuSans-54" x="62.232422"/>
      <use xlink:href="#DejaVuSans-20" x="123.316406"/>
      <use xlink:href="#DejaVuSans-32" x="155.103516"/>
      <use xlink:href="#DejaVuSans-2e" x="218.726562"/>
      <use xlink:href="#DejaVuSans-35" x="250.513672"/>
     </g>
    </g>
    <g id="line2d_15">
     <path d="M 132.915938 91.54875 
L 142.915938 91.54875 
L 152.915938 91.54875 
" style="fill: none; stroke: #191970; stroke-width: 2; stroke-linecap: square"/>
    </g>
    <g id="text_15">
     <!-- RT 10.0 -->
     <g transform="translate(160.915938 95.04875)scale(0.1 -0.1)">
      <use xlink:href="#DejaVuSans-52"/>
      <use xlink:href="#DejaVuSans-54" x="62.232422"/>
      <use xlink:href="#DejaVuSans-20" x="123.316406"/>
      <use xlink:href="#DejaVuSans-31" x="155.103516"/>
      <use xlink:href="#DejaVuSans-30" x="218.726562"/>
      <use xlink:href="#DejaVuSans-2e" x="282.349609"/>
      <use xlink:href="#DejaVuSans-30" x="314.136719"/>
     </g>
    </g>
   </g>
  </g>
  <g id="axes_2">
   <g id="patch_6">
    <path d="M 335.65267 205.068125 
L 491.626733 205.068125 
L 491.626733 49.094062 
L 335.65267 49.094062 
z
" style="fill: #ffffff"/>
   </g>
   <g id="PolyCollection_4">
    <defs>
     <path id="m1001921898" d="M 342.742401 -49.448264 
L 342.742401 -48.75537 
L 345.105644 -49.394046 
L 347.468887 -49.663628 
L 349.832131 -49.697356 
L 352.195374 -50.029562 
L 354.558617 -50.453183 
L 356.921861 -51.134269 
L 359.285104 -51.388744 
L 361.648348 -51.705417 
L 364.011591 -51.803824 
L 366.374834 -51.940162 
L 368.738078 -52.177751 
L 371.101321 -52.442349 
L 373.464564 -52.78591 
L 375.827808 -52.888816 
L 378.191051 -53.221795 
L 380.554295 -53.483592 
L 382.917538 -53.783708 
L 385.280781 -53.796888 
L 387.644025 -54.520104 
L 390.007268 -54.856774 
L 392.370511 -55.125956 
L 394.733755 -55.718395 
L 397.096998 -55.679342 
L 399.460241 -56.210236 
L 401.823485 -56.453896 
L 404.186728 -56.863731 
L 406.549972 -57.077571 
L 408.913215 -57.667951 
L 411.276458 -57.843062 
L 413.639702 -58.091105 
L 416.002945 -58.719952 
L 418.366188 -58.721568 
L 420.729432 -59.076299 
L 423.092675 -59.83761 
L 425.455919 -60.271457 
L 427.819162 -60.446197 
L 430.182405 -60.975835 
L 432.545649 -61.1789 
L 434.908892 -61.261327 
L 437.272135 -61.699383 
L 439.635379 -61.846493 
L 441.998622 -61.668424 
L 444.361866 -62.261457 
L 446.725109 -61.928313 
L 449.088352 -62.036976 
L 451.451596 -62.54234 
L 453.814839 -62.30046 
L 456.178082 -62.370076 
L 458.541326 -62.414282 
L 460.904569 -62.1126 
L 463.267813 -62.553303 
L 465.631056 -62.330058 
L 467.994299 -62.486211 
L 470.357543 -62.23931 
L 472.720786 -62.768783 
L 475.084029 -62.549218 
L 477.447273 -62.292453 
L 479.810516 -62.137804 
L 482.173759 -62.350514 
L 484.537003 -62.203374 
L 484.537003 -65.598003 
L 484.537003 -65.598003 
L 482.173759 -65.356362 
L 479.810516 -65.134368 
L 477.447273 -64.790716 
L 475.084029 -65.100958 
L 472.720786 -64.843593 
L 470.357543 -65.051762 
L 467.994299 -64.540257 
L 465.631056 -64.526309 
L 463.267813 -64.321964 
L 460.904569 -64.460263 
L 458.541326 -64.177481 
L 456.178082 -64.127187 
L 453.814839 -64.310204 
L 451.451596 -63.879322 
L 449.088352 -64.138983 
L 446.725109 -63.945242 
L 444.361866 -63.8011 
L 441.998622 -64.167331 
L 439.635379 -63.422255 
L 437.272135 -63.266962 
L 434.908892 -63.06241 
L 432.545649 -62.880235 
L 430.182405 -62.478492 
L 427.819162 -62.649026 
L 425.455919 -62.105558 
L 423.092675 -61.745596 
L 420.729432 -61.335093 
L 418.366188 -61.047217 
L 416.002945 -60.614127 
L 413.639702 -60.127861 
L 411.276458 -59.525394 
L 408.913215 -58.982298 
L 406.549972 -59.005671 
L 404.186728 -58.236699 
L 401.823485 -58.136228 
L 399.460241 -57.453778 
L 397.096998 -57.115261 
L 394.733755 -56.490302 
L 392.370511 -55.929827 
L 390.007268 -55.972207 
L 387.644025 -55.496168 
L 385.280781 -55.274372 
L 382.917538 -54.588244 
L 380.554295 -54.415854 
L 378.191051 -53.883842 
L 375.827808 -53.857717 
L 373.464564 -53.280215 
L 371.101321 -53.264672 
L 368.738078 -53.056764 
L 366.374834 -52.368243 
L 364.011591 -52.050976 
L 361.648348 -51.94148 
L 359.285104 -51.558846 
L 356.921861 -51.265214 
L 354.558617 -50.793387 
L 352.195374 -50.5744 
L 349.832131 -50.188398 
L 347.468887 -49.806321 
L 345.105644 -49.641198 
L 342.742401 -49.448264 
z
" style="stroke: #b0c4de; stroke-opacity: 0.2"/>
    </defs>
    <g clip-path="url(#p6cefffb79a)">
     <use xlink:href="#m1001921898" x="0" y="250.56" style="fill: #b0c4de; fill-opacity: 0.2; stroke: #b0c4de; stroke-opacity: 0.2"/>
    </g>
   </g>
   <g id="PolyCollection_5">
    <defs>
     <path id="mc76e31a7b3" d="M 342.742401 -49.442493 
L 342.742401 -48.874542 
L 345.105644 -49.445388 
L 347.468887 -49.613307 
L 349.832131 -49.936114 
L 352.195374 -50.188055 
L 354.558617 -50.604977 
L 356.921861 -50.786441 
L 359.285104 -51.015968 
L 361.648348 -51.408874 
L 364.011591 -51.978116 
L 366.374834 -52.289191 
L 368.738078 -52.224067 
L 371.101321 -52.764752 
L 373.464564 -53.022312 
L 375.827808 -53.476663 
L 378.191051 -53.616288 
L 380.554295 -53.980878 
L 382.917538 -54.113069 
L 385.280781 -54.764421 
L 387.644025 -55.177062 
L 390.007268 -55.456096 
L 392.370511 -56.002372 
L 394.733755 -56.116342 
L 397.096998 -56.594812 
L 399.460241 -56.85962 
L 401.823485 -57.038504 
L 404.186728 -56.833508 
L 406.549972 -57.182313 
L 408.913215 -57.512415 
L 411.276458 -57.213885 
L 413.639702 -57.535734 
L 416.002945 -57.813643 
L 418.366188 -57.929495 
L 420.729432 -57.890141 
L 423.092675 -58.041227 
L 425.455919 -57.824268 
L 427.819162 -58.272159 
L 430.182405 -58.374501 
L 432.545649 -58.590911 
L 434.908892 -58.620771 
L 437.272135 -58.584244 
L 439.635379 -58.671402 
L 441.998622 -58.845341 
L 444.361866 -58.885423 
L 446.725109 -58.99566 
L 449.088352 -59.114492 
L 451.451596 -59.322016 
L 453.814839 -59.232146 
L 456.178082 -59.265316 
L 458.541326 -59.732876 
L 460.904569 -59.548155 
L 463.267813 -59.99243 
L 465.631056 -59.971854 
L 467.994299 -59.868623 
L 470.357543 -60.292526 
L 472.720786 -60.257704 
L 475.084029 -60.307128 
L 477.447273 -60.175499 
L 479.810516 -60.677808 
L 482.173759 -60.464202 
L 484.537003 -60.834041 
L 484.537003 -61.599675 
L 484.537003 -61.599675 
L 482.173759 -61.68601 
L 479.810516 -61.359003 
L 477.447273 -61.483307 
L 475.084029 -61.124876 
L 472.720786 -60.947497 
L 470.357543 -60.742573 
L 467.994299 -60.920773 
L 465.631056 -61.006544 
L 463.267813 -60.796967 
L 460.904569 -60.579733 
L 458.541326 -60.584015 
L 456.178082 -59.974263 
L 453.814839 -60.65004 
L 451.451596 -60.030963 
L 449.088352 -59.822683 
L 446.725109 -60.054916 
L 444.361866 -59.957251 
L 441.998622 -59.619328 
L 439.635379 -59.679866 
L 437.272135 -59.615822 
L 434.908892 -59.446994 
L 432.545649 -59.117749 
L 430.182405 -59.296359 
L 427.819162 -59.152998 
L 425.455919 -58.958281 
L 423.092675 -58.722422 
L 420.729432 -58.854608 
L 418.366188 -58.41835 
L 416.002945 -58.042796 
L 413.639702 -58.339605 
L 411.276458 -58.132249 
L 408.913215 -57.909319 
L 406.549972 -57.729115 
L 404.186728 -57.605415 
L 401.823485 -57.929625 
L 399.460241 -57.465902 
L 397.096998 -56.880199 
L 394.733755 -56.886164 
L 392.370511 -56.678831 
L 390.007268 -56.015492 
L 387.644025 -55.406215 
L 385.280781 -55.346351 
L 382.917538 -54.939291 
L 380.554295 -54.296573 
L 378.191051 -54.018556 
L 375.827808 -53.799076 
L 373.464564 -53.573019 
L 371.101321 -52.961169 
L 368.738078 -52.821446 
L 366.374834 -52.718522 
L 364.011591 -52.38699 
L 361.648348 -52.351425 
L 359.285104 -51.591417 
L 356.921861 -51.140536 
L 354.558617 -50.754993 
L 352.195374 -50.69941 
L 349.832131 -50.365444 
L 347.468887 -50.140145 
L 345.105644 -49.627656 
L 342.742401 -49.442493 
z
" style="stroke: #4169e1; stroke-opacity: 0.2"/>
    </defs>
    <g clip-path="url(#p6cefffb79a)">
     <use xlink:href="#mc76e31a7b3" x="0" y="250.56" style="fill: #4169e1; fill-opacity: 0.2; stroke: #4169e1; stroke-opacity: 0.2"/>
    </g>
   </g>
   <g id="PolyCollection_6">
    <defs>
     <path id="m7f72e1b07e" d="M 342.742401 -48.91684 
L 342.742401 -47.736976 
L 345.105644 -48.154709 
L 347.468887 -48.83105 
L 349.832131 -48.788575 
L 352.195374 -49.117341 
L 354.558617 -49.206017 
L 356.921861 -49.486568 
L 359.285104 -49.984828 
L 361.648348 -50.159371 
L 364.011591 -50.644596 
L 366.374834 -50.323768 
L 368.738078 -50.637918 
L 371.101321 -50.703094 
L 373.464564 -50.968958 
L 375.827808 -51.315771 
L 378.191051 -51.4933 
L 380.554295 -51.73472 
L 382.917538 -52.454693 
L 385.280781 -52.875641 
L 387.644025 -53.330937 
L 390.007268 -53.748235 
L 392.370511 -53.760038 
L 394.733755 -53.778713 
L 397.096998 -53.840927 
L 399.460241 -54.173411 
L 401.823485 -54.298822 
L 404.186728 -54.457223 
L 406.549972 -54.48794 
L 408.913215 -54.563056 
L 411.276458 -54.611128 
L 413.639702 -54.415409 
L 416.002945 -55.076809 
L 418.366188 -54.904799 
L 420.729432 -54.832627 
L 423.092675 -54.746149 
L 425.455919 -54.71209 
L 427.819162 -55.225597 
L 430.182405 -55.35723 
L 432.545649 -55.438097 
L 434.908892 -55.759112 
L 437.272135 -55.46883 
L 439.635379 -55.498982 
L 441.998622 -55.828893 
L 444.361866 -55.631001 
L 446.725109 -55.886014 
L 449.088352 -55.607913 
L 451.451596 -56.237225 
L 453.814839 -55.899034 
L 456.178082 -56.102299 
L 458.541326 -56.277925 
L 460.904569 -56.221271 
L 463.267813 -56.354057 
L 465.631056 -56.374755 
L 467.994299 -56.541204 
L 470.357543 -56.509935 
L 472.720786 -57.084132 
L 475.084029 -56.884681 
L 477.447273 -56.850274 
L 479.810516 -57.115584 
L 482.173759 -57.174783 
L 484.537003 -56.984144 
L 484.537003 -62.236535 
L 484.537003 -62.236535 
L 482.173759 -61.894694 
L 479.810516 -61.953892 
L 477.447273 -61.368692 
L 475.084029 -61.390986 
L 472.720786 -61.304937 
L 470.357543 -61.047523 
L 467.994299 -60.940654 
L 465.631056 -60.615697 
L 463.267813 -61.165601 
L 460.904569 -60.73138 
L 458.541326 -60.618026 
L 456.178082 -60.113244 
L 453.814839 -60.278709 
L 451.451596 -60.431924 
L 449.088352 -59.927223 
L 446.725109 -60.253928 
L 444.361866 -59.979735 
L 441.998622 -59.46054 
L 439.635379 -59.809351 
L 437.272135 -59.556 
L 434.908892 -59.171217 
L 432.545649 -59.095326 
L 430.182405 -59.024992 
L 427.819162 -58.495117 
L 425.455919 -58.498318 
L 423.092675 -58.46426 
L 420.729432 -58.339981 
L 418.366188 -57.663001 
L 416.002945 -57.623293 
L 413.639702 -57.604285 
L 411.276458 -57.219564 
L 408.913215 -57.173135 
L 406.549972 -56.926947 
L 404.186728 -56.560759 
L 401.823485 -56.227755 
L 399.460241 -56.126363 
L 397.096998 -55.891841 
L 394.733755 -55.746152 
L 392.370511 -55.197821 
L 390.007268 -55.134022 
L 387.644025 -54.814213 
L 385.280781 -54.475699 
L 382.917538 -54.650944 
L 380.554295 -53.972301 
L 378.191051 -53.854617 
L 375.827808 -53.351738 
L 373.464564 -53.037043 
L 371.101321 -52.735901 
L 368.738078 -52.441973 
L 366.374834 -52.208016 
L 364.011591 -51.679286 
L 361.648348 -51.616405 
L 359.285104 -51.034939 
L 356.921861 -51.041793 
L 354.558617 -50.641936 
L 352.195374 -50.125805 
L 349.832131 -50.076566 
L 347.468887 -49.996291 
L 345.105644 -49.689821 
L 342.742401 -48.91684 
z
" style="stroke: #191970; stroke-opacity: 0.2"/>
    </defs>
    <g clip-path="url(#p6cefffb79a)">
     <use xlink:href="#m7f72e1b07e" x="0" y="250.56" style="fill: #191970; fill-opacity: 0.2; stroke: #191970; stroke-opacity: 0.2"/>
    </g>
   </g>
   <g id="matplotlib.axis_3">
    <g id="xtick_4">
     <g id="line2d_16">
      <g>
       <use xlink:href="#ma6bc1b652a" x="342.742401" y="205.068125" style="stroke: #000000; stroke-width: 0.8"/>
      </g>
     </g>
     <g id="text_16">
      <!-- 0 -->
      <g transform="translate(339.561151 219.666562)scale(0.1 -0.1)">
       <use xlink:href="#DejaVuSans-30"/>
      </g>
     </g>
    </g>
    <g id="xtick_5">
     <g id="line2d_17">
      <g>
       <use xlink:href="#ma6bc1b652a" x="401.823485" y="205.068125" style="stroke: #000000; stroke-width: 0.8"/>
      </g>
     </g>
     <g id="text_17">
      <!-- 100 -->
      <g transform="translate(392.279735 219.666562)scale(0.1 -0.1)">
       <use xlink:href="#DejaVuSans-31"/>
       <use xlink:href="#DejaVuSans-30" x="63.623047"/>
       <use xlink:href="#DejaVuSans-30" x="127.246094"/>
      </g>
     </g>
    </g>
    <g id="xtick_6">
     <g id="line2d_18">
      <g>
       <use xlink:href="#ma6bc1b652a" x="460.904569" y="205.068125" style="stroke: #000000; stroke-width: 0.8"/>
      </g>
     </g>
     <g id="text_18">
      <!-- 200 -->
      <g transform="translate(451.360819 219.666562)scale(0.1 -0.1)">
       <use xlink:href="#DejaVuSans-32"/>
       <use xlink:href="#DejaVuSans-30" x="63.623047"/>
       <use xlink:href="#DejaVuSans-30" x="127.246094"/>
      </g>
     </g>
    </g>
    <g id="text_19">
     <!-- Time (min) -->
     <g transform="translate(381.056889 240.864375)scale(0.12 -0.12)">
      <use xlink:href="#DejaVuSans-54"/>
      <use xlink:href="#DejaVuSans-69" x="57.958984"/>
      <use xlink:href="#DejaVuSans-6d" x="85.742188"/>
      <use xlink:href="#DejaVuSans-65" x="183.154297"/>
      <use xlink:href="#DejaVuSans-20" x="244.677734"/>
      <use xlink:href="#DejaVuSans-28" x="276.464844"/>
      <use xlink:href="#DejaVuSans-6d" x="315.478516"/>
      <use xlink:href="#DejaVuSans-69" x="412.890625"/>
      <use xlink:href="#DejaVuSans-6e" x="440.673828"/>
      <use xlink:href="#DejaVuSans-29" x="504.052734"/>
     </g>
    </g>
   </g>
   <g id="matplotlib.axis_4">
    <g id="ytick_7">
     <g id="line2d_19">
      <g>
       <use xlink:href="#m20bf0cdb9a" x="335.65267" y="205.068125" style="stroke: #000000; stroke-width: 0.8"/>
      </g>
     </g>
     <g id="text_20">
      <!-- 0.0 -->
      <g transform="translate(312.749545 208.867344)scale(0.1 -0.1)">
       <use xlink:href="#DejaVuSans-30"/>
       <use xlink:href="#DejaVuSans-2e" x="63.623047"/>
       <use xlink:href="#DejaVuSans-30" x="95.410156"/>
      </g>
     </g>
    </g>
    <g id="ytick_8">
     <g id="line2d_20">
      <g>
       <use xlink:href="#m20bf0cdb9a" x="335.65267" y="173.873312" style="stroke: #000000; stroke-width: 0.8"/>
      </g>
     </g>
     <g id="text_21">
      <!-- 0.2 -->
      <g transform="translate(312.749545 177.672531)scale(0.1 -0.1)">
       <use xlink:href="#DejaVuSans-30"/>
       <use xlink:href="#DejaVuSans-2e" x="63.623047"/>
       <use xlink:href="#DejaVuSans-32" x="95.410156"/>
      </g>
     </g>
    </g>
    <g id="ytick_9">
     <g id="line2d_21">
      <g>
       <use xlink:href="#m20bf0cdb9a" x="335.65267" y="142.6785" style="stroke: #000000; stroke-width: 0.8"/>
      </g>
     </g>
     <g id="text_22">
      <!-- 0.4 -->
      <g transform="translate(312.749545 146.477719)scale(0.1 -0.1)">
       <use xlink:href="#DejaVuSans-30"/>
       <use xlink:href="#DejaVuSans-2e" x="63.623047"/>
       <use xlink:href="#DejaVuSans-34" x="95.410156"/>
      </g>
     </g>
    </g>
    <g id="ytick_10">
     <g id="line2d_22">
      <g>
       <use xlink:href="#m20bf0cdb9a" x="335.65267" y="111.483687" style="stroke: #000000; stroke-width: 0.8"/>
      </g>
     </g>
     <g id="text_23">
      <!-- 0.6 -->
      <g transform="translate(312.749545 115.282906)scale(0.1 -0.1)">
       <use xlink:href="#DejaVuSans-30"/>
       <use xlink:href="#DejaVuSans-2e" x="63.623047"/>
       <use xlink:href="#DejaVuSans-36" x="95.410156"/>
      </g>
     </g>
    </g>
    <g id="ytick_11">
     <g id="line2d_23">
      <g>
       <use xlink:href="#m20bf0cdb9a" x="335.65267" y="80.288875" style="stroke: #000000; stroke-width: 0.8"/>
      </g>
     </g>
     <g id="text_24">
      <!-- 0.8 -->
      <g transform="translate(312.749545 84.088094)scale(0.1 -0.1)">
       <use xlink:href="#DejaVuSans-30"/>
       <use xlink:href="#DejaVuSans-2e" x="63.623047"/>
       <use xlink:href="#DejaVuSans-38" x="95.410156"/>
      </g>
     </g>
    </g>
    <g id="ytick_12">
     <g id="line2d_24">
      <g>
       <use xlink:href="#m20bf0cdb9a" x="335.65267" y="49.094062" style="stroke: #000000; stroke-width: 0.8"/>
      </g>
     </g>
     <g id="text_25">
      <!-- 1.0 -->
      <g transform="translate(312.749545 52.893281)scale(0.1 -0.1)">
       <use xlink:href="#DejaVuSans-31"/>
       <use xlink:href="#DejaVuSans-2e" x="63.623047"/>
       <use xlink:href="#DejaVuSans-30" x="95.410156"/>
      </g>
     </g>
    </g>
    <g id="text_26">
     <!-- Normalized exp output -->
     <g transform="translate(300.25392 195.658281)rotate(-90)scale(0.12 -0.12)">
      <use xlink:href="#DejaVuSans-4e"/>
      <use xlink:href="#DejaVuSans-6f" x="74.804688"/>
      <use xlink:href="#DejaVuSans-72" x="135.986328"/>
      <use xlink:href="#DejaVuSans-6d" x="175.349609"/>
      <use xlink:href="#DejaVuSans-61" x="272.761719"/>
      <use xlink:href="#DejaVuSans-6c" x="334.041016"/>
      <use xlink:href="#DejaVuSans-69" x="361.824219"/>
      <use xlink:href="#DejaVuSans-7a" x="389.607422"/>
      <use xlink:href="#DejaVuSans-65" x="442.097656"/>
      <use xlink:href="#DejaVuSans-64" x="503.621094"/>
      <use xlink:href="#DejaVuSans-20" x="567.097656"/>
      <use xlink:href="#DejaVuSans-65" x="598.884766"/>
      <use xlink:href="#DejaVuSans-78" x="658.658203"/>
      <use xlink:href="#DejaVuSans-70" x="717.837891"/>
      <use xlink:href="#DejaVuSans-20" x="781.314453"/>
      <use xlink:href="#DejaVuSans-6f" x="813.101562"/>
      <use xlink:href="#DejaVuSans-75" x="874.283203"/>
      <use xlink:href="#DejaVuSans-74" x="937.662109"/>
      <use xlink:href="#DejaVuSans-70" x="976.871094"/>
      <use xlink:href="#DejaVuSans-75" x="1040.347656"/>
      <use xlink:href="#DejaVuSans-74" x="1103.726562"/>
     </g>
    </g>
   </g>
   <g id="line2d_25">
    <path d="M 342.742401 201.458183 
L 345.105644 201.042378 
L 347.468887 200.825026 
L 349.832131 200.617123 
L 352.195374 200.258019 
L 354.558617 199.936715 
L 356.921861 199.360259 
L 359.285104 199.086205 
L 361.648348 198.736551 
L 364.011591 198.6326 
L 366.374834 198.405798 
L 368.738078 197.942742 
L 371.101321 197.706489 
L 373.464564 197.526937 
L 375.827808 197.186733 
L 378.191051 197.007181 
L 380.554295 196.610277 
L 382.917538 196.374024 
L 385.280781 196.02437 
L 387.644025 195.551864 
L 390.007268 195.14551 
L 392.370511 195.032108 
L 394.733755 194.455652 
L 397.096998 194.162698 
L 399.460241 193.727993 
L 401.823485 193.264938 
L 404.186728 193.009785 
L 406.549972 192.518379 
L 408.913215 192.234876 
L 411.276458 191.875772 
L 413.639702 191.450517 
L 416.002945 190.89296 
L 418.366188 190.675608 
L 420.729432 190.354304 
L 423.092675 189.768397 
L 425.455919 189.371493 
L 427.819162 189.012388 
L 430.182405 188.832836 
L 432.545649 188.530433 
L 434.908892 188.398131 
L 437.272135 188.076828 
L 439.635379 187.925626 
L 441.998622 187.642123 
L 444.361866 187.528721 
L 446.725109 187.623222 
L 449.088352 187.472021 
L 451.451596 187.349169 
L 453.814839 187.254668 
L 456.178082 187.311369 
L 458.541326 187.264118 
L 460.904569 187.273568 
L 463.267813 187.122366 
L 465.631056 187.131817 
L 467.994299 187.046766 
L 470.357543 186.914464 
L 472.720786 186.753812 
L 475.084029 186.734912 
L 477.447273 187.018415 
L 479.810516 186.923914 
L 482.173759 186.706562 
L 484.537003 186.659311 
" clip-path="url(#p6cefffb79a)" style="fill: none; stroke: #b0c4de; stroke-width: 2; stroke-linecap: square"/>
   </g>
   <g id="line2d_26">
    <path d="M 342.742401 201.401482 
L 345.105644 201.023478 
L 347.468887 200.683274 
L 349.832131 200.409221 
L 352.195374 200.116267 
L 354.558617 199.880015 
L 356.921861 199.596511 
L 359.285104 199.256307 
L 361.648348 198.679851 
L 364.011591 198.377447 
L 366.374834 198.056144 
L 368.738078 198.037243 
L 371.101321 197.697039 
L 373.464564 197.262334 
L 375.827808 196.92213 
L 378.191051 196.742578 
L 380.554295 196.421275 
L 382.917538 196.03382 
L 385.280781 195.504614 
L 387.644025 195.268361 
L 390.007268 194.824206 
L 392.370511 194.219399 
L 394.733755 194.058747 
L 397.096998 193.822494 
L 399.460241 193.397239 
L 401.823485 193.075936 
L 404.186728 193.340539 
L 406.549972 193.104286 
L 408.913215 192.849133 
L 411.276458 192.886933 
L 413.639702 192.62233 
L 416.002945 192.63178 
L 418.366188 192.386078 
L 420.729432 192.187625 
L 423.092675 192.178175 
L 425.455919 192.168725 
L 427.819162 191.847421 
L 430.182405 191.72457 
L 432.545649 191.70567 
L 434.908892 191.526118 
L 437.272135 191.459967 
L 439.635379 191.384366 
L 441.998622 191.327665 
L 444.361866 191.138663 
L 446.725109 191.034712 
L 449.088352 191.091413 
L 451.451596 190.88351 
L 453.814839 190.618907 
L 456.178082 190.940211 
L 458.541326 190.401555 
L 460.904569 190.496056 
L 463.267813 190.165302 
L 465.631056 190.070801 
L 467.994299 190.165302 
L 470.357543 190.04245 
L 472.720786 189.957399 
L 475.084029 189.843998 
L 477.447273 189.730597 
L 479.810516 189.541595 
L 482.173759 189.484894 
L 484.537003 189.343142 
" clip-path="url(#p6cefffb79a)" style="fill: none; stroke: #4169e1; stroke-width: 2; stroke-linecap: square"/>
   </g>
   <g id="line2d_27">
    <path d="M 342.742401 202.233092 
L 345.105644 201.637735 
L 347.468887 201.146329 
L 349.832131 201.127429 
L 352.195374 200.938427 
L 354.558617 200.636023 
L 356.921861 200.29582 
L 359.285104 200.050117 
L 361.648348 199.672112 
L 364.011591 199.398059 
L 366.374834 199.294108 
L 368.738078 199.020055 
L 371.101321 198.840503 
L 373.464564 198.556999 
L 375.827808 198.226245 
L 378.191051 197.886042 
L 380.554295 197.706489 
L 382.917538 197.007181 
L 385.280781 196.88433 
L 387.644025 196.487425 
L 390.007268 196.118871 
L 392.370511 196.081071 
L 394.733755 195.797567 
L 397.096998 195.693616 
L 399.460241 195.410113 
L 401.823485 195.296711 
L 404.186728 195.051009 
L 406.549972 194.852556 
L 408.913215 194.691904 
L 411.276458 194.644654 
L 413.639702 194.550153 
L 416.002945 194.209949 
L 418.366188 194.2761 
L 420.729432 193.973696 
L 423.092675 193.954796 
L 425.455919 193.954796 
L 427.819162 193.699643 
L 430.182405 193.368889 
L 432.545649 193.293288 
L 434.908892 193.094836 
L 437.272135 193.047585 
L 439.635379 192.905834 
L 441.998622 192.915284 
L 444.361866 192.754632 
L 446.725109 192.490029 
L 449.088352 192.792432 
L 451.451596 192.225426 
L 453.814839 192.471129 
L 456.178082 192.452228 
L 458.541326 192.112024 
L 460.904569 192.083674 
L 463.267813 191.800171 
L 465.631056 192.064774 
L 467.994299 191.819071 
L 470.357543 191.781271 
L 472.720786 191.365466 
L 475.084029 191.422166 
L 477.447273 191.450517 
L 479.810516 191.025262 
L 482.173759 191.025262 
L 484.537003 190.949661 
" clip-path="url(#p6cefffb79a)" style="fill: none; stroke: #191970; stroke-width: 2; stroke-linecap: square"/>
   </g>
   <g id="patch_7">
    <path d="M 335.65267 205.068125 
L 335.65267 49.094062 
" style="fill: none; stroke: #000000; stroke-width: 0.8; stroke-linejoin: miter; stroke-linecap: square"/>
   </g>
   <g id="patch_8">
    <path d="M 335.65267 205.068125 
L 491.626733 205.068125 
" style="fill: none; stroke: #000000; stroke-width: 0.8; stroke-linejoin: miter; stroke-linecap: square"/>
   </g>
   <g id="text_27">
    <!-- vRNA = 1fM -->
    <g transform="translate(380.175639 43.094062)scale(0.1 -0.1)">
     <defs>
      <path id="DejaVuSans-Bold-31" d="M 750 831 
L 1813 831 
L 1813 3847 
L 722 3622 
L 722 4441 
L 1806 4666 
L 2950 4666 
L 2950 831 
L 4013 831 
L 4013 0 
L 750 0 
L 750 831 
z
" transform="scale(0.015625)"/>
     </defs>
     <use xlink:href="#DejaVuSans-Bold-76"/>
     <use xlink:href="#DejaVuSans-Bold-52" x="65.185547"/>
     <use xlink:href="#DejaVuSans-Bold-4e" x="142.1875"/>
     <use xlink:href="#DejaVuSans-Bold-41" x="225.878906"/>
     <use xlink:href="#DejaVuSans-Bold-20" x="303.271484"/>
     <use xlink:href="#DejaVuSans-Bold-3d" x="338.085938"/>
     <use xlink:href="#DejaVuSans-Bold-20" x="421.875"/>
     <use xlink:href="#DejaVuSans-Bold-31" x="456.689453"/>
     <use xlink:href="#DejaVuSans-Bold-66" x="526.269531"/>
     <use xlink:href="#DejaVuSans-Bold-4d" x="569.775391"/>
    </g>
   </g>
   <g id="legend_2">
    <g id="patch_9">
     <path d="M 414.851733 101.128437 
L 484.626733 101.128437 
Q 486.626733 101.128437 486.626733 99.128437 
L 486.626733 56.094062 
Q 486.626733 54.094062 484.626733 54.094062 
L 414.851733 54.094062 
Q 412.851733 54.094062 412.851733 56.094062 
L 412.851733 99.128437 
Q 412.851733 101.128437 414.851733 101.128437 
z
" style="fill: #ffffff; opacity: 0.8; stroke: #cccccc; stroke-linejoin: miter"/>
    </g>
    <g id="line2d_28">
     <path d="M 416.851733 62.1925 
L 426.851733 62.1925 
L 436.851733 62.1925 
" style="fill: none; stroke: #b0c4de; stroke-width: 2; stroke-linecap: square"/>
    </g>
    <g id="text_28">
     <!-- RT 0.5 -->
     <g transform="translate(444.851733 65.6925)scale(0.1 -0.1)">
      <use xlink:href="#DejaVuSans-52"/>
      <use xlink:href="#DejaVuSans-54" x="62.232422"/>
      <use xlink:href="#DejaVuSans-20" x="123.316406"/>
      <use xlink:href="#DejaVuSans-30" x="155.103516"/>
      <use xlink:href="#DejaVuSans-2e" x="218.726562"/>
      <use xlink:href="#DejaVuSans-35" x="250.513672"/>
     </g>
    </g>
    <g id="line2d_29">
     <path d="M 416.851733 76.870625 
L 426.851733 76.870625 
L 436.851733 76.870625 
" style="fill: none; stroke: #4169e1; stroke-width: 2; stroke-linecap: square"/>
    </g>
    <g id="text_29">
     <!-- RT 2.5 -->
     <g transform="translate(444.851733 80.370625)scale(0.1 -0.1)">
      <use xlink:href="#DejaVuSans-52"/>
      <use xlink:href="#DejaVuSans-54" x="62.232422"/>
      <use xlink:href="#DejaVuSans-20" x="123.316406"/>
      <use xlink:href="#DejaVuSans-32" x="155.103516"/>
      <use xlink:href="#DejaVuSans-2e" x="218.726562"/>
      <use xlink:href="#DejaVuSans-35" x="250.513672"/>
     </g>
    </g>
    <g id="line2d_30">
     <path d="M 416.851733 91.54875 
L 426.851733 91.54875 
L 436.851733 91.54875 
" style="fill: none; stroke: #191970; stroke-width: 2; stroke-linecap: square"/>
    </g>
    <g id="text_30">
     <!-- RT 10.0 -->
     <g transform="translate(444.851733 95.04875)scale(0.1 -0.1)">
      <use xlink:href="#DejaVuSans-52"/>
      <use xlink:href="#DejaVuSans-54" x="62.232422"/>
      <use xlink:href="#DejaVuSans-20" x="123.316406"/>
      <use xlink:href="#DejaVuSans-31" x="155.103516"/>
      <use xlink:href="#DejaVuSans-30" x="218.726562"/>
      <use xlink:href="#DejaVuSans-2e" x="282.349609"/>
      <use xlink:href="#DejaVuSans-30" x="314.136719"/>
     </g>
    </g>
   </g>
  </g>
  <g id="axes_3">
   <g id="patch_10">
    <path d="M 619.588466 205.068125 
L 775.562528 205.068125 
L 775.562528 49.094062 
L 619.588466 49.094062 
z
" style="fill: #ffffff"/>
   </g>
   <g id="PolyCollection_7">
    <defs>
     <path id="m4425f92af9" d="M 626.678196 -49.137233 
L 626.678196 -48.877398 
L 629.041439 -49.469196 
L 631.404683 -49.417655 
L 633.767926 -49.935329 
L 636.13117 -50.299889 
L 638.494413 -50.75012 
L 640.857656 -51.095004 
L 643.2209 -51.226 
L 645.584143 -51.558846 
L 647.947386 -51.960004 
L 650.31063 -51.95575 
L 652.673873 -51.95647 
L 655.037116 -52.607808 
L 657.40036 -52.933931 
L 659.763603 -53.094961 
L 662.126847 -53.503218 
L 664.49009 -54.037158 
L 666.853333 -54.276256 
L 669.216577 -54.963934 
L 671.57982 -54.8513 
L 673.943063 -55.51719 
L 676.306307 -55.954266 
L 678.66955 -56.504291 
L 681.032794 -57.037851 
L 683.396037 -57.681282 
L 685.75928 -58.15385 
L 688.122524 -59.091064 
L 690.485767 -59.739652 
L 692.84901 -61.292881 
L 695.212254 -61.699094 
L 697.575497 -63.235992 
L 699.938741 -64.532947 
L 702.301984 -65.23377 
L 704.665227 -66.524558 
L 707.028471 -67.216332 
L 709.391714 -68.556876 
L 711.754957 -70.062175 
L 714.118201 -71.306416 
L 716.481444 -72.610317 
L 718.844687 -73.774063 
L 721.207931 -75.484232 
L 723.571174 -76.849188 
L 725.934418 -77.994452 
L 728.297661 -78.842836 
L 730.660904 -80.161486 
L 733.024148 -80.76803 
L 735.387391 -82.405927 
L 737.750634 -83.634786 
L 740.113878 -84.764298 
L 742.477121 -86.236717 
L 744.840365 -87.533129 
L 747.203608 -88.849387 
L 749.566851 -90.064722 
L 751.930095 -91.071319 
L 754.293338 -92.07037 
L 756.656581 -93.301976 
L 759.019825 -95.407037 
L 761.383068 -96.288503 
L 763.746312 -97.646751 
L 766.109555 -99.593215 
L 768.472798 -101.101317 
L 768.472798 -171.343441 
L 768.472798 -171.343441 
L 766.109555 -170.602417 
L 763.746312 -170.923463 
L 761.383068 -169.59788 
L 759.019825 -172.066964 
L 756.656581 -169.484771 
L 754.293338 -170.546274 
L 751.930095 -172.112332 
L 749.566851 -172.684224 
L 747.203608 -172.935648 
L 744.840365 -175.48042 
L 742.477121 -175.529418 
L 740.113878 -176.982936 
L 737.750634 -175.107313 
L 735.387391 -174.805254 
L 733.024148 -175.573742 
L 730.660904 -176.180286 
L 728.297661 -172.66048 
L 725.934418 -172.658354 
L 723.571174 -169.040763 
L 721.207931 -165.945266 
L 718.844687 -162.306673 
L 716.481444 -158.934366 
L 714.118201 -153.075084 
L 711.754957 -149.083964 
L 709.391714 -141.895162 
L 707.028471 -136.63953 
L 704.665227 -130.16812 
L 702.301984 -123.672018 
L 699.938741 -116.56705 
L 697.575497 -110.360618 
L 695.212254 -103.65702 
L 692.84901 -96.786648 
L 690.485767 -90.912091 
L 688.122524 -84.907802 
L 685.75928 -79.645744 
L 683.396037 -73.88124 
L 681.032794 -69.36491 
L 678.66955 -65.438019 
L 676.306307 -62.415902 
L 673.943063 -59.299737 
L 671.57982 -57.187294 
L 669.216577 -55.751645 
L 666.853333 -54.851705 
L 664.49009 -54.296993 
L 662.126847 -53.961524 
L 659.763603 -53.708273 
L 657.40036 -53.169995 
L 655.037116 -52.83461 
L 652.673873 -52.824441 
L 650.31063 -52.295954 
L 647.947386 -52.102698 
L 645.584143 -51.785648 
L 643.2209 -51.740489 
L 640.857656 -51.43678 
L 638.494413 -51.082356 
L 636.13117 -50.814378 
L 633.767926 -50.215027 
L 631.404683 -49.74989 
L 629.041439 -49.698349 
L 626.678196 -49.137233 
z
" style="stroke: #b0c4de; stroke-opacity: 0.2"/>
    </defs>
    <g clip-path="url(#p0f2e6e2f42)">
     <use xlink:href="#m4425f92af9" x="0" y="250.56" style="fill: #b0c4de; fill-opacity: 0.2; stroke: #b0c4de; stroke-opacity: 0.2"/>
    </g>
   </g>
   <g id="PolyCollection_8">
    <defs>
     <path id="m4d9595e27a" d="M 626.678196 -49.283914 
L 626.678196 -48.579516 
L 629.041439 -49.479231 
L 631.404683 -49.584435 
L 633.767926 -49.681405 
L 636.13117 -49.397388 
L 638.494413 -50.222809 
L 640.857656 -50.328934 
L 643.2209 -50.625651 
L 645.584143 -50.793438 
L 647.947386 -51.301703 
L 650.31063 -51.354119 
L 652.673873 -51.668346 
L 655.037116 -52.234471 
L 657.40036 -52.230099 
L 659.763603 -53.007409 
L 662.126847 -53.658446 
L 664.49009 -54.520483 
L 666.853333 -55.177153 
L 669.216577 -56.541452 
L 671.57982 -57.294934 
L 673.943063 -58.962232 
L 676.306307 -60.316907 
L 678.66955 -62.032673 
L 681.032794 -64.190375 
L 683.396037 -65.738197 
L 685.75928 -67.74059 
L 688.122524 -69.636981 
L 690.485767 -71.633426 
L 692.84901 -74.301962 
L 695.212254 -75.573517 
L 697.575497 -77.895562 
L 699.938741 -78.665348 
L 702.301984 -79.540538 
L 704.665227 -80.831962 
L 707.028471 -81.756056 
L 709.391714 -82.32427 
L 711.754957 -82.697718 
L 714.118201 -83.307125 
L 716.481444 -82.750271 
L 718.844687 -83.239521 
L 721.207931 -83.621335 
L 723.571174 -83.239692 
L 725.934418 -84.014682 
L 728.297661 -83.628334 
L 730.660904 -83.293517 
L 733.024148 -83.313148 
L 735.387391 -84.059262 
L 737.750634 -84.034866 
L 740.113878 -83.937141 
L 742.477121 -83.871817 
L 744.840365 -83.870259 
L 747.203608 -84.756605 
L 749.566851 -85.32299 
L 751.930095 -84.210105 
L 754.293338 -85.320311 
L 756.656581 -84.551616 
L 759.019825 -84.582582 
L 761.383068 -84.892126 
L 763.746312 -84.729692 
L 766.109555 -85.066054 
L 768.472798 -85.152619 
L 768.472798 -118.419739 
L 768.472798 -118.419739 
L 766.109555 -118.1472 
L 763.746312 -117.425149 
L 761.383068 -117.602919 
L 759.019825 -117.307656 
L 756.656581 -117.565425 
L 754.293338 -117.288137 
L 751.930095 -118.114839 
L 749.566851 -116.794052 
L 747.203608 -117.228134 
L 744.840365 -116.885967 
L 742.477121 -116.260701 
L 740.113878 -116.686783 
L 737.750634 -116.910362 
L 735.387391 -116.507961 
L 733.024148 -116.743769 
L 730.660904 -116.555498 
L 728.297661 -115.389072 
L 725.934418 -113.79311 
L 723.571174 -114.700401 
L 721.207931 -113.260345 
L 718.844687 -112.375845 
L 716.481444 -110.332466 
L 714.118201 -109.057403 
L 711.754957 -108.173693 
L 709.391714 -105.90111 
L 707.028471 -103.067284 
L 704.665227 -100.475938 
L 702.301984 -97.873917 
L 699.938741 -94.893462 
L 697.575497 -90.938193 
L 695.212254 -88.30838 
L 692.84901 -83.701967 
L 690.485767 -81.097342 
L 688.122524 -77.877325 
L 685.75928 -74.387155 
L 683.396037 -71.834594 
L 681.032794 -68.430559 
L 678.66955 -65.825406 
L 676.306307 -63.458724 
L 673.943063 -61.354659 
L 671.57982 -59.393114 
L 669.216577 -57.91637 
L 666.853333 -56.577938 
L 664.49009 -55.968294 
L 662.126847 -55.148211 
L 659.763603 -54.627435 
L 657.40036 -54.346333 
L 655.037116 -53.396949 
L 652.673873 -53.320467 
L 650.31063 -52.897585 
L 647.947386 -52.874401 
L 645.584143 -52.532155 
L 643.2209 -52.019534 
L 640.857656 -52.18395 
L 638.494413 -51.401765 
L 636.13117 -51.168773 
L 633.767926 -50.733555 
L 631.404683 -50.528122 
L 629.041439 -49.934016 
L 626.678196 -49.283914 
z
" style="stroke: #4169e1; stroke-opacity: 0.2"/>
    </defs>
    <g clip-path="url(#p0f2e6e2f42)">
     <use xlink:href="#m4d9595e27a" x="0" y="250.56" style="fill: #4169e1; fill-opacity: 0.2; stroke: #4169e1; stroke-opacity: 0.2"/>
    </g>
   </g>
   <g id="PolyCollection_9">
    <defs>
     <path id="m0f67842c1b" d="M 626.678196 -49.350901 
L 626.678196 -49.136236 
L 629.041439 -49.647608 
L 631.404683 -49.966287 
L 633.767926 -50.246914 
L 636.13117 -50.603209 
L 638.494413 -50.720882 
L 640.857656 -51.083625 
L 643.2209 -50.965656 
L 645.584143 -51.201716 
L 647.947386 -51.377842 
L 650.31063 -51.712858 
L 652.673873 -51.827387 
L 655.037116 -51.826378 
L 657.40036 -52.125852 
L 659.763603 -52.245005 
L 662.126847 -52.18865 
L 664.49009 -52.196077 
L 666.853333 -52.636899 
L 669.216577 -53.10754 
L 671.57982 -54.032357 
L 673.943063 -55.52248 
L 676.306307 -57.420924 
L 678.66955 -59.495043 
L 681.032794 -63.482546 
L 683.396037 -67.288151 
L 685.75928 -71.3103 
L 688.122524 -74.885616 
L 690.485767 -77.721068 
L 692.84901 -80.909213 
L 695.212254 -86.168166 
L 697.575497 -90.635509 
L 699.938741 -94.628956 
L 702.301984 -98.636942 
L 704.665227 -102.678252 
L 707.028471 -105.638247 
L 709.391714 -109.521528 
L 711.754957 -113.705062 
L 714.118201 -115.550005 
L 716.481444 -120.815518 
L 718.844687 -120.007496 
L 721.207931 -121.102937 
L 723.571174 -118.806833 
L 725.934418 -118.292867 
L 728.297661 -119.676116 
L 730.660904 -120.173959 
L 733.024148 -122.094541 
L 735.387391 -122.505955 
L 737.750634 -122.628391 
L 740.113878 -123.954184 
L 742.477121 -123.685693 
L 744.840365 -124.461374 
L 747.203608 -125.128895 
L 749.566851 -124.552925 
L 751.930095 -124.817261 
L 754.293338 -125.881058 
L 756.656581 -126.607823 
L 759.019825 -126.904549 
L 761.383068 -126.011049 
L 763.746312 -127.551854 
L 766.109555 -126.247874 
L 768.472798 -125.809564 
L 768.472798 -139.812216 
L 768.472798 -139.812216 
L 766.109555 -138.9581 
L 763.746312 -139.657544 
L 761.383068 -139.176025 
L 759.019825 -139.151935 
L 756.656581 -140.450373 
L 754.293338 -137.05689 
L 751.930095 -136.551969 
L 749.566851 -136.778504 
L 747.203608 -136.845141 
L 744.840365 -137.928467 
L 742.477121 -137.437834 
L 740.113878 -134.750115 
L 737.750634 -135.754604 
L 735.387391 -134.96983 
L 733.024148 -133.793625 
L 730.660904 -132.690172 
L 728.297661 -133.188015 
L 725.934418 -133.002545 
L 723.571174 -131.411267 
L 721.207931 -129.625469 
L 718.844687 -128.906489 
L 716.481444 -127.947265 
L 714.118201 -125.803892 
L 711.754957 -122.848179 
L 709.391714 -120.076433 
L 707.028471 -118.724353 
L 704.665227 -116.297785 
L 702.301984 -113.87522 
L 699.938741 -110.190817 
L 697.575497 -107.739289 
L 695.212254 -105.780557 
L 692.84901 -103.27152 
L 690.485767 -100.751798 
L 688.122524 -98.33299 
L 685.75928 -95.085326 
L 683.396037 -91.415086 
L 681.032794 -87.396 
L 678.66955 -83.256408 
L 676.306307 -77.883841 
L 673.943063 -73.053807 
L 671.57982 -68.628161 
L 669.216577 -64.790123 
L 666.853333 -61.310618 
L 664.49009 -58.065897 
L 662.126847 -56.240003 
L 659.763603 -54.61493 
L 657.40036 -53.429967 
L 655.037116 -52.860031 
L 652.673873 -52.594419 
L 650.31063 -52.123041 
L 647.947386 -52.117853 
L 645.584143 -51.878175 
L 643.2209 -51.622829 
L 640.857656 -51.448159 
L 638.494413 -51.092693 
L 636.13117 -50.832362 
L 633.767926 -50.791752 
L 631.404683 -50.27857 
L 629.041439 -49.76564 
L 626.678196 -49.350901 
z
" style="stroke: #191970; stroke-opacity: 0.2"/>
    </defs>
    <g clip-path="url(#p0f2e6e2f42)">
     <use xlink:href="#m0f67842c1b" x="0" y="250.56" style="fill: #191970; fill-opacity: 0.2; stroke: #191970; stroke-opacity: 0.2"/>
    </g>
   </g>
   <g id="matplotlib.axis_5">
    <g id="xtick_7">
     <g id="line2d_31">
      <g>
       <use xlink:href="#ma6bc1b652a" x="626.678196" y="205.068125" style="stroke: #000000; stroke-width: 0.8"/>
      </g>
     </g>
     <g id="text_31">
      <!-- 0 -->
      <g transform="translate(623.496946 219.666562)scale(0.1 -0.1)">
       <use xlink:href="#DejaVuSans-30"/>
      </g>
     </g>
    </g>
    <g id="xtick_8">
     <g id="line2d_32">
      <g>
       <use xlink:href="#ma6bc1b652a" x="685.75928" y="205.068125" style="stroke: #000000; stroke-width: 0.8"/>
      </g>
     </g>
     <g id="text_32">
      <!-- 100 -->
      <g transform="translate(676.21553 219.666562)scale(0.1 -0.1)">
       <use xlink:href="#DejaVuSans-31"/>
       <use xlink:href="#DejaVuSans-30" x="63.623047"/>
       <use xlink:href="#DejaVuSans-30" x="127.246094"/>
      </g>
     </g>
    </g>
    <g id="xtick_9">
     <g id="line2d_33">
      <g>
       <use xlink:href="#ma6bc1b652a" x="744.840365" y="205.068125" style="stroke: #000000; stroke-width: 0.8"/>
      </g>
     </g>
     <g id="text_33">
      <!-- 200 -->
      <g transform="translate(735.296615 219.666562)scale(0.1 -0.1)">
       <use xlink:href="#DejaVuSans-32"/>
       <use xlink:href="#DejaVuSans-30" x="63.623047"/>
       <use xlink:href="#DejaVuSans-30" x="127.246094"/>
      </g>
     </g>
    </g>
    <g id="text_34">
     <!-- Time (min) -->
     <g transform="translate(664.992685 240.864375)scale(0.12 -0.12)">
      <use xlink:href="#DejaVuSans-54"/>
      <use xlink:href="#DejaVuSans-69" x="57.958984"/>
      <use xlink:href="#DejaVuSans-6d" x="85.742188"/>
      <use xlink:href="#DejaVuSans-65" x="183.154297"/>
      <use xlink:href="#DejaVuSans-20" x="244.677734"/>
      <use xlink:href="#DejaVuSans-28" x="276.464844"/>
      <use xlink:href="#DejaVuSans-6d" x="315.478516"/>
      <use xlink:href="#DejaVuSans-69" x="412.890625"/>
      <use xlink:href="#DejaVuSans-6e" x="440.673828"/>
      <use xlink:href="#DejaVuSans-29" x="504.052734"/>
     </g>
    </g>
   </g>
   <g id="matplotlib.axis_6">
    <g id="ytick_13">
     <g id="line2d_34">
      <g>
       <use xlink:href="#m20bf0cdb9a" x="619.588466" y="205.068125" style="stroke: #000000; stroke-width: 0.8"/>
      </g>
     </g>
     <g id="text_35">
      <!-- 0.0 -->
      <g transform="translate(596.685341 208.867344)scale(0.1 -0.1)">
       <use xlink:href="#DejaVuSans-30"/>
       <use xlink:href="#DejaVuSans-2e" x="63.623047"/>
       <use xlink:href="#DejaVuSans-30" x="95.410156"/>
      </g>
     </g>
    </g>
    <g id="ytick_14">
     <g id="line2d_35">
      <g>
       <use xlink:href="#m20bf0cdb9a" x="619.588466" y="173.873312" style="stroke: #000000; stroke-width: 0.8"/>
      </g>
     </g>
     <g id="text_36">
      <!-- 0.2 -->
      <g transform="translate(596.685341 177.672531)scale(0.1 -0.1)">
       <use xlink:href="#DejaVuSans-30"/>
       <use xlink:href="#DejaVuSans-2e" x="63.623047"/>
       <use xlink:href="#DejaVuSans-32" x="95.410156"/>
      </g>
     </g>
    </g>
    <g id="ytick_15">
     <g id="line2d_36">
      <g>
       <use xlink:href="#m20bf0cdb9a" x="619.588466" y="142.6785" style="stroke: #000000; stroke-width: 0.8"/>
      </g>
     </g>
     <g id="text_37">
      <!-- 0.4 -->
      <g transform="translate(596.685341 146.477719)scale(0.1 -0.1)">
       <use xlink:href="#DejaVuSans-30"/>
       <use xlink:href="#DejaVuSans-2e" x="63.623047"/>
       <use xlink:href="#DejaVuSans-34" x="95.410156"/>
      </g>
     </g>
    </g>
    <g id="ytick_16">
     <g id="line2d_37">
      <g>
       <use xlink:href="#m20bf0cdb9a" x="619.588466" y="111.483687" style="stroke: #000000; stroke-width: 0.8"/>
      </g>
     </g>
     <g id="text_38">
      <!-- 0.6 -->
      <g transform="translate(596.685341 115.282906)scale(0.1 -0.1)">
       <use xlink:href="#DejaVuSans-30"/>
       <use xlink:href="#DejaVuSans-2e" x="63.623047"/>
       <use xlink:href="#DejaVuSans-36" x="95.410156"/>
      </g>
     </g>
    </g>
    <g id="ytick_17">
     <g id="line2d_38">
      <g>
       <use xlink:href="#m20bf0cdb9a" x="619.588466" y="80.288875" style="stroke: #000000; stroke-width: 0.8"/>
      </g>
     </g>
     <g id="text_39">
      <!-- 0.8 -->
      <g transform="translate(596.685341 84.088094)scale(0.1 -0.1)">
       <use xlink:href="#DejaVuSans-30"/>
       <use xlink:href="#DejaVuSans-2e" x="63.623047"/>
       <use xlink:href="#DejaVuSans-38" x="95.410156"/>
      </g>
     </g>
    </g>
    <g id="ytick_18">
     <g id="line2d_39">
      <g>
       <use xlink:href="#m20bf0cdb9a" x="619.588466" y="49.094062" style="stroke: #000000; stroke-width: 0.8"/>
      </g>
     </g>
     <g id="text_40">
      <!-- 1.0 -->
      <g transform="translate(596.685341 52.893281)scale(0.1 -0.1)">
       <use xlink:href="#DejaVuSans-31"/>
       <use xlink:href="#DejaVuSans-2e" x="63.623047"/>
       <use xlink:href="#DejaVuSans-30" x="95.410156"/>
      </g>
     </g>
    </g>
   </g>
   <g id="line2d_40">
    <path d="M 626.678196 201.552684 
L 629.041439 200.976227 
L 631.404683 200.976227 
L 633.767926 200.484822 
L 636.13117 200.002866 
L 638.494413 199.643762 
L 640.857656 199.294108 
L 643.2209 199.076755 
L 645.584143 198.887753 
L 647.947386 198.528649 
L 650.31063 198.434148 
L 652.673873 198.169545 
L 655.037116 197.838791 
L 657.40036 197.508037 
L 659.763603 197.158383 
L 662.126847 196.827629 
L 664.49009 196.392924 
L 666.853333 195.99602 
L 669.216577 195.20221 
L 671.57982 194.540703 
L 673.943063 193.151537 
L 676.306307 191.374916 
L 678.66955 189.588845 
L 681.032794 187.358619 
L 683.396037 184.778739 
L 685.75928 181.660203 
L 688.122524 178.560567 
L 690.485767 175.234128 
L 692.84901 171.520235 
L 695.212254 167.881943 
L 697.575497 163.761695 
L 699.938741 160.010001 
L 702.301984 156.107106 
L 704.665227 152.213661 
L 707.028471 148.632069 
L 709.391714 145.333981 
L 711.754957 140.98693 
L 714.118201 138.36925 
L 716.481444 134.787658 
L 718.844687 132.519632 
L 721.207931 129.845251 
L 723.571174 127.615025 
L 725.934418 125.233597 
L 728.297661 124.808342 
L 730.660904 122.389114 
L 733.024148 122.389114 
L 735.387391 121.954409 
L 737.750634 121.18895 
L 740.113878 119.686383 
L 742.477121 119.676933 
L 744.840365 119.053225 
L 747.203608 119.667483 
L 749.566851 119.185527 
L 751.930095 118.968174 
L 754.293338 119.251678 
L 756.656581 119.166627 
L 759.019825 116.823 
L 761.383068 117.616809 
L 763.746312 116.274893 
L 766.109555 115.462184 
L 768.472798 114.337621 
" clip-path="url(#p0f2e6e2f42)" style="fill: none; stroke: #b0c4de; stroke-width: 2; stroke-linecap: square"/>
   </g>
   <g id="line2d_41">
    <path d="M 626.678196 201.628285 
L 629.041439 200.853376 
L 631.404683 200.503722 
L 633.767926 200.35252 
L 636.13117 200.276919 
L 638.494413 199.747713 
L 640.857656 199.303558 
L 643.2209 199.237407 
L 645.584143 198.897203 
L 647.947386 198.471948 
L 650.31063 198.434148 
L 652.673873 198.065594 
L 655.037116 197.74429 
L 657.40036 197.271784 
L 659.763603 196.742578 
L 662.126847 196.156671 
L 664.49009 195.315612 
L 666.853333 194.682454 
L 669.216577 193.331089 
L 671.57982 192.215976 
L 673.943063 190.401555 
L 676.306307 188.672184 
L 678.66955 186.630961 
L 681.032794 184.249533 
L 683.396037 181.773604 
L 685.75928 179.496128 
L 688.122524 176.802847 
L 690.485767 174.194616 
L 692.84901 171.558036 
L 695.212254 168.619051 
L 697.575497 166.143123 
L 699.938741 163.780595 
L 702.301984 161.852773 
L 704.665227 159.90605 
L 707.028471 158.14833 
L 709.391714 156.44731 
L 711.754957 155.124295 
L 714.118201 154.377736 
L 716.481444 154.018632 
L 718.844687 152.752317 
L 721.207931 152.11916 
L 723.571174 151.589954 
L 725.934418 151.656104 
L 728.297661 151.051297 
L 730.660904 150.635492 
L 733.024148 150.531541 
L 735.387391 150.276388 
L 737.750634 150.087386 
L 740.113878 150.248038 
L 742.477121 150.493741 
L 744.840365 150.181887 
L 747.203608 149.56763 
L 749.566851 149.501479 
L 751.930095 149.397528 
L 754.293338 149.255776 
L 756.656581 149.501479 
L 759.019825 149.614881 
L 761.383068 149.312477 
L 763.746312 149.482579 
L 766.109555 148.953373 
L 768.472798 148.773821 
" clip-path="url(#p0f2e6e2f42)" style="fill: none; stroke: #4169e1; stroke-width: 2; stroke-linecap: square"/>
   </g>
   <g id="line2d_42">
    <path d="M 626.678196 201.316431 
L 629.041439 200.853376 
L 631.404683 200.437571 
L 633.767926 200.040667 
L 636.13117 199.842214 
L 638.494413 199.653212 
L 640.857656 199.294108 
L 643.2209 199.265758 
L 645.584143 199.020055 
L 647.947386 198.812152 
L 650.31063 198.64205 
L 652.673873 198.349097 
L 655.037116 198.216795 
L 657.40036 197.78209 
L 659.763603 197.130033 
L 662.126847 196.345674 
L 664.49009 195.429013 
L 666.853333 193.586242 
L 669.216577 191.611169 
L 671.57982 189.229741 
L 673.943063 186.271857 
L 676.306307 182.907617 
L 678.66955 179.184274 
L 681.032794 175.120727 
L 683.396037 171.208382 
L 685.75928 167.362187 
L 688.122524 163.950697 
L 690.485767 161.323567 
L 692.84901 158.469634 
L 695.212254 154.585638 
L 697.575497 151.372601 
L 699.938741 148.150114 
L 702.301984 144.303919 
L 704.665227 141.071981 
L 707.028471 138.3787 
L 709.391714 135.76102 
L 711.754957 132.283379 
L 714.118201 129.883051 
L 716.481444 126.178608 
L 718.844687 126.103007 
L 721.207931 125.195797 
L 723.571174 125.45095 
L 725.934418 124.912294 
L 728.297661 124.127934 
L 730.660904 124.127934 
L 733.024148 122.615917 
L 735.387391 121.822108 
L 737.750634 121.368502 
L 740.113878 121.20785 
L 742.477121 119.998236 
L 744.840365 119.365079 
L 747.203608 119.572982 
L 749.566851 119.894285 
L 751.930095 119.875385 
L 754.293338 119.091026 
L 756.656581 117.030902 
L 759.019825 117.531758 
L 761.383068 117.966463 
L 763.746312 116.955301 
L 766.109555 117.957013 
L 768.472798 117.74911 
" clip-path="url(#p0f2e6e2f42)" style="fill: none; stroke: #191970; stroke-width: 2; stroke-linecap: square"/>
   </g>
   <g id="patch_11">
    <path d="M 619.588466 205.068125 
L 619.588466 49.094062 
" style="fill: none; stroke: #000000; stroke-width: 0.8; stroke-linejoin: miter; stroke-linecap: square"/>
   </g>
   <g id="patch_12">
    <path d="M 619.588466 205.068125 
L 775.562528 205.068125 
" style="fill: none; stroke: #000000; stroke-width: 0.8; stroke-linejoin: miter; stroke-linecap: square"/>
   </g>
   <g id="text_41">
    <!-- vRNA = 10fM -->
    <g transform="translate(660.632528 43.094062)scale(0.1 -0.1)">
     <use xlink:href="#DejaVuSans-Bold-76"/>
     <use xlink:href="#DejaVuSans-Bold-52" x="65.185547"/>
     <use xlink:href="#DejaVuSans-Bold-4e" x="142.1875"/>
     <use xlink:href="#DejaVuSans-Bold-41" x="225.878906"/>
     <use xlink:href="#DejaVuSans-Bold-20" x="303.271484"/>
     <use xlink:href="#DejaVuSans-Bold-3d" x="338.085938"/>
     <use xlink:href="#DejaVuSans-Bold-20" x="421.875"/>
     <use xlink:href="#DejaVuSans-Bold-31" x="456.689453"/>
     <use xlink:href="#DejaVuSans-Bold-30" x="526.269531"/>
     <use xlink:href="#DejaVuSans-Bold-66" x="595.849609"/>
     <use xlink:href="#DejaVuSans-Bold-4d" x="639.355469"/>
    </g>
   </g>
   <g id="legend_3">
    <g id="patch_13">
     <path d="M 698.787528 101.128437 
L 768.562528 101.128437 
Q 770.562528 101.128437 770.562528 99.128437 
L 770.562528 56.094062 
Q 770.562528 54.094062 768.562528 54.094062 
L 698.787528 54.094062 
Q 696.787528 54.094062 696.787528 56.094062 
L 696.787528 99.128437 
Q 696.787528 101.128437 698.787528 101.128437 
z
" style="fill: #ffffff; opacity: 0.8; stroke: #cccccc; stroke-linejoin: miter"/>
    </g>
    <g id="line2d_43">
     <path d="M 700.787528 62.1925 
L 710.787528 62.1925 
L 720.787528 62.1925 
" style="fill: none; stroke: #b0c4de; stroke-width: 2; stroke-linecap: square"/>
    </g>
    <g id="text_42">
     <!-- RT 0.5 -->
     <g transform="translate(728.787528 65.6925)scale(0.1 -0.1)">
      <use xlink:href="#DejaVuSans-52"/>
      <use xlink:href="#DejaVuSans-54" x="62.232422"/>
      <use xlink:href="#DejaVuSans-20" x="123.316406"/>
      <use xlink:href="#DejaVuSans-30" x="155.103516"/>
      <use xlink:href="#DejaVuSans-2e" x="218.726562"/>
      <use xlink:href="#DejaVuSans-35" x="250.513672"/>
     </g>
    </g>
    <g id="line2d_44">
     <path d="M 700.787528 76.870625 
L 710.787528 76.870625 
L 720.787528 76.870625 
" style="fill: none; stroke: #4169e1; stroke-width: 2; stroke-linecap: square"/>
    </g>
    <g id="text_43">
     <!-- RT 2.5 -->
     <g transform="translate(728.787528 80.370625)scale(0.1 -0.1)">
      <use xlink:href="#DejaVuSans-52"/>
      <use xlink:href="#DejaVuSans-54" x="62.232422"/>
      <use xlink:href="#DejaVuSans-20" x="123.316406"/>
      <use xlink:href="#DejaVuSans-32" x="155.103516"/>
      <use xlink:href="#DejaVuSans-2e" x="218.726562"/>
      <use xlink:href="#DejaVuSans-35" x="250.513672"/>
     </g>
    </g>
    <g id="line2d_45">
     <path d="M 700.787528 91.54875 
L 710.787528 91.54875 
L 720.787528 91.54875 
" style="fill: none; stroke: #191970; stroke-width: 2; stroke-linecap: square"/>
    </g>
    <g id="text_44">
     <!-- RT 10.0 -->
     <g transform="translate(728.787528 95.04875)scale(0.1 -0.1)">
      <use xlink:href="#DejaVuSans-52"/>
      <use xlink:href="#DejaVuSans-54" x="62.232422"/>
      <use xlink:href="#DejaVuSans-20" x="123.316406"/>
      <use xlink:href="#DejaVuSans-31" x="155.103516"/>
      <use xlink:href="#DejaVuSans-30" x="218.726562"/>
      <use xlink:href="#DejaVuSans-2e" x="282.349609"/>
      <use xlink:href="#DejaVuSans-30" x="314.136719"/>
     </g>
    </g>
   </g>
  </g>
  <g id="text_45">
   <!-- RT_Sweep_Cas13=90 rep2 -->
   <g transform="translate(308.050639 16.10625)scale(0.12 -0.12)">
    <defs>
     <path id="DejaVuSans-Bold-54" d="M 31 4666 
L 4331 4666 
L 4331 3756 
L 2784 3756 
L 2784 0 
L 1581 0 
L 1581 3756 
L 31 3756 
L 31 4666 
z
" transform="scale(0.015625)"/>
     <path id="DejaVuSans-Bold-5f" d="M 3200 -916 
L 3200 -1509 
L 0 -1509 
L 0 -916 
L 3200 -916 
z
" transform="scale(0.015625)"/>
     <path id="DejaVuSans-Bold-53" d="M 3834 4519 
L 3834 3531 
Q 3450 3703 3084 3790 
Q 2719 3878 2394 3878 
Q 1963 3878 1756 3759 
Q 1550 3641 1550 3391 
Q 1550 3203 1689 3098 
Q 1828 2994 2194 2919 
L 2706 2816 
Q 3484 2659 3812 2340 
Q 4141 2022 4141 1434 
Q 4141 663 3683 286 
Q 3225 -91 2284 -91 
Q 1841 -91 1394 -6 
Q 947 78 500 244 
L 500 1259 
Q 947 1022 1364 901 
Q 1781 781 2169 781 
Q 2563 781 2772 912 
Q 2981 1044 2981 1288 
Q 2981 1506 2839 1625 
Q 2697 1744 2272 1838 
L 1806 1941 
Q 1106 2091 782 2419 
Q 459 2747 459 3303 
Q 459 4000 909 4375 
Q 1359 4750 2203 4750 
Q 2588 4750 2994 4692 
Q 3400 4634 3834 4519 
z
" transform="scale(0.015625)"/>
     <path id="DejaVuSans-Bold-77" d="M 225 3500 
L 1313 3500 
L 1900 1088 
L 2491 3500 
L 3425 3500 
L 4013 1113 
L 4603 3500 
L 5691 3500 
L 4769 0 
L 3547 0 
L 2956 2406 
L 2369 0 
L 1147 0 
L 225 3500 
z
" transform="scale(0.015625)"/>
     <path id="DejaVuSans-Bold-65" d="M 4031 1759 
L 4031 1441 
L 1416 1441 
Q 1456 1047 1700 850 
Q 1944 653 2381 653 
Q 2734 653 3104 758 
Q 3475 863 3866 1075 
L 3866 213 
Q 3469 63 3072 -14 
Q 2675 -91 2278 -91 
Q 1328 -91 801 392 
Q 275 875 275 1747 
Q 275 2603 792 3093 
Q 1309 3584 2216 3584 
Q 3041 3584 3536 3087 
Q 4031 2591 4031 1759 
z
M 2881 2131 
Q 2881 2450 2695 2645 
Q 2509 2841 2209 2841 
Q 1884 2841 1681 2658 
Q 1478 2475 1428 2131 
L 2881 2131 
z
" transform="scale(0.015625)"/>
     <path id="DejaVuSans-Bold-70" d="M 1656 506 
L 1656 -1331 
L 538 -1331 
L 538 3500 
L 1656 3500 
L 1656 2988 
Q 1888 3294 2169 3439 
Q 2450 3584 2816 3584 
Q 3463 3584 3878 3070 
Q 4294 2556 4294 1747 
Q 4294 938 3878 423 
Q 3463 -91 2816 -91 
Q 2450 -91 2169 54 
Q 1888 200 1656 506 
z
M 2400 2772 
Q 2041 2772 1848 2508 
Q 1656 2244 1656 1747 
Q 1656 1250 1848 986 
Q 2041 722 2400 722 
Q 2759 722 2948 984 
Q 3138 1247 3138 1747 
Q 3138 2247 2948 2509 
Q 2759 2772 2400 2772 
z
" transform="scale(0.015625)"/>
     <path id="DejaVuSans-Bold-43" d="M 4288 256 
Q 3956 84 3597 -3 
Q 3238 -91 2847 -91 
Q 1681 -91 1000 561 
Q 319 1213 319 2328 
Q 319 3447 1000 4098 
Q 1681 4750 2847 4750 
Q 3238 4750 3597 4662 
Q 3956 4575 4288 4403 
L 4288 3438 
Q 3953 3666 3628 3772 
Q 3303 3878 2944 3878 
Q 2300 3878 1931 3465 
Q 1563 3053 1563 2328 
Q 1563 1606 1931 1193 
Q 2300 781 2944 781 
Q 3303 781 3628 887 
Q 3953 994 4288 1222 
L 4288 256 
z
" transform="scale(0.015625)"/>
     <path id="DejaVuSans-Bold-61" d="M 2106 1575 
Q 1756 1575 1579 1456 
Q 1403 1338 1403 1106 
Q 1403 894 1545 773 
Q 1688 653 1941 653 
Q 2256 653 2472 879 
Q 2688 1106 2688 1447 
L 2688 1575 
L 2106 1575 
z
M 3816 1997 
L 3816 0 
L 2688 0 
L 2688 519 
Q 2463 200 2181 54 
Q 1900 -91 1497 -91 
Q 953 -91 614 226 
Q 275 544 275 1050 
Q 275 1666 698 1953 
Q 1122 2241 2028 2241 
L 2688 2241 
L 2688 2328 
Q 2688 2594 2478 2717 
Q 2269 2841 1825 2841 
Q 1466 2841 1156 2769 
Q 847 2697 581 2553 
L 581 3406 
Q 941 3494 1303 3539 
Q 1666 3584 2028 3584 
Q 2975 3584 3395 3211 
Q 3816 2838 3816 1997 
z
" transform="scale(0.015625)"/>
     <path id="DejaVuSans-Bold-73" d="M 3272 3391 
L 3272 2541 
Q 2913 2691 2578 2766 
Q 2244 2841 1947 2841 
Q 1628 2841 1473 2761 
Q 1319 2681 1319 2516 
Q 1319 2381 1436 2309 
Q 1553 2238 1856 2203 
L 2053 2175 
Q 2913 2066 3209 1816 
Q 3506 1566 3506 1031 
Q 3506 472 3093 190 
Q 2681 -91 1863 -91 
Q 1516 -91 1145 -36 
Q 775 19 384 128 
L 384 978 
Q 719 816 1070 734 
Q 1422 653 1784 653 
Q 2113 653 2278 743 
Q 2444 834 2444 1013 
Q 2444 1163 2330 1236 
Q 2216 1309 1875 1350 
L 1678 1375 
Q 931 1469 631 1722 
Q 331 1975 331 2491 
Q 331 3047 712 3315 
Q 1094 3584 1881 3584 
Q 2191 3584 2531 3537 
Q 2872 3491 3272 3391 
z
" transform="scale(0.015625)"/>
     <path id="DejaVuSans-Bold-33" d="M 2981 2516 
Q 3453 2394 3698 2092 
Q 3944 1791 3944 1325 
Q 3944 631 3412 270 
Q 2881 -91 1863 -91 
Q 1503 -91 1142 -33 
Q 781 25 428 141 
L 428 1069 
Q 766 900 1098 814 
Q 1431 728 1753 728 
Q 2231 728 2486 893 
Q 2741 1059 2741 1369 
Q 2741 1688 2480 1852 
Q 2219 2016 1709 2016 
L 1228 2016 
L 1228 2791 
L 1734 2791 
Q 2188 2791 2409 2933 
Q 2631 3075 2631 3366 
Q 2631 3634 2415 3781 
Q 2200 3928 1806 3928 
Q 1516 3928 1219 3862 
Q 922 3797 628 3669 
L 628 4550 
Q 984 4650 1334 4700 
Q 1684 4750 2022 4750 
Q 2931 4750 3382 4451 
Q 3834 4153 3834 3553 
Q 3834 3144 3618 2883 
Q 3403 2622 2981 2516 
z
" transform="scale(0.015625)"/>
     <path id="DejaVuSans-Bold-39" d="M 641 103 
L 641 966 
Q 928 831 1190 764 
Q 1453 697 1709 697 
Q 2247 697 2547 995 
Q 2847 1294 2900 1881 
Q 2688 1725 2447 1647 
Q 2206 1569 1925 1569 
Q 1209 1569 770 1986 
Q 331 2403 331 3084 
Q 331 3838 820 4291 
Q 1309 4744 2131 4744 
Q 3044 4744 3544 4128 
Q 4044 3513 4044 2388 
Q 4044 1231 3459 570 
Q 2875 -91 1856 -91 
Q 1528 -91 1228 -42 
Q 928 6 641 103 
z
M 2125 2350 
Q 2441 2350 2600 2554 
Q 2759 2759 2759 3169 
Q 2759 3575 2600 3781 
Q 2441 3988 2125 3988 
Q 1809 3988 1650 3781 
Q 1491 3575 1491 3169 
Q 1491 2759 1650 2554 
Q 1809 2350 2125 2350 
z
" transform="scale(0.015625)"/>
     <path id="DejaVuSans-Bold-72" d="M 3138 2547 
Q 2991 2616 2845 2648 
Q 2700 2681 2553 2681 
Q 2122 2681 1889 2404 
Q 1656 2128 1656 1613 
L 1656 0 
L 538 0 
L 538 3500 
L 1656 3500 
L 1656 2925 
Q 1872 3269 2151 3426 
Q 2431 3584 2822 3584 
Q 2878 3584 2943 3579 
Q 3009 3575 3134 3559 
L 3138 2547 
z
" transform="scale(0.015625)"/>
     <path id="DejaVuSans-Bold-32" d="M 1844 884 
L 3897 884 
L 3897 0 
L 506 0 
L 506 884 
L 2209 2388 
Q 2438 2594 2547 2791 
Q 2656 2988 2656 3200 
Q 2656 3528 2436 3728 
Q 2216 3928 1850 3928 
Q 1569 3928 1234 3808 
Q 900 3688 519 3450 
L 519 4475 
Q 925 4609 1322 4679 
Q 1719 4750 2100 4750 
Q 2938 4750 3402 4381 
Q 3866 4013 3866 3353 
Q 3866 2972 3669 2642 
Q 3472 2313 2841 1759 
L 1844 884 
z
" transform="scale(0.015625)"/>
    </defs>
    <use xlink:href="#DejaVuSans-Bold-52"/>
    <use xlink:href="#DejaVuSans-Bold-54" x="72.501953"/>
    <use xlink:href="#DejaVuSans-Bold-5f" x="140.714844"/>
    <use xlink:href="#DejaVuSans-Bold-53" x="190.714844"/>
    <use xlink:href="#DejaVuSans-Bold-77" x="262.736328"/>
    <use xlink:href="#DejaVuSans-Bold-65" x="355.119141"/>
    <use xlink:href="#DejaVuSans-Bold-65" x="422.941406"/>
    <use xlink:href="#DejaVuSans-Bold-70" x="490.763672"/>
    <use xlink:href="#DejaVuSans-Bold-5f" x="562.345703"/>
    <use xlink:href="#DejaVuSans-Bold-43" x="612.345703"/>
    <use xlink:href="#DejaVuSans-Bold-61" x="685.734375"/>
    <use xlink:href="#DejaVuSans-Bold-73" x="753.214844"/>
    <use xlink:href="#DejaVuSans-Bold-31" x="812.736328"/>
    <use xlink:href="#DejaVuSans-Bold-33" x="882.316406"/>
    <use xlink:href="#DejaVuSans-Bold-3d" x="951.896484"/>
    <use xlink:href="#DejaVuSans-Bold-39" x="1035.685547"/>
    <use xlink:href="#DejaVuSans-Bold-30" x="1105.265625"/>
    <use xlink:href="#DejaVuSans-Bold-20" x="1174.845703"/>
    <use xlink:href="#DejaVuSans-Bold-72" x="1209.660156"/>
    <use xlink:href="#DejaVuSans-Bold-65" x="1258.976562"/>
    <use xlink:href="#DejaVuSans-Bold-70" x="1326.798828"/>
    <use xlink:href="#DejaVuSans-Bold-32" x="1398.380859"/>
   </g>
  </g>
 </g>
 <defs>
  <clipPath id="p95e0aaa2f3">
   <rect x="51.716875" y="49.094062" width="155.974063" height="155.974063"/>
  </clipPath>
  <clipPath id="p6cefffb79a">
   <rect x="335.65267" y="49.094062" width="155.974063" height="155.974063"/>
  </clipPath>
  <clipPath id="p0f2e6e2f42">
   <rect x="619.588466" y="49.094062" width="155.974063" height="155.974063"/>
  </clipPath>
 </defs>
</svg>
