<?xml version="1.0" encoding="utf-8" standalone="no"?>
<!DOCTYPE svg PUBLIC "-//W3C//DTD SVG 1.1//EN"
  "http://www.w3.org/Graphics/SVG/1.1/DTD/svg11.dtd">
<svg xmlns:xlink="http://www.w3.org/1999/xlink" width="782.762528pt" height="250.56pt" viewBox="0 0 782.762528 250.56" xmlns="http://www.w3.org/2000/svg" version="1.1">
 <metadata>
  <rdf:RDF xmlns:dc="http://purl.org/dc/elements/1.1/" xmlns:cc="http://creativecommons.org/ns#" xmlns:rdf="http://www.w3.org/1999/02/22-rdf-syntax-ns#">
   <cc:Work>
    <dc:type rdf:resource="http://purl.org/dc/dcmitype/StillImage"/>
    <dc:date>2022-12-02T20:14:47.242655</dc:date>
    <dc:format>image/svg+xml</dc:format>
    <dc:creator>
     <cc:Agent>
      <dc:title>Matplotlib v3.5.1, https://matplotlib.org/</dc:title>
     </cc:Agent>
    </dc:creator>
   </cc:Work>
  </rdf:RDF>
 </metadata>
 <defs>
  <style type="text/css">*{stroke-linejoin: round; stroke-linecap: butt}</style>
 </defs>
 <g id="figure_1">
  <g id="patch_1">
   <path d="M 0 250.56 
L 782.762528 250.56 
L 782.762528 -0 
L 0 -0 
L 0 250.56 
z
" style="fill: none"/>
  </g>
  <g id="axes_1">
   <g id="patch_2">
    <path d="M 51.716875 205.068125 
L 207.690938 205.068125 
L 207.690938 49.094062 
L 51.716875 49.094062 
z
" style="fill: #ffffff"/>
   </g>
   <g id="PolyCollection_1">
    <defs>
     <path id="m7100c88414" d="M 58.806605 -48.568299 
L 58.806605 -48.205861 
L 61.169848 -48.781689 
L 63.533092 -49.195269 
L 65.896335 -49.456517 
L 68.259579 -49.974545 
L 70.622822 -50.070122 
L 72.986065 -50.284514 
L 75.349309 -50.536065 
L 77.712552 -50.439019 
L 80.075795 -50.780213 
L 82.439039 -51.032192 
L 84.802282 -51.183497 
L 87.165526 -51.16368 
L 89.528769 -51.460356 
L 91.892012 -51.604918 
L 94.255256 -51.628983 
L 96.618499 -51.837649 
L 98.981742 -52.129572 
L 101.344986 -52.240557 
L 103.708229 -52.45889 
L 106.071473 -52.654451 
L 108.434716 -52.777887 
L 110.797959 -52.591271 
L 113.161203 -52.784711 
L 115.524446 -52.889092 
L 117.887689 -53.153056 
L 120.250933 -53.197313 
L 122.614176 -53.321161 
L 124.97742 -53.484271 
L 127.340663 -53.528131 
L 129.703906 -53.542902 
L 132.06715 -53.750177 
L 134.430393 -53.995166 
L 136.793636 -53.877061 
L 139.15688 -54.060643 
L 141.520123 -54.172252 
L 143.883366 -54.435438 
L 146.24661 -54.381377 
L 148.609853 -54.678484 
L 150.973097 -54.721947 
L 153.33634 -54.578792 
L 155.699583 -54.886383 
L 158.062827 -54.909143 
L 160.42607 -55.043285 
L 162.789313 -54.967228 
L 165.152557 -55.268492 
L 167.5158 -55.15949 
L 169.879044 -55.16775 
L 172.242287 -55.649349 
L 174.60553 -55.258604 
L 176.968774 -55.484734 
L 179.332017 -55.686258 
L 181.69526 -55.832323 
L 184.058504 -55.85907 
L 186.421747 -56.037717 
L 188.784991 -56.038353 
L 191.148234 -56.079332 
L 193.511477 -56.304086 
L 195.874721 -56.172139 
L 198.237964 -56.360617 
L 200.601207 -56.517338 
L 200.601207 -57.111535 
L 200.601207 -57.111535 
L 198.237964 -57.023591 
L 195.874721 -56.845071 
L 193.511477 -56.889827 
L 191.148234 -56.788361 
L 188.784991 -56.639044 
L 186.421747 -56.585311 
L 184.058504 -56.492107 
L 181.69526 -56.464484 
L 179.332017 -56.257144 
L 176.968774 -56.322743 
L 174.60553 -56.073135 
L 172.242287 -55.967832 
L 169.879044 -55.864954 
L 167.5158 -55.750881 
L 165.152557 -55.777804 
L 162.789313 -55.807218 
L 160.42607 -55.472903 
L 158.062827 -55.443935 
L 155.699583 -55.616213 
L 153.33634 -55.434473 
L 150.973097 -55.087431 
L 148.609853 -54.967784 
L 146.24661 -55.074595 
L 143.883366 -54.884609 
L 141.520123 -54.644873 
L 139.15688 -54.661334 
L 136.793636 -54.641028 
L 134.430393 -54.386998 
L 132.06715 -54.129064 
L 129.703906 -54.037304 
L 127.340663 -53.929743 
L 124.97742 -53.647382 
L 122.614176 -53.606604 
L 120.250933 -53.71686 
L 117.887689 -53.407712 
L 115.524446 -53.413418 
L 113.161203 -53.395467 
L 110.797959 -53.194723 
L 108.434716 -52.885774 
L 106.071473 -52.859693 
L 103.708229 -52.674664 
L 101.344986 -52.444444 
L 98.981742 -52.378727 
L 96.618499 -52.126949 
L 94.255256 -52.14532 
L 91.892012 -51.788794 
L 89.528769 -51.661507 
L 87.165526 -51.618369 
L 84.802282 -51.326703 
L 82.439039 -51.233342 
L 80.075795 -51.159101 
L 77.712552 -50.87504 
L 75.349309 -50.737216 
L 72.986065 -50.608176 
L 70.622822 -50.50994 
L 68.259579 -50.252112 
L 65.896335 -49.873034 
L 63.533092 -49.441064 
L 61.169848 -48.889576 
L 58.806605 -48.568299 
z
" style="stroke: #b0c4de; stroke-opacity: 0.2"/>
    </defs>
    <g clip-path="url(#pc1f9064d96)">
     <use xlink:href="#m7100c88414" x="0" y="250.56" style="fill: #b0c4de; fill-opacity: 0.2; stroke: #b0c4de; stroke-opacity: 0.2"/>
    </g>
   </g>
   <g id="PolyCollection_2">
    <defs>
     <path id="m7e4f4337e7" d="M 58.806605 -48.708169 
L 58.806605 -48.623284 
L 61.169848 -48.737558 
L 63.533092 -49.072566 
L 65.896335 -49.387514 
L 68.259579 -49.697673 
L 70.622822 -49.884939 
L 72.986065 -50.018181 
L 75.349309 -50.292048 
L 77.712552 -50.540972 
L 80.075795 -50.579412 
L 82.439039 -50.824252 
L 84.802282 -50.854121 
L 87.165526 -51.12015 
L 89.528769 -51.307805 
L 91.892012 -51.387065 
L 94.255256 -51.464096 
L 96.618499 -51.397291 
L 98.981742 -51.622267 
L 101.344986 -51.801301 
L 103.708229 -51.774955 
L 106.071473 -51.967861 
L 108.434716 -52.048017 
L 110.797959 -52.404155 
L 113.161203 -52.079886 
L 115.524446 -52.464833 
L 117.887689 -52.453468 
L 120.250933 -52.32584 
L 122.614176 -52.626256 
L 124.97742 -52.794695 
L 127.340663 -52.983063 
L 129.703906 -53.000404 
L 132.06715 -53.105396 
L 134.430393 -52.983576 
L 136.793636 -53.22644 
L 139.15688 -53.33433 
L 141.520123 -53.48757 
L 143.883366 -53.480904 
L 146.24661 -53.700906 
L 148.609853 -53.900089 
L 150.973097 -53.836344 
L 153.33634 -53.979065 
L 155.699583 -54.197878 
L 158.062827 -54.053469 
L 160.42607 -54.25007 
L 162.789313 -54.284182 
L 165.152557 -54.306279 
L 167.5158 -54.530124 
L 169.879044 -54.768764 
L 172.242287 -54.707597 
L 174.60553 -54.815492 
L 176.968774 -55.094984 
L 179.332017 -55.134991 
L 181.69526 -55.098043 
L 184.058504 -55.388591 
L 186.421747 -55.38589 
L 188.784991 -55.430866 
L 191.148234 -55.024854 
L 193.511477 -55.546781 
L 195.874721 -55.750891 
L 198.237964 -55.651712 
L 200.601207 -55.74537 
L 200.601207 -56.062107 
L 200.601207 -56.062107 
L 198.237964 -55.897507 
L 195.874721 -55.920661 
L 193.511477 -55.771366 
L 191.148234 -55.708815 
L 188.784991 -55.6698 
L 186.421747 -55.456519 
L 184.058504 -55.589742 
L 181.69526 -55.200665 
L 179.332017 -55.435567 
L 176.968774 -55.217317 
L 174.60553 -54.980293 
L 172.242287 -54.911485 
L 169.879044 -54.809541 
L 167.5158 -54.8307 
L 165.152557 -54.714733 
L 162.789313 -54.872755 
L 160.42607 -54.485499 
L 158.062827 -54.301509 
L 155.699583 -54.279433 
L 153.33634 -54.049694 
L 150.973097 -53.906972 
L 148.609853 -54.047115 
L 146.24661 -53.865707 
L 143.883366 -53.854636 
L 141.520123 -53.834378 
L 139.15688 -53.661398 
L 136.793636 -53.334327 
L 134.430393 -53.250972 
L 132.06715 -53.292262 
L 129.703906 -53.071033 
L 127.340663 -53.169929 
L 124.97742 -52.841781 
L 122.614176 -52.874296 
L 120.250933 -52.780529 
L 117.887689 -52.720864 
L 115.524446 -52.546388 
L 113.161203 -52.550745 
L 110.797959 -52.498326 
L 108.434716 -52.297172 
L 106.071473 -52.132662 
L 103.708229 -52.366346 
L 101.344986 -52.149704 
L 98.981742 -51.893778 
L 96.618499 -51.833312 
L 94.255256 -51.712136 
L 91.892012 -51.449354 
L 89.528769 -51.39269 
L 87.165526 -51.308494 
L 84.802282 -51.017231 
L 82.439039 -51.033506 
L 80.075795 -50.856979 
L 77.712552 -50.718717 
L 75.349309 -50.519088 
L 72.986065 -50.589067 
L 70.622822 -50.450459 
L 68.259579 -50.039654 
L 65.896335 -49.819705 
L 63.533092 -49.46862 
L 61.169848 -49.05604 
L 58.806605 -48.708169 
z
" style="stroke: #4169e1; stroke-opacity: 0.2"/>
    </defs>
    <g clip-path="url(#pc1f9064d96)">
     <use xlink:href="#m7e4f4337e7" x="0" y="250.56" style="fill: #4169e1; fill-opacity: 0.2; stroke: #4169e1; stroke-opacity: 0.2"/>
    </g>
   </g>
   <g id="PolyCollection_3">
    <defs>
     <path id="mbf77a04961" d="M 58.806605 -48.883728 
L 58.806605 -48.705983 
L 61.169848 -49.193168 
L 63.533092 -49.399045 
L 65.896335 -49.700472 
L 68.259579 -49.716078 
L 70.622822 -49.722045 
L 72.986065 -50.311789 
L 75.349309 -50.457883 
L 77.712552 -50.516903 
L 80.075795 -50.589156 
L 82.439039 -51.045267 
L 84.802282 -51.184454 
L 87.165526 -51.207169 
L 89.528769 -51.444189 
L 91.892012 -51.447099 
L 94.255256 -51.426033 
L 96.618499 -51.728302 
L 98.981742 -51.910808 
L 101.344986 -51.914336 
L 103.708229 -51.844833 
L 106.071473 -52.073806 
L 108.434716 -52.301723 
L 110.797959 -52.290357 
L 113.161203 -52.338721 
L 115.524446 -52.400195 
L 117.887689 -52.535467 
L 120.250933 -52.510903 
L 122.614176 -52.711924 
L 124.97742 -52.884272 
L 127.340663 -52.636159 
L 129.703906 -53.155015 
L 132.06715 -52.984031 
L 134.430393 -53.402852 
L 136.793636 -53.290012 
L 139.15688 -53.419497 
L 141.520123 -53.664298 
L 143.883366 -53.629679 
L 146.24661 -53.755111 
L 148.609853 -53.945886 
L 150.973097 -54.137991 
L 153.33634 -54.166124 
L 155.699583 -54.262343 
L 158.062827 -54.214795 
L 160.42607 -54.309509 
L 162.789313 -54.462932 
L 165.152557 -54.615184 
L 167.5158 -54.82389 
L 169.879044 -54.810904 
L 172.242287 -55.081818 
L 174.60553 -55.015366 
L 176.968774 -55.148385 
L 179.332017 -55.270332 
L 181.69526 -55.389818 
L 184.058504 -55.759811 
L 186.421747 -55.405101 
L 188.784991 -55.808192 
L 191.148234 -55.812319 
L 193.511477 -55.957624 
L 195.874721 -56.17273 
L 198.237964 -56.002544 
L 200.601207 -55.967587 
L 200.601207 -56.533108 
L 200.601207 -56.533108 
L 198.237964 -56.579706 
L 195.874721 -56.450297 
L 193.511477 -56.244036 
L 191.148234 -56.267008 
L 188.784991 -56.040063 
L 186.421747 -55.885861 
L 184.058504 -55.952518 
L 181.69526 -55.778811 
L 179.332017 -55.680817 
L 176.968774 -55.721209 
L 174.60553 -55.609562 
L 172.242287 -55.189705 
L 169.879044 -55.419842 
L 167.5158 -55.189375 
L 165.152557 -55.085453 
L 162.789313 -54.626042 
L 160.42607 -54.833835 
L 158.062827 -54.683884 
L 155.699583 -54.609152 
L 153.33634 -54.43352 
L 150.973097 -54.461653 
L 148.609853 -54.381907 
L 146.24661 -54.39598 
L 143.883366 -54.263154 
L 141.520123 -54.133388 
L 139.15688 -54.024784 
L 136.793636 -53.841641 
L 134.430393 -53.742393 
L 132.06715 -53.549551 
L 129.703906 -53.568862 
L 127.340663 -53.12265 
L 124.97742 -53.173572 
L 122.614176 -53.128441 
L 120.250933 -52.880909 
L 117.887689 -52.965085 
L 115.524446 -52.869284 
L 113.161203 -52.6725 
L 110.797959 -52.557754 
L 108.434716 -52.3425 
L 106.071473 -52.217012 
L 103.708229 -52.445985 
L 101.344986 -52.199779 
L 98.981742 -52.176123 
L 96.618499 -52.222703 
L 94.255256 -52.144382 
L 91.892012 -51.960205 
L 89.528769 -51.636896 
L 87.165526 -51.466141 
L 84.802282 -51.393708 
L 82.439039 -51.424155 
L 80.075795 -51.105493 
L 77.712552 -50.905896 
L 75.349309 -50.77462 
L 72.986065 -50.512939 
L 70.622822 -50.531798 
L 68.259579 -50.170767 
L 65.896335 -49.887338 
L 63.533092 -49.604287 
L 61.169848 -49.334426 
L 58.806605 -48.883728 
z
" style="stroke: #191970; stroke-opacity: 0.2"/>
    </defs>
    <g clip-path="url(#pc1f9064d96)">
     <use xlink:href="#mbf77a04961" x="0" y="250.56" style="fill: #191970; fill-opacity: 0.2; stroke: #191970; stroke-opacity: 0.2"/>
    </g>
   </g>
   <g id="matplotlib.axis_1">
    <g id="xtick_1">
     <g id="line2d_1">
      <defs>
       <path id="m9ac129a319" d="M 0 0 
L 0 3.5 
" style="stroke: #000000; stroke-width: 0.8"/>
      </defs>
      <g>
       <use xlink:href="#m9ac129a319" x="58.806605" y="205.068125" style="stroke: #000000; stroke-width: 0.8"/>
      </g>
     </g>
     <g id="text_1">
      <!-- 0 -->
      <g transform="translate(55.625355 219.666562)scale(0.1 -0.1)">
       <defs>
        <path id="DejaVuSans-30" d="M 2034 4250 
Q 1547 4250 1301 3770 
Q 1056 3291 1056 2328 
Q 1056 1369 1301 889 
Q 1547 409 2034 409 
Q 2525 409 2770 889 
Q 3016 1369 3016 2328 
Q 3016 3291 2770 3770 
Q 2525 4250 2034 4250 
z
M 2034 4750 
Q 2819 4750 3233 4129 
Q 3647 3509 3647 2328 
Q 3647 1150 3233 529 
Q 2819 -91 2034 -91 
Q 1250 -91 836 529 
Q 422 1150 422 2328 
Q 422 3509 836 4129 
Q 1250 4750 2034 4750 
z
" transform="scale(0.015625)"/>
       </defs>
       <use xlink:href="#DejaVuSans-30"/>
      </g>
     </g>
    </g>
    <g id="xtick_2">
     <g id="line2d_2">
      <g>
       <use xlink:href="#m9ac129a319" x="117.887689" y="205.068125" style="stroke: #000000; stroke-width: 0.8"/>
      </g>
     </g>
     <g id="text_2">
      <!-- 100 -->
      <g transform="translate(108.343939 219.666562)scale(0.1 -0.1)">
       <defs>
        <path id="DejaVuSans-31" d="M 794 531 
L 1825 531 
L 1825 4091 
L 703 3866 
L 703 4441 
L 1819 4666 
L 2450 4666 
L 2450 531 
L 3481 531 
L 3481 0 
L 794 0 
L 794 531 
z
" transform="scale(0.015625)"/>
       </defs>
       <use xlink:href="#DejaVuSans-31"/>
       <use xlink:href="#DejaVuSans-30" x="63.623047"/>
       <use xlink:href="#DejaVuSans-30" x="127.246094"/>
      </g>
     </g>
    </g>
    <g id="xtick_3">
     <g id="line2d_3">
      <g>
       <use xlink:href="#m9ac129a319" x="176.968774" y="205.068125" style="stroke: #000000; stroke-width: 0.8"/>
      </g>
     </g>
     <g id="text_3">
      <!-- 200 -->
      <g transform="translate(167.425024 219.666562)scale(0.1 -0.1)">
       <defs>
        <path id="DejaVuSans-32" d="M 1228 531 
L 3431 531 
L 3431 0 
L 469 0 
L 469 531 
Q 828 903 1448 1529 
Q 2069 2156 2228 2338 
Q 2531 2678 2651 2914 
Q 2772 3150 2772 3378 
Q 2772 3750 2511 3984 
Q 2250 4219 1831 4219 
Q 1534 4219 1204 4116 
Q 875 4013 500 3803 
L 500 4441 
Q 881 4594 1212 4672 
Q 1544 4750 1819 4750 
Q 2544 4750 2975 4387 
Q 3406 4025 3406 3419 
Q 3406 3131 3298 2873 
Q 3191 2616 2906 2266 
Q 2828 2175 2409 1742 
Q 1991 1309 1228 531 
z
" transform="scale(0.015625)"/>
       </defs>
       <use xlink:href="#DejaVuSans-32"/>
       <use xlink:href="#DejaVuSans-30" x="63.623047"/>
       <use xlink:href="#DejaVuSans-30" x="127.246094"/>
      </g>
     </g>
    </g>
    <g id="text_4">
     <!-- Time (min) -->
     <g transform="translate(97.121094 240.864375)scale(0.12 -0.12)">
      <defs>
       <path id="DejaVuSans-54" d="M -19 4666 
L 3928 4666 
L 3928 4134 
L 2272 4134 
L 2272 0 
L 1638 0 
L 1638 4134 
L -19 4134 
L -19 4666 
z
" transform="scale(0.015625)"/>
       <path id="DejaVuSans-69" d="M 603 3500 
L 1178 3500 
L 1178 0 
L 603 0 
L 603 3500 
z
M 603 4863 
L 1178 4863 
L 1178 4134 
L 603 4134 
L 603 4863 
z
" transform="scale(0.015625)"/>
       <path id="DejaVuSans-6d" d="M 3328 2828 
Q 3544 3216 3844 3400 
Q 4144 3584 4550 3584 
Q 5097 3584 5394 3201 
Q 5691 2819 5691 2113 
L 5691 0 
L 5113 0 
L 5113 2094 
Q 5113 2597 4934 2840 
Q 4756 3084 4391 3084 
Q 3944 3084 3684 2787 
Q 3425 2491 3425 1978 
L 3425 0 
L 2847 0 
L 2847 2094 
Q 2847 2600 2669 2842 
Q 2491 3084 2119 3084 
Q 1678 3084 1418 2786 
Q 1159 2488 1159 1978 
L 1159 0 
L 581 0 
L 581 3500 
L 1159 3500 
L 1159 2956 
Q 1356 3278 1631 3431 
Q 1906 3584 2284 3584 
Q 2666 3584 2933 3390 
Q 3200 3197 3328 2828 
z
" transform="scale(0.015625)"/>
       <path id="DejaVuSans-65" d="M 3597 1894 
L 3597 1613 
L 953 1613 
Q 991 1019 1311 708 
Q 1631 397 2203 397 
Q 2534 397 2845 478 
Q 3156 559 3463 722 
L 3463 178 
Q 3153 47 2828 -22 
Q 2503 -91 2169 -91 
Q 1331 -91 842 396 
Q 353 884 353 1716 
Q 353 2575 817 3079 
Q 1281 3584 2069 3584 
Q 2775 3584 3186 3129 
Q 3597 2675 3597 1894 
z
M 3022 2063 
Q 3016 2534 2758 2815 
Q 2500 3097 2075 3097 
Q 1594 3097 1305 2825 
Q 1016 2553 972 2059 
L 3022 2063 
z
" transform="scale(0.015625)"/>
       <path id="DejaVuSans-20" transform="scale(0.015625)"/>
       <path id="DejaVuSans-28" d="M 1984 4856 
Q 1566 4138 1362 3434 
Q 1159 2731 1159 2009 
Q 1159 1288 1364 580 
Q 1569 -128 1984 -844 
L 1484 -844 
Q 1016 -109 783 600 
Q 550 1309 550 2009 
Q 550 2706 781 3412 
Q 1013 4119 1484 4856 
L 1984 4856 
z
" transform="scale(0.015625)"/>
       <path id="DejaVuSans-6e" d="M 3513 2113 
L 3513 0 
L 2938 0 
L 2938 2094 
Q 2938 2591 2744 2837 
Q 2550 3084 2163 3084 
Q 1697 3084 1428 2787 
Q 1159 2491 1159 1978 
L 1159 0 
L 581 0 
L 581 3500 
L 1159 3500 
L 1159 2956 
Q 1366 3272 1645 3428 
Q 1925 3584 2291 3584 
Q 2894 3584 3203 3211 
Q 3513 2838 3513 2113 
z
" transform="scale(0.015625)"/>
       <path id="DejaVuSans-29" d="M 513 4856 
L 1013 4856 
Q 1481 4119 1714 3412 
Q 1947 2706 1947 2009 
Q 1947 1309 1714 600 
Q 1481 -109 1013 -844 
L 513 -844 
Q 928 -128 1133 580 
Q 1338 1288 1338 2009 
Q 1338 2731 1133 3434 
Q 928 4138 513 4856 
z
" transform="scale(0.015625)"/>
      </defs>
      <use xlink:href="#DejaVuSans-54"/>
      <use xlink:href="#DejaVuSans-69" x="57.958984"/>
      <use xlink:href="#DejaVuSans-6d" x="85.742188"/>
      <use xlink:href="#DejaVuSans-65" x="183.154297"/>
      <use xlink:href="#DejaVuSans-20" x="244.677734"/>
      <use xlink:href="#DejaVuSans-28" x="276.464844"/>
      <use xlink:href="#DejaVuSans-6d" x="315.478516"/>
      <use xlink:href="#DejaVuSans-69" x="412.890625"/>
      <use xlink:href="#DejaVuSans-6e" x="440.673828"/>
      <use xlink:href="#DejaVuSans-29" x="504.052734"/>
     </g>
    </g>
   </g>
   <g id="matplotlib.axis_2">
    <g id="ytick_1">
     <g id="line2d_4">
      <defs>
       <path id="m814644282f" d="M 0 0 
L -3.5 0 
" style="stroke: #000000; stroke-width: 0.8"/>
      </defs>
      <g>
       <use xlink:href="#m814644282f" x="51.716875" y="205.068125" style="stroke: #000000; stroke-width: 0.8"/>
      </g>
     </g>
     <g id="text_5">
      <!-- 0.0 -->
      <g transform="translate(28.81375 208.867344)scale(0.1 -0.1)">
       <defs>
        <path id="DejaVuSans-2e" d="M 684 794 
L 1344 794 
L 1344 0 
L 684 0 
L 684 794 
z
" transform="scale(0.015625)"/>
       </defs>
       <use xlink:href="#DejaVuSans-30"/>
       <use xlink:href="#DejaVuSans-2e" x="63.623047"/>
       <use xlink:href="#DejaVuSans-30" x="95.410156"/>
      </g>
     </g>
    </g>
    <g id="ytick_2">
     <g id="line2d_5">
      <g>
       <use xlink:href="#m814644282f" x="51.716875" y="173.873312" style="stroke: #000000; stroke-width: 0.8"/>
      </g>
     </g>
     <g id="text_6">
      <!-- 0.2 -->
      <g transform="translate(28.81375 177.672531)scale(0.1 -0.1)">
       <use xlink:href="#DejaVuSans-30"/>
       <use xlink:href="#DejaVuSans-2e" x="63.623047"/>
       <use xlink:href="#DejaVuSans-32" x="95.410156"/>
      </g>
     </g>
    </g>
    <g id="ytick_3">
     <g id="line2d_6">
      <g>
       <use xlink:href="#m814644282f" x="51.716875" y="142.6785" style="stroke: #000000; stroke-width: 0.8"/>
      </g>
     </g>
     <g id="text_7">
      <!-- 0.4 -->
      <g transform="translate(28.81375 146.477719)scale(0.1 -0.1)">
       <defs>
        <path id="DejaVuSans-34" d="M 2419 4116 
L 825 1625 
L 2419 1625 
L 2419 4116 
z
M 2253 4666 
L 3047 4666 
L 3047 1625 
L 3713 1625 
L 3713 1100 
L 3047 1100 
L 3047 0 
L 2419 0 
L 2419 1100 
L 313 1100 
L 313 1709 
L 2253 4666 
z
" transform="scale(0.015625)"/>
       </defs>
       <use xlink:href="#DejaVuSans-30"/>
       <use xlink:href="#DejaVuSans-2e" x="63.623047"/>
       <use xlink:href="#DejaVuSans-34" x="95.410156"/>
      </g>
     </g>
    </g>
    <g id="ytick_4">
     <g id="line2d_7">
      <g>
       <use xlink:href="#m814644282f" x="51.716875" y="111.483687" style="stroke: #000000; stroke-width: 0.8"/>
      </g>
     </g>
     <g id="text_8">
      <!-- 0.6 -->
      <g transform="translate(28.81375 115.282906)scale(0.1 -0.1)">
       <defs>
        <path id="DejaVuSans-36" d="M 2113 2584 
Q 1688 2584 1439 2293 
Q 1191 2003 1191 1497 
Q 1191 994 1439 701 
Q 1688 409 2113 409 
Q 2538 409 2786 701 
Q 3034 994 3034 1497 
Q 3034 2003 2786 2293 
Q 2538 2584 2113 2584 
z
M 3366 4563 
L 3366 3988 
Q 3128 4100 2886 4159 
Q 2644 4219 2406 4219 
Q 1781 4219 1451 3797 
Q 1122 3375 1075 2522 
Q 1259 2794 1537 2939 
Q 1816 3084 2150 3084 
Q 2853 3084 3261 2657 
Q 3669 2231 3669 1497 
Q 3669 778 3244 343 
Q 2819 -91 2113 -91 
Q 1303 -91 875 529 
Q 447 1150 447 2328 
Q 447 3434 972 4092 
Q 1497 4750 2381 4750 
Q 2619 4750 2861 4703 
Q 3103 4656 3366 4563 
z
" transform="scale(0.015625)"/>
       </defs>
       <use xlink:href="#DejaVuSans-30"/>
       <use xlink:href="#DejaVuSans-2e" x="63.623047"/>
       <use xlink:href="#DejaVuSans-36" x="95.410156"/>
      </g>
     </g>
    </g>
    <g id="ytick_5">
     <g id="line2d_8">
      <g>
       <use xlink:href="#m814644282f" x="51.716875" y="80.288875" style="stroke: #000000; stroke-width: 0.8"/>
      </g>
     </g>
     <g id="text_9">
      <!-- 0.8 -->
      <g transform="translate(28.81375 84.088094)scale(0.1 -0.1)">
       <defs>
        <path id="DejaVuSans-38" d="M 2034 2216 
Q 1584 2216 1326 1975 
Q 1069 1734 1069 1313 
Q 1069 891 1326 650 
Q 1584 409 2034 409 
Q 2484 409 2743 651 
Q 3003 894 3003 1313 
Q 3003 1734 2745 1975 
Q 2488 2216 2034 2216 
z
M 1403 2484 
Q 997 2584 770 2862 
Q 544 3141 544 3541 
Q 544 4100 942 4425 
Q 1341 4750 2034 4750 
Q 2731 4750 3128 4425 
Q 3525 4100 3525 3541 
Q 3525 3141 3298 2862 
Q 3072 2584 2669 2484 
Q 3125 2378 3379 2068 
Q 3634 1759 3634 1313 
Q 3634 634 3220 271 
Q 2806 -91 2034 -91 
Q 1263 -91 848 271 
Q 434 634 434 1313 
Q 434 1759 690 2068 
Q 947 2378 1403 2484 
z
M 1172 3481 
Q 1172 3119 1398 2916 
Q 1625 2713 2034 2713 
Q 2441 2713 2670 2916 
Q 2900 3119 2900 3481 
Q 2900 3844 2670 4047 
Q 2441 4250 2034 4250 
Q 1625 4250 1398 4047 
Q 1172 3844 1172 3481 
z
" transform="scale(0.015625)"/>
       </defs>
       <use xlink:href="#DejaVuSans-30"/>
       <use xlink:href="#DejaVuSans-2e" x="63.623047"/>
       <use xlink:href="#DejaVuSans-38" x="95.410156"/>
      </g>
     </g>
    </g>
    <g id="ytick_6">
     <g id="line2d_9">
      <g>
       <use xlink:href="#m814644282f" x="51.716875" y="49.094062" style="stroke: #000000; stroke-width: 0.8"/>
      </g>
     </g>
     <g id="text_10">
      <!-- 1.0 -->
      <g transform="translate(28.81375 52.893281)scale(0.1 -0.1)">
       <use xlink:href="#DejaVuSans-31"/>
       <use xlink:href="#DejaVuSans-2e" x="63.623047"/>
       <use xlink:href="#DejaVuSans-30" x="95.410156"/>
      </g>
     </g>
    </g>
    <g id="text_11">
     <!-- Normalized exp output -->
     <g transform="translate(16.318125 195.658281)rotate(-90)scale(0.12 -0.12)">
      <defs>
       <path id="DejaVuSans-4e" d="M 628 4666 
L 1478 4666 
L 3547 763 
L 3547 4666 
L 4159 4666 
L 4159 0 
L 3309 0 
L 1241 3903 
L 1241 0 
L 628 0 
L 628 4666 
z
" transform="scale(0.015625)"/>
       <path id="DejaVuSans-6f" d="M 1959 3097 
Q 1497 3097 1228 2736 
Q 959 2375 959 1747 
Q 959 1119 1226 758 
Q 1494 397 1959 397 
Q 2419 397 2687 759 
Q 2956 1122 2956 1747 
Q 2956 2369 2687 2733 
Q 2419 3097 1959 3097 
z
M 1959 3584 
Q 2709 3584 3137 3096 
Q 3566 2609 3566 1747 
Q 3566 888 3137 398 
Q 2709 -91 1959 -91 
Q 1206 -91 779 398 
Q 353 888 353 1747 
Q 353 2609 779 3096 
Q 1206 3584 1959 3584 
z
" transform="scale(0.015625)"/>
       <path id="DejaVuSans-72" d="M 2631 2963 
Q 2534 3019 2420 3045 
Q 2306 3072 2169 3072 
Q 1681 3072 1420 2755 
Q 1159 2438 1159 1844 
L 1159 0 
L 581 0 
L 581 3500 
L 1159 3500 
L 1159 2956 
Q 1341 3275 1631 3429 
Q 1922 3584 2338 3584 
Q 2397 3584 2469 3576 
Q 2541 3569 2628 3553 
L 2631 2963 
z
" transform="scale(0.015625)"/>
       <path id="DejaVuSans-61" d="M 2194 1759 
Q 1497 1759 1228 1600 
Q 959 1441 959 1056 
Q 959 750 1161 570 
Q 1363 391 1709 391 
Q 2188 391 2477 730 
Q 2766 1069 2766 1631 
L 2766 1759 
L 2194 1759 
z
M 3341 1997 
L 3341 0 
L 2766 0 
L 2766 531 
Q 2569 213 2275 61 
Q 1981 -91 1556 -91 
Q 1019 -91 701 211 
Q 384 513 384 1019 
Q 384 1609 779 1909 
Q 1175 2209 1959 2209 
L 2766 2209 
L 2766 2266 
Q 2766 2663 2505 2880 
Q 2244 3097 1772 3097 
Q 1472 3097 1187 3025 
Q 903 2953 641 2809 
L 641 3341 
Q 956 3463 1253 3523 
Q 1550 3584 1831 3584 
Q 2591 3584 2966 3190 
Q 3341 2797 3341 1997 
z
" transform="scale(0.015625)"/>
       <path id="DejaVuSans-6c" d="M 603 4863 
L 1178 4863 
L 1178 0 
L 603 0 
L 603 4863 
z
" transform="scale(0.015625)"/>
       <path id="DejaVuSans-7a" d="M 353 3500 
L 3084 3500 
L 3084 2975 
L 922 459 
L 3084 459 
L 3084 0 
L 275 0 
L 275 525 
L 2438 3041 
L 353 3041 
L 353 3500 
z
" transform="scale(0.015625)"/>
       <path id="DejaVuSans-64" d="M 2906 2969 
L 2906 4863 
L 3481 4863 
L 3481 0 
L 2906 0 
L 2906 525 
Q 2725 213 2448 61 
Q 2172 -91 1784 -91 
Q 1150 -91 751 415 
Q 353 922 353 1747 
Q 353 2572 751 3078 
Q 1150 3584 1784 3584 
Q 2172 3584 2448 3432 
Q 2725 3281 2906 2969 
z
M 947 1747 
Q 947 1113 1208 752 
Q 1469 391 1925 391 
Q 2381 391 2643 752 
Q 2906 1113 2906 1747 
Q 2906 2381 2643 2742 
Q 2381 3103 1925 3103 
Q 1469 3103 1208 2742 
Q 947 2381 947 1747 
z
" transform="scale(0.015625)"/>
       <path id="DejaVuSans-78" d="M 3513 3500 
L 2247 1797 
L 3578 0 
L 2900 0 
L 1881 1375 
L 863 0 
L 184 0 
L 1544 1831 
L 300 3500 
L 978 3500 
L 1906 2253 
L 2834 3500 
L 3513 3500 
z
" transform="scale(0.015625)"/>
       <path id="DejaVuSans-70" d="M 1159 525 
L 1159 -1331 
L 581 -1331 
L 581 3500 
L 1159 3500 
L 1159 2969 
Q 1341 3281 1617 3432 
Q 1894 3584 2278 3584 
Q 2916 3584 3314 3078 
Q 3713 2572 3713 1747 
Q 3713 922 3314 415 
Q 2916 -91 2278 -91 
Q 1894 -91 1617 61 
Q 1341 213 1159 525 
z
M 3116 1747 
Q 3116 2381 2855 2742 
Q 2594 3103 2138 3103 
Q 1681 3103 1420 2742 
Q 1159 2381 1159 1747 
Q 1159 1113 1420 752 
Q 1681 391 2138 391 
Q 2594 391 2855 752 
Q 3116 1113 3116 1747 
z
" transform="scale(0.015625)"/>
       <path id="DejaVuSans-75" d="M 544 1381 
L 544 3500 
L 1119 3500 
L 1119 1403 
Q 1119 906 1312 657 
Q 1506 409 1894 409 
Q 2359 409 2629 706 
Q 2900 1003 2900 1516 
L 2900 3500 
L 3475 3500 
L 3475 0 
L 2900 0 
L 2900 538 
Q 2691 219 2414 64 
Q 2138 -91 1772 -91 
Q 1169 -91 856 284 
Q 544 659 544 1381 
z
M 1991 3584 
L 1991 3584 
z
" transform="scale(0.015625)"/>
       <path id="DejaVuSans-74" d="M 1172 4494 
L 1172 3500 
L 2356 3500 
L 2356 3053 
L 1172 3053 
L 1172 1153 
Q 1172 725 1289 603 
Q 1406 481 1766 481 
L 2356 481 
L 2356 0 
L 1766 0 
Q 1100 0 847 248 
Q 594 497 594 1153 
L 594 3053 
L 172 3053 
L 172 3500 
L 594 3500 
L 594 4494 
L 1172 4494 
z
" transform="scale(0.015625)"/>
      </defs>
      <use xlink:href="#DejaVuSans-4e"/>
      <use xlink:href="#DejaVuSans-6f" x="74.804688"/>
      <use xlink:href="#DejaVuSans-72" x="135.986328"/>
      <use xlink:href="#DejaVuSans-6d" x="175.349609"/>
      <use xlink:href="#DejaVuSans-61" x="272.761719"/>
      <use xlink:href="#DejaVuSans-6c" x="334.041016"/>
      <use xlink:href="#DejaVuSans-69" x="361.824219"/>
      <use xlink:href="#DejaVuSans-7a" x="389.607422"/>
      <use xlink:href="#DejaVuSans-65" x="442.097656"/>
      <use xlink:href="#DejaVuSans-64" x="503.621094"/>
      <use xlink:href="#DejaVuSans-20" x="567.097656"/>
      <use xlink:href="#DejaVuSans-65" x="598.884766"/>
      <use xlink:href="#DejaVuSans-78" x="658.658203"/>
      <use xlink:href="#DejaVuSans-70" x="717.837891"/>
      <use xlink:href="#DejaVuSans-20" x="781.314453"/>
      <use xlink:href="#DejaVuSans-6f" x="813.101562"/>
      <use xlink:href="#DejaVuSans-75" x="874.283203"/>
      <use xlink:href="#DejaVuSans-74" x="937.662109"/>
      <use xlink:href="#DejaVuSans-70" x="976.871094"/>
      <use xlink:href="#DejaVuSans-75" x="1040.347656"/>
      <use xlink:href="#DejaVuSans-74" x="1103.726562"/>
     </g>
    </g>
   </g>
   <g id="line2d_10">
    <path d="M 58.806605 202.17292 
L 61.169848 201.724367 
L 63.533092 201.241833 
L 65.896335 200.895224 
L 68.259579 200.446671 
L 70.622822 200.269969 
L 72.986065 200.113655 
L 75.349309 199.92336 
L 77.712552 199.902971 
L 80.075795 199.590343 
L 82.439039 199.427233 
L 84.802282 199.3049 
L 87.165526 199.168975 
L 89.528769 198.999069 
L 91.892012 198.863144 
L 94.255256 198.672849 
L 96.618499 198.577701 
L 98.981742 198.305851 
L 101.344986 198.2175 
L 103.708229 197.993223 
L 106.071473 197.802928 
L 108.434716 197.728169 
L 110.797959 197.667003 
L 113.161203 197.469911 
L 115.524446 197.408745 
L 117.887689 197.279616 
L 120.250933 197.102914 
L 122.614176 197.096117 
L 124.97742 196.994174 
L 127.340663 196.831063 
L 129.703906 196.769897 
L 132.06715 196.620379 
L 134.430393 196.368918 
L 136.793636 196.300955 
L 139.15688 196.199012 
L 141.520123 196.151438 
L 143.883366 195.899976 
L 146.24661 195.832014 
L 148.609853 195.736866 
L 150.973097 195.655311 
L 153.33634 195.553367 
L 155.699583 195.308702 
L 158.062827 195.383461 
L 160.42607 195.301906 
L 162.789313 195.172777 
L 165.152557 195.036852 
L 167.5158 195.104815 
L 169.879044 195.043648 
L 172.242287 194.751409 
L 174.60553 194.894131 
L 176.968774 194.656262 
L 179.332017 194.588299 
L 181.69526 194.411596 
L 184.058504 194.384411 
L 186.421747 194.248486 
L 188.784991 194.221301 
L 191.148234 194.126154 
L 193.511477 193.963044 
L 195.874721 194.051395 
L 198.237964 193.867896 
L 200.601207 193.745563 
" clip-path="url(#pc1f9064d96)" style="fill: none; stroke: #b0c4de; stroke-width: 2; stroke-linecap: square"/>
   </g>
   <g id="line2d_11">
    <path d="M 58.806605 201.894274 
L 61.169848 201.663201 
L 63.533092 201.289407 
L 65.896335 200.95639 
L 68.259579 200.691336 
L 70.622822 200.392301 
L 72.986065 200.256376 
L 75.349309 200.154432 
L 77.712552 199.930156 
L 80.075795 199.841805 
L 82.439039 199.631121 
L 84.802282 199.624324 
L 87.165526 199.345678 
L 89.528769 199.209753 
L 91.892012 199.14179 
L 94.255256 198.971884 
L 96.618499 198.944699 
L 98.981742 198.801977 
L 101.344986 198.584497 
L 103.708229 198.48935 
L 106.071473 198.509738 
L 108.434716 198.387406 
L 110.797959 198.108759 
L 113.161203 198.244685 
L 115.524446 198.054389 
L 117.887689 197.972834 
L 120.250933 198.006816 
L 122.614176 197.809724 
L 124.97742 197.741762 
L 127.340663 197.483504 
L 129.703906 197.524281 
L 132.06715 197.361171 
L 134.430393 197.442726 
L 136.793636 197.279616 
L 139.15688 197.062136 
L 141.520123 196.899026 
L 143.883366 196.89223 
L 146.24661 196.776693 
L 148.609853 196.586398 
L 150.973097 196.688342 
L 153.33634 196.545621 
L 155.699583 196.321344 
L 158.062827 196.382511 
L 160.42607 196.192215 
L 162.789313 195.981531 
L 165.152557 196.049494 
L 167.5158 195.879588 
L 169.879044 195.770848 
L 172.242287 195.750459 
L 174.60553 195.662107 
L 176.968774 195.40385 
L 179.332017 195.274721 
L 181.69526 195.410646 
L 184.058504 195.070833 
L 186.421747 195.138796 
L 188.784991 195.009667 
L 191.148234 195.193166 
L 193.511477 194.900927 
L 195.874721 194.724224 
L 198.237964 194.785391 
L 200.601207 194.656262 
" clip-path="url(#pc1f9064d96)" style="fill: none; stroke: #4169e1; stroke-width: 2; stroke-linecap: square"/>
   </g>
   <g id="line2d_12">
    <path d="M 58.806605 201.765145 
L 61.169848 201.296203 
L 63.533092 201.058334 
L 65.896335 200.766095 
L 68.259579 200.616578 
L 70.622822 200.433079 
L 72.986065 200.147636 
L 75.349309 199.943748 
L 77.712552 199.848601 
L 80.075795 199.712676 
L 82.439039 199.325289 
L 84.802282 199.270919 
L 87.165526 199.223345 
L 89.528769 199.019458 
L 91.892012 198.856348 
L 94.255256 198.774792 
L 96.618499 198.584497 
L 98.981742 198.516535 
L 101.344986 198.502942 
L 103.708229 198.414591 
L 106.071473 198.414591 
L 108.434716 198.237888 
L 110.797959 198.135944 
L 113.161203 198.054389 
L 115.524446 197.925261 
L 117.887689 197.809724 
L 120.250933 197.864094 
L 122.614176 197.639818 
L 124.97742 197.531078 
L 127.340663 197.680595 
L 129.703906 197.198061 
L 132.06715 197.293209 
L 134.430393 196.987377 
L 136.793636 196.994174 
L 139.15688 196.83786 
L 141.520123 196.661157 
L 143.883366 196.613583 
L 146.24661 196.484454 
L 148.609853 196.396103 
L 150.973097 196.260178 
L 153.33634 196.260178 
L 155.699583 196.124253 
L 158.062827 196.11066 
L 160.42607 195.988328 
L 162.789313 196.015513 
L 165.152557 195.709681 
L 167.5158 195.553367 
L 169.879044 195.444627 
L 172.242287 195.424239 
L 174.60553 195.247536 
L 176.968774 195.125203 
L 179.332017 195.084426 
L 181.69526 194.975686 
L 184.058504 194.703835 
L 186.421747 194.914519 
L 188.784991 194.635873 
L 191.148234 194.520337 
L 193.511477 194.45917 
L 195.874721 194.248486 
L 198.237964 194.268875 
L 200.601207 194.309653 
" clip-path="url(#pc1f9064d96)" style="fill: none; stroke: #191970; stroke-width: 2; stroke-linecap: square"/>
   </g>
   <g id="patch_3">
    <path d="M 51.716875 205.068125 
L 51.716875 49.094062 
" style="fill: none; stroke: #000000; stroke-width: 0.8; stroke-linejoin: miter; stroke-linecap: square"/>
   </g>
   <g id="patch_4">
    <path d="M 51.716875 205.068125 
L 207.690938 205.068125 
" style="fill: none; stroke: #000000; stroke-width: 0.8; stroke-linejoin: miter; stroke-linecap: square"/>
   </g>
   <g id="text_12">
    <!-- vRNA = 0fM -->
    <g transform="translate(96.239844 43.094062)scale(0.1 -0.1)">
     <defs>
      <path id="DejaVuSans-Bold-76" d="M 97 3500 
L 1216 3500 
L 2088 1081 
L 2956 3500 
L 4078 3500 
L 2700 0 
L 1472 0 
L 97 3500 
z
" transform="scale(0.015625)"/>
      <path id="DejaVuSans-Bold-52" d="M 2297 2597 
Q 2675 2597 2839 2737 
Q 3003 2878 3003 3200 
Q 3003 3519 2839 3656 
Q 2675 3794 2297 3794 
L 1791 3794 
L 1791 2597 
L 2297 2597 
z
M 1791 1766 
L 1791 0 
L 588 0 
L 588 4666 
L 2425 4666 
Q 3347 4666 3776 4356 
Q 4206 4047 4206 3378 
Q 4206 2916 3982 2619 
Q 3759 2322 3309 2181 
Q 3556 2125 3751 1926 
Q 3947 1728 4147 1325 
L 4800 0 
L 3519 0 
L 2950 1159 
Q 2778 1509 2601 1637 
Q 2425 1766 2131 1766 
L 1791 1766 
z
" transform="scale(0.015625)"/>
      <path id="DejaVuSans-Bold-4e" d="M 588 4666 
L 1931 4666 
L 3628 1466 
L 3628 4666 
L 4769 4666 
L 4769 0 
L 3425 0 
L 1728 3200 
L 1728 0 
L 588 0 
L 588 4666 
z
" transform="scale(0.015625)"/>
      <path id="DejaVuSans-Bold-41" d="M 3419 850 
L 1538 850 
L 1241 0 
L 31 0 
L 1759 4666 
L 3194 4666 
L 4922 0 
L 3713 0 
L 3419 850 
z
M 1838 1716 
L 3116 1716 
L 2478 3572 
L 1838 1716 
z
" transform="scale(0.015625)"/>
      <path id="DejaVuSans-Bold-20" transform="scale(0.015625)"/>
      <path id="DejaVuSans-Bold-3d" d="M 678 3084 
L 4684 3084 
L 4684 2350 
L 678 2350 
L 678 3084 
z
M 678 1663 
L 4684 1663 
L 4684 922 
L 678 922 
L 678 1663 
z
" transform="scale(0.015625)"/>
      <path id="DejaVuSans-Bold-30" d="M 2944 2338 
Q 2944 3213 2780 3570 
Q 2616 3928 2228 3928 
Q 1841 3928 1675 3570 
Q 1509 3213 1509 2338 
Q 1509 1453 1675 1090 
Q 1841 728 2228 728 
Q 2613 728 2778 1090 
Q 2944 1453 2944 2338 
z
M 4147 2328 
Q 4147 1169 3647 539 
Q 3147 -91 2228 -91 
Q 1306 -91 806 539 
Q 306 1169 306 2328 
Q 306 3491 806 4120 
Q 1306 4750 2228 4750 
Q 3147 4750 3647 4120 
Q 4147 3491 4147 2328 
z
" transform="scale(0.015625)"/>
      <path id="DejaVuSans-Bold-66" d="M 2841 4863 
L 2841 4128 
L 2222 4128 
Q 1984 4128 1890 4042 
Q 1797 3956 1797 3744 
L 1797 3500 
L 2753 3500 
L 2753 2700 
L 1797 2700 
L 1797 0 
L 678 0 
L 678 2700 
L 122 2700 
L 122 3500 
L 678 3500 
L 678 3744 
Q 678 4316 997 4589 
Q 1316 4863 1984 4863 
L 2841 4863 
z
" transform="scale(0.015625)"/>
      <path id="DejaVuSans-Bold-4d" d="M 588 4666 
L 2119 4666 
L 3181 2169 
L 4250 4666 
L 5778 4666 
L 5778 0 
L 4641 0 
L 4641 3413 
L 3566 897 
L 2803 897 
L 1728 3413 
L 1728 0 
L 588 0 
L 588 4666 
z
" transform="scale(0.015625)"/>
     </defs>
     <use xlink:href="#DejaVuSans-Bold-76"/>
     <use xlink:href="#DejaVuSans-Bold-52" x="65.185547"/>
     <use xlink:href="#DejaVuSans-Bold-4e" x="142.1875"/>
     <use xlink:href="#DejaVuSans-Bold-41" x="225.878906"/>
     <use xlink:href="#DejaVuSans-Bold-20" x="303.271484"/>
     <use xlink:href="#DejaVuSans-Bold-3d" x="338.085938"/>
     <use xlink:href="#DejaVuSans-Bold-20" x="421.875"/>
     <use xlink:href="#DejaVuSans-Bold-30" x="456.689453"/>
     <use xlink:href="#DejaVuSans-Bold-66" x="526.269531"/>
     <use xlink:href="#DejaVuSans-Bold-4d" x="569.775391"/>
    </g>
   </g>
   <g id="legend_1">
    <g id="patch_5">
     <path d="M 130.915938 101.128437 
L 200.690938 101.128437 
Q 202.690938 101.128437 202.690938 99.128437 
L 202.690938 56.094062 
Q 202.690938 54.094062 200.690938 54.094062 
L 130.915938 54.094062 
Q 128.915938 54.094062 128.915938 56.094062 
L 128.915938 99.128437 
Q 128.915938 101.128437 130.915938 101.128437 
z
" style="fill: #ffffff; opacity: 0.8; stroke: #cccccc; stroke-linejoin: miter"/>
    </g>
    <g id="line2d_13">
     <path d="M 132.915938 62.1925 
L 142.915938 62.1925 
L 152.915938 62.1925 
" style="fill: none; stroke: #b0c4de; stroke-width: 2; stroke-linecap: square"/>
    </g>
    <g id="text_13">
     <!-- RT 0.5 -->
     <g transform="translate(160.915938 65.6925)scale(0.1 -0.1)">
      <defs>
       <path id="DejaVuSans-52" d="M 2841 2188 
Q 3044 2119 3236 1894 
Q 3428 1669 3622 1275 
L 4263 0 
L 3584 0 
L 2988 1197 
Q 2756 1666 2539 1819 
Q 2322 1972 1947 1972 
L 1259 1972 
L 1259 0 
L 628 0 
L 628 4666 
L 2053 4666 
Q 2853 4666 3247 4331 
Q 3641 3997 3641 3322 
Q 3641 2881 3436 2590 
Q 3231 2300 2841 2188 
z
M 1259 4147 
L 1259 2491 
L 2053 2491 
Q 2509 2491 2742 2702 
Q 2975 2913 2975 3322 
Q 2975 3731 2742 3939 
Q 2509 4147 2053 4147 
L 1259 4147 
z
" transform="scale(0.015625)"/>
       <path id="DejaVuSans-35" d="M 691 4666 
L 3169 4666 
L 3169 4134 
L 1269 4134 
L 1269 2991 
Q 1406 3038 1543 3061 
Q 1681 3084 1819 3084 
Q 2600 3084 3056 2656 
Q 3513 2228 3513 1497 
Q 3513 744 3044 326 
Q 2575 -91 1722 -91 
Q 1428 -91 1123 -41 
Q 819 9 494 109 
L 494 744 
Q 775 591 1075 516 
Q 1375 441 1709 441 
Q 2250 441 2565 725 
Q 2881 1009 2881 1497 
Q 2881 1984 2565 2268 
Q 2250 2553 1709 2553 
Q 1456 2553 1204 2497 
Q 953 2441 691 2322 
L 691 4666 
z
" transform="scale(0.015625)"/>
      </defs>
      <use xlink:href="#DejaVuSans-52"/>
      <use xlink:href="#DejaVuSans-54" x="62.232422"/>
      <use xlink:href="#DejaVuSans-20" x="123.316406"/>
      <use xlink:href="#DejaVuSans-30" x="155.103516"/>
      <use xlink:href="#DejaVuSans-2e" x="218.726562"/>
      <use xlink:href="#DejaVuSans-35" x="250.513672"/>
     </g>
    </g>
    <g id="line2d_14">
     <path d="M 132.915938 76.870625 
L 142.915938 76.870625 
L 152.915938 76.870625 
" style="fill: none; stroke: #4169e1; stroke-width: 2; stroke-linecap: square"/>
    </g>
    <g id="text_14">
     <!-- RT 2.5 -->
     <g transform="translate(160.915938 80.370625)scale(0.1 -0.1)">
      <use xlink:href="#DejaVuSans-52"/>
      <use xlink:href="#DejaVuSans-54" x="62.232422"/>
      <use xlink:href="#DejaVuSans-20" x="123.316406"/>
      <use xlink:href="#DejaVuSans-32" x="155.103516"/>
      <use xlink:href="#DejaVuSans-2e" x="218.726562"/>
      <use xlink:href="#DejaVuSans-35" x="250.513672"/>
     </g>
    </g>
    <g id="line2d_15">
     <path d="M 132.915938 91.54875 
L 142.915938 91.54875 
L 152.915938 91.54875 
" style="fill: none; stroke: #191970; stroke-width: 2; stroke-linecap: square"/>
    </g>
    <g id="text_15">
     <!-- RT 10.0 -->
     <g transform="translate(160.915938 95.04875)scale(0.1 -0.1)">
      <use xlink:href="#DejaVuSans-52"/>
      <use xlink:href="#DejaVuSans-54" x="62.232422"/>
      <use xlink:href="#DejaVuSans-20" x="123.316406"/>
      <use xlink:href="#DejaVuSans-31" x="155.103516"/>
      <use xlink:href="#DejaVuSans-30" x="218.726562"/>
      <use xlink:href="#DejaVuSans-2e" x="282.349609"/>
      <use xlink:href="#DejaVuSans-30" x="314.136719"/>
     </g>
    </g>
   </g>
  </g>
  <g id="axes_2">
   <g id="patch_6">
    <path d="M 335.65267 205.068125 
L 491.626733 205.068125 
L 491.626733 49.094062 
L 335.65267 49.094062 
z
" style="fill: #ffffff"/>
   </g>
   <g id="PolyCollection_4">
    <defs>
     <path id="m4318fb9e44" d="M 342.742401 -48.567294 
L 342.742401 -48.261236 
L 345.105644 -48.757345 
L 347.468887 -49.173755 
L 349.832131 -49.428186 
L 352.195374 -49.799856 
L 354.558617 -50.045793 
L 356.921861 -50.242458 
L 359.285104 -50.295137 
L 361.648348 -50.283575 
L 364.011591 -50.580838 
L 366.374834 -50.7381 
L 368.738078 -51.028391 
L 371.101321 -51.135923 
L 373.464564 -51.141989 
L 375.827808 -51.278819 
L 378.191051 -51.326405 
L 380.554295 -51.504655 
L 382.917538 -51.675425 
L 385.280781 -51.686622 
L 387.644025 -51.708021 
L 390.007268 -51.830354 
L 392.370511 -52.243111 
L 394.733755 -52.179482 
L 397.096998 -52.020033 
L 399.460241 -52.307402 
L 401.823485 -52.29787 
L 404.186728 -52.152857 
L 406.549972 -52.645032 
L 408.913215 -52.457602 
L 411.276458 -52.574484 
L 413.639702 -52.519656 
L 416.002945 -52.617944 
L 418.366188 -52.73466 
L 420.729432 -53.048212 
L 423.092675 -53.14079 
L 425.455919 -53.245805 
L 427.819162 -53.145768 
L 430.182405 -53.484983 
L 432.545649 -53.384429 
L 434.908892 -53.559184 
L 437.272135 -53.706774 
L 439.635379 -53.736423 
L 441.998622 -53.791857 
L 444.361866 -53.696178 
L 446.725109 -54.271249 
L 449.088352 -53.889725 
L 451.451596 -54.07873 
L 453.814839 -54.156409 
L 456.178082 -54.396633 
L 458.541326 -54.394416 
L 460.904569 -54.488659 
L 463.267813 -54.46831 
L 465.631056 -54.282083 
L 467.994299 -54.645595 
L 470.357543 -54.525135 
L 472.720786 -54.951965 
L 475.084029 -54.744174 
L 477.447273 -54.815923 
L 479.810516 -54.807302 
L 482.173759 -55.129111 
L 484.537003 -55.028432 
L 484.537003 -63.181117 
L 484.537003 -63.181117 
L 482.173759 -63.066846 
L 479.810516 -63.388655 
L 477.447273 -63.176146 
L 475.084029 -63.016822 
L 472.720786 -62.713884 
L 470.357543 -62.991196 
L 467.994299 -62.598886 
L 465.631056 -62.663363 
L 463.267813 -62.640246 
L 460.904569 -62.565527 
L 458.541326 -62.319957 
L 456.178082 -62.086667 
L 453.814839 -62.299707 
L 451.451596 -62.010388 
L 449.088352 -61.75084 
L 446.725109 -61.926609 
L 444.361866 -61.781277 
L 441.998622 -61.400155 
L 439.635379 -61.360441 
L 437.272135 -60.79202 
L 434.908892 -60.7765 
L 432.545649 -60.788144 
L 430.182405 -60.497296 
L 427.819162 -60.374365 
L 425.455919 -60.355883 
L 423.092675 -59.754088 
L 420.729432 -59.43889 
L 418.366188 -59.358259 
L 416.002945 -59.053607 
L 413.639702 -58.74412 
L 411.276458 -58.254332 
L 408.913215 -57.555663 
L 406.549972 -57.001236 
L 404.186728 -56.691453 
L 401.823485 -56.029924 
L 399.460241 -55.408729 
L 397.096998 -54.785399 
L 394.733755 -54.19099 
L 392.370511 -53.379773 
L 390.007268 -53.41194 
L 387.644025 -52.718722 
L 385.280781 -52.563418 
L 382.917538 -52.030915 
L 380.554295 -52.160907 
L 378.191051 -51.958567 
L 375.827808 -51.788674 
L 373.464564 -51.558506 
L 371.101321 -51.279129 
L 368.738078 -51.182773 
L 366.374834 -51.024512 
L 364.011591 -50.937107 
L 361.648348 -50.826596 
L 359.285104 -50.624738 
L 356.921861 -50.446345 
L 354.558617 -50.15368 
L 352.195374 -49.964656 
L 349.832131 -49.751848 
L 347.468887 -49.503356 
L 345.105644 -49.02266 
L 342.742401 -48.567294 
z
" style="stroke: #b0c4de; stroke-opacity: 0.2"/>
    </defs>
    <g clip-path="url(#p277cc0696f)">
     <use xlink:href="#m4318fb9e44" x="0" y="250.56" style="fill: #b0c4de; fill-opacity: 0.2; stroke: #b0c4de; stroke-opacity: 0.2"/>
    </g>
   </g>
   <g id="PolyCollection_5">
    <defs>
     <path id="m2a6f806d77" d="M 342.742401 -48.880341 
L 342.742401 -48.641407 
L 345.105644 -49.059909 
L 347.468887 -49.229138 
L 349.832131 -49.447296 
L 352.195374 -49.6835 
L 354.558617 -49.822458 
L 356.921861 -50.082814 
L 359.285104 -50.153429 
L 361.648348 -50.179604 
L 364.011591 -50.418315 
L 366.374834 -50.496514 
L 368.738078 -50.84417 
L 371.101321 -50.764834 
L 373.464564 -51.017231 
L 375.827808 -51.01001 
L 378.191051 -51.148381 
L 380.554295 -51.38137 
L 382.917538 -51.393526 
L 385.280781 -51.523452 
L 387.644025 -51.588286 
L 390.007268 -51.777566 
L 392.370511 -51.854146 
L 394.733755 -51.895227 
L 397.096998 -52.030043 
L 399.460241 -52.115366 
L 401.823485 -52.24958 
L 404.186728 -52.359337 
L 406.549972 -52.590225 
L 408.913215 -52.592033 
L 411.276458 -52.431278 
L 413.639702 -52.540349 
L 416.002945 -52.631228 
L 418.366188 -52.762178 
L 420.729432 -52.787525 
L 423.092675 -52.840333 
L 425.455919 -52.994941 
L 427.819162 -53.251844 
L 430.182405 -53.382328 
L 432.545649 -53.35908 
L 434.908892 -53.466964 
L 437.272135 -53.515821 
L 439.635379 -53.771736 
L 441.998622 -53.655707 
L 444.361866 -54.002501 
L 446.725109 -54.10885 
L 449.088352 -53.864363 
L 451.451596 -54.210348 
L 453.814839 -54.165143 
L 456.178082 -54.02953 
L 458.541326 -54.495791 
L 460.904569 -54.40832 
L 463.267813 -54.598012 
L 465.631056 -54.50704 
L 467.994299 -54.688767 
L 470.357543 -54.580406 
L 472.720786 -54.843693 
L 475.084029 -55.009125 
L 477.447273 -54.979139 
L 479.810516 -55.075083 
L 482.173759 -54.995347 
L 484.537003 -55.078333 
L 484.537003 -55.51941 
L 484.537003 -55.51941 
L 482.173759 -55.493656 
L 479.810516 -55.169255 
L 477.447273 -55.428309 
L 475.084029 -55.303176 
L 472.720786 -55.115203 
L 470.357543 -55.174602 
L 467.994299 -55.161388 
L 465.631056 -55.016895 
L 463.267813 -54.762813 
L 460.904569 -54.97969 
L 458.541326 -54.620368 
L 456.178082 -54.502151 
L 453.814839 -54.312169 
L 451.451596 -54.334926 
L 449.088352 -54.327506 
L 446.725109 -54.314092 
L 444.361866 -54.189367 
L 441.998622 -54.318682 
L 439.635379 -54.066728 
L 437.272135 -53.670202 
L 434.908892 -53.868576 
L 432.545649 -53.636647 
L 430.182405 -53.423105 
L 427.819162 -53.662329 
L 425.455919 -53.321161 
L 423.092675 -53.271882 
L 420.729432 -53.05284 
L 418.366188 -53.091779 
L 416.002945 -52.937286 
L 413.639702 -52.905833 
L 411.276458 -52.539165 
L 408.913215 -52.881333 
L 406.549972 -52.692846 
L 404.186728 -52.583922 
L 401.823485 -52.516976 
L 399.460241 -52.392933 
L 397.096998 -52.301553 
L 394.733755 -52.218889 
L 392.370511 -52.042489 
L 390.007268 -51.942367 
L 387.644025 -51.859796 
L 385.280781 -51.870261 
L 382.917538 -51.741929 
L 380.554295 -51.658937 
L 378.191051 -51.443373 
L 375.827808 -51.337079 
L 373.464564 -51.098786 
L 371.101321 -51.160887 
L 368.738078 -50.891256 
L 366.374834 -50.885507 
L 364.011591 -50.583115 
L 361.648348 -50.427644 
L 359.285104 -50.358671 
L 356.921861 -50.252584 
L 354.558617 -50.023609 
L 352.195374 -49.768385 
L 349.832131 -49.569628 
L 347.468887 -49.434381 
L 345.105644 -49.223019 
L 342.742401 -48.880341 
z
" style="stroke: #4169e1; stroke-opacity: 0.2"/>
    </defs>
    <g clip-path="url(#p277cc0696f)">
     <use xlink:href="#m2a6f806d77" x="0" y="250.56" style="fill: #4169e1; fill-opacity: 0.2; stroke: #4169e1; stroke-opacity: 0.2"/>
    </g>
   </g>
   <g id="PolyCollection_6">
    <defs>
     <path id="mc15e1613c8" d="M 342.742401 -48.891336 
L 342.742401 -48.820707 
L 345.105644 -48.762781 
L 347.468887 -49.093491 
L 349.832131 -49.362212 
L 352.195374 -49.593261 
L 354.558617 -49.668536 
L 356.921861 -50.003743 
L 359.285104 -50.277292 
L 361.648348 -50.440402 
L 364.011591 -50.585514 
L 366.374834 -50.647804 
L 368.738078 -51.098786 
L 371.101321 -50.90121 
L 373.464564 -51.300721 
L 375.827808 -51.305941 
L 378.191051 -51.392739 
L 380.554295 -51.427843 
L 382.917538 -51.49382 
L 385.280781 -51.760444 
L 387.644025 -51.760039 
L 390.007268 -51.826155 
L 392.370511 -51.980346 
L 394.733755 -52.007555 
L 397.096998 -52.138613 
L 399.460241 -52.241408 
L 401.823485 -52.388741 
L 404.186728 -52.310746 
L 406.549972 -52.362889 
L 408.913215 -52.569056 
L 411.276458 -52.648421 
L 413.639702 -52.762364 
L 416.002945 -53.045016 
L 418.366188 -53.152108 
L 420.729432 -53.085793 
L 423.092675 -53.118449 
L 425.455919 -53.329326 
L 427.819162 -53.49767 
L 430.182405 -53.697337 
L 432.545649 -53.626594 
L 434.908892 -53.730495 
L 437.272135 -53.957597 
L 439.635379 -53.966284 
L 441.998622 -53.999657 
L 444.361866 -54.18865 
L 446.725109 -54.047295 
L 449.088352 -54.296786 
L 451.451596 -54.467316 
L 453.814839 -54.467037 
L 456.178082 -54.739398 
L 458.541326 -54.742882 
L 460.904569 -54.744909 
L 463.267813 -55.022959 
L 465.631056 -55.146925 
L 467.994299 -54.976695 
L 470.357543 -55.193375 
L 472.720786 -55.232294 
L 475.084029 -55.333472 
L 477.447273 -55.407385 
L 479.810516 -55.706647 
L 482.173759 -55.830801 
L 484.537003 -55.663814 
L 484.537003 -55.980552 
L 484.537003 -55.980552 
L 482.173759 -55.854344 
L 479.810516 -55.747424 
L 477.447273 -56.019501 
L 475.084029 -55.780787 
L 472.720786 -55.664485 
L 470.357543 -55.41796 
L 467.994299 -55.566679 
L 465.631056 -55.586743 
L 463.267813 -55.493229 
L 460.904569 -55.254764 
L 458.541326 -55.202421 
L 456.178082 -55.165128 
L 453.814839 -55.07049 
L 451.451596 -54.852731 
L 449.088352 -54.710633 
L 446.725109 -54.525164 
L 444.361866 -54.343031 
L 441.998622 -54.491247 
L 439.635379 -54.144029 
L 437.272135 -54.343012 
L 434.908892 -54.203116 
L 432.545649 -53.858465 
L 430.182405 -54.005201 
L 427.819162 -53.973796 
L 425.455919 -53.530477 
L 423.092675 -53.510281 
L 420.729432 -53.434197 
L 418.366188 -53.367882 
L 416.002945 -53.393419 
L 413.639702 -53.13237 
L 411.276458 -53.164758 
L 408.913215 -52.931495 
L 406.549972 -53.056107 
L 404.186728 -52.578142 
L 401.823485 -52.45937 
L 399.460241 -52.620296 
L 397.096998 -52.464833 
L 394.733755 -52.296855 
L 392.370511 -52.242509 
L 390.007268 -52.097665 
L 387.644025 -51.987079 
L 385.280781 -51.891526 
L 382.917538 -51.872707 
L 380.554295 -51.490132 
L 378.191051 -51.579605 
L 375.827808 -51.571256 
L 373.464564 -51.562884 
L 371.101321 -51.187622 
L 368.738078 -51.139563 
L 366.374834 -51.087622 
L 364.011591 -50.810099 
L 361.648348 -50.656176 
L 359.285104 -50.493066 
L 356.921861 -50.168544 
L 354.558617 -50.082383 
L 352.195374 -49.817846 
L 349.832131 -49.627527 
L 347.468887 -49.325362 
L 345.105644 -49.221112 
L 342.742401 -48.891336 
z
" style="stroke: #191970; stroke-opacity: 0.2"/>
    </defs>
    <g clip-path="url(#p277cc0696f)">
     <use xlink:href="#mc15e1613c8" x="0" y="250.56" style="fill: #191970; fill-opacity: 0.2; stroke: #191970; stroke-opacity: 0.2"/>
    </g>
   </g>
   <g id="matplotlib.axis_3">
    <g id="xtick_4">
     <g id="line2d_16">
      <g>
       <use xlink:href="#m9ac129a319" x="342.742401" y="205.068125" style="stroke: #000000; stroke-width: 0.8"/>
      </g>
     </g>
     <g id="text_16">
      <!-- 0 -->
      <g transform="translate(339.561151 219.666562)scale(0.1 -0.1)">
       <use xlink:href="#DejaVuSans-30"/>
      </g>
     </g>
    </g>
    <g id="xtick_5">
     <g id="line2d_17">
      <g>
       <use xlink:href="#m9ac129a319" x="401.823485" y="205.068125" style="stroke: #000000; stroke-width: 0.8"/>
      </g>
     </g>
     <g id="text_17">
      <!-- 100 -->
      <g transform="translate(392.279735 219.666562)scale(0.1 -0.1)">
       <use xlink:href="#DejaVuSans-31"/>
       <use xlink:href="#DejaVuSans-30" x="63.623047"/>
       <use xlink:href="#DejaVuSans-30" x="127.246094"/>
      </g>
     </g>
    </g>
    <g id="xtick_6">
     <g id="line2d_18">
      <g>
       <use xlink:href="#m9ac129a319" x="460.904569" y="205.068125" style="stroke: #000000; stroke-width: 0.8"/>
      </g>
     </g>
     <g id="text_18">
      <!-- 200 -->
      <g transform="translate(451.360819 219.666562)scale(0.1 -0.1)">
       <use xlink:href="#DejaVuSans-32"/>
       <use xlink:href="#DejaVuSans-30" x="63.623047"/>
       <use xlink:href="#DejaVuSans-30" x="127.246094"/>
      </g>
     </g>
    </g>
    <g id="text_19">
     <!-- Time (min) -->
     <g transform="translate(381.056889 240.864375)scale(0.12 -0.12)">
      <use xlink:href="#DejaVuSans-54"/>
      <use xlink:href="#DejaVuSans-69" x="57.958984"/>
      <use xlink:href="#DejaVuSans-6d" x="85.742188"/>
      <use xlink:href="#DejaVuSans-65" x="183.154297"/>
      <use xlink:href="#DejaVuSans-20" x="244.677734"/>
      <use xlink:href="#DejaVuSans-28" x="276.464844"/>
      <use xlink:href="#DejaVuSans-6d" x="315.478516"/>
      <use xlink:href="#DejaVuSans-69" x="412.890625"/>
      <use xlink:href="#DejaVuSans-6e" x="440.673828"/>
      <use xlink:href="#DejaVuSans-29" x="504.052734"/>
     </g>
    </g>
   </g>
   <g id="matplotlib.axis_4">
    <g id="ytick_7">
     <g id="line2d_19">
      <g>
       <use xlink:href="#m814644282f" x="335.65267" y="205.068125" style="stroke: #000000; stroke-width: 0.8"/>
      </g>
     </g>
     <g id="text_20">
      <!-- 0.0 -->
      <g transform="translate(312.749545 208.867344)scale(0.1 -0.1)">
       <use xlink:href="#DejaVuSans-30"/>
       <use xlink:href="#DejaVuSans-2e" x="63.623047"/>
       <use xlink:href="#DejaVuSans-30" x="95.410156"/>
      </g>
     </g>
    </g>
    <g id="ytick_8">
     <g id="line2d_20">
      <g>
       <use xlink:href="#m814644282f" x="335.65267" y="173.873312" style="stroke: #000000; stroke-width: 0.8"/>
      </g>
     </g>
     <g id="text_21">
      <!-- 0.2 -->
      <g transform="translate(312.749545 177.672531)scale(0.1 -0.1)">
       <use xlink:href="#DejaVuSans-30"/>
       <use xlink:href="#DejaVuSans-2e" x="63.623047"/>
       <use xlink:href="#DejaVuSans-32" x="95.410156"/>
      </g>
     </g>
    </g>
    <g id="ytick_9">
     <g id="line2d_21">
      <g>
       <use xlink:href="#m814644282f" x="335.65267" y="142.6785" style="stroke: #000000; stroke-width: 0.8"/>
      </g>
     </g>
     <g id="text_22">
      <!-- 0.4 -->
      <g transform="translate(312.749545 146.477719)scale(0.1 -0.1)">
       <use xlink:href="#DejaVuSans-30"/>
       <use xlink:href="#DejaVuSans-2e" x="63.623047"/>
       <use xlink:href="#DejaVuSans-34" x="95.410156"/>
      </g>
     </g>
    </g>
    <g id="ytick_10">
     <g id="line2d_22">
      <g>
       <use xlink:href="#m814644282f" x="335.65267" y="111.483687" style="stroke: #000000; stroke-width: 0.8"/>
      </g>
     </g>
     <g id="text_23">
      <!-- 0.6 -->
      <g transform="translate(312.749545 115.282906)scale(0.1 -0.1)">
       <use xlink:href="#DejaVuSans-30"/>
       <use xlink:href="#DejaVuSans-2e" x="63.623047"/>
       <use xlink:href="#DejaVuSans-36" x="95.410156"/>
      </g>
     </g>
    </g>
    <g id="ytick_11">
     <g id="line2d_23">
      <g>
       <use xlink:href="#m814644282f" x="335.65267" y="80.288875" style="stroke: #000000; stroke-width: 0.8"/>
      </g>
     </g>
     <g id="text_24">
      <!-- 0.8 -->
      <g transform="translate(312.749545 84.088094)scale(0.1 -0.1)">
       <use xlink:href="#DejaVuSans-30"/>
       <use xlink:href="#DejaVuSans-2e" x="63.623047"/>
       <use xlink:href="#DejaVuSans-38" x="95.410156"/>
      </g>
     </g>
    </g>
    <g id="ytick_12">
     <g id="line2d_24">
      <g>
       <use xlink:href="#m814644282f" x="335.65267" y="49.094062" style="stroke: #000000; stroke-width: 0.8"/>
      </g>
     </g>
     <g id="text_25">
      <!-- 1.0 -->
      <g transform="translate(312.749545 52.893281)scale(0.1 -0.1)">
       <use xlink:href="#DejaVuSans-31"/>
       <use xlink:href="#DejaVuSans-2e" x="63.623047"/>
       <use xlink:href="#DejaVuSans-30" x="95.410156"/>
      </g>
     </g>
    </g>
    <g id="text_26">
     <!-- Normalized exp output -->
     <g transform="translate(300.25392 195.658281)rotate(-90)scale(0.12 -0.12)">
      <use xlink:href="#DejaVuSans-4e"/>
      <use xlink:href="#DejaVuSans-6f" x="74.804688"/>
      <use xlink:href="#DejaVuSans-72" x="135.986328"/>
      <use xlink:href="#DejaVuSans-6d" x="175.349609"/>
      <use xlink:href="#DejaVuSans-61" x="272.761719"/>
      <use xlink:href="#DejaVuSans-6c" x="334.041016"/>
      <use xlink:href="#DejaVuSans-69" x="361.824219"/>
      <use xlink:href="#DejaVuSans-7a" x="389.607422"/>
      <use xlink:href="#DejaVuSans-65" x="442.097656"/>
      <use xlink:href="#DejaVuSans-64" x="503.621094"/>
      <use xlink:href="#DejaVuSans-20" x="567.097656"/>
      <use xlink:href="#DejaVuSans-65" x="598.884766"/>
      <use xlink:href="#DejaVuSans-78" x="658.658203"/>
      <use xlink:href="#DejaVuSans-70" x="717.837891"/>
      <use xlink:href="#DejaVuSans-20" x="781.314453"/>
      <use xlink:href="#DejaVuSans-6f" x="813.101562"/>
      <use xlink:href="#DejaVuSans-75" x="874.283203"/>
      <use xlink:href="#DejaVuSans-74" x="937.662109"/>
      <use xlink:href="#DejaVuSans-70" x="976.871094"/>
      <use xlink:href="#DejaVuSans-75" x="1040.347656"/>
      <use xlink:href="#DejaVuSans-74" x="1103.726562"/>
     </g>
    </g>
   </g>
   <g id="line2d_25">
    <path d="M 342.742401 202.145735 
L 345.105644 201.669997 
L 347.468887 201.221444 
L 349.832131 200.969983 
L 352.195374 200.677744 
L 354.558617 200.460264 
L 356.921861 200.215599 
L 359.285104 200.100062 
L 361.648348 200.004915 
L 364.011591 199.801027 
L 366.374834 199.678694 
L 368.738078 199.454418 
L 371.101321 199.352474 
L 373.464564 199.209753 
L 375.827808 199.026254 
L 378.191051 198.917514 
L 380.554295 198.727219 
L 382.917538 198.70683 
L 385.280781 198.43498 
L 387.644025 198.346628 
L 390.007268 197.938853 
L 392.370511 197.748558 
L 394.733755 197.374764 
L 397.096998 197.157284 
L 399.460241 196.701935 
L 401.823485 196.396103 
L 404.186728 196.137845 
L 406.549972 195.736866 
L 408.913215 195.553367 
L 411.276458 195.145592 
L 413.639702 194.928112 
L 416.002945 194.724224 
L 418.366188 194.51354 
L 420.729432 194.316449 
L 423.092675 194.112561 
L 425.455919 193.759156 
L 427.819162 193.799933 
L 430.182405 193.568861 
L 432.545649 193.473713 
L 434.908892 193.392158 
L 437.272135 193.310603 
L 439.635379 193.011568 
L 441.998622 192.963994 
L 444.361866 192.821273 
L 446.725109 192.461071 
L 449.088352 192.739718 
L 451.451596 192.515441 
L 453.814839 192.331942 
L 456.178082 192.31835 
L 458.541326 192.202813 
L 460.904569 192.032907 
L 463.267813 192.005722 
L 465.631056 192.087277 
L 467.994299 191.937759 
L 470.357543 191.801834 
L 472.720786 191.727076 
L 475.084029 191.679502 
L 477.447273 191.563965 
L 479.810516 191.462022 
L 482.173759 191.462022 
L 484.537003 191.455225 
" clip-path="url(#p277cc0696f)" style="fill: none; stroke: #b0c4de; stroke-width: 2; stroke-linecap: square"/>
   </g>
   <g id="line2d_26">
    <path d="M 342.742401 201.799126 
L 345.105644 201.418536 
L 347.468887 201.228241 
L 349.832131 201.051538 
L 352.195374 200.834058 
L 354.558617 200.636966 
L 356.921861 200.392301 
L 359.285104 200.30395 
L 361.648348 200.256376 
L 364.011591 200.059285 
L 366.374834 199.86899 
L 368.738078 199.692287 
L 371.101321 199.597139 
L 373.464564 199.501992 
L 375.827808 199.386455 
L 378.191051 199.264123 
L 380.554295 199.039846 
L 382.917538 198.992273 
L 385.280781 198.863144 
L 387.644025 198.835959 
L 390.007268 198.700034 
L 392.370511 198.611682 
L 394.733755 198.502942 
L 397.096998 198.394202 
L 399.460241 198.305851 
L 401.823485 198.176722 
L 404.186728 198.088371 
L 406.549972 197.918464 
L 408.913215 197.823317 
L 411.276458 198.074778 
L 413.639702 197.836909 
L 416.002945 197.775743 
L 418.366188 197.633022 
L 420.729432 197.639818 
L 423.092675 197.503893 
L 425.455919 197.401949 
L 427.819162 197.102914 
L 430.182405 197.157284 
L 432.545649 197.062136 
L 434.908892 196.89223 
L 437.272135 196.966989 
L 439.635379 196.640768 
L 441.998622 196.572806 
L 444.361866 196.464066 
L 446.725109 196.348529 
L 449.088352 196.464066 
L 451.451596 196.287363 
L 453.814839 196.321344 
L 456.178082 196.294159 
L 458.541326 196.00192 
L 460.904569 195.865995 
L 463.267813 195.879588 
L 465.631056 195.798033 
L 467.994299 195.634922 
L 470.357543 195.682496 
L 472.720786 195.580552 
L 475.084029 195.40385 
L 477.447273 195.356276 
L 479.810516 195.437831 
L 482.173759 195.315498 
L 484.537003 195.261128 
" clip-path="url(#p277cc0696f)" style="fill: none; stroke: #4169e1; stroke-width: 2; stroke-linecap: square"/>
   </g>
   <g id="line2d_27">
    <path d="M 342.742401 201.703979 
L 345.105644 201.568053 
L 347.468887 201.350573 
L 349.832131 201.065131 
L 352.195374 200.854447 
L 354.558617 200.68454 
L 356.921861 200.473856 
L 359.285104 200.174821 
L 361.648348 200.011711 
L 364.011591 199.862193 
L 366.374834 199.692287 
L 368.738078 199.440825 
L 371.101321 199.515584 
L 373.464564 199.128198 
L 375.827808 199.121401 
L 378.191051 199.073828 
L 380.554295 199.101013 
L 382.917538 198.876736 
L 385.280781 198.734015 
L 387.644025 198.686441 
L 390.007268 198.59809 
L 392.370511 198.448572 
L 394.733755 198.407795 
L 397.096998 198.258277 
L 399.460241 198.129148 
L 401.823485 198.135944 
L 404.186728 198.115556 
L 406.549972 197.850502 
L 408.913215 197.809724 
L 411.276458 197.65341 
L 413.639702 197.612633 
L 416.002945 197.340783 
L 418.366188 197.300005 
L 420.729432 197.300005 
L 423.092675 197.245635 
L 425.455919 197.130099 
L 427.819162 196.824267 
L 430.182405 196.708731 
L 432.545649 196.817471 
L 434.908892 196.593194 
L 437.272135 196.409696 
L 439.635379 196.504843 
L 441.998622 196.314548 
L 444.361866 196.294159 
L 446.725109 196.27377 
L 449.088352 196.05629 
L 451.451596 195.899976 
L 453.814839 195.791236 
L 456.178082 195.607737 
L 458.541326 195.587349 
L 460.904569 195.560164 
L 463.267813 195.301906 
L 465.631056 195.193166 
L 467.994299 195.288313 
L 470.357543 195.254332 
L 472.720786 195.111611 
L 475.084029 195.002871 
L 477.447273 194.846557 
L 479.810516 194.832964 
L 482.173759 194.717428 
L 484.537003 194.737817 
" clip-path="url(#p277cc0696f)" style="fill: none; stroke: #191970; stroke-width: 2; stroke-linecap: square"/>
   </g>
   <g id="patch_7">
    <path d="M 335.65267 205.068125 
L 335.65267 49.094062 
" style="fill: none; stroke: #000000; stroke-width: 0.8; stroke-linejoin: miter; stroke-linecap: square"/>
   </g>
   <g id="patch_8">
    <path d="M 335.65267 205.068125 
L 491.626733 205.068125 
" style="fill: none; stroke: #000000; stroke-width: 0.8; stroke-linejoin: miter; stroke-linecap: square"/>
   </g>
   <g id="text_27">
    <!-- vRNA = 1fM -->
    <g transform="translate(380.175639 43.094062)scale(0.1 -0.1)">
     <defs>
      <path id="DejaVuSans-Bold-31" d="M 750 831 
L 1813 831 
L 1813 3847 
L 722 3622 
L 722 4441 
L 1806 4666 
L 2950 4666 
L 2950 831 
L 4013 831 
L 4013 0 
L 750 0 
L 750 831 
z
" transform="scale(0.015625)"/>
     </defs>
     <use xlink:href="#DejaVuSans-Bold-76"/>
     <use xlink:href="#DejaVuSans-Bold-52" x="65.185547"/>
     <use xlink:href="#DejaVuSans-Bold-4e" x="142.1875"/>
     <use xlink:href="#DejaVuSans-Bold-41" x="225.878906"/>
     <use xlink:href="#DejaVuSans-Bold-20" x="303.271484"/>
     <use xlink:href="#DejaVuSans-Bold-3d" x="338.085938"/>
     <use xlink:href="#DejaVuSans-Bold-20" x="421.875"/>
     <use xlink:href="#DejaVuSans-Bold-31" x="456.689453"/>
     <use xlink:href="#DejaVuSans-Bold-66" x="526.269531"/>
     <use xlink:href="#DejaVuSans-Bold-4d" x="569.775391"/>
    </g>
   </g>
   <g id="legend_2">
    <g id="patch_9">
     <path d="M 414.851733 101.128437 
L 484.626733 101.128437 
Q 486.626733 101.128437 486.626733 99.128437 
L 486.626733 56.094062 
Q 486.626733 54.094062 484.626733 54.094062 
L 414.851733 54.094062 
Q 412.851733 54.094062 412.851733 56.094062 
L 412.851733 99.128437 
Q 412.851733 101.128437 414.851733 101.128437 
z
" style="fill: #ffffff; opacity: 0.8; stroke: #cccccc; stroke-linejoin: miter"/>
    </g>
    <g id="line2d_28">
     <path d="M 416.851733 62.1925 
L 426.851733 62.1925 
L 436.851733 62.1925 
" style="fill: none; stroke: #b0c4de; stroke-width: 2; stroke-linecap: square"/>
    </g>
    <g id="text_28">
     <!-- RT 0.5 -->
     <g transform="translate(444.851733 65.6925)scale(0.1 -0.1)">
      <use xlink:href="#DejaVuSans-52"/>
      <use xlink:href="#DejaVuSans-54" x="62.232422"/>
      <use xlink:href="#DejaVuSans-20" x="123.316406"/>
      <use xlink:href="#DejaVuSans-30" x="155.103516"/>
      <use xlink:href="#DejaVuSans-2e" x="218.726562"/>
      <use xlink:href="#DejaVuSans-35" x="250.513672"/>
     </g>
    </g>
    <g id="line2d_29">
     <path d="M 416.851733 76.870625 
L 426.851733 76.870625 
L 436.851733 76.870625 
" style="fill: none; stroke: #4169e1; stroke-width: 2; stroke-linecap: square"/>
    </g>
    <g id="text_29">
     <!-- RT 2.5 -->
     <g transform="translate(444.851733 80.370625)scale(0.1 -0.1)">
      <use xlink:href="#DejaVuSans-52"/>
      <use xlink:href="#DejaVuSans-54" x="62.232422"/>
      <use xlink:href="#DejaVuSans-20" x="123.316406"/>
      <use xlink:href="#DejaVuSans-32" x="155.103516"/>
      <use xlink:href="#DejaVuSans-2e" x="218.726562"/>
      <use xlink:href="#DejaVuSans-35" x="250.513672"/>
     </g>
    </g>
    <g id="line2d_30">
     <path d="M 416.851733 91.54875 
L 426.851733 91.54875 
L 436.851733 91.54875 
" style="fill: none; stroke: #191970; stroke-width: 2; stroke-linecap: square"/>
    </g>
    <g id="text_30">
     <!-- RT 10.0 -->
     <g transform="translate(444.851733 95.04875)scale(0.1 -0.1)">
      <use xlink:href="#DejaVuSans-52"/>
      <use xlink:href="#DejaVuSans-54" x="62.232422"/>
      <use xlink:href="#DejaVuSans-20" x="123.316406"/>
      <use xlink:href="#DejaVuSans-31" x="155.103516"/>
      <use xlink:href="#DejaVuSans-30" x="218.726562"/>
      <use xlink:href="#DejaVuSans-2e" x="282.349609"/>
      <use xlink:href="#DejaVuSans-30" x="314.136719"/>
     </g>
    </g>
   </g>
  </g>
  <g id="axes_3">
   <g id="patch_10">
    <path d="M 619.588466 205.068125 
L 775.562528 205.068125 
L 775.562528 49.094062 
L 619.588466 49.094062 
z
" style="fill: #ffffff"/>
   </g>
   <g id="PolyCollection_7">
    <defs>
     <path id="m865b1909fb" d="M 626.678196 -48.602854 
L 626.678196 -48.171305 
L 629.041439 -48.810269 
L 631.404683 -48.983485 
L 633.767926 -49.063647 
L 636.13117 -49.332378 
L 638.494413 -49.456879 
L 640.857656 -49.664277 
L 643.2209 -49.564804 
L 645.584143 -49.874828 
L 647.947386 -49.987151 
L 650.31063 -50.344401 
L 652.673873 -50.406078 
L 655.037116 -50.531244 
L 657.40036 -50.522341 
L 659.763603 -50.71069 
L 662.126847 -50.899113 
L 664.49009 -50.915695 
L 666.853333 -51.174917 
L 669.216577 -51.154595 
L 671.57982 -51.298378 
L 673.943063 -51.47768 
L 676.306307 -51.705963 
L 678.66955 -51.738288 
L 681.032794 -51.955114 
L 683.396037 -52.22939 
L 685.75928 -52.459116 
L 688.122524 -52.43464 
L 690.485767 -52.876894 
L 692.84901 -52.994411 
L 695.212254 -53.027953 
L 697.575497 -53.188894 
L 699.938741 -53.291337 
L 702.301984 -53.496662 
L 704.665227 -53.509586 
L 707.028471 -53.788906 
L 709.391714 -53.979356 
L 711.754957 -53.841415 
L 714.118201 -54.344465 
L 716.481444 -54.1322 
L 718.844687 -54.159512 
L 721.207931 -54.204557 
L 723.571174 -54.581367 
L 725.934418 -54.489955 
L 728.297661 -54.741477 
L 730.660904 -54.48669 
L 733.024148 -54.802128 
L 735.387391 -54.857822 
L 737.750634 -54.882682 
L 740.113878 -54.871371 
L 742.477121 -55.072977 
L 744.840365 -55.15128 
L 747.203608 -55.148885 
L 749.566851 -55.638583 
L 751.930095 -55.407431 
L 754.293338 -55.603555 
L 756.656581 -55.655387 
L 759.019825 -55.661913 
L 761.383068 -55.752391 
L 763.746312 -55.958539 
L 766.109555 -56.066701 
L 768.472798 -55.982267 
L 768.472798 -57.13009 
L 768.472798 -57.13009 
L 766.109555 -57.004879 
L 763.746312 -57.031486 
L 761.383068 -56.789082 
L 759.019825 -56.634894 
L 756.656581 -56.736568 
L 754.293338 -56.530142 
L 751.930095 -56.685488 
L 749.566851 -56.549484 
L 747.203608 -56.332371 
L 744.840365 -56.180459 
L 742.477121 -56.245169 
L 740.113878 -55.98463 
L 737.750634 -56.054874 
L 735.387391 -55.903032 
L 733.024148 -55.700468 
L 730.660904 -55.689685 
L 728.297661 -55.652378 
L 725.934418 -55.346607 
L 723.571174 -55.39112 
L 721.207931 -55.38734 
L 718.844687 -55.038202 
L 716.481444 -55.242218 
L 714.118201 -54.96199 
L 711.754957 -54.690267 
L 709.391714 -54.334846 
L 707.028471 -54.484518 
L 704.665227 -54.301692 
L 702.301984 -53.920434 
L 699.938741 -53.853909 
L 697.575497 -53.766056 
L 695.212254 -53.600777 
L 692.84901 -53.430432 
L 690.485767 -53.357654 
L 688.122524 -53.174652 
L 685.75928 -53.01425 
L 683.396037 -52.931348 
L 681.032794 -52.811442 
L 678.66955 -52.797196 
L 676.306307 -52.5033 
L 673.943063 -52.541288 
L 671.57982 -52.367185 
L 669.216577 -52.211932 
L 666.853333 -52.014908 
L 664.49009 -51.934317 
L 662.126847 -51.760604 
L 659.763603 -51.622807 
L 657.40036 -51.416972 
L 655.037116 -51.163405 
L 652.673873 -51.220608 
L 650.31063 -50.833732 
L 647.947386 -50.891947 
L 645.584143 -50.460569 
L 643.2209 -50.335633 
L 640.857656 -50.12742 
L 638.494413 -49.96782 
L 636.13117 -49.779693 
L 633.767926 -49.504724 
L 631.404683 -49.06837 
L 629.041439 -48.833812 
L 626.678196 -48.602854 
z
" style="stroke: #b0c4de; stroke-opacity: 0.2"/>
    </defs>
    <g clip-path="url(#pec285ecf9c)">
     <use xlink:href="#m865b1909fb" x="0" y="250.56" style="fill: #b0c4de; fill-opacity: 0.2; stroke: #b0c4de; stroke-opacity: 0.2"/>
    </g>
   </g>
   <g id="PolyCollection_8">
    <defs>
     <path id="m5a64b3cb87" d="M 626.678196 -48.401237 
L 626.678196 -48.155442 
L 629.041439 -48.578621 
L 631.404683 -48.612741 
L 633.767926 -48.864064 
L 636.13117 -49.081149 
L 638.494413 -49.224195 
L 640.857656 -49.504683 
L 643.2209 -49.578441 
L 645.584143 -49.919074 
L 647.947386 -49.894161 
L 650.31063 -49.991588 
L 652.673873 -50.216125 
L 655.037116 -50.511154 
L 657.40036 -50.653442 
L 659.763603 -50.792954 
L 662.126847 -50.928358 
L 664.49009 -50.97051 
L 666.853333 -51.201218 
L 669.216577 -51.045267 
L 671.57982 -51.108998 
L 673.943063 -51.280106 
L 676.306307 -51.291676 
L 678.66955 -51.519589 
L 681.032794 -51.657325 
L 683.396037 -51.658306 
L 685.75928 -51.784686 
L 688.122524 -52.14145 
L 690.485767 -51.90763 
L 692.84901 -52.204885 
L 695.212254 -52.273861 
L 697.575497 -52.286626 
L 699.938741 -52.282719 
L 702.301984 -52.586767 
L 704.665227 -52.620723 
L 707.028471 -52.657554 
L 709.391714 -52.862954 
L 711.754957 -52.948736 
L 714.118201 -53.066753 
L 716.481444 -53.181725 
L 718.844687 -53.219217 
L 721.207931 -53.272083 
L 723.571174 -53.359176 
L 725.934418 -53.609441 
L 728.297661 -53.677238 
L 730.660904 -53.903207 
L 733.024148 -53.83088 
L 735.387391 -53.943087 
L 737.750634 -54.171546 
L 740.113878 -54.247874 
L 742.477121 -54.323509 
L 744.840365 -54.394124 
L 747.203608 -54.514619 
L 749.566851 -54.516818 
L 751.930095 -54.781511 
L 754.293338 -54.754747 
L 756.656581 -54.783209 
L 759.019825 -54.891584 
L 761.383068 -54.883876 
L 763.746312 -55.050839 
L 766.109555 -54.989673 
L 768.472798 -55.217317 
L 768.472798 -55.421204 
L 768.472798 -55.421204 
L 766.109555 -55.363405 
L 763.746312 -55.424571 
L 761.383068 -55.210945 
L 759.019825 -54.985756 
L 756.656581 -54.998983 
L 754.293338 -55.081816 
L 751.930095 -54.946311 
L 749.566851 -54.80323 
L 747.203608 -54.723873 
L 744.840365 -54.558925 
L 742.477121 -54.670318 
L 740.113878 -54.378955 
L 737.750634 -54.387321 
L 735.387391 -54.112857 
L 733.024148 -54.197878 
L 730.660904 -54.057589 
L 728.297661 -54.106856 
L 725.934418 -53.67173 
L 723.571174 -53.813255 
L 721.207931 -53.642089 
L 718.844687 -53.423105 
L 716.481444 -53.487783 
L 714.118201 -53.398867 
L 711.754957 -53.149886 
L 709.391714 -53.140521 
L 707.028471 -53.074071 
L 704.665227 -52.947791 
L 702.301984 -52.818637 
L 699.938741 -52.71491 
L 697.575497 -52.656632 
L 695.212254 -52.479103 
L 692.84901 -52.534486 
L 690.485767 -52.423966 
L 688.122524 -52.203738 
L 685.75928 -51.962431 
L 683.396037 -51.925702 
L 681.032794 -51.80435 
L 678.66955 -51.765384 
L 676.306307 -51.680669 
L 673.943063 -51.515536 
L 671.57982 -51.768199 
L 669.216577 -51.424155 
L 666.853333 -51.295389 
L 664.49009 -51.186284 
L 662.126847 -51.106103 
L 659.763603 -50.956064 
L 657.40036 -50.837318 
L 655.037116 -50.558239 
L 652.673873 -50.4319 
L 650.31063 -50.303032 
L 647.947386 -50.142201 
L 645.584143 -49.981363 
L 643.2209 -49.805481 
L 640.857656 -49.838461 
L 638.494413 -49.616027 
L 636.13117 -49.460037 
L 633.767926 -49.011089 
L 631.404683 -49.044932 
L 629.041439 -48.725647 
L 626.678196 -48.401237 
z
" style="stroke: #4169e1; stroke-opacity: 0.2"/>
    </defs>
    <g clip-path="url(#pec285ecf9c)">
     <use xlink:href="#m5a64b3cb87" x="0" y="250.56" style="fill: #4169e1; fill-opacity: 0.2; stroke: #4169e1; stroke-opacity: 0.2"/>
    </g>
   </g>
   <g id="PolyCollection_9">
    <defs>
     <path id="m590c1555fe" d="M 626.678196 -48.703909 
L 626.678196 -48.314916 
L 629.041439 -48.535752 
L 631.404683 -48.579602 
L 633.767926 -48.607748 
L 636.13117 -48.805501 
L 638.494413 -48.837664 
L 640.857656 -49.064731 
L 643.2209 -49.105125 
L 645.584143 -49.232841 
L 647.947386 -49.413022 
L 650.31063 -49.567416 
L 652.673873 -49.681303 
L 655.037116 -49.698173 
L 657.40036 -50.164233 
L 659.763603 -50.177673 
L 662.126847 -50.177842 
L 664.49009 -50.479902 
L 666.853333 -50.536117 
L 669.216577 -50.670622 
L 671.57982 -50.609272 
L 673.943063 -50.627138 
L 676.306307 -50.638154 
L 678.66955 -50.813343 
L 681.032794 -50.846194 
L 683.396037 -51.133099 
L 685.75928 -51.089537 
L 688.122524 -51.176966 
L 690.485767 -51.180341 
L 692.84901 -51.170693 
L 695.212254 -51.445936 
L 697.575497 -51.509904 
L 699.938741 -51.540874 
L 702.301984 -51.782755 
L 704.665227 -51.590245 
L 707.028471 -51.676677 
L 709.391714 -52.103322 
L 711.754957 -51.909774 
L 714.118201 -52.236497 
L 716.481444 -52.098345 
L 718.844687 -52.203994 
L 721.207931 -52.250338 
L 723.571174 -52.302695 
L 725.934418 -52.329258 
L 728.297661 -52.521437 
L 730.660904 -52.699132 
L 733.024148 -52.460263 
L 735.387391 -52.585944 
L 737.750634 -52.779235 
L 740.113878 -52.69978 
L 742.477121 -53.150677 
L 744.840365 -53.106215 
L 747.203608 -53.124778 
L 749.566851 -53.037235 
L 751.930095 -53.348904 
L 754.293338 -53.382506 
L 756.656581 -53.50976 
L 759.019825 -53.57233 
L 761.383068 -53.427339 
L 763.746312 -53.659617 
L 766.109555 -53.575759 
L 768.472798 -53.85016 
L 768.472798 -54.559189 
L 768.472798 -54.559189 
L 766.109555 -54.588925 
L 763.746312 -54.545844 
L 761.383068 -54.60142 
L 759.019825 -54.361281 
L 756.656581 -54.573369 
L 754.293338 -54.41518 
L 751.930095 -54.176932 
L 749.566851 -54.16238 
L 747.203608 -54.102022 
L 744.840365 -54.215733 
L 742.477121 -53.790681 
L 740.113878 -53.888173 
L 737.750634 -53.740755 
L 735.387391 -53.607826 
L 733.024148 -53.516026 
L 730.660904 -53.440267 
L 728.297661 -53.346112 
L 725.934418 -53.252849 
L 723.571174 -53.157079 
L 721.207931 -53.005548 
L 718.844687 -53.065485 
L 716.481444 -52.912876 
L 714.118201 -52.638799 
L 711.754957 -52.734449 
L 709.391714 -52.704012 
L 707.028471 -52.559771 
L 704.665227 -52.564648 
L 702.301984 -52.331361 
L 699.938741 -52.097504 
L 697.575497 -52.142066 
L 695.212254 -52.042924 
L 692.84901 -51.951169 
L 690.485767 -51.669671 
L 688.122524 -51.673046 
L 685.75928 -51.638143 
L 683.396037 -51.689728 
L 681.032794 -51.337785 
L 678.66955 -51.588116 
L 676.306307 -51.369123 
L 673.943063 -51.244214 
L 671.57982 -51.112562 
L 669.216577 -50.996842 
L 666.853333 -51.022607 
L 664.49009 -50.806971 
L 662.126847 -50.850774 
L 659.763603 -50.755795 
L 657.40036 -50.674088 
L 655.037116 -50.569261 
L 652.673873 -50.355059 
L 650.31063 -50.237873 
L 647.947386 -50.201973 
L 645.584143 -50.069526 
L 643.2209 -50.047724 
L 640.857656 -49.55801 
L 638.494413 -49.47245 
L 636.13117 -49.137615 
L 633.767926 -49.213035 
L 631.404683 -48.846998 
L 629.041439 -48.700553 
L 626.678196 -48.703909 
z
" style="stroke: #191970; stroke-opacity: 0.2"/>
    </defs>
    <g clip-path="url(#pec285ecf9c)">
     <use xlink:href="#m590c1555fe" x="0" y="250.56" style="fill: #191970; fill-opacity: 0.2; stroke: #191970; stroke-opacity: 0.2"/>
    </g>
   </g>
   <g id="matplotlib.axis_5">
    <g id="xtick_7">
     <g id="line2d_31">
      <g>
       <use xlink:href="#m9ac129a319" x="626.678196" y="205.068125" style="stroke: #000000; stroke-width: 0.8"/>
      </g>
     </g>
     <g id="text_31">
      <!-- 0 -->
      <g transform="translate(623.496946 219.666562)scale(0.1 -0.1)">
       <use xlink:href="#DejaVuSans-30"/>
      </g>
     </g>
    </g>
    <g id="xtick_8">
     <g id="line2d_32">
      <g>
       <use xlink:href="#m9ac129a319" x="685.75928" y="205.068125" style="stroke: #000000; stroke-width: 0.8"/>
      </g>
     </g>
     <g id="text_32">
      <!-- 100 -->
      <g transform="translate(676.21553 219.666562)scale(0.1 -0.1)">
       <use xlink:href="#DejaVuSans-31"/>
       <use xlink:href="#DejaVuSans-30" x="63.623047"/>
       <use xlink:href="#DejaVuSans-30" x="127.246094"/>
      </g>
     </g>
    </g>
    <g id="xtick_9">
     <g id="line2d_33">
      <g>
       <use xlink:href="#m9ac129a319" x="744.840365" y="205.068125" style="stroke: #000000; stroke-width: 0.8"/>
      </g>
     </g>
     <g id="text_33">
      <!-- 200 -->
      <g transform="translate(735.296615 219.666562)scale(0.1 -0.1)">
       <use xlink:href="#DejaVuSans-32"/>
       <use xlink:href="#DejaVuSans-30" x="63.623047"/>
       <use xlink:href="#DejaVuSans-30" x="127.246094"/>
      </g>
     </g>
    </g>
    <g id="text_34">
     <!-- Time (min) -->
     <g transform="translate(664.992685 240.864375)scale(0.12 -0.12)">
      <use xlink:href="#DejaVuSans-54"/>
      <use xlink:href="#DejaVuSans-69" x="57.958984"/>
      <use xlink:href="#DejaVuSans-6d" x="85.742188"/>
      <use xlink:href="#DejaVuSans-65" x="183.154297"/>
      <use xlink:href="#DejaVuSans-20" x="244.677734"/>
      <use xlink:href="#DejaVuSans-28" x="276.464844"/>
      <use xlink:href="#DejaVuSans-6d" x="315.478516"/>
      <use xlink:href="#DejaVuSans-69" x="412.890625"/>
      <use xlink:href="#DejaVuSans-6e" x="440.673828"/>
      <use xlink:href="#DejaVuSans-29" x="504.052734"/>
     </g>
    </g>
   </g>
   <g id="matplotlib.axis_6">
    <g id="ytick_13">
     <g id="line2d_34">
      <g>
       <use xlink:href="#m814644282f" x="619.588466" y="205.068125" style="stroke: #000000; stroke-width: 0.8"/>
      </g>
     </g>
     <g id="text_35">
      <!-- 0.0 -->
      <g transform="translate(596.685341 208.867344)scale(0.1 -0.1)">
       <use xlink:href="#DejaVuSans-30"/>
       <use xlink:href="#DejaVuSans-2e" x="63.623047"/>
       <use xlink:href="#DejaVuSans-30" x="95.410156"/>
      </g>
     </g>
    </g>
    <g id="ytick_14">
     <g id="line2d_35">
      <g>
       <use xlink:href="#m814644282f" x="619.588466" y="173.873312" style="stroke: #000000; stroke-width: 0.8"/>
      </g>
     </g>
     <g id="text_36">
      <!-- 0.2 -->
      <g transform="translate(596.685341 177.672531)scale(0.1 -0.1)">
       <use xlink:href="#DejaVuSans-30"/>
       <use xlink:href="#DejaVuSans-2e" x="63.623047"/>
       <use xlink:href="#DejaVuSans-32" x="95.410156"/>
      </g>
     </g>
    </g>
    <g id="ytick_15">
     <g id="line2d_36">
      <g>
       <use xlink:href="#m814644282f" x="619.588466" y="142.6785" style="stroke: #000000; stroke-width: 0.8"/>
      </g>
     </g>
     <g id="text_37">
      <!-- 0.4 -->
      <g transform="translate(596.685341 146.477719)scale(0.1 -0.1)">
       <use xlink:href="#DejaVuSans-30"/>
       <use xlink:href="#DejaVuSans-2e" x="63.623047"/>
       <use xlink:href="#DejaVuSans-34" x="95.410156"/>
      </g>
     </g>
    </g>
    <g id="ytick_16">
     <g id="line2d_37">
      <g>
       <use xlink:href="#m814644282f" x="619.588466" y="111.483687" style="stroke: #000000; stroke-width: 0.8"/>
      </g>
     </g>
     <g id="text_38">
      <!-- 0.6 -->
      <g transform="translate(596.685341 115.282906)scale(0.1 -0.1)">
       <use xlink:href="#DejaVuSans-30"/>
       <use xlink:href="#DejaVuSans-2e" x="63.623047"/>
       <use xlink:href="#DejaVuSans-36" x="95.410156"/>
      </g>
     </g>
    </g>
    <g id="ytick_17">
     <g id="line2d_38">
      <g>
       <use xlink:href="#m814644282f" x="619.588466" y="80.288875" style="stroke: #000000; stroke-width: 0.8"/>
      </g>
     </g>
     <g id="text_39">
      <!-- 0.8 -->
      <g transform="translate(596.685341 84.088094)scale(0.1 -0.1)">
       <use xlink:href="#DejaVuSans-30"/>
       <use xlink:href="#DejaVuSans-2e" x="63.623047"/>
       <use xlink:href="#DejaVuSans-38" x="95.410156"/>
      </g>
     </g>
    </g>
    <g id="ytick_18">
     <g id="line2d_39">
      <g>
       <use xlink:href="#m814644282f" x="619.588466" y="49.094062" style="stroke: #000000; stroke-width: 0.8"/>
      </g>
     </g>
     <g id="text_40">
      <!-- 1.0 -->
      <g transform="translate(596.685341 52.893281)scale(0.1 -0.1)">
       <use xlink:href="#DejaVuSans-31"/>
       <use xlink:href="#DejaVuSans-2e" x="63.623047"/>
       <use xlink:href="#DejaVuSans-30" x="95.410156"/>
      </g>
     </g>
    </g>
   </g>
   <g id="line2d_40">
    <path d="M 626.678196 202.17292 
L 629.041439 201.73796 
L 631.404683 201.534072 
L 633.767926 201.275814 
L 636.13117 201.003964 
L 638.494413 200.84765 
L 640.857656 200.664151 
L 643.2209 200.609781 
L 645.584143 200.392301 
L 647.947386 200.120451 
L 650.31063 199.970933 
L 652.673873 199.746657 
L 655.037116 199.712676 
L 657.40036 199.590343 
L 659.763603 199.393252 
L 662.126847 199.230142 
L 664.49009 199.134994 
L 666.853333 198.965088 
L 669.216577 198.876736 
L 671.57982 198.727219 
L 673.943063 198.550516 
L 676.306307 198.455368 
L 678.66955 198.292258 
L 681.032794 198.176722 
L 683.396037 197.979631 
L 685.75928 197.823317 
L 688.122524 197.755354 
L 690.485767 197.442726 
L 692.84901 197.347579 
L 695.212254 197.245635 
L 697.575497 197.082525 
L 699.938741 196.987377 
L 702.301984 196.851452 
L 704.665227 196.654361 
L 707.028471 196.423288 
L 709.391714 196.402899 
L 711.754957 196.294159 
L 714.118201 195.906773 
L 716.481444 195.872791 
L 718.844687 195.961143 
L 721.207931 195.764051 
L 723.571174 195.573756 
L 725.934418 195.641719 
L 728.297661 195.363072 
L 730.660904 195.471812 
L 733.024148 195.308702 
L 735.387391 195.179573 
L 737.750634 195.091222 
L 740.113878 195.132 
L 742.477121 194.900927 
L 744.840365 194.894131 
L 747.203608 194.819372 
L 749.566851 194.465967 
L 751.930095 194.51354 
L 754.293338 194.493152 
L 756.656581 194.364023 
L 759.019825 194.411596 
L 761.383068 194.289264 
L 763.746312 194.064987 
L 766.109555 194.02421 
L 768.472798 194.003821 
" clip-path="url(#pec285ecf9c)" style="fill: none; stroke: #b0c4de; stroke-width: 2; stroke-linecap: square"/>
   </g>
   <g id="line2d_41">
    <path d="M 626.678196 202.28166 
L 629.041439 201.907866 
L 631.404683 201.731164 
L 633.767926 201.622423 
L 636.13117 201.289407 
L 638.494413 201.139889 
L 640.857656 200.888428 
L 643.2209 200.868039 
L 645.584143 200.609781 
L 647.947386 200.541819 
L 650.31063 200.41269 
L 652.673873 200.235987 
L 655.037116 200.025303 
L 657.40036 199.81462 
L 659.763603 199.685491 
L 662.126847 199.542769 
L 664.49009 199.481603 
L 666.853333 199.311697 
L 669.216577 199.325289 
L 671.57982 199.121401 
L 673.943063 199.162179 
L 676.306307 199.073828 
L 678.66955 198.917514 
L 681.032794 198.829162 
L 683.396037 198.767996 
L 685.75928 198.686441 
L 688.122524 198.387406 
L 690.485767 198.394202 
L 692.84901 198.190314 
L 695.212254 198.183518 
L 697.575497 198.088371 
L 699.938741 198.061186 
L 702.301984 197.857298 
L 704.665227 197.775743 
L 707.028471 197.694188 
L 709.391714 197.558263 
L 711.754957 197.510689 
L 714.118201 197.32719 
L 716.481444 197.225246 
L 718.844687 197.238839 
L 721.207931 197.102914 
L 723.571174 196.973785 
L 725.934418 196.919415 
L 728.297661 196.667953 
L 730.660904 196.579602 
L 733.024148 196.545621 
L 735.387391 196.532028 
L 737.750634 196.280567 
L 740.113878 196.246585 
L 742.477121 196.063087 
L 744.840365 196.083475 
L 747.203608 195.940754 
L 749.566851 195.899976 
L 751.930095 195.696089 
L 754.293338 195.641719 
L 756.656581 195.668904 
L 759.019825 195.62133 
L 761.383068 195.51259 
L 763.746312 195.322295 
L 766.109555 195.383461 
L 768.472798 195.24074 
" clip-path="url(#pec285ecf9c)" style="fill: none; stroke: #4169e1; stroke-width: 2; stroke-linecap: square"/>
   </g>
   <g id="line2d_42">
    <path d="M 626.678196 202.050588 
L 629.041439 201.941847 
L 631.404683 201.8467 
L 633.767926 201.649609 
L 636.13117 201.588442 
L 638.494413 201.404943 
L 640.857656 201.248629 
L 643.2209 200.983575 
L 645.584143 200.908817 
L 647.947386 200.752503 
L 650.31063 200.657355 
L 652.673873 200.541819 
L 655.037116 200.426283 
L 657.40036 200.14084 
L 659.763603 200.093266 
L 662.126847 200.045692 
L 664.49009 199.916563 
L 666.853333 199.780638 
L 669.216577 199.726268 
L 671.57982 199.699083 
L 673.943063 199.624324 
L 676.306307 199.556362 
L 678.66955 199.35927 
L 681.032794 199.468011 
L 683.396037 199.148587 
L 685.75928 199.19616 
L 688.122524 199.134994 
L 690.485767 199.134994 
L 692.84901 198.999069 
L 695.212254 198.81557 
L 697.575497 198.734015 
L 699.938741 198.740811 
L 702.301984 198.502942 
L 704.665227 198.482553 
L 707.028471 198.441776 
L 709.391714 198.156333 
L 711.754957 198.237888 
L 714.118201 198.122352 
L 716.481444 198.054389 
L 718.844687 197.925261 
L 721.207931 197.932057 
L 723.571174 197.830113 
L 725.934418 197.768947 
L 728.297661 197.626225 
L 730.660904 197.4903 
L 733.024148 197.571855 
L 735.387391 197.463115 
L 737.750634 197.300005 
L 740.113878 197.266024 
L 742.477121 197.089321 
L 744.840365 196.899026 
L 747.203608 196.9466 
L 749.566851 196.960192 
L 751.930095 196.797082 
L 754.293338 196.661157 
L 756.656581 196.518436 
L 759.019825 196.593194 
L 761.383068 196.545621 
L 763.746312 196.457269 
L 766.109555 196.477658 
L 768.472798 196.355326 
" clip-path="url(#pec285ecf9c)" style="fill: none; stroke: #191970; stroke-width: 2; stroke-linecap: square"/>
   </g>
   <g id="patch_11">
    <path d="M 619.588466 205.068125 
L 619.588466 49.094062 
" style="fill: none; stroke: #000000; stroke-width: 0.8; stroke-linejoin: miter; stroke-linecap: square"/>
   </g>
   <g id="patch_12">
    <path d="M 619.588466 205.068125 
L 775.562528 205.068125 
" style="fill: none; stroke: #000000; stroke-width: 0.8; stroke-linejoin: miter; stroke-linecap: square"/>
   </g>
   <g id="text_41">
    <!-- vRNA = 10fM -->
    <g transform="translate(660.632528 43.094062)scale(0.1 -0.1)">
     <use xlink:href="#DejaVuSans-Bold-76"/>
     <use xlink:href="#DejaVuSans-Bold-52" x="65.185547"/>
     <use xlink:href="#DejaVuSans-Bold-4e" x="142.1875"/>
     <use xlink:href="#DejaVuSans-Bold-41" x="225.878906"/>
     <use xlink:href="#DejaVuSans-Bold-20" x="303.271484"/>
     <use xlink:href="#DejaVuSans-Bold-3d" x="338.085938"/>
     <use xlink:href="#DejaVuSans-Bold-20" x="421.875"/>
     <use xlink:href="#DejaVuSans-Bold-31" x="456.689453"/>
     <use xlink:href="#DejaVuSans-Bold-30" x="526.269531"/>
     <use xlink:href="#DejaVuSans-Bold-66" x="595.849609"/>
     <use xlink:href="#DejaVuSans-Bold-4d" x="639.355469"/>
    </g>
   </g>
   <g id="legend_3">
    <g id="patch_13">
     <path d="M 698.787528 101.128437 
L 768.562528 101.128437 
Q 770.562528 101.128437 770.562528 99.128437 
L 770.562528 56.094062 
Q 770.562528 54.094062 768.562528 54.094062 
L 698.787528 54.094062 
Q 696.787528 54.094062 696.787528 56.094062 
L 696.787528 99.128437 
Q 696.787528 101.128437 698.787528 101.128437 
z
" style="fill: #ffffff; opacity: 0.8; stroke: #cccccc; stroke-linejoin: miter"/>
    </g>
    <g id="line2d_43">
     <path d="M 700.787528 62.1925 
L 710.787528 62.1925 
L 720.787528 62.1925 
" style="fill: none; stroke: #b0c4de; stroke-width: 2; stroke-linecap: square"/>
    </g>
    <g id="text_42">
     <!-- RT 0.5 -->
     <g transform="translate(728.787528 65.6925)scale(0.1 -0.1)">
      <use xlink:href="#DejaVuSans-52"/>
      <use xlink:href="#DejaVuSans-54" x="62.232422"/>
      <use xlink:href="#DejaVuSans-20" x="123.316406"/>
      <use xlink:href="#DejaVuSans-30" x="155.103516"/>
      <use xlink:href="#DejaVuSans-2e" x="218.726562"/>
      <use xlink:href="#DejaVuSans-35" x="250.513672"/>
     </g>
    </g>
    <g id="line2d_44">
     <path d="M 700.787528 76.870625 
L 710.787528 76.870625 
L 720.787528 76.870625 
" style="fill: none; stroke: #4169e1; stroke-width: 2; stroke-linecap: square"/>
    </g>
    <g id="text_43">
     <!-- RT 2.5 -->
     <g transform="translate(728.787528 80.370625)scale(0.1 -0.1)">
      <use xlink:href="#DejaVuSans-52"/>
      <use xlink:href="#DejaVuSans-54" x="62.232422"/>
      <use xlink:href="#DejaVuSans-20" x="123.316406"/>
      <use xlink:href="#DejaVuSans-32" x="155.103516"/>
      <use xlink:href="#DejaVuSans-2e" x="218.726562"/>
      <use xlink:href="#DejaVuSans-35" x="250.513672"/>
     </g>
    </g>
    <g id="line2d_45">
     <path d="M 700.787528 91.54875 
L 710.787528 91.54875 
L 720.787528 91.54875 
" style="fill: none; stroke: #191970; stroke-width: 2; stroke-linecap: square"/>
    </g>
    <g id="text_44">
     <!-- RT 10.0 -->
     <g transform="translate(728.787528 95.04875)scale(0.1 -0.1)">
      <use xlink:href="#DejaVuSans-52"/>
      <use xlink:href="#DejaVuSans-54" x="62.232422"/>
      <use xlink:href="#DejaVuSans-20" x="123.316406"/>
      <use xlink:href="#DejaVuSans-31" x="155.103516"/>
      <use xlink:href="#DejaVuSans-30" x="218.726562"/>
      <use xlink:href="#DejaVuSans-2e" x="282.349609"/>
      <use xlink:href="#DejaVuSans-30" x="314.136719"/>
     </g>
    </g>
   </g>
  </g>
  <g id="text_45">
   <!-- RT_Sweep_Cas13=4.5 rep1 -->
   <g transform="translate(305.771577 16.10625)scale(0.12 -0.12)">
    <defs>
     <path id="DejaVuSans-Bold-54" d="M 31 4666 
L 4331 4666 
L 4331 3756 
L 2784 3756 
L 2784 0 
L 1581 0 
L 1581 3756 
L 31 3756 
L 31 4666 
z
" transform="scale(0.015625)"/>
     <path id="DejaVuSans-Bold-5f" d="M 3200 -916 
L 3200 -1509 
L 0 -1509 
L 0 -916 
L 3200 -916 
z
" transform="scale(0.015625)"/>
     <path id="DejaVuSans-Bold-53" d="M 3834 4519 
L 3834 3531 
Q 3450 3703 3084 3790 
Q 2719 3878 2394 3878 
Q 1963 3878 1756 3759 
Q 1550 3641 1550 3391 
Q 1550 3203 1689 3098 
Q 1828 2994 2194 2919 
L 2706 2816 
Q 3484 2659 3812 2340 
Q 4141 2022 4141 1434 
Q 4141 663 3683 286 
Q 3225 -91 2284 -91 
Q 1841 -91 1394 -6 
Q 947 78 500 244 
L 500 1259 
Q 947 1022 1364 901 
Q 1781 781 2169 781 
Q 2563 781 2772 912 
Q 2981 1044 2981 1288 
Q 2981 1506 2839 1625 
Q 2697 1744 2272 1838 
L 1806 1941 
Q 1106 2091 782 2419 
Q 459 2747 459 3303 
Q 459 4000 909 4375 
Q 1359 4750 2203 4750 
Q 2588 4750 2994 4692 
Q 3400 4634 3834 4519 
z
" transform="scale(0.015625)"/>
     <path id="DejaVuSans-Bold-77" d="M 225 3500 
L 1313 3500 
L 1900 1088 
L 2491 3500 
L 3425 3500 
L 4013 1113 
L 4603 3500 
L 5691 3500 
L 4769 0 
L 3547 0 
L 2956 2406 
L 2369 0 
L 1147 0 
L 225 3500 
z
" transform="scale(0.015625)"/>
     <path id="DejaVuSans-Bold-65" d="M 4031 1759 
L 4031 1441 
L 1416 1441 
Q 1456 1047 1700 850 
Q 1944 653 2381 653 
Q 2734 653 3104 758 
Q 3475 863 3866 1075 
L 3866 213 
Q 3469 63 3072 -14 
Q 2675 -91 2278 -91 
Q 1328 -91 801 392 
Q 275 875 275 1747 
Q 275 2603 792 3093 
Q 1309 3584 2216 3584 
Q 3041 3584 3536 3087 
Q 4031 2591 4031 1759 
z
M 2881 2131 
Q 2881 2450 2695 2645 
Q 2509 2841 2209 2841 
Q 1884 2841 1681 2658 
Q 1478 2475 1428 2131 
L 2881 2131 
z
" transform="scale(0.015625)"/>
     <path id="DejaVuSans-Bold-70" d="M 1656 506 
L 1656 -1331 
L 538 -1331 
L 538 3500 
L 1656 3500 
L 1656 2988 
Q 1888 3294 2169 3439 
Q 2450 3584 2816 3584 
Q 3463 3584 3878 3070 
Q 4294 2556 4294 1747 
Q 4294 938 3878 423 
Q 3463 -91 2816 -91 
Q 2450 -91 2169 54 
Q 1888 200 1656 506 
z
M 2400 2772 
Q 2041 2772 1848 2508 
Q 1656 2244 1656 1747 
Q 1656 1250 1848 986 
Q 2041 722 2400 722 
Q 2759 722 2948 984 
Q 3138 1247 3138 1747 
Q 3138 2247 2948 2509 
Q 2759 2772 2400 2772 
z
" transform="scale(0.015625)"/>
     <path id="DejaVuSans-Bold-43" d="M 4288 256 
Q 3956 84 3597 -3 
Q 3238 -91 2847 -91 
Q 1681 -91 1000 561 
Q 319 1213 319 2328 
Q 319 3447 1000 4098 
Q 1681 4750 2847 4750 
Q 3238 4750 3597 4662 
Q 3956 4575 4288 4403 
L 4288 3438 
Q 3953 3666 3628 3772 
Q 3303 3878 2944 3878 
Q 2300 3878 1931 3465 
Q 1563 3053 1563 2328 
Q 1563 1606 1931 1193 
Q 2300 781 2944 781 
Q 3303 781 3628 887 
Q 3953 994 4288 1222 
L 4288 256 
z
" transform="scale(0.015625)"/>
     <path id="DejaVuSans-Bold-61" d="M 2106 1575 
Q 1756 1575 1579 1456 
Q 1403 1338 1403 1106 
Q 1403 894 1545 773 
Q 1688 653 1941 653 
Q 2256 653 2472 879 
Q 2688 1106 2688 1447 
L 2688 1575 
L 2106 1575 
z
M 3816 1997 
L 3816 0 
L 2688 0 
L 2688 519 
Q 2463 200 2181 54 
Q 1900 -91 1497 -91 
Q 953 -91 614 226 
Q 275 544 275 1050 
Q 275 1666 698 1953 
Q 1122 2241 2028 2241 
L 2688 2241 
L 2688 2328 
Q 2688 2594 2478 2717 
Q 2269 2841 1825 2841 
Q 1466 2841 1156 2769 
Q 847 2697 581 2553 
L 581 3406 
Q 941 3494 1303 3539 
Q 1666 3584 2028 3584 
Q 2975 3584 3395 3211 
Q 3816 2838 3816 1997 
z
" transform="scale(0.015625)"/>
     <path id="DejaVuSans-Bold-73" d="M 3272 3391 
L 3272 2541 
Q 2913 2691 2578 2766 
Q 2244 2841 1947 2841 
Q 1628 2841 1473 2761 
Q 1319 2681 1319 2516 
Q 1319 2381 1436 2309 
Q 1553 2238 1856 2203 
L 2053 2175 
Q 2913 2066 3209 1816 
Q 3506 1566 3506 1031 
Q 3506 472 3093 190 
Q 2681 -91 1863 -91 
Q 1516 -91 1145 -36 
Q 775 19 384 128 
L 384 978 
Q 719 816 1070 734 
Q 1422 653 1784 653 
Q 2113 653 2278 743 
Q 2444 834 2444 1013 
Q 2444 1163 2330 1236 
Q 2216 1309 1875 1350 
L 1678 1375 
Q 931 1469 631 1722 
Q 331 1975 331 2491 
Q 331 3047 712 3315 
Q 1094 3584 1881 3584 
Q 2191 3584 2531 3537 
Q 2872 3491 3272 3391 
z
" transform="scale(0.015625)"/>
     <path id="DejaVuSans-Bold-33" d="M 2981 2516 
Q 3453 2394 3698 2092 
Q 3944 1791 3944 1325 
Q 3944 631 3412 270 
Q 2881 -91 1863 -91 
Q 1503 -91 1142 -33 
Q 781 25 428 141 
L 428 1069 
Q 766 900 1098 814 
Q 1431 728 1753 728 
Q 2231 728 2486 893 
Q 2741 1059 2741 1369 
Q 2741 1688 2480 1852 
Q 2219 2016 1709 2016 
L 1228 2016 
L 1228 2791 
L 1734 2791 
Q 2188 2791 2409 2933 
Q 2631 3075 2631 3366 
Q 2631 3634 2415 3781 
Q 2200 3928 1806 3928 
Q 1516 3928 1219 3862 
Q 922 3797 628 3669 
L 628 4550 
Q 984 4650 1334 4700 
Q 1684 4750 2022 4750 
Q 2931 4750 3382 4451 
Q 3834 4153 3834 3553 
Q 3834 3144 3618 2883 
Q 3403 2622 2981 2516 
z
" transform="scale(0.015625)"/>
     <path id="DejaVuSans-Bold-34" d="M 2356 3675 
L 1038 1722 
L 2356 1722 
L 2356 3675 
z
M 2156 4666 
L 3494 4666 
L 3494 1722 
L 4159 1722 
L 4159 850 
L 3494 850 
L 3494 0 
L 2356 0 
L 2356 850 
L 288 850 
L 288 1881 
L 2156 4666 
z
" transform="scale(0.015625)"/>
     <path id="DejaVuSans-Bold-2e" d="M 653 1209 
L 1778 1209 
L 1778 0 
L 653 0 
L 653 1209 
z
" transform="scale(0.015625)"/>
     <path id="DejaVuSans-Bold-35" d="M 678 4666 
L 3669 4666 
L 3669 3781 
L 1638 3781 
L 1638 3059 
Q 1775 3097 1914 3117 
Q 2053 3138 2203 3138 
Q 3056 3138 3531 2711 
Q 4006 2284 4006 1522 
Q 4006 766 3489 337 
Q 2972 -91 2053 -91 
Q 1656 -91 1267 -14 
Q 878 63 494 219 
L 494 1166 
Q 875 947 1217 837 
Q 1559 728 1863 728 
Q 2300 728 2551 942 
Q 2803 1156 2803 1522 
Q 2803 1891 2551 2103 
Q 2300 2316 1863 2316 
Q 1603 2316 1309 2248 
Q 1016 2181 678 2041 
L 678 4666 
z
" transform="scale(0.015625)"/>
     <path id="DejaVuSans-Bold-72" d="M 3138 2547 
Q 2991 2616 2845 2648 
Q 2700 2681 2553 2681 
Q 2122 2681 1889 2404 
Q 1656 2128 1656 1613 
L 1656 0 
L 538 0 
L 538 3500 
L 1656 3500 
L 1656 2925 
Q 1872 3269 2151 3426 
Q 2431 3584 2822 3584 
Q 2878 3584 2943 3579 
Q 3009 3575 3134 3559 
L 3138 2547 
z
" transform="scale(0.015625)"/>
    </defs>
    <use xlink:href="#DejaVuSans-Bold-52"/>
    <use xlink:href="#DejaVuSans-Bold-54" x="72.501953"/>
    <use xlink:href="#DejaVuSans-Bold-5f" x="140.714844"/>
    <use xlink:href="#DejaVuSans-Bold-53" x="190.714844"/>
    <use xlink:href="#DejaVuSans-Bold-77" x="262.736328"/>
    <use xlink:href="#DejaVuSans-Bold-65" x="355.119141"/>
    <use xlink:href="#DejaVuSans-Bold-65" x="422.941406"/>
    <use xlink:href="#DejaVuSans-Bold-70" x="490.763672"/>
    <use xlink:href="#DejaVuSans-Bold-5f" x="562.345703"/>
    <use xlink:href="#DejaVuSans-Bold-43" x="612.345703"/>
    <use xlink:href="#DejaVuSans-Bold-61" x="685.734375"/>
    <use xlink:href="#DejaVuSans-Bold-73" x="753.214844"/>
    <use xlink:href="#DejaVuSans-Bold-31" x="812.736328"/>
    <use xlink:href="#DejaVuSans-Bold-33" x="882.316406"/>
    <use xlink:href="#DejaVuSans-Bold-3d" x="951.896484"/>
    <use xlink:href="#DejaVuSans-Bold-34" x="1035.685547"/>
    <use xlink:href="#DejaVuSans-Bold-2e" x="1105.265625"/>
    <use xlink:href="#DejaVuSans-Bold-35" x="1143.253906"/>
    <use xlink:href="#DejaVuSans-Bold-20" x="1212.833984"/>
    <use xlink:href="#DejaVuSans-Bold-72" x="1247.648438"/>
    <use xlink:href="#DejaVuSans-Bold-65" x="1296.964844"/>
    <use xlink:href="#DejaVuSans-Bold-70" x="1364.787109"/>
    <use xlink:href="#DejaVuSans-Bold-31" x="1436.369141"/>
   </g>
  </g>
 </g>
 <defs>
  <clipPath id="pc1f9064d96">
   <rect x="51.716875" y="49.094062" width="155.974063" height="155.974063"/>
  </clipPath>
  <clipPath id="p277cc0696f">
   <rect x="335.65267" y="49.094062" width="155.974063" height="155.974063"/>
  </clipPath>
  <clipPath id="pec285ecf9c">
   <rect x="619.588466" y="49.094062" width="155.974063" height="155.974063"/>
  </clipPath>
 </defs>
</svg>
