<?xml version="1.0" encoding="utf-8" standalone="no"?>
<!DOCTYPE svg PUBLIC "-//W3C//DTD SVG 1.1//EN"
  "http://www.w3.org/Graphics/SVG/1.1/DTD/svg11.dtd">
<svg xmlns:xlink="http://www.w3.org/1999/xlink" width="782.762528pt" height="250.56pt" viewBox="0 0 782.762528 250.56" xmlns="http://www.w3.org/2000/svg" version="1.1">
 <metadata>
  <rdf:RDF xmlns:dc="http://purl.org/dc/elements/1.1/" xmlns:cc="http://creativecommons.org/ns#" xmlns:rdf="http://www.w3.org/1999/02/22-rdf-syntax-ns#">
   <cc:Work>
    <dc:type rdf:resource="http://purl.org/dc/dcmitype/StillImage"/>
    <dc:date>2022-12-02T20:24:33.050832</dc:date>
    <dc:format>image/svg+xml</dc:format>
    <dc:creator>
     <cc:Agent>
      <dc:title>Matplotlib v3.5.1, https://matplotlib.org/</dc:title>
     </cc:Agent>
    </dc:creator>
   </cc:Work>
  </rdf:RDF>
 </metadata>
 <defs>
  <style type="text/css">*{stroke-linejoin: round; stroke-linecap: butt}</style>
 </defs>
 <g id="figure_1">
  <g id="patch_1">
   <path d="M 0 250.56 
L 782.762528 250.56 
L 782.762528 -0 
L 0 -0 
L 0 250.56 
z
" style="fill: none"/>
  </g>
  <g id="axes_1">
   <g id="patch_2">
    <path d="M 51.716875 205.068125 
L 207.690938 205.068125 
L 207.690938 49.094062 
L 51.716875 49.094062 
z
" style="fill: #ffffff"/>
   </g>
   <g id="PolyCollection_1">
    <defs>
     <path id="m4747e2dd82" d="M 58.806605 -49.202957 
L 58.806605 -48.792774 
L 61.169848 -49.064017 
L 63.533092 -49.331932 
L 65.896335 -49.846815 
L 68.259579 -49.992821 
L 70.622822 -50.492238 
L 72.986065 -50.987019 
L 75.349309 -51.364937 
L 77.712552 -51.355544 
L 80.075795 -52.127209 
L 82.439039 -52.099872 
L 84.802282 -52.484231 
L 87.165526 -52.40167 
L 89.528769 -52.849413 
L 91.892012 -53.255016 
L 94.255256 -53.499596 
L 96.618499 -53.621663 
L 98.981742 -53.788734 
L 101.344986 -53.930486 
L 103.708229 -54.536814 
L 106.071473 -54.523059 
L 108.434716 -54.980022 
L 110.797959 -55.038653 
L 113.161203 -55.092714 
L 115.524446 -55.371042 
L 117.887689 -55.931564 
L 120.250933 -55.635103 
L 122.614176 -56.080038 
L 124.97742 -56.211673 
L 127.340663 -56.73044 
L 129.703906 -57.098994 
L 132.06715 -57.099977 
L 134.430393 -57.185269 
L 136.793636 -57.488575 
L 139.15688 -57.427364 
L 141.520123 -57.685204 
L 143.883366 -57.857998 
L 146.24661 -57.861813 
L 148.609853 -58.12399 
L 150.973097 -58.220386 
L 153.33634 -58.453173 
L 155.699583 -58.951336 
L 158.062827 -58.952637 
L 160.42607 -59.411887 
L 162.789313 -59.240303 
L 165.152557 -59.018556 
L 167.5158 -59.688444 
L 169.879044 -59.56327 
L 172.242287 -59.788633 
L 174.60553 -59.937443 
L 176.968774 -60.113739 
L 179.332017 -60.297348 
L 181.69526 -60.18372 
L 184.058504 -60.750954 
L 186.421747 -60.522136 
L 188.784991 -60.883397 
L 191.148234 -61.002713 
L 193.511477 -60.747565 
L 195.874721 -61.064712 
L 198.237964 -61.214974 
L 200.601207 -61.229521 
L 200.601207 -62.338208 
L 200.601207 -62.338208 
L 198.237964 -61.785748 
L 195.874721 -62.200613 
L 193.511477 -61.856253 
L 191.148234 -61.695606 
L 188.784991 -61.64482 
L 186.421747 -61.004369 
L 184.058504 -61.474859 
L 181.69526 -61.115982 
L 179.332017 -61.021254 
L 176.968774 -60.88356 
L 174.60553 -60.870854 
L 172.242287 -60.641659 
L 169.879044 -60.054312 
L 167.5158 -60.04254 
L 165.152557 -60.164321 
L 162.789313 -59.904774 
L 160.42607 -59.525288 
L 158.062827 -59.512032 
L 155.699583 -59.305431 
L 153.33634 -59.066485 
L 150.973097 -59.242572 
L 148.609853 -58.526258 
L 146.24661 -58.561632 
L 143.883366 -58.300844 
L 141.520123 -58.114534 
L 139.15688 -58.221173 
L 136.793636 -57.800858 
L 134.430393 -57.726159 
L 132.06715 -57.282245 
L 129.703906 -57.358829 
L 127.340663 -56.990275 
L 124.97742 -57.187737 
L 122.614176 -56.960269 
L 120.250933 -56.535793 
L 117.887689 -56.333833 
L 115.524446 -56.024946 
L 113.161203 -55.660665 
L 110.797959 -55.695826 
L 108.434716 -55.357553 
L 106.071473 -54.869505 
L 103.708229 -55.063652 
L 101.344986 -54.72497 
L 98.981742 -54.583218 
L 96.618499 -54.447886 
L 94.255256 -53.984046 
L 91.892012 -53.793921 
L 89.528769 -53.311213 
L 87.165526 -53.513254 
L 84.802282 -52.731384 
L 82.439039 -52.81334 
L 80.075795 -52.389098 
L 77.712552 -51.894449 
L 75.349309 -51.733854 
L 72.986065 -51.695967 
L 70.622822 -51.415839 
L 68.259579 -50.819044 
L 65.896335 -50.020038 
L 63.533092 -49.760012 
L 61.169848 -49.460921 
L 58.806605 -49.202957 
z
" style="stroke: #b0c4de; stroke-opacity: 0.2"/>
    </defs>
    <g clip-path="url(#p273b3f9fd1)">
     <use xlink:href="#m4747e2dd82" x="0" y="250.56" style="fill: #b0c4de; fill-opacity: 0.2; stroke: #b0c4de; stroke-opacity: 0.2"/>
    </g>
   </g>
   <g id="PolyCollection_2">
    <defs>
     <path id="me471350b37" d="M 58.806605 -49.371303 
L 58.806605 -48.945733 
L 61.169848 -49.440846 
L 63.533092 -49.693103 
L 65.896335 -50.294263 
L 68.259579 -50.144512 
L 70.622822 -50.719041 
L 72.986065 -51.354963 
L 75.349309 -51.390172 
L 77.712552 -51.790292 
L 80.075795 -52.16159 
L 82.439039 -52.251887 
L 84.802282 -52.421688 
L 87.165526 -53.172319 
L 89.528769 -53.292864 
L 91.892012 -53.516783 
L 94.255256 -53.731471 
L 96.618499 -54.112845 
L 98.981742 -54.181043 
L 101.344986 -54.538174 
L 103.708229 -54.918594 
L 106.071473 -55.03136 
L 108.434716 -55.41449 
L 110.797959 -55.821476 
L 113.161203 -55.690943 
L 115.524446 -55.858456 
L 117.887689 -56.237874 
L 120.250933 -56.495213 
L 122.614176 -56.721235 
L 124.97742 -57.037819 
L 127.340663 -57.118275 
L 129.703906 -57.325414 
L 132.06715 -57.317514 
L 134.430393 -57.445673 
L 136.793636 -57.857291 
L 139.15688 -58.049596 
L 141.520123 -58.134276 
L 143.883366 -58.299663 
L 146.24661 -58.589779 
L 148.609853 -58.631258 
L 150.973097 -58.770905 
L 153.33634 -58.967563 
L 155.699583 -59.277708 
L 158.062827 -59.463807 
L 160.42607 -59.518535 
L 162.789313 -59.63928 
L 165.152557 -60.030294 
L 167.5158 -60.147625 
L 169.879044 -59.883882 
L 172.242287 -60.474687 
L 174.60553 -60.405233 
L 176.968774 -60.696069 
L 179.332017 -60.767944 
L 181.69526 -61.237244 
L 184.058504 -60.876544 
L 186.421747 -61.526109 
L 188.784991 -61.323366 
L 191.148234 -61.405507 
L 193.511477 -61.90368 
L 195.874721 -61.851239 
L 198.237964 -61.996868 
L 200.601207 -61.976774 
L 200.601207 -63.915682 
L 200.601207 -63.915682 
L 198.237964 -63.952288 
L 195.874721 -63.45531 
L 193.511477 -63.289467 
L 191.148234 -63.428537 
L 188.784991 -63.416176 
L 186.421747 -63.175633 
L 184.058504 -63.314892 
L 181.69526 -63.218795 
L 179.332017 -62.780884 
L 176.968774 -62.512556 
L 174.60553 -62.463188 
L 172.242287 -62.261432 
L 169.879044 -61.982827 
L 167.5158 -61.908086 
L 165.152557 -61.855315 
L 162.789313 -61.603721 
L 160.42607 -61.535464 
L 158.062827 -60.682981 
L 155.699583 -60.944682 
L 153.33634 -60.555519 
L 150.973097 -60.582075 
L 148.609853 -60.494919 
L 146.24661 -60.328496 
L 143.883366 -60.089405 
L 141.520123 -59.442083 
L 139.15688 -59.26216 
L 136.793636 -59.133161 
L 134.430393 -59.261275 
L 132.06715 -58.898029 
L 129.703906 -58.795628 
L 127.340663 -58.794864 
L 124.97742 -58.535117 
L 122.614176 -58.246894 
L 120.250933 -57.905909 
L 117.887689 -57.841945 
L 115.524446 -57.276351 
L 113.161203 -57.06586 
L 110.797959 -56.670724 
L 108.434716 -56.718605 
L 106.071473 -56.534729 
L 103.708229 -56.156089 
L 101.344986 -56.045104 
L 98.981742 -55.362723 
L 96.618499 -55.41202 
L 94.255256 -54.923984 
L 91.892012 -54.628367 
L 89.528769 -54.171877 
L 87.165526 -54.141221 
L 84.802282 -53.720038 
L 82.439039 -53.455135 
L 80.075795 -53.072926 
L 77.712552 -52.612614 
L 75.349309 -52.389027 
L 72.986065 -52.084032 
L 70.622822 -51.642641 
L 68.259579 -51.34776 
L 65.896335 -50.498701 
L 63.533092 -50.13595 
L 61.169848 -49.669999 
L 58.806605 -49.371303 
z
" style="stroke: #4169e1; stroke-opacity: 0.2"/>
    </defs>
    <g clip-path="url(#p273b3f9fd1)">
     <use xlink:href="#me471350b37" x="0" y="250.56" style="fill: #4169e1; fill-opacity: 0.2; stroke: #4169e1; stroke-opacity: 0.2"/>
    </g>
   </g>
   <g id="PolyCollection_3">
    <defs>
     <path id="m5c54ad4028" d="M 58.806605 -49.430535 
L 58.806605 -49.037702 
L 61.169848 -49.691091 
L 63.533092 -49.99203 
L 65.896335 -49.853967 
L 68.259579 -50.134249 
L 70.622822 -50.693044 
L 72.986065 -51.063173 
L 75.349309 -51.215991 
L 77.712552 -51.58241 
L 80.075795 -51.958679 
L 82.439039 -52.180666 
L 84.802282 -52.440335 
L 87.165526 -52.822911 
L 89.528769 -53.094504 
L 91.892012 -53.147985 
L 94.255256 -53.589647 
L 96.618499 -53.885391 
L 98.981742 -54.04979 
L 101.344986 -54.420846 
L 103.708229 -55.005326 
L 106.071473 -54.952786 
L 108.434716 -55.596959 
L 110.797959 -55.676492 
L 113.161203 -55.719787 
L 115.524446 -56.320895 
L 117.887689 -56.722808 
L 120.250933 -56.720053 
L 122.614176 -56.832943 
L 124.97742 -57.016016 
L 127.340663 -56.843475 
L 129.703906 -57.681829 
L 132.06715 -57.527149 
L 134.430393 -57.490813 
L 136.793636 -57.74782 
L 139.15688 -58.233111 
L 141.520123 -58.385001 
L 143.883366 -58.59146 
L 146.24661 -58.51787 
L 148.609853 -58.713073 
L 150.973097 -59.259429 
L 153.33634 -59.110819 
L 155.699583 -59.285741 
L 158.062827 -59.332987 
L 160.42607 -59.91152 
L 162.789313 -60.095669 
L 165.152557 -60.176895 
L 167.5158 -60.412417 
L 169.879044 -60.35749 
L 172.242287 -60.890281 
L 174.60553 -61.16744 
L 176.968774 -60.888348 
L 179.332017 -61.358786 
L 181.69526 -61.658403 
L 184.058504 -61.792799 
L 186.421747 -61.915357 
L 188.784991 -62.044339 
L 191.148234 -61.978808 
L 193.511477 -62.060234 
L 195.874721 -62.157047 
L 198.237964 -62.619064 
L 200.601207 -63.318406 
L 200.601207 -71.324852 
L 200.601207 -71.324852 
L 198.237964 -71.570588 
L 195.874721 -71.200995 
L 193.511477 -70.617401 
L 191.148234 -70.585425 
L 188.784991 -70.009588 
L 186.421747 -70.195271 
L 184.058504 -69.939824 
L 181.69526 -69.22371 
L 179.332017 -68.956321 
L 176.968774 -68.765251 
L 174.60553 -68.051454 
L 172.242287 -68.347514 
L 169.879044 -67.746291 
L 167.5158 -67.445661 
L 165.152557 -67.114177 
L 162.789313 -66.628396 
L 160.42607 -66.41564 
L 158.062827 -66.049163 
L 155.699583 -65.605003 
L 153.33634 -65.194018 
L 150.973097 -64.591803 
L 148.609853 -64.854656 
L 146.24661 -64.048147 
L 143.883366 -63.691053 
L 141.520123 -63.387207 
L 139.15688 -62.896489 
L 136.793636 -62.701372 
L 134.430393 -62.618175 
L 132.06715 -61.882532 
L 129.703906 -61.841252 
L 127.340663 -61.488893 
L 124.97742 -60.938347 
L 122.614176 -60.648915 
L 120.250933 -60.667304 
L 117.887689 -59.92744 
L 115.524446 -59.535544 
L 113.161203 -59.267242 
L 110.797959 -58.838031 
L 108.434716 -58.104855 
L 106.071473 -57.728417 
L 103.708229 -57.392372 
L 101.344986 -57.069643 
L 98.981742 -56.306685 
L 96.618499 -56.093079 
L 94.255256 -55.519414 
L 91.892012 -55.318468 
L 89.528769 -54.521439 
L 87.165526 -54.452829 
L 84.802282 -53.965994 
L 82.439039 -53.412954 
L 80.075795 -52.992333 
L 77.712552 -52.688194 
L 75.349309 -52.128502 
L 72.986065 -51.695413 
L 70.622822 -51.233933 
L 68.259579 -50.847717 
L 65.896335 -50.806696 
L 63.533092 -50.271728 
L 61.169848 -49.873358 
L 58.806605 -49.430535 
z
" style="stroke: #191970; stroke-opacity: 0.2"/>
    </defs>
    <g clip-path="url(#p273b3f9fd1)">
     <use xlink:href="#m5c54ad4028" x="0" y="250.56" style="fill: #191970; fill-opacity: 0.2; stroke: #191970; stroke-opacity: 0.2"/>
    </g>
   </g>
   <g id="matplotlib.axis_1">
    <g id="xtick_1">
     <g id="line2d_1">
      <defs>
       <path id="mda025d4a66" d="M 0 0 
L 0 3.5 
" style="stroke: #000000; stroke-width: 0.8"/>
      </defs>
      <g>
       <use xlink:href="#mda025d4a66" x="58.806605" y="205.068125" style="stroke: #000000; stroke-width: 0.8"/>
      </g>
     </g>
     <g id="text_1">
      <!-- 0 -->
      <g transform="translate(55.625355 219.666562)scale(0.1 -0.1)">
       <defs>
        <path id="DejaVuSans-30" d="M 2034 4250 
Q 1547 4250 1301 3770 
Q 1056 3291 1056 2328 
Q 1056 1369 1301 889 
Q 1547 409 2034 409 
Q 2525 409 2770 889 
Q 3016 1369 3016 2328 
Q 3016 3291 2770 3770 
Q 2525 4250 2034 4250 
z
M 2034 4750 
Q 2819 4750 3233 4129 
Q 3647 3509 3647 2328 
Q 3647 1150 3233 529 
Q 2819 -91 2034 -91 
Q 1250 -91 836 529 
Q 422 1150 422 2328 
Q 422 3509 836 4129 
Q 1250 4750 2034 4750 
z
" transform="scale(0.015625)"/>
       </defs>
       <use xlink:href="#DejaVuSans-30"/>
      </g>
     </g>
    </g>
    <g id="xtick_2">
     <g id="line2d_2">
      <g>
       <use xlink:href="#mda025d4a66" x="117.887689" y="205.068125" style="stroke: #000000; stroke-width: 0.8"/>
      </g>
     </g>
     <g id="text_2">
      <!-- 100 -->
      <g transform="translate(108.343939 219.666562)scale(0.1 -0.1)">
       <defs>
        <path id="DejaVuSans-31" d="M 794 531 
L 1825 531 
L 1825 4091 
L 703 3866 
L 703 4441 
L 1819 4666 
L 2450 4666 
L 2450 531 
L 3481 531 
L 3481 0 
L 794 0 
L 794 531 
z
" transform="scale(0.015625)"/>
       </defs>
       <use xlink:href="#DejaVuSans-31"/>
       <use xlink:href="#DejaVuSans-30" x="63.623047"/>
       <use xlink:href="#DejaVuSans-30" x="127.246094"/>
      </g>
     </g>
    </g>
    <g id="xtick_3">
     <g id="line2d_3">
      <g>
       <use xlink:href="#mda025d4a66" x="176.968774" y="205.068125" style="stroke: #000000; stroke-width: 0.8"/>
      </g>
     </g>
     <g id="text_3">
      <!-- 200 -->
      <g transform="translate(167.425024 219.666562)scale(0.1 -0.1)">
       <defs>
        <path id="DejaVuSans-32" d="M 1228 531 
L 3431 531 
L 3431 0 
L 469 0 
L 469 531 
Q 828 903 1448 1529 
Q 2069 2156 2228 2338 
Q 2531 2678 2651 2914 
Q 2772 3150 2772 3378 
Q 2772 3750 2511 3984 
Q 2250 4219 1831 4219 
Q 1534 4219 1204 4116 
Q 875 4013 500 3803 
L 500 4441 
Q 881 4594 1212 4672 
Q 1544 4750 1819 4750 
Q 2544 4750 2975 4387 
Q 3406 4025 3406 3419 
Q 3406 3131 3298 2873 
Q 3191 2616 2906 2266 
Q 2828 2175 2409 1742 
Q 1991 1309 1228 531 
z
" transform="scale(0.015625)"/>
       </defs>
       <use xlink:href="#DejaVuSans-32"/>
       <use xlink:href="#DejaVuSans-30" x="63.623047"/>
       <use xlink:href="#DejaVuSans-30" x="127.246094"/>
      </g>
     </g>
    </g>
    <g id="text_4">
     <!-- Time (min) -->
     <g transform="translate(97.121094 240.864375)scale(0.12 -0.12)">
      <defs>
       <path id="DejaVuSans-54" d="M -19 4666 
L 3928 4666 
L 3928 4134 
L 2272 4134 
L 2272 0 
L 1638 0 
L 1638 4134 
L -19 4134 
L -19 4666 
z
" transform="scale(0.015625)"/>
       <path id="DejaVuSans-69" d="M 603 3500 
L 1178 3500 
L 1178 0 
L 603 0 
L 603 3500 
z
M 603 4863 
L 1178 4863 
L 1178 4134 
L 603 4134 
L 603 4863 
z
" transform="scale(0.015625)"/>
       <path id="DejaVuSans-6d" d="M 3328 2828 
Q 3544 3216 3844 3400 
Q 4144 3584 4550 3584 
Q 5097 3584 5394 3201 
Q 5691 2819 5691 2113 
L 5691 0 
L 5113 0 
L 5113 2094 
Q 5113 2597 4934 2840 
Q 4756 3084 4391 3084 
Q 3944 3084 3684 2787 
Q 3425 2491 3425 1978 
L 3425 0 
L 2847 0 
L 2847 2094 
Q 2847 2600 2669 2842 
Q 2491 3084 2119 3084 
Q 1678 3084 1418 2786 
Q 1159 2488 1159 1978 
L 1159 0 
L 581 0 
L 581 3500 
L 1159 3500 
L 1159 2956 
Q 1356 3278 1631 3431 
Q 1906 3584 2284 3584 
Q 2666 3584 2933 3390 
Q 3200 3197 3328 2828 
z
" transform="scale(0.015625)"/>
       <path id="DejaVuSans-65" d="M 3597 1894 
L 3597 1613 
L 953 1613 
Q 991 1019 1311 708 
Q 1631 397 2203 397 
Q 2534 397 2845 478 
Q 3156 559 3463 722 
L 3463 178 
Q 3153 47 2828 -22 
Q 2503 -91 2169 -91 
Q 1331 -91 842 396 
Q 353 884 353 1716 
Q 353 2575 817 3079 
Q 1281 3584 2069 3584 
Q 2775 3584 3186 3129 
Q 3597 2675 3597 1894 
z
M 3022 2063 
Q 3016 2534 2758 2815 
Q 2500 3097 2075 3097 
Q 1594 3097 1305 2825 
Q 1016 2553 972 2059 
L 3022 2063 
z
" transform="scale(0.015625)"/>
       <path id="DejaVuSans-20" transform="scale(0.015625)"/>
       <path id="DejaVuSans-28" d="M 1984 4856 
Q 1566 4138 1362 3434 
Q 1159 2731 1159 2009 
Q 1159 1288 1364 580 
Q 1569 -128 1984 -844 
L 1484 -844 
Q 1016 -109 783 600 
Q 550 1309 550 2009 
Q 550 2706 781 3412 
Q 1013 4119 1484 4856 
L 1984 4856 
z
" transform="scale(0.015625)"/>
       <path id="DejaVuSans-6e" d="M 3513 2113 
L 3513 0 
L 2938 0 
L 2938 2094 
Q 2938 2591 2744 2837 
Q 2550 3084 2163 3084 
Q 1697 3084 1428 2787 
Q 1159 2491 1159 1978 
L 1159 0 
L 581 0 
L 581 3500 
L 1159 3500 
L 1159 2956 
Q 1366 3272 1645 3428 
Q 1925 3584 2291 3584 
Q 2894 3584 3203 3211 
Q 3513 2838 3513 2113 
z
" transform="scale(0.015625)"/>
       <path id="DejaVuSans-29" d="M 513 4856 
L 1013 4856 
Q 1481 4119 1714 3412 
Q 1947 2706 1947 2009 
Q 1947 1309 1714 600 
Q 1481 -109 1013 -844 
L 513 -844 
Q 928 -128 1133 580 
Q 1338 1288 1338 2009 
Q 1338 2731 1133 3434 
Q 928 4138 513 4856 
z
" transform="scale(0.015625)"/>
      </defs>
      <use xlink:href="#DejaVuSans-54"/>
      <use xlink:href="#DejaVuSans-69" x="57.958984"/>
      <use xlink:href="#DejaVuSans-6d" x="85.742188"/>
      <use xlink:href="#DejaVuSans-65" x="183.154297"/>
      <use xlink:href="#DejaVuSans-20" x="244.677734"/>
      <use xlink:href="#DejaVuSans-28" x="276.464844"/>
      <use xlink:href="#DejaVuSans-6d" x="315.478516"/>
      <use xlink:href="#DejaVuSans-69" x="412.890625"/>
      <use xlink:href="#DejaVuSans-6e" x="440.673828"/>
      <use xlink:href="#DejaVuSans-29" x="504.052734"/>
     </g>
    </g>
   </g>
   <g id="matplotlib.axis_2">
    <g id="ytick_1">
     <g id="line2d_4">
      <defs>
       <path id="m4c7e6dacb3" d="M 0 0 
L -3.5 0 
" style="stroke: #000000; stroke-width: 0.8"/>
      </defs>
      <g>
       <use xlink:href="#m4c7e6dacb3" x="51.716875" y="205.068125" style="stroke: #000000; stroke-width: 0.8"/>
      </g>
     </g>
     <g id="text_5">
      <!-- 0.0 -->
      <g transform="translate(28.81375 208.867344)scale(0.1 -0.1)">
       <defs>
        <path id="DejaVuSans-2e" d="M 684 794 
L 1344 794 
L 1344 0 
L 684 0 
L 684 794 
z
" transform="scale(0.015625)"/>
       </defs>
       <use xlink:href="#DejaVuSans-30"/>
       <use xlink:href="#DejaVuSans-2e" x="63.623047"/>
       <use xlink:href="#DejaVuSans-30" x="95.410156"/>
      </g>
     </g>
    </g>
    <g id="ytick_2">
     <g id="line2d_5">
      <g>
       <use xlink:href="#m4c7e6dacb3" x="51.716875" y="173.873312" style="stroke: #000000; stroke-width: 0.8"/>
      </g>
     </g>
     <g id="text_6">
      <!-- 0.2 -->
      <g transform="translate(28.81375 177.672531)scale(0.1 -0.1)">
       <use xlink:href="#DejaVuSans-30"/>
       <use xlink:href="#DejaVuSans-2e" x="63.623047"/>
       <use xlink:href="#DejaVuSans-32" x="95.410156"/>
      </g>
     </g>
    </g>
    <g id="ytick_3">
     <g id="line2d_6">
      <g>
       <use xlink:href="#m4c7e6dacb3" x="51.716875" y="142.6785" style="stroke: #000000; stroke-width: 0.8"/>
      </g>
     </g>
     <g id="text_7">
      <!-- 0.4 -->
      <g transform="translate(28.81375 146.477719)scale(0.1 -0.1)">
       <defs>
        <path id="DejaVuSans-34" d="M 2419 4116 
L 825 1625 
L 2419 1625 
L 2419 4116 
z
M 2253 4666 
L 3047 4666 
L 3047 1625 
L 3713 1625 
L 3713 1100 
L 3047 1100 
L 3047 0 
L 2419 0 
L 2419 1100 
L 313 1100 
L 313 1709 
L 2253 4666 
z
" transform="scale(0.015625)"/>
       </defs>
       <use xlink:href="#DejaVuSans-30"/>
       <use xlink:href="#DejaVuSans-2e" x="63.623047"/>
       <use xlink:href="#DejaVuSans-34" x="95.410156"/>
      </g>
     </g>
    </g>
    <g id="ytick_4">
     <g id="line2d_7">
      <g>
       <use xlink:href="#m4c7e6dacb3" x="51.716875" y="111.483687" style="stroke: #000000; stroke-width: 0.8"/>
      </g>
     </g>
     <g id="text_8">
      <!-- 0.6 -->
      <g transform="translate(28.81375 115.282906)scale(0.1 -0.1)">
       <defs>
        <path id="DejaVuSans-36" d="M 2113 2584 
Q 1688 2584 1439 2293 
Q 1191 2003 1191 1497 
Q 1191 994 1439 701 
Q 1688 409 2113 409 
Q 2538 409 2786 701 
Q 3034 994 3034 1497 
Q 3034 2003 2786 2293 
Q 2538 2584 2113 2584 
z
M 3366 4563 
L 3366 3988 
Q 3128 4100 2886 4159 
Q 2644 4219 2406 4219 
Q 1781 4219 1451 3797 
Q 1122 3375 1075 2522 
Q 1259 2794 1537 2939 
Q 1816 3084 2150 3084 
Q 2853 3084 3261 2657 
Q 3669 2231 3669 1497 
Q 3669 778 3244 343 
Q 2819 -91 2113 -91 
Q 1303 -91 875 529 
Q 447 1150 447 2328 
Q 447 3434 972 4092 
Q 1497 4750 2381 4750 
Q 2619 4750 2861 4703 
Q 3103 4656 3366 4563 
z
" transform="scale(0.015625)"/>
       </defs>
       <use xlink:href="#DejaVuSans-30"/>
       <use xlink:href="#DejaVuSans-2e" x="63.623047"/>
       <use xlink:href="#DejaVuSans-36" x="95.410156"/>
      </g>
     </g>
    </g>
    <g id="ytick_5">
     <g id="line2d_8">
      <g>
       <use xlink:href="#m4c7e6dacb3" x="51.716875" y="80.288875" style="stroke: #000000; stroke-width: 0.8"/>
      </g>
     </g>
     <g id="text_9">
      <!-- 0.8 -->
      <g transform="translate(28.81375 84.088094)scale(0.1 -0.1)">
       <defs>
        <path id="DejaVuSans-38" d="M 2034 2216 
Q 1584 2216 1326 1975 
Q 1069 1734 1069 1313 
Q 1069 891 1326 650 
Q 1584 409 2034 409 
Q 2484 409 2743 651 
Q 3003 894 3003 1313 
Q 3003 1734 2745 1975 
Q 2488 2216 2034 2216 
z
M 1403 2484 
Q 997 2584 770 2862 
Q 544 3141 544 3541 
Q 544 4100 942 4425 
Q 1341 4750 2034 4750 
Q 2731 4750 3128 4425 
Q 3525 4100 3525 3541 
Q 3525 3141 3298 2862 
Q 3072 2584 2669 2484 
Q 3125 2378 3379 2068 
Q 3634 1759 3634 1313 
Q 3634 634 3220 271 
Q 2806 -91 2034 -91 
Q 1263 -91 848 271 
Q 434 634 434 1313 
Q 434 1759 690 2068 
Q 947 2378 1403 2484 
z
M 1172 3481 
Q 1172 3119 1398 2916 
Q 1625 2713 2034 2713 
Q 2441 2713 2670 2916 
Q 2900 3119 2900 3481 
Q 2900 3844 2670 4047 
Q 2441 4250 2034 4250 
Q 1625 4250 1398 4047 
Q 1172 3844 1172 3481 
z
" transform="scale(0.015625)"/>
       </defs>
       <use xlink:href="#DejaVuSans-30"/>
       <use xlink:href="#DejaVuSans-2e" x="63.623047"/>
       <use xlink:href="#DejaVuSans-38" x="95.410156"/>
      </g>
     </g>
    </g>
    <g id="ytick_6">
     <g id="line2d_9">
      <g>
       <use xlink:href="#m4c7e6dacb3" x="51.716875" y="49.094062" style="stroke: #000000; stroke-width: 0.8"/>
      </g>
     </g>
     <g id="text_10">
      <!-- 1.0 -->
      <g transform="translate(28.81375 52.893281)scale(0.1 -0.1)">
       <use xlink:href="#DejaVuSans-31"/>
       <use xlink:href="#DejaVuSans-2e" x="63.623047"/>
       <use xlink:href="#DejaVuSans-30" x="95.410156"/>
      </g>
     </g>
    </g>
    <g id="text_11">
     <!-- Normalized exp output -->
     <g transform="translate(16.318125 195.658281)rotate(-90)scale(0.12 -0.12)">
      <defs>
       <path id="DejaVuSans-4e" d="M 628 4666 
L 1478 4666 
L 3547 763 
L 3547 4666 
L 4159 4666 
L 4159 0 
L 3309 0 
L 1241 3903 
L 1241 0 
L 628 0 
L 628 4666 
z
" transform="scale(0.015625)"/>
       <path id="DejaVuSans-6f" d="M 1959 3097 
Q 1497 3097 1228 2736 
Q 959 2375 959 1747 
Q 959 1119 1226 758 
Q 1494 397 1959 397 
Q 2419 397 2687 759 
Q 2956 1122 2956 1747 
Q 2956 2369 2687 2733 
Q 2419 3097 1959 3097 
z
M 1959 3584 
Q 2709 3584 3137 3096 
Q 3566 2609 3566 1747 
Q 3566 888 3137 398 
Q 2709 -91 1959 -91 
Q 1206 -91 779 398 
Q 353 888 353 1747 
Q 353 2609 779 3096 
Q 1206 3584 1959 3584 
z
" transform="scale(0.015625)"/>
       <path id="DejaVuSans-72" d="M 2631 2963 
Q 2534 3019 2420 3045 
Q 2306 3072 2169 3072 
Q 1681 3072 1420 2755 
Q 1159 2438 1159 1844 
L 1159 0 
L 581 0 
L 581 3500 
L 1159 3500 
L 1159 2956 
Q 1341 3275 1631 3429 
Q 1922 3584 2338 3584 
Q 2397 3584 2469 3576 
Q 2541 3569 2628 3553 
L 2631 2963 
z
" transform="scale(0.015625)"/>
       <path id="DejaVuSans-61" d="M 2194 1759 
Q 1497 1759 1228 1600 
Q 959 1441 959 1056 
Q 959 750 1161 570 
Q 1363 391 1709 391 
Q 2188 391 2477 730 
Q 2766 1069 2766 1631 
L 2766 1759 
L 2194 1759 
z
M 3341 1997 
L 3341 0 
L 2766 0 
L 2766 531 
Q 2569 213 2275 61 
Q 1981 -91 1556 -91 
Q 1019 -91 701 211 
Q 384 513 384 1019 
Q 384 1609 779 1909 
Q 1175 2209 1959 2209 
L 2766 2209 
L 2766 2266 
Q 2766 2663 2505 2880 
Q 2244 3097 1772 3097 
Q 1472 3097 1187 3025 
Q 903 2953 641 2809 
L 641 3341 
Q 956 3463 1253 3523 
Q 1550 3584 1831 3584 
Q 2591 3584 2966 3190 
Q 3341 2797 3341 1997 
z
" transform="scale(0.015625)"/>
       <path id="DejaVuSans-6c" d="M 603 4863 
L 1178 4863 
L 1178 0 
L 603 0 
L 603 4863 
z
" transform="scale(0.015625)"/>
       <path id="DejaVuSans-7a" d="M 353 3500 
L 3084 3500 
L 3084 2975 
L 922 459 
L 3084 459 
L 3084 0 
L 275 0 
L 275 525 
L 2438 3041 
L 353 3041 
L 353 3500 
z
" transform="scale(0.015625)"/>
       <path id="DejaVuSans-64" d="M 2906 2969 
L 2906 4863 
L 3481 4863 
L 3481 0 
L 2906 0 
L 2906 525 
Q 2725 213 2448 61 
Q 2172 -91 1784 -91 
Q 1150 -91 751 415 
Q 353 922 353 1747 
Q 353 2572 751 3078 
Q 1150 3584 1784 3584 
Q 2172 3584 2448 3432 
Q 2725 3281 2906 2969 
z
M 947 1747 
Q 947 1113 1208 752 
Q 1469 391 1925 391 
Q 2381 391 2643 752 
Q 2906 1113 2906 1747 
Q 2906 2381 2643 2742 
Q 2381 3103 1925 3103 
Q 1469 3103 1208 2742 
Q 947 2381 947 1747 
z
" transform="scale(0.015625)"/>
       <path id="DejaVuSans-78" d="M 3513 3500 
L 2247 1797 
L 3578 0 
L 2900 0 
L 1881 1375 
L 863 0 
L 184 0 
L 1544 1831 
L 300 3500 
L 978 3500 
L 1906 2253 
L 2834 3500 
L 3513 3500 
z
" transform="scale(0.015625)"/>
       <path id="DejaVuSans-70" d="M 1159 525 
L 1159 -1331 
L 581 -1331 
L 581 3500 
L 1159 3500 
L 1159 2969 
Q 1341 3281 1617 3432 
Q 1894 3584 2278 3584 
Q 2916 3584 3314 3078 
Q 3713 2572 3713 1747 
Q 3713 922 3314 415 
Q 2916 -91 2278 -91 
Q 1894 -91 1617 61 
Q 1341 213 1159 525 
z
M 3116 1747 
Q 3116 2381 2855 2742 
Q 2594 3103 2138 3103 
Q 1681 3103 1420 2742 
Q 1159 2381 1159 1747 
Q 1159 1113 1420 752 
Q 1681 391 2138 391 
Q 2594 391 2855 752 
Q 3116 1113 3116 1747 
z
" transform="scale(0.015625)"/>
       <path id="DejaVuSans-75" d="M 544 1381 
L 544 3500 
L 1119 3500 
L 1119 1403 
Q 1119 906 1312 657 
Q 1506 409 1894 409 
Q 2359 409 2629 706 
Q 2900 1003 2900 1516 
L 2900 3500 
L 3475 3500 
L 3475 0 
L 2900 0 
L 2900 538 
Q 2691 219 2414 64 
Q 2138 -91 1772 -91 
Q 1169 -91 856 284 
Q 544 659 544 1381 
z
M 1991 3584 
L 1991 3584 
z
" transform="scale(0.015625)"/>
       <path id="DejaVuSans-74" d="M 1172 4494 
L 1172 3500 
L 2356 3500 
L 2356 3053 
L 1172 3053 
L 1172 1153 
Q 1172 725 1289 603 
Q 1406 481 1766 481 
L 2356 481 
L 2356 0 
L 1766 0 
Q 1100 0 847 248 
Q 594 497 594 1153 
L 594 3053 
L 172 3053 
L 172 3500 
L 594 3500 
L 594 4494 
L 1172 4494 
z
" transform="scale(0.015625)"/>
      </defs>
      <use xlink:href="#DejaVuSans-4e"/>
      <use xlink:href="#DejaVuSans-6f" x="74.804688"/>
      <use xlink:href="#DejaVuSans-72" x="135.986328"/>
      <use xlink:href="#DejaVuSans-6d" x="175.349609"/>
      <use xlink:href="#DejaVuSans-61" x="272.761719"/>
      <use xlink:href="#DejaVuSans-6c" x="334.041016"/>
      <use xlink:href="#DejaVuSans-69" x="361.824219"/>
      <use xlink:href="#DejaVuSans-7a" x="389.607422"/>
      <use xlink:href="#DejaVuSans-65" x="442.097656"/>
      <use xlink:href="#DejaVuSans-64" x="503.621094"/>
      <use xlink:href="#DejaVuSans-20" x="567.097656"/>
      <use xlink:href="#DejaVuSans-65" x="598.884766"/>
      <use xlink:href="#DejaVuSans-78" x="658.658203"/>
      <use xlink:href="#DejaVuSans-70" x="717.837891"/>
      <use xlink:href="#DejaVuSans-20" x="781.314453"/>
      <use xlink:href="#DejaVuSans-6f" x="813.101562"/>
      <use xlink:href="#DejaVuSans-75" x="874.283203"/>
      <use xlink:href="#DejaVuSans-74" x="937.662109"/>
      <use xlink:href="#DejaVuSans-70" x="976.871094"/>
      <use xlink:href="#DejaVuSans-75" x="1040.347656"/>
      <use xlink:href="#DejaVuSans-74" x="1103.726562"/>
     </g>
    </g>
   </g>
   <g id="line2d_10">
    <path d="M 58.806605 201.562134 
L 61.169848 201.297531 
L 63.533092 201.014028 
L 65.896335 200.626573 
L 68.259579 200.154068 
L 70.622822 199.605962 
L 72.986065 199.218507 
L 75.349309 199.010605 
L 77.712552 198.935004 
L 80.075795 198.301846 
L 82.439039 198.103394 
L 84.802282 197.952192 
L 87.165526 197.602538 
L 89.528769 197.479687 
L 91.892012 197.035532 
L 94.255256 196.818179 
L 96.618499 196.525226 
L 98.981742 196.374024 
L 101.344986 196.232272 
L 103.708229 195.759767 
L 106.071473 195.863718 
L 108.434716 195.391213 
L 110.797959 195.19276 
L 113.161203 195.18331 
L 115.524446 194.862006 
L 117.887689 194.427301 
L 120.250933 194.474552 
L 122.614176 194.039847 
L 124.97742 193.860295 
L 127.340663 193.699643 
L 129.703906 193.331089 
L 132.06715 193.368889 
L 134.430393 193.104286 
L 136.793636 192.915284 
L 139.15688 192.735732 
L 141.520123 192.660131 
L 143.883366 192.480579 
L 146.24661 192.348277 
L 148.609853 192.234876 
L 150.973097 191.828521 
L 153.33634 191.800171 
L 155.699583 191.431617 
L 158.062827 191.327665 
L 160.42607 191.091413 
L 162.789313 190.987461 
L 165.152557 190.968561 
L 167.5158 190.694508 
L 169.879044 190.751209 
L 172.242287 190.344854 
L 174.60553 190.155852 
L 176.968774 190.061351 
L 179.332017 189.900699 
L 181.69526 189.910149 
L 184.058504 189.447093 
L 186.421747 189.796748 
L 188.784991 189.295892 
L 191.148234 189.210841 
L 193.511477 189.258091 
L 195.874721 188.927337 
L 198.237964 189.059639 
L 200.601207 188.776136 
" clip-path="url(#p273b3f9fd1)" style="fill: none; stroke: #b0c4de; stroke-width: 2; stroke-linecap: square"/>
   </g>
   <g id="line2d_11">
    <path d="M 58.806605 201.401482 
L 61.169848 201.004578 
L 63.533092 200.645474 
L 65.896335 200.163518 
L 68.259579 199.813864 
L 70.622822 199.379159 
L 72.986065 198.840503 
L 75.349309 198.670401 
L 77.712552 198.358547 
L 80.075795 197.942742 
L 82.439039 197.706489 
L 84.802282 197.489137 
L 87.165526 196.90323 
L 89.528769 196.827629 
L 91.892012 196.487425 
L 94.255256 196.232272 
L 96.618499 195.797567 
L 98.981742 195.788117 
L 101.344986 195.268361 
L 103.708229 195.022658 
L 106.071473 194.776955 
L 108.434716 194.493452 
L 110.797959 194.3139 
L 113.161203 194.181598 
L 115.524446 193.992596 
L 117.887689 193.520091 
L 120.250933 193.359439 
L 122.614176 193.075936 
L 124.97742 192.773532 
L 127.340663 192.60343 
L 129.703906 192.499479 
L 132.06715 192.452228 
L 134.430393 192.206526 
L 136.793636 192.064774 
L 139.15688 191.904122 
L 141.520123 191.77182 
L 143.883366 191.365466 
L 146.24661 191.100863 
L 148.609853 190.996911 
L 150.973097 190.88351 
L 153.33634 190.798459 
L 155.699583 190.448805 
L 158.062827 190.486606 
L 160.42607 190.033 
L 162.789313 189.938499 
L 165.152557 189.617195 
L 167.5158 189.532144 
L 169.879044 189.626646 
L 172.242287 189.191941 
L 174.60553 189.12579 
L 176.968774 188.955688 
L 179.332017 188.785586 
L 181.69526 188.331981 
L 184.058504 188.464282 
L 186.421747 188.209129 
L 188.784991 188.190229 
L 191.148234 188.142978 
L 193.511477 187.963426 
L 195.874721 187.906726 
L 198.237964 187.585422 
L 200.601207 187.613772 
" clip-path="url(#p273b3f9fd1)" style="fill: none; stroke: #4169e1; stroke-width: 2; stroke-linecap: square"/>
   </g>
   <g id="line2d_12">
    <path d="M 58.806605 201.325882 
L 61.169848 200.777775 
L 63.533092 200.428121 
L 65.896335 200.229669 
L 68.259579 200.069017 
L 70.622822 199.596511 
L 72.986065 199.180707 
L 75.349309 198.887753 
L 77.712552 198.424698 
L 80.075795 198.084494 
L 82.439039 197.76319 
L 84.802282 197.356835 
L 87.165526 196.92213 
L 89.528769 196.752028 
L 91.892012 196.326773 
L 94.255256 196.00547 
L 96.618499 195.570765 
L 98.981742 195.381762 
L 101.344986 194.814756 
L 103.708229 194.361151 
L 106.071473 194.219399 
L 108.434716 193.709093 
L 110.797959 193.302738 
L 113.161203 193.066486 
L 115.524446 192.63178 
L 117.887689 192.234876 
L 120.250933 191.866322 
L 122.614176 191.819071 
L 124.97742 191.582818 
L 127.340663 191.393816 
L 129.703906 190.798459 
L 132.06715 190.85516 
L 134.430393 190.505506 
L 136.793636 190.335404 
L 139.15688 189.9952 
L 141.520123 189.673896 
L 143.883366 189.418743 
L 146.24661 189.276991 
L 148.609853 188.776136 
L 150.973097 188.634384 
L 153.33634 188.407581 
L 155.699583 188.114628 
L 158.062827 187.868925 
L 160.42607 187.39642 
L 162.789313 187.197967 
L 165.152557 186.914464 
L 167.5158 186.630961 
L 169.879044 186.508109 
L 172.242287 185.941103 
L 174.60553 185.950553 
L 176.968774 185.7332 
L 179.332017 185.402446 
L 181.69526 185.118943 
L 184.058504 184.693688 
L 186.421747 184.504686 
L 188.784991 184.533036 
L 191.148234 184.277883 
L 193.511477 184.221183 
L 195.874721 183.880979 
L 198.237964 183.465174 
L 200.601207 183.238371 
" clip-path="url(#p273b3f9fd1)" style="fill: none; stroke: #191970; stroke-width: 2; stroke-linecap: square"/>
   </g>
   <g id="patch_3">
    <path d="M 51.716875 205.068125 
L 51.716875 49.094062 
" style="fill: none; stroke: #000000; stroke-width: 0.8; stroke-linejoin: miter; stroke-linecap: square"/>
   </g>
   <g id="patch_4">
    <path d="M 51.716875 205.068125 
L 207.690938 205.068125 
" style="fill: none; stroke: #000000; stroke-width: 0.8; stroke-linejoin: miter; stroke-linecap: square"/>
   </g>
   <g id="text_12">
    <!-- vRNA = 0fM -->
    <g transform="translate(96.239844 43.094062)scale(0.1 -0.1)">
     <defs>
      <path id="DejaVuSans-Bold-76" d="M 97 3500 
L 1216 3500 
L 2088 1081 
L 2956 3500 
L 4078 3500 
L 2700 0 
L 1472 0 
L 97 3500 
z
" transform="scale(0.015625)"/>
      <path id="DejaVuSans-Bold-52" d="M 2297 2597 
Q 2675 2597 2839 2737 
Q 3003 2878 3003 3200 
Q 3003 3519 2839 3656 
Q 2675 3794 2297 3794 
L 1791 3794 
L 1791 2597 
L 2297 2597 
z
M 1791 1766 
L 1791 0 
L 588 0 
L 588 4666 
L 2425 4666 
Q 3347 4666 3776 4356 
Q 4206 4047 4206 3378 
Q 4206 2916 3982 2619 
Q 3759 2322 3309 2181 
Q 3556 2125 3751 1926 
Q 3947 1728 4147 1325 
L 4800 0 
L 3519 0 
L 2950 1159 
Q 2778 1509 2601 1637 
Q 2425 1766 2131 1766 
L 1791 1766 
z
" transform="scale(0.015625)"/>
      <path id="DejaVuSans-Bold-4e" d="M 588 4666 
L 1931 4666 
L 3628 1466 
L 3628 4666 
L 4769 4666 
L 4769 0 
L 3425 0 
L 1728 3200 
L 1728 0 
L 588 0 
L 588 4666 
z
" transform="scale(0.015625)"/>
      <path id="DejaVuSans-Bold-41" d="M 3419 850 
L 1538 850 
L 1241 0 
L 31 0 
L 1759 4666 
L 3194 4666 
L 4922 0 
L 3713 0 
L 3419 850 
z
M 1838 1716 
L 3116 1716 
L 2478 3572 
L 1838 1716 
z
" transform="scale(0.015625)"/>
      <path id="DejaVuSans-Bold-20" transform="scale(0.015625)"/>
      <path id="DejaVuSans-Bold-3d" d="M 678 3084 
L 4684 3084 
L 4684 2350 
L 678 2350 
L 678 3084 
z
M 678 1663 
L 4684 1663 
L 4684 922 
L 678 922 
L 678 1663 
z
" transform="scale(0.015625)"/>
      <path id="DejaVuSans-Bold-30" d="M 2944 2338 
Q 2944 3213 2780 3570 
Q 2616 3928 2228 3928 
Q 1841 3928 1675 3570 
Q 1509 3213 1509 2338 
Q 1509 1453 1675 1090 
Q 1841 728 2228 728 
Q 2613 728 2778 1090 
Q 2944 1453 2944 2338 
z
M 4147 2328 
Q 4147 1169 3647 539 
Q 3147 -91 2228 -91 
Q 1306 -91 806 539 
Q 306 1169 306 2328 
Q 306 3491 806 4120 
Q 1306 4750 2228 4750 
Q 3147 4750 3647 4120 
Q 4147 3491 4147 2328 
z
" transform="scale(0.015625)"/>
      <path id="DejaVuSans-Bold-66" d="M 2841 4863 
L 2841 4128 
L 2222 4128 
Q 1984 4128 1890 4042 
Q 1797 3956 1797 3744 
L 1797 3500 
L 2753 3500 
L 2753 2700 
L 1797 2700 
L 1797 0 
L 678 0 
L 678 2700 
L 122 2700 
L 122 3500 
L 678 3500 
L 678 3744 
Q 678 4316 997 4589 
Q 1316 4863 1984 4863 
L 2841 4863 
z
" transform="scale(0.015625)"/>
      <path id="DejaVuSans-Bold-4d" d="M 588 4666 
L 2119 4666 
L 3181 2169 
L 4250 4666 
L 5778 4666 
L 5778 0 
L 4641 0 
L 4641 3413 
L 3566 897 
L 2803 897 
L 1728 3413 
L 1728 0 
L 588 0 
L 588 4666 
z
" transform="scale(0.015625)"/>
     </defs>
     <use xlink:href="#DejaVuSans-Bold-76"/>
     <use xlink:href="#DejaVuSans-Bold-52" x="65.185547"/>
     <use xlink:href="#DejaVuSans-Bold-4e" x="142.1875"/>
     <use xlink:href="#DejaVuSans-Bold-41" x="225.878906"/>
     <use xlink:href="#DejaVuSans-Bold-20" x="303.271484"/>
     <use xlink:href="#DejaVuSans-Bold-3d" x="338.085938"/>
     <use xlink:href="#DejaVuSans-Bold-20" x="421.875"/>
     <use xlink:href="#DejaVuSans-Bold-30" x="456.689453"/>
     <use xlink:href="#DejaVuSans-Bold-66" x="526.269531"/>
     <use xlink:href="#DejaVuSans-Bold-4d" x="569.775391"/>
    </g>
   </g>
   <g id="legend_1">
    <g id="patch_5">
     <path d="M 130.915938 101.128437 
L 200.690938 101.128437 
Q 202.690938 101.128437 202.690938 99.128437 
L 202.690938 56.094062 
Q 202.690938 54.094062 200.690938 54.094062 
L 130.915938 54.094062 
Q 128.915938 54.094062 128.915938 56.094062 
L 128.915938 99.128437 
Q 128.915938 101.128437 130.915938 101.128437 
z
" style="fill: #ffffff; opacity: 0.8; stroke: #cccccc; stroke-linejoin: miter"/>
    </g>
    <g id="line2d_13">
     <path d="M 132.915938 62.1925 
L 142.915938 62.1925 
L 152.915938 62.1925 
" style="fill: none; stroke: #b0c4de; stroke-width: 2; stroke-linecap: square"/>
    </g>
    <g id="text_13">
     <!-- RT 0.5 -->
     <g transform="translate(160.915938 65.6925)scale(0.1 -0.1)">
      <defs>
       <path id="DejaVuSans-52" d="M 2841 2188 
Q 3044 2119 3236 1894 
Q 3428 1669 3622 1275 
L 4263 0 
L 3584 0 
L 2988 1197 
Q 2756 1666 2539 1819 
Q 2322 1972 1947 1972 
L 1259 1972 
L 1259 0 
L 628 0 
L 628 4666 
L 2053 4666 
Q 2853 4666 3247 4331 
Q 3641 3997 3641 3322 
Q 3641 2881 3436 2590 
Q 3231 2300 2841 2188 
z
M 1259 4147 
L 1259 2491 
L 2053 2491 
Q 2509 2491 2742 2702 
Q 2975 2913 2975 3322 
Q 2975 3731 2742 3939 
Q 2509 4147 2053 4147 
L 1259 4147 
z
" transform="scale(0.015625)"/>
       <path id="DejaVuSans-35" d="M 691 4666 
L 3169 4666 
L 3169 4134 
L 1269 4134 
L 1269 2991 
Q 1406 3038 1543 3061 
Q 1681 3084 1819 3084 
Q 2600 3084 3056 2656 
Q 3513 2228 3513 1497 
Q 3513 744 3044 326 
Q 2575 -91 1722 -91 
Q 1428 -91 1123 -41 
Q 819 9 494 109 
L 494 744 
Q 775 591 1075 516 
Q 1375 441 1709 441 
Q 2250 441 2565 725 
Q 2881 1009 2881 1497 
Q 2881 1984 2565 2268 
Q 2250 2553 1709 2553 
Q 1456 2553 1204 2497 
Q 953 2441 691 2322 
L 691 4666 
z
" transform="scale(0.015625)"/>
      </defs>
      <use xlink:href="#DejaVuSans-52"/>
      <use xlink:href="#DejaVuSans-54" x="62.232422"/>
      <use xlink:href="#DejaVuSans-20" x="123.316406"/>
      <use xlink:href="#DejaVuSans-30" x="155.103516"/>
      <use xlink:href="#DejaVuSans-2e" x="218.726562"/>
      <use xlink:href="#DejaVuSans-35" x="250.513672"/>
     </g>
    </g>
    <g id="line2d_14">
     <path d="M 132.915938 76.870625 
L 142.915938 76.870625 
L 152.915938 76.870625 
" style="fill: none; stroke: #4169e1; stroke-width: 2; stroke-linecap: square"/>
    </g>
    <g id="text_14">
     <!-- RT 2.5 -->
     <g transform="translate(160.915938 80.370625)scale(0.1 -0.1)">
      <use xlink:href="#DejaVuSans-52"/>
      <use xlink:href="#DejaVuSans-54" x="62.232422"/>
      <use xlink:href="#DejaVuSans-20" x="123.316406"/>
      <use xlink:href="#DejaVuSans-32" x="155.103516"/>
      <use xlink:href="#DejaVuSans-2e" x="218.726562"/>
      <use xlink:href="#DejaVuSans-35" x="250.513672"/>
     </g>
    </g>
    <g id="line2d_15">
     <path d="M 132.915938 91.54875 
L 142.915938 91.54875 
L 152.915938 91.54875 
" style="fill: none; stroke: #191970; stroke-width: 2; stroke-linecap: square"/>
    </g>
    <g id="text_15">
     <!-- RT 10.0 -->
     <g transform="translate(160.915938 95.04875)scale(0.1 -0.1)">
      <use xlink:href="#DejaVuSans-52"/>
      <use xlink:href="#DejaVuSans-54" x="62.232422"/>
      <use xlink:href="#DejaVuSans-20" x="123.316406"/>
      <use xlink:href="#DejaVuSans-31" x="155.103516"/>
      <use xlink:href="#DejaVuSans-30" x="218.726562"/>
      <use xlink:href="#DejaVuSans-2e" x="282.349609"/>
      <use xlink:href="#DejaVuSans-30" x="314.136719"/>
     </g>
    </g>
   </g>
  </g>
  <g id="axes_2">
   <g id="patch_6">
    <path d="M 335.65267 205.068125 
L 491.626733 205.068125 
L 491.626733 49.094062 
L 335.65267 49.094062 
z
" style="fill: #ffffff"/>
   </g>
   <g id="PolyCollection_4">
    <defs>
     <path id="m6d56313aa7" d="M 342.742401 -49.093874 
L 342.742401 -48.618354 
L 345.105644 -48.9908 
L 347.468887 -49.075199 
L 349.832131 -49.554832 
L 352.195374 -49.680961 
L 354.558617 -50.040474 
L 356.921861 -50.432722 
L 359.285104 -50.967743 
L 361.648348 -51.096027 
L 364.011591 -51.400096 
L 366.374834 -51.621265 
L 368.738078 -51.888875 
L 371.101321 -51.899049 
L 373.464564 -52.473415 
L 375.827808 -52.648705 
L 378.191051 -52.770964 
L 380.554295 -53.271048 
L 382.917538 -53.404268 
L 385.280781 -53.518391 
L 387.644025 -53.793672 
L 390.007268 -53.854485 
L 392.370511 -54.216831 
L 394.733755 -54.688564 
L 397.096998 -54.855373 
L 399.460241 -54.862287 
L 401.823485 -55.176677 
L 404.186728 -55.449576 
L 406.549972 -55.607477 
L 408.913215 -55.775406 
L 411.276458 -56.183317 
L 413.639702 -56.419006 
L 416.002945 -56.376055 
L 418.366188 -56.940468 
L 420.729432 -57.059046 
L 423.092675 -57.062202 
L 425.455919 -57.53076 
L 427.819162 -57.830597 
L 430.182405 -57.972788 
L 432.545649 -58.342464 
L 434.908892 -58.529645 
L 437.272135 -58.804051 
L 439.635379 -58.686217 
L 441.998622 -59.047876 
L 444.361866 -59.42193 
L 446.725109 -59.254547 
L 449.088352 -59.70021 
L 451.451596 -59.561267 
L 453.814839 -59.825808 
L 456.178082 -59.701251 
L 458.541326 -60.285883 
L 460.904569 -60.436961 
L 463.267813 -60.423285 
L 465.631056 -60.556889 
L 467.994299 -60.695696 
L 470.357543 -60.788858 
L 472.720786 -60.905382 
L 475.084029 -60.715143 
L 477.447273 -61.063834 
L 479.810516 -61.338922 
L 482.173759 -61.036484 
L 484.537003 -61.597232 
L 484.537003 -62.3107 
L 484.537003 -62.3107 
L 482.173759 -62.342242 
L 479.810516 -62.361108 
L 477.447273 -61.899087 
L 475.084029 -62.172177 
L 472.720786 -61.849637 
L 470.357543 -61.474756 
L 467.994299 -61.586817 
L 465.631056 -61.30982 
L 463.267813 -60.800817 
L 460.904569 -60.692639 
L 458.541326 -60.768116 
L 456.178082 -60.899143 
L 453.814839 -60.396582 
L 451.451596 -60.39652 
L 449.088352 -59.936273 
L 446.725109 -59.682628 
L 444.361866 -59.571946 
L 441.998622 -59.416793 
L 439.635379 -59.268147 
L 437.272135 -59.131412 
L 434.908892 -58.74431 
L 432.545649 -58.515687 
L 430.182405 -58.375057 
L 427.819162 -58.177044 
L 425.455919 -57.853174 
L 423.092675 -57.716925 
L 420.729432 -57.436577 
L 418.366188 -57.252751 
L 416.002945 -56.720952 
L 413.639702 -56.734702 
L 411.276458 -56.365584 
L 408.913215 -56.41439 
L 406.549972 -55.939712 
L 404.186728 -55.81411 
L 401.823485 -55.3499 
L 399.460241 -55.324087 
L 397.096998 -55.028597 
L 394.733755 -54.893002 
L 392.370511 -54.570926 
L 390.007268 -54.460767 
L 387.644025 -54.332577 
L 385.280781 -54.097552 
L 382.917538 -54.041573 
L 380.554295 -53.475485 
L 378.191051 -53.125059 
L 375.827808 -53.020516 
L 373.464564 -52.987904 
L 371.101321 -52.636158 
L 368.738078 -52.136027 
L 366.374834 -51.912231 
L 364.011591 -51.679794 
L 361.648348 -51.473558 
L 359.285104 -51.110436 
L 356.921861 -50.605945 
L 354.558617 -50.412286 
L 352.195374 -50.110291 
L 349.832131 -50.009617 
L 347.468887 -49.279636 
L 345.105644 -49.250635 
L 342.742401 -49.093874 
z
" style="stroke: #b0c4de; stroke-opacity: 0.2"/>
    </defs>
    <g clip-path="url(#p4bdb98b4e9)">
     <use xlink:href="#m6d56313aa7" x="0" y="250.56" style="fill: #b0c4de; fill-opacity: 0.2; stroke: #b0c4de; stroke-opacity: 0.2"/>
    </g>
   </g>
   <g id="PolyCollection_5">
    <defs>
     <path id="m2d884a5acd" d="M 342.742401 -49.602673 
L 342.742401 -49.319169 
L 345.105644 -49.320948 
L 347.468887 -49.591741 
L 349.832131 -49.918206 
L 352.195374 -50.324489 
L 354.558617 -50.818211 
L 356.921861 -50.949338 
L 359.285104 -51.239535 
L 361.648348 -51.883951 
L 364.011591 -52.376323 
L 366.374834 -52.647511 
L 368.738078 -52.883835 
L 371.101321 -53.188066 
L 373.464564 -53.487898 
L 375.827808 -54.099212 
L 378.191051 -54.300201 
L 380.554295 -54.49677 
L 382.917538 -54.964092 
L 385.280781 -55.497864 
L 387.644025 -55.695867 
L 390.007268 -56.022906 
L 392.370511 -56.312712 
L 394.733755 -56.844934 
L 397.096998 -56.708877 
L 399.460241 -57.196702 
L 401.823485 -57.658767 
L 404.186728 -58.084801 
L 406.549972 -58.306224 
L 408.913215 -58.420086 
L 411.276458 -58.625177 
L 413.639702 -59.319918 
L 416.002945 -59.372911 
L 418.366188 -59.276094 
L 420.729432 -59.558206 
L 423.092675 -59.793259 
L 425.455919 -59.888903 
L 427.819162 -60.06587 
L 430.182405 -60.327606 
L 432.545649 -60.544829 
L 434.908892 -60.70343 
L 437.272135 -60.60577 
L 439.635379 -61.022992 
L 441.998622 -61.154788 
L 444.361866 -61.656915 
L 446.725109 -61.649437 
L 449.088352 -61.781345 
L 451.451596 -62.420966 
L 453.814839 -62.376189 
L 456.178082 -62.195486 
L 458.541326 -62.860587 
L 460.904569 -62.715328 
L 463.267813 -62.787223 
L 465.631056 -63.167189 
L 467.994299 -63.262668 
L 470.357543 -63.204074 
L 472.720786 -63.337955 
L 475.084029 -63.553579 
L 477.447273 -63.592018 
L 479.810516 -63.631999 
L 482.173759 -64.470507 
L 484.537003 -64.079769 
L 484.537003 -64.64772 
L 484.537003 -64.64772 
L 482.173759 -64.880689 
L 479.810516 -64.925387 
L 477.447273 -64.795266 
L 475.084029 -64.3234 
L 472.720786 -64.671325 
L 470.357543 -64.030297 
L 467.994299 -63.744901 
L 465.631056 -63.708078 
L 463.267813 -63.653339 
L 460.904569 -63.177128 
L 458.541326 -63.315372 
L 456.178082 -63.224464 
L 453.814839 -62.968161 
L 451.451596 -62.507578 
L 449.088352 -62.599093 
L 446.725109 -62.239596 
L 444.361866 -62.118716 
L 441.998622 -62.091637 
L 439.635379 -61.505225 
L 437.272135 -61.109737 
L 434.908892 -61.049877 
L 432.545649 -60.962776 
L 430.182405 -60.612993 
L 427.819162 -60.666826 
L 425.455919 -60.201186 
L 423.092675 -59.975526 
L 420.729432 -59.983776 
L 418.366188 -59.944585 
L 416.002945 -59.602064 
L 413.639702 -59.352654 
L 411.276458 -59.083483 
L 408.913215 -59.194073 
L 406.549972 -58.533027 
L 404.186728 -58.527647 
L 401.823485 -58.197672 
L 399.460241 -58.149431 
L 397.096998 -57.673344 
L 394.733755 -57.329385 
L 392.370511 -57.086698 
L 390.007268 -56.563795 
L 387.644025 -56.286027 
L 385.280781 -55.765821 
L 382.917538 -55.656986 
L 380.554295 -55.425 
L 378.191051 -54.733259 
L 375.827808 -54.726346 
L 373.464564 -54.430449 
L 371.101321 -53.84197 
L 368.738078 -53.560294 
L 366.374834 -52.927209 
L 364.011591 -52.895993 
L 361.648348 -52.537855 
L 359.285104 -52.312861 
L 356.921861 -51.86595 
L 354.558617 -51.50567 
L 352.195374 -50.865379 
L 349.832131 -50.666855 
L 347.468887 -50.256212 
L 345.105644 -49.770996 
L 342.742401 -49.602673 
z
" style="stroke: #4169e1; stroke-opacity: 0.2"/>
    </defs>
    <g clip-path="url(#p4bdb98b4e9)">
     <use xlink:href="#m2d884a5acd" x="0" y="250.56" style="fill: #4169e1; fill-opacity: 0.2; stroke: #4169e1; stroke-opacity: 0.2"/>
    </g>
   </g>
   <g id="PolyCollection_6">
    <defs>
     <path id="mbb92b51ce3" d="M 342.742401 -49.573644 
L 342.742401 -49.442699 
L 345.105644 -49.432571 
L 347.468887 -49.821928 
L 349.832131 -49.983481 
L 352.195374 -50.038687 
L 354.558617 -50.708336 
L 356.921861 -50.828889 
L 359.285104 -51.152127 
L 361.648348 -51.53062 
L 364.011591 -51.629355 
L 366.374834 -52.010104 
L 368.738078 -52.264589 
L 371.101321 -52.636158 
L 373.464564 -52.603025 
L 375.827808 -52.939132 
L 378.191051 -52.978471 
L 380.554295 -53.261542 
L 382.917538 -53.84934 
L 385.280781 -53.957417 
L 387.644025 -54.408711 
L 390.007268 -54.577856 
L 392.370511 -54.545721 
L 394.733755 -54.974143 
L 397.096998 -55.244917 
L 399.460241 -55.390036 
L 401.823485 -55.6883 
L 404.186728 -55.943017 
L 406.549972 -56.130391 
L 408.913215 -56.027236 
L 411.276458 -56.081914 
L 413.639702 -56.713516 
L 416.002945 -56.815938 
L 418.366188 -57.220076 
L 420.729432 -57.134774 
L 423.092675 -57.318191 
L 425.455919 -57.151219 
L 427.819162 -57.358973 
L 430.182405 -57.377597 
L 432.545649 -57.652585 
L 434.908892 -57.669691 
L 437.272135 -58.118449 
L 439.635379 -58.113273 
L 441.998622 -58.406093 
L 444.361866 -58.689572 
L 446.725109 -58.497682 
L 449.088352 -58.940214 
L 451.451596 -59.113734 
L 453.814839 -59.396102 
L 456.178082 -59.430746 
L 458.541326 -59.031315 
L 460.904569 -59.522175 
L 463.267813 -59.343496 
L 465.631056 -59.36422 
L 467.994299 -60.119196 
L 470.357543 -60.167331 
L 472.720786 -59.869038 
L 475.084029 -60.016363 
L 477.447273 -60.140763 
L 479.810516 -60.031355 
L 482.173759 -60.163067 
L 484.537003 -60.546594 
L 484.537003 -66.460974 
L 484.537003 -66.460974 
L 482.173759 -65.975092 
L 479.810516 -66.144604 
L 477.447273 -65.713892 
L 475.084029 -65.68709 
L 472.720786 -65.532012 
L 470.357543 -65.233719 
L 467.994299 -65.111752 
L 465.631056 -64.940617 
L 463.267813 -64.84794 
L 460.904569 -64.688162 
L 458.541326 -64.007208 
L 456.178082 -63.758979 
L 453.814839 -64.209428 
L 451.451596 -63.584585 
L 449.088352 -63.550202 
L 446.725109 -63.331226 
L 444.361866 -62.912534 
L 441.998622 -62.610106 
L 439.635379 -62.165817 
L 437.272135 -62.481945 
L 434.908892 -62.250295 
L 432.545649 -62.002798 
L 430.182405 -61.710779 
L 427.819162 -61.786105 
L 425.455919 -61.124448 
L 423.092675 -60.692873 
L 420.729432 -60.328184 
L 418.366188 -59.978278 
L 416.002945 -59.683108 
L 413.639702 -59.596528 
L 411.276458 -59.698924 
L 408.913215 -59.337797 
L 406.549972 -58.686536 
L 404.186728 -58.968411 
L 401.823485 -58.618321 
L 399.460241 -58.273977 
L 397.096998 -57.946591 
L 394.733755 -57.385755 
L 392.370511 -56.774665 
L 390.007268 -56.591328 
L 387.644025 -55.664261 
L 385.280781 -55.586349 
L 382.917538 -55.297521 
L 380.554295 -54.751306 
L 378.191051 -54.542971 
L 375.827808 -54.034204 
L 373.464564 -53.765504 
L 371.101321 -52.919661 
L 368.738078 -53.215629 
L 366.374834 -52.355001 
L 364.011591 -52.301045 
L 361.648348 -52.248579 
L 359.285104 -51.889963 
L 356.921861 -51.608394 
L 354.558617 -50.765036 
L 352.195374 -50.924379 
L 349.832131 -50.299177 
L 347.468887 -50.101626 
L 345.105644 -49.716074 
L 342.742401 -49.573644 
z
" style="stroke: #191970; stroke-opacity: 0.2"/>
    </defs>
    <g clip-path="url(#p4bdb98b4e9)">
     <use xlink:href="#mbb92b51ce3" x="0" y="250.56" style="fill: #191970; fill-opacity: 0.2; stroke: #191970; stroke-opacity: 0.2"/>
    </g>
   </g>
   <g id="matplotlib.axis_3">
    <g id="xtick_4">
     <g id="line2d_16">
      <g>
       <use xlink:href="#mda025d4a66" x="342.742401" y="205.068125" style="stroke: #000000; stroke-width: 0.8"/>
      </g>
     </g>
     <g id="text_16">
      <!-- 0 -->
      <g transform="translate(339.561151 219.666562)scale(0.1 -0.1)">
       <use xlink:href="#DejaVuSans-30"/>
      </g>
     </g>
    </g>
    <g id="xtick_5">
     <g id="line2d_17">
      <g>
       <use xlink:href="#mda025d4a66" x="401.823485" y="205.068125" style="stroke: #000000; stroke-width: 0.8"/>
      </g>
     </g>
     <g id="text_17">
      <!-- 100 -->
      <g transform="translate(392.279735 219.666562)scale(0.1 -0.1)">
       <use xlink:href="#DejaVuSans-31"/>
       <use xlink:href="#DejaVuSans-30" x="63.623047"/>
       <use xlink:href="#DejaVuSans-30" x="127.246094"/>
      </g>
     </g>
    </g>
    <g id="xtick_6">
     <g id="line2d_18">
      <g>
       <use xlink:href="#mda025d4a66" x="460.904569" y="205.068125" style="stroke: #000000; stroke-width: 0.8"/>
      </g>
     </g>
     <g id="text_18">
      <!-- 200 -->
      <g transform="translate(451.360819 219.666562)scale(0.1 -0.1)">
       <use xlink:href="#DejaVuSans-32"/>
       <use xlink:href="#DejaVuSans-30" x="63.623047"/>
       <use xlink:href="#DejaVuSans-30" x="127.246094"/>
      </g>
     </g>
    </g>
    <g id="text_19">
     <!-- Time (min) -->
     <g transform="translate(381.056889 240.864375)scale(0.12 -0.12)">
      <use xlink:href="#DejaVuSans-54"/>
      <use xlink:href="#DejaVuSans-69" x="57.958984"/>
      <use xlink:href="#DejaVuSans-6d" x="85.742188"/>
      <use xlink:href="#DejaVuSans-65" x="183.154297"/>
      <use xlink:href="#DejaVuSans-20" x="244.677734"/>
      <use xlink:href="#DejaVuSans-28" x="276.464844"/>
      <use xlink:href="#DejaVuSans-6d" x="315.478516"/>
      <use xlink:href="#DejaVuSans-69" x="412.890625"/>
      <use xlink:href="#DejaVuSans-6e" x="440.673828"/>
      <use xlink:href="#DejaVuSans-29" x="504.052734"/>
     </g>
    </g>
   </g>
   <g id="matplotlib.axis_4">
    <g id="ytick_7">
     <g id="line2d_19">
      <g>
       <use xlink:href="#m4c7e6dacb3" x="335.65267" y="205.068125" style="stroke: #000000; stroke-width: 0.8"/>
      </g>
     </g>
     <g id="text_20">
      <!-- 0.0 -->
      <g transform="translate(312.749545 208.867344)scale(0.1 -0.1)">
       <use xlink:href="#DejaVuSans-30"/>
       <use xlink:href="#DejaVuSans-2e" x="63.623047"/>
       <use xlink:href="#DejaVuSans-30" x="95.410156"/>
      </g>
     </g>
    </g>
    <g id="ytick_8">
     <g id="line2d_20">
      <g>
       <use xlink:href="#m4c7e6dacb3" x="335.65267" y="173.873312" style="stroke: #000000; stroke-width: 0.8"/>
      </g>
     </g>
     <g id="text_21">
      <!-- 0.2 -->
      <g transform="translate(312.749545 177.672531)scale(0.1 -0.1)">
       <use xlink:href="#DejaVuSans-30"/>
       <use xlink:href="#DejaVuSans-2e" x="63.623047"/>
       <use xlink:href="#DejaVuSans-32" x="95.410156"/>
      </g>
     </g>
    </g>
    <g id="ytick_9">
     <g id="line2d_21">
      <g>
       <use xlink:href="#m4c7e6dacb3" x="335.65267" y="142.6785" style="stroke: #000000; stroke-width: 0.8"/>
      </g>
     </g>
     <g id="text_22">
      <!-- 0.4 -->
      <g transform="translate(312.749545 146.477719)scale(0.1 -0.1)">
       <use xlink:href="#DejaVuSans-30"/>
       <use xlink:href="#DejaVuSans-2e" x="63.623047"/>
       <use xlink:href="#DejaVuSans-34" x="95.410156"/>
      </g>
     </g>
    </g>
    <g id="ytick_10">
     <g id="line2d_22">
      <g>
       <use xlink:href="#m4c7e6dacb3" x="335.65267" y="111.483687" style="stroke: #000000; stroke-width: 0.8"/>
      </g>
     </g>
     <g id="text_23">
      <!-- 0.6 -->
      <g transform="translate(312.749545 115.282906)scale(0.1 -0.1)">
       <use xlink:href="#DejaVuSans-30"/>
       <use xlink:href="#DejaVuSans-2e" x="63.623047"/>
       <use xlink:href="#DejaVuSans-36" x="95.410156"/>
      </g>
     </g>
    </g>
    <g id="ytick_11">
     <g id="line2d_23">
      <g>
       <use xlink:href="#m4c7e6dacb3" x="335.65267" y="80.288875" style="stroke: #000000; stroke-width: 0.8"/>
      </g>
     </g>
     <g id="text_24">
      <!-- 0.8 -->
      <g transform="translate(312.749545 84.088094)scale(0.1 -0.1)">
       <use xlink:href="#DejaVuSans-30"/>
       <use xlink:href="#DejaVuSans-2e" x="63.623047"/>
       <use xlink:href="#DejaVuSans-38" x="95.410156"/>
      </g>
     </g>
    </g>
    <g id="ytick_12">
     <g id="line2d_24">
      <g>
       <use xlink:href="#m4c7e6dacb3" x="335.65267" y="49.094062" style="stroke: #000000; stroke-width: 0.8"/>
      </g>
     </g>
     <g id="text_25">
      <!-- 1.0 -->
      <g transform="translate(312.749545 52.893281)scale(0.1 -0.1)">
       <use xlink:href="#DejaVuSans-31"/>
       <use xlink:href="#DejaVuSans-2e" x="63.623047"/>
       <use xlink:href="#DejaVuSans-30" x="95.410156"/>
      </g>
     </g>
    </g>
    <g id="text_26">
     <!-- Normalized exp output -->
     <g transform="translate(300.25392 195.658281)rotate(-90)scale(0.12 -0.12)">
      <use xlink:href="#DejaVuSans-4e"/>
      <use xlink:href="#DejaVuSans-6f" x="74.804688"/>
      <use xlink:href="#DejaVuSans-72" x="135.986328"/>
      <use xlink:href="#DejaVuSans-6d" x="175.349609"/>
      <use xlink:href="#DejaVuSans-61" x="272.761719"/>
      <use xlink:href="#DejaVuSans-6c" x="334.041016"/>
      <use xlink:href="#DejaVuSans-69" x="361.824219"/>
      <use xlink:href="#DejaVuSans-7a" x="389.607422"/>
      <use xlink:href="#DejaVuSans-65" x="442.097656"/>
      <use xlink:href="#DejaVuSans-64" x="503.621094"/>
      <use xlink:href="#DejaVuSans-20" x="567.097656"/>
      <use xlink:href="#DejaVuSans-65" x="598.884766"/>
      <use xlink:href="#DejaVuSans-78" x="658.658203"/>
      <use xlink:href="#DejaVuSans-70" x="717.837891"/>
      <use xlink:href="#DejaVuSans-20" x="781.314453"/>
      <use xlink:href="#DejaVuSans-6f" x="813.101562"/>
      <use xlink:href="#DejaVuSans-75" x="874.283203"/>
      <use xlink:href="#DejaVuSans-74" x="937.662109"/>
      <use xlink:href="#DejaVuSans-70" x="976.871094"/>
      <use xlink:href="#DejaVuSans-75" x="1040.347656"/>
      <use xlink:href="#DejaVuSans-74" x="1103.726562"/>
     </g>
    </g>
   </g>
   <g id="line2d_25">
    <path d="M 342.742401 201.703886 
L 345.105644 201.439283 
L 347.468887 201.382582 
L 349.832131 200.777775 
L 352.195374 200.664374 
L 354.558617 200.33362 
L 356.921861 200.040667 
L 359.285104 199.520911 
L 361.648348 199.275208 
L 364.011591 199.020055 
L 366.374834 198.793252 
L 368.738078 198.547549 
L 371.101321 198.292396 
L 373.464564 197.829341 
L 375.827808 197.72539 
L 378.191051 197.611988 
L 380.554295 197.186733 
L 382.917538 196.837079 
L 385.280781 196.752028 
L 387.644025 196.496875 
L 390.007268 196.402374 
L 392.370511 196.166122 
L 394.733755 195.769217 
L 397.096998 195.618015 
L 399.460241 195.466813 
L 401.823485 195.296711 
L 404.186728 194.928157 
L 406.549972 194.786406 
L 408.913215 194.465102 
L 411.276458 194.28555 
L 413.639702 193.983146 
L 416.002945 194.011497 
L 418.366188 193.46339 
L 420.729432 193.312188 
L 423.092675 193.170437 
L 425.455919 192.868033 
L 427.819162 192.55618 
L 430.182405 192.386078 
L 432.545649 192.130925 
L 434.908892 191.923022 
L 437.272135 191.592268 
L 439.635379 191.582818 
L 441.998622 191.327665 
L 444.361866 191.063062 
L 446.725109 191.091413 
L 449.088352 190.741759 
L 451.451596 190.581107 
L 453.814839 190.448805 
L 456.178082 190.259803 
L 458.541326 190.033 
L 460.904569 189.9952 
L 463.267813 189.947949 
L 465.631056 189.626646 
L 467.994299 189.418743 
L 470.357543 189.428193 
L 472.720786 189.18249 
L 475.084029 189.11634 
L 477.447273 189.078539 
L 479.810516 188.709985 
L 482.173759 188.870637 
L 484.537003 188.606034 
" clip-path="url(#p4bdb98b4e9)" style="fill: none; stroke: #b0c4de; stroke-width: 2; stroke-linecap: square"/>
   </g>
   <g id="line2d_26">
    <path d="M 342.742401 201.099079 
L 345.105644 201.014028 
L 347.468887 200.636023 
L 349.832131 200.267469 
L 352.195374 199.965066 
L 354.558617 199.398059 
L 356.921861 199.152356 
L 359.285104 198.783802 
L 361.648348 198.349097 
L 364.011591 197.923842 
L 366.374834 197.77264 
L 368.738078 197.337935 
L 371.101321 197.044982 
L 373.464564 196.600827 
L 375.827808 196.147221 
L 378.191051 196.04327 
L 380.554295 195.599115 
L 382.917538 195.249461 
L 385.280781 194.928157 
L 387.644025 194.569053 
L 390.007268 194.266649 
L 392.370511 193.860295 
L 394.733755 193.47284 
L 397.096998 193.368889 
L 399.460241 192.886933 
L 401.823485 192.63178 
L 404.186728 192.253776 
L 406.549972 192.140375 
L 408.913215 191.75292 
L 411.276458 191.70567 
L 413.639702 191.223714 
L 416.002945 191.072512 
L 418.366188 190.949661 
L 420.729432 190.789009 
L 423.092675 190.675608 
L 425.455919 190.514956 
L 427.819162 190.193652 
L 430.182405 190.089701 
L 432.545649 189.806198 
L 434.908892 189.683346 
L 437.272135 189.702246 
L 439.635379 189.295892 
L 441.998622 188.936788 
L 444.361866 188.672184 
L 446.725109 188.615484 
L 449.088352 188.369781 
L 451.451596 188.095728 
L 453.814839 187.887825 
L 456.178082 187.850025 
L 458.541326 187.472021 
L 460.904569 187.613772 
L 463.267813 187.339719 
L 465.631056 187.122366 
L 467.994299 187.056216 
L 470.357543 186.942814 
L 472.720786 186.55536 
L 475.084029 186.621511 
L 477.447273 186.366358 
L 479.810516 186.281307 
L 482.173759 185.884402 
L 484.537003 186.196256 
" clip-path="url(#p4bdb98b4e9)" style="fill: none; stroke: #4169e1; stroke-width: 2; stroke-linecap: square"/>
   </g>
   <g id="line2d_27">
    <path d="M 342.742401 201.051828 
L 345.105644 200.985678 
L 347.468887 200.598223 
L 349.832131 200.418671 
L 352.195374 200.078467 
L 354.558617 199.823314 
L 356.921861 199.341358 
L 359.285104 199.038955 
L 361.648348 198.670401 
L 364.011591 198.5948 
L 366.374834 198.377447 
L 368.738078 197.819891 
L 371.101321 197.78209 
L 373.464564 197.375736 
L 375.827808 197.073332 
L 378.191051 196.799279 
L 380.554295 196.553576 
L 382.917538 195.986569 
L 385.280781 195.788117 
L 387.644025 195.523514 
L 390.007268 194.975408 
L 392.370511 194.899807 
L 394.733755 194.380051 
L 397.096998 193.964246 
L 399.460241 193.727993 
L 401.823485 193.406689 
L 404.186728 193.104286 
L 406.549972 193.151537 
L 408.913215 192.877483 
L 411.276458 192.669581 
L 413.639702 192.404978 
L 416.002945 192.310477 
L 418.366188 191.960823 
L 420.729432 191.828521 
L 423.092675 191.554468 
L 425.455919 191.422166 
L 427.819162 190.987461 
L 430.182405 191.015812 
L 432.545649 190.732308 
L 434.908892 190.600007 
L 437.272135 190.259803 
L 439.635379 190.420455 
L 441.998622 190.051901 
L 444.361866 189.758947 
L 446.725109 189.645546 
L 449.088352 189.314792 
L 451.451596 189.210841 
L 453.814839 188.757235 
L 456.178082 188.965138 
L 458.541326 189.040739 
L 460.904569 188.454832 
L 463.267813 188.464282 
L 465.631056 188.407581 
L 467.994299 187.944526 
L 470.357543 187.859475 
L 472.720786 187.859475 
L 475.084029 187.708273 
L 477.447273 187.632672 
L 479.810516 187.472021 
L 482.173759 187.490921 
L 484.537003 187.056216 
" clip-path="url(#p4bdb98b4e9)" style="fill: none; stroke: #191970; stroke-width: 2; stroke-linecap: square"/>
   </g>
   <g id="patch_7">
    <path d="M 335.65267 205.068125 
L 335.65267 49.094062 
" style="fill: none; stroke: #000000; stroke-width: 0.8; stroke-linejoin: miter; stroke-linecap: square"/>
   </g>
   <g id="patch_8">
    <path d="M 335.65267 205.068125 
L 491.626733 205.068125 
" style="fill: none; stroke: #000000; stroke-width: 0.8; stroke-linejoin: miter; stroke-linecap: square"/>
   </g>
   <g id="text_27">
    <!-- vRNA = 1fM -->
    <g transform="translate(380.175639 43.094062)scale(0.1 -0.1)">
     <defs>
      <path id="DejaVuSans-Bold-31" d="M 750 831 
L 1813 831 
L 1813 3847 
L 722 3622 
L 722 4441 
L 1806 4666 
L 2950 4666 
L 2950 831 
L 4013 831 
L 4013 0 
L 750 0 
L 750 831 
z
" transform="scale(0.015625)"/>
     </defs>
     <use xlink:href="#DejaVuSans-Bold-76"/>
     <use xlink:href="#DejaVuSans-Bold-52" x="65.185547"/>
     <use xlink:href="#DejaVuSans-Bold-4e" x="142.1875"/>
     <use xlink:href="#DejaVuSans-Bold-41" x="225.878906"/>
     <use xlink:href="#DejaVuSans-Bold-20" x="303.271484"/>
     <use xlink:href="#DejaVuSans-Bold-3d" x="338.085938"/>
     <use xlink:href="#DejaVuSans-Bold-20" x="421.875"/>
     <use xlink:href="#DejaVuSans-Bold-31" x="456.689453"/>
     <use xlink:href="#DejaVuSans-Bold-66" x="526.269531"/>
     <use xlink:href="#DejaVuSans-Bold-4d" x="569.775391"/>
    </g>
   </g>
   <g id="legend_2">
    <g id="patch_9">
     <path d="M 414.851733 101.128437 
L 484.626733 101.128437 
Q 486.626733 101.128437 486.626733 99.128437 
L 486.626733 56.094062 
Q 486.626733 54.094062 484.626733 54.094062 
L 414.851733 54.094062 
Q 412.851733 54.094062 412.851733 56.094062 
L 412.851733 99.128437 
Q 412.851733 101.128437 414.851733 101.128437 
z
" style="fill: #ffffff; opacity: 0.8; stroke: #cccccc; stroke-linejoin: miter"/>
    </g>
    <g id="line2d_28">
     <path d="M 416.851733 62.1925 
L 426.851733 62.1925 
L 436.851733 62.1925 
" style="fill: none; stroke: #b0c4de; stroke-width: 2; stroke-linecap: square"/>
    </g>
    <g id="text_28">
     <!-- RT 0.5 -->
     <g transform="translate(444.851733 65.6925)scale(0.1 -0.1)">
      <use xlink:href="#DejaVuSans-52"/>
      <use xlink:href="#DejaVuSans-54" x="62.232422"/>
      <use xlink:href="#DejaVuSans-20" x="123.316406"/>
      <use xlink:href="#DejaVuSans-30" x="155.103516"/>
      <use xlink:href="#DejaVuSans-2e" x="218.726562"/>
      <use xlink:href="#DejaVuSans-35" x="250.513672"/>
     </g>
    </g>
    <g id="line2d_29">
     <path d="M 416.851733 76.870625 
L 426.851733 76.870625 
L 436.851733 76.870625 
" style="fill: none; stroke: #4169e1; stroke-width: 2; stroke-linecap: square"/>
    </g>
    <g id="text_29">
     <!-- RT 2.5 -->
     <g transform="translate(444.851733 80.370625)scale(0.1 -0.1)">
      <use xlink:href="#DejaVuSans-52"/>
      <use xlink:href="#DejaVuSans-54" x="62.232422"/>
      <use xlink:href="#DejaVuSans-20" x="123.316406"/>
      <use xlink:href="#DejaVuSans-32" x="155.103516"/>
      <use xlink:href="#DejaVuSans-2e" x="218.726562"/>
      <use xlink:href="#DejaVuSans-35" x="250.513672"/>
     </g>
    </g>
    <g id="line2d_30">
     <path d="M 416.851733 91.54875 
L 426.851733 91.54875 
L 436.851733 91.54875 
" style="fill: none; stroke: #191970; stroke-width: 2; stroke-linecap: square"/>
    </g>
    <g id="text_30">
     <!-- RT 10.0 -->
     <g transform="translate(444.851733 95.04875)scale(0.1 -0.1)">
      <use xlink:href="#DejaVuSans-52"/>
      <use xlink:href="#DejaVuSans-54" x="62.232422"/>
      <use xlink:href="#DejaVuSans-20" x="123.316406"/>
      <use xlink:href="#DejaVuSans-31" x="155.103516"/>
      <use xlink:href="#DejaVuSans-30" x="218.726562"/>
      <use xlink:href="#DejaVuSans-2e" x="282.349609"/>
      <use xlink:href="#DejaVuSans-30" x="314.136719"/>
     </g>
    </g>
   </g>
  </g>
  <g id="axes_3">
   <g id="patch_10">
    <path d="M 619.588466 205.068125 
L 775.562528 205.068125 
L 775.562528 49.094062 
L 619.588466 49.094062 
z
" style="fill: #ffffff"/>
   </g>
   <g id="PolyCollection_7">
    <defs>
     <path id="m4c33198ef8" d="M 626.678196 -49.042612 
L 626.678196 -48.688516 
L 629.041439 -48.804642 
L 631.404683 -49.295639 
L 633.767926 -49.629952 
L 636.13117 -50.069604 
L 638.494413 -50.726294 
L 640.857656 -50.9275 
L 643.2209 -51.056053 
L 645.584143 -51.260593 
L 647.947386 -52.097502 
L 650.31063 -51.939677 
L 652.673873 -52.021042 
L 655.037116 -52.452423 
L 657.40036 -52.88944 
L 659.763603 -53.135581 
L 662.126847 -53.407103 
L 664.49009 -53.848001 
L 666.853333 -53.973647 
L 669.216577 -53.931342 
L 671.57982 -54.629145 
L 673.943063 -54.454 
L 676.306307 -54.834658 
L 678.66955 -55.258215 
L 681.032794 -55.428264 
L 683.396037 -55.973193 
L 685.75928 -55.926873 
L 688.122524 -56.146225 
L 690.485767 -56.189312 
L 692.84901 -56.428159 
L 695.212254 -56.559921 
L 697.575497 -56.836307 
L 699.938741 -56.869049 
L 702.301984 -57.310758 
L 704.665227 -57.520174 
L 707.028471 -57.505214 
L 709.391714 -57.803488 
L 711.754957 -57.599515 
L 714.118201 -57.562028 
L 716.481444 -57.921576 
L 718.844687 -57.938909 
L 721.207931 -58.421197 
L 723.571174 -58.423274 
L 725.934418 -58.568971 
L 728.297661 -58.584697 
L 730.660904 -58.669554 
L 733.024148 -59.062559 
L 735.387391 -59.207881 
L 737.750634 -59.279637 
L 740.113878 -59.605193 
L 742.477121 -59.438394 
L 744.840365 -59.545267 
L 747.203608 -59.709996 
L 749.566851 -59.910141 
L 751.930095 -60.488155 
L 754.293338 -60.568863 
L 756.656581 -60.686185 
L 759.019825 -61.017218 
L 761.383068 -61.051694 
L 763.746312 -61.546516 
L 766.109555 -61.586636 
L 768.472798 -61.694317 
L 768.472798 -77.050288 
L 768.472798 -77.050288 
L 766.109555 -76.761064 
L 763.746312 -76.139677 
L 761.383068 -75.821789 
L 759.019825 -75.156957 
L 756.656581 -75.242287 
L 754.293338 -75.227308 
L 751.930095 -74.0039 
L 749.566851 -73.920406 
L 747.203608 -73.232241 
L 744.840365 -72.792164 
L 742.477121 -72.180829 
L 740.113878 -71.636025 
L 737.750634 -71.375674 
L 735.387391 -70.502419 
L 733.024148 -70.572141 
L 730.660904 -69.906732 
L 728.297661 -69.330082 
L 725.934418 -68.6276 
L 723.571174 -68.111789 
L 721.207931 -67.338957 
L 718.844687 -66.006824 
L 716.481444 -65.778454 
L 714.118201 -65.419793 
L 711.754957 -64.701899 
L 709.391714 -63.741917 
L 707.028471 -63.378683 
L 704.665227 -62.910118 
L 702.301984 -62.080022 
L 699.938741 -61.463319 
L 697.575497 -60.777852 
L 695.212254 -60.279329 
L 692.84901 -59.560582 
L 690.485767 -59.251322 
L 688.122524 -58.727403 
L 685.75928 -58.247447 
L 683.396037 -57.842022 
L 681.032794 -56.931634 
L 678.66955 -56.988282 
L 676.306307 -56.63693 
L 673.943063 -56.35608 
L 671.57982 -55.897432 
L 669.216577 -55.650224 
L 666.853333 -54.946412 
L 664.49009 -54.807455 
L 662.126847 -54.492344 
L 659.763603 -54.196859 
L 657.40036 -53.989394 
L 655.037116 -53.481401 
L 652.673873 -53.270174 
L 650.31063 -53.200337 
L 647.947386 -52.210903 
L 645.584143 -52.310704 
L 643.2209 -52.118339 
L 640.857656 -51.566484 
L 638.494413 -51.011681 
L 636.13117 -50.780061 
L 633.767926 -50.047899 
L 631.404683 -49.531702 
L 629.041439 -49.380091 
L 626.678196 -49.042612 
z
" style="stroke: #b0c4de; stroke-opacity: 0.2"/>
    </defs>
    <g clip-path="url(#p0780b49ea8)">
     <use xlink:href="#m4c33198ef8" x="0" y="250.56" style="fill: #b0c4de; fill-opacity: 0.2; stroke: #b0c4de; stroke-opacity: 0.2"/>
    </g>
   </g>
   <g id="PolyCollection_8">
    <defs>
     <path id="m4b0f0f5b26" d="M 626.678196 -50.23538 
L 626.678196 -49.045566 
L 629.041439 -49.383932 
L 631.404683 -49.708598 
L 633.767926 -50.209212 
L 636.13117 -50.466 
L 638.494413 -50.728515 
L 640.857656 -51.259246 
L 643.2209 -51.540598 
L 645.584143 -51.791023 
L 647.947386 -52.357094 
L 650.31063 -52.561871 
L 652.673873 -52.874584 
L 655.037116 -53.538519 
L 657.40036 -53.587429 
L 659.763603 -54.226865 
L 662.126847 -54.489045 
L 664.49009 -54.843916 
L 666.853333 -55.245454 
L 669.216577 -55.708697 
L 671.57982 -56.422132 
L 673.943063 -57.079196 
L 676.306307 -57.858332 
L 678.66955 -58.330896 
L 681.032794 -59.033489 
L 683.396037 -60.288604 
L 685.75928 -61.118216 
L 688.122524 -62.194656 
L 690.485767 -62.865219 
L 692.84901 -63.769427 
L 695.212254 -64.992712 
L 697.575497 -65.849017 
L 699.938741 -66.674601 
L 702.301984 -67.688609 
L 704.665227 -67.690183 
L 707.028471 -68.787212 
L 709.391714 -69.242429 
L 711.754957 -69.482131 
L 714.118201 -69.96795 
L 716.481444 -70.407055 
L 718.844687 -70.696881 
L 721.207931 -70.92075 
L 723.571174 -70.656978 
L 725.934418 -71.366475 
L 728.297661 -71.401373 
L 730.660904 -71.751573 
L 733.024148 -71.861056 
L 735.387391 -71.786522 
L 737.750634 -72.192415 
L 740.113878 -72.590027 
L 742.477121 -73.030983 
L 744.840365 -72.85678 
L 747.203608 -72.775011 
L 749.566851 -73.488464 
L 751.930095 -73.398719 
L 754.293338 -73.490748 
L 756.656581 -73.523209 
L 759.019825 -73.719205 
L 761.383068 -73.725247 
L 763.746312 -73.905145 
L 766.109555 -73.684361 
L 768.472798 -74.121375 
L 768.472798 -76.908373 
L 768.472798 -76.908373 
L 766.109555 -76.097972 
L 763.746312 -76.217392 
L 761.383068 -76.264989 
L 759.019825 -75.533922 
L 756.656581 -75.88112 
L 754.293338 -75.970281 
L 751.930095 -75.533105 
L 749.566851 -74.781852 
L 747.203608 -74.909398 
L 744.840365 -74.260622 
L 742.477121 -74.710127 
L 740.113878 -74.376173 
L 737.750634 -73.961076 
L 735.387391 -73.913364 
L 733.024148 -73.630928 
L 730.660904 -73.948312 
L 728.297661 -73.353502 
L 725.934418 -73.161598 
L 723.571174 -72.64258 
L 721.207931 -72.681212 
L 718.844687 -72.980681 
L 716.481444 -72.363296 
L 714.118201 -71.195883 
L 711.754957 -71.360398 
L 709.391714 -71.373298 
L 707.028471 -70.864603 
L 704.665227 -70.128311 
L 702.301984 -69.73298 
L 699.938741 -69.386173 
L 697.575497 -68.850941 
L 695.212254 -67.53372 
L 692.84901 -66.60238 
L 690.485767 -65.578766 
L 688.122524 -64.907414 
L 685.75928 -63.753628 
L 683.396037 -62.749918 
L 681.032794 -61.755908 
L 678.66955 -60.568478 
L 676.306307 -59.415623 
L 673.943063 -59.060747 
L 671.57982 -57.92229 
L 669.216577 -57.274909 
L 666.853333 -56.585238 
L 664.49009 -56.174067 
L 662.126847 -55.829629 
L 659.763603 -55.033397 
L 657.40036 -54.822324 
L 655.037116 -54.077424 
L 652.673873 -54.023151 
L 650.31063 -53.579855 
L 647.947386 -53.217625 
L 645.584143 -52.649684 
L 643.2209 -52.087399 
L 640.857656 -51.574942 
L 638.494413 -51.425265 
L 636.13117 -50.648267 
L 633.767926 -50.41365 
L 631.404683 -50.385057 
L 629.041439 -50.671923 
L 626.678196 -50.23538 
z
" style="stroke: #4169e1; stroke-opacity: 0.2"/>
    </defs>
    <g clip-path="url(#p0780b49ea8)">
     <use xlink:href="#m4b0f0f5b26" x="0" y="250.56" style="fill: #4169e1; fill-opacity: 0.2; stroke: #4169e1; stroke-opacity: 0.2"/>
    </g>
   </g>
   <g id="PolyCollection_9">
    <defs>
     <path id="mf3486784d0" d="M 626.678196 -49.716074 
L 626.678196 -49.205768 
L 629.041439 -49.883319 
L 631.404683 -49.997033 
L 633.767926 -50.371301 
L 636.13117 -50.728511 
L 638.494413 -51.203219 
L 640.857656 -51.482655 
L 643.2209 -51.605667 
L 645.584143 -52.113369 
L 647.947386 -52.372959 
L 650.31063 -52.769212 
L 652.673873 -53.391738 
L 655.037116 -53.707486 
L 657.40036 -54.308558 
L 659.763603 -54.97861 
L 662.126847 -55.556242 
L 664.49009 -56.816474 
L 666.853333 -57.915278 
L 669.216577 -59.02417 
L 671.57982 -60.845784 
L 673.943063 -62.362257 
L 676.306307 -63.442325 
L 678.66955 -65.563634 
L 681.032794 -66.736954 
L 683.396037 -67.877882 
L 685.75928 -69.196934 
L 688.122524 -69.977957 
L 690.485767 -71.360123 
L 692.84901 -71.558755 
L 695.212254 -71.451744 
L 697.575497 -71.59442 
L 699.938741 -71.64418 
L 702.301984 -72.614982 
L 704.665227 -72.675803 
L 707.028471 -73.667826 
L 709.391714 -75.260183 
L 711.754957 -75.226794 
L 714.118201 -75.717541 
L 716.481444 -76.15376 
L 718.844687 -76.777282 
L 721.207931 -76.72275 
L 723.571174 -77.333473 
L 725.934418 -77.754219 
L 728.297661 -78.084336 
L 730.660904 -77.871606 
L 733.024148 -78.389384 
L 735.387391 -78.734842 
L 737.750634 -77.925779 
L 740.113878 -78.854594 
L 742.477121 -79.191853 
L 744.840365 -79.602869 
L 747.203608 -79.725587 
L 749.566851 -79.853314 
L 751.930095 -80.228917 
L 754.293338 -80.798178 
L 756.656581 -80.383928 
L 759.019825 -80.834075 
L 761.383068 -81.061652 
L 763.746312 -81.646638 
L 766.109555 -81.214685 
L 768.472798 -81.698823 
L 768.472798 -88.760351 
L 768.472798 -88.760351 
L 766.109555 -88.960985 
L 763.746312 -88.094328 
L 761.383068 -88.225708 
L 759.019825 -87.621675 
L 756.656581 -88.525427 
L 754.293338 -87.374069 
L 751.930095 -87.09282 
L 749.566851 -87.506223 
L 747.203608 -86.367636 
L 744.840365 -86.471454 
L 742.477121 -86.239862 
L 740.113878 -85.726611 
L 737.750634 -86.485325 
L 735.387391 -85.543959 
L 733.024148 -85.152309 
L 730.660904 -85.443285 
L 728.297661 -85.003752 
L 725.934418 -84.766863 
L 723.571174 -84.639502 
L 721.207931 -83.813809 
L 718.844687 -83.022168 
L 716.481444 -82.757379 
L 714.118201 -82.154086 
L 711.754957 -80.773711 
L 709.391714 -80.475719 
L 707.028471 -79.686649 
L 704.665227 -78.429546 
L 702.301984 -78.490367 
L 699.938741 -77.85465 
L 697.575497 -77.450805 
L 695.212254 -76.799671 
L 692.84901 -76.050053 
L 690.485767 -75.662778 
L 688.122524 -74.191011 
L 685.75928 -72.288203 
L 683.396037 -71.169126 
L 681.032794 -69.418321 
L 678.66955 -67.189602 
L 676.306307 -65.455265 
L 673.943063 -63.6058 
L 671.57982 -61.663532 
L 669.216577 -60.045307 
L 666.853333 -58.583769 
L 664.49009 -56.998741 
L 662.126847 -56.179949 
L 659.763603 -55.207763 
L 657.40036 -54.970605 
L 655.037116 -54.11636 
L 652.673873 -54.016303 
L 650.31063 -53.599317 
L 647.947386 -53.579765 
L 645.584143 -52.705342 
L 643.2209 -52.230233 
L 640.857656 -51.93744 
L 638.494413 -51.68767 
L 636.13117 -51.217366 
L 633.767926 -50.875268 
L 631.404683 -50.70143 
L 629.041439 -50.323738 
L 626.678196 -49.716074 
z
" style="stroke: #191970; stroke-opacity: 0.2"/>
    </defs>
    <g clip-path="url(#p0780b49ea8)">
     <use xlink:href="#mf3486784d0" x="0" y="250.56" style="fill: #191970; fill-opacity: 0.2; stroke: #191970; stroke-opacity: 0.2"/>
    </g>
   </g>
   <g id="matplotlib.axis_5">
    <g id="xtick_7">
     <g id="line2d_31">
      <g>
       <use xlink:href="#mda025d4a66" x="626.678196" y="205.068125" style="stroke: #000000; stroke-width: 0.8"/>
      </g>
     </g>
     <g id="text_31">
      <!-- 0 -->
      <g transform="translate(623.496946 219.666562)scale(0.1 -0.1)">
       <use xlink:href="#DejaVuSans-30"/>
      </g>
     </g>
    </g>
    <g id="xtick_8">
     <g id="line2d_32">
      <g>
       <use xlink:href="#mda025d4a66" x="685.75928" y="205.068125" style="stroke: #000000; stroke-width: 0.8"/>
      </g>
     </g>
     <g id="text_32">
      <!-- 100 -->
      <g transform="translate(676.21553 219.666562)scale(0.1 -0.1)">
       <use xlink:href="#DejaVuSans-31"/>
       <use xlink:href="#DejaVuSans-30" x="63.623047"/>
       <use xlink:href="#DejaVuSans-30" x="127.246094"/>
      </g>
     </g>
    </g>
    <g id="xtick_9">
     <g id="line2d_33">
      <g>
       <use xlink:href="#mda025d4a66" x="744.840365" y="205.068125" style="stroke: #000000; stroke-width: 0.8"/>
      </g>
     </g>
     <g id="text_33">
      <!-- 200 -->
      <g transform="translate(735.296615 219.666562)scale(0.1 -0.1)">
       <use xlink:href="#DejaVuSans-32"/>
       <use xlink:href="#DejaVuSans-30" x="63.623047"/>
       <use xlink:href="#DejaVuSans-30" x="127.246094"/>
      </g>
     </g>
    </g>
    <g id="text_34">
     <!-- Time (min) -->
     <g transform="translate(664.992685 240.864375)scale(0.12 -0.12)">
      <use xlink:href="#DejaVuSans-54"/>
      <use xlink:href="#DejaVuSans-69" x="57.958984"/>
      <use xlink:href="#DejaVuSans-6d" x="85.742188"/>
      <use xlink:href="#DejaVuSans-65" x="183.154297"/>
      <use xlink:href="#DejaVuSans-20" x="244.677734"/>
      <use xlink:href="#DejaVuSans-28" x="276.464844"/>
      <use xlink:href="#DejaVuSans-6d" x="315.478516"/>
      <use xlink:href="#DejaVuSans-69" x="412.890625"/>
      <use xlink:href="#DejaVuSans-6e" x="440.673828"/>
      <use xlink:href="#DejaVuSans-29" x="504.052734"/>
     </g>
    </g>
   </g>
   <g id="matplotlib.axis_6">
    <g id="ytick_13">
     <g id="line2d_34">
      <g>
       <use xlink:href="#m4c7e6dacb3" x="619.588466" y="205.068125" style="stroke: #000000; stroke-width: 0.8"/>
      </g>
     </g>
     <g id="text_35">
      <!-- 0.0 -->
      <g transform="translate(596.685341 208.867344)scale(0.1 -0.1)">
       <use xlink:href="#DejaVuSans-30"/>
       <use xlink:href="#DejaVuSans-2e" x="63.623047"/>
       <use xlink:href="#DejaVuSans-30" x="95.410156"/>
      </g>
     </g>
    </g>
    <g id="ytick_14">
     <g id="line2d_35">
      <g>
       <use xlink:href="#m4c7e6dacb3" x="619.588466" y="173.873312" style="stroke: #000000; stroke-width: 0.8"/>
      </g>
     </g>
     <g id="text_36">
      <!-- 0.2 -->
      <g transform="translate(596.685341 177.672531)scale(0.1 -0.1)">
       <use xlink:href="#DejaVuSans-30"/>
       <use xlink:href="#DejaVuSans-2e" x="63.623047"/>
       <use xlink:href="#DejaVuSans-32" x="95.410156"/>
      </g>
     </g>
    </g>
    <g id="ytick_15">
     <g id="line2d_36">
      <g>
       <use xlink:href="#m4c7e6dacb3" x="619.588466" y="142.6785" style="stroke: #000000; stroke-width: 0.8"/>
      </g>
     </g>
     <g id="text_37">
      <!-- 0.4 -->
      <g transform="translate(596.685341 146.477719)scale(0.1 -0.1)">
       <use xlink:href="#DejaVuSans-30"/>
       <use xlink:href="#DejaVuSans-2e" x="63.623047"/>
       <use xlink:href="#DejaVuSans-34" x="95.410156"/>
      </g>
     </g>
    </g>
    <g id="ytick_16">
     <g id="line2d_37">
      <g>
       <use xlink:href="#m4c7e6dacb3" x="619.588466" y="111.483687" style="stroke: #000000; stroke-width: 0.8"/>
      </g>
     </g>
     <g id="text_38">
      <!-- 0.6 -->
      <g transform="translate(596.685341 115.282906)scale(0.1 -0.1)">
       <use xlink:href="#DejaVuSans-30"/>
       <use xlink:href="#DejaVuSans-2e" x="63.623047"/>
       <use xlink:href="#DejaVuSans-36" x="95.410156"/>
      </g>
     </g>
    </g>
    <g id="ytick_17">
     <g id="line2d_38">
      <g>
       <use xlink:href="#m4c7e6dacb3" x="619.588466" y="80.288875" style="stroke: #000000; stroke-width: 0.8"/>
      </g>
     </g>
     <g id="text_39">
      <!-- 0.8 -->
      <g transform="translate(596.685341 84.088094)scale(0.1 -0.1)">
       <use xlink:href="#DejaVuSans-30"/>
       <use xlink:href="#DejaVuSans-2e" x="63.623047"/>
       <use xlink:href="#DejaVuSans-38" x="95.410156"/>
      </g>
     </g>
    </g>
    <g id="ytick_18">
     <g id="line2d_39">
      <g>
       <use xlink:href="#m4c7e6dacb3" x="619.588466" y="49.094062" style="stroke: #000000; stroke-width: 0.8"/>
      </g>
     </g>
     <g id="text_40">
      <!-- 1.0 -->
      <g transform="translate(596.685341 52.893281)scale(0.1 -0.1)">
       <use xlink:href="#DejaVuSans-31"/>
       <use xlink:href="#DejaVuSans-2e" x="63.623047"/>
       <use xlink:href="#DejaVuSans-30" x="95.410156"/>
      </g>
     </g>
    </g>
   </g>
   <g id="line2d_40">
    <path d="M 626.678196 201.694436 
L 629.041439 201.467633 
L 631.404683 201.146329 
L 633.767926 200.721074 
L 636.13117 200.135168 
L 638.494413 199.691013 
L 640.857656 199.313008 
L 643.2209 198.972804 
L 645.584143 198.774352 
L 647.947386 198.405798 
L 650.31063 197.989993 
L 652.673873 197.914392 
L 655.037116 197.593088 
L 657.40036 197.120583 
L 659.763603 196.89378 
L 662.126847 196.610277 
L 664.49009 196.232272 
L 666.853333 196.099971 
L 669.216577 195.769217 
L 671.57982 195.296711 
L 673.943063 195.15496 
L 676.306307 194.824206 
L 678.66955 194.436751 
L 681.032794 194.380051 
L 683.396037 193.652392 
L 685.75928 193.47284 
L 688.122524 193.123186 
L 690.485767 192.839683 
L 692.84901 192.56563 
L 695.212254 192.140375 
L 697.575497 191.75292 
L 699.938741 191.393816 
L 702.301984 190.86461 
L 704.665227 190.344854 
L 707.028471 190.118051 
L 709.391714 189.787297 
L 711.754957 189.409293 
L 714.118201 189.069089 
L 716.481444 188.709985 
L 718.844687 188.587133 
L 721.207931 187.679923 
L 723.571174 187.292468 
L 725.934418 186.961715 
L 728.297661 186.60261 
L 730.660904 186.271857 
L 733.024148 185.74265 
L 735.387391 185.70485 
L 737.750634 185.232344 
L 740.113878 184.939391 
L 742.477121 184.750389 
L 744.840365 184.391285 
L 747.203608 184.088881 
L 749.566851 183.644726 
L 751.930095 183.313972 
L 754.293338 182.661915 
L 756.656581 182.595764 
L 759.019825 182.472912 
L 761.383068 182.123258 
L 763.746312 181.716904 
L 766.109555 181.38615 
L 768.472798 181.187697 
" clip-path="url(#p0780b49ea8)" style="fill: none; stroke: #b0c4de; stroke-width: 2; stroke-linecap: square"/>
   </g>
   <g id="line2d_41">
    <path d="M 626.678196 200.919527 
L 629.041439 200.532072 
L 631.404683 200.513172 
L 633.767926 200.248569 
L 636.13117 200.002866 
L 638.494413 199.48311 
L 640.857656 199.142906 
L 643.2209 198.746002 
L 645.584143 198.339647 
L 647.947386 197.77264 
L 650.31063 197.489137 
L 652.673873 197.111133 
L 655.037116 196.752028 
L 657.40036 196.355124 
L 659.763603 195.929869 
L 662.126847 195.400663 
L 664.49009 195.051009 
L 666.853333 194.644654 
L 669.216577 194.068197 
L 671.57982 193.387789 
L 673.943063 192.490029 
L 676.306307 191.923022 
L 678.66955 191.110313 
L 681.032794 190.165302 
L 683.396037 189.040739 
L 685.75928 188.124078 
L 688.122524 187.008965 
L 690.485767 186.338007 
L 692.84901 185.374096 
L 695.212254 184.296784 
L 697.575497 183.210021 
L 699.938741 182.529613 
L 702.301984 181.849205 
L 704.665227 181.650753 
L 707.028471 180.734092 
L 709.391714 180.252137 
L 711.754957 180.138735 
L 714.118201 179.978083 
L 716.481444 179.174824 
L 718.844687 178.721219 
L 721.207931 178.759019 
L 723.571174 178.910221 
L 725.934418 178.295964 
L 728.297661 178.182563 
L 730.660904 177.710057 
L 733.024148 177.814008 
L 735.387391 177.710057 
L 737.750634 177.483254 
L 740.113878 177.0769 
L 742.477121 176.689445 
L 744.840365 177.001299 
L 747.203608 176.717796 
L 749.566851 176.424842 
L 751.930095 176.094088 
L 754.293338 175.829485 
L 756.656581 175.857836 
L 759.019825 175.933436 
L 761.383068 175.564882 
L 763.746312 175.498731 
L 766.109555 175.668833 
L 768.472798 175.045126 
" clip-path="url(#p0780b49ea8)" style="fill: none; stroke: #4169e1; stroke-width: 2; stroke-linecap: square"/>
   </g>
   <g id="line2d_42">
    <path d="M 626.678196 201.099079 
L 629.041439 200.456471 
L 631.404683 200.210769 
L 633.767926 199.936715 
L 636.13117 199.587061 
L 638.494413 199.114556 
L 640.857656 198.849953 
L 643.2209 198.64205 
L 645.584143 198.150645 
L 647.947386 197.583638 
L 650.31063 197.375736 
L 652.673873 196.85598 
L 655.037116 196.648077 
L 657.40036 195.920419 
L 659.763603 195.466813 
L 662.126847 194.691904 
L 664.49009 193.652392 
L 666.853333 192.310477 
L 669.216577 191.025262 
L 671.57982 189.305342 
L 673.943063 187.575972 
L 676.306307 186.111205 
L 678.66955 184.183382 
L 681.032794 182.482363 
L 683.396037 181.036496 
L 685.75928 179.817432 
L 688.122524 178.475516 
L 690.485767 177.048549 
L 692.84901 176.755596 
L 695.212254 176.434292 
L 697.575497 176.037388 
L 699.938741 175.810585 
L 702.301984 175.007326 
L 704.665227 175.007326 
L 707.028471 173.882763 
L 709.391714 172.692049 
L 711.754957 172.559747 
L 714.118201 171.624186 
L 716.481444 171.10443 
L 718.844687 170.660275 
L 721.207931 170.291721 
L 723.571174 169.573513 
L 725.934418 169.299459 
L 728.297661 169.015956 
L 730.660904 168.902555 
L 733.024148 168.789153 
L 735.387391 168.420599 
L 737.750634 168.354448 
L 740.113878 168.269397 
L 742.477121 167.844142 
L 744.840365 167.522839 
L 747.203608 167.513389 
L 749.566851 166.880231 
L 751.930095 166.899131 
L 754.293338 166.473877 
L 756.656581 166.105322 
L 759.019825 166.332125 
L 761.383068 165.91632 
L 763.746312 165.689517 
L 766.109555 165.472165 
L 768.472798 165.330413 
" clip-path="url(#p0780b49ea8)" style="fill: none; stroke: #191970; stroke-width: 2; stroke-linecap: square"/>
   </g>
   <g id="patch_11">
    <path d="M 619.588466 205.068125 
L 619.588466 49.094062 
" style="fill: none; stroke: #000000; stroke-width: 0.8; stroke-linejoin: miter; stroke-linecap: square"/>
   </g>
   <g id="patch_12">
    <path d="M 619.588466 205.068125 
L 775.562528 205.068125 
" style="fill: none; stroke: #000000; stroke-width: 0.8; stroke-linejoin: miter; stroke-linecap: square"/>
   </g>
   <g id="text_41">
    <!-- vRNA = 10fM -->
    <g transform="translate(660.632528 43.094062)scale(0.1 -0.1)">
     <use xlink:href="#DejaVuSans-Bold-76"/>
     <use xlink:href="#DejaVuSans-Bold-52" x="65.185547"/>
     <use xlink:href="#DejaVuSans-Bold-4e" x="142.1875"/>
     <use xlink:href="#DejaVuSans-Bold-41" x="225.878906"/>
     <use xlink:href="#DejaVuSans-Bold-20" x="303.271484"/>
     <use xlink:href="#DejaVuSans-Bold-3d" x="338.085938"/>
     <use xlink:href="#DejaVuSans-Bold-20" x="421.875"/>
     <use xlink:href="#DejaVuSans-Bold-31" x="456.689453"/>
     <use xlink:href="#DejaVuSans-Bold-30" x="526.269531"/>
     <use xlink:href="#DejaVuSans-Bold-66" x="595.849609"/>
     <use xlink:href="#DejaVuSans-Bold-4d" x="639.355469"/>
    </g>
   </g>
   <g id="legend_3">
    <g id="patch_13">
     <path d="M 698.787528 101.128437 
L 768.562528 101.128437 
Q 770.562528 101.128437 770.562528 99.128437 
L 770.562528 56.094062 
Q 770.562528 54.094062 768.562528 54.094062 
L 698.787528 54.094062 
Q 696.787528 54.094062 696.787528 56.094062 
L 696.787528 99.128437 
Q 696.787528 101.128437 698.787528 101.128437 
z
" style="fill: #ffffff; opacity: 0.8; stroke: #cccccc; stroke-linejoin: miter"/>
    </g>
    <g id="line2d_43">
     <path d="M 700.787528 62.1925 
L 710.787528 62.1925 
L 720.787528 62.1925 
" style="fill: none; stroke: #b0c4de; stroke-width: 2; stroke-linecap: square"/>
    </g>
    <g id="text_42">
     <!-- RT 0.5 -->
     <g transform="translate(728.787528 65.6925)scale(0.1 -0.1)">
      <use xlink:href="#DejaVuSans-52"/>
      <use xlink:href="#DejaVuSans-54" x="62.232422"/>
      <use xlink:href="#DejaVuSans-20" x="123.316406"/>
      <use xlink:href="#DejaVuSans-30" x="155.103516"/>
      <use xlink:href="#DejaVuSans-2e" x="218.726562"/>
      <use xlink:href="#DejaVuSans-35" x="250.513672"/>
     </g>
    </g>
    <g id="line2d_44">
     <path d="M 700.787528 76.870625 
L 710.787528 76.870625 
L 720.787528 76.870625 
" style="fill: none; stroke: #4169e1; stroke-width: 2; stroke-linecap: square"/>
    </g>
    <g id="text_43">
     <!-- RT 2.5 -->
     <g transform="translate(728.787528 80.370625)scale(0.1 -0.1)">
      <use xlink:href="#DejaVuSans-52"/>
      <use xlink:href="#DejaVuSans-54" x="62.232422"/>
      <use xlink:href="#DejaVuSans-20" x="123.316406"/>
      <use xlink:href="#DejaVuSans-32" x="155.103516"/>
      <use xlink:href="#DejaVuSans-2e" x="218.726562"/>
      <use xlink:href="#DejaVuSans-35" x="250.513672"/>
     </g>
    </g>
    <g id="line2d_45">
     <path d="M 700.787528 91.54875 
L 710.787528 91.54875 
L 720.787528 91.54875 
" style="fill: none; stroke: #191970; stroke-width: 2; stroke-linecap: square"/>
    </g>
    <g id="text_44">
     <!-- RT 10.0 -->
     <g transform="translate(728.787528 95.04875)scale(0.1 -0.1)">
      <use xlink:href="#DejaVuSans-52"/>
      <use xlink:href="#DejaVuSans-54" x="62.232422"/>
      <use xlink:href="#DejaVuSans-20" x="123.316406"/>
      <use xlink:href="#DejaVuSans-31" x="155.103516"/>
      <use xlink:href="#DejaVuSans-30" x="218.726562"/>
      <use xlink:href="#DejaVuSans-2e" x="282.349609"/>
      <use xlink:href="#DejaVuSans-30" x="314.136719"/>
     </g>
    </g>
   </g>
  </g>
  <g id="text_45">
   <!-- RT_Sweep_Cas13=4.5 rep2 -->
   <g transform="translate(305.771577 16.10625)scale(0.12 -0.12)">
    <defs>
     <path id="DejaVuSans-Bold-54" d="M 31 4666 
L 4331 4666 
L 4331 3756 
L 2784 3756 
L 2784 0 
L 1581 0 
L 1581 3756 
L 31 3756 
L 31 4666 
z
" transform="scale(0.015625)"/>
     <path id="DejaVuSans-Bold-5f" d="M 3200 -916 
L 3200 -1509 
L 0 -1509 
L 0 -916 
L 3200 -916 
z
" transform="scale(0.015625)"/>
     <path id="DejaVuSans-Bold-53" d="M 3834 4519 
L 3834 3531 
Q 3450 3703 3084 3790 
Q 2719 3878 2394 3878 
Q 1963 3878 1756 3759 
Q 1550 3641 1550 3391 
Q 1550 3203 1689 3098 
Q 1828 2994 2194 2919 
L 2706 2816 
Q 3484 2659 3812 2340 
Q 4141 2022 4141 1434 
Q 4141 663 3683 286 
Q 3225 -91 2284 -91 
Q 1841 -91 1394 -6 
Q 947 78 500 244 
L 500 1259 
Q 947 1022 1364 901 
Q 1781 781 2169 781 
Q 2563 781 2772 912 
Q 2981 1044 2981 1288 
Q 2981 1506 2839 1625 
Q 2697 1744 2272 1838 
L 1806 1941 
Q 1106 2091 782 2419 
Q 459 2747 459 3303 
Q 459 4000 909 4375 
Q 1359 4750 2203 4750 
Q 2588 4750 2994 4692 
Q 3400 4634 3834 4519 
z
" transform="scale(0.015625)"/>
     <path id="DejaVuSans-Bold-77" d="M 225 3500 
L 1313 3500 
L 1900 1088 
L 2491 3500 
L 3425 3500 
L 4013 1113 
L 4603 3500 
L 5691 3500 
L 4769 0 
L 3547 0 
L 2956 2406 
L 2369 0 
L 1147 0 
L 225 3500 
z
" transform="scale(0.015625)"/>
     <path id="DejaVuSans-Bold-65" d="M 4031 1759 
L 4031 1441 
L 1416 1441 
Q 1456 1047 1700 850 
Q 1944 653 2381 653 
Q 2734 653 3104 758 
Q 3475 863 3866 1075 
L 3866 213 
Q 3469 63 3072 -14 
Q 2675 -91 2278 -91 
Q 1328 -91 801 392 
Q 275 875 275 1747 
Q 275 2603 792 3093 
Q 1309 3584 2216 3584 
Q 3041 3584 3536 3087 
Q 4031 2591 4031 1759 
z
M 2881 2131 
Q 2881 2450 2695 2645 
Q 2509 2841 2209 2841 
Q 1884 2841 1681 2658 
Q 1478 2475 1428 2131 
L 2881 2131 
z
" transform="scale(0.015625)"/>
     <path id="DejaVuSans-Bold-70" d="M 1656 506 
L 1656 -1331 
L 538 -1331 
L 538 3500 
L 1656 3500 
L 1656 2988 
Q 1888 3294 2169 3439 
Q 2450 3584 2816 3584 
Q 3463 3584 3878 3070 
Q 4294 2556 4294 1747 
Q 4294 938 3878 423 
Q 3463 -91 2816 -91 
Q 2450 -91 2169 54 
Q 1888 200 1656 506 
z
M 2400 2772 
Q 2041 2772 1848 2508 
Q 1656 2244 1656 1747 
Q 1656 1250 1848 986 
Q 2041 722 2400 722 
Q 2759 722 2948 984 
Q 3138 1247 3138 1747 
Q 3138 2247 2948 2509 
Q 2759 2772 2400 2772 
z
" transform="scale(0.015625)"/>
     <path id="DejaVuSans-Bold-43" d="M 4288 256 
Q 3956 84 3597 -3 
Q 3238 -91 2847 -91 
Q 1681 -91 1000 561 
Q 319 1213 319 2328 
Q 319 3447 1000 4098 
Q 1681 4750 2847 4750 
Q 3238 4750 3597 4662 
Q 3956 4575 4288 4403 
L 4288 3438 
Q 3953 3666 3628 3772 
Q 3303 3878 2944 3878 
Q 2300 3878 1931 3465 
Q 1563 3053 1563 2328 
Q 1563 1606 1931 1193 
Q 2300 781 2944 781 
Q 3303 781 3628 887 
Q 3953 994 4288 1222 
L 4288 256 
z
" transform="scale(0.015625)"/>
     <path id="DejaVuSans-Bold-61" d="M 2106 1575 
Q 1756 1575 1579 1456 
Q 1403 1338 1403 1106 
Q 1403 894 1545 773 
Q 1688 653 1941 653 
Q 2256 653 2472 879 
Q 2688 1106 2688 1447 
L 2688 1575 
L 2106 1575 
z
M 3816 1997 
L 3816 0 
L 2688 0 
L 2688 519 
Q 2463 200 2181 54 
Q 1900 -91 1497 -91 
Q 953 -91 614 226 
Q 275 544 275 1050 
Q 275 1666 698 1953 
Q 1122 2241 2028 2241 
L 2688 2241 
L 2688 2328 
Q 2688 2594 2478 2717 
Q 2269 2841 1825 2841 
Q 1466 2841 1156 2769 
Q 847 2697 581 2553 
L 581 3406 
Q 941 3494 1303 3539 
Q 1666 3584 2028 3584 
Q 2975 3584 3395 3211 
Q 3816 2838 3816 1997 
z
" transform="scale(0.015625)"/>
     <path id="DejaVuSans-Bold-73" d="M 3272 3391 
L 3272 2541 
Q 2913 2691 2578 2766 
Q 2244 2841 1947 2841 
Q 1628 2841 1473 2761 
Q 1319 2681 1319 2516 
Q 1319 2381 1436 2309 
Q 1553 2238 1856 2203 
L 2053 2175 
Q 2913 2066 3209 1816 
Q 3506 1566 3506 1031 
Q 3506 472 3093 190 
Q 2681 -91 1863 -91 
Q 1516 -91 1145 -36 
Q 775 19 384 128 
L 384 978 
Q 719 816 1070 734 
Q 1422 653 1784 653 
Q 2113 653 2278 743 
Q 2444 834 2444 1013 
Q 2444 1163 2330 1236 
Q 2216 1309 1875 1350 
L 1678 1375 
Q 931 1469 631 1722 
Q 331 1975 331 2491 
Q 331 3047 712 3315 
Q 1094 3584 1881 3584 
Q 2191 3584 2531 3537 
Q 2872 3491 3272 3391 
z
" transform="scale(0.015625)"/>
     <path id="DejaVuSans-Bold-33" d="M 2981 2516 
Q 3453 2394 3698 2092 
Q 3944 1791 3944 1325 
Q 3944 631 3412 270 
Q 2881 -91 1863 -91 
Q 1503 -91 1142 -33 
Q 781 25 428 141 
L 428 1069 
Q 766 900 1098 814 
Q 1431 728 1753 728 
Q 2231 728 2486 893 
Q 2741 1059 2741 1369 
Q 2741 1688 2480 1852 
Q 2219 2016 1709 2016 
L 1228 2016 
L 1228 2791 
L 1734 2791 
Q 2188 2791 2409 2933 
Q 2631 3075 2631 3366 
Q 2631 3634 2415 3781 
Q 2200 3928 1806 3928 
Q 1516 3928 1219 3862 
Q 922 3797 628 3669 
L 628 4550 
Q 984 4650 1334 4700 
Q 1684 4750 2022 4750 
Q 2931 4750 3382 4451 
Q 3834 4153 3834 3553 
Q 3834 3144 3618 2883 
Q 3403 2622 2981 2516 
z
" transform="scale(0.015625)"/>
     <path id="DejaVuSans-Bold-34" d="M 2356 3675 
L 1038 1722 
L 2356 1722 
L 2356 3675 
z
M 2156 4666 
L 3494 4666 
L 3494 1722 
L 4159 1722 
L 4159 850 
L 3494 850 
L 3494 0 
L 2356 0 
L 2356 850 
L 288 850 
L 288 1881 
L 2156 4666 
z
" transform="scale(0.015625)"/>
     <path id="DejaVuSans-Bold-2e" d="M 653 1209 
L 1778 1209 
L 1778 0 
L 653 0 
L 653 1209 
z
" transform="scale(0.015625)"/>
     <path id="DejaVuSans-Bold-35" d="M 678 4666 
L 3669 4666 
L 3669 3781 
L 1638 3781 
L 1638 3059 
Q 1775 3097 1914 3117 
Q 2053 3138 2203 3138 
Q 3056 3138 3531 2711 
Q 4006 2284 4006 1522 
Q 4006 766 3489 337 
Q 2972 -91 2053 -91 
Q 1656 -91 1267 -14 
Q 878 63 494 219 
L 494 1166 
Q 875 947 1217 837 
Q 1559 728 1863 728 
Q 2300 728 2551 942 
Q 2803 1156 2803 1522 
Q 2803 1891 2551 2103 
Q 2300 2316 1863 2316 
Q 1603 2316 1309 2248 
Q 1016 2181 678 2041 
L 678 4666 
z
" transform="scale(0.015625)"/>
     <path id="DejaVuSans-Bold-72" d="M 3138 2547 
Q 2991 2616 2845 2648 
Q 2700 2681 2553 2681 
Q 2122 2681 1889 2404 
Q 1656 2128 1656 1613 
L 1656 0 
L 538 0 
L 538 3500 
L 1656 3500 
L 1656 2925 
Q 1872 3269 2151 3426 
Q 2431 3584 2822 3584 
Q 2878 3584 2943 3579 
Q 3009 3575 3134 3559 
L 3138 2547 
z
" transform="scale(0.015625)"/>
     <path id="DejaVuSans-Bold-32" d="M 1844 884 
L 3897 884 
L 3897 0 
L 506 0 
L 506 884 
L 2209 2388 
Q 2438 2594 2547 2791 
Q 2656 2988 2656 3200 
Q 2656 3528 2436 3728 
Q 2216 3928 1850 3928 
Q 1569 3928 1234 3808 
Q 900 3688 519 3450 
L 519 4475 
Q 925 4609 1322 4679 
Q 1719 4750 2100 4750 
Q 2938 4750 3402 4381 
Q 3866 4013 3866 3353 
Q 3866 2972 3669 2642 
Q 3472 2313 2841 1759 
L 1844 884 
z
" transform="scale(0.015625)"/>
    </defs>
    <use xlink:href="#DejaVuSans-Bold-52"/>
    <use xlink:href="#DejaVuSans-Bold-54" x="72.501953"/>
    <use xlink:href="#DejaVuSans-Bold-5f" x="140.714844"/>
    <use xlink:href="#DejaVuSans-Bold-53" x="190.714844"/>
    <use xlink:href="#DejaVuSans-Bold-77" x="262.736328"/>
    <use xlink:href="#DejaVuSans-Bold-65" x="355.119141"/>
    <use xlink:href="#DejaVuSans-Bold-65" x="422.941406"/>
    <use xlink:href="#DejaVuSans-Bold-70" x="490.763672"/>
    <use xlink:href="#DejaVuSans-Bold-5f" x="562.345703"/>
    <use xlink:href="#DejaVuSans-Bold-43" x="612.345703"/>
    <use xlink:href="#DejaVuSans-Bold-61" x="685.734375"/>
    <use xlink:href="#DejaVuSans-Bold-73" x="753.214844"/>
    <use xlink:href="#DejaVuSans-Bold-31" x="812.736328"/>
    <use xlink:href="#DejaVuSans-Bold-33" x="882.316406"/>
    <use xlink:href="#DejaVuSans-Bold-3d" x="951.896484"/>
    <use xlink:href="#DejaVuSans-Bold-34" x="1035.685547"/>
    <use xlink:href="#DejaVuSans-Bold-2e" x="1105.265625"/>
    <use xlink:href="#DejaVuSans-Bold-35" x="1143.253906"/>
    <use xlink:href="#DejaVuSans-Bold-20" x="1212.833984"/>
    <use xlink:href="#DejaVuSans-Bold-72" x="1247.648438"/>
    <use xlink:href="#DejaVuSans-Bold-65" x="1296.964844"/>
    <use xlink:href="#DejaVuSans-Bold-70" x="1364.787109"/>
    <use xlink:href="#DejaVuSans-Bold-32" x="1436.369141"/>
   </g>
  </g>
 </g>
 <defs>
  <clipPath id="p273b3f9fd1">
   <rect x="51.716875" y="49.094062" width="155.974063" height="155.974063"/>
  </clipPath>
  <clipPath id="p4bdb98b4e9">
   <rect x="335.65267" y="49.094062" width="155.974063" height="155.974063"/>
  </clipPath>
  <clipPath id="p0780b49ea8">
   <rect x="619.588466" y="49.094062" width="155.974063" height="155.974063"/>
  </clipPath>
 </defs>
</svg>
