<?xml version="1.0" encoding="utf-8" standalone="no"?>
<!DOCTYPE svg PUBLIC "-//W3C//DTD SVG 1.1//EN"
  "http://www.w3.org/Graphics/SVG/1.1/DTD/svg11.dtd">
<svg xmlns:xlink="http://www.w3.org/1999/xlink" width="782.762528pt" height="250.56pt" viewBox="0 0 782.762528 250.56" xmlns="http://www.w3.org/2000/svg" version="1.1">
 <metadata>
  <rdf:RDF xmlns:dc="http://purl.org/dc/elements/1.1/" xmlns:cc="http://creativecommons.org/ns#" xmlns:rdf="http://www.w3.org/1999/02/22-rdf-syntax-ns#">
   <cc:Work>
    <dc:type rdf:resource="http://purl.org/dc/dcmitype/StillImage"/>
    <dc:date>2022-12-02T20:11:09.359707</dc:date>
    <dc:format>image/svg+xml</dc:format>
    <dc:creator>
     <cc:Agent>
      <dc:title>Matplotlib v3.5.1, https://matplotlib.org/</dc:title>
     </cc:Agent>
    </dc:creator>
   </cc:Work>
  </rdf:RDF>
 </metadata>
 <defs>
  <style type="text/css">*{stroke-linejoin: round; stroke-linecap: butt}</style>
 </defs>
 <g id="figure_1">
  <g id="patch_1">
   <path d="M 0 250.56 
L 782.762528 250.56 
L 782.762528 -0 
L 0 -0 
L 0 250.56 
z
" style="fill: none"/>
  </g>
  <g id="axes_1">
   <g id="patch_2">
    <path d="M 51.716875 205.068125 
L 207.690938 205.068125 
L 207.690938 49.094062 
L 51.716875 49.094062 
z
" style="fill: #ffffff"/>
   </g>
   <g id="PolyCollection_1">
    <defs>
     <path id="mbf98f735d7" d="M 58.806605 -48.335657 
L 58.806605 -48.003543 
L 61.169848 -48.437075 
L 63.533092 -48.741854 
L 65.896335 -49.040883 
L 68.259579 -49.449721 
L 70.622822 -49.9217 
L 72.986065 -50.227336 
L 75.349309 -50.386258 
L 77.712552 -50.811165 
L 80.075795 -51.298714 
L 82.439039 -51.214863 
L 84.802282 -51.675113 
L 87.165526 -52.010659 
L 89.528769 -52.406965 
L 91.892012 -52.773989 
L 94.255256 -52.631693 
L 96.618499 -53.091509 
L 98.981742 -53.538111 
L 101.344986 -53.66674 
L 103.708229 -54.003433 
L 106.071473 -54.141515 
L 108.434716 -54.500244 
L 110.797959 -54.339091 
L 113.161203 -54.928345 
L 115.524446 -55.08505 
L 117.887689 -55.105832 
L 120.250933 -55.25653 
L 122.614176 -55.464003 
L 124.97742 -55.713086 
L 127.340663 -55.641983 
L 129.703906 -55.577292 
L 132.06715 -55.971701 
L 134.430393 -55.850448 
L 136.793636 -55.926472 
L 139.15688 -55.921502 
L 141.520123 -55.989661 
L 143.883366 -56.300343 
L 146.24661 -56.338699 
L 148.609853 -56.415395 
L 150.973097 -56.512949 
L 153.33634 -56.531979 
L 155.699583 -56.340061 
L 158.062827 -56.636119 
L 160.42607 -57.102745 
L 162.789313 -56.993253 
L 165.152557 -57.040419 
L 167.5158 -56.98537 
L 169.879044 -57.306362 
L 172.242287 -57.087991 
L 174.60553 -57.184683 
L 176.968774 -57.468128 
L 179.332017 -57.66482 
L 181.69526 -57.503045 
L 184.058504 -57.498171 
L 186.421747 -57.520291 
L 188.784991 -57.757501 
L 191.148234 -57.998514 
L 193.511477 -58.118274 
L 195.874721 -57.983803 
L 198.237964 -57.9226 
L 200.601207 -57.772832 
L 200.601207 -59.267761 
L 200.601207 -59.267761 
L 198.237964 -59.158771 
L 195.874721 -58.771348 
L 193.511477 -58.650469 
L 191.148234 -58.661489 
L 188.784991 -58.617059 
L 186.421747 -58.487272 
L 184.058504 -58.618131 
L 181.69526 -58.219075 
L 179.332017 -58.043707 
L 176.968774 -58.389917 
L 174.60553 -58.034514 
L 172.242287 -57.601098 
L 169.879044 -57.695355 
L 167.5158 -57.703719 
L 165.152557 -57.471968 
L 162.789313 -57.668651 
L 160.42607 -57.341679 
L 158.062827 -57.495677 
L 155.699583 -56.948999 
L 153.33634 -57.287189 
L 150.973097 -57.061554 
L 148.609853 -57.009591 
L 146.24661 -56.664919 
L 143.883366 -56.431424 
L 141.520123 -56.714921 
L 139.15688 -56.592785 
L 136.793636 -56.574223 
L 134.430393 -56.405582 
L 132.06715 -56.257144 
L 129.703906 -56.189408 
L 127.340663 -55.988791 
L 124.97742 -55.972058 
L 122.614176 -55.758995 
L 120.250933 -55.789766 
L 117.887689 -55.899686 
L 115.524446 -55.662211 
L 113.161203 -55.19366 
L 110.797959 -55.443101 
L 108.434716 -55.010099 
L 106.071473 -54.838719 
L 103.708229 -54.541841 
L 101.344986 -54.429981 
L 98.981742 -53.974132 
L 96.618499 -53.577999 
L 94.255256 -53.84752 
L 91.892012 -53.243078 
L 89.528769 -52.753774 
L 87.165526 -52.402492 
L 84.802282 -52.085598 
L 82.439039 -51.811851 
L 80.075795 -51.361003 
L 77.712552 -51.046594 
L 75.349309 -50.941392 
L 72.986065 -50.651762 
L 70.622822 -49.992329 
L 68.259579 -49.866238 
L 65.896335 -49.649821 
L 63.533092 -48.943004 
L 61.169848 -48.568157 
L 58.806605 -48.335657 
z
" style="stroke: #b0c4de; stroke-opacity: 0.2"/>
    </defs>
    <g clip-path="url(#pa8defc7ab0)">
     <use xlink:href="#mbf98f735d7" x="0" y="250.56" style="fill: #b0c4de; fill-opacity: 0.2; stroke: #b0c4de; stroke-opacity: 0.2"/>
    </g>
   </g>
   <g id="PolyCollection_2">
    <defs>
     <path id="m68ff543bae" d="M 58.806605 -48.537162 
L 58.806605 -48.291367 
L 61.169848 -48.566992 
L 63.533092 -48.911244 
L 65.896335 -49.378488 
L 68.259579 -49.650989 
L 70.622822 -50.094761 
L 72.986065 -50.385667 
L 75.349309 -50.657648 
L 77.712552 -51.1424 
L 80.075795 -51.241108 
L 82.439039 -51.758449 
L 84.802282 -51.921263 
L 87.165526 -52.209441 
L 89.528769 -52.495956 
L 91.892012 -52.910528 
L 94.255256 -53.022552 
L 96.618499 -53.103257 
L 98.981742 -53.316857 
L 101.344986 -53.3449 
L 103.708229 -53.516072 
L 106.071473 -53.58318 
L 108.434716 -53.823407 
L 110.797959 -53.969642 
L 113.161203 -53.934846 
L 115.524446 -54.003096 
L 117.887689 -53.921966 
L 120.250933 -54.220289 
L 122.614176 -54.259586 
L 124.97742 -54.509173 
L 127.340663 -54.384717 
L 129.703906 -54.583736 
L 132.06715 -54.831489 
L 134.430393 -54.789152 
L 136.793636 -54.89624 
L 139.15688 -55.221868 
L 141.520123 -54.924487 
L 143.883366 -55.097923 
L 146.24661 -55.376123 
L 148.609853 -55.543673 
L 150.973097 -55.543343 
L 153.33634 -55.577209 
L 155.699583 -55.782826 
L 158.062827 -56.00895 
L 160.42607 -56.215967 
L 162.789313 -56.085882 
L 165.152557 -56.253632 
L 167.5158 -56.434016 
L 169.879044 -56.412225 
L 172.242287 -56.511339 
L 174.60553 -56.80711 
L 176.968774 -56.819543 
L 179.332017 -56.854649 
L 181.69526 -56.722467 
L 184.058504 -56.940542 
L 186.421747 -56.934258 
L 188.784991 -57.354358 
L 191.148234 -57.326988 
L 193.511477 -57.64358 
L 195.874721 -57.400821 
L 198.237964 -57.585731 
L 200.601207 -57.568621 
L 200.601207 -58.262239 
L 200.601207 -58.262239 
L 198.237964 -58.014057 
L 195.874721 -57.859153 
L 193.511477 -57.765912 
L 191.148234 -57.878616 
L 188.784991 -57.688136 
L 186.421747 -57.415018 
L 184.058504 -57.340772 
L 181.69526 -57.300589 
L 179.332017 -57.100444 
L 176.968774 -57.149143 
L 174.60553 -57.243131 
L 172.242287 -56.981609 
L 169.879044 -56.863243 
L 167.5158 -56.705526 
L 165.152557 -56.55969 
L 162.789313 -56.496367 
L 160.42607 -56.447838 
L 158.062827 -56.274265 
L 155.699583 -56.269316 
L 153.33634 -56.02638 
L 150.973097 -56.019469 
L 148.609853 -55.883214 
L 146.24661 -55.670174 
L 143.883366 -55.676523 
L 141.520123 -55.863551 
L 139.15688 -55.471023 
L 136.793636 -55.456838 
L 134.430393 -54.911485 
L 132.06715 -55.304109 
L 129.703906 -55.008162 
L 127.340663 -54.976108 
L 124.97742 -54.579802 
L 122.614176 -54.856574 
L 120.250933 -54.515281 
L 117.887689 -54.392235 
L 115.524446 -54.12081 
L 113.161203 -54.229838 
L 110.797959 -54.031931 
L 108.434716 -54.028649 
L 106.071473 -53.997026 
L 103.708229 -53.941802 
L 101.344986 -54.058604 
L 98.981742 -53.610908 
L 96.618499 -53.430326 
L 94.255256 -53.13044 
L 91.892012 -53.188095 
L 89.528769 -52.773523 
L 87.165526 -52.448375 
L 84.802282 -52.274407 
L 82.439039 -51.866336 
L 80.075795 -51.472979 
L 77.712552 -51.204689 
L 75.349309 -51.104963 
L 72.986065 -50.479839 
L 70.622822 -50.118304 
L 68.259579 -50.127115 
L 65.896335 -49.543288 
L 63.533092 -49.127019 
L 61.169848 -48.750868 
L 58.806605 -48.537162 
z
" style="stroke: #4169e1; stroke-opacity: 0.2"/>
    </defs>
    <g clip-path="url(#pa8defc7ab0)">
     <use xlink:href="#m68ff543bae" x="0" y="250.56" style="fill: #4169e1; fill-opacity: 0.2; stroke: #4169e1; stroke-opacity: 0.2"/>
    </g>
   </g>
   <g id="PolyCollection_3">
    <defs>
     <path id="m2c42444483" d="M 58.806605 -48.488048 
L 58.806605 -48.299704 
L 61.169848 -48.545703 
L 63.533092 -48.757321 
L 65.896335 -48.779317 
L 68.259579 -49.185485 
L 70.622822 -49.547287 
L 72.986065 -49.731175 
L 75.349309 -49.965828 
L 77.712552 -50.246842 
L 80.075795 -50.629844 
L 82.439039 -50.815765 
L 84.802282 -50.936851 
L 87.165526 -51.608505 
L 89.528769 -51.619666 
L 91.892012 -52.054626 
L 94.255256 -52.340069 
L 96.618499 -52.252917 
L 98.981742 -52.067467 
L 101.344986 -52.097478 
L 103.708229 -52.225017 
L 106.071473 -52.604002 
L 108.434716 -52.630223 
L 110.797959 -52.889038 
L 113.161203 -53.062339 
L 115.524446 -52.71971 
L 117.887689 -53.166754 
L 120.250933 -53.269663 
L 122.614176 -53.442696 
L 124.97742 -53.446833 
L 127.340663 -53.592769 
L 129.703906 -53.639263 
L 132.06715 -53.897488 
L 134.430393 -53.907826 
L 136.793636 -54.208141 
L 139.15688 -54.140036 
L 141.520123 -54.448662 
L 143.883366 -54.611327 
L 146.24661 -54.822612 
L 148.609853 -54.795151 
L 150.973097 -54.812809 
L 153.33634 -54.787795 
L 155.699583 -54.754144 
L 158.062827 -55.043446 
L 160.42607 -55.297077 
L 162.789313 -55.380427 
L 165.152557 -55.457216 
L 167.5158 -55.430986 
L 169.879044 -55.688445 
L 172.242287 -55.780644 
L 174.60553 -55.736875 
L 176.968774 -56.143896 
L 179.332017 -55.862884 
L 181.69526 -56.243389 
L 184.058504 -56.227791 
L 186.421747 -56.702329 
L 188.784991 -56.062211 
L 191.148234 -56.538042 
L 193.511477 -56.432998 
L 195.874721 -56.938203 
L 198.237964 -56.861106 
L 200.601207 -57.030011 
L 200.601207 -57.686263 
L 200.601207 -57.686263 
L 198.237964 -57.474578 
L 195.874721 -57.710109 
L 193.511477 -57.087135 
L 191.148234 -57.294719 
L 188.784991 -57.172479 
L 186.421747 -57.076062 
L 184.058504 -56.911752 
L 181.69526 -57.100041 
L 179.332017 -57.072771 
L 176.968774 -57.009239 
L 174.60553 -56.614303 
L 172.242287 -56.448201 
L 169.879044 -56.404475 
L 167.5158 -56.186196 
L 165.152557 -56.092003 
L 162.789313 -55.951312 
L 160.42607 -55.993884 
L 158.062827 -55.595074 
L 155.699583 -55.789229 
L 153.33634 -55.674023 
L 150.973097 -55.078124 
L 148.609853 -55.258892 
L 146.24661 -55.000358 
L 143.883366 -54.735905 
L 141.520123 -54.653905 
L 139.15688 -54.609126 
L 136.793636 -54.377911 
L 134.430393 -54.623856 
L 132.06715 -54.307973 
L 129.703906 -54.443866 
L 127.340663 -54.16414 
L 124.97742 -54.038225 
L 122.614176 -53.906437 
L 120.250933 -53.86199 
L 117.887689 -53.625086 
L 115.524446 -53.378912 
L 113.161203 -53.308134 
L 110.797959 -52.951327 
L 108.434716 -52.992661 
L 106.071473 -52.828587 
L 103.708229 -52.772612 
L 101.344986 -52.35645 
L 98.981742 -52.767052 
L 96.618499 -52.703934 
L 94.255256 -52.49445 
L 91.892012 -52.209007 
L 89.528769 -51.774047 
L 87.165526 -51.608505 
L 84.802282 -51.328683 
L 82.439039 -50.946846 
L 80.075795 -50.711399 
L 77.712552 -50.632256 
L 75.349309 -50.192867 
L 72.986065 -50.26441 
L 70.622822 -49.80945 
L 68.259579 -49.410071 
L 65.896335 -49.612351 
L 63.533092 -48.981907 
L 61.169848 -48.663417 
L 58.806605 -48.488048 
z
" style="stroke: #191970; stroke-opacity: 0.2"/>
    </defs>
    <g clip-path="url(#pa8defc7ab0)">
     <use xlink:href="#m2c42444483" x="0" y="250.56" style="fill: #191970; fill-opacity: 0.2; stroke: #191970; stroke-opacity: 0.2"/>
    </g>
   </g>
   <g id="matplotlib.axis_1">
    <g id="xtick_1">
     <g id="line2d_1">
      <defs>
       <path id="m1ac0aa8b71" d="M 0 0 
L 0 3.5 
" style="stroke: #000000; stroke-width: 0.8"/>
      </defs>
      <g>
       <use xlink:href="#m1ac0aa8b71" x="58.806605" y="205.068125" style="stroke: #000000; stroke-width: 0.8"/>
      </g>
     </g>
     <g id="text_1">
      <!-- 0 -->
      <g transform="translate(55.625355 219.666562)scale(0.1 -0.1)">
       <defs>
        <path id="DejaVuSans-30" d="M 2034 4250 
Q 1547 4250 1301 3770 
Q 1056 3291 1056 2328 
Q 1056 1369 1301 889 
Q 1547 409 2034 409 
Q 2525 409 2770 889 
Q 3016 1369 3016 2328 
Q 3016 3291 2770 3770 
Q 2525 4250 2034 4250 
z
M 2034 4750 
Q 2819 4750 3233 4129 
Q 3647 3509 3647 2328 
Q 3647 1150 3233 529 
Q 2819 -91 2034 -91 
Q 1250 -91 836 529 
Q 422 1150 422 2328 
Q 422 3509 836 4129 
Q 1250 4750 2034 4750 
z
" transform="scale(0.015625)"/>
       </defs>
       <use xlink:href="#DejaVuSans-30"/>
      </g>
     </g>
    </g>
    <g id="xtick_2">
     <g id="line2d_2">
      <g>
       <use xlink:href="#m1ac0aa8b71" x="117.887689" y="205.068125" style="stroke: #000000; stroke-width: 0.8"/>
      </g>
     </g>
     <g id="text_2">
      <!-- 100 -->
      <g transform="translate(108.343939 219.666562)scale(0.1 -0.1)">
       <defs>
        <path id="DejaVuSans-31" d="M 794 531 
L 1825 531 
L 1825 4091 
L 703 3866 
L 703 4441 
L 1819 4666 
L 2450 4666 
L 2450 531 
L 3481 531 
L 3481 0 
L 794 0 
L 794 531 
z
" transform="scale(0.015625)"/>
       </defs>
       <use xlink:href="#DejaVuSans-31"/>
       <use xlink:href="#DejaVuSans-30" x="63.623047"/>
       <use xlink:href="#DejaVuSans-30" x="127.246094"/>
      </g>
     </g>
    </g>
    <g id="xtick_3">
     <g id="line2d_3">
      <g>
       <use xlink:href="#m1ac0aa8b71" x="176.968774" y="205.068125" style="stroke: #000000; stroke-width: 0.8"/>
      </g>
     </g>
     <g id="text_3">
      <!-- 200 -->
      <g transform="translate(167.425024 219.666562)scale(0.1 -0.1)">
       <defs>
        <path id="DejaVuSans-32" d="M 1228 531 
L 3431 531 
L 3431 0 
L 469 0 
L 469 531 
Q 828 903 1448 1529 
Q 2069 2156 2228 2338 
Q 2531 2678 2651 2914 
Q 2772 3150 2772 3378 
Q 2772 3750 2511 3984 
Q 2250 4219 1831 4219 
Q 1534 4219 1204 4116 
Q 875 4013 500 3803 
L 500 4441 
Q 881 4594 1212 4672 
Q 1544 4750 1819 4750 
Q 2544 4750 2975 4387 
Q 3406 4025 3406 3419 
Q 3406 3131 3298 2873 
Q 3191 2616 2906 2266 
Q 2828 2175 2409 1742 
Q 1991 1309 1228 531 
z
" transform="scale(0.015625)"/>
       </defs>
       <use xlink:href="#DejaVuSans-32"/>
       <use xlink:href="#DejaVuSans-30" x="63.623047"/>
       <use xlink:href="#DejaVuSans-30" x="127.246094"/>
      </g>
     </g>
    </g>
    <g id="text_4">
     <!-- Time (min) -->
     <g transform="translate(97.121094 240.864375)scale(0.12 -0.12)">
      <defs>
       <path id="DejaVuSans-54" d="M -19 4666 
L 3928 4666 
L 3928 4134 
L 2272 4134 
L 2272 0 
L 1638 0 
L 1638 4134 
L -19 4134 
L -19 4666 
z
" transform="scale(0.015625)"/>
       <path id="DejaVuSans-69" d="M 603 3500 
L 1178 3500 
L 1178 0 
L 603 0 
L 603 3500 
z
M 603 4863 
L 1178 4863 
L 1178 4134 
L 603 4134 
L 603 4863 
z
" transform="scale(0.015625)"/>
       <path id="DejaVuSans-6d" d="M 3328 2828 
Q 3544 3216 3844 3400 
Q 4144 3584 4550 3584 
Q 5097 3584 5394 3201 
Q 5691 2819 5691 2113 
L 5691 0 
L 5113 0 
L 5113 2094 
Q 5113 2597 4934 2840 
Q 4756 3084 4391 3084 
Q 3944 3084 3684 2787 
Q 3425 2491 3425 1978 
L 3425 0 
L 2847 0 
L 2847 2094 
Q 2847 2600 2669 2842 
Q 2491 3084 2119 3084 
Q 1678 3084 1418 2786 
Q 1159 2488 1159 1978 
L 1159 0 
L 581 0 
L 581 3500 
L 1159 3500 
L 1159 2956 
Q 1356 3278 1631 3431 
Q 1906 3584 2284 3584 
Q 2666 3584 2933 3390 
Q 3200 3197 3328 2828 
z
" transform="scale(0.015625)"/>
       <path id="DejaVuSans-65" d="M 3597 1894 
L 3597 1613 
L 953 1613 
Q 991 1019 1311 708 
Q 1631 397 2203 397 
Q 2534 397 2845 478 
Q 3156 559 3463 722 
L 3463 178 
Q 3153 47 2828 -22 
Q 2503 -91 2169 -91 
Q 1331 -91 842 396 
Q 353 884 353 1716 
Q 353 2575 817 3079 
Q 1281 3584 2069 3584 
Q 2775 3584 3186 3129 
Q 3597 2675 3597 1894 
z
M 3022 2063 
Q 3016 2534 2758 2815 
Q 2500 3097 2075 3097 
Q 1594 3097 1305 2825 
Q 1016 2553 972 2059 
L 3022 2063 
z
" transform="scale(0.015625)"/>
       <path id="DejaVuSans-20" transform="scale(0.015625)"/>
       <path id="DejaVuSans-28" d="M 1984 4856 
Q 1566 4138 1362 3434 
Q 1159 2731 1159 2009 
Q 1159 1288 1364 580 
Q 1569 -128 1984 -844 
L 1484 -844 
Q 1016 -109 783 600 
Q 550 1309 550 2009 
Q 550 2706 781 3412 
Q 1013 4119 1484 4856 
L 1984 4856 
z
" transform="scale(0.015625)"/>
       <path id="DejaVuSans-6e" d="M 3513 2113 
L 3513 0 
L 2938 0 
L 2938 2094 
Q 2938 2591 2744 2837 
Q 2550 3084 2163 3084 
Q 1697 3084 1428 2787 
Q 1159 2491 1159 1978 
L 1159 0 
L 581 0 
L 581 3500 
L 1159 3500 
L 1159 2956 
Q 1366 3272 1645 3428 
Q 1925 3584 2291 3584 
Q 2894 3584 3203 3211 
Q 3513 2838 3513 2113 
z
" transform="scale(0.015625)"/>
       <path id="DejaVuSans-29" d="M 513 4856 
L 1013 4856 
Q 1481 4119 1714 3412 
Q 1947 2706 1947 2009 
Q 1947 1309 1714 600 
Q 1481 -109 1013 -844 
L 513 -844 
Q 928 -128 1133 580 
Q 1338 1288 1338 2009 
Q 1338 2731 1133 3434 
Q 928 4138 513 4856 
z
" transform="scale(0.015625)"/>
      </defs>
      <use xlink:href="#DejaVuSans-54"/>
      <use xlink:href="#DejaVuSans-69" x="57.958984"/>
      <use xlink:href="#DejaVuSans-6d" x="85.742188"/>
      <use xlink:href="#DejaVuSans-65" x="183.154297"/>
      <use xlink:href="#DejaVuSans-20" x="244.677734"/>
      <use xlink:href="#DejaVuSans-28" x="276.464844"/>
      <use xlink:href="#DejaVuSans-6d" x="315.478516"/>
      <use xlink:href="#DejaVuSans-69" x="412.890625"/>
      <use xlink:href="#DejaVuSans-6e" x="440.673828"/>
      <use xlink:href="#DejaVuSans-29" x="504.052734"/>
     </g>
    </g>
   </g>
   <g id="matplotlib.axis_2">
    <g id="ytick_1">
     <g id="line2d_4">
      <defs>
       <path id="m7888772e5e" d="M 0 0 
L -3.5 0 
" style="stroke: #000000; stroke-width: 0.8"/>
      </defs>
      <g>
       <use xlink:href="#m7888772e5e" x="51.716875" y="205.068125" style="stroke: #000000; stroke-width: 0.8"/>
      </g>
     </g>
     <g id="text_5">
      <!-- 0.0 -->
      <g transform="translate(28.81375 208.867344)scale(0.1 -0.1)">
       <defs>
        <path id="DejaVuSans-2e" d="M 684 794 
L 1344 794 
L 1344 0 
L 684 0 
L 684 794 
z
" transform="scale(0.015625)"/>
       </defs>
       <use xlink:href="#DejaVuSans-30"/>
       <use xlink:href="#DejaVuSans-2e" x="63.623047"/>
       <use xlink:href="#DejaVuSans-30" x="95.410156"/>
      </g>
     </g>
    </g>
    <g id="ytick_2">
     <g id="line2d_5">
      <g>
       <use xlink:href="#m7888772e5e" x="51.716875" y="173.873312" style="stroke: #000000; stroke-width: 0.8"/>
      </g>
     </g>
     <g id="text_6">
      <!-- 0.2 -->
      <g transform="translate(28.81375 177.672531)scale(0.1 -0.1)">
       <use xlink:href="#DejaVuSans-30"/>
       <use xlink:href="#DejaVuSans-2e" x="63.623047"/>
       <use xlink:href="#DejaVuSans-32" x="95.410156"/>
      </g>
     </g>
    </g>
    <g id="ytick_3">
     <g id="line2d_6">
      <g>
       <use xlink:href="#m7888772e5e" x="51.716875" y="142.6785" style="stroke: #000000; stroke-width: 0.8"/>
      </g>
     </g>
     <g id="text_7">
      <!-- 0.4 -->
      <g transform="translate(28.81375 146.477719)scale(0.1 -0.1)">
       <defs>
        <path id="DejaVuSans-34" d="M 2419 4116 
L 825 1625 
L 2419 1625 
L 2419 4116 
z
M 2253 4666 
L 3047 4666 
L 3047 1625 
L 3713 1625 
L 3713 1100 
L 3047 1100 
L 3047 0 
L 2419 0 
L 2419 1100 
L 313 1100 
L 313 1709 
L 2253 4666 
z
" transform="scale(0.015625)"/>
       </defs>
       <use xlink:href="#DejaVuSans-30"/>
       <use xlink:href="#DejaVuSans-2e" x="63.623047"/>
       <use xlink:href="#DejaVuSans-34" x="95.410156"/>
      </g>
     </g>
    </g>
    <g id="ytick_4">
     <g id="line2d_7">
      <g>
       <use xlink:href="#m7888772e5e" x="51.716875" y="111.483687" style="stroke: #000000; stroke-width: 0.8"/>
      </g>
     </g>
     <g id="text_8">
      <!-- 0.6 -->
      <g transform="translate(28.81375 115.282906)scale(0.1 -0.1)">
       <defs>
        <path id="DejaVuSans-36" d="M 2113 2584 
Q 1688 2584 1439 2293 
Q 1191 2003 1191 1497 
Q 1191 994 1439 701 
Q 1688 409 2113 409 
Q 2538 409 2786 701 
Q 3034 994 3034 1497 
Q 3034 2003 2786 2293 
Q 2538 2584 2113 2584 
z
M 3366 4563 
L 3366 3988 
Q 3128 4100 2886 4159 
Q 2644 4219 2406 4219 
Q 1781 4219 1451 3797 
Q 1122 3375 1075 2522 
Q 1259 2794 1537 2939 
Q 1816 3084 2150 3084 
Q 2853 3084 3261 2657 
Q 3669 2231 3669 1497 
Q 3669 778 3244 343 
Q 2819 -91 2113 -91 
Q 1303 -91 875 529 
Q 447 1150 447 2328 
Q 447 3434 972 4092 
Q 1497 4750 2381 4750 
Q 2619 4750 2861 4703 
Q 3103 4656 3366 4563 
z
" transform="scale(0.015625)"/>
       </defs>
       <use xlink:href="#DejaVuSans-30"/>
       <use xlink:href="#DejaVuSans-2e" x="63.623047"/>
       <use xlink:href="#DejaVuSans-36" x="95.410156"/>
      </g>
     </g>
    </g>
    <g id="ytick_5">
     <g id="line2d_8">
      <g>
       <use xlink:href="#m7888772e5e" x="51.716875" y="80.288875" style="stroke: #000000; stroke-width: 0.8"/>
      </g>
     </g>
     <g id="text_9">
      <!-- 0.8 -->
      <g transform="translate(28.81375 84.088094)scale(0.1 -0.1)">
       <defs>
        <path id="DejaVuSans-38" d="M 2034 2216 
Q 1584 2216 1326 1975 
Q 1069 1734 1069 1313 
Q 1069 891 1326 650 
Q 1584 409 2034 409 
Q 2484 409 2743 651 
Q 3003 894 3003 1313 
Q 3003 1734 2745 1975 
Q 2488 2216 2034 2216 
z
M 1403 2484 
Q 997 2584 770 2862 
Q 544 3141 544 3541 
Q 544 4100 942 4425 
Q 1341 4750 2034 4750 
Q 2731 4750 3128 4425 
Q 3525 4100 3525 3541 
Q 3525 3141 3298 2862 
Q 3072 2584 2669 2484 
Q 3125 2378 3379 2068 
Q 3634 1759 3634 1313 
Q 3634 634 3220 271 
Q 2806 -91 2034 -91 
Q 1263 -91 848 271 
Q 434 634 434 1313 
Q 434 1759 690 2068 
Q 947 2378 1403 2484 
z
M 1172 3481 
Q 1172 3119 1398 2916 
Q 1625 2713 2034 2713 
Q 2441 2713 2670 2916 
Q 2900 3119 2900 3481 
Q 2900 3844 2670 4047 
Q 2441 4250 2034 4250 
Q 1625 4250 1398 4047 
Q 1172 3844 1172 3481 
z
" transform="scale(0.015625)"/>
       </defs>
       <use xlink:href="#DejaVuSans-30"/>
       <use xlink:href="#DejaVuSans-2e" x="63.623047"/>
       <use xlink:href="#DejaVuSans-38" x="95.410156"/>
      </g>
     </g>
    </g>
    <g id="ytick_6">
     <g id="line2d_9">
      <g>
       <use xlink:href="#m7888772e5e" x="51.716875" y="49.094062" style="stroke: #000000; stroke-width: 0.8"/>
      </g>
     </g>
     <g id="text_10">
      <!-- 1.0 -->
      <g transform="translate(28.81375 52.893281)scale(0.1 -0.1)">
       <use xlink:href="#DejaVuSans-31"/>
       <use xlink:href="#DejaVuSans-2e" x="63.623047"/>
       <use xlink:href="#DejaVuSans-30" x="95.410156"/>
      </g>
     </g>
    </g>
    <g id="text_11">
     <!-- Normalized exp output -->
     <g transform="translate(16.318125 195.658281)rotate(-90)scale(0.12 -0.12)">
      <defs>
       <path id="DejaVuSans-4e" d="M 628 4666 
L 1478 4666 
L 3547 763 
L 3547 4666 
L 4159 4666 
L 4159 0 
L 3309 0 
L 1241 3903 
L 1241 0 
L 628 0 
L 628 4666 
z
" transform="scale(0.015625)"/>
       <path id="DejaVuSans-6f" d="M 1959 3097 
Q 1497 3097 1228 2736 
Q 959 2375 959 1747 
Q 959 1119 1226 758 
Q 1494 397 1959 397 
Q 2419 397 2687 759 
Q 2956 1122 2956 1747 
Q 2956 2369 2687 2733 
Q 2419 3097 1959 3097 
z
M 1959 3584 
Q 2709 3584 3137 3096 
Q 3566 2609 3566 1747 
Q 3566 888 3137 398 
Q 2709 -91 1959 -91 
Q 1206 -91 779 398 
Q 353 888 353 1747 
Q 353 2609 779 3096 
Q 1206 3584 1959 3584 
z
" transform="scale(0.015625)"/>
       <path id="DejaVuSans-72" d="M 2631 2963 
Q 2534 3019 2420 3045 
Q 2306 3072 2169 3072 
Q 1681 3072 1420 2755 
Q 1159 2438 1159 1844 
L 1159 0 
L 581 0 
L 581 3500 
L 1159 3500 
L 1159 2956 
Q 1341 3275 1631 3429 
Q 1922 3584 2338 3584 
Q 2397 3584 2469 3576 
Q 2541 3569 2628 3553 
L 2631 2963 
z
" transform="scale(0.015625)"/>
       <path id="DejaVuSans-61" d="M 2194 1759 
Q 1497 1759 1228 1600 
Q 959 1441 959 1056 
Q 959 750 1161 570 
Q 1363 391 1709 391 
Q 2188 391 2477 730 
Q 2766 1069 2766 1631 
L 2766 1759 
L 2194 1759 
z
M 3341 1997 
L 3341 0 
L 2766 0 
L 2766 531 
Q 2569 213 2275 61 
Q 1981 -91 1556 -91 
Q 1019 -91 701 211 
Q 384 513 384 1019 
Q 384 1609 779 1909 
Q 1175 2209 1959 2209 
L 2766 2209 
L 2766 2266 
Q 2766 2663 2505 2880 
Q 2244 3097 1772 3097 
Q 1472 3097 1187 3025 
Q 903 2953 641 2809 
L 641 3341 
Q 956 3463 1253 3523 
Q 1550 3584 1831 3584 
Q 2591 3584 2966 3190 
Q 3341 2797 3341 1997 
z
" transform="scale(0.015625)"/>
       <path id="DejaVuSans-6c" d="M 603 4863 
L 1178 4863 
L 1178 0 
L 603 0 
L 603 4863 
z
" transform="scale(0.015625)"/>
       <path id="DejaVuSans-7a" d="M 353 3500 
L 3084 3500 
L 3084 2975 
L 922 459 
L 3084 459 
L 3084 0 
L 275 0 
L 275 525 
L 2438 3041 
L 353 3041 
L 353 3500 
z
" transform="scale(0.015625)"/>
       <path id="DejaVuSans-64" d="M 2906 2969 
L 2906 4863 
L 3481 4863 
L 3481 0 
L 2906 0 
L 2906 525 
Q 2725 213 2448 61 
Q 2172 -91 1784 -91 
Q 1150 -91 751 415 
Q 353 922 353 1747 
Q 353 2572 751 3078 
Q 1150 3584 1784 3584 
Q 2172 3584 2448 3432 
Q 2725 3281 2906 2969 
z
M 947 1747 
Q 947 1113 1208 752 
Q 1469 391 1925 391 
Q 2381 391 2643 752 
Q 2906 1113 2906 1747 
Q 2906 2381 2643 2742 
Q 2381 3103 1925 3103 
Q 1469 3103 1208 2742 
Q 947 2381 947 1747 
z
" transform="scale(0.015625)"/>
       <path id="DejaVuSans-78" d="M 3513 3500 
L 2247 1797 
L 3578 0 
L 2900 0 
L 1881 1375 
L 863 0 
L 184 0 
L 1544 1831 
L 300 3500 
L 978 3500 
L 1906 2253 
L 2834 3500 
L 3513 3500 
z
" transform="scale(0.015625)"/>
       <path id="DejaVuSans-70" d="M 1159 525 
L 1159 -1331 
L 581 -1331 
L 581 3500 
L 1159 3500 
L 1159 2969 
Q 1341 3281 1617 3432 
Q 1894 3584 2278 3584 
Q 2916 3584 3314 3078 
Q 3713 2572 3713 1747 
Q 3713 922 3314 415 
Q 2916 -91 2278 -91 
Q 1894 -91 1617 61 
Q 1341 213 1159 525 
z
M 3116 1747 
Q 3116 2381 2855 2742 
Q 2594 3103 2138 3103 
Q 1681 3103 1420 2742 
Q 1159 2381 1159 1747 
Q 1159 1113 1420 752 
Q 1681 391 2138 391 
Q 2594 391 2855 752 
Q 3116 1113 3116 1747 
z
" transform="scale(0.015625)"/>
       <path id="DejaVuSans-75" d="M 544 1381 
L 544 3500 
L 1119 3500 
L 1119 1403 
Q 1119 906 1312 657 
Q 1506 409 1894 409 
Q 2359 409 2629 706 
Q 2900 1003 2900 1516 
L 2900 3500 
L 3475 3500 
L 3475 0 
L 2900 0 
L 2900 538 
Q 2691 219 2414 64 
Q 2138 -91 1772 -91 
Q 1169 -91 856 284 
Q 544 659 544 1381 
z
M 1991 3584 
L 1991 3584 
z
" transform="scale(0.015625)"/>
       <path id="DejaVuSans-74" d="M 1172 4494 
L 1172 3500 
L 2356 3500 
L 2356 3053 
L 1172 3053 
L 1172 1153 
Q 1172 725 1289 603 
Q 1406 481 1766 481 
L 2356 481 
L 2356 0 
L 1766 0 
Q 1100 0 847 248 
Q 594 497 594 1153 
L 594 3053 
L 172 3053 
L 172 3500 
L 594 3500 
L 594 4494 
L 1172 4494 
z
" transform="scale(0.015625)"/>
      </defs>
      <use xlink:href="#DejaVuSans-4e"/>
      <use xlink:href="#DejaVuSans-6f" x="74.804688"/>
      <use xlink:href="#DejaVuSans-72" x="135.986328"/>
      <use xlink:href="#DejaVuSans-6d" x="175.349609"/>
      <use xlink:href="#DejaVuSans-61" x="272.761719"/>
      <use xlink:href="#DejaVuSans-6c" x="334.041016"/>
      <use xlink:href="#DejaVuSans-69" x="361.824219"/>
      <use xlink:href="#DejaVuSans-7a" x="389.607422"/>
      <use xlink:href="#DejaVuSans-65" x="442.097656"/>
      <use xlink:href="#DejaVuSans-64" x="503.621094"/>
      <use xlink:href="#DejaVuSans-20" x="567.097656"/>
      <use xlink:href="#DejaVuSans-65" x="598.884766"/>
      <use xlink:href="#DejaVuSans-78" x="658.658203"/>
      <use xlink:href="#DejaVuSans-70" x="717.837891"/>
      <use xlink:href="#DejaVuSans-20" x="781.314453"/>
      <use xlink:href="#DejaVuSans-6f" x="813.101562"/>
      <use xlink:href="#DejaVuSans-75" x="874.283203"/>
      <use xlink:href="#DejaVuSans-74" x="937.662109"/>
      <use xlink:href="#DejaVuSans-70" x="976.871094"/>
      <use xlink:href="#DejaVuSans-75" x="1040.347656"/>
      <use xlink:href="#DejaVuSans-74" x="1103.726562"/>
     </g>
    </g>
   </g>
   <g id="line2d_10">
    <path d="M 58.806605 202.3904 
L 61.169848 202.057384 
L 63.533092 201.717571 
L 65.896335 201.214648 
L 68.259579 200.90202 
L 70.622822 200.602985 
L 72.986065 200.120451 
L 75.349309 199.896175 
L 77.712552 199.631121 
L 80.075795 199.230142 
L 82.439039 199.046643 
L 84.802282 198.679645 
L 87.165526 198.353425 
L 89.528769 197.979631 
L 91.892012 197.551466 
L 94.255256 197.320394 
L 96.618499 197.225246 
L 98.981742 196.803878 
L 101.344986 196.511639 
L 103.708229 196.287363 
L 106.071473 196.069883 
L 108.434716 195.804829 
L 110.797959 195.668904 
L 113.161203 195.498997 
L 115.524446 195.18637 
L 117.887689 195.057241 
L 120.250933 195.036852 
L 122.614176 194.948501 
L 124.97742 194.717428 
L 127.340663 194.744613 
L 129.703906 194.67665 
L 132.06715 194.445578 
L 134.430393 194.431985 
L 136.793636 194.309653 
L 139.15688 194.302856 
L 141.520123 194.207709 
L 143.883366 194.194116 
L 146.24661 194.058191 
L 148.609853 193.847507 
L 150.973097 193.772748 
L 153.33634 193.650416 
L 155.699583 193.91547 
L 158.062827 193.494102 
L 160.42607 193.337788 
L 162.789313 193.229048 
L 165.152557 193.303807 
L 167.5158 193.215456 
L 169.879044 193.059142 
L 172.242287 193.215456 
L 174.60553 192.950402 
L 176.968774 192.630978 
L 179.332017 192.705736 
L 181.69526 192.69894 
L 184.058504 192.501849 
L 186.421747 192.556219 
L 188.784991 192.37272 
L 191.148234 192.229998 
L 193.511477 192.175628 
L 195.874721 192.182425 
L 198.237964 192.019315 
L 200.601207 192.039703 
" clip-path="url(#pa8defc7ab0)" style="fill: none; stroke: #b0c4de; stroke-width: 2; stroke-linecap: square"/>
   </g>
   <g id="line2d_11">
    <path d="M 58.806605 202.145735 
L 61.169848 201.90107 
L 63.533092 201.540868 
L 65.896335 201.099112 
L 68.259579 200.670948 
L 70.622822 200.453468 
L 72.986065 200.127247 
L 75.349309 199.678694 
L 77.712552 199.386455 
L 80.075795 199.202957 
L 82.439039 198.747607 
L 84.802282 198.462165 
L 87.165526 198.231092 
L 89.528769 197.925261 
L 91.892012 197.510689 
L 94.255256 197.483504 
L 96.618499 197.293209 
L 98.981742 197.096117 
L 101.344986 196.858248 
L 103.708229 196.831063 
L 106.071473 196.769897 
L 108.434716 196.633972 
L 110.797959 196.559213 
L 113.161203 196.477658 
L 115.524446 196.498047 
L 117.887689 196.402899 
L 120.250933 196.192215 
L 122.614176 196.00192 
L 124.97742 196.015513 
L 127.340663 195.879588 
L 129.703906 195.764051 
L 132.06715 195.492201 
L 134.430393 195.709681 
L 136.793636 195.383461 
L 139.15688 195.213555 
L 141.520123 195.165981 
L 143.883366 195.172777 
L 146.24661 195.036852 
L 148.609853 194.846557 
L 150.973097 194.778594 
L 153.33634 194.758205 
L 155.699583 194.533929 
L 158.062827 194.418393 
L 160.42607 194.228098 
L 162.789313 194.268875 
L 165.152557 194.153339 
L 167.5158 193.990229 
L 169.879044 193.922266 
L 172.242287 193.813526 
L 174.60553 193.53488 
L 176.968774 193.575657 
L 179.332017 193.582453 
L 181.69526 193.548472 
L 184.058504 193.419343 
L 186.421747 193.385362 
L 188.784991 193.038753 
L 191.148234 192.957198 
L 193.511477 192.855254 
L 195.874721 192.930013 
L 198.237964 192.760106 
L 200.601207 192.64457 
" clip-path="url(#pa8defc7ab0)" style="fill: none; stroke: #4169e1; stroke-width: 2; stroke-linecap: square"/>
   </g>
   <g id="line2d_12">
    <path d="M 58.806605 202.166124 
L 61.169848 201.95544 
L 63.533092 201.690386 
L 65.896335 201.364166 
L 68.259579 201.262222 
L 70.622822 200.881632 
L 72.986065 200.562208 
L 75.349309 200.480653 
L 77.712552 200.120451 
L 80.075795 199.889378 
L 82.439039 199.678694 
L 84.802282 199.427233 
L 87.165526 198.951495 
L 89.528769 198.863144 
L 91.892012 198.428183 
L 94.255256 198.142741 
L 96.618499 198.081574 
L 98.981742 198.142741 
L 101.344986 198.333036 
L 103.708229 198.061186 
L 106.071473 197.843705 
L 108.434716 197.748558 
L 110.797959 197.639818 
L 113.161203 197.374764 
L 115.524446 197.510689 
L 117.887689 197.16408 
L 120.250933 196.994174 
L 122.614176 196.885433 
L 124.97742 196.817471 
L 127.340663 196.681546 
L 129.703906 196.518436 
L 132.06715 196.457269 
L 134.430393 196.294159 
L 136.793636 196.266974 
L 139.15688 196.185419 
L 141.520123 196.008716 
L 143.883366 195.886384 
L 146.24661 195.648515 
L 148.609853 195.532979 
L 150.973097 195.614534 
L 153.33634 195.329091 
L 155.699583 195.288313 
L 158.062827 195.24074 
L 160.42607 194.914519 
L 162.789313 194.894131 
L 165.152557 194.785391 
L 167.5158 194.751409 
L 169.879044 194.51354 
L 172.242287 194.445578 
L 174.60553 194.384411 
L 176.968774 193.983432 
L 179.332017 194.092172 
L 181.69526 193.888285 
L 184.058504 193.990229 
L 186.421747 193.670805 
L 188.784991 193.942655 
L 191.148234 193.64362 
L 193.511477 193.799933 
L 195.874721 193.235844 
L 198.237964 193.392158 
L 200.601207 193.201863 
" clip-path="url(#pa8defc7ab0)" style="fill: none; stroke: #191970; stroke-width: 2; stroke-linecap: square"/>
   </g>
   <g id="patch_3">
    <path d="M 51.716875 205.068125 
L 51.716875 49.094062 
" style="fill: none; stroke: #000000; stroke-width: 0.8; stroke-linejoin: miter; stroke-linecap: square"/>
   </g>
   <g id="patch_4">
    <path d="M 51.716875 205.068125 
L 207.690938 205.068125 
" style="fill: none; stroke: #000000; stroke-width: 0.8; stroke-linejoin: miter; stroke-linecap: square"/>
   </g>
   <g id="text_12">
    <!-- vRNA = 0fM -->
    <g transform="translate(96.239844 43.094062)scale(0.1 -0.1)">
     <defs>
      <path id="DejaVuSans-Bold-76" d="M 97 3500 
L 1216 3500 
L 2088 1081 
L 2956 3500 
L 4078 3500 
L 2700 0 
L 1472 0 
L 97 3500 
z
" transform="scale(0.015625)"/>
      <path id="DejaVuSans-Bold-52" d="M 2297 2597 
Q 2675 2597 2839 2737 
Q 3003 2878 3003 3200 
Q 3003 3519 2839 3656 
Q 2675 3794 2297 3794 
L 1791 3794 
L 1791 2597 
L 2297 2597 
z
M 1791 1766 
L 1791 0 
L 588 0 
L 588 4666 
L 2425 4666 
Q 3347 4666 3776 4356 
Q 4206 4047 4206 3378 
Q 4206 2916 3982 2619 
Q 3759 2322 3309 2181 
Q 3556 2125 3751 1926 
Q 3947 1728 4147 1325 
L 4800 0 
L 3519 0 
L 2950 1159 
Q 2778 1509 2601 1637 
Q 2425 1766 2131 1766 
L 1791 1766 
z
" transform="scale(0.015625)"/>
      <path id="DejaVuSans-Bold-4e" d="M 588 4666 
L 1931 4666 
L 3628 1466 
L 3628 4666 
L 4769 4666 
L 4769 0 
L 3425 0 
L 1728 3200 
L 1728 0 
L 588 0 
L 588 4666 
z
" transform="scale(0.015625)"/>
      <path id="DejaVuSans-Bold-41" d="M 3419 850 
L 1538 850 
L 1241 0 
L 31 0 
L 1759 4666 
L 3194 4666 
L 4922 0 
L 3713 0 
L 3419 850 
z
M 1838 1716 
L 3116 1716 
L 2478 3572 
L 1838 1716 
z
" transform="scale(0.015625)"/>
      <path id="DejaVuSans-Bold-20" transform="scale(0.015625)"/>
      <path id="DejaVuSans-Bold-3d" d="M 678 3084 
L 4684 3084 
L 4684 2350 
L 678 2350 
L 678 3084 
z
M 678 1663 
L 4684 1663 
L 4684 922 
L 678 922 
L 678 1663 
z
" transform="scale(0.015625)"/>
      <path id="DejaVuSans-Bold-30" d="M 2944 2338 
Q 2944 3213 2780 3570 
Q 2616 3928 2228 3928 
Q 1841 3928 1675 3570 
Q 1509 3213 1509 2338 
Q 1509 1453 1675 1090 
Q 1841 728 2228 728 
Q 2613 728 2778 1090 
Q 2944 1453 2944 2338 
z
M 4147 2328 
Q 4147 1169 3647 539 
Q 3147 -91 2228 -91 
Q 1306 -91 806 539 
Q 306 1169 306 2328 
Q 306 3491 806 4120 
Q 1306 4750 2228 4750 
Q 3147 4750 3647 4120 
Q 4147 3491 4147 2328 
z
" transform="scale(0.015625)"/>
      <path id="DejaVuSans-Bold-66" d="M 2841 4863 
L 2841 4128 
L 2222 4128 
Q 1984 4128 1890 4042 
Q 1797 3956 1797 3744 
L 1797 3500 
L 2753 3500 
L 2753 2700 
L 1797 2700 
L 1797 0 
L 678 0 
L 678 2700 
L 122 2700 
L 122 3500 
L 678 3500 
L 678 3744 
Q 678 4316 997 4589 
Q 1316 4863 1984 4863 
L 2841 4863 
z
" transform="scale(0.015625)"/>
      <path id="DejaVuSans-Bold-4d" d="M 588 4666 
L 2119 4666 
L 3181 2169 
L 4250 4666 
L 5778 4666 
L 5778 0 
L 4641 0 
L 4641 3413 
L 3566 897 
L 2803 897 
L 1728 3413 
L 1728 0 
L 588 0 
L 588 4666 
z
" transform="scale(0.015625)"/>
     </defs>
     <use xlink:href="#DejaVuSans-Bold-76"/>
     <use xlink:href="#DejaVuSans-Bold-52" x="65.185547"/>
     <use xlink:href="#DejaVuSans-Bold-4e" x="142.1875"/>
     <use xlink:href="#DejaVuSans-Bold-41" x="225.878906"/>
     <use xlink:href="#DejaVuSans-Bold-20" x="303.271484"/>
     <use xlink:href="#DejaVuSans-Bold-3d" x="338.085938"/>
     <use xlink:href="#DejaVuSans-Bold-20" x="421.875"/>
     <use xlink:href="#DejaVuSans-Bold-30" x="456.689453"/>
     <use xlink:href="#DejaVuSans-Bold-66" x="526.269531"/>
     <use xlink:href="#DejaVuSans-Bold-4d" x="569.775391"/>
    </g>
   </g>
   <g id="legend_1">
    <g id="patch_5">
     <path d="M 130.915938 101.128437 
L 200.690938 101.128437 
Q 202.690938 101.128437 202.690938 99.128437 
L 202.690938 56.094062 
Q 202.690938 54.094062 200.690938 54.094062 
L 130.915938 54.094062 
Q 128.915938 54.094062 128.915938 56.094062 
L 128.915938 99.128437 
Q 128.915938 101.128437 130.915938 101.128437 
z
" style="fill: #ffffff; opacity: 0.8; stroke: #cccccc; stroke-linejoin: miter"/>
    </g>
    <g id="line2d_13">
     <path d="M 132.915938 62.1925 
L 142.915938 62.1925 
L 152.915938 62.1925 
" style="fill: none; stroke: #b0c4de; stroke-width: 2; stroke-linecap: square"/>
    </g>
    <g id="text_13">
     <!-- RT 0.5 -->
     <g transform="translate(160.915938 65.6925)scale(0.1 -0.1)">
      <defs>
       <path id="DejaVuSans-52" d="M 2841 2188 
Q 3044 2119 3236 1894 
Q 3428 1669 3622 1275 
L 4263 0 
L 3584 0 
L 2988 1197 
Q 2756 1666 2539 1819 
Q 2322 1972 1947 1972 
L 1259 1972 
L 1259 0 
L 628 0 
L 628 4666 
L 2053 4666 
Q 2853 4666 3247 4331 
Q 3641 3997 3641 3322 
Q 3641 2881 3436 2590 
Q 3231 2300 2841 2188 
z
M 1259 4147 
L 1259 2491 
L 2053 2491 
Q 2509 2491 2742 2702 
Q 2975 2913 2975 3322 
Q 2975 3731 2742 3939 
Q 2509 4147 2053 4147 
L 1259 4147 
z
" transform="scale(0.015625)"/>
       <path id="DejaVuSans-35" d="M 691 4666 
L 3169 4666 
L 3169 4134 
L 1269 4134 
L 1269 2991 
Q 1406 3038 1543 3061 
Q 1681 3084 1819 3084 
Q 2600 3084 3056 2656 
Q 3513 2228 3513 1497 
Q 3513 744 3044 326 
Q 2575 -91 1722 -91 
Q 1428 -91 1123 -41 
Q 819 9 494 109 
L 494 744 
Q 775 591 1075 516 
Q 1375 441 1709 441 
Q 2250 441 2565 725 
Q 2881 1009 2881 1497 
Q 2881 1984 2565 2268 
Q 2250 2553 1709 2553 
Q 1456 2553 1204 2497 
Q 953 2441 691 2322 
L 691 4666 
z
" transform="scale(0.015625)"/>
      </defs>
      <use xlink:href="#DejaVuSans-52"/>
      <use xlink:href="#DejaVuSans-54" x="62.232422"/>
      <use xlink:href="#DejaVuSans-20" x="123.316406"/>
      <use xlink:href="#DejaVuSans-30" x="155.103516"/>
      <use xlink:href="#DejaVuSans-2e" x="218.726562"/>
      <use xlink:href="#DejaVuSans-35" x="250.513672"/>
     </g>
    </g>
    <g id="line2d_14">
     <path d="M 132.915938 76.870625 
L 142.915938 76.870625 
L 152.915938 76.870625 
" style="fill: none; stroke: #4169e1; stroke-width: 2; stroke-linecap: square"/>
    </g>
    <g id="text_14">
     <!-- RT 2.5 -->
     <g transform="translate(160.915938 80.370625)scale(0.1 -0.1)">
      <use xlink:href="#DejaVuSans-52"/>
      <use xlink:href="#DejaVuSans-54" x="62.232422"/>
      <use xlink:href="#DejaVuSans-20" x="123.316406"/>
      <use xlink:href="#DejaVuSans-32" x="155.103516"/>
      <use xlink:href="#DejaVuSans-2e" x="218.726562"/>
      <use xlink:href="#DejaVuSans-35" x="250.513672"/>
     </g>
    </g>
    <g id="line2d_15">
     <path d="M 132.915938 91.54875 
L 142.915938 91.54875 
L 152.915938 91.54875 
" style="fill: none; stroke: #191970; stroke-width: 2; stroke-linecap: square"/>
    </g>
    <g id="text_15">
     <!-- RT 10.0 -->
     <g transform="translate(160.915938 95.04875)scale(0.1 -0.1)">
      <use xlink:href="#DejaVuSans-52"/>
      <use xlink:href="#DejaVuSans-54" x="62.232422"/>
      <use xlink:href="#DejaVuSans-20" x="123.316406"/>
      <use xlink:href="#DejaVuSans-31" x="155.103516"/>
      <use xlink:href="#DejaVuSans-30" x="218.726562"/>
      <use xlink:href="#DejaVuSans-2e" x="282.349609"/>
      <use xlink:href="#DejaVuSans-30" x="314.136719"/>
     </g>
    </g>
   </g>
  </g>
  <g id="axes_2">
   <g id="patch_6">
    <path d="M 335.65267 205.068125 
L 491.626733 205.068125 
L 491.626733 49.094062 
L 335.65267 49.094062 
z
" style="fill: #ffffff"/>
   </g>
   <g id="PolyCollection_4">
    <defs>
     <path id="mf3bb48e952" d="M 342.742401 -48.289095 
L 342.742401 -48.226807 
L 345.105644 -48.264883 
L 347.468887 -48.603044 
L 349.832131 -49.137877 
L 352.195374 -49.389397 
L 354.558617 -49.762345 
L 356.921861 -49.698515 
L 359.285104 -50.287348 
L 361.648348 -50.300249 
L 364.011591 -50.64828 
L 366.374834 -50.842835 
L 368.738078 -50.995326 
L 371.101321 -51.349205 
L 373.464564 -51.649282 
L 375.827808 -51.851123 
L 378.191051 -52.339126 
L 380.554295 -52.641867 
L 382.917538 -53.225216 
L 385.280781 -53.585685 
L 387.644025 -54.040766 
L 390.007268 -54.593574 
L 392.370511 -54.887157 
L 394.733755 -55.578687 
L 397.096998 -56.002095 
L 399.460241 -56.198979 
L 401.823485 -56.479648 
L 404.186728 -56.975328 
L 406.549972 -57.48982 
L 408.913215 -57.738581 
L 411.276458 -58.113345 
L 413.639702 -58.143444 
L 416.002945 -58.617707 
L 418.366188 -59.001385 
L 420.729432 -58.994016 
L 423.092675 -59.210653 
L 425.455919 -59.619611 
L 427.819162 -59.555365 
L 430.182405 -59.520052 
L 432.545649 -59.951422 
L 434.908892 -59.531959 
L 437.272135 -59.817281 
L 439.635379 -59.991679 
L 441.998622 -59.910722 
L 444.361866 -60.049701 
L 446.725109 -60.643022 
L 449.088352 -60.598337 
L 451.451596 -60.428686 
L 453.814839 -60.539698 
L 456.178082 -60.851896 
L 458.541326 -60.797785 
L 460.904569 -60.844348 
L 463.267813 -61.067865 
L 465.631056 -61.138256 
L 467.994299 -60.85527 
L 470.357543 -61.098941 
L 472.720786 -61.37369 
L 475.084029 -61.325933 
L 477.447273 -61.000939 
L 479.810516 -61.135548 
L 482.173759 -61.603923 
L 484.537003 -61.560135 
L 484.537003 -66.123394 
L 484.537003 -66.123394 
L 482.173759 -66.337865 
L 479.810516 -65.977096 
L 477.447273 -66.166075 
L 475.084029 -65.841081 
L 472.720786 -65.888471 
L 470.357543 -66.000111 
L 467.994299 -65.604934 
L 465.631056 -65.784092 
L 463.267813 -65.609818 
L 460.904569 -65.493523 
L 458.541326 -65.648826 
L 456.178082 -65.526752 
L 453.814839 -65.444768 
L 451.451596 -65.732483 
L 449.088352 -65.494868 
L 446.725109 -65.191926 
L 444.361866 -65.282324 
L 441.998622 -64.850417 
L 439.635379 -65.190828 
L 437.272135 -65.188524 
L 434.908892 -64.862182 
L 432.545649 -64.741755 
L 430.182405 -64.81972 
L 427.819162 -64.471779 
L 425.455919 -64.461903 
L 423.092675 -64.571826 
L 420.729432 -64.122429 
L 418.366188 -63.476212 
L 416.002945 -63.04434 
L 413.639702 -62.662275 
L 411.276458 -62.039934 
L 408.913215 -61.531184 
L 406.549972 -60.814877 
L 404.186728 -60.03808 
L 401.823485 -59.296842 
L 399.460241 -58.38137 
L 397.096998 -57.653963 
L 394.733755 -56.88123 
L 392.370511 -56.145547 
L 390.007268 -55.324543 
L 387.644025 -54.735581 
L 385.280781 -54.021706 
L 382.917538 -53.688957 
L 380.554295 -53.198497 
L 378.191051 -52.835206 
L 375.827808 -52.439696 
L 373.464564 -52.057058 
L 371.101321 -51.704695 
L 368.738078 -51.514873 
L 366.374834 -51.341144 
L 364.011591 -50.910443 
L 361.648348 -50.796329 
L 359.285104 -50.496602 
L 356.921861 -50.269885 
L 354.558617 -49.893427 
L 352.195374 -49.654712 
L 349.832131 -49.321754 
L 347.468887 -49.122591 
L 345.105644 -48.604424 
L 342.742401 -48.289095 
z
" style="stroke: #b0c4de; stroke-opacity: 0.2"/>
    </defs>
    <g clip-path="url(#pab15d0fafb)">
     <use xlink:href="#mf3bb48e952" x="0" y="250.56" style="fill: #b0c4de; fill-opacity: 0.2; stroke: #b0c4de; stroke-opacity: 0.2"/>
    </g>
   </g>
   <g id="PolyCollection_5">
    <defs>
     <path id="md698e0f56b" d="M 342.742401 -48.580041 
L 342.742401 -48.438784 
L 345.105644 -48.692911 
L 347.468887 -49.155227 
L 349.832131 -49.362243 
L 352.195374 -49.83841 
L 354.558617 -50.309622 
L 356.921861 -50.618473 
L 359.285104 -50.975923 
L 361.648348 -51.508841 
L 364.011591 -51.618959 
L 366.374834 -52.340813 
L 368.738078 -52.485814 
L 371.101321 -53.149281 
L 373.464564 -53.767302 
L 375.827808 -54.496392 
L 378.191051 -54.519666 
L 380.554295 -55.388164 
L 382.917538 -56.038353 
L 385.280781 -56.569138 
L 387.644025 -56.87875 
L 390.007268 -57.10636 
L 392.370511 -57.397182 
L 394.733755 -57.866123 
L 397.096998 -58.084861 
L 399.460241 -58.2643 
L 401.823485 -58.491801 
L 404.186728 -58.522588 
L 406.549972 -58.67811 
L 408.913215 -58.872544 
L 411.276458 -59.125569 
L 413.639702 -59.49057 
L 416.002945 -59.227076 
L 418.366188 -59.629677 
L 420.729432 -59.851695 
L 423.092675 -59.7844 
L 425.455919 -60.171441 
L 427.819162 -60.052547 
L 430.182405 -60.319659 
L 432.545649 -60.367933 
L 434.908892 -60.46002 
L 437.272135 -60.593105 
L 439.635379 -60.926525 
L 441.998622 -60.772358 
L 444.361866 -61.047585 
L 446.725109 -61.380539 
L 449.088352 -61.28746 
L 451.451596 -61.45555 
L 453.814839 -61.713637 
L 456.178082 -61.751129 
L 458.541326 -61.722831 
L 460.904569 -61.814758 
L 463.267813 -62.029751 
L 465.631056 -62.09724 
L 467.994299 -62.572842 
L 470.357543 -62.348639 
L 472.720786 -62.31636 
L 475.084029 -62.486393 
L 477.447273 -62.389614 
L 479.810516 -62.587514 
L 482.173759 -62.570882 
L 484.537003 -62.904922 
L 484.537003 -65.743675 
L 484.537003 -65.743675 
L 482.173759 -65.28935 
L 479.810516 -65.802826 
L 477.447273 -65.674505 
L 475.084029 -65.387431 
L 472.720786 -65.081726 
L 470.357543 -65.11741 
L 467.994299 -64.906799 
L 465.631056 -64.784332 
L 463.267813 -64.919783 
L 460.904569 -64.604668 
L 458.541326 -64.805335 
L 456.178082 -64.260522 
L 453.814839 -64.433939 
L 451.451596 -64.243473 
L 449.088352 -64.003787 
L 446.725109 -63.734006 
L 444.361866 -63.713554 
L 441.998622 -64.002374 
L 439.635379 -63.793837 
L 437.272135 -63.406854 
L 434.908892 -63.254496 
L 432.545649 -63.251436 
L 430.182405 -62.932711 
L 427.819162 -62.887196 
L 425.455919 -62.578007 
L 423.092675 -62.76116 
L 420.729432 -62.272498 
L 418.366188 -62.154703 
L 416.002945 -62.149529 
L 413.639702 -62.076329 
L 411.276458 -61.856852 
L 408.913215 -61.824435 
L 406.549972 -61.665464 
L 404.186728 -61.14136 
L 401.823485 -60.818742 
L 399.460241 -60.733615 
L 397.096998 -60.029541 
L 394.733755 -59.840503 
L 392.370511 -59.371561 
L 390.007268 -58.860426 
L 387.644025 -58.122966 
L 385.280781 -57.372363 
L 382.917538 -56.639044 
L 380.554295 -56.02513 
L 378.191051 -55.357675 
L 375.827808 -54.674137 
L 373.464564 -54.152716 
L 371.101321 -53.64256 
L 368.738078 -52.797258 
L 366.374834 -52.588853 
L 364.011591 -52.196121 
L 361.648348 -51.871279 
L 359.285104 -51.411944 
L 356.921861 -51.198508 
L 354.558617 -50.773364 
L 352.195374 -50.2931 
L 349.832131 -49.709051 
L 347.468887 -49.426737 
L 345.105644 -48.978354 
L 342.742401 -48.580041 
z
" style="stroke: #4169e1; stroke-opacity: 0.2"/>
    </defs>
    <g clip-path="url(#pab15d0fafb)">
     <use xlink:href="#md698e0f56b" x="0" y="250.56" style="fill: #4169e1; fill-opacity: 0.2; stroke: #4169e1; stroke-opacity: 0.2"/>
    </g>
   </g>
   <g id="PolyCollection_6">
    <defs>
     <path id="mab5d57d566" d="M 342.742401 -48.465479 
L 342.742401 -48.322273 
L 345.105644 -48.600073 
L 347.468887 -48.896799 
L 349.832131 -48.973116 
L 352.195374 -49.43237 
L 354.558617 -49.443817 
L 356.921861 -49.779747 
L 359.285104 -49.848081 
L 361.648348 -50.16142 
L 364.011591 -50.624986 
L 366.374834 -50.822408 
L 368.738078 -51.351751 
L 371.101321 -51.868292 
L 373.464564 -52.990761 
L 375.827808 -53.704092 
L 378.191051 -54.999953 
L 380.554295 -56.447936 
L 382.917538 -57.265232 
L 385.280781 -58.812958 
L 387.644025 -59.833008 
L 390.007268 -60.471539 
L 392.370511 -61.262058 
L 394.733755 -61.606589 
L 397.096998 -61.778922 
L 399.460241 -62.672609 
L 401.823485 -63.222155 
L 404.186728 -63.603369 
L 406.549972 -64.069041 
L 408.913215 -64.556415 
L 411.276458 -65.467143 
L 413.639702 -65.640772 
L 416.002945 -65.757627 
L 418.366188 -65.991566 
L 420.729432 -66.52906 
L 423.092675 -66.694428 
L 425.455919 -66.36123 
L 427.819162 -66.432469 
L 430.182405 -67.265994 
L 432.545649 -67.15292 
L 434.908892 -67.173841 
L 437.272135 -67.530114 
L 439.635379 -67.64043 
L 441.998622 -67.649399 
L 444.361866 -68.021924 
L 446.725109 -68.069977 
L 449.088352 -67.95543 
L 451.451596 -68.238563 
L 453.814839 -68.81159 
L 456.178082 -68.634357 
L 458.541326 -68.85685 
L 460.904569 -69.116804 
L 463.267813 -69.547864 
L 465.631056 -69.353399 
L 467.994299 -69.042315 
L 470.357543 -69.094617 
L 472.720786 -69.440577 
L 475.084029 -69.166361 
L 477.447273 -69.729152 
L 479.810516 -69.532978 
L 482.173759 -69.9923 
L 484.537003 -70.25419 
L 484.537003 -97.228212 
L 484.537003 -97.228212 
L 482.173759 -96.932808 
L 479.810516 -96.780467 
L 477.447273 -96.788181 
L 475.084029 -97.038344 
L 472.720786 -97.008793 
L 470.357543 -97.014941 
L 467.994299 -96.07499 
L 465.631056 -96.144496 
L 463.267813 -95.650996 
L 460.904569 -96.231573 
L 458.541326 -95.920642 
L 456.178082 -95.952839 
L 453.814839 -96.27853 
L 451.451596 -96.008821 
L 449.088352 -96.088066 
L 446.725109 -95.932741 
L 444.361866 -96.00798 
L 441.998622 -96.149432 
L 439.635379 -95.247703 
L 437.272135 -95.330833 
L 434.908892 -95.034666 
L 432.545649 -95.694435 
L 430.182405 -95.105623 
L 427.819162 -95.40904 
L 425.455919 -95.045319 
L 423.092675 -94.263568 
L 420.729432 -93.817274 
L 418.366188 -94.422729 
L 416.002945 -94.425596 
L 413.639702 -94.16186 
L 411.276458 -93.017016 
L 408.913215 -92.622863 
L 406.549972 -91.288841 
L 404.186728 -90.680705 
L 401.823485 -88.968671 
L 399.460241 -88.104596 
L 397.096998 -86.524446 
L 394.733755 -84.413238 
L 392.370511 -82.501412 
L 390.007268 -81.402572 
L 387.644025 -78.778901 
L 385.280781 -75.965862 
L 382.917538 -72.960097 
L 380.554295 -69.536529 
L 378.191051 -66.104801 
L 375.827808 -62.779208 
L 373.464564 -59.360416 
L 371.101321 -56.60902 
L 368.738078 -54.053653 
L 366.374834 -52.408194 
L 364.011591 -51.504622 
L 361.648348 -50.78564 
L 359.285104 -50.324207 
L 356.921861 -50.025542 
L 354.558617 -49.872143 
L 352.195374 -49.502999 
L 349.832131 -49.445737 
L 347.468887 -49.141464 
L 345.105644 -48.717787 
L 342.742401 -48.465479 
z
" style="stroke: #191970; stroke-opacity: 0.2"/>
    </defs>
    <g clip-path="url(#pab15d0fafb)">
     <use xlink:href="#mab5d57d566" x="0" y="250.56" style="fill: #191970; fill-opacity: 0.2; stroke: #191970; stroke-opacity: 0.2"/>
    </g>
   </g>
   <g id="matplotlib.axis_3">
    <g id="xtick_4">
     <g id="line2d_16">
      <g>
       <use xlink:href="#m1ac0aa8b71" x="342.742401" y="205.068125" style="stroke: #000000; stroke-width: 0.8"/>
      </g>
     </g>
     <g id="text_16">
      <!-- 0 -->
      <g transform="translate(339.561151 219.666562)scale(0.1 -0.1)">
       <use xlink:href="#DejaVuSans-30"/>
      </g>
     </g>
    </g>
    <g id="xtick_5">
     <g id="line2d_17">
      <g>
       <use xlink:href="#m1ac0aa8b71" x="401.823485" y="205.068125" style="stroke: #000000; stroke-width: 0.8"/>
      </g>
     </g>
     <g id="text_17">
      <!-- 100 -->
      <g transform="translate(392.279735 219.666562)scale(0.1 -0.1)">
       <use xlink:href="#DejaVuSans-31"/>
       <use xlink:href="#DejaVuSans-30" x="63.623047"/>
       <use xlink:href="#DejaVuSans-30" x="127.246094"/>
      </g>
     </g>
    </g>
    <g id="xtick_6">
     <g id="line2d_18">
      <g>
       <use xlink:href="#m1ac0aa8b71" x="460.904569" y="205.068125" style="stroke: #000000; stroke-width: 0.8"/>
      </g>
     </g>
     <g id="text_18">
      <!-- 200 -->
      <g transform="translate(451.360819 219.666562)scale(0.1 -0.1)">
       <use xlink:href="#DejaVuSans-32"/>
       <use xlink:href="#DejaVuSans-30" x="63.623047"/>
       <use xlink:href="#DejaVuSans-30" x="127.246094"/>
      </g>
     </g>
    </g>
    <g id="text_19">
     <!-- Time (min) -->
     <g transform="translate(381.056889 240.864375)scale(0.12 -0.12)">
      <use xlink:href="#DejaVuSans-54"/>
      <use xlink:href="#DejaVuSans-69" x="57.958984"/>
      <use xlink:href="#DejaVuSans-6d" x="85.742188"/>
      <use xlink:href="#DejaVuSans-65" x="183.154297"/>
      <use xlink:href="#DejaVuSans-20" x="244.677734"/>
      <use xlink:href="#DejaVuSans-28" x="276.464844"/>
      <use xlink:href="#DejaVuSans-6d" x="315.478516"/>
      <use xlink:href="#DejaVuSans-69" x="412.890625"/>
      <use xlink:href="#DejaVuSans-6e" x="440.673828"/>
      <use xlink:href="#DejaVuSans-29" x="504.052734"/>
     </g>
    </g>
   </g>
   <g id="matplotlib.axis_4">
    <g id="ytick_7">
     <g id="line2d_19">
      <g>
       <use xlink:href="#m7888772e5e" x="335.65267" y="205.068125" style="stroke: #000000; stroke-width: 0.8"/>
      </g>
     </g>
     <g id="text_20">
      <!-- 0.0 -->
      <g transform="translate(312.749545 208.867344)scale(0.1 -0.1)">
       <use xlink:href="#DejaVuSans-30"/>
       <use xlink:href="#DejaVuSans-2e" x="63.623047"/>
       <use xlink:href="#DejaVuSans-30" x="95.410156"/>
      </g>
     </g>
    </g>
    <g id="ytick_8">
     <g id="line2d_20">
      <g>
       <use xlink:href="#m7888772e5e" x="335.65267" y="173.873312" style="stroke: #000000; stroke-width: 0.8"/>
      </g>
     </g>
     <g id="text_21">
      <!-- 0.2 -->
      <g transform="translate(312.749545 177.672531)scale(0.1 -0.1)">
       <use xlink:href="#DejaVuSans-30"/>
       <use xlink:href="#DejaVuSans-2e" x="63.623047"/>
       <use xlink:href="#DejaVuSans-32" x="95.410156"/>
      </g>
     </g>
    </g>
    <g id="ytick_9">
     <g id="line2d_21">
      <g>
       <use xlink:href="#m7888772e5e" x="335.65267" y="142.6785" style="stroke: #000000; stroke-width: 0.8"/>
      </g>
     </g>
     <g id="text_22">
      <!-- 0.4 -->
      <g transform="translate(312.749545 146.477719)scale(0.1 -0.1)">
       <use xlink:href="#DejaVuSans-30"/>
       <use xlink:href="#DejaVuSans-2e" x="63.623047"/>
       <use xlink:href="#DejaVuSans-34" x="95.410156"/>
      </g>
     </g>
    </g>
    <g id="ytick_10">
     <g id="line2d_22">
      <g>
       <use xlink:href="#m7888772e5e" x="335.65267" y="111.483687" style="stroke: #000000; stroke-width: 0.8"/>
      </g>
     </g>
     <g id="text_23">
      <!-- 0.6 -->
      <g transform="translate(312.749545 115.282906)scale(0.1 -0.1)">
       <use xlink:href="#DejaVuSans-30"/>
       <use xlink:href="#DejaVuSans-2e" x="63.623047"/>
       <use xlink:href="#DejaVuSans-36" x="95.410156"/>
      </g>
     </g>
    </g>
    <g id="ytick_11">
     <g id="line2d_23">
      <g>
       <use xlink:href="#m7888772e5e" x="335.65267" y="80.288875" style="stroke: #000000; stroke-width: 0.8"/>
      </g>
     </g>
     <g id="text_24">
      <!-- 0.8 -->
      <g transform="translate(312.749545 84.088094)scale(0.1 -0.1)">
       <use xlink:href="#DejaVuSans-30"/>
       <use xlink:href="#DejaVuSans-2e" x="63.623047"/>
       <use xlink:href="#DejaVuSans-38" x="95.410156"/>
      </g>
     </g>
    </g>
    <g id="ytick_12">
     <g id="line2d_24">
      <g>
       <use xlink:href="#m7888772e5e" x="335.65267" y="49.094062" style="stroke: #000000; stroke-width: 0.8"/>
      </g>
     </g>
     <g id="text_25">
      <!-- 1.0 -->
      <g transform="translate(312.749545 52.893281)scale(0.1 -0.1)">
       <use xlink:href="#DejaVuSans-31"/>
       <use xlink:href="#DejaVuSans-2e" x="63.623047"/>
       <use xlink:href="#DejaVuSans-30" x="95.410156"/>
      </g>
     </g>
    </g>
    <g id="text_26">
     <!-- Normalized exp output -->
     <g transform="translate(300.25392 195.658281)rotate(-90)scale(0.12 -0.12)">
      <use xlink:href="#DejaVuSans-4e"/>
      <use xlink:href="#DejaVuSans-6f" x="74.804688"/>
      <use xlink:href="#DejaVuSans-72" x="135.986328"/>
      <use xlink:href="#DejaVuSans-6d" x="175.349609"/>
      <use xlink:href="#DejaVuSans-61" x="272.761719"/>
      <use xlink:href="#DejaVuSans-6c" x="334.041016"/>
      <use xlink:href="#DejaVuSans-69" x="361.824219"/>
      <use xlink:href="#DejaVuSans-7a" x="389.607422"/>
      <use xlink:href="#DejaVuSans-65" x="442.097656"/>
      <use xlink:href="#DejaVuSans-64" x="503.621094"/>
      <use xlink:href="#DejaVuSans-20" x="567.097656"/>
      <use xlink:href="#DejaVuSans-65" x="598.884766"/>
      <use xlink:href="#DejaVuSans-78" x="658.658203"/>
      <use xlink:href="#DejaVuSans-70" x="717.837891"/>
      <use xlink:href="#DejaVuSans-20" x="781.314453"/>
      <use xlink:href="#DejaVuSans-6f" x="813.101562"/>
      <use xlink:href="#DejaVuSans-75" x="874.283203"/>
      <use xlink:href="#DejaVuSans-74" x="937.662109"/>
      <use xlink:href="#DejaVuSans-70" x="976.871094"/>
      <use xlink:href="#DejaVuSans-75" x="1040.347656"/>
      <use xlink:href="#DejaVuSans-74" x="1103.726562"/>
     </g>
    </g>
   </g>
   <g id="line2d_25">
    <path d="M 342.742401 202.302049 
L 345.105644 202.125346 
L 347.468887 201.697182 
L 349.832131 201.330185 
L 352.195374 201.037946 
L 354.558617 200.732114 
L 356.921861 200.5758 
L 359.285104 200.168025 
L 361.648348 200.011711 
L 364.011591 199.780638 
L 366.374834 199.468011 
L 368.738078 199.3049 
L 371.101321 199.03305 
L 373.464564 198.70683 
L 375.827808 198.414591 
L 378.191051 197.972834 
L 380.554295 197.639818 
L 382.917538 197.102914 
L 385.280781 196.756305 
L 387.644025 196.171827 
L 390.007268 195.600941 
L 392.370511 195.043648 
L 394.733755 194.330041 
L 397.096998 193.731971 
L 399.460241 193.269826 
L 401.823485 192.671755 
L 404.186728 192.053296 
L 406.549972 191.407652 
L 408.913215 190.925117 
L 411.276458 190.483361 
L 413.639702 190.157141 
L 416.002945 189.728976 
L 418.366188 189.321201 
L 420.729432 189.001777 
L 423.092675 188.668761 
L 425.455919 188.519243 
L 427.819162 188.546428 
L 430.182405 188.390114 
L 432.545649 188.213411 
L 434.908892 188.362929 
L 437.272135 188.057098 
L 439.635379 187.968746 
L 441.998622 188.17943 
L 444.361866 187.893987 
L 446.725109 187.642526 
L 449.088352 187.513397 
L 451.451596 187.479416 
L 453.814839 187.567767 
L 456.178082 187.370676 
L 458.541326 187.336695 
L 460.904569 187.391065 
L 463.267813 187.221158 
L 465.631056 187.098826 
L 467.994299 187.329898 
L 470.357543 187.010474 
L 472.720786 186.928919 
L 475.084029 186.976493 
L 477.447273 186.976493 
L 479.810516 187.003678 
L 482.173759 186.589106 
L 484.537003 186.718235 
" clip-path="url(#pab15d0fafb)" style="fill: none; stroke: #b0c4de; stroke-width: 2; stroke-linecap: square"/>
   </g>
   <g id="line2d_26">
    <path d="M 342.742401 202.050588 
L 345.105644 201.724367 
L 347.468887 201.269018 
L 349.832131 201.024353 
L 352.195374 200.494245 
L 354.558617 200.018507 
L 356.921861 199.651509 
L 359.285104 199.366067 
L 361.648348 198.86994 
L 364.011591 198.65246 
L 366.374834 198.095167 
L 368.738078 197.918464 
L 371.101321 197.16408 
L 373.464564 196.599991 
L 375.827808 195.974735 
L 378.191051 195.62133 
L 380.554295 194.853353 
L 382.917538 194.221301 
L 385.280781 193.58925 
L 387.644025 193.059142 
L 390.007268 192.576607 
L 392.370511 192.175628 
L 394.733755 191.706687 
L 397.096998 191.502799 
L 399.460241 191.061043 
L 401.823485 190.904729 
L 404.186728 190.728026 
L 406.549972 190.388213 
L 408.913215 190.211511 
L 411.276458 190.068789 
L 413.639702 189.77655 
L 416.002945 189.871698 
L 418.366188 189.66781 
L 420.729432 189.497904 
L 423.092675 189.28722 
L 425.455919 189.185276 
L 427.819162 189.090128 
L 430.182405 188.933815 
L 432.545649 188.750316 
L 434.908892 188.702742 
L 437.272135 188.560021 
L 439.635379 188.199819 
L 441.998622 188.172634 
L 444.361866 188.17943 
L 446.725109 188.002728 
L 449.088352 187.914376 
L 451.451596 187.710489 
L 453.814839 187.486212 
L 456.178082 187.554175 
L 458.541326 187.295917 
L 460.904569 187.350287 
L 463.267813 187.085233 
L 465.631056 187.119214 
L 467.994299 186.820179 
L 470.357543 186.826975 
L 472.720786 186.860957 
L 475.084029 186.623088 
L 477.447273 186.52794 
L 479.810516 186.36483 
L 482.173759 186.629884 
L 484.537003 186.235701 
" clip-path="url(#pab15d0fafb)" style="fill: none; stroke: #4169e1; stroke-width: 2; stroke-linecap: square"/>
   </g>
   <g id="line2d_27">
    <path d="M 342.742401 202.166124 
L 345.105644 201.90107 
L 347.468887 201.540868 
L 349.832131 201.350573 
L 352.195374 201.092316 
L 354.558617 200.90202 
L 356.921861 200.657355 
L 359.285104 200.473856 
L 361.648348 200.08647 
L 364.011591 199.495196 
L 366.374834 198.944699 
L 368.738078 197.857298 
L 371.101321 196.321344 
L 373.464564 194.384411 
L 375.827808 192.31835 
L 378.191051 190.007623 
L 380.554295 187.567767 
L 382.917538 185.447336 
L 385.280781 183.17059 
L 387.644025 181.254046 
L 390.007268 179.622945 
L 392.370511 178.678265 
L 394.733755 177.550087 
L 397.096998 176.408316 
L 399.460241 175.171397 
L 401.823485 174.464587 
L 404.186728 173.417963 
L 406.549972 172.881059 
L 408.913215 171.970361 
L 411.276458 171.31792 
L 413.639702 170.658684 
L 416.002945 170.468389 
L 418.366188 170.352852 
L 420.729432 170.386833 
L 423.092675 170.081002 
L 425.455919 169.856726 
L 427.819162 169.639245 
L 430.182405 169.374191 
L 432.545649 169.136322 
L 434.908892 169.455746 
L 437.272135 169.129526 
L 439.635379 169.115934 
L 441.998622 168.660585 
L 444.361866 168.545048 
L 446.725109 168.558641 
L 449.088352 168.538252 
L 451.451596 168.436308 
L 453.814839 168.01494 
L 456.178082 168.266402 
L 458.541326 168.171254 
L 460.904569 167.885811 
L 463.267813 167.96057 
L 465.631056 167.811053 
L 467.994299 168.001348 
L 470.357543 167.505221 
L 472.720786 167.335315 
L 475.084029 167.457647 
L 477.447273 167.301333 
L 479.810516 167.403277 
L 482.173759 167.097446 
L 484.537003 166.818799 
" clip-path="url(#pab15d0fafb)" style="fill: none; stroke: #191970; stroke-width: 2; stroke-linecap: square"/>
   </g>
   <g id="patch_7">
    <path d="M 335.65267 205.068125 
L 335.65267 49.094062 
" style="fill: none; stroke: #000000; stroke-width: 0.8; stroke-linejoin: miter; stroke-linecap: square"/>
   </g>
   <g id="patch_8">
    <path d="M 335.65267 205.068125 
L 491.626733 205.068125 
" style="fill: none; stroke: #000000; stroke-width: 0.8; stroke-linejoin: miter; stroke-linecap: square"/>
   </g>
   <g id="text_27">
    <!-- vRNA = 1fM -->
    <g transform="translate(380.175639 43.094062)scale(0.1 -0.1)">
     <defs>
      <path id="DejaVuSans-Bold-31" d="M 750 831 
L 1813 831 
L 1813 3847 
L 722 3622 
L 722 4441 
L 1806 4666 
L 2950 4666 
L 2950 831 
L 4013 831 
L 4013 0 
L 750 0 
L 750 831 
z
" transform="scale(0.015625)"/>
     </defs>
     <use xlink:href="#DejaVuSans-Bold-76"/>
     <use xlink:href="#DejaVuSans-Bold-52" x="65.185547"/>
     <use xlink:href="#DejaVuSans-Bold-4e" x="142.1875"/>
     <use xlink:href="#DejaVuSans-Bold-41" x="225.878906"/>
     <use xlink:href="#DejaVuSans-Bold-20" x="303.271484"/>
     <use xlink:href="#DejaVuSans-Bold-3d" x="338.085938"/>
     <use xlink:href="#DejaVuSans-Bold-20" x="421.875"/>
     <use xlink:href="#DejaVuSans-Bold-31" x="456.689453"/>
     <use xlink:href="#DejaVuSans-Bold-66" x="526.269531"/>
     <use xlink:href="#DejaVuSans-Bold-4d" x="569.775391"/>
    </g>
   </g>
   <g id="legend_2">
    <g id="patch_9">
     <path d="M 414.851733 101.128437 
L 484.626733 101.128437 
Q 486.626733 101.128437 486.626733 99.128437 
L 486.626733 56.094062 
Q 486.626733 54.094062 484.626733 54.094062 
L 414.851733 54.094062 
Q 412.851733 54.094062 412.851733 56.094062 
L 412.851733 99.128437 
Q 412.851733 101.128437 414.851733 101.128437 
z
" style="fill: #ffffff; opacity: 0.8; stroke: #cccccc; stroke-linejoin: miter"/>
    </g>
    <g id="line2d_28">
     <path d="M 416.851733 62.1925 
L 426.851733 62.1925 
L 436.851733 62.1925 
" style="fill: none; stroke: #b0c4de; stroke-width: 2; stroke-linecap: square"/>
    </g>
    <g id="text_28">
     <!-- RT 0.5 -->
     <g transform="translate(444.851733 65.6925)scale(0.1 -0.1)">
      <use xlink:href="#DejaVuSans-52"/>
      <use xlink:href="#DejaVuSans-54" x="62.232422"/>
      <use xlink:href="#DejaVuSans-20" x="123.316406"/>
      <use xlink:href="#DejaVuSans-30" x="155.103516"/>
      <use xlink:href="#DejaVuSans-2e" x="218.726562"/>
      <use xlink:href="#DejaVuSans-35" x="250.513672"/>
     </g>
    </g>
    <g id="line2d_29">
     <path d="M 416.851733 76.870625 
L 426.851733 76.870625 
L 436.851733 76.870625 
" style="fill: none; stroke: #4169e1; stroke-width: 2; stroke-linecap: square"/>
    </g>
    <g id="text_29">
     <!-- RT 2.5 -->
     <g transform="translate(444.851733 80.370625)scale(0.1 -0.1)">
      <use xlink:href="#DejaVuSans-52"/>
      <use xlink:href="#DejaVuSans-54" x="62.232422"/>
      <use xlink:href="#DejaVuSans-20" x="123.316406"/>
      <use xlink:href="#DejaVuSans-32" x="155.103516"/>
      <use xlink:href="#DejaVuSans-2e" x="218.726562"/>
      <use xlink:href="#DejaVuSans-35" x="250.513672"/>
     </g>
    </g>
    <g id="line2d_30">
     <path d="M 416.851733 91.54875 
L 426.851733 91.54875 
L 436.851733 91.54875 
" style="fill: none; stroke: #191970; stroke-width: 2; stroke-linecap: square"/>
    </g>
    <g id="text_30">
     <!-- RT 10.0 -->
     <g transform="translate(444.851733 95.04875)scale(0.1 -0.1)">
      <use xlink:href="#DejaVuSans-52"/>
      <use xlink:href="#DejaVuSans-54" x="62.232422"/>
      <use xlink:href="#DejaVuSans-20" x="123.316406"/>
      <use xlink:href="#DejaVuSans-31" x="155.103516"/>
      <use xlink:href="#DejaVuSans-30" x="218.726562"/>
      <use xlink:href="#DejaVuSans-2e" x="282.349609"/>
      <use xlink:href="#DejaVuSans-30" x="314.136719"/>
     </g>
    </g>
   </g>
  </g>
  <g id="axes_3">
   <g id="patch_10">
    <path d="M 619.588466 205.068125 
L 775.562528 205.068125 
L 775.562528 49.094062 
L 619.588466 49.094062 
z
" style="fill: #ffffff"/>
   </g>
   <g id="PolyCollection_7">
    <defs>
     <path id="m18a278609f" d="M 626.678196 -49.515015 
L 626.678196 -48.183435 
L 629.041439 -48.573283 
L 631.404683 -49.051495 
L 633.767926 -48.925726 
L 636.13117 -49.402006 
L 638.494413 -49.633083 
L 640.857656 -50.02766 
L 643.2209 -50.058056 
L 645.584143 -50.550586 
L 647.947386 -50.992314 
L 650.31063 -51.41256 
L 652.673873 -52.353912 
L 655.037116 -52.695809 
L 657.40036 -52.591409 
L 659.763603 -52.058361 
L 662.126847 -51.528708 
L 664.49009 -50.376524 
L 666.853333 -49.487219 
L 669.216577 -48.325609 
L 671.57982 -47.309916 
L 673.943063 -46.12749 
L 676.306307 -45.045721 
L 678.66955 -44.716422 
L 681.032794 -43.931705 
L 683.396037 -43.033166 
L 685.75928 -42.49233 
L 688.122524 -42.163449 
L 690.485767 -41.685998 
L 692.84901 -41.813272 
L 695.212254 -41.602193 
L 697.575497 -41.799685 
L 699.938741 -41.936253 
L 702.301984 -42.480649 
L 704.665227 -42.303774 
L 707.028471 -43.132613 
L 709.391714 -43.332002 
L 711.754957 -44.015287 
L 714.118201 -44.206344 
L 716.481444 -44.635135 
L 718.844687 -45.261211 
L 721.207931 -45.810835 
L 723.571174 -46.313067 
L 725.934418 -47.139704 
L 728.297661 -47.403608 
L 730.660904 -47.957249 
L 733.024148 -48.339965 
L 735.387391 -49.378092 
L 737.750634 -50.006165 
L 740.113878 -50.865136 
L 742.477121 -51.785048 
L 744.840365 -52.869473 
L 747.203608 -52.942964 
L 749.566851 -54.063941 
L 751.930095 -54.474209 
L 754.293338 -55.357545 
L 756.656581 -56.317382 
L 759.019825 -56.976815 
L 761.383068 -57.214707 
L 763.746312 -58.234088 
L 766.109555 -58.972624 
L 768.472798 -59.74159 
L 768.472798 -129.869419 
L 768.472798 -129.869419 
L 766.109555 -130.135462 
L 763.746312 -129.840968 
L 761.383068 -129.854503 
L 759.019825 -128.529255 
L 756.656581 -129.175096 
L 754.293338 -128.81646 
L 751.930095 -128.666765 
L 749.566851 -128.587702 
L 747.203608 -128.308651 
L 744.840365 -127.321926 
L 742.477121 -127.930613 
L 740.113878 -128.347602 
L 737.750634 -126.855069 
L 735.387391 -126.912257 
L 733.024148 -128.127086 
L 730.660904 -127.422401 
L 728.297661 -126.562421 
L 725.934418 -126.52729 
L 723.571174 -127.421889 
L 721.207931 -126.795943 
L 718.844687 -127.168865 
L 716.481444 -126.707539 
L 714.118201 -127.068368 
L 711.754957 -125.370066 
L 709.391714 -125.604798 
L 707.028471 -125.49156 
L 704.665227 -126.17088 
L 702.301984 -124.159017 
L 699.938741 -124.214082 
L 697.575497 -122.556439 
L 695.212254 -122.278193 
L 692.84901 -119.606869 
L 690.485767 -117.912747 
L 688.122524 -115.410012 
L 685.75928 -112.199519 
L 683.396037 -108.83144 
L 681.032794 -104.711476 
L 678.66955 -100.379114 
L 676.306307 -96.502169 
L 673.943063 -91.206722 
L 671.57982 -85.253325 
L 669.216577 -79.724918 
L 666.853333 -73.941854 
L 664.49009 -68.539836 
L 662.126847 -63.608933 
L 659.763603 -59.395711 
L 657.40036 -56.212123 
L 655.037116 -54.123216 
L 652.673873 -52.779642 
L 650.31063 -52.660778 
L 647.947386 -52.578101 
L 645.584143 -52.177093 
L 643.2209 -52.00359 
L 640.857656 -51.367953 
L 638.494413 -51.164459 
L 636.13117 -50.512024 
L 633.767926 -50.621306 
L 631.404683 -50.223687 
L 629.041439 -49.954311 
L 626.678196 -49.515015 
z
" style="stroke: #b0c4de; stroke-opacity: 0.2"/>
    </defs>
    <g clip-path="url(#pb19c32ec68)">
     <use xlink:href="#m18a278609f" x="0" y="250.56" style="fill: #b0c4de; fill-opacity: 0.2; stroke: #b0c4de; stroke-opacity: 0.2"/>
    </g>
   </g>
   <g id="PolyCollection_8">
    <defs>
     <path id="mc8265ec2e7" d="M 626.678196 -48.502956 
L 626.678196 -48.094501 
L 629.041439 -48.698585 
L 631.404683 -48.915982 
L 633.767926 -49.258369 
L 636.13117 -49.593886 
L 638.494413 -50.067001 
L 640.857656 -50.331235 
L 643.2209 -50.440969 
L 645.584143 -50.952121 
L 647.947386 -51.287939 
L 650.31063 -51.616261 
L 652.673873 -52.123267 
L 655.037116 -52.988657 
L 657.40036 -53.576997 
L 659.763603 -54.648703 
L 662.126847 -55.529583 
L 664.49009 -56.941952 
L 666.853333 -58.059295 
L 669.216577 -59.148624 
L 671.57982 -60.193374 
L 673.943063 -61.324185 
L 676.306307 -62.656073 
L 678.66955 -63.832217 
L 681.032794 -65.200793 
L 683.396037 -66.591098 
L 685.75928 -67.892231 
L 688.122524 -69.637356 
L 690.485767 -71.333811 
L 692.84901 -73.017133 
L 695.212254 -74.918559 
L 697.575497 -77.1026 
L 699.938741 -78.60702 
L 702.301984 -81.174778 
L 704.665227 -83.16029 
L 707.028471 -85.265409 
L 709.391714 -87.203337 
L 711.754957 -89.542126 
L 714.118201 -91.72813 
L 716.481444 -93.618038 
L 718.844687 -95.843905 
L 721.207931 -98.245799 
L 723.571174 -100.230325 
L 725.934418 -102.318819 
L 728.297661 -104.389045 
L 730.660904 -106.807643 
L 733.024148 -109.205974 
L 735.387391 -110.855228 
L 737.750634 -112.860446 
L 740.113878 -113.850767 
L 742.477121 -116.460268 
L 744.840365 -117.872513 
L 747.203608 -120.102072 
L 749.566851 -121.317413 
L 751.930095 -123.63826 
L 754.293338 -124.462441 
L 756.656581 -126.111296 
L 759.019825 -127.693249 
L 761.383068 -128.267204 
L 763.746312 -129.516807 
L 766.109555 -131.749134 
L 768.472798 -132.942721 
L 768.472798 -174.189137 
L 768.472798 -174.189137 
L 766.109555 -175.573019 
L 763.746312 -175.263547 
L 761.383068 -174.990789 
L 759.019825 -174.273455 
L 756.656581 -174.034012 
L 754.293338 -175.696459 
L 751.930095 -175.107019 
L 749.566851 -175.38899 
L 747.203608 -176.237333 
L 744.840365 -176.033832 
L 742.477121 -176.712082 
L 740.113878 -176.05938 
L 737.750634 -176.818629 
L 735.387391 -176.417972 
L 733.024148 -176.748752 
L 730.660904 -178.413087 
L 728.297661 -178.724847 
L 725.934418 -178.062977 
L 723.571174 -179.240773 
L 721.207931 -178.996128 
L 718.844687 -179.563033 
L 716.481444 -179.872355 
L 714.118201 -181.340896 
L 711.754957 -181.678318 
L 709.391714 -181.203458 
L 707.028471 -182.434576 
L 704.665227 -182.337707 
L 702.301984 -182.610563 
L 699.938741 -180.869495 
L 697.575497 -181.993324 
L 695.212254 -181.785083 
L 692.84901 -181.03597 
L 690.485767 -178.464836 
L 688.122524 -178.666115 
L 685.75928 -175.545121 
L 683.396037 -173.502497 
L 681.032794 -170.121831 
L 678.66955 -166.202919 
L 676.306307 -160.460476 
L 673.943063 -153.188304 
L 671.57982 -145.184947 
L 669.216577 -135.151801 
L 666.853333 -124.592348 
L 664.49009 -112.212328 
L 662.126847 -99.651596 
L 659.763603 -87.483666 
L 657.40036 -76.729887 
L 655.037116 -67.69473 
L 652.673873 -60.975498 
L 650.31063 -55.705687 
L 647.947386 -52.826177 
L 645.584143 -51.694003 
L 643.2209 -50.927459 
L 640.857656 -50.439123 
L 638.494413 -50.214026 
L 636.13117 -49.912369 
L 633.767926 -49.45952 
L 631.404683 -49.108689 
L 629.041439 -48.823163 
L 626.678196 -48.502956 
z
" style="stroke: #4169e1; stroke-opacity: 0.2"/>
    </defs>
    <g clip-path="url(#pb19c32ec68)">
     <use xlink:href="#mc8265ec2e7" x="0" y="250.56" style="fill: #4169e1; fill-opacity: 0.2; stroke: #4169e1; stroke-opacity: 0.2"/>
    </g>
   </g>
   <g id="PolyCollection_9">
    <defs>
     <path id="md8a843c10b" d="M 626.678196 -48.411956 
L 626.678196 -48.294241 
L 629.041439 -48.648547 
L 631.404683 -48.796762 
L 633.767926 -49.045273 
L 636.13117 -49.212365 
L 638.494413 -49.321596 
L 640.857656 -49.61772 
L 643.2209 -49.960096 
L 645.584143 -50.238929 
L 647.947386 -50.839897 
L 650.31063 -52.449065 
L 652.673873 -56.137013 
L 655.037116 -62.744754 
L 657.40036 -72.163095 
L 659.763603 -83.334948 
L 662.126847 -95.437083 
L 664.49009 -108.086502 
L 666.853333 -118.616632 
L 669.216577 -128.209635 
L 671.57982 -135.517744 
L 673.943063 -142.225496 
L 676.306307 -147.803083 
L 678.66955 -151.695203 
L 681.032794 -150.986742 
L 683.396037 -152.520039 
L 685.75928 -153.051506 
L 688.122524 -155.329029 
L 690.485767 -155.49871 
L 692.84901 -157.761557 
L 695.212254 -159.393684 
L 697.575497 -159.696888 
L 699.938741 -159.48056 
L 702.301984 -161.963005 
L 704.665227 -162.855565 
L 707.028471 -164.707011 
L 709.391714 -164.281627 
L 711.754957 -163.596602 
L 714.118201 -163.592961 
L 716.481444 -163.699397 
L 718.844687 -163.245829 
L 721.207931 -164.432918 
L 723.571174 -163.527603 
L 725.934418 -164.838677 
L 728.297661 -163.911285 
L 730.660904 -164.215683 
L 733.024148 -163.997742 
L 735.387391 -162.934806 
L 737.750634 -163.597706 
L 740.113878 -164.413502 
L 742.477121 -164.611774 
L 744.840365 -163.907642 
L 747.203608 -165.494196 
L 749.566851 -164.622355 
L 751.930095 -165.429451 
L 754.293338 -165.965099 
L 756.656581 -166.214404 
L 759.019825 -167.406463 
L 761.383068 -166.496088 
L 763.746312 -165.647804 
L 766.109555 -167.545808 
L 768.472798 -166.376535 
L 768.472798 -175.728854 
L 768.472798 -175.728854 
L 766.109555 -174.845024 
L 763.746312 -175.125518 
L 761.383068 -174.372382 
L 759.019825 -175.215441 
L 756.656581 -173.607443 
L 754.293338 -173.353825 
L 751.930095 -175.343872 
L 749.566851 -174.615014 
L 747.203608 -174.749019 
L 744.840365 -174.337474 
L 742.477121 -173.035271 
L 740.113878 -173.532578 
L 737.750634 -173.315344 
L 735.387391 -173.230655 
L 733.024148 -172.099757 
L 730.660904 -172.846884 
L 728.297661 -172.036696 
L 725.934418 -172.142335 
L 723.571174 -172.474749 
L 721.207931 -171.678173 
L 718.844687 -171.995342 
L 716.481444 -172.167029 
L 714.118201 -171.852098 
L 711.754957 -172.990227 
L 709.391714 -171.013914 
L 707.028471 -172.138076 
L 704.665227 -170.890429 
L 702.301984 -171.932507 
L 699.938741 -169.752721 
L 697.575497 -169.536392 
L 695.212254 -168.425976 
L 692.84901 -167.298823 
L 690.485767 -168.039309 
L 688.122524 -166.591481 
L 685.75928 -167.577716 
L 683.396037 -166.505266 
L 681.032794 -166.067649 
L 678.66955 -164.951413 
L 676.306307 -161.109394 
L 673.943063 -156.533375 
L 671.57982 -151.6739 
L 669.216577 -143.744805 
L 666.853333 -134.471403 
L 664.49009 -122.30204 
L 662.126847 -109.791721 
L 659.763603 -95.103017 
L 657.40036 -80.856874 
L 655.037116 -68.690308 
L 652.673873 -59.721031 
L 650.31063 -54.04374 
L 647.947386 -51.425638 
L 645.584143 -50.504244 
L 643.2209 -50.361709 
L 640.857656 -50.24194 
L 638.494413 -49.695328 
L 636.13117 -49.790966 
L 633.767926 -49.577468 
L 631.404683 -49.255094 
L 629.041439 -48.832423 
L 626.678196 -48.411956 
z
" style="stroke: #191970; stroke-opacity: 0.2"/>
    </defs>
    <g clip-path="url(#pb19c32ec68)">
     <use xlink:href="#md8a843c10b" x="0" y="250.56" style="fill: #191970; fill-opacity: 0.2; stroke: #191970; stroke-opacity: 0.2"/>
    </g>
   </g>
   <g id="matplotlib.axis_5">
    <g id="xtick_7">
     <g id="line2d_31">
      <g>
       <use xlink:href="#m1ac0aa8b71" x="626.678196" y="205.068125" style="stroke: #000000; stroke-width: 0.8"/>
      </g>
     </g>
     <g id="text_31">
      <!-- 0 -->
      <g transform="translate(623.496946 219.666562)scale(0.1 -0.1)">
       <use xlink:href="#DejaVuSans-30"/>
      </g>
     </g>
    </g>
    <g id="xtick_8">
     <g id="line2d_32">
      <g>
       <use xlink:href="#m1ac0aa8b71" x="685.75928" y="205.068125" style="stroke: #000000; stroke-width: 0.8"/>
      </g>
     </g>
     <g id="text_32">
      <!-- 100 -->
      <g transform="translate(676.21553 219.666562)scale(0.1 -0.1)">
       <use xlink:href="#DejaVuSans-31"/>
       <use xlink:href="#DejaVuSans-30" x="63.623047"/>
       <use xlink:href="#DejaVuSans-30" x="127.246094"/>
      </g>
     </g>
    </g>
    <g id="xtick_9">
     <g id="line2d_33">
      <g>
       <use xlink:href="#m1ac0aa8b71" x="744.840365" y="205.068125" style="stroke: #000000; stroke-width: 0.8"/>
      </g>
     </g>
     <g id="text_33">
      <!-- 200 -->
      <g transform="translate(735.296615 219.666562)scale(0.1 -0.1)">
       <use xlink:href="#DejaVuSans-32"/>
       <use xlink:href="#DejaVuSans-30" x="63.623047"/>
       <use xlink:href="#DejaVuSans-30" x="127.246094"/>
      </g>
     </g>
    </g>
    <g id="text_34">
     <!-- Time (min) -->
     <g transform="translate(664.992685 240.864375)scale(0.12 -0.12)">
      <use xlink:href="#DejaVuSans-54"/>
      <use xlink:href="#DejaVuSans-69" x="57.958984"/>
      <use xlink:href="#DejaVuSans-6d" x="85.742188"/>
      <use xlink:href="#DejaVuSans-65" x="183.154297"/>
      <use xlink:href="#DejaVuSans-20" x="244.677734"/>
      <use xlink:href="#DejaVuSans-28" x="276.464844"/>
      <use xlink:href="#DejaVuSans-6d" x="315.478516"/>
      <use xlink:href="#DejaVuSans-69" x="412.890625"/>
      <use xlink:href="#DejaVuSans-6e" x="440.673828"/>
      <use xlink:href="#DejaVuSans-29" x="504.052734"/>
     </g>
    </g>
   </g>
   <g id="matplotlib.axis_6">
    <g id="ytick_13">
     <g id="line2d_34">
      <g>
       <use xlink:href="#m7888772e5e" x="619.588466" y="205.068125" style="stroke: #000000; stroke-width: 0.8"/>
      </g>
     </g>
     <g id="text_35">
      <!-- 0.0 -->
      <g transform="translate(596.685341 208.867344)scale(0.1 -0.1)">
       <use xlink:href="#DejaVuSans-30"/>
       <use xlink:href="#DejaVuSans-2e" x="63.623047"/>
       <use xlink:href="#DejaVuSans-30" x="95.410156"/>
      </g>
     </g>
    </g>
    <g id="ytick_14">
     <g id="line2d_35">
      <g>
       <use xlink:href="#m7888772e5e" x="619.588466" y="173.873312" style="stroke: #000000; stroke-width: 0.8"/>
      </g>
     </g>
     <g id="text_36">
      <!-- 0.2 -->
      <g transform="translate(596.685341 177.672531)scale(0.1 -0.1)">
       <use xlink:href="#DejaVuSans-30"/>
       <use xlink:href="#DejaVuSans-2e" x="63.623047"/>
       <use xlink:href="#DejaVuSans-32" x="95.410156"/>
      </g>
     </g>
    </g>
    <g id="ytick_15">
     <g id="line2d_36">
      <g>
       <use xlink:href="#m7888772e5e" x="619.588466" y="142.6785" style="stroke: #000000; stroke-width: 0.8"/>
      </g>
     </g>
     <g id="text_37">
      <!-- 0.4 -->
      <g transform="translate(596.685341 146.477719)scale(0.1 -0.1)">
       <use xlink:href="#DejaVuSans-30"/>
       <use xlink:href="#DejaVuSans-2e" x="63.623047"/>
       <use xlink:href="#DejaVuSans-34" x="95.410156"/>
      </g>
     </g>
    </g>
    <g id="ytick_16">
     <g id="line2d_37">
      <g>
       <use xlink:href="#m7888772e5e" x="619.588466" y="111.483687" style="stroke: #000000; stroke-width: 0.8"/>
      </g>
     </g>
     <g id="text_38">
      <!-- 0.6 -->
      <g transform="translate(596.685341 115.282906)scale(0.1 -0.1)">
       <use xlink:href="#DejaVuSans-30"/>
       <use xlink:href="#DejaVuSans-2e" x="63.623047"/>
       <use xlink:href="#DejaVuSans-36" x="95.410156"/>
      </g>
     </g>
    </g>
    <g id="ytick_17">
     <g id="line2d_38">
      <g>
       <use xlink:href="#m7888772e5e" x="619.588466" y="80.288875" style="stroke: #000000; stroke-width: 0.8"/>
      </g>
     </g>
     <g id="text_39">
      <!-- 0.8 -->
      <g transform="translate(596.685341 84.088094)scale(0.1 -0.1)">
       <use xlink:href="#DejaVuSans-30"/>
       <use xlink:href="#DejaVuSans-2e" x="63.623047"/>
       <use xlink:href="#DejaVuSans-38" x="95.410156"/>
      </g>
     </g>
    </g>
    <g id="ytick_18">
     <g id="line2d_39">
      <g>
       <use xlink:href="#m7888772e5e" x="619.588466" y="49.094062" style="stroke: #000000; stroke-width: 0.8"/>
      </g>
     </g>
     <g id="text_40">
      <!-- 1.0 -->
      <g transform="translate(596.685341 52.893281)scale(0.1 -0.1)">
       <use xlink:href="#DejaVuSans-31"/>
       <use xlink:href="#DejaVuSans-2e" x="63.623047"/>
       <use xlink:href="#DejaVuSans-30" x="95.410156"/>
      </g>
     </g>
    </g>
   </g>
   <g id="line2d_40">
    <path d="M 626.678196 201.710775 
L 629.041439 201.296203 
L 631.404683 200.922409 
L 633.767926 200.786484 
L 636.13117 200.602985 
L 638.494413 200.161229 
L 640.857656 199.862193 
L 643.2209 199.529177 
L 645.584143 199.19616 
L 647.947386 198.774792 
L 650.31063 198.523331 
L 652.673873 197.993223 
L 655.037116 197.150487 
L 657.40036 196.158234 
L 659.763603 194.832964 
L 662.126847 192.991179 
L 664.49009 191.10182 
L 666.853333 188.845463 
L 669.216577 186.534736 
L 671.57982 184.27838 
L 673.943063 181.892894 
L 676.306307 179.786055 
L 678.66955 178.012232 
L 681.032794 176.238409 
L 683.396037 174.627697 
L 685.75928 173.214076 
L 688.122524 171.77327 
L 690.485767 170.760628 
L 692.84901 169.849929 
L 695.212254 168.619807 
L 697.575497 168.381938 
L 699.938741 167.484832 
L 702.301984 167.240167 
L 704.665227 166.322673 
L 707.028471 166.247914 
L 709.391714 166.0916 
L 711.754957 165.867324 
L 714.118201 164.922644 
L 716.481444 164.888663 
L 718.844687 164.344962 
L 721.207931 164.256611 
L 723.571174 163.692522 
L 725.934418 163.726503 
L 728.297661 163.576985 
L 730.660904 162.870175 
L 733.024148 162.326474 
L 735.387391 162.414826 
L 737.750634 162.129383 
L 740.113878 160.953631 
L 742.477121 160.702169 
L 744.840365 160.464301 
L 747.203608 159.934193 
L 749.566851 159.234178 
L 751.930095 158.989513 
L 754.293338 158.472998 
L 756.656581 157.813761 
L 759.019825 157.806965 
L 761.383068 157.025395 
L 763.746312 156.522472 
L 766.109555 156.005957 
L 768.472798 155.754495 
" clip-path="url(#pb19c32ec68)" style="fill: none; stroke: #b0c4de; stroke-width: 2; stroke-linecap: square"/>
   </g>
   <g id="line2d_41">
    <path d="M 626.678196 202.261272 
L 629.041439 201.799126 
L 631.404683 201.547665 
L 633.767926 201.201056 
L 636.13117 200.806873 
L 638.494413 200.419486 
L 640.857656 200.174821 
L 643.2209 199.875786 
L 645.584143 199.236938 
L 647.947386 198.502942 
L 650.31063 196.899026 
L 652.673873 194.010617 
L 655.037116 190.218307 
L 657.40036 185.406558 
L 659.763603 179.493816 
L 662.126847 172.969411 
L 664.49009 165.98286 
L 666.853333 159.234178 
L 669.216577 153.409787 
L 671.57982 147.870839 
L 673.943063 143.303756 
L 676.306307 139.001726 
L 678.66955 135.542432 
L 681.032794 132.898688 
L 683.396037 130.513203 
L 685.75928 128.841324 
L 688.122524 126.408264 
L 690.485767 125.660676 
L 692.84901 123.533448 
L 695.212254 122.208179 
L 697.575497 121.012038 
L 699.938741 120.821742 
L 702.301984 118.66733 
L 704.665227 117.811001 
L 707.028471 116.710008 
L 709.391714 116.356603 
L 711.754957 114.949778 
L 714.118201 114.025487 
L 716.481444 113.814803 
L 718.844687 112.856531 
L 721.207931 111.939037 
L 723.571174 110.824451 
L 725.934418 110.369102 
L 728.297661 109.003054 
L 730.660904 107.949635 
L 733.024148 107.582637 
L 735.387391 106.9234 
L 737.750634 105.720463 
L 740.113878 105.604927 
L 742.477121 103.973825 
L 744.840365 103.606827 
L 747.203608 102.390298 
L 749.566851 102.206799 
L 751.930095 101.18736 
L 754.293338 100.48055 
L 756.656581 100.487346 
L 759.019825 99.576648 
L 761.383068 98.931004 
L 763.746312 98.169823 
L 766.109555 96.898923 
L 768.472798 96.994071 
" clip-path="url(#pb19c32ec68)" style="fill: none; stroke: #4169e1; stroke-width: 2; stroke-linecap: square"/>
   </g>
   <g id="line2d_42">
    <path d="M 626.678196 202.206901 
L 629.041439 201.819515 
L 631.404683 201.534072 
L 633.767926 201.248629 
L 636.13117 201.058334 
L 638.494413 201.051538 
L 640.857656 200.63017 
L 643.2209 200.399098 
L 645.584143 200.188414 
L 647.947386 199.427233 
L 650.31063 197.313598 
L 652.673873 192.630978 
L 655.037116 184.842469 
L 657.40036 174.050015 
L 659.763603 161.341017 
L 662.126847 147.945598 
L 664.49009 135.365729 
L 666.853333 124.015983 
L 669.216577 114.58278 
L 671.57982 106.964178 
L 673.943063 101.180564 
L 676.306307 96.103761 
L 678.66955 92.236692 
L 681.032794 92.032804 
L 683.396037 91.047347 
L 685.75928 90.245389 
L 688.122524 89.599745 
L 690.485767 88.790991 
L 692.84901 88.02981 
L 695.212254 86.65017 
L 697.575497 85.94336 
L 699.938741 85.94336 
L 702.301984 83.612244 
L 704.665227 83.687003 
L 707.028471 82.137456 
L 709.391714 82.91223 
L 711.754957 82.266585 
L 714.118201 82.837471 
L 716.481444 82.626787 
L 718.844687 82.939415 
L 721.207931 82.504454 
L 723.571174 82.558824 
L 725.934418 82.069494 
L 728.297661 82.586009 
L 730.660904 82.028716 
L 733.024148 82.511251 
L 735.387391 82.477269 
L 737.750634 82.103475 
L 740.113878 81.58696 
L 742.477121 81.736477 
L 744.840365 81.437442 
L 747.203608 80.438393 
L 749.566851 80.941316 
L 751.930095 80.173339 
L 754.293338 80.900538 
L 756.656581 80.649077 
L 759.019825 79.249048 
L 761.383068 80.125765 
L 763.746312 80.173339 
L 766.109555 79.364584 
L 768.472798 79.507306 
" clip-path="url(#pb19c32ec68)" style="fill: none; stroke: #191970; stroke-width: 2; stroke-linecap: square"/>
   </g>
   <g id="patch_11">
    <path d="M 619.588466 205.068125 
L 619.588466 49.094062 
" style="fill: none; stroke: #000000; stroke-width: 0.8; stroke-linejoin: miter; stroke-linecap: square"/>
   </g>
   <g id="patch_12">
    <path d="M 619.588466 205.068125 
L 775.562528 205.068125 
" style="fill: none; stroke: #000000; stroke-width: 0.8; stroke-linejoin: miter; stroke-linecap: square"/>
   </g>
   <g id="text_41">
    <!-- vRNA = 10fM -->
    <g transform="translate(660.632528 43.094062)scale(0.1 -0.1)">
     <use xlink:href="#DejaVuSans-Bold-76"/>
     <use xlink:href="#DejaVuSans-Bold-52" x="65.185547"/>
     <use xlink:href="#DejaVuSans-Bold-4e" x="142.1875"/>
     <use xlink:href="#DejaVuSans-Bold-41" x="225.878906"/>
     <use xlink:href="#DejaVuSans-Bold-20" x="303.271484"/>
     <use xlink:href="#DejaVuSans-Bold-3d" x="338.085938"/>
     <use xlink:href="#DejaVuSans-Bold-20" x="421.875"/>
     <use xlink:href="#DejaVuSans-Bold-31" x="456.689453"/>
     <use xlink:href="#DejaVuSans-Bold-30" x="526.269531"/>
     <use xlink:href="#DejaVuSans-Bold-66" x="595.849609"/>
     <use xlink:href="#DejaVuSans-Bold-4d" x="639.355469"/>
    </g>
   </g>
   <g id="legend_3">
    <g id="patch_13">
     <path d="M 626.588466 101.128437 
L 696.363466 101.128437 
Q 698.363466 101.128437 698.363466 99.128437 
L 698.363466 56.094062 
Q 698.363466 54.094062 696.363466 54.094062 
L 626.588466 54.094062 
Q 624.588466 54.094062 624.588466 56.094062 
L 624.588466 99.128437 
Q 624.588466 101.128437 626.588466 101.128437 
z
" style="fill: #ffffff; opacity: 0.8; stroke: #cccccc; stroke-linejoin: miter"/>
    </g>
    <g id="line2d_43">
     <path d="M 628.588466 62.1925 
L 638.588466 62.1925 
L 648.588466 62.1925 
" style="fill: none; stroke: #b0c4de; stroke-width: 2; stroke-linecap: square"/>
    </g>
    <g id="text_42">
     <!-- RT 0.5 -->
     <g transform="translate(656.588466 65.6925)scale(0.1 -0.1)">
      <use xlink:href="#DejaVuSans-52"/>
      <use xlink:href="#DejaVuSans-54" x="62.232422"/>
      <use xlink:href="#DejaVuSans-20" x="123.316406"/>
      <use xlink:href="#DejaVuSans-30" x="155.103516"/>
      <use xlink:href="#DejaVuSans-2e" x="218.726562"/>
      <use xlink:href="#DejaVuSans-35" x="250.513672"/>
     </g>
    </g>
    <g id="line2d_44">
     <path d="M 628.588466 76.870625 
L 638.588466 76.870625 
L 648.588466 76.870625 
" style="fill: none; stroke: #4169e1; stroke-width: 2; stroke-linecap: square"/>
    </g>
    <g id="text_43">
     <!-- RT 2.5 -->
     <g transform="translate(656.588466 80.370625)scale(0.1 -0.1)">
      <use xlink:href="#DejaVuSans-52"/>
      <use xlink:href="#DejaVuSans-54" x="62.232422"/>
      <use xlink:href="#DejaVuSans-20" x="123.316406"/>
      <use xlink:href="#DejaVuSans-32" x="155.103516"/>
      <use xlink:href="#DejaVuSans-2e" x="218.726562"/>
      <use xlink:href="#DejaVuSans-35" x="250.513672"/>
     </g>
    </g>
    <g id="line2d_45">
     <path d="M 628.588466 91.54875 
L 638.588466 91.54875 
L 648.588466 91.54875 
" style="fill: none; stroke: #191970; stroke-width: 2; stroke-linecap: square"/>
    </g>
    <g id="text_44">
     <!-- RT 10.0 -->
     <g transform="translate(656.588466 95.04875)scale(0.1 -0.1)">
      <use xlink:href="#DejaVuSans-52"/>
      <use xlink:href="#DejaVuSans-54" x="62.232422"/>
      <use xlink:href="#DejaVuSans-20" x="123.316406"/>
      <use xlink:href="#DejaVuSans-31" x="155.103516"/>
      <use xlink:href="#DejaVuSans-30" x="218.726562"/>
      <use xlink:href="#DejaVuSans-2e" x="282.349609"/>
      <use xlink:href="#DejaVuSans-30" x="314.136719"/>
     </g>
    </g>
   </g>
  </g>
  <g id="text_45">
   <!-- RT_Sweep_Cas13=90 rep1 -->
   <g transform="translate(308.050639 16.10625)scale(0.12 -0.12)">
    <defs>
     <path id="DejaVuSans-Bold-54" d="M 31 4666 
L 4331 4666 
L 4331 3756 
L 2784 3756 
L 2784 0 
L 1581 0 
L 1581 3756 
L 31 3756 
L 31 4666 
z
" transform="scale(0.015625)"/>
     <path id="DejaVuSans-Bold-5f" d="M 3200 -916 
L 3200 -1509 
L 0 -1509 
L 0 -916 
L 3200 -916 
z
" transform="scale(0.015625)"/>
     <path id="DejaVuSans-Bold-53" d="M 3834 4519 
L 3834 3531 
Q 3450 3703 3084 3790 
Q 2719 3878 2394 3878 
Q 1963 3878 1756 3759 
Q 1550 3641 1550 3391 
Q 1550 3203 1689 3098 
Q 1828 2994 2194 2919 
L 2706 2816 
Q 3484 2659 3812 2340 
Q 4141 2022 4141 1434 
Q 4141 663 3683 286 
Q 3225 -91 2284 -91 
Q 1841 -91 1394 -6 
Q 947 78 500 244 
L 500 1259 
Q 947 1022 1364 901 
Q 1781 781 2169 781 
Q 2563 781 2772 912 
Q 2981 1044 2981 1288 
Q 2981 1506 2839 1625 
Q 2697 1744 2272 1838 
L 1806 1941 
Q 1106 2091 782 2419 
Q 459 2747 459 3303 
Q 459 4000 909 4375 
Q 1359 4750 2203 4750 
Q 2588 4750 2994 4692 
Q 3400 4634 3834 4519 
z
" transform="scale(0.015625)"/>
     <path id="DejaVuSans-Bold-77" d="M 225 3500 
L 1313 3500 
L 1900 1088 
L 2491 3500 
L 3425 3500 
L 4013 1113 
L 4603 3500 
L 5691 3500 
L 4769 0 
L 3547 0 
L 2956 2406 
L 2369 0 
L 1147 0 
L 225 3500 
z
" transform="scale(0.015625)"/>
     <path id="DejaVuSans-Bold-65" d="M 4031 1759 
L 4031 1441 
L 1416 1441 
Q 1456 1047 1700 850 
Q 1944 653 2381 653 
Q 2734 653 3104 758 
Q 3475 863 3866 1075 
L 3866 213 
Q 3469 63 3072 -14 
Q 2675 -91 2278 -91 
Q 1328 -91 801 392 
Q 275 875 275 1747 
Q 275 2603 792 3093 
Q 1309 3584 2216 3584 
Q 3041 3584 3536 3087 
Q 4031 2591 4031 1759 
z
M 2881 2131 
Q 2881 2450 2695 2645 
Q 2509 2841 2209 2841 
Q 1884 2841 1681 2658 
Q 1478 2475 1428 2131 
L 2881 2131 
z
" transform="scale(0.015625)"/>
     <path id="DejaVuSans-Bold-70" d="M 1656 506 
L 1656 -1331 
L 538 -1331 
L 538 3500 
L 1656 3500 
L 1656 2988 
Q 1888 3294 2169 3439 
Q 2450 3584 2816 3584 
Q 3463 3584 3878 3070 
Q 4294 2556 4294 1747 
Q 4294 938 3878 423 
Q 3463 -91 2816 -91 
Q 2450 -91 2169 54 
Q 1888 200 1656 506 
z
M 2400 2772 
Q 2041 2772 1848 2508 
Q 1656 2244 1656 1747 
Q 1656 1250 1848 986 
Q 2041 722 2400 722 
Q 2759 722 2948 984 
Q 3138 1247 3138 1747 
Q 3138 2247 2948 2509 
Q 2759 2772 2400 2772 
z
" transform="scale(0.015625)"/>
     <path id="DejaVuSans-Bold-43" d="M 4288 256 
Q 3956 84 3597 -3 
Q 3238 -91 2847 -91 
Q 1681 -91 1000 561 
Q 319 1213 319 2328 
Q 319 3447 1000 4098 
Q 1681 4750 2847 4750 
Q 3238 4750 3597 4662 
Q 3956 4575 4288 4403 
L 4288 3438 
Q 3953 3666 3628 3772 
Q 3303 3878 2944 3878 
Q 2300 3878 1931 3465 
Q 1563 3053 1563 2328 
Q 1563 1606 1931 1193 
Q 2300 781 2944 781 
Q 3303 781 3628 887 
Q 3953 994 4288 1222 
L 4288 256 
z
" transform="scale(0.015625)"/>
     <path id="DejaVuSans-Bold-61" d="M 2106 1575 
Q 1756 1575 1579 1456 
Q 1403 1338 1403 1106 
Q 1403 894 1545 773 
Q 1688 653 1941 653 
Q 2256 653 2472 879 
Q 2688 1106 2688 1447 
L 2688 1575 
L 2106 1575 
z
M 3816 1997 
L 3816 0 
L 2688 0 
L 2688 519 
Q 2463 200 2181 54 
Q 1900 -91 1497 -91 
Q 953 -91 614 226 
Q 275 544 275 1050 
Q 275 1666 698 1953 
Q 1122 2241 2028 2241 
L 2688 2241 
L 2688 2328 
Q 2688 2594 2478 2717 
Q 2269 2841 1825 2841 
Q 1466 2841 1156 2769 
Q 847 2697 581 2553 
L 581 3406 
Q 941 3494 1303 3539 
Q 1666 3584 2028 3584 
Q 2975 3584 3395 3211 
Q 3816 2838 3816 1997 
z
" transform="scale(0.015625)"/>
     <path id="DejaVuSans-Bold-73" d="M 3272 3391 
L 3272 2541 
Q 2913 2691 2578 2766 
Q 2244 2841 1947 2841 
Q 1628 2841 1473 2761 
Q 1319 2681 1319 2516 
Q 1319 2381 1436 2309 
Q 1553 2238 1856 2203 
L 2053 2175 
Q 2913 2066 3209 1816 
Q 3506 1566 3506 1031 
Q 3506 472 3093 190 
Q 2681 -91 1863 -91 
Q 1516 -91 1145 -36 
Q 775 19 384 128 
L 384 978 
Q 719 816 1070 734 
Q 1422 653 1784 653 
Q 2113 653 2278 743 
Q 2444 834 2444 1013 
Q 2444 1163 2330 1236 
Q 2216 1309 1875 1350 
L 1678 1375 
Q 931 1469 631 1722 
Q 331 1975 331 2491 
Q 331 3047 712 3315 
Q 1094 3584 1881 3584 
Q 2191 3584 2531 3537 
Q 2872 3491 3272 3391 
z
" transform="scale(0.015625)"/>
     <path id="DejaVuSans-Bold-33" d="M 2981 2516 
Q 3453 2394 3698 2092 
Q 3944 1791 3944 1325 
Q 3944 631 3412 270 
Q 2881 -91 1863 -91 
Q 1503 -91 1142 -33 
Q 781 25 428 141 
L 428 1069 
Q 766 900 1098 814 
Q 1431 728 1753 728 
Q 2231 728 2486 893 
Q 2741 1059 2741 1369 
Q 2741 1688 2480 1852 
Q 2219 2016 1709 2016 
L 1228 2016 
L 1228 2791 
L 1734 2791 
Q 2188 2791 2409 2933 
Q 2631 3075 2631 3366 
Q 2631 3634 2415 3781 
Q 2200 3928 1806 3928 
Q 1516 3928 1219 3862 
Q 922 3797 628 3669 
L 628 4550 
Q 984 4650 1334 4700 
Q 1684 4750 2022 4750 
Q 2931 4750 3382 4451 
Q 3834 4153 3834 3553 
Q 3834 3144 3618 2883 
Q 3403 2622 2981 2516 
z
" transform="scale(0.015625)"/>
     <path id="DejaVuSans-Bold-39" d="M 641 103 
L 641 966 
Q 928 831 1190 764 
Q 1453 697 1709 697 
Q 2247 697 2547 995 
Q 2847 1294 2900 1881 
Q 2688 1725 2447 1647 
Q 2206 1569 1925 1569 
Q 1209 1569 770 1986 
Q 331 2403 331 3084 
Q 331 3838 820 4291 
Q 1309 4744 2131 4744 
Q 3044 4744 3544 4128 
Q 4044 3513 4044 2388 
Q 4044 1231 3459 570 
Q 2875 -91 1856 -91 
Q 1528 -91 1228 -42 
Q 928 6 641 103 
z
M 2125 2350 
Q 2441 2350 2600 2554 
Q 2759 2759 2759 3169 
Q 2759 3575 2600 3781 
Q 2441 3988 2125 3988 
Q 1809 3988 1650 3781 
Q 1491 3575 1491 3169 
Q 1491 2759 1650 2554 
Q 1809 2350 2125 2350 
z
" transform="scale(0.015625)"/>
     <path id="DejaVuSans-Bold-72" d="M 3138 2547 
Q 2991 2616 2845 2648 
Q 2700 2681 2553 2681 
Q 2122 2681 1889 2404 
Q 1656 2128 1656 1613 
L 1656 0 
L 538 0 
L 538 3500 
L 1656 3500 
L 1656 2925 
Q 1872 3269 2151 3426 
Q 2431 3584 2822 3584 
Q 2878 3584 2943 3579 
Q 3009 3575 3134 3559 
L 3138 2547 
z
" transform="scale(0.015625)"/>
    </defs>
    <use xlink:href="#DejaVuSans-Bold-52"/>
    <use xlink:href="#DejaVuSans-Bold-54" x="72.501953"/>
    <use xlink:href="#DejaVuSans-Bold-5f" x="140.714844"/>
    <use xlink:href="#DejaVuSans-Bold-53" x="190.714844"/>
    <use xlink:href="#DejaVuSans-Bold-77" x="262.736328"/>
    <use xlink:href="#DejaVuSans-Bold-65" x="355.119141"/>
    <use xlink:href="#DejaVuSans-Bold-65" x="422.941406"/>
    <use xlink:href="#DejaVuSans-Bold-70" x="490.763672"/>
    <use xlink:href="#DejaVuSans-Bold-5f" x="562.345703"/>
    <use xlink:href="#DejaVuSans-Bold-43" x="612.345703"/>
    <use xlink:href="#DejaVuSans-Bold-61" x="685.734375"/>
    <use xlink:href="#DejaVuSans-Bold-73" x="753.214844"/>
    <use xlink:href="#DejaVuSans-Bold-31" x="812.736328"/>
    <use xlink:href="#DejaVuSans-Bold-33" x="882.316406"/>
    <use xlink:href="#DejaVuSans-Bold-3d" x="951.896484"/>
    <use xlink:href="#DejaVuSans-Bold-39" x="1035.685547"/>
    <use xlink:href="#DejaVuSans-Bold-30" x="1105.265625"/>
    <use xlink:href="#DejaVuSans-Bold-20" x="1174.845703"/>
    <use xlink:href="#DejaVuSans-Bold-72" x="1209.660156"/>
    <use xlink:href="#DejaVuSans-Bold-65" x="1258.976562"/>
    <use xlink:href="#DejaVuSans-Bold-70" x="1326.798828"/>
    <use xlink:href="#DejaVuSans-Bold-31" x="1398.380859"/>
   </g>
  </g>
 </g>
 <defs>
  <clipPath id="pa8defc7ab0">
   <rect x="51.716875" y="49.094062" width="155.974063" height="155.974063"/>
  </clipPath>
  <clipPath id="pab15d0fafb">
   <rect x="335.65267" y="49.094062" width="155.974063" height="155.974063"/>
  </clipPath>
  <clipPath id="pb19c32ec68">
   <rect x="619.588466" y="49.094062" width="155.974063" height="155.974063"/>
  </clipPath>
 </defs>
</svg>
