<?xml version="1.0" encoding="utf-8" standalone="no"?>
<!DOCTYPE svg PUBLIC "-//W3C//DTD SVG 1.1//EN"
  "http://www.w3.org/Graphics/SVG/1.1/DTD/svg11.dtd">
<svg xmlns:xlink="http://www.w3.org/1999/xlink" width="782.762528pt" height="250.56pt" viewBox="0 0 782.762528 250.56" xmlns="http://www.w3.org/2000/svg" version="1.1">
 <metadata>
  <rdf:RDF xmlns:dc="http://purl.org/dc/elements/1.1/" xmlns:cc="http://creativecommons.org/ns#" xmlns:rdf="http://www.w3.org/1999/02/22-rdf-syntax-ns#">
   <cc:Work>
    <dc:type rdf:resource="http://purl.org/dc/dcmitype/StillImage"/>
    <dc:date>2022-12-02T20:14:47.552785</dc:date>
    <dc:format>image/svg+xml</dc:format>
    <dc:creator>
     <cc:Agent>
      <dc:title>Matplotlib v3.5.1, https://matplotlib.org/</dc:title>
     </cc:Agent>
    </dc:creator>
   </cc:Work>
  </rdf:RDF>
 </metadata>
 <defs>
  <style type="text/css">*{stroke-linejoin: round; stroke-linecap: butt}</style>
 </defs>
 <g id="figure_1">
  <g id="patch_1">
   <path d="M 0 250.56 
L 782.762528 250.56 
L 782.762528 -0 
L 0 -0 
L 0 250.56 
z
" style="fill: none"/>
  </g>
  <g id="axes_1">
   <g id="patch_2">
    <path d="M 51.716875 205.068125 
L 207.690938 205.068125 
L 207.690938 49.094062 
L 51.716875 49.094062 
z
" style="fill: #ffffff"/>
   </g>
   <g id="PolyCollection_1">
    <defs>
     <path id="m4ad32bfcf8" d="M 58.806605 -48.926416 
L 58.806605 -48.772035 
L 61.169848 -49.072656 
L 63.533092 -49.297584 
L 65.896335 -49.719572 
L 68.259579 -49.765216 
L 70.622822 -50.164112 
L 72.986065 -50.267978 
L 75.349309 -50.5279 
L 77.712552 -50.525948 
L 80.075795 -50.66326 
L 82.439039 -50.870772 
L 84.802282 -50.716691 
L 87.165526 -50.830279 
L 89.528769 -51.244567 
L 91.892012 -51.27518 
L 94.255256 -51.398674 
L 96.618499 -51.608641 
L 98.981742 -51.85317 
L 101.344986 -51.933519 
L 103.708229 -51.874944 
L 106.071473 -52.263782 
L 108.434716 -52.191551 
L 110.797959 -52.195065 
L 113.161203 -52.529059 
L 115.524446 -52.704503 
L 117.887689 -52.520267 
L 120.250933 -52.679305 
L 122.614176 -52.957407 
L 124.97742 -53.109632 
L 127.340663 -53.131783 
L 129.703906 -53.385483 
L 132.06715 -53.470194 
L 134.430393 -53.298009 
L 136.793636 -53.568106 
L 139.15688 -53.525138 
L 141.520123 -53.592163 
L 143.883366 -53.868071 
L 146.24661 -53.782807 
L 148.609853 -53.700498 
L 150.973097 -54.083588 
L 153.33634 -53.985941 
L 155.699583 -54.007053 
L 158.062827 -54.16044 
L 160.42607 -54.025928 
L 162.789313 -54.489693 
L 165.152557 -54.65255 
L 167.5158 -54.551057 
L 169.879044 -54.834043 
L 172.242287 -54.533856 
L 174.60553 -54.607186 
L 176.968774 -54.905413 
L 179.332017 -55.126282 
L 181.69526 -54.894713 
L 184.058504 -54.993943 
L 186.421747 -55.178476 
L 188.784991 -55.373253 
L 191.148234 -55.458484 
L 193.511477 -55.543626 
L 195.874721 -55.228341 
L 198.237964 -55.594046 
L 200.601207 -55.74405 
L 200.601207 -56.24013 
L 200.601207 -56.24013 
L 198.237964 -56.267801 
L 195.874721 -56.076213 
L 193.511477 -56.059963 
L 191.148234 -55.805293 
L 188.784991 -55.741005 
L 186.421747 -55.772672 
L 184.058504 -55.65817 
L 181.69526 -55.580697 
L 179.332017 -55.335536 
L 176.968774 -55.542813 
L 174.60553 -55.419672 
L 172.242287 -55.248336 
L 169.879044 -55.043297 
L 167.5158 -55.163173 
L 165.152557 -54.857792 
L 162.789313 -54.816762 
L 160.42607 -55.022269 
L 158.062827 -54.751832 
L 155.699583 -54.443074 
L 153.33634 -54.613703 
L 150.973097 -54.230613 
L 148.609853 -54.32826 
L 146.24661 -54.245951 
L 143.883366 -54.051947 
L 141.520123 -54.2463 
L 139.15688 -54.041475 
L 136.793636 -53.930545 
L 134.430393 -53.752089 
L 132.06715 -53.756606 
L 129.703906 -53.528689 
L 127.340663 -53.483354 
L 124.97742 -53.274433 
L 122.614176 -53.181992 
L 120.250933 -53.419317 
L 117.887689 -53.17058 
L 115.524446 -52.959159 
L 113.161203 -52.63168 
L 110.797959 -52.924896 
L 108.434716 -52.54782 
L 106.071473 -52.326071 
L 103.708229 -52.307134 
L 101.344986 -52.126226 
L 98.981742 -51.934725 
L 96.618499 -51.948182 
L 94.255256 -51.614448 
L 91.892012 -51.72435 
L 89.528769 -51.347188 
L 87.165526 -51.46244 
L 84.802282 -51.086697 
L 82.439039 -50.973394 
L 80.075795 -50.909056 
L 77.712552 -50.788111 
L 75.349309 -50.568678 
L 72.986065 -50.352863 
L 70.622822 -50.347988 
L 68.259579 -50.135222 
L 65.896335 -49.82746 
L 63.533092 -49.77371 
L 61.169848 -49.237457 
L 58.806605 -48.926416 
z
" style="stroke: #90ee90; stroke-opacity: 0.2"/>
    </defs>
    <g clip-path="url(#p7b93cb2846)">
     <use xlink:href="#m4ad32bfcf8" x="0" y="250.56" style="fill: #90ee90; fill-opacity: 0.2; stroke: #90ee90; stroke-opacity: 0.2"/>
    </g>
   </g>
   <g id="PolyCollection_2">
    <defs>
     <path id="m8fec8f4de6" d="M 58.806605 -48.708169 
L 58.806605 -48.623284 
L 61.169848 -48.737558 
L 63.533092 -49.072566 
L 65.896335 -49.387514 
L 68.259579 -49.697673 
L 70.622822 -49.884939 
L 72.986065 -50.018181 
L 75.349309 -50.292048 
L 77.712552 -50.540972 
L 80.075795 -50.579412 
L 82.439039 -50.824252 
L 84.802282 -50.854121 
L 87.165526 -51.12015 
L 89.528769 -51.307805 
L 91.892012 -51.387065 
L 94.255256 -51.464096 
L 96.618499 -51.397291 
L 98.981742 -51.622267 
L 101.344986 -51.801301 
L 103.708229 -51.774955 
L 106.071473 -51.967861 
L 108.434716 -52.048017 
L 110.797959 -52.404155 
L 113.161203 -52.079886 
L 115.524446 -52.464833 
L 117.887689 -52.453468 
L 120.250933 -52.32584 
L 122.614176 -52.626256 
L 124.97742 -52.794695 
L 127.340663 -52.983063 
L 129.703906 -53.000404 
L 132.06715 -53.105396 
L 134.430393 -52.983576 
L 136.793636 -53.22644 
L 139.15688 -53.33433 
L 141.520123 -53.48757 
L 143.883366 -53.480904 
L 146.24661 -53.700906 
L 148.609853 -53.900089 
L 150.973097 -53.836344 
L 153.33634 -53.979065 
L 155.699583 -54.197878 
L 158.062827 -54.053469 
L 160.42607 -54.25007 
L 162.789313 -54.284182 
L 165.152557 -54.306279 
L 167.5158 -54.530124 
L 169.879044 -54.768764 
L 172.242287 -54.707597 
L 174.60553 -54.815492 
L 176.968774 -55.094984 
L 179.332017 -55.134991 
L 181.69526 -55.098043 
L 184.058504 -55.388591 
L 186.421747 -55.38589 
L 188.784991 -55.430866 
L 191.148234 -55.024854 
L 193.511477 -55.546781 
L 195.874721 -55.750891 
L 198.237964 -55.651712 
L 200.601207 -55.74537 
L 200.601207 -56.062107 
L 200.601207 -56.062107 
L 198.237964 -55.897507 
L 195.874721 -55.920661 
L 193.511477 -55.771366 
L 191.148234 -55.708815 
L 188.784991 -55.6698 
L 186.421747 -55.456519 
L 184.058504 -55.589742 
L 181.69526 -55.200665 
L 179.332017 -55.435567 
L 176.968774 -55.217317 
L 174.60553 -54.980293 
L 172.242287 -54.911485 
L 169.879044 -54.809541 
L 167.5158 -54.8307 
L 165.152557 -54.714733 
L 162.789313 -54.872755 
L 160.42607 -54.485499 
L 158.062827 -54.301509 
L 155.699583 -54.279433 
L 153.33634 -54.049694 
L 150.973097 -53.906972 
L 148.609853 -54.047115 
L 146.24661 -53.865707 
L 143.883366 -53.854636 
L 141.520123 -53.834378 
L 139.15688 -53.661398 
L 136.793636 -53.334327 
L 134.430393 -53.250972 
L 132.06715 -53.292262 
L 129.703906 -53.071033 
L 127.340663 -53.169929 
L 124.97742 -52.841781 
L 122.614176 -52.874296 
L 120.250933 -52.780529 
L 117.887689 -52.720864 
L 115.524446 -52.546388 
L 113.161203 -52.550745 
L 110.797959 -52.498326 
L 108.434716 -52.297172 
L 106.071473 -52.132662 
L 103.708229 -52.366346 
L 101.344986 -52.149704 
L 98.981742 -51.893778 
L 96.618499 -51.833312 
L 94.255256 -51.712136 
L 91.892012 -51.449354 
L 89.528769 -51.39269 
L 87.165526 -51.308494 
L 84.802282 -51.017231 
L 82.439039 -51.033506 
L 80.075795 -50.856979 
L 77.712552 -50.718717 
L 75.349309 -50.519088 
L 72.986065 -50.589067 
L 70.622822 -50.450459 
L 68.259579 -50.039654 
L 65.896335 -49.819705 
L 63.533092 -49.46862 
L 61.169848 -49.05604 
L 58.806605 -48.708169 
z
" style="stroke: #3cb371; stroke-opacity: 0.2"/>
    </defs>
    <g clip-path="url(#p7b93cb2846)">
     <use xlink:href="#m8fec8f4de6" x="0" y="250.56" style="fill: #3cb371; fill-opacity: 0.2; stroke: #3cb371; stroke-opacity: 0.2"/>
    </g>
   </g>
   <g id="PolyCollection_3">
    <defs>
     <path id="m5a2e866fb4" d="M 58.806605 -48.819243 
L 58.806605 -48.607357 
L 61.169848 -49.157366 
L 63.533092 -49.297257 
L 65.896335 -49.229573 
L 68.259579 -49.52163 
L 70.622822 -49.68075 
L 72.986065 -49.570656 
L 75.349309 -49.793561 
L 77.712552 -49.939185 
L 80.075795 -50.111788 
L 82.439039 -50.254546 
L 84.802282 -50.327741 
L 87.165526 -50.460269 
L 89.528769 -50.74485 
L 91.892012 -50.578345 
L 94.255256 -50.872454 
L 96.618499 -50.810808 
L 98.981742 -51.06942 
L 101.344986 -50.898314 
L 103.708229 -51.21026 
L 106.071473 -51.12644 
L 108.434716 -51.058911 
L 110.797959 -51.401161 
L 113.161203 -51.542675 
L 115.524446 -51.711425 
L 117.887689 -51.584749 
L 120.250933 -51.640557 
L 122.614176 -51.634646 
L 124.97742 -51.700469 
L 127.340663 -52.061805 
L 129.703906 -52.136201 
L 132.06715 -52.114758 
L 134.430393 -52.095717 
L 136.793636 -52.200289 
L 139.15688 -52.380255 
L 141.520123 -52.375577 
L 143.883366 -52.713783 
L 146.24661 -52.746778 
L 148.609853 -52.676458 
L 150.973097 -52.8091 
L 153.33634 -53.195461 
L 155.699583 -53.04116 
L 158.062827 -53.02995 
L 160.42607 -53.287656 
L 162.789313 -53.470194 
L 165.152557 -53.333992 
L 167.5158 -53.385944 
L 169.879044 -53.645429 
L 172.242287 -53.608717 
L 174.60553 -53.890359 
L 176.968774 -53.833073 
L 179.332017 -53.762718 
L 181.69526 -53.874092 
L 184.058504 -53.947009 
L 186.421747 -53.964812 
L 188.784991 -53.953213 
L 191.148234 -54.175883 
L 193.511477 -53.948142 
L 195.874721 -54.322148 
L 198.237964 -54.192352 
L 200.601207 -54.481374 
L 200.601207 -55.028968 
L 200.601207 -55.028968 
L 198.237964 -55.10051 
L 195.874721 -54.916344 
L 193.511477 -54.936945 
L 191.148234 -54.953869 
L 188.784991 -54.891096 
L 186.421747 -54.662017 
L 184.058504 -54.258452 
L 181.69526 -54.725552 
L 179.332017 -54.456336 
L 176.968774 -54.399573 
L 174.60553 -54.138399 
L 172.242287 -54.284116 
L 169.879044 -53.907592 
L 167.5158 -54.071929 
L 165.152557 -54.001549 
L 162.789313 -53.756606 
L 160.42607 -53.966329 
L 158.062827 -53.748298 
L 155.699583 -53.451645 
L 153.33634 -53.569194 
L 150.973097 -53.343892 
L 148.609853 -53.313424 
L 146.24661 -53.093587 
L 143.883366 -53.194543 
L 141.520123 -52.98905 
L 139.15688 -52.780484 
L 136.793636 -53.01482 
L 134.430393 -52.861134 
L 132.06715 -52.624613 
L 129.703906 -52.521615 
L 127.340663 -52.582418 
L 124.97742 -52.400054 
L 122.614176 -52.166841 
L 120.250933 -51.929858 
L 117.887689 -51.958481 
L 115.524446 -51.899768 
L 113.161203 -52.082111 
L 110.797959 -51.992552 
L 108.434716 -51.723138 
L 106.071473 -51.519684 
L 103.708229 -51.680529 
L 101.344986 -51.557515 
L 98.981742 -51.49515 
L 96.618499 -51.305209 
L 94.255256 -51.189192 
L 91.892012 -51.170673 
L 89.528769 -51.180871 
L 87.165526 -51.016899 
L 84.802282 -50.78243 
L 82.439039 -50.624552 
L 80.075795 -50.71294 
L 77.712552 -50.586508 
L 75.349309 -50.868057 
L 72.986065 -50.289004 
L 70.622822 -49.988614 
L 68.259579 -49.848699 
L 65.896335 -49.800944 
L 63.533092 -49.475002 
L 61.169848 -49.27508 
L 58.806605 -48.819243 
z
" style="stroke: #006400; stroke-opacity: 0.2"/>
    </defs>
    <g clip-path="url(#p7b93cb2846)">
     <use xlink:href="#m5a2e866fb4" x="0" y="250.56" style="fill: #006400; fill-opacity: 0.2; stroke: #006400; stroke-opacity: 0.2"/>
    </g>
   </g>
   <g id="matplotlib.axis_1">
    <g id="xtick_1">
     <g id="line2d_1">
      <defs>
       <path id="mfa7d3a0e4e" d="M 0 0 
L 0 3.5 
" style="stroke: #000000; stroke-width: 0.8"/>
      </defs>
      <g>
       <use xlink:href="#mfa7d3a0e4e" x="58.806605" y="205.068125" style="stroke: #000000; stroke-width: 0.8"/>
      </g>
     </g>
     <g id="text_1">
      <!-- 0 -->
      <g transform="translate(55.625355 219.666562)scale(0.1 -0.1)">
       <defs>
        <path id="DejaVuSans-30" d="M 2034 4250 
Q 1547 4250 1301 3770 
Q 1056 3291 1056 2328 
Q 1056 1369 1301 889 
Q 1547 409 2034 409 
Q 2525 409 2770 889 
Q 3016 1369 3016 2328 
Q 3016 3291 2770 3770 
Q 2525 4250 2034 4250 
z
M 2034 4750 
Q 2819 4750 3233 4129 
Q 3647 3509 3647 2328 
Q 3647 1150 3233 529 
Q 2819 -91 2034 -91 
Q 1250 -91 836 529 
Q 422 1150 422 2328 
Q 422 3509 836 4129 
Q 1250 4750 2034 4750 
z
" transform="scale(0.015625)"/>
       </defs>
       <use xlink:href="#DejaVuSans-30"/>
      </g>
     </g>
    </g>
    <g id="xtick_2">
     <g id="line2d_2">
      <g>
       <use xlink:href="#mfa7d3a0e4e" x="117.887689" y="205.068125" style="stroke: #000000; stroke-width: 0.8"/>
      </g>
     </g>
     <g id="text_2">
      <!-- 100 -->
      <g transform="translate(108.343939 219.666562)scale(0.1 -0.1)">
       <defs>
        <path id="DejaVuSans-31" d="M 794 531 
L 1825 531 
L 1825 4091 
L 703 3866 
L 703 4441 
L 1819 4666 
L 2450 4666 
L 2450 531 
L 3481 531 
L 3481 0 
L 794 0 
L 794 531 
z
" transform="scale(0.015625)"/>
       </defs>
       <use xlink:href="#DejaVuSans-31"/>
       <use xlink:href="#DejaVuSans-30" x="63.623047"/>
       <use xlink:href="#DejaVuSans-30" x="127.246094"/>
      </g>
     </g>
    </g>
    <g id="xtick_3">
     <g id="line2d_3">
      <g>
       <use xlink:href="#mfa7d3a0e4e" x="176.968774" y="205.068125" style="stroke: #000000; stroke-width: 0.8"/>
      </g>
     </g>
     <g id="text_3">
      <!-- 200 -->
      <g transform="translate(167.425024 219.666562)scale(0.1 -0.1)">
       <defs>
        <path id="DejaVuSans-32" d="M 1228 531 
L 3431 531 
L 3431 0 
L 469 0 
L 469 531 
Q 828 903 1448 1529 
Q 2069 2156 2228 2338 
Q 2531 2678 2651 2914 
Q 2772 3150 2772 3378 
Q 2772 3750 2511 3984 
Q 2250 4219 1831 4219 
Q 1534 4219 1204 4116 
Q 875 4013 500 3803 
L 500 4441 
Q 881 4594 1212 4672 
Q 1544 4750 1819 4750 
Q 2544 4750 2975 4387 
Q 3406 4025 3406 3419 
Q 3406 3131 3298 2873 
Q 3191 2616 2906 2266 
Q 2828 2175 2409 1742 
Q 1991 1309 1228 531 
z
" transform="scale(0.015625)"/>
       </defs>
       <use xlink:href="#DejaVuSans-32"/>
       <use xlink:href="#DejaVuSans-30" x="63.623047"/>
       <use xlink:href="#DejaVuSans-30" x="127.246094"/>
      </g>
     </g>
    </g>
    <g id="text_4">
     <!-- Time (min) -->
     <g transform="translate(97.121094 240.864375)scale(0.12 -0.12)">
      <defs>
       <path id="DejaVuSans-54" d="M -19 4666 
L 3928 4666 
L 3928 4134 
L 2272 4134 
L 2272 0 
L 1638 0 
L 1638 4134 
L -19 4134 
L -19 4666 
z
" transform="scale(0.015625)"/>
       <path id="DejaVuSans-69" d="M 603 3500 
L 1178 3500 
L 1178 0 
L 603 0 
L 603 3500 
z
M 603 4863 
L 1178 4863 
L 1178 4134 
L 603 4134 
L 603 4863 
z
" transform="scale(0.015625)"/>
       <path id="DejaVuSans-6d" d="M 3328 2828 
Q 3544 3216 3844 3400 
Q 4144 3584 4550 3584 
Q 5097 3584 5394 3201 
Q 5691 2819 5691 2113 
L 5691 0 
L 5113 0 
L 5113 2094 
Q 5113 2597 4934 2840 
Q 4756 3084 4391 3084 
Q 3944 3084 3684 2787 
Q 3425 2491 3425 1978 
L 3425 0 
L 2847 0 
L 2847 2094 
Q 2847 2600 2669 2842 
Q 2491 3084 2119 3084 
Q 1678 3084 1418 2786 
Q 1159 2488 1159 1978 
L 1159 0 
L 581 0 
L 581 3500 
L 1159 3500 
L 1159 2956 
Q 1356 3278 1631 3431 
Q 1906 3584 2284 3584 
Q 2666 3584 2933 3390 
Q 3200 3197 3328 2828 
z
" transform="scale(0.015625)"/>
       <path id="DejaVuSans-65" d="M 3597 1894 
L 3597 1613 
L 953 1613 
Q 991 1019 1311 708 
Q 1631 397 2203 397 
Q 2534 397 2845 478 
Q 3156 559 3463 722 
L 3463 178 
Q 3153 47 2828 -22 
Q 2503 -91 2169 -91 
Q 1331 -91 842 396 
Q 353 884 353 1716 
Q 353 2575 817 3079 
Q 1281 3584 2069 3584 
Q 2775 3584 3186 3129 
Q 3597 2675 3597 1894 
z
M 3022 2063 
Q 3016 2534 2758 2815 
Q 2500 3097 2075 3097 
Q 1594 3097 1305 2825 
Q 1016 2553 972 2059 
L 3022 2063 
z
" transform="scale(0.015625)"/>
       <path id="DejaVuSans-20" transform="scale(0.015625)"/>
       <path id="DejaVuSans-28" d="M 1984 4856 
Q 1566 4138 1362 3434 
Q 1159 2731 1159 2009 
Q 1159 1288 1364 580 
Q 1569 -128 1984 -844 
L 1484 -844 
Q 1016 -109 783 600 
Q 550 1309 550 2009 
Q 550 2706 781 3412 
Q 1013 4119 1484 4856 
L 1984 4856 
z
" transform="scale(0.015625)"/>
       <path id="DejaVuSans-6e" d="M 3513 2113 
L 3513 0 
L 2938 0 
L 2938 2094 
Q 2938 2591 2744 2837 
Q 2550 3084 2163 3084 
Q 1697 3084 1428 2787 
Q 1159 2491 1159 1978 
L 1159 0 
L 581 0 
L 581 3500 
L 1159 3500 
L 1159 2956 
Q 1366 3272 1645 3428 
Q 1925 3584 2291 3584 
Q 2894 3584 3203 3211 
Q 3513 2838 3513 2113 
z
" transform="scale(0.015625)"/>
       <path id="DejaVuSans-29" d="M 513 4856 
L 1013 4856 
Q 1481 4119 1714 3412 
Q 1947 2706 1947 2009 
Q 1947 1309 1714 600 
Q 1481 -109 1013 -844 
L 513 -844 
Q 928 -128 1133 580 
Q 1338 1288 1338 2009 
Q 1338 2731 1133 3434 
Q 928 4138 513 4856 
z
" transform="scale(0.015625)"/>
      </defs>
      <use xlink:href="#DejaVuSans-54"/>
      <use xlink:href="#DejaVuSans-69" x="57.958984"/>
      <use xlink:href="#DejaVuSans-6d" x="85.742188"/>
      <use xlink:href="#DejaVuSans-65" x="183.154297"/>
      <use xlink:href="#DejaVuSans-20" x="244.677734"/>
      <use xlink:href="#DejaVuSans-28" x="276.464844"/>
      <use xlink:href="#DejaVuSans-6d" x="315.478516"/>
      <use xlink:href="#DejaVuSans-69" x="412.890625"/>
      <use xlink:href="#DejaVuSans-6e" x="440.673828"/>
      <use xlink:href="#DejaVuSans-29" x="504.052734"/>
     </g>
    </g>
   </g>
   <g id="matplotlib.axis_2">
    <g id="ytick_1">
     <g id="line2d_4">
      <defs>
       <path id="m72bdbc1086" d="M 0 0 
L -3.5 0 
" style="stroke: #000000; stroke-width: 0.8"/>
      </defs>
      <g>
       <use xlink:href="#m72bdbc1086" x="51.716875" y="205.068125" style="stroke: #000000; stroke-width: 0.8"/>
      </g>
     </g>
     <g id="text_5">
      <!-- 0.0 -->
      <g transform="translate(28.81375 208.867344)scale(0.1 -0.1)">
       <defs>
        <path id="DejaVuSans-2e" d="M 684 794 
L 1344 794 
L 1344 0 
L 684 0 
L 684 794 
z
" transform="scale(0.015625)"/>
       </defs>
       <use xlink:href="#DejaVuSans-30"/>
       <use xlink:href="#DejaVuSans-2e" x="63.623047"/>
       <use xlink:href="#DejaVuSans-30" x="95.410156"/>
      </g>
     </g>
    </g>
    <g id="ytick_2">
     <g id="line2d_5">
      <g>
       <use xlink:href="#m72bdbc1086" x="51.716875" y="173.873312" style="stroke: #000000; stroke-width: 0.8"/>
      </g>
     </g>
     <g id="text_6">
      <!-- 0.2 -->
      <g transform="translate(28.81375 177.672531)scale(0.1 -0.1)">
       <use xlink:href="#DejaVuSans-30"/>
       <use xlink:href="#DejaVuSans-2e" x="63.623047"/>
       <use xlink:href="#DejaVuSans-32" x="95.410156"/>
      </g>
     </g>
    </g>
    <g id="ytick_3">
     <g id="line2d_6">
      <g>
       <use xlink:href="#m72bdbc1086" x="51.716875" y="142.6785" style="stroke: #000000; stroke-width: 0.8"/>
      </g>
     </g>
     <g id="text_7">
      <!-- 0.4 -->
      <g transform="translate(28.81375 146.477719)scale(0.1 -0.1)">
       <defs>
        <path id="DejaVuSans-34" d="M 2419 4116 
L 825 1625 
L 2419 1625 
L 2419 4116 
z
M 2253 4666 
L 3047 4666 
L 3047 1625 
L 3713 1625 
L 3713 1100 
L 3047 1100 
L 3047 0 
L 2419 0 
L 2419 1100 
L 313 1100 
L 313 1709 
L 2253 4666 
z
" transform="scale(0.015625)"/>
       </defs>
       <use xlink:href="#DejaVuSans-30"/>
       <use xlink:href="#DejaVuSans-2e" x="63.623047"/>
       <use xlink:href="#DejaVuSans-34" x="95.410156"/>
      </g>
     </g>
    </g>
    <g id="ytick_4">
     <g id="line2d_7">
      <g>
       <use xlink:href="#m72bdbc1086" x="51.716875" y="111.483687" style="stroke: #000000; stroke-width: 0.8"/>
      </g>
     </g>
     <g id="text_8">
      <!-- 0.6 -->
      <g transform="translate(28.81375 115.282906)scale(0.1 -0.1)">
       <defs>
        <path id="DejaVuSans-36" d="M 2113 2584 
Q 1688 2584 1439 2293 
Q 1191 2003 1191 1497 
Q 1191 994 1439 701 
Q 1688 409 2113 409 
Q 2538 409 2786 701 
Q 3034 994 3034 1497 
Q 3034 2003 2786 2293 
Q 2538 2584 2113 2584 
z
M 3366 4563 
L 3366 3988 
Q 3128 4100 2886 4159 
Q 2644 4219 2406 4219 
Q 1781 4219 1451 3797 
Q 1122 3375 1075 2522 
Q 1259 2794 1537 2939 
Q 1816 3084 2150 3084 
Q 2853 3084 3261 2657 
Q 3669 2231 3669 1497 
Q 3669 778 3244 343 
Q 2819 -91 2113 -91 
Q 1303 -91 875 529 
Q 447 1150 447 2328 
Q 447 3434 972 4092 
Q 1497 4750 2381 4750 
Q 2619 4750 2861 4703 
Q 3103 4656 3366 4563 
z
" transform="scale(0.015625)"/>
       </defs>
       <use xlink:href="#DejaVuSans-30"/>
       <use xlink:href="#DejaVuSans-2e" x="63.623047"/>
       <use xlink:href="#DejaVuSans-36" x="95.410156"/>
      </g>
     </g>
    </g>
    <g id="ytick_5">
     <g id="line2d_8">
      <g>
       <use xlink:href="#m72bdbc1086" x="51.716875" y="80.288875" style="stroke: #000000; stroke-width: 0.8"/>
      </g>
     </g>
     <g id="text_9">
      <!-- 0.8 -->
      <g transform="translate(28.81375 84.088094)scale(0.1 -0.1)">
       <defs>
        <path id="DejaVuSans-38" d="M 2034 2216 
Q 1584 2216 1326 1975 
Q 1069 1734 1069 1313 
Q 1069 891 1326 650 
Q 1584 409 2034 409 
Q 2484 409 2743 651 
Q 3003 894 3003 1313 
Q 3003 1734 2745 1975 
Q 2488 2216 2034 2216 
z
M 1403 2484 
Q 997 2584 770 2862 
Q 544 3141 544 3541 
Q 544 4100 942 4425 
Q 1341 4750 2034 4750 
Q 2731 4750 3128 4425 
Q 3525 4100 3525 3541 
Q 3525 3141 3298 2862 
Q 3072 2584 2669 2484 
Q 3125 2378 3379 2068 
Q 3634 1759 3634 1313 
Q 3634 634 3220 271 
Q 2806 -91 2034 -91 
Q 1263 -91 848 271 
Q 434 634 434 1313 
Q 434 1759 690 2068 
Q 947 2378 1403 2484 
z
M 1172 3481 
Q 1172 3119 1398 2916 
Q 1625 2713 2034 2713 
Q 2441 2713 2670 2916 
Q 2900 3119 2900 3481 
Q 2900 3844 2670 4047 
Q 2441 4250 2034 4250 
Q 1625 4250 1398 4047 
Q 1172 3844 1172 3481 
z
" transform="scale(0.015625)"/>
       </defs>
       <use xlink:href="#DejaVuSans-30"/>
       <use xlink:href="#DejaVuSans-2e" x="63.623047"/>
       <use xlink:href="#DejaVuSans-38" x="95.410156"/>
      </g>
     </g>
    </g>
    <g id="ytick_6">
     <g id="line2d_9">
      <g>
       <use xlink:href="#m72bdbc1086" x="51.716875" y="49.094062" style="stroke: #000000; stroke-width: 0.8"/>
      </g>
     </g>
     <g id="text_10">
      <!-- 1.0 -->
      <g transform="translate(28.81375 52.893281)scale(0.1 -0.1)">
       <use xlink:href="#DejaVuSans-31"/>
       <use xlink:href="#DejaVuSans-2e" x="63.623047"/>
       <use xlink:href="#DejaVuSans-30" x="95.410156"/>
      </g>
     </g>
    </g>
    <g id="text_11">
     <!-- Normalized exp output -->
     <g transform="translate(16.318125 195.658281)rotate(-90)scale(0.12 -0.12)">
      <defs>
       <path id="DejaVuSans-4e" d="M 628 4666 
L 1478 4666 
L 3547 763 
L 3547 4666 
L 4159 4666 
L 4159 0 
L 3309 0 
L 1241 3903 
L 1241 0 
L 628 0 
L 628 4666 
z
" transform="scale(0.015625)"/>
       <path id="DejaVuSans-6f" d="M 1959 3097 
Q 1497 3097 1228 2736 
Q 959 2375 959 1747 
Q 959 1119 1226 758 
Q 1494 397 1959 397 
Q 2419 397 2687 759 
Q 2956 1122 2956 1747 
Q 2956 2369 2687 2733 
Q 2419 3097 1959 3097 
z
M 1959 3584 
Q 2709 3584 3137 3096 
Q 3566 2609 3566 1747 
Q 3566 888 3137 398 
Q 2709 -91 1959 -91 
Q 1206 -91 779 398 
Q 353 888 353 1747 
Q 353 2609 779 3096 
Q 1206 3584 1959 3584 
z
" transform="scale(0.015625)"/>
       <path id="DejaVuSans-72" d="M 2631 2963 
Q 2534 3019 2420 3045 
Q 2306 3072 2169 3072 
Q 1681 3072 1420 2755 
Q 1159 2438 1159 1844 
L 1159 0 
L 581 0 
L 581 3500 
L 1159 3500 
L 1159 2956 
Q 1341 3275 1631 3429 
Q 1922 3584 2338 3584 
Q 2397 3584 2469 3576 
Q 2541 3569 2628 3553 
L 2631 2963 
z
" transform="scale(0.015625)"/>
       <path id="DejaVuSans-61" d="M 2194 1759 
Q 1497 1759 1228 1600 
Q 959 1441 959 1056 
Q 959 750 1161 570 
Q 1363 391 1709 391 
Q 2188 391 2477 730 
Q 2766 1069 2766 1631 
L 2766 1759 
L 2194 1759 
z
M 3341 1997 
L 3341 0 
L 2766 0 
L 2766 531 
Q 2569 213 2275 61 
Q 1981 -91 1556 -91 
Q 1019 -91 701 211 
Q 384 513 384 1019 
Q 384 1609 779 1909 
Q 1175 2209 1959 2209 
L 2766 2209 
L 2766 2266 
Q 2766 2663 2505 2880 
Q 2244 3097 1772 3097 
Q 1472 3097 1187 3025 
Q 903 2953 641 2809 
L 641 3341 
Q 956 3463 1253 3523 
Q 1550 3584 1831 3584 
Q 2591 3584 2966 3190 
Q 3341 2797 3341 1997 
z
" transform="scale(0.015625)"/>
       <path id="DejaVuSans-6c" d="M 603 4863 
L 1178 4863 
L 1178 0 
L 603 0 
L 603 4863 
z
" transform="scale(0.015625)"/>
       <path id="DejaVuSans-7a" d="M 353 3500 
L 3084 3500 
L 3084 2975 
L 922 459 
L 3084 459 
L 3084 0 
L 275 0 
L 275 525 
L 2438 3041 
L 353 3041 
L 353 3500 
z
" transform="scale(0.015625)"/>
       <path id="DejaVuSans-64" d="M 2906 2969 
L 2906 4863 
L 3481 4863 
L 3481 0 
L 2906 0 
L 2906 525 
Q 2725 213 2448 61 
Q 2172 -91 1784 -91 
Q 1150 -91 751 415 
Q 353 922 353 1747 
Q 353 2572 751 3078 
Q 1150 3584 1784 3584 
Q 2172 3584 2448 3432 
Q 2725 3281 2906 2969 
z
M 947 1747 
Q 947 1113 1208 752 
Q 1469 391 1925 391 
Q 2381 391 2643 752 
Q 2906 1113 2906 1747 
Q 2906 2381 2643 2742 
Q 2381 3103 1925 3103 
Q 1469 3103 1208 2742 
Q 947 2381 947 1747 
z
" transform="scale(0.015625)"/>
       <path id="DejaVuSans-78" d="M 3513 3500 
L 2247 1797 
L 3578 0 
L 2900 0 
L 1881 1375 
L 863 0 
L 184 0 
L 1544 1831 
L 300 3500 
L 978 3500 
L 1906 2253 
L 2834 3500 
L 3513 3500 
z
" transform="scale(0.015625)"/>
       <path id="DejaVuSans-70" d="M 1159 525 
L 1159 -1331 
L 581 -1331 
L 581 3500 
L 1159 3500 
L 1159 2969 
Q 1341 3281 1617 3432 
Q 1894 3584 2278 3584 
Q 2916 3584 3314 3078 
Q 3713 2572 3713 1747 
Q 3713 922 3314 415 
Q 2916 -91 2278 -91 
Q 1894 -91 1617 61 
Q 1341 213 1159 525 
z
M 3116 1747 
Q 3116 2381 2855 2742 
Q 2594 3103 2138 3103 
Q 1681 3103 1420 2742 
Q 1159 2381 1159 1747 
Q 1159 1113 1420 752 
Q 1681 391 2138 391 
Q 2594 391 2855 752 
Q 3116 1113 3116 1747 
z
" transform="scale(0.015625)"/>
       <path id="DejaVuSans-75" d="M 544 1381 
L 544 3500 
L 1119 3500 
L 1119 1403 
Q 1119 906 1312 657 
Q 1506 409 1894 409 
Q 2359 409 2629 706 
Q 2900 1003 2900 1516 
L 2900 3500 
L 3475 3500 
L 3475 0 
L 2900 0 
L 2900 538 
Q 2691 219 2414 64 
Q 2138 -91 1772 -91 
Q 1169 -91 856 284 
Q 544 659 544 1381 
z
M 1991 3584 
L 1991 3584 
z
" transform="scale(0.015625)"/>
       <path id="DejaVuSans-74" d="M 1172 4494 
L 1172 3500 
L 2356 3500 
L 2356 3053 
L 1172 3053 
L 1172 1153 
Q 1172 725 1289 603 
Q 1406 481 1766 481 
L 2356 481 
L 2356 0 
L 1766 0 
Q 1100 0 847 248 
Q 594 497 594 1153 
L 594 3053 
L 172 3053 
L 172 3500 
L 594 3500 
L 594 4494 
L 1172 4494 
z
" transform="scale(0.015625)"/>
      </defs>
      <use xlink:href="#DejaVuSans-4e"/>
      <use xlink:href="#DejaVuSans-6f" x="74.804688"/>
      <use xlink:href="#DejaVuSans-72" x="135.986328"/>
      <use xlink:href="#DejaVuSans-6d" x="175.349609"/>
      <use xlink:href="#DejaVuSans-61" x="272.761719"/>
      <use xlink:href="#DejaVuSans-6c" x="334.041016"/>
      <use xlink:href="#DejaVuSans-69" x="361.824219"/>
      <use xlink:href="#DejaVuSans-7a" x="389.607422"/>
      <use xlink:href="#DejaVuSans-65" x="442.097656"/>
      <use xlink:href="#DejaVuSans-64" x="503.621094"/>
      <use xlink:href="#DejaVuSans-20" x="567.097656"/>
      <use xlink:href="#DejaVuSans-65" x="598.884766"/>
      <use xlink:href="#DejaVuSans-78" x="658.658203"/>
      <use xlink:href="#DejaVuSans-70" x="717.837891"/>
      <use xlink:href="#DejaVuSans-20" x="781.314453"/>
      <use xlink:href="#DejaVuSans-6f" x="813.101562"/>
      <use xlink:href="#DejaVuSans-75" x="874.283203"/>
      <use xlink:href="#DejaVuSans-74" x="937.662109"/>
      <use xlink:href="#DejaVuSans-70" x="976.871094"/>
      <use xlink:href="#DejaVuSans-75" x="1040.347656"/>
      <use xlink:href="#DejaVuSans-74" x="1103.726562"/>
     </g>
    </g>
   </g>
   <g id="line2d_10">
    <path d="M 58.806605 201.710775 
L 61.169848 201.404943 
L 63.533092 201.024353 
L 65.896335 200.786484 
L 68.259579 200.609781 
L 70.622822 200.30395 
L 72.986065 200.24958 
L 75.349309 200.011711 
L 77.712552 199.902971 
L 80.075795 199.773842 
L 82.439039 199.637917 
L 84.802282 199.658306 
L 87.165526 199.41364 
L 89.528769 199.264123 
L 91.892012 199.060235 
L 94.255256 199.053439 
L 96.618499 198.781589 
L 98.981742 198.666052 
L 101.344986 198.530127 
L 103.708229 198.468961 
L 106.071473 198.265073 
L 108.434716 198.190314 
L 110.797959 198.000019 
L 113.161203 197.979631 
L 115.524446 197.728169 
L 117.887689 197.714577 
L 120.250933 197.510689 
L 122.614176 197.4903 
L 124.97742 197.367968 
L 127.340663 197.252431 
L 129.703906 197.102914 
L 132.06715 196.9466 
L 134.430393 197.034951 
L 136.793636 196.810675 
L 139.15688 196.776693 
L 141.520123 196.640768 
L 143.883366 196.599991 
L 146.24661 196.545621 
L 148.609853 196.545621 
L 150.973097 196.402899 
L 153.33634 196.260178 
L 155.699583 196.334937 
L 158.062827 196.103864 
L 160.42607 196.035902 
L 162.789313 195.906773 
L 165.152557 195.804829 
L 167.5158 195.702885 
L 169.879044 195.62133 
L 172.242287 195.668904 
L 174.60553 195.546571 
L 176.968774 195.335887 
L 179.332017 195.329091 
L 181.69526 195.322295 
L 184.058504 195.233943 
L 186.421747 195.084426 
L 188.784991 195.002871 
L 191.148234 194.928112 
L 193.511477 194.758205 
L 195.874721 194.907723 
L 198.237964 194.629077 
L 200.601207 194.56791 
" clip-path="url(#p7b93cb2846)" style="fill: none; stroke: #90ee90; stroke-width: 2; stroke-linecap: square"/>
   </g>
   <g id="line2d_11">
    <path d="M 58.806605 201.894274 
L 61.169848 201.663201 
L 63.533092 201.289407 
L 65.896335 200.95639 
L 68.259579 200.691336 
L 70.622822 200.392301 
L 72.986065 200.256376 
L 75.349309 200.154432 
L 77.712552 199.930156 
L 80.075795 199.841805 
L 82.439039 199.631121 
L 84.802282 199.624324 
L 87.165526 199.345678 
L 89.528769 199.209753 
L 91.892012 199.14179 
L 94.255256 198.971884 
L 96.618499 198.944699 
L 98.981742 198.801977 
L 101.344986 198.584497 
L 103.708229 198.48935 
L 106.071473 198.509738 
L 108.434716 198.387406 
L 110.797959 198.108759 
L 113.161203 198.244685 
L 115.524446 198.054389 
L 117.887689 197.972834 
L 120.250933 198.006816 
L 122.614176 197.809724 
L 124.97742 197.741762 
L 127.340663 197.483504 
L 129.703906 197.524281 
L 132.06715 197.361171 
L 134.430393 197.442726 
L 136.793636 197.279616 
L 139.15688 197.062136 
L 141.520123 196.899026 
L 143.883366 196.89223 
L 146.24661 196.776693 
L 148.609853 196.586398 
L 150.973097 196.688342 
L 153.33634 196.545621 
L 155.699583 196.321344 
L 158.062827 196.382511 
L 160.42607 196.192215 
L 162.789313 195.981531 
L 165.152557 196.049494 
L 167.5158 195.879588 
L 169.879044 195.770848 
L 172.242287 195.750459 
L 174.60553 195.662107 
L 176.968774 195.40385 
L 179.332017 195.274721 
L 181.69526 195.410646 
L 184.058504 195.070833 
L 186.421747 195.138796 
L 188.784991 195.009667 
L 191.148234 195.193166 
L 193.511477 194.900927 
L 195.874721 194.724224 
L 198.237964 194.785391 
L 200.601207 194.656262 
" clip-path="url(#p7b93cb2846)" style="fill: none; stroke: #3cb371; stroke-width: 2; stroke-linecap: square"/>
   </g>
   <g id="line2d_12">
    <path d="M 58.806605 201.8467 
L 61.169848 201.343777 
L 63.533092 201.173871 
L 65.896335 201.044742 
L 68.259579 200.874835 
L 70.622822 200.725318 
L 72.986065 200.63017 
L 75.349309 200.229191 
L 77.712552 200.297154 
L 80.075795 200.147636 
L 82.439039 200.120451 
L 84.802282 200.004915 
L 87.165526 199.821416 
L 89.528769 199.597139 
L 91.892012 199.685491 
L 94.255256 199.529177 
L 96.618499 199.501992 
L 98.981742 199.277715 
L 101.344986 199.332085 
L 103.708229 199.114605 
L 106.071473 199.236938 
L 108.434716 199.168975 
L 110.797959 198.863144 
L 113.161203 198.747607 
L 115.524446 198.754404 
L 117.887689 198.788385 
L 120.250933 198.774792 
L 122.614176 198.659256 
L 124.97742 198.509738 
L 127.340663 198.237888 
L 129.703906 198.231092 
L 132.06715 198.190314 
L 134.430393 198.081574 
L 136.793636 197.952446 
L 139.15688 197.979631 
L 141.520123 197.877687 
L 143.883366 197.605837 
L 146.24661 197.639818 
L 148.609853 197.565059 
L 150.973097 197.483504 
L 153.33634 197.177672 
L 155.699583 197.313598 
L 158.062827 197.170876 
L 160.42607 196.933007 
L 162.789313 196.9466 
L 165.152557 196.89223 
L 167.5158 196.831063 
L 169.879044 196.78349 
L 172.242287 196.613583 
L 174.60553 196.545621 
L 176.968774 196.443677 
L 179.332017 196.450473 
L 181.69526 196.260178 
L 184.058504 196.457269 
L 186.421747 196.246585 
L 188.784991 196.137845 
L 191.148234 195.995124 
L 193.511477 196.117457 
L 195.874721 195.940754 
L 198.237964 195.913569 
L 200.601207 195.804829 
" clip-path="url(#p7b93cb2846)" style="fill: none; stroke: #006400; stroke-width: 2; stroke-linecap: square"/>
   </g>
   <g id="patch_3">
    <path d="M 51.716875 205.068125 
L 51.716875 49.094062 
" style="fill: none; stroke: #000000; stroke-width: 0.8; stroke-linejoin: miter; stroke-linecap: square"/>
   </g>
   <g id="patch_4">
    <path d="M 51.716875 205.068125 
L 207.690938 205.068125 
" style="fill: none; stroke: #000000; stroke-width: 0.8; stroke-linejoin: miter; stroke-linecap: square"/>
   </g>
   <g id="text_12">
    <!-- vRNA = 0fM -->
    <g transform="translate(96.239844 43.094062)scale(0.1 -0.1)">
     <defs>
      <path id="DejaVuSans-Bold-76" d="M 97 3500 
L 1216 3500 
L 2088 1081 
L 2956 3500 
L 4078 3500 
L 2700 0 
L 1472 0 
L 97 3500 
z
" transform="scale(0.015625)"/>
      <path id="DejaVuSans-Bold-52" d="M 2297 2597 
Q 2675 2597 2839 2737 
Q 3003 2878 3003 3200 
Q 3003 3519 2839 3656 
Q 2675 3794 2297 3794 
L 1791 3794 
L 1791 2597 
L 2297 2597 
z
M 1791 1766 
L 1791 0 
L 588 0 
L 588 4666 
L 2425 4666 
Q 3347 4666 3776 4356 
Q 4206 4047 4206 3378 
Q 4206 2916 3982 2619 
Q 3759 2322 3309 2181 
Q 3556 2125 3751 1926 
Q 3947 1728 4147 1325 
L 4800 0 
L 3519 0 
L 2950 1159 
Q 2778 1509 2601 1637 
Q 2425 1766 2131 1766 
L 1791 1766 
z
" transform="scale(0.015625)"/>
      <path id="DejaVuSans-Bold-4e" d="M 588 4666 
L 1931 4666 
L 3628 1466 
L 3628 4666 
L 4769 4666 
L 4769 0 
L 3425 0 
L 1728 3200 
L 1728 0 
L 588 0 
L 588 4666 
z
" transform="scale(0.015625)"/>
      <path id="DejaVuSans-Bold-41" d="M 3419 850 
L 1538 850 
L 1241 0 
L 31 0 
L 1759 4666 
L 3194 4666 
L 4922 0 
L 3713 0 
L 3419 850 
z
M 1838 1716 
L 3116 1716 
L 2478 3572 
L 1838 1716 
z
" transform="scale(0.015625)"/>
      <path id="DejaVuSans-Bold-20" transform="scale(0.015625)"/>
      <path id="DejaVuSans-Bold-3d" d="M 678 3084 
L 4684 3084 
L 4684 2350 
L 678 2350 
L 678 3084 
z
M 678 1663 
L 4684 1663 
L 4684 922 
L 678 922 
L 678 1663 
z
" transform="scale(0.015625)"/>
      <path id="DejaVuSans-Bold-30" d="M 2944 2338 
Q 2944 3213 2780 3570 
Q 2616 3928 2228 3928 
Q 1841 3928 1675 3570 
Q 1509 3213 1509 2338 
Q 1509 1453 1675 1090 
Q 1841 728 2228 728 
Q 2613 728 2778 1090 
Q 2944 1453 2944 2338 
z
M 4147 2328 
Q 4147 1169 3647 539 
Q 3147 -91 2228 -91 
Q 1306 -91 806 539 
Q 306 1169 306 2328 
Q 306 3491 806 4120 
Q 1306 4750 2228 4750 
Q 3147 4750 3647 4120 
Q 4147 3491 4147 2328 
z
" transform="scale(0.015625)"/>
      <path id="DejaVuSans-Bold-66" d="M 2841 4863 
L 2841 4128 
L 2222 4128 
Q 1984 4128 1890 4042 
Q 1797 3956 1797 3744 
L 1797 3500 
L 2753 3500 
L 2753 2700 
L 1797 2700 
L 1797 0 
L 678 0 
L 678 2700 
L 122 2700 
L 122 3500 
L 678 3500 
L 678 3744 
Q 678 4316 997 4589 
Q 1316 4863 1984 4863 
L 2841 4863 
z
" transform="scale(0.015625)"/>
      <path id="DejaVuSans-Bold-4d" d="M 588 4666 
L 2119 4666 
L 3181 2169 
L 4250 4666 
L 5778 4666 
L 5778 0 
L 4641 0 
L 4641 3413 
L 3566 897 
L 2803 897 
L 1728 3413 
L 1728 0 
L 588 0 
L 588 4666 
z
" transform="scale(0.015625)"/>
     </defs>
     <use xlink:href="#DejaVuSans-Bold-76"/>
     <use xlink:href="#DejaVuSans-Bold-52" x="65.185547"/>
     <use xlink:href="#DejaVuSans-Bold-4e" x="142.1875"/>
     <use xlink:href="#DejaVuSans-Bold-41" x="225.878906"/>
     <use xlink:href="#DejaVuSans-Bold-20" x="303.271484"/>
     <use xlink:href="#DejaVuSans-Bold-3d" x="338.085938"/>
     <use xlink:href="#DejaVuSans-Bold-20" x="421.875"/>
     <use xlink:href="#DejaVuSans-Bold-30" x="456.689453"/>
     <use xlink:href="#DejaVuSans-Bold-66" x="526.269531"/>
     <use xlink:href="#DejaVuSans-Bold-4d" x="569.775391"/>
    </g>
   </g>
   <g id="legend_1">
    <g id="patch_5">
     <path d="M 130.776875 101.128437 
L 200.690938 101.128437 
Q 202.690938 101.128437 202.690938 99.128437 
L 202.690938 56.094062 
Q 202.690938 54.094062 200.690938 54.094062 
L 130.776875 54.094062 
Q 128.776875 54.094062 128.776875 56.094062 
L 128.776875 99.128437 
Q 128.776875 101.128437 130.776875 101.128437 
z
" style="fill: #ffffff; opacity: 0.8; stroke: #cccccc; stroke-linejoin: miter"/>
    </g>
    <g id="line2d_13">
     <path d="M 132.776875 62.1925 
L 142.776875 62.1925 
L 152.776875 62.1925 
" style="fill: none; stroke: #90ee90; stroke-width: 2; stroke-linecap: square"/>
    </g>
    <g id="text_13">
     <!-- T7 1.0 -->
     <g transform="translate(160.776875 65.6925)scale(0.1 -0.1)">
      <defs>
       <path id="DejaVuSans-37" d="M 525 4666 
L 3525 4666 
L 3525 4397 
L 1831 0 
L 1172 0 
L 2766 4134 
L 525 4134 
L 525 4666 
z
" transform="scale(0.015625)"/>
      </defs>
      <use xlink:href="#DejaVuSans-54"/>
      <use xlink:href="#DejaVuSans-37" x="61.083984"/>
      <use xlink:href="#DejaVuSans-20" x="124.707031"/>
      <use xlink:href="#DejaVuSans-31" x="156.494141"/>
      <use xlink:href="#DejaVuSans-2e" x="220.117188"/>
      <use xlink:href="#DejaVuSans-30" x="251.904297"/>
     </g>
    </g>
    <g id="line2d_14">
     <path d="M 132.776875 76.870625 
L 142.776875 76.870625 
L 152.776875 76.870625 
" style="fill: none; stroke: #3cb371; stroke-width: 2; stroke-linecap: square"/>
    </g>
    <g id="text_14">
     <!-- T7 5.0 -->
     <g transform="translate(160.776875 80.370625)scale(0.1 -0.1)">
      <defs>
       <path id="DejaVuSans-35" d="M 691 4666 
L 3169 4666 
L 3169 4134 
L 1269 4134 
L 1269 2991 
Q 1406 3038 1543 3061 
Q 1681 3084 1819 3084 
Q 2600 3084 3056 2656 
Q 3513 2228 3513 1497 
Q 3513 744 3044 326 
Q 2575 -91 1722 -91 
Q 1428 -91 1123 -41 
Q 819 9 494 109 
L 494 744 
Q 775 591 1075 516 
Q 1375 441 1709 441 
Q 2250 441 2565 725 
Q 2881 1009 2881 1497 
Q 2881 1984 2565 2268 
Q 2250 2553 1709 2553 
Q 1456 2553 1204 2497 
Q 953 2441 691 2322 
L 691 4666 
z
" transform="scale(0.015625)"/>
      </defs>
      <use xlink:href="#DejaVuSans-54"/>
      <use xlink:href="#DejaVuSans-37" x="61.083984"/>
      <use xlink:href="#DejaVuSans-20" x="124.707031"/>
      <use xlink:href="#DejaVuSans-35" x="156.494141"/>
      <use xlink:href="#DejaVuSans-2e" x="220.117188"/>
      <use xlink:href="#DejaVuSans-30" x="251.904297"/>
     </g>
    </g>
    <g id="line2d_15">
     <path d="M 132.776875 91.54875 
L 142.776875 91.54875 
L 152.776875 91.54875 
" style="fill: none; stroke: #006400; stroke-width: 2; stroke-linecap: square"/>
    </g>
    <g id="text_15">
     <!-- T7 20.0 -->
     <g transform="translate(160.776875 95.04875)scale(0.1 -0.1)">
      <use xlink:href="#DejaVuSans-54"/>
      <use xlink:href="#DejaVuSans-37" x="61.083984"/>
      <use xlink:href="#DejaVuSans-20" x="124.707031"/>
      <use xlink:href="#DejaVuSans-32" x="156.494141"/>
      <use xlink:href="#DejaVuSans-30" x="220.117188"/>
      <use xlink:href="#DejaVuSans-2e" x="283.740234"/>
      <use xlink:href="#DejaVuSans-30" x="315.527344"/>
     </g>
    </g>
   </g>
  </g>
  <g id="axes_2">
   <g id="patch_6">
    <path d="M 335.65267 205.068125 
L 491.626733 205.068125 
L 491.626733 49.094062 
L 335.65267 49.094062 
z
" style="fill: #ffffff"/>
   </g>
   <g id="PolyCollection_4">
    <defs>
     <path id="mf5fec77fda" d="M 342.742401 -48.786344 
L 342.742401 -48.599478 
L 345.105644 -48.643253 
L 347.468887 -49.008326 
L 349.832131 -49.268181 
L 352.195374 -49.520989 
L 354.558617 -49.890853 
L 356.921861 -50.067461 
L 359.285104 -50.208099 
L 361.648348 -50.225399 
L 364.011591 -50.394808 
L 366.374834 -50.547092 
L 368.738078 -50.583215 
L 371.101321 -51.10025 
L 373.464564 -50.900948 
L 375.827808 -51.107288 
L 378.191051 -51.15489 
L 380.554295 -51.380779 
L 382.917538 -51.505531 
L 385.280781 -51.617075 
L 387.644025 -51.82527 
L 390.007268 -51.965698 
L 392.370511 -52.429348 
L 394.733755 -52.527184 
L 397.096998 -52.521455 
L 399.460241 -52.884116 
L 401.823485 -53.073046 
L 404.186728 -53.467191 
L 406.549972 -53.360033 
L 408.913215 -53.564481 
L 411.276458 -53.734986 
L 413.639702 -54.052981 
L 416.002945 -53.769714 
L 418.366188 -54.222501 
L 420.729432 -54.280167 
L 423.092675 -54.392983 
L 425.455919 -54.54171 
L 427.819162 -54.670694 
L 430.182405 -54.635183 
L 432.545649 -55.058241 
L 434.908892 -55.18475 
L 437.272135 -55.135685 
L 439.635379 -55.084418 
L 441.998622 -55.287962 
L 444.361866 -55.493652 
L 446.725109 -55.699523 
L 449.088352 -55.748381 
L 451.451596 -55.672277 
L 453.814839 -55.82434 
L 456.178082 -55.856515 
L 458.541326 -55.909661 
L 460.904569 -56.049596 
L 463.267813 -55.933131 
L 465.631056 -56.176489 
L 467.994299 -56.196402 
L 470.357543 -56.436571 
L 472.720786 -56.307574 
L 475.084029 -56.450295 
L 477.447273 -56.629997 
L 479.810516 -56.613844 
L 482.173759 -56.736044 
L 484.537003 -56.826897 
L 484.537003 -58.297152 
L 484.537003 -58.297152 
L 482.173759 -58.061785 
L 479.810516 -57.844173 
L 477.447273 -57.760057 
L 475.084029 -57.708686 
L 472.720786 -57.565964 
L 470.357543 -57.722411 
L 467.994299 -57.609174 
L 465.631056 -57.561125 
L 463.267813 -57.709335 
L 460.904569 -57.59287 
L 458.541326 -57.338622 
L 456.178082 -57.174288 
L 453.814839 -57.19287 
L 451.451596 -57.100268 
L 449.088352 -57.051349 
L 446.725109 -56.828357 
L 444.361866 -56.735192 
L 441.998622 -56.628255 
L 439.635379 -56.546356 
L 437.272135 -56.345571 
L 434.908892 -56.391654 
L 432.545649 -56.164758 
L 430.182405 -56.071301 
L 427.819162 -55.859087 
L 425.455919 -55.824961 
L 423.092675 -55.348432 
L 420.729432 -55.47484 
L 418.366188 -55.396582 
L 416.002945 -54.911485 
L 413.639702 -54.628219 
L 411.276458 -54.416105 
L 408.913215 -54.355537 
L 406.549972 -54.016285 
L 404.186728 -53.854757 
L 401.823485 -53.745979 
L 399.460241 -53.595096 
L 397.096998 -53.278132 
L 394.733755 -53.150071 
L 392.370511 -52.799354 
L 390.007268 -52.70571 
L 387.644025 -52.601473 
L 385.280781 -52.578595 
L 382.917538 -52.268772 
L 380.554295 -52.053711 
L 378.191051 -51.89901 
L 375.827808 -51.538837 
L 373.464564 -51.582067 
L 371.101321 -51.382765 
L 368.738078 -51.315321 
L 366.374834 -51.242704 
L 364.011591 -50.946436 
L 361.648348 -50.735254 
L 359.285104 -50.575851 
L 356.921861 -50.49901 
L 354.558617 -50.145509 
L 352.195374 -49.998858 
L 349.832131 -49.653595 
L 347.468887 -49.519267 
L 345.105644 -49.354233 
L 342.742401 -48.786344 
z
" style="stroke: #90ee90; stroke-opacity: 0.2"/>
    </defs>
    <g clip-path="url(#p7c87f846cf)">
     <use xlink:href="#mf5fec77fda" x="0" y="250.56" style="fill: #90ee90; fill-opacity: 0.2; stroke: #90ee90; stroke-opacity: 0.2"/>
    </g>
   </g>
   <g id="PolyCollection_5">
    <defs>
     <path id="m8907f69492" d="M 342.742401 -48.880341 
L 342.742401 -48.641407 
L 345.105644 -49.059909 
L 347.468887 -49.229138 
L 349.832131 -49.447296 
L 352.195374 -49.6835 
L 354.558617 -49.822458 
L 356.921861 -50.082814 
L 359.285104 -50.153429 
L 361.648348 -50.179604 
L 364.011591 -50.418315 
L 366.374834 -50.496514 
L 368.738078 -50.84417 
L 371.101321 -50.764834 
L 373.464564 -51.017231 
L 375.827808 -51.01001 
L 378.191051 -51.148381 
L 380.554295 -51.38137 
L 382.917538 -51.393526 
L 385.280781 -51.523452 
L 387.644025 -51.588286 
L 390.007268 -51.777566 
L 392.370511 -51.854146 
L 394.733755 -51.895227 
L 397.096998 -52.030043 
L 399.460241 -52.115366 
L 401.823485 -52.24958 
L 404.186728 -52.359337 
L 406.549972 -52.590225 
L 408.913215 -52.592033 
L 411.276458 -52.431278 
L 413.639702 -52.540349 
L 416.002945 -52.631228 
L 418.366188 -52.762178 
L 420.729432 -52.787525 
L 423.092675 -52.840333 
L 425.455919 -52.994941 
L 427.819162 -53.251844 
L 430.182405 -53.382328 
L 432.545649 -53.35908 
L 434.908892 -53.466964 
L 437.272135 -53.515821 
L 439.635379 -53.771736 
L 441.998622 -53.655707 
L 444.361866 -54.002501 
L 446.725109 -54.10885 
L 449.088352 -53.864363 
L 451.451596 -54.210348 
L 453.814839 -54.165143 
L 456.178082 -54.02953 
L 458.541326 -54.495791 
L 460.904569 -54.40832 
L 463.267813 -54.598012 
L 465.631056 -54.50704 
L 467.994299 -54.688767 
L 470.357543 -54.580406 
L 472.720786 -54.843693 
L 475.084029 -55.009125 
L 477.447273 -54.979139 
L 479.810516 -55.075083 
L 482.173759 -54.995347 
L 484.537003 -55.078333 
L 484.537003 -55.51941 
L 484.537003 -55.51941 
L 482.173759 -55.493656 
L 479.810516 -55.169255 
L 477.447273 -55.428309 
L 475.084029 -55.303176 
L 472.720786 -55.115203 
L 470.357543 -55.174602 
L 467.994299 -55.161388 
L 465.631056 -55.016895 
L 463.267813 -54.762813 
L 460.904569 -54.97969 
L 458.541326 -54.620368 
L 456.178082 -54.502151 
L 453.814839 -54.312169 
L 451.451596 -54.334926 
L 449.088352 -54.327506 
L 446.725109 -54.314092 
L 444.361866 -54.189367 
L 441.998622 -54.318682 
L 439.635379 -54.066728 
L 437.272135 -53.670202 
L 434.908892 -53.868576 
L 432.545649 -53.636647 
L 430.182405 -53.423105 
L 427.819162 -53.662329 
L 425.455919 -53.321161 
L 423.092675 -53.271882 
L 420.729432 -53.05284 
L 418.366188 -53.091779 
L 416.002945 -52.937286 
L 413.639702 -52.905833 
L 411.276458 -52.539165 
L 408.913215 -52.881333 
L 406.549972 -52.692846 
L 404.186728 -52.583922 
L 401.823485 -52.516976 
L 399.460241 -52.392933 
L 397.096998 -52.301553 
L 394.733755 -52.218889 
L 392.370511 -52.042489 
L 390.007268 -51.942367 
L 387.644025 -51.859796 
L 385.280781 -51.870261 
L 382.917538 -51.741929 
L 380.554295 -51.658937 
L 378.191051 -51.443373 
L 375.827808 -51.337079 
L 373.464564 -51.098786 
L 371.101321 -51.160887 
L 368.738078 -50.891256 
L 366.374834 -50.885507 
L 364.011591 -50.583115 
L 361.648348 -50.427644 
L 359.285104 -50.358671 
L 356.921861 -50.252584 
L 354.558617 -50.023609 
L 352.195374 -49.768385 
L 349.832131 -49.569628 
L 347.468887 -49.434381 
L 345.105644 -49.223019 
L 342.742401 -48.880341 
z
" style="stroke: #3cb371; stroke-opacity: 0.2"/>
    </defs>
    <g clip-path="url(#p7c87f846cf)">
     <use xlink:href="#m8907f69492" x="0" y="250.56" style="fill: #3cb371; fill-opacity: 0.2; stroke: #3cb371; stroke-opacity: 0.2"/>
    </g>
   </g>
   <g id="PolyCollection_6">
    <defs>
     <path id="m6b067a3dec" d="M 342.742401 -48.585016 
L 342.742401 -48.420216 
L 345.105644 -48.868408 
L 347.468887 -49.011996 
L 349.832131 -49.20186 
L 352.195374 -49.313796 
L 354.558617 -49.695205 
L 356.921861 -49.795335 
L 359.285104 -50.03874 
L 361.648348 -50.242458 
L 364.011591 -50.186777 
L 366.374834 -50.371717 
L 368.738078 -50.535488 
L 371.101321 -50.816641 
L 373.464564 -51.081641 
L 375.827808 -51.207952 
L 378.191051 -51.072904 
L 380.554295 -51.231764 
L 382.917538 -51.235564 
L 385.280781 -51.348318 
L 387.644025 -51.407043 
L 390.007268 -51.613611 
L 392.370511 -51.665367 
L 394.733755 -51.676206 
L 397.096998 -51.907141 
L 399.460241 -51.890573 
L 401.823485 -51.958196 
L 404.186728 -52.040016 
L 406.549972 -52.371995 
L 408.913215 -52.633894 
L 411.276458 -52.619457 
L 413.639702 -52.529267 
L 416.002945 -52.433073 
L 418.366188 -52.828795 
L 420.729432 -52.983576 
L 423.092675 -52.915338 
L 425.455919 -52.972605 
L 427.819162 -53.110539 
L 430.182405 -53.225637 
L 432.545649 -53.354578 
L 434.908892 -53.361939 
L 437.272135 -53.217185 
L 439.635379 -53.274742 
L 441.998622 -53.36862 
L 444.361866 -53.356412 
L 446.725109 -53.764949 
L 449.088352 -53.778345 
L 451.451596 -53.863608 
L 453.814839 -53.967078 
L 456.178082 -54.003619 
L 458.541326 -54.000672 
L 460.904569 -54.143354 
L 463.267813 -54.342879 
L 465.631056 -54.122271 
L 467.994299 -54.600033 
L 470.357543 -54.289181 
L 472.720786 -54.430554 
L 475.084029 -54.460226 
L 477.447273 -54.744757 
L 479.810516 -54.664113 
L 482.173759 -54.818244 
L 484.537003 -54.774813 
L 484.537003 -55.455932 
L 484.537003 -55.455932 
L 482.173759 -55.276576 
L 479.810516 -55.281189 
L 477.447273 -55.322878 
L 475.084029 -55.077302 
L 472.720786 -55.120566 
L 470.357543 -55.193977 
L 467.994299 -54.991865 
L 465.631056 -54.776408 
L 463.267813 -54.705318 
L 460.904569 -55.040768 
L 458.541326 -54.80286 
L 456.178082 -54.555247 
L 453.814839 -54.646159 
L 451.451596 -54.491371 
L 449.088352 -54.481486 
L 446.725109 -54.399735 
L 444.361866 -54.264571 
L 441.998622 -54.170808 
L 439.635379 -54.033613 
L 437.272135 -53.832913 
L 434.908892 -53.769714 
L 432.545649 -53.600373 
L 430.182405 -53.593389 
L 427.819162 -53.858004 
L 425.455919 -53.5202 
L 423.092675 -53.292024 
L 420.729432 -53.250972 
L 418.366188 -53.242642 
L 416.002945 -53.013109 
L 413.639702 -52.794582 
L 411.276458 -52.949058 
L 408.913215 -52.798695 
L 406.549972 -52.489709 
L 404.186728 -52.712948 
L 401.823485 -52.359808 
L 399.460241 -52.386653 
L 397.096998 -52.139012 
L 394.733755 -52.206837 
L 392.370511 -51.959418 
L 390.007268 -51.943212 
L 387.644025 -51.82356 
L 385.280781 -51.637619 
L 382.917538 -51.451338 
L 380.554295 -51.563878 
L 378.191051 -51.532443 
L 375.827808 -51.315839 
L 373.464564 -51.306226 
L 371.101321 -51.16345 
L 368.738078 -51.118383 
L 366.374834 -50.724861 
L 364.011591 -50.787468 
L 361.648348 -50.5279 
L 359.285104 -50.31025 
L 356.921861 -50.213843 
L 354.558617 -49.91979 
L 352.195374 -49.730313 
L 349.832131 -49.502436 
L 347.468887 -49.42045 
L 345.105644 -49.061115 
L 342.742401 -48.585016 
z
" style="stroke: #006400; stroke-opacity: 0.2"/>
    </defs>
    <g clip-path="url(#p7c87f846cf)">
     <use xlink:href="#m6b067a3dec" x="0" y="250.56" style="fill: #006400; fill-opacity: 0.2; stroke: #006400; stroke-opacity: 0.2"/>
    </g>
   </g>
   <g id="matplotlib.axis_3">
    <g id="xtick_4">
     <g id="line2d_16">
      <g>
       <use xlink:href="#mfa7d3a0e4e" x="342.742401" y="205.068125" style="stroke: #000000; stroke-width: 0.8"/>
      </g>
     </g>
     <g id="text_16">
      <!-- 0 -->
      <g transform="translate(339.561151 219.666562)scale(0.1 -0.1)">
       <use xlink:href="#DejaVuSans-30"/>
      </g>
     </g>
    </g>
    <g id="xtick_5">
     <g id="line2d_17">
      <g>
       <use xlink:href="#mfa7d3a0e4e" x="401.823485" y="205.068125" style="stroke: #000000; stroke-width: 0.8"/>
      </g>
     </g>
     <g id="text_17">
      <!-- 100 -->
      <g transform="translate(392.279735 219.666562)scale(0.1 -0.1)">
       <use xlink:href="#DejaVuSans-31"/>
       <use xlink:href="#DejaVuSans-30" x="63.623047"/>
       <use xlink:href="#DejaVuSans-30" x="127.246094"/>
      </g>
     </g>
    </g>
    <g id="xtick_6">
     <g id="line2d_18">
      <g>
       <use xlink:href="#mfa7d3a0e4e" x="460.904569" y="205.068125" style="stroke: #000000; stroke-width: 0.8"/>
      </g>
     </g>
     <g id="text_18">
      <!-- 200 -->
      <g transform="translate(451.360819 219.666562)scale(0.1 -0.1)">
       <use xlink:href="#DejaVuSans-32"/>
       <use xlink:href="#DejaVuSans-30" x="63.623047"/>
       <use xlink:href="#DejaVuSans-30" x="127.246094"/>
      </g>
     </g>
    </g>
    <g id="text_19">
     <!-- Time (min) -->
     <g transform="translate(381.056889 240.864375)scale(0.12 -0.12)">
      <use xlink:href="#DejaVuSans-54"/>
      <use xlink:href="#DejaVuSans-69" x="57.958984"/>
      <use xlink:href="#DejaVuSans-6d" x="85.742188"/>
      <use xlink:href="#DejaVuSans-65" x="183.154297"/>
      <use xlink:href="#DejaVuSans-20" x="244.677734"/>
      <use xlink:href="#DejaVuSans-28" x="276.464844"/>
      <use xlink:href="#DejaVuSans-6d" x="315.478516"/>
      <use xlink:href="#DejaVuSans-69" x="412.890625"/>
      <use xlink:href="#DejaVuSans-6e" x="440.673828"/>
      <use xlink:href="#DejaVuSans-29" x="504.052734"/>
     </g>
    </g>
   </g>
   <g id="matplotlib.axis_4">
    <g id="ytick_7">
     <g id="line2d_19">
      <g>
       <use xlink:href="#m72bdbc1086" x="335.65267" y="205.068125" style="stroke: #000000; stroke-width: 0.8"/>
      </g>
     </g>
     <g id="text_20">
      <!-- 0.0 -->
      <g transform="translate(312.749545 208.867344)scale(0.1 -0.1)">
       <use xlink:href="#DejaVuSans-30"/>
       <use xlink:href="#DejaVuSans-2e" x="63.623047"/>
       <use xlink:href="#DejaVuSans-30" x="95.410156"/>
      </g>
     </g>
    </g>
    <g id="ytick_8">
     <g id="line2d_20">
      <g>
       <use xlink:href="#m72bdbc1086" x="335.65267" y="173.873312" style="stroke: #000000; stroke-width: 0.8"/>
      </g>
     </g>
     <g id="text_21">
      <!-- 0.2 -->
      <g transform="translate(312.749545 177.672531)scale(0.1 -0.1)">
       <use xlink:href="#DejaVuSans-30"/>
       <use xlink:href="#DejaVuSans-2e" x="63.623047"/>
       <use xlink:href="#DejaVuSans-32" x="95.410156"/>
      </g>
     </g>
    </g>
    <g id="ytick_9">
     <g id="line2d_21">
      <g>
       <use xlink:href="#m72bdbc1086" x="335.65267" y="142.6785" style="stroke: #000000; stroke-width: 0.8"/>
      </g>
     </g>
     <g id="text_22">
      <!-- 0.4 -->
      <g transform="translate(312.749545 146.477719)scale(0.1 -0.1)">
       <use xlink:href="#DejaVuSans-30"/>
       <use xlink:href="#DejaVuSans-2e" x="63.623047"/>
       <use xlink:href="#DejaVuSans-34" x="95.410156"/>
      </g>
     </g>
    </g>
    <g id="ytick_10">
     <g id="line2d_22">
      <g>
       <use xlink:href="#m72bdbc1086" x="335.65267" y="111.483687" style="stroke: #000000; stroke-width: 0.8"/>
      </g>
     </g>
     <g id="text_23">
      <!-- 0.6 -->
      <g transform="translate(312.749545 115.282906)scale(0.1 -0.1)">
       <use xlink:href="#DejaVuSans-30"/>
       <use xlink:href="#DejaVuSans-2e" x="63.623047"/>
       <use xlink:href="#DejaVuSans-36" x="95.410156"/>
      </g>
     </g>
    </g>
    <g id="ytick_11">
     <g id="line2d_23">
      <g>
       <use xlink:href="#m72bdbc1086" x="335.65267" y="80.288875" style="stroke: #000000; stroke-width: 0.8"/>
      </g>
     </g>
     <g id="text_24">
      <!-- 0.8 -->
      <g transform="translate(312.749545 84.088094)scale(0.1 -0.1)">
       <use xlink:href="#DejaVuSans-30"/>
       <use xlink:href="#DejaVuSans-2e" x="63.623047"/>
       <use xlink:href="#DejaVuSans-38" x="95.410156"/>
      </g>
     </g>
    </g>
    <g id="ytick_12">
     <g id="line2d_24">
      <g>
       <use xlink:href="#m72bdbc1086" x="335.65267" y="49.094062" style="stroke: #000000; stroke-width: 0.8"/>
      </g>
     </g>
     <g id="text_25">
      <!-- 1.0 -->
      <g transform="translate(312.749545 52.893281)scale(0.1 -0.1)">
       <use xlink:href="#DejaVuSans-31"/>
       <use xlink:href="#DejaVuSans-2e" x="63.623047"/>
       <use xlink:href="#DejaVuSans-30" x="95.410156"/>
      </g>
     </g>
    </g>
    <g id="text_26">
     <!-- Normalized exp output -->
     <g transform="translate(300.25392 195.658281)rotate(-90)scale(0.12 -0.12)">
      <use xlink:href="#DejaVuSans-4e"/>
      <use xlink:href="#DejaVuSans-6f" x="74.804688"/>
      <use xlink:href="#DejaVuSans-72" x="135.986328"/>
      <use xlink:href="#DejaVuSans-6d" x="175.349609"/>
      <use xlink:href="#DejaVuSans-61" x="272.761719"/>
      <use xlink:href="#DejaVuSans-6c" x="334.041016"/>
      <use xlink:href="#DejaVuSans-69" x="361.824219"/>
      <use xlink:href="#DejaVuSans-7a" x="389.607422"/>
      <use xlink:href="#DejaVuSans-65" x="442.097656"/>
      <use xlink:href="#DejaVuSans-64" x="503.621094"/>
      <use xlink:href="#DejaVuSans-20" x="567.097656"/>
      <use xlink:href="#DejaVuSans-65" x="598.884766"/>
      <use xlink:href="#DejaVuSans-78" x="658.658203"/>
      <use xlink:href="#DejaVuSans-70" x="717.837891"/>
      <use xlink:href="#DejaVuSans-20" x="781.314453"/>
      <use xlink:href="#DejaVuSans-6f" x="813.101562"/>
      <use xlink:href="#DejaVuSans-75" x="874.283203"/>
      <use xlink:href="#DejaVuSans-74" x="937.662109"/>
      <use xlink:href="#DejaVuSans-70" x="976.871094"/>
      <use xlink:href="#DejaVuSans-75" x="1040.347656"/>
      <use xlink:href="#DejaVuSans-74" x="1103.726562"/>
     </g>
    </g>
   </g>
   <g id="line2d_25">
    <path d="M 342.742401 201.867089 
L 345.105644 201.561257 
L 347.468887 201.296203 
L 349.832131 201.099112 
L 352.195374 200.800077 
L 354.558617 200.541819 
L 356.921861 200.276765 
L 359.285104 200.168025 
L 361.648348 200.079674 
L 364.011591 199.889378 
L 366.374834 199.665102 
L 368.738078 199.610732 
L 371.101321 199.318493 
L 373.464564 199.318493 
L 375.827808 199.236938 
L 378.191051 199.03305 
L 380.554295 198.842755 
L 382.917538 198.672849 
L 385.280781 198.462165 
L 387.644025 198.346628 
L 390.007268 198.224296 
L 392.370511 197.945649 
L 394.733755 197.721373 
L 397.096998 197.660207 
L 399.460241 197.320394 
L 401.823485 197.150487 
L 404.186728 196.899026 
L 406.549972 196.871841 
L 408.913215 196.599991 
L 411.276458 196.484454 
L 413.639702 196.2194 
L 416.002945 196.2194 
L 418.366188 195.750459 
L 420.729432 195.682496 
L 423.092675 195.689292 
L 425.455919 195.376665 
L 427.819162 195.29511 
L 430.182405 195.206758 
L 432.545649 194.948501 
L 434.908892 194.771798 
L 437.272135 194.819372 
L 439.635379 194.744613 
L 441.998622 194.601892 
L 444.361866 194.445578 
L 446.725109 194.29606 
L 449.088352 194.160135 
L 451.451596 194.173728 
L 453.814839 194.051395 
L 456.178082 194.044599 
L 458.541326 193.935859 
L 460.904569 193.738767 
L 463.267813 193.738767 
L 465.631056 193.691193 
L 467.994299 193.657212 
L 470.357543 193.480509 
L 472.720786 193.623231 
L 475.084029 193.480509 
L 477.447273 193.364973 
L 479.810516 193.330992 
L 482.173759 193.161085 
L 484.537003 192.997975 
" clip-path="url(#p7c87f846cf)" style="fill: none; stroke: #90ee90; stroke-width: 2; stroke-linecap: square"/>
   </g>
   <g id="line2d_26">
    <path d="M 342.742401 201.799126 
L 345.105644 201.418536 
L 347.468887 201.228241 
L 349.832131 201.051538 
L 352.195374 200.834058 
L 354.558617 200.636966 
L 356.921861 200.392301 
L 359.285104 200.30395 
L 361.648348 200.256376 
L 364.011591 200.059285 
L 366.374834 199.86899 
L 368.738078 199.692287 
L 371.101321 199.597139 
L 373.464564 199.501992 
L 375.827808 199.386455 
L 378.191051 199.264123 
L 380.554295 199.039846 
L 382.917538 198.992273 
L 385.280781 198.863144 
L 387.644025 198.835959 
L 390.007268 198.700034 
L 392.370511 198.611682 
L 394.733755 198.502942 
L 397.096998 198.394202 
L 399.460241 198.305851 
L 401.823485 198.176722 
L 404.186728 198.088371 
L 406.549972 197.918464 
L 408.913215 197.823317 
L 411.276458 198.074778 
L 413.639702 197.836909 
L 416.002945 197.775743 
L 418.366188 197.633022 
L 420.729432 197.639818 
L 423.092675 197.503893 
L 425.455919 197.401949 
L 427.819162 197.102914 
L 430.182405 197.157284 
L 432.545649 197.062136 
L 434.908892 196.89223 
L 437.272135 196.966989 
L 439.635379 196.640768 
L 441.998622 196.572806 
L 444.361866 196.464066 
L 446.725109 196.348529 
L 449.088352 196.464066 
L 451.451596 196.287363 
L 453.814839 196.321344 
L 456.178082 196.294159 
L 458.541326 196.00192 
L 460.904569 195.865995 
L 463.267813 195.879588 
L 465.631056 195.798033 
L 467.994299 195.634922 
L 470.357543 195.682496 
L 472.720786 195.580552 
L 475.084029 195.40385 
L 477.447273 195.356276 
L 479.810516 195.437831 
L 482.173759 195.315498 
L 484.537003 195.261128 
" clip-path="url(#p7c87f846cf)" style="fill: none; stroke: #3cb371; stroke-width: 2; stroke-linecap: square"/>
   </g>
   <g id="line2d_27">
    <path d="M 342.742401 202.057384 
L 345.105644 201.595238 
L 347.468887 201.343777 
L 349.832131 201.207852 
L 352.195374 201.037946 
L 354.558617 200.752503 
L 356.921861 200.555411 
L 359.285104 200.385505 
L 361.648348 200.174821 
L 364.011591 200.072877 
L 366.374834 200.011711 
L 368.738078 199.733064 
L 371.101321 199.569954 
L 373.464564 199.366067 
L 375.827808 199.298104 
L 378.191051 199.257327 
L 380.554295 199.162179 
L 382.917538 199.216549 
L 385.280781 199.067031 
L 387.644025 198.944699 
L 390.007268 198.781589 
L 392.370511 198.747607 
L 394.733755 198.618479 
L 397.096998 198.536924 
L 399.460241 198.421387 
L 401.823485 198.400998 
L 404.186728 198.183518 
L 406.549972 198.129148 
L 408.913215 197.843705 
L 411.276458 197.775743 
L 413.639702 197.898076 
L 416.002945 197.836909 
L 418.366188 197.524281 
L 420.729432 197.442726 
L 423.092675 197.456319 
L 425.455919 197.313598 
L 427.819162 197.075729 
L 430.182405 197.150487 
L 432.545649 197.082525 
L 434.908892 196.994174 
L 437.272135 197.034951 
L 439.635379 196.905822 
L 441.998622 196.790286 
L 444.361866 196.749508 
L 446.725109 196.477658 
L 449.088352 196.430084 
L 451.451596 196.382511 
L 453.814839 196.253382 
L 456.178082 196.280567 
L 458.541326 196.158234 
L 460.904569 195.967939 
L 463.267813 196.035902 
L 465.631056 196.11066 
L 467.994299 195.764051 
L 470.357543 195.818421 
L 472.720786 195.78444 
L 475.084029 195.791236 
L 477.447273 195.526182 
L 479.810516 195.587349 
L 482.173759 195.51259 
L 484.537003 195.444627 
" clip-path="url(#p7c87f846cf)" style="fill: none; stroke: #006400; stroke-width: 2; stroke-linecap: square"/>
   </g>
   <g id="patch_7">
    <path d="M 335.65267 205.068125 
L 335.65267 49.094062 
" style="fill: none; stroke: #000000; stroke-width: 0.8; stroke-linejoin: miter; stroke-linecap: square"/>
   </g>
   <g id="patch_8">
    <path d="M 335.65267 205.068125 
L 491.626733 205.068125 
" style="fill: none; stroke: #000000; stroke-width: 0.8; stroke-linejoin: miter; stroke-linecap: square"/>
   </g>
   <g id="text_27">
    <!-- vRNA = 1fM -->
    <g transform="translate(380.175639 43.094062)scale(0.1 -0.1)">
     <defs>
      <path id="DejaVuSans-Bold-31" d="M 750 831 
L 1813 831 
L 1813 3847 
L 722 3622 
L 722 4441 
L 1806 4666 
L 2950 4666 
L 2950 831 
L 4013 831 
L 4013 0 
L 750 0 
L 750 831 
z
" transform="scale(0.015625)"/>
     </defs>
     <use xlink:href="#DejaVuSans-Bold-76"/>
     <use xlink:href="#DejaVuSans-Bold-52" x="65.185547"/>
     <use xlink:href="#DejaVuSans-Bold-4e" x="142.1875"/>
     <use xlink:href="#DejaVuSans-Bold-41" x="225.878906"/>
     <use xlink:href="#DejaVuSans-Bold-20" x="303.271484"/>
     <use xlink:href="#DejaVuSans-Bold-3d" x="338.085938"/>
     <use xlink:href="#DejaVuSans-Bold-20" x="421.875"/>
     <use xlink:href="#DejaVuSans-Bold-31" x="456.689453"/>
     <use xlink:href="#DejaVuSans-Bold-66" x="526.269531"/>
     <use xlink:href="#DejaVuSans-Bold-4d" x="569.775391"/>
    </g>
   </g>
   <g id="legend_2">
    <g id="patch_9">
     <path d="M 414.71267 101.128437 
L 484.626733 101.128437 
Q 486.626733 101.128437 486.626733 99.128437 
L 486.626733 56.094062 
Q 486.626733 54.094062 484.626733 54.094062 
L 414.71267 54.094062 
Q 412.71267 54.094062 412.71267 56.094062 
L 412.71267 99.128437 
Q 412.71267 101.128437 414.71267 101.128437 
z
" style="fill: #ffffff; opacity: 0.8; stroke: #cccccc; stroke-linejoin: miter"/>
    </g>
    <g id="line2d_28">
     <path d="M 416.71267 62.1925 
L 426.71267 62.1925 
L 436.71267 62.1925 
" style="fill: none; stroke: #90ee90; stroke-width: 2; stroke-linecap: square"/>
    </g>
    <g id="text_28">
     <!-- T7 1.0 -->
     <g transform="translate(444.71267 65.6925)scale(0.1 -0.1)">
      <use xlink:href="#DejaVuSans-54"/>
      <use xlink:href="#DejaVuSans-37" x="61.083984"/>
      <use xlink:href="#DejaVuSans-20" x="124.707031"/>
      <use xlink:href="#DejaVuSans-31" x="156.494141"/>
      <use xlink:href="#DejaVuSans-2e" x="220.117188"/>
      <use xlink:href="#DejaVuSans-30" x="251.904297"/>
     </g>
    </g>
    <g id="line2d_29">
     <path d="M 416.71267 76.870625 
L 426.71267 76.870625 
L 436.71267 76.870625 
" style="fill: none; stroke: #3cb371; stroke-width: 2; stroke-linecap: square"/>
    </g>
    <g id="text_29">
     <!-- T7 5.0 -->
     <g transform="translate(444.71267 80.370625)scale(0.1 -0.1)">
      <use xlink:href="#DejaVuSans-54"/>
      <use xlink:href="#DejaVuSans-37" x="61.083984"/>
      <use xlink:href="#DejaVuSans-20" x="124.707031"/>
      <use xlink:href="#DejaVuSans-35" x="156.494141"/>
      <use xlink:href="#DejaVuSans-2e" x="220.117188"/>
      <use xlink:href="#DejaVuSans-30" x="251.904297"/>
     </g>
    </g>
    <g id="line2d_30">
     <path d="M 416.71267 91.54875 
L 426.71267 91.54875 
L 436.71267 91.54875 
" style="fill: none; stroke: #006400; stroke-width: 2; stroke-linecap: square"/>
    </g>
    <g id="text_30">
     <!-- T7 20.0 -->
     <g transform="translate(444.71267 95.04875)scale(0.1 -0.1)">
      <use xlink:href="#DejaVuSans-54"/>
      <use xlink:href="#DejaVuSans-37" x="61.083984"/>
      <use xlink:href="#DejaVuSans-20" x="124.707031"/>
      <use xlink:href="#DejaVuSans-32" x="156.494141"/>
      <use xlink:href="#DejaVuSans-30" x="220.117188"/>
      <use xlink:href="#DejaVuSans-2e" x="283.740234"/>
      <use xlink:href="#DejaVuSans-30" x="315.527344"/>
     </g>
    </g>
   </g>
  </g>
  <g id="axes_3">
   <g id="patch_10">
    <path d="M 619.588466 205.068125 
L 775.562528 205.068125 
L 775.562528 49.094062 
L 619.588466 49.094062 
z
" style="fill: #ffffff"/>
   </g>
   <g id="PolyCollection_7">
    <defs>
     <path id="m32980f7df8" d="M 626.678196 -48.731756 
L 626.678196 -48.422994 
L 629.041439 -48.724528 
L 631.404683 -48.916657 
L 633.767926 -49.263797 
L 636.13117 -49.387305 
L 638.494413 -49.659685 
L 640.857656 -49.871931 
L 643.2209 -50.104604 
L 645.584143 -50.051936 
L 647.947386 -50.442793 
L 650.31063 -50.670091 
L 652.673873 -50.579076 
L 655.037116 -50.981895 
L 657.40036 -50.98853 
L 659.763603 -51.132541 
L 662.126847 -51.184797 
L 664.49009 -51.420147 
L 666.853333 -51.745989 
L 669.216577 -51.813577 
L 671.57982 -52.257359 
L 673.943063 -52.408098 
L 676.306307 -52.789366 
L 678.66955 -53.079781 
L 681.032794 -53.272739 
L 683.396037 -53.473029 
L 685.75928 -53.648137 
L 688.122524 -53.848614 
L 690.485767 -54.320997 
L 692.84901 -54.591488 
L 695.212254 -54.581681 
L 697.575497 -54.736005 
L 699.938741 -54.599481 
L 702.301984 -55.310152 
L 704.665227 -55.072938 
L 707.028471 -55.480567 
L 709.391714 -55.749162 
L 711.754957 -55.758584 
L 714.118201 -55.926803 
L 716.481444 -55.946377 
L 718.844687 -56.282567 
L 721.207931 -56.114837 
L 723.571174 -56.439949 
L 725.934418 -56.441535 
L 728.297661 -56.598482 
L 730.660904 -56.967778 
L 733.024148 -56.918931 
L 735.387391 -56.887462 
L 737.750634 -56.999672 
L 740.113878 -57.212019 
L 742.477121 -57.174888 
L 744.840365 -57.474011 
L 747.203608 -57.458525 
L 749.566851 -57.709173 
L 751.930095 -57.839167 
L 754.293338 -58.206306 
L 756.656581 -58.021279 
L 759.019825 -57.829228 
L 761.383068 -58.130376 
L 763.746312 -58.252542 
L 766.109555 -58.075963 
L 768.472798 -58.319648 
L 768.472798 -66.074494 
L 768.472798 -66.074494 
L 766.109555 -66.358956 
L 763.746312 -66.41345 
L 761.383068 -66.005509 
L 759.019825 -65.844511 
L 756.656581 -65.693237 
L 754.293338 -65.902393 
L 751.930095 -65.671462 
L 749.566851 -65.66553 
L 747.203608 -65.358885 
L 744.840365 -65.397769 
L 742.477121 -65.493005 
L 740.113878 -65.048099 
L 737.750634 -65.083743 
L 735.387391 -64.80177 
L 733.024148 -64.158638 
L 730.660904 -63.824348 
L 728.297661 -64.166459 
L 725.934418 -63.793299 
L 723.571174 -63.563812 
L 721.207931 -63.236483 
L 718.844687 -62.864866 
L 716.481444 -62.52143 
L 714.118201 -62.241969 
L 711.754957 -61.893672 
L 709.391714 -61.277839 
L 707.028471 -60.785253 
L 704.665227 -60.064704 
L 702.301984 -59.147864 
L 699.938741 -59.042985 
L 697.575497 -58.362761 
L 695.212254 -57.511238 
L 692.84901 -56.930546 
L 690.485767 -56.494226 
L 688.122524 -55.729691 
L 685.75928 -54.747619 
L 683.396037 -54.256694 
L 681.032794 -53.926876 
L 678.66955 -53.385839 
L 676.306307 -53.037406 
L 673.943063 -52.820603 
L 671.57982 -52.441235 
L 669.216577 -52.436464 
L 666.853333 -52.218609 
L 664.49009 -52.014343 
L 662.126847 -51.937066 
L 659.763603 -51.744656 
L 657.40036 -51.508077 
L 655.037116 -51.392379 
L 652.673873 -51.088387 
L 650.31063 -51.106112 
L 647.947386 -50.667378 
L 645.584143 -50.664052 
L 643.2209 -50.393904 
L 640.857656 -50.137246 
L 638.494413 -50.091234 
L 636.13117 -49.779137 
L 633.767926 -49.426907 
L 631.404683 -49.352678 
L 629.041439 -49.137033 
L 626.678196 -48.731756 
z
" style="stroke: #90ee90; stroke-opacity: 0.2"/>
    </defs>
    <g clip-path="url(#pc12187567c)">
     <use xlink:href="#m32980f7df8" x="0" y="250.56" style="fill: #90ee90; fill-opacity: 0.2; stroke: #90ee90; stroke-opacity: 0.2"/>
    </g>
   </g>
   <g id="PolyCollection_8">
    <defs>
     <path id="m3d879bd8d8" d="M 626.678196 -48.401237 
L 626.678196 -48.155442 
L 629.041439 -48.578621 
L 631.404683 -48.612741 
L 633.767926 -48.864064 
L 636.13117 -49.081149 
L 638.494413 -49.224195 
L 640.857656 -49.504683 
L 643.2209 -49.578441 
L 645.584143 -49.919074 
L 647.947386 -49.894161 
L 650.31063 -49.991588 
L 652.673873 -50.216125 
L 655.037116 -50.511154 
L 657.40036 -50.653442 
L 659.763603 -50.792954 
L 662.126847 -50.928358 
L 664.49009 -50.97051 
L 666.853333 -51.201218 
L 669.216577 -51.045267 
L 671.57982 -51.108998 
L 673.943063 -51.280106 
L 676.306307 -51.291676 
L 678.66955 -51.519589 
L 681.032794 -51.657325 
L 683.396037 -51.658306 
L 685.75928 -51.784686 
L 688.122524 -52.14145 
L 690.485767 -51.90763 
L 692.84901 -52.204885 
L 695.212254 -52.273861 
L 697.575497 -52.286626 
L 699.938741 -52.282719 
L 702.301984 -52.586767 
L 704.665227 -52.620723 
L 707.028471 -52.657554 
L 709.391714 -52.862954 
L 711.754957 -52.948736 
L 714.118201 -53.066753 
L 716.481444 -53.181725 
L 718.844687 -53.219217 
L 721.207931 -53.272083 
L 723.571174 -53.359176 
L 725.934418 -53.609441 
L 728.297661 -53.677238 
L 730.660904 -53.903207 
L 733.024148 -53.83088 
L 735.387391 -53.943087 
L 737.750634 -54.171546 
L 740.113878 -54.247874 
L 742.477121 -54.323509 
L 744.840365 -54.394124 
L 747.203608 -54.514619 
L 749.566851 -54.516818 
L 751.930095 -54.781511 
L 754.293338 -54.754747 
L 756.656581 -54.783209 
L 759.019825 -54.891584 
L 761.383068 -54.883876 
L 763.746312 -55.050839 
L 766.109555 -54.989673 
L 768.472798 -55.217317 
L 768.472798 -55.421204 
L 768.472798 -55.421204 
L 766.109555 -55.363405 
L 763.746312 -55.424571 
L 761.383068 -55.210945 
L 759.019825 -54.985756 
L 756.656581 -54.998983 
L 754.293338 -55.081816 
L 751.930095 -54.946311 
L 749.566851 -54.80323 
L 747.203608 -54.723873 
L 744.840365 -54.558925 
L 742.477121 -54.670318 
L 740.113878 -54.378955 
L 737.750634 -54.387321 
L 735.387391 -54.112857 
L 733.024148 -54.197878 
L 730.660904 -54.057589 
L 728.297661 -54.106856 
L 725.934418 -53.67173 
L 723.571174 -53.813255 
L 721.207931 -53.642089 
L 718.844687 -53.423105 
L 716.481444 -53.487783 
L 714.118201 -53.398867 
L 711.754957 -53.149886 
L 709.391714 -53.140521 
L 707.028471 -53.074071 
L 704.665227 -52.947791 
L 702.301984 -52.818637 
L 699.938741 -52.71491 
L 697.575497 -52.656632 
L 695.212254 -52.479103 
L 692.84901 -52.534486 
L 690.485767 -52.423966 
L 688.122524 -52.203738 
L 685.75928 -51.962431 
L 683.396037 -51.925702 
L 681.032794 -51.80435 
L 678.66955 -51.765384 
L 676.306307 -51.680669 
L 673.943063 -51.515536 
L 671.57982 -51.768199 
L 669.216577 -51.424155 
L 666.853333 -51.295389 
L 664.49009 -51.186284 
L 662.126847 -51.106103 
L 659.763603 -50.956064 
L 657.40036 -50.837318 
L 655.037116 -50.558239 
L 652.673873 -50.4319 
L 650.31063 -50.303032 
L 647.947386 -50.142201 
L 645.584143 -49.981363 
L 643.2209 -49.805481 
L 640.857656 -49.838461 
L 638.494413 -49.616027 
L 636.13117 -49.460037 
L 633.767926 -49.011089 
L 631.404683 -49.044932 
L 629.041439 -48.725647 
L 626.678196 -48.401237 
z
" style="stroke: #3cb371; stroke-opacity: 0.2"/>
    </defs>
    <g clip-path="url(#pc12187567c)">
     <use xlink:href="#m3d879bd8d8" x="0" y="250.56" style="fill: #3cb371; fill-opacity: 0.2; stroke: #3cb371; stroke-opacity: 0.2"/>
    </g>
   </g>
   <g id="PolyCollection_9">
    <defs>
     <path id="m2905436f45" d="M 626.678196 -49.416323 
L 626.678196 -48.676311 
L 629.041439 -48.877438 
L 631.404683 -49.169713 
L 633.767926 -49.161853 
L 636.13117 -49.380753 
L 638.494413 -49.351039 
L 640.857656 -49.819967 
L 643.2209 -49.760775 
L 645.584143 -50.085021 
L 647.947386 -49.931631 
L 650.31063 -49.97632 
L 652.673873 -50.12739 
L 655.037116 -50.267952 
L 657.40036 -50.182654 
L 659.763603 -50.292937 
L 662.126847 -50.330548 
L 664.49009 -50.589584 
L 666.853333 -50.439779 
L 669.216577 -50.571364 
L 671.57982 -50.751993 
L 673.943063 -50.756924 
L 676.306307 -50.608896 
L 678.66955 -50.759633 
L 681.032794 -50.727956 
L 683.396037 -50.731788 
L 685.75928 -50.967037 
L 688.122524 -51.084634 
L 690.485767 -51.073527 
L 692.84901 -51.106432 
L 695.212254 -51.083384 
L 697.575497 -51.176917 
L 699.938741 -51.268292 
L 702.301984 -51.494913 
L 704.665227 -51.357479 
L 707.028471 -51.296677 
L 709.391714 -51.435477 
L 711.754957 -51.301089 
L 714.118201 -51.360423 
L 716.481444 -51.492653 
L 718.844687 -51.347991 
L 721.207931 -51.71626 
L 723.571174 -51.665931 
L 725.934418 -51.688327 
L 728.297661 -51.448852 
L 730.660904 -51.743935 
L 733.024148 -51.710589 
L 735.387391 -51.486875 
L 737.750634 -51.670299 
L 740.113878 -51.817819 
L 742.477121 -51.639045 
L 744.840365 -51.86574 
L 747.203608 -51.668495 
L 749.566851 -51.839381 
L 751.930095 -51.820434 
L 754.293338 -51.826218 
L 756.656581 -51.824562 
L 759.019825 -51.909559 
L 761.383068 -51.754614 
L 763.746312 -51.773882 
L 766.109555 -51.611487 
L 768.472798 -51.706262 
L 768.472798 -55.384613 
L 768.472798 -55.384613 
L 766.109555 -55.248316 
L 763.746312 -55.072328 
L 761.383068 -55.159559 
L 759.019825 -54.950244 
L 756.656581 -54.844945 
L 754.293338 -54.992807 
L 751.930095 -54.713149 
L 749.566851 -54.653424 
L 747.203608 -54.457312 
L 744.840365 -54.531917 
L 742.477121 -54.58191 
L 740.113878 -54.348765 
L 737.750634 -54.319583 
L 735.387391 -54.312712 
L 733.024148 -54.021036 
L 730.660904 -53.892541 
L 728.297661 -53.983737 
L 725.934418 -53.662707 
L 723.571174 -53.657918 
L 721.207931 -53.498849 
L 718.844687 -53.540898 
L 716.481444 -53.246719 
L 714.118201 -53.256615 
L 711.754957 -53.139247 
L 709.391714 -52.977673 
L 707.028471 -52.912586 
L 704.665227 -53.055672 
L 702.301984 -52.727942 
L 699.938741 -52.655528 
L 697.575497 -52.543015 
L 695.212254 -52.310329 
L 692.84901 -52.463983 
L 690.485767 -52.102705 
L 688.122524 -52.241116 
L 685.75928 -52.168418 
L 683.396037 -51.792004 
L 681.032794 -51.659911 
L 678.66955 -51.669011 
L 676.306307 -51.765378 
L 673.943063 -51.277537 
L 671.57982 -51.255283 
L 669.216577 -51.204839 
L 666.853333 -51.241277 
L 664.49009 -51.213805 
L 662.126847 -50.861178 
L 659.763603 -50.925974 
L 657.40036 -50.791592 
L 655.037116 -50.597553 
L 652.673873 -50.520635 
L 650.31063 -50.3183 
L 647.947386 -50.186286 
L 645.584143 -50.209599 
L 643.2209 -50.139662 
L 640.857656 -49.944545 
L 638.494413 -50.060068 
L 636.13117 -49.867244 
L 633.767926 -50.018181 
L 631.404683 -49.820026 
L 629.041439 -49.595786 
L 626.678196 -49.416323 
z
" style="stroke: #006400; stroke-opacity: 0.2"/>
    </defs>
    <g clip-path="url(#pc12187567c)">
     <use xlink:href="#m2905436f45" x="0" y="250.56" style="fill: #006400; fill-opacity: 0.2; stroke: #006400; stroke-opacity: 0.2"/>
    </g>
   </g>
   <g id="matplotlib.axis_5">
    <g id="xtick_7">
     <g id="line2d_31">
      <g>
       <use xlink:href="#mfa7d3a0e4e" x="626.678196" y="205.068125" style="stroke: #000000; stroke-width: 0.8"/>
      </g>
     </g>
     <g id="text_31">
      <!-- 0 -->
      <g transform="translate(623.496946 219.666562)scale(0.1 -0.1)">
       <use xlink:href="#DejaVuSans-30"/>
      </g>
     </g>
    </g>
    <g id="xtick_8">
     <g id="line2d_32">
      <g>
       <use xlink:href="#mfa7d3a0e4e" x="685.75928" y="205.068125" style="stroke: #000000; stroke-width: 0.8"/>
      </g>
     </g>
     <g id="text_32">
      <!-- 100 -->
      <g transform="translate(676.21553 219.666562)scale(0.1 -0.1)">
       <use xlink:href="#DejaVuSans-31"/>
       <use xlink:href="#DejaVuSans-30" x="63.623047"/>
       <use xlink:href="#DejaVuSans-30" x="127.246094"/>
      </g>
     </g>
    </g>
    <g id="xtick_9">
     <g id="line2d_33">
      <g>
       <use xlink:href="#mfa7d3a0e4e" x="744.840365" y="205.068125" style="stroke: #000000; stroke-width: 0.8"/>
      </g>
     </g>
     <g id="text_33">
      <!-- 200 -->
      <g transform="translate(735.296615 219.666562)scale(0.1 -0.1)">
       <use xlink:href="#DejaVuSans-32"/>
       <use xlink:href="#DejaVuSans-30" x="63.623047"/>
       <use xlink:href="#DejaVuSans-30" x="127.246094"/>
      </g>
     </g>
    </g>
    <g id="text_34">
     <!-- Time (min) -->
     <g transform="translate(664.992685 240.864375)scale(0.12 -0.12)">
      <use xlink:href="#DejaVuSans-54"/>
      <use xlink:href="#DejaVuSans-69" x="57.958984"/>
      <use xlink:href="#DejaVuSans-6d" x="85.742188"/>
      <use xlink:href="#DejaVuSans-65" x="183.154297"/>
      <use xlink:href="#DejaVuSans-20" x="244.677734"/>
      <use xlink:href="#DejaVuSans-28" x="276.464844"/>
      <use xlink:href="#DejaVuSans-6d" x="315.478516"/>
      <use xlink:href="#DejaVuSans-69" x="412.890625"/>
      <use xlink:href="#DejaVuSans-6e" x="440.673828"/>
      <use xlink:href="#DejaVuSans-29" x="504.052734"/>
     </g>
    </g>
   </g>
   <g id="matplotlib.axis_6">
    <g id="ytick_13">
     <g id="line2d_34">
      <g>
       <use xlink:href="#m72bdbc1086" x="619.588466" y="205.068125" style="stroke: #000000; stroke-width: 0.8"/>
      </g>
     </g>
     <g id="text_35">
      <!-- 0.0 -->
      <g transform="translate(596.685341 208.867344)scale(0.1 -0.1)">
       <use xlink:href="#DejaVuSans-30"/>
       <use xlink:href="#DejaVuSans-2e" x="63.623047"/>
       <use xlink:href="#DejaVuSans-30" x="95.410156"/>
      </g>
     </g>
    </g>
    <g id="ytick_14">
     <g id="line2d_35">
      <g>
       <use xlink:href="#m72bdbc1086" x="619.588466" y="173.873312" style="stroke: #000000; stroke-width: 0.8"/>
      </g>
     </g>
     <g id="text_36">
      <!-- 0.2 -->
      <g transform="translate(596.685341 177.672531)scale(0.1 -0.1)">
       <use xlink:href="#DejaVuSans-30"/>
       <use xlink:href="#DejaVuSans-2e" x="63.623047"/>
       <use xlink:href="#DejaVuSans-32" x="95.410156"/>
      </g>
     </g>
    </g>
    <g id="ytick_15">
     <g id="line2d_36">
      <g>
       <use xlink:href="#m72bdbc1086" x="619.588466" y="142.6785" style="stroke: #000000; stroke-width: 0.8"/>
      </g>
     </g>
     <g id="text_37">
      <!-- 0.4 -->
      <g transform="translate(596.685341 146.477719)scale(0.1 -0.1)">
       <use xlink:href="#DejaVuSans-30"/>
       <use xlink:href="#DejaVuSans-2e" x="63.623047"/>
       <use xlink:href="#DejaVuSans-34" x="95.410156"/>
      </g>
     </g>
    </g>
    <g id="ytick_16">
     <g id="line2d_37">
      <g>
       <use xlink:href="#m72bdbc1086" x="619.588466" y="111.483687" style="stroke: #000000; stroke-width: 0.8"/>
      </g>
     </g>
     <g id="text_38">
      <!-- 0.6 -->
      <g transform="translate(596.685341 115.282906)scale(0.1 -0.1)">
       <use xlink:href="#DejaVuSans-30"/>
       <use xlink:href="#DejaVuSans-2e" x="63.623047"/>
       <use xlink:href="#DejaVuSans-36" x="95.410156"/>
      </g>
     </g>
    </g>
    <g id="ytick_17">
     <g id="line2d_38">
      <g>
       <use xlink:href="#m72bdbc1086" x="619.588466" y="80.288875" style="stroke: #000000; stroke-width: 0.8"/>
      </g>
     </g>
     <g id="text_39">
      <!-- 0.8 -->
      <g transform="translate(596.685341 84.088094)scale(0.1 -0.1)">
       <use xlink:href="#DejaVuSans-30"/>
       <use xlink:href="#DejaVuSans-2e" x="63.623047"/>
       <use xlink:href="#DejaVuSans-38" x="95.410156"/>
      </g>
     </g>
    </g>
    <g id="ytick_18">
     <g id="line2d_39">
      <g>
       <use xlink:href="#m72bdbc1086" x="619.588466" y="49.094062" style="stroke: #000000; stroke-width: 0.8"/>
      </g>
     </g>
     <g id="text_40">
      <!-- 1.0 -->
      <g transform="translate(596.685341 52.893281)scale(0.1 -0.1)">
       <use xlink:href="#DejaVuSans-31"/>
       <use xlink:href="#DejaVuSans-2e" x="63.623047"/>
       <use xlink:href="#DejaVuSans-30" x="95.410156"/>
      </g>
     </g>
    </g>
   </g>
   <g id="line2d_40">
    <path d="M 626.678196 201.982625 
L 629.041439 201.62922 
L 631.404683 201.425332 
L 633.767926 201.214648 
L 636.13117 200.976779 
L 638.494413 200.68454 
L 640.857656 200.555411 
L 643.2209 200.310746 
L 645.584143 200.202006 
L 647.947386 200.004915 
L 650.31063 199.671898 
L 652.673873 199.726268 
L 655.037116 199.372863 
L 657.40036 199.311697 
L 659.763603 199.121401 
L 662.126847 198.999069 
L 664.49009 198.842755 
L 666.853333 198.577701 
L 669.216577 198.43498 
L 671.57982 198.210703 
L 673.943063 197.945649 
L 676.306307 197.646614 
L 678.66955 197.32719 
L 681.032794 196.960192 
L 683.396037 196.695138 
L 685.75928 196.362122 
L 688.122524 195.770848 
L 690.485767 195.152388 
L 692.84901 194.798983 
L 695.212254 194.51354 
L 697.575497 194.010617 
L 699.938741 193.738767 
L 702.301984 193.330992 
L 704.665227 192.991179 
L 707.028471 192.42709 
L 709.391714 192.0465 
L 711.754957 191.733872 
L 714.118201 191.475614 
L 716.481444 191.326096 
L 718.844687 190.986284 
L 721.207931 190.88434 
L 723.571174 190.55812 
L 725.934418 190.442583 
L 728.297661 190.177529 
L 730.660904 190.163937 
L 733.024148 190.021215 
L 735.387391 189.715384 
L 737.750634 189.518293 
L 740.113878 189.429941 
L 742.477121 189.226054 
L 744.840365 189.12411 
L 747.203608 189.151295 
L 749.566851 188.872648 
L 751.930095 188.804686 
L 754.293338 188.50565 
L 756.656581 188.702742 
L 759.019825 188.723131 
L 761.383068 188.492058 
L 763.746312 188.227004 
L 766.109555 188.34254 
L 768.472798 188.362929 
" clip-path="url(#pc12187567c)" style="fill: none; stroke: #90ee90; stroke-width: 2; stroke-linecap: square"/>
   </g>
   <g id="line2d_41">
    <path d="M 626.678196 202.28166 
L 629.041439 201.907866 
L 631.404683 201.731164 
L 633.767926 201.622423 
L 636.13117 201.289407 
L 638.494413 201.139889 
L 640.857656 200.888428 
L 643.2209 200.868039 
L 645.584143 200.609781 
L 647.947386 200.541819 
L 650.31063 200.41269 
L 652.673873 200.235987 
L 655.037116 200.025303 
L 657.40036 199.81462 
L 659.763603 199.685491 
L 662.126847 199.542769 
L 664.49009 199.481603 
L 666.853333 199.311697 
L 669.216577 199.325289 
L 671.57982 199.121401 
L 673.943063 199.162179 
L 676.306307 199.073828 
L 678.66955 198.917514 
L 681.032794 198.829162 
L 683.396037 198.767996 
L 685.75928 198.686441 
L 688.122524 198.387406 
L 690.485767 198.394202 
L 692.84901 198.190314 
L 695.212254 198.183518 
L 697.575497 198.088371 
L 699.938741 198.061186 
L 702.301984 197.857298 
L 704.665227 197.775743 
L 707.028471 197.694188 
L 709.391714 197.558263 
L 711.754957 197.510689 
L 714.118201 197.32719 
L 716.481444 197.225246 
L 718.844687 197.238839 
L 721.207931 197.102914 
L 723.571174 196.973785 
L 725.934418 196.919415 
L 728.297661 196.667953 
L 730.660904 196.579602 
L 733.024148 196.545621 
L 735.387391 196.532028 
L 737.750634 196.280567 
L 740.113878 196.246585 
L 742.477121 196.063087 
L 744.840365 196.083475 
L 747.203608 195.940754 
L 749.566851 195.899976 
L 751.930095 195.696089 
L 754.293338 195.641719 
L 756.656581 195.668904 
L 759.019825 195.62133 
L 761.383068 195.51259 
L 763.746312 195.322295 
L 766.109555 195.383461 
L 768.472798 195.24074 
" clip-path="url(#pc12187567c)" style="fill: none; stroke: #3cb371; stroke-width: 2; stroke-linecap: square"/>
   </g>
   <g id="line2d_42">
    <path d="M 626.678196 201.513683 
L 629.041439 201.323388 
L 631.404683 201.065131 
L 633.767926 200.969983 
L 636.13117 200.936002 
L 638.494413 200.854447 
L 640.857656 200.677744 
L 643.2209 200.609781 
L 645.584143 200.41269 
L 647.947386 200.501041 
L 650.31063 200.41269 
L 652.673873 200.235987 
L 655.037116 200.127247 
L 657.40036 200.072877 
L 659.763603 199.950545 
L 662.126847 199.964137 
L 664.49009 199.658306 
L 666.853333 199.719472 
L 669.216577 199.671898 
L 671.57982 199.556362 
L 673.943063 199.542769 
L 676.306307 199.372863 
L 678.66955 199.345678 
L 681.032794 199.366067 
L 683.396037 199.298104 
L 685.75928 198.992273 
L 688.122524 198.897125 
L 690.485767 198.971884 
L 692.84901 198.774792 
L 695.212254 198.863144 
L 697.575497 198.700034 
L 699.938741 198.59809 
L 702.301984 198.448572 
L 704.665227 198.353425 
L 707.028471 198.455368 
L 709.391714 198.353425 
L 711.754957 198.339832 
L 714.118201 198.251481 
L 716.481444 198.190314 
L 718.844687 198.115556 
L 721.207931 197.952446 
L 723.571174 197.898076 
L 725.934418 197.884483 
L 728.297661 197.843705 
L 730.660904 197.741762 
L 733.024148 197.694188 
L 735.387391 197.660207 
L 737.750634 197.565059 
L 740.113878 197.476708 
L 742.477121 197.449523 
L 744.840365 197.361171 
L 747.203608 197.497096 
L 749.566851 197.313598 
L 751.930095 197.293209 
L 754.293338 197.150487 
L 756.656581 197.225246 
L 759.019825 197.130099 
L 761.383068 197.102914 
L 763.746312 197.136895 
L 766.109555 197.130099 
L 768.472798 197.014562 
" clip-path="url(#pc12187567c)" style="fill: none; stroke: #006400; stroke-width: 2; stroke-linecap: square"/>
   </g>
   <g id="patch_11">
    <path d="M 619.588466 205.068125 
L 619.588466 49.094062 
" style="fill: none; stroke: #000000; stroke-width: 0.8; stroke-linejoin: miter; stroke-linecap: square"/>
   </g>
   <g id="patch_12">
    <path d="M 619.588466 205.068125 
L 775.562528 205.068125 
" style="fill: none; stroke: #000000; stroke-width: 0.8; stroke-linejoin: miter; stroke-linecap: square"/>
   </g>
   <g id="text_41">
    <!-- vRNA = 10fM -->
    <g transform="translate(660.632528 43.094062)scale(0.1 -0.1)">
     <use xlink:href="#DejaVuSans-Bold-76"/>
     <use xlink:href="#DejaVuSans-Bold-52" x="65.185547"/>
     <use xlink:href="#DejaVuSans-Bold-4e" x="142.1875"/>
     <use xlink:href="#DejaVuSans-Bold-41" x="225.878906"/>
     <use xlink:href="#DejaVuSans-Bold-20" x="303.271484"/>
     <use xlink:href="#DejaVuSans-Bold-3d" x="338.085938"/>
     <use xlink:href="#DejaVuSans-Bold-20" x="421.875"/>
     <use xlink:href="#DejaVuSans-Bold-31" x="456.689453"/>
     <use xlink:href="#DejaVuSans-Bold-30" x="526.269531"/>
     <use xlink:href="#DejaVuSans-Bold-66" x="595.849609"/>
     <use xlink:href="#DejaVuSans-Bold-4d" x="639.355469"/>
    </g>
   </g>
   <g id="legend_3">
    <g id="patch_13">
     <path d="M 698.648466 101.128437 
L 768.562528 101.128437 
Q 770.562528 101.128437 770.562528 99.128437 
L 770.562528 56.094062 
Q 770.562528 54.094062 768.562528 54.094062 
L 698.648466 54.094062 
Q 696.648466 54.094062 696.648466 56.094062 
L 696.648466 99.128437 
Q 696.648466 101.128437 698.648466 101.128437 
z
" style="fill: #ffffff; opacity: 0.8; stroke: #cccccc; stroke-linejoin: miter"/>
    </g>
    <g id="line2d_43">
     <path d="M 700.648466 62.1925 
L 710.648466 62.1925 
L 720.648466 62.1925 
" style="fill: none; stroke: #90ee90; stroke-width: 2; stroke-linecap: square"/>
    </g>
    <g id="text_42">
     <!-- T7 1.0 -->
     <g transform="translate(728.648466 65.6925)scale(0.1 -0.1)">
      <use xlink:href="#DejaVuSans-54"/>
      <use xlink:href="#DejaVuSans-37" x="61.083984"/>
      <use xlink:href="#DejaVuSans-20" x="124.707031"/>
      <use xlink:href="#DejaVuSans-31" x="156.494141"/>
      <use xlink:href="#DejaVuSans-2e" x="220.117188"/>
      <use xlink:href="#DejaVuSans-30" x="251.904297"/>
     </g>
    </g>
    <g id="line2d_44">
     <path d="M 700.648466 76.870625 
L 710.648466 76.870625 
L 720.648466 76.870625 
" style="fill: none; stroke: #3cb371; stroke-width: 2; stroke-linecap: square"/>
    </g>
    <g id="text_43">
     <!-- T7 5.0 -->
     <g transform="translate(728.648466 80.370625)scale(0.1 -0.1)">
      <use xlink:href="#DejaVuSans-54"/>
      <use xlink:href="#DejaVuSans-37" x="61.083984"/>
      <use xlink:href="#DejaVuSans-20" x="124.707031"/>
      <use xlink:href="#DejaVuSans-35" x="156.494141"/>
      <use xlink:href="#DejaVuSans-2e" x="220.117188"/>
      <use xlink:href="#DejaVuSans-30" x="251.904297"/>
     </g>
    </g>
    <g id="line2d_45">
     <path d="M 700.648466 91.54875 
L 710.648466 91.54875 
L 720.648466 91.54875 
" style="fill: none; stroke: #006400; stroke-width: 2; stroke-linecap: square"/>
    </g>
    <g id="text_44">
     <!-- T7 20.0 -->
     <g transform="translate(728.648466 95.04875)scale(0.1 -0.1)">
      <use xlink:href="#DejaVuSans-54"/>
      <use xlink:href="#DejaVuSans-37" x="61.083984"/>
      <use xlink:href="#DejaVuSans-20" x="124.707031"/>
      <use xlink:href="#DejaVuSans-32" x="156.494141"/>
      <use xlink:href="#DejaVuSans-30" x="220.117188"/>
      <use xlink:href="#DejaVuSans-2e" x="283.740234"/>
      <use xlink:href="#DejaVuSans-30" x="315.527344"/>
     </g>
    </g>
   </g>
  </g>
  <g id="text_45">
   <!-- T7_Sweep_Cas13=4.5 rep1 -->
   <g transform="translate(305.946889 16.10625)scale(0.12 -0.12)">
    <defs>
     <path id="DejaVuSans-Bold-54" d="M 31 4666 
L 4331 4666 
L 4331 3756 
L 2784 3756 
L 2784 0 
L 1581 0 
L 1581 3756 
L 31 3756 
L 31 4666 
z
" transform="scale(0.015625)"/>
     <path id="DejaVuSans-Bold-37" d="M 428 4666 
L 3944 4666 
L 3944 3988 
L 2125 0 
L 953 0 
L 2675 3781 
L 428 3781 
L 428 4666 
z
" transform="scale(0.015625)"/>
     <path id="DejaVuSans-Bold-5f" d="M 3200 -916 
L 3200 -1509 
L 0 -1509 
L 0 -916 
L 3200 -916 
z
" transform="scale(0.015625)"/>
     <path id="DejaVuSans-Bold-53" d="M 3834 4519 
L 3834 3531 
Q 3450 3703 3084 3790 
Q 2719 3878 2394 3878 
Q 1963 3878 1756 3759 
Q 1550 3641 1550 3391 
Q 1550 3203 1689 3098 
Q 1828 2994 2194 2919 
L 2706 2816 
Q 3484 2659 3812 2340 
Q 4141 2022 4141 1434 
Q 4141 663 3683 286 
Q 3225 -91 2284 -91 
Q 1841 -91 1394 -6 
Q 947 78 500 244 
L 500 1259 
Q 947 1022 1364 901 
Q 1781 781 2169 781 
Q 2563 781 2772 912 
Q 2981 1044 2981 1288 
Q 2981 1506 2839 1625 
Q 2697 1744 2272 1838 
L 1806 1941 
Q 1106 2091 782 2419 
Q 459 2747 459 3303 
Q 459 4000 909 4375 
Q 1359 4750 2203 4750 
Q 2588 4750 2994 4692 
Q 3400 4634 3834 4519 
z
" transform="scale(0.015625)"/>
     <path id="DejaVuSans-Bold-77" d="M 225 3500 
L 1313 3500 
L 1900 1088 
L 2491 3500 
L 3425 3500 
L 4013 1113 
L 4603 3500 
L 5691 3500 
L 4769 0 
L 3547 0 
L 2956 2406 
L 2369 0 
L 1147 0 
L 225 3500 
z
" transform="scale(0.015625)"/>
     <path id="DejaVuSans-Bold-65" d="M 4031 1759 
L 4031 1441 
L 1416 1441 
Q 1456 1047 1700 850 
Q 1944 653 2381 653 
Q 2734 653 3104 758 
Q 3475 863 3866 1075 
L 3866 213 
Q 3469 63 3072 -14 
Q 2675 -91 2278 -91 
Q 1328 -91 801 392 
Q 275 875 275 1747 
Q 275 2603 792 3093 
Q 1309 3584 2216 3584 
Q 3041 3584 3536 3087 
Q 4031 2591 4031 1759 
z
M 2881 2131 
Q 2881 2450 2695 2645 
Q 2509 2841 2209 2841 
Q 1884 2841 1681 2658 
Q 1478 2475 1428 2131 
L 2881 2131 
z
" transform="scale(0.015625)"/>
     <path id="DejaVuSans-Bold-70" d="M 1656 506 
L 1656 -1331 
L 538 -1331 
L 538 3500 
L 1656 3500 
L 1656 2988 
Q 1888 3294 2169 3439 
Q 2450 3584 2816 3584 
Q 3463 3584 3878 3070 
Q 4294 2556 4294 1747 
Q 4294 938 3878 423 
Q 3463 -91 2816 -91 
Q 2450 -91 2169 54 
Q 1888 200 1656 506 
z
M 2400 2772 
Q 2041 2772 1848 2508 
Q 1656 2244 1656 1747 
Q 1656 1250 1848 986 
Q 2041 722 2400 722 
Q 2759 722 2948 984 
Q 3138 1247 3138 1747 
Q 3138 2247 2948 2509 
Q 2759 2772 2400 2772 
z
" transform="scale(0.015625)"/>
     <path id="DejaVuSans-Bold-43" d="M 4288 256 
Q 3956 84 3597 -3 
Q 3238 -91 2847 -91 
Q 1681 -91 1000 561 
Q 319 1213 319 2328 
Q 319 3447 1000 4098 
Q 1681 4750 2847 4750 
Q 3238 4750 3597 4662 
Q 3956 4575 4288 4403 
L 4288 3438 
Q 3953 3666 3628 3772 
Q 3303 3878 2944 3878 
Q 2300 3878 1931 3465 
Q 1563 3053 1563 2328 
Q 1563 1606 1931 1193 
Q 2300 781 2944 781 
Q 3303 781 3628 887 
Q 3953 994 4288 1222 
L 4288 256 
z
" transform="scale(0.015625)"/>
     <path id="DejaVuSans-Bold-61" d="M 2106 1575 
Q 1756 1575 1579 1456 
Q 1403 1338 1403 1106 
Q 1403 894 1545 773 
Q 1688 653 1941 653 
Q 2256 653 2472 879 
Q 2688 1106 2688 1447 
L 2688 1575 
L 2106 1575 
z
M 3816 1997 
L 3816 0 
L 2688 0 
L 2688 519 
Q 2463 200 2181 54 
Q 1900 -91 1497 -91 
Q 953 -91 614 226 
Q 275 544 275 1050 
Q 275 1666 698 1953 
Q 1122 2241 2028 2241 
L 2688 2241 
L 2688 2328 
Q 2688 2594 2478 2717 
Q 2269 2841 1825 2841 
Q 1466 2841 1156 2769 
Q 847 2697 581 2553 
L 581 3406 
Q 941 3494 1303 3539 
Q 1666 3584 2028 3584 
Q 2975 3584 3395 3211 
Q 3816 2838 3816 1997 
z
" transform="scale(0.015625)"/>
     <path id="DejaVuSans-Bold-73" d="M 3272 3391 
L 3272 2541 
Q 2913 2691 2578 2766 
Q 2244 2841 1947 2841 
Q 1628 2841 1473 2761 
Q 1319 2681 1319 2516 
Q 1319 2381 1436 2309 
Q 1553 2238 1856 2203 
L 2053 2175 
Q 2913 2066 3209 1816 
Q 3506 1566 3506 1031 
Q 3506 472 3093 190 
Q 2681 -91 1863 -91 
Q 1516 -91 1145 -36 
Q 775 19 384 128 
L 384 978 
Q 719 816 1070 734 
Q 1422 653 1784 653 
Q 2113 653 2278 743 
Q 2444 834 2444 1013 
Q 2444 1163 2330 1236 
Q 2216 1309 1875 1350 
L 1678 1375 
Q 931 1469 631 1722 
Q 331 1975 331 2491 
Q 331 3047 712 3315 
Q 1094 3584 1881 3584 
Q 2191 3584 2531 3537 
Q 2872 3491 3272 3391 
z
" transform="scale(0.015625)"/>
     <path id="DejaVuSans-Bold-33" d="M 2981 2516 
Q 3453 2394 3698 2092 
Q 3944 1791 3944 1325 
Q 3944 631 3412 270 
Q 2881 -91 1863 -91 
Q 1503 -91 1142 -33 
Q 781 25 428 141 
L 428 1069 
Q 766 900 1098 814 
Q 1431 728 1753 728 
Q 2231 728 2486 893 
Q 2741 1059 2741 1369 
Q 2741 1688 2480 1852 
Q 2219 2016 1709 2016 
L 1228 2016 
L 1228 2791 
L 1734 2791 
Q 2188 2791 2409 2933 
Q 2631 3075 2631 3366 
Q 2631 3634 2415 3781 
Q 2200 3928 1806 3928 
Q 1516 3928 1219 3862 
Q 922 3797 628 3669 
L 628 4550 
Q 984 4650 1334 4700 
Q 1684 4750 2022 4750 
Q 2931 4750 3382 4451 
Q 3834 4153 3834 3553 
Q 3834 3144 3618 2883 
Q 3403 2622 2981 2516 
z
" transform="scale(0.015625)"/>
     <path id="DejaVuSans-Bold-34" d="M 2356 3675 
L 1038 1722 
L 2356 1722 
L 2356 3675 
z
M 2156 4666 
L 3494 4666 
L 3494 1722 
L 4159 1722 
L 4159 850 
L 3494 850 
L 3494 0 
L 2356 0 
L 2356 850 
L 288 850 
L 288 1881 
L 2156 4666 
z
" transform="scale(0.015625)"/>
     <path id="DejaVuSans-Bold-2e" d="M 653 1209 
L 1778 1209 
L 1778 0 
L 653 0 
L 653 1209 
z
" transform="scale(0.015625)"/>
     <path id="DejaVuSans-Bold-35" d="M 678 4666 
L 3669 4666 
L 3669 3781 
L 1638 3781 
L 1638 3059 
Q 1775 3097 1914 3117 
Q 2053 3138 2203 3138 
Q 3056 3138 3531 2711 
Q 4006 2284 4006 1522 
Q 4006 766 3489 337 
Q 2972 -91 2053 -91 
Q 1656 -91 1267 -14 
Q 878 63 494 219 
L 494 1166 
Q 875 947 1217 837 
Q 1559 728 1863 728 
Q 2300 728 2551 942 
Q 2803 1156 2803 1522 
Q 2803 1891 2551 2103 
Q 2300 2316 1863 2316 
Q 1603 2316 1309 2248 
Q 1016 2181 678 2041 
L 678 4666 
z
" transform="scale(0.015625)"/>
     <path id="DejaVuSans-Bold-72" d="M 3138 2547 
Q 2991 2616 2845 2648 
Q 2700 2681 2553 2681 
Q 2122 2681 1889 2404 
Q 1656 2128 1656 1613 
L 1656 0 
L 538 0 
L 538 3500 
L 1656 3500 
L 1656 2925 
Q 1872 3269 2151 3426 
Q 2431 3584 2822 3584 
Q 2878 3584 2943 3579 
Q 3009 3575 3134 3559 
L 3138 2547 
z
" transform="scale(0.015625)"/>
    </defs>
    <use xlink:href="#DejaVuSans-Bold-54"/>
    <use xlink:href="#DejaVuSans-Bold-37" x="68.212891"/>
    <use xlink:href="#DejaVuSans-Bold-5f" x="137.792969"/>
    <use xlink:href="#DejaVuSans-Bold-53" x="187.792969"/>
    <use xlink:href="#DejaVuSans-Bold-77" x="259.814453"/>
    <use xlink:href="#DejaVuSans-Bold-65" x="352.197266"/>
    <use xlink:href="#DejaVuSans-Bold-65" x="420.019531"/>
    <use xlink:href="#DejaVuSans-Bold-70" x="487.841797"/>
    <use xlink:href="#DejaVuSans-Bold-5f" x="559.423828"/>
    <use xlink:href="#DejaVuSans-Bold-43" x="609.423828"/>
    <use xlink:href="#DejaVuSans-Bold-61" x="682.8125"/>
    <use xlink:href="#DejaVuSans-Bold-73" x="750.292969"/>
    <use xlink:href="#DejaVuSans-Bold-31" x="809.814453"/>
    <use xlink:href="#DejaVuSans-Bold-33" x="879.394531"/>
    <use xlink:href="#DejaVuSans-Bold-3d" x="948.974609"/>
    <use xlink:href="#DejaVuSans-Bold-34" x="1032.763672"/>
    <use xlink:href="#DejaVuSans-Bold-2e" x="1102.34375"/>
    <use xlink:href="#DejaVuSans-Bold-35" x="1140.332031"/>
    <use xlink:href="#DejaVuSans-Bold-20" x="1209.912109"/>
    <use xlink:href="#DejaVuSans-Bold-72" x="1244.726562"/>
    <use xlink:href="#DejaVuSans-Bold-65" x="1294.042969"/>
    <use xlink:href="#DejaVuSans-Bold-70" x="1361.865234"/>
    <use xlink:href="#DejaVuSans-Bold-31" x="1433.447266"/>
   </g>
  </g>
 </g>
 <defs>
  <clipPath id="p7b93cb2846">
   <rect x="51.716875" y="49.094062" width="155.974063" height="155.974063"/>
  </clipPath>
  <clipPath id="p7c87f846cf">
   <rect x="335.65267" y="49.094062" width="155.974063" height="155.974063"/>
  </clipPath>
  <clipPath id="pc12187567c">
   <rect x="619.588466" y="49.094062" width="155.974063" height="155.974063"/>
  </clipPath>
 </defs>
</svg>
