<?xml version="1.0" encoding="utf-8" standalone="no"?>
<!DOCTYPE svg PUBLIC "-//W3C//DTD SVG 1.1//EN"
  "http://www.w3.org/Graphics/SVG/1.1/DTD/svg11.dtd">
<svg xmlns:xlink="http://www.w3.org/1999/xlink" width="782.762528pt" height="250.56pt" viewBox="0 0 782.762528 250.56" xmlns="http://www.w3.org/2000/svg" version="1.1">
 <metadata>
  <rdf:RDF xmlns:dc="http://purl.org/dc/elements/1.1/" xmlns:cc="http://creativecommons.org/ns#" xmlns:rdf="http://www.w3.org/1999/02/22-rdf-syntax-ns#">
   <cc:Work>
    <dc:type rdf:resource="http://purl.org/dc/dcmitype/StillImage"/>
    <dc:date>2022-12-02T20:11:09.628546</dc:date>
    <dc:format>image/svg+xml</dc:format>
    <dc:creator>
     <cc:Agent>
      <dc:title>Matplotlib v3.5.1, https://matplotlib.org/</dc:title>
     </cc:Agent>
    </dc:creator>
   </cc:Work>
  </rdf:RDF>
 </metadata>
 <defs>
  <style type="text/css">*{stroke-linejoin: round; stroke-linecap: butt}</style>
 </defs>
 <g id="figure_1">
  <g id="patch_1">
   <path d="M 0 250.56 
L 782.762528 250.56 
L 782.762528 -0 
L 0 -0 
L 0 250.56 
z
" style="fill: none"/>
  </g>
  <g id="axes_1">
   <g id="patch_2">
    <path d="M 51.716875 205.068125 
L 207.690938 205.068125 
L 207.690938 49.094062 
L 51.716875 49.094062 
z
" style="fill: #ffffff"/>
   </g>
   <g id="PolyCollection_1">
    <defs>
     <path id="m7a161a3f7e" d="M 58.806605 -48.590967 
L 58.806605 -48.305525 
L 61.169848 -48.732001 
L 63.533092 -49.109499 
L 65.896335 -49.434221 
L 68.259579 -49.809989 
L 70.622822 -50.118331 
L 72.986065 -50.496751 
L 75.349309 -50.908208 
L 77.712552 -50.954973 
L 80.075795 -51.174917 
L 82.439039 -51.307855 
L 84.802282 -51.879123 
L 87.165526 -52.216527 
L 89.528769 -52.171078 
L 91.892012 -52.468157 
L 94.255256 -52.470183 
L 96.618499 -53.021641 
L 98.981742 -53.069439 
L 101.344986 -53.319646 
L 103.708229 -53.388044 
L 106.071473 -53.664878 
L 108.434716 -54.123876 
L 110.797959 -54.112881 
L 113.161203 -54.299911 
L 115.524446 -54.690867 
L 117.887689 -54.578792 
L 120.250933 -55.040274 
L 122.614176 -54.914845 
L 124.97742 -55.050771 
L 127.340663 -55.400815 
L 129.703906 -55.404761 
L 132.06715 -55.455044 
L 134.430393 -55.772121 
L 136.793636 -55.855922 
L 139.15688 -55.771919 
L 141.520123 -55.763518 
L 143.883366 -55.739885 
L 146.24661 -55.728466 
L 148.609853 -55.794564 
L 150.973097 -56.152759 
L 153.33634 -56.235326 
L 155.699583 -56.363473 
L 158.062827 -56.381765 
L 160.42607 -56.524653 
L 162.789313 -56.666622 
L 165.152557 -56.339823 
L 167.5158 -56.919983 
L 169.879044 -56.993409 
L 172.242287 -56.856148 
L 174.60553 -57.051397 
L 176.968774 -57.406187 
L 179.332017 -56.930591 
L 181.69526 -57.318094 
L 184.058504 -57.406958 
L 186.421747 -57.345446 
L 188.784991 -57.654191 
L 191.148234 -57.660976 
L 193.511477 -57.747847 
L 195.874721 -57.921759 
L 198.237964 -57.993555 
L 200.601207 -57.655051 
L 200.601207 -59.399135 
L 200.601207 -59.399135 
L 198.237964 -59.074224 
L 195.874721 -59.010094 
L 193.511477 -58.898564 
L 191.148234 -58.713584 
L 188.784991 -58.679592 
L 186.421747 -58.471821 
L 184.058504 -58.62779 
L 181.69526 -58.512766 
L 179.332017 -58.275013 
L 176.968774 -58.08486 
L 174.60553 -58.22217 
L 172.242287 -58.091198 
L 169.879044 -58.089862 
L 167.5158 -57.429294 
L 165.152557 -57.982268 
L 162.789313 -57.424397 
L 160.42607 -57.444033 
L 158.062827 -57.247108 
L 155.699583 -57.496473 
L 153.33634 -57.271215 
L 150.973097 -57.177079 
L 148.609853 -56.964389 
L 146.24661 -56.921746 
L 143.883366 -57.046252 
L 141.520123 -56.832325 
L 139.15688 -56.375371 
L 136.793636 -56.427293 
L 134.430393 -56.647019 
L 132.06715 -56.433988 
L 129.703906 -56.185236 
L 127.340663 -56.257144 
L 124.97742 -55.968341 
L 122.614176 -55.832415 
L 120.250933 -55.448729 
L 117.887689 -55.434473 
L 115.524446 -55.268028 
L 113.161203 -54.816248 
L 110.797959 -54.90813 
L 108.434716 -54.489361 
L 106.071473 -54.418251 
L 103.708229 -54.287309 
L 101.344986 -53.839192 
L 98.981742 -53.600069 
L 96.618499 -53.308053 
L 94.255256 -53.302218 
L 91.892012 -52.937247 
L 89.528769 -52.690625 
L 87.165526 -52.359733 
L 84.802282 -52.33014 
L 82.439039 -52.167413 
L 80.075795 -52.014908 
L 77.712552 -52.098927 
L 75.349309 -51.398104 
L 72.986065 -51.04838 
L 70.622822 -50.815137 
L 68.259579 -50.10404 
L 65.896335 -50.058441 
L 63.533092 -49.336539 
L 61.169848 -48.980041 
L 58.806605 -48.590967 
z
" style="stroke: #90ee90; stroke-opacity: 0.2"/>
    </defs>
    <g clip-path="url(#pe77bb9130c)">
     <use xlink:href="#m7a161a3f7e" x="0" y="250.56" style="fill: #90ee90; fill-opacity: 0.2; stroke: #90ee90; stroke-opacity: 0.2"/>
    </g>
   </g>
   <g id="PolyCollection_2">
    <defs>
     <path id="m165349a2c8" d="M 58.806605 -48.537162 
L 58.806605 -48.291367 
L 61.169848 -48.566992 
L 63.533092 -48.911244 
L 65.896335 -49.378488 
L 68.259579 -49.650989 
L 70.622822 -50.094761 
L 72.986065 -50.385667 
L 75.349309 -50.657648 
L 77.712552 -51.1424 
L 80.075795 -51.241108 
L 82.439039 -51.758449 
L 84.802282 -51.921263 
L 87.165526 -52.209441 
L 89.528769 -52.495956 
L 91.892012 -52.910528 
L 94.255256 -53.022552 
L 96.618499 -53.103257 
L 98.981742 -53.316857 
L 101.344986 -53.3449 
L 103.708229 -53.516072 
L 106.071473 -53.58318 
L 108.434716 -53.823407 
L 110.797959 -53.969642 
L 113.161203 -53.934846 
L 115.524446 -54.003096 
L 117.887689 -53.921966 
L 120.250933 -54.220289 
L 122.614176 -54.259586 
L 124.97742 -54.509173 
L 127.340663 -54.384717 
L 129.703906 -54.583736 
L 132.06715 -54.831489 
L 134.430393 -54.789152 
L 136.793636 -54.89624 
L 139.15688 -55.221868 
L 141.520123 -54.924487 
L 143.883366 -55.097923 
L 146.24661 -55.376123 
L 148.609853 -55.543673 
L 150.973097 -55.543343 
L 153.33634 -55.577209 
L 155.699583 -55.782826 
L 158.062827 -56.00895 
L 160.42607 -56.215967 
L 162.789313 -56.085882 
L 165.152557 -56.253632 
L 167.5158 -56.434016 
L 169.879044 -56.412225 
L 172.242287 -56.511339 
L 174.60553 -56.80711 
L 176.968774 -56.819543 
L 179.332017 -56.854649 
L 181.69526 -56.722467 
L 184.058504 -56.940542 
L 186.421747 -56.934258 
L 188.784991 -57.354358 
L 191.148234 -57.326988 
L 193.511477 -57.64358 
L 195.874721 -57.400821 
L 198.237964 -57.585731 
L 200.601207 -57.568621 
L 200.601207 -58.262239 
L 200.601207 -58.262239 
L 198.237964 -58.014057 
L 195.874721 -57.859153 
L 193.511477 -57.765912 
L 191.148234 -57.878616 
L 188.784991 -57.688136 
L 186.421747 -57.415018 
L 184.058504 -57.340772 
L 181.69526 -57.300589 
L 179.332017 -57.100444 
L 176.968774 -57.149143 
L 174.60553 -57.243131 
L 172.242287 -56.981609 
L 169.879044 -56.863243 
L 167.5158 -56.705526 
L 165.152557 -56.55969 
L 162.789313 -56.496367 
L 160.42607 -56.447838 
L 158.062827 -56.274265 
L 155.699583 -56.269316 
L 153.33634 -56.02638 
L 150.973097 -56.019469 
L 148.609853 -55.883214 
L 146.24661 -55.670174 
L 143.883366 -55.676523 
L 141.520123 -55.863551 
L 139.15688 -55.471023 
L 136.793636 -55.456838 
L 134.430393 -54.911485 
L 132.06715 -55.304109 
L 129.703906 -55.008162 
L 127.340663 -54.976108 
L 124.97742 -54.579802 
L 122.614176 -54.856574 
L 120.250933 -54.515281 
L 117.887689 -54.392235 
L 115.524446 -54.12081 
L 113.161203 -54.229838 
L 110.797959 -54.031931 
L 108.434716 -54.028649 
L 106.071473 -53.997026 
L 103.708229 -53.941802 
L 101.344986 -54.058604 
L 98.981742 -53.610908 
L 96.618499 -53.430326 
L 94.255256 -53.13044 
L 91.892012 -53.188095 
L 89.528769 -52.773523 
L 87.165526 -52.448375 
L 84.802282 -52.274407 
L 82.439039 -51.866336 
L 80.075795 -51.472979 
L 77.712552 -51.204689 
L 75.349309 -51.104963 
L 72.986065 -50.479839 
L 70.622822 -50.118304 
L 68.259579 -50.127115 
L 65.896335 -49.543288 
L 63.533092 -49.127019 
L 61.169848 -48.750868 
L 58.806605 -48.537162 
z
" style="stroke: #3cb371; stroke-opacity: 0.2"/>
    </defs>
    <g clip-path="url(#pe77bb9130c)">
     <use xlink:href="#m165349a2c8" x="0" y="250.56" style="fill: #3cb371; fill-opacity: 0.2; stroke: #3cb371; stroke-opacity: 0.2"/>
    </g>
   </g>
   <g id="PolyCollection_3">
    <defs>
     <path id="m7c1a812df1" d="M 58.806605 -49.700938 
L 58.806605 -49.275208 
L 61.169848 -49.887387 
L 63.533092 -50.090695 
L 65.896335 -50.475245 
L 68.259579 -50.792555 
L 70.622822 -51.09758 
L 72.986065 -51.371393 
L 75.349309 -51.820903 
L 77.712552 -52.228981 
L 80.075795 -52.4476 
L 82.439039 -52.926413 
L 84.802282 -53.462677 
L 87.165526 -53.708548 
L 89.528769 -54.101885 
L 91.892012 -54.504198 
L 94.255256 -54.85883 
L 96.618499 -55.224453 
L 98.981742 -55.743688 
L 101.344986 -56.222317 
L 103.708229 -56.383134 
L 106.071473 -57.017554 
L 108.434716 -57.35317 
L 110.797959 -57.772077 
L 113.161203 -58.376143 
L 115.524446 -58.936885 
L 117.887689 -59.477485 
L 120.250933 -59.903146 
L 122.614176 -60.382046 
L 124.97742 -60.717979 
L 127.340663 -61.046816 
L 129.703906 -61.762111 
L 132.06715 -61.605618 
L 134.430393 -62.01957 
L 136.793636 -62.123685 
L 139.15688 -62.195375 
L 141.520123 -62.298222 
L 143.883366 -62.767453 
L 146.24661 -62.40819 
L 148.609853 -63.074218 
L 150.973097 -63.23316 
L 153.33634 -63.42466 
L 155.699583 -63.441596 
L 158.062827 -63.701598 
L 160.42607 -63.732794 
L 162.789313 -63.986316 
L 165.152557 -64.350393 
L 167.5158 -64.468325 
L 169.879044 -64.352578 
L 172.242287 -64.587346 
L 174.60553 -64.754045 
L 176.968774 -64.853968 
L 179.332017 -64.853741 
L 181.69526 -64.924714 
L 184.058504 -65.011417 
L 186.421747 -65.322082 
L 188.784991 -65.342306 
L 191.148234 -65.635127 
L 193.511477 -65.564225 
L 195.874721 -65.767449 
L 198.237964 -65.59905 
L 200.601207 -65.990316 
L 200.601207 -67.619548 
L 200.601207 -67.619548 
L 198.237964 -67.766149 
L 195.874721 -67.203567 
L 193.511477 -67.311643 
L 191.148234 -67.104816 
L 188.784991 -67.24812 
L 186.421747 -66.928531 
L 184.058504 -66.66831 
L 181.69526 -66.537533 
L 179.332017 -66.866764 
L 176.968774 -66.118949 
L 174.60553 -66.504315 
L 172.242287 -66.154498 
L 169.879044 -65.913529 
L 167.5158 -65.457968 
L 165.152557 -65.494346 
L 162.789313 -65.070057 
L 160.42607 -65.337171 
L 158.062827 -64.83826 
L 155.699583 -65.207001 
L 153.33634 -64.557904 
L 150.973097 -64.559109 
L 148.609853 -64.147166 
L 146.24661 -64.106384 
L 143.883366 -63.869453 
L 141.520123 -63.523133 
L 139.15688 -63.258983 
L 136.793636 -62.963675 
L 134.430393 -62.714385 
L 132.06715 -62.380749 
L 129.703906 -61.762111 
L 127.340663 -61.294856 
L 124.97742 -61.01203 
L 122.614176 -60.709115 
L 120.250933 -60.087022 
L 117.887689 -59.819465 
L 115.524446 -59.163924 
L 113.161203 -58.732412 
L 110.797959 -58.357818 
L 108.434716 -57.906804 
L 106.071473 -57.31813 
L 103.708229 -56.960296 
L 101.344986 -56.387118 
L 98.981742 -55.846309 
L 96.618499 -55.767473 
L 94.255256 -55.045696 
L 91.892012 -54.598369 
L 89.528769 -54.266686 
L 87.165526 -53.749325 
L 84.802282 -53.655384 
L 82.439039 -53.172209 
L 80.075795 -52.590806 
L 77.712552 -52.45602 
L 75.349309 -52.007769 
L 72.986065 -51.736877 
L 70.622822 -51.290287 
L 68.259579 -51.024426 
L 65.896335 -50.662111 
L 63.533092 -50.33985 
L 61.169848 -49.972272 
L 58.806605 -49.700938 
z
" style="stroke: #006400; stroke-opacity: 0.2"/>
    </defs>
    <g clip-path="url(#pe77bb9130c)">
     <use xlink:href="#m7c1a812df1" x="0" y="250.56" style="fill: #006400; fill-opacity: 0.2; stroke: #006400; stroke-opacity: 0.2"/>
    </g>
   </g>
   <g id="matplotlib.axis_1">
    <g id="xtick_1">
     <g id="line2d_1">
      <defs>
       <path id="m62211e34fd" d="M 0 0 
L 0 3.5 
" style="stroke: #000000; stroke-width: 0.8"/>
      </defs>
      <g>
       <use xlink:href="#m62211e34fd" x="58.806605" y="205.068125" style="stroke: #000000; stroke-width: 0.8"/>
      </g>
     </g>
     <g id="text_1">
      <!-- 0 -->
      <g transform="translate(55.625355 219.666562)scale(0.1 -0.1)">
       <defs>
        <path id="DejaVuSans-30" d="M 2034 4250 
Q 1547 4250 1301 3770 
Q 1056 3291 1056 2328 
Q 1056 1369 1301 889 
Q 1547 409 2034 409 
Q 2525 409 2770 889 
Q 3016 1369 3016 2328 
Q 3016 3291 2770 3770 
Q 2525 4250 2034 4250 
z
M 2034 4750 
Q 2819 4750 3233 4129 
Q 3647 3509 3647 2328 
Q 3647 1150 3233 529 
Q 2819 -91 2034 -91 
Q 1250 -91 836 529 
Q 422 1150 422 2328 
Q 422 3509 836 4129 
Q 1250 4750 2034 4750 
z
" transform="scale(0.015625)"/>
       </defs>
       <use xlink:href="#DejaVuSans-30"/>
      </g>
     </g>
    </g>
    <g id="xtick_2">
     <g id="line2d_2">
      <g>
       <use xlink:href="#m62211e34fd" x="117.887689" y="205.068125" style="stroke: #000000; stroke-width: 0.8"/>
      </g>
     </g>
     <g id="text_2">
      <!-- 100 -->
      <g transform="translate(108.343939 219.666562)scale(0.1 -0.1)">
       <defs>
        <path id="DejaVuSans-31" d="M 794 531 
L 1825 531 
L 1825 4091 
L 703 3866 
L 703 4441 
L 1819 4666 
L 2450 4666 
L 2450 531 
L 3481 531 
L 3481 0 
L 794 0 
L 794 531 
z
" transform="scale(0.015625)"/>
       </defs>
       <use xlink:href="#DejaVuSans-31"/>
       <use xlink:href="#DejaVuSans-30" x="63.623047"/>
       <use xlink:href="#DejaVuSans-30" x="127.246094"/>
      </g>
     </g>
    </g>
    <g id="xtick_3">
     <g id="line2d_3">
      <g>
       <use xlink:href="#m62211e34fd" x="176.968774" y="205.068125" style="stroke: #000000; stroke-width: 0.8"/>
      </g>
     </g>
     <g id="text_3">
      <!-- 200 -->
      <g transform="translate(167.425024 219.666562)scale(0.1 -0.1)">
       <defs>
        <path id="DejaVuSans-32" d="M 1228 531 
L 3431 531 
L 3431 0 
L 469 0 
L 469 531 
Q 828 903 1448 1529 
Q 2069 2156 2228 2338 
Q 2531 2678 2651 2914 
Q 2772 3150 2772 3378 
Q 2772 3750 2511 3984 
Q 2250 4219 1831 4219 
Q 1534 4219 1204 4116 
Q 875 4013 500 3803 
L 500 4441 
Q 881 4594 1212 4672 
Q 1544 4750 1819 4750 
Q 2544 4750 2975 4387 
Q 3406 4025 3406 3419 
Q 3406 3131 3298 2873 
Q 3191 2616 2906 2266 
Q 2828 2175 2409 1742 
Q 1991 1309 1228 531 
z
" transform="scale(0.015625)"/>
       </defs>
       <use xlink:href="#DejaVuSans-32"/>
       <use xlink:href="#DejaVuSans-30" x="63.623047"/>
       <use xlink:href="#DejaVuSans-30" x="127.246094"/>
      </g>
     </g>
    </g>
    <g id="text_4">
     <!-- Time (min) -->
     <g transform="translate(97.121094 240.864375)scale(0.12 -0.12)">
      <defs>
       <path id="DejaVuSans-54" d="M -19 4666 
L 3928 4666 
L 3928 4134 
L 2272 4134 
L 2272 0 
L 1638 0 
L 1638 4134 
L -19 4134 
L -19 4666 
z
" transform="scale(0.015625)"/>
       <path id="DejaVuSans-69" d="M 603 3500 
L 1178 3500 
L 1178 0 
L 603 0 
L 603 3500 
z
M 603 4863 
L 1178 4863 
L 1178 4134 
L 603 4134 
L 603 4863 
z
" transform="scale(0.015625)"/>
       <path id="DejaVuSans-6d" d="M 3328 2828 
Q 3544 3216 3844 3400 
Q 4144 3584 4550 3584 
Q 5097 3584 5394 3201 
Q 5691 2819 5691 2113 
L 5691 0 
L 5113 0 
L 5113 2094 
Q 5113 2597 4934 2840 
Q 4756 3084 4391 3084 
Q 3944 3084 3684 2787 
Q 3425 2491 3425 1978 
L 3425 0 
L 2847 0 
L 2847 2094 
Q 2847 2600 2669 2842 
Q 2491 3084 2119 3084 
Q 1678 3084 1418 2786 
Q 1159 2488 1159 1978 
L 1159 0 
L 581 0 
L 581 3500 
L 1159 3500 
L 1159 2956 
Q 1356 3278 1631 3431 
Q 1906 3584 2284 3584 
Q 2666 3584 2933 3390 
Q 3200 3197 3328 2828 
z
" transform="scale(0.015625)"/>
       <path id="DejaVuSans-65" d="M 3597 1894 
L 3597 1613 
L 953 1613 
Q 991 1019 1311 708 
Q 1631 397 2203 397 
Q 2534 397 2845 478 
Q 3156 559 3463 722 
L 3463 178 
Q 3153 47 2828 -22 
Q 2503 -91 2169 -91 
Q 1331 -91 842 396 
Q 353 884 353 1716 
Q 353 2575 817 3079 
Q 1281 3584 2069 3584 
Q 2775 3584 3186 3129 
Q 3597 2675 3597 1894 
z
M 3022 2063 
Q 3016 2534 2758 2815 
Q 2500 3097 2075 3097 
Q 1594 3097 1305 2825 
Q 1016 2553 972 2059 
L 3022 2063 
z
" transform="scale(0.015625)"/>
       <path id="DejaVuSans-20" transform="scale(0.015625)"/>
       <path id="DejaVuSans-28" d="M 1984 4856 
Q 1566 4138 1362 3434 
Q 1159 2731 1159 2009 
Q 1159 1288 1364 580 
Q 1569 -128 1984 -844 
L 1484 -844 
Q 1016 -109 783 600 
Q 550 1309 550 2009 
Q 550 2706 781 3412 
Q 1013 4119 1484 4856 
L 1984 4856 
z
" transform="scale(0.015625)"/>
       <path id="DejaVuSans-6e" d="M 3513 2113 
L 3513 0 
L 2938 0 
L 2938 2094 
Q 2938 2591 2744 2837 
Q 2550 3084 2163 3084 
Q 1697 3084 1428 2787 
Q 1159 2491 1159 1978 
L 1159 0 
L 581 0 
L 581 3500 
L 1159 3500 
L 1159 2956 
Q 1366 3272 1645 3428 
Q 1925 3584 2291 3584 
Q 2894 3584 3203 3211 
Q 3513 2838 3513 2113 
z
" transform="scale(0.015625)"/>
       <path id="DejaVuSans-29" d="M 513 4856 
L 1013 4856 
Q 1481 4119 1714 3412 
Q 1947 2706 1947 2009 
Q 1947 1309 1714 600 
Q 1481 -109 1013 -844 
L 513 -844 
Q 928 -128 1133 580 
Q 1338 1288 1338 2009 
Q 1338 2731 1133 3434 
Q 928 4138 513 4856 
z
" transform="scale(0.015625)"/>
      </defs>
      <use xlink:href="#DejaVuSans-54"/>
      <use xlink:href="#DejaVuSans-69" x="57.958984"/>
      <use xlink:href="#DejaVuSans-6d" x="85.742188"/>
      <use xlink:href="#DejaVuSans-65" x="183.154297"/>
      <use xlink:href="#DejaVuSans-20" x="244.677734"/>
      <use xlink:href="#DejaVuSans-28" x="276.464844"/>
      <use xlink:href="#DejaVuSans-6d" x="315.478516"/>
      <use xlink:href="#DejaVuSans-69" x="412.890625"/>
      <use xlink:href="#DejaVuSans-6e" x="440.673828"/>
      <use xlink:href="#DejaVuSans-29" x="504.052734"/>
     </g>
    </g>
   </g>
   <g id="matplotlib.axis_2">
    <g id="ytick_1">
     <g id="line2d_4">
      <defs>
       <path id="mdc17e86f98" d="M 0 0 
L -3.5 0 
" style="stroke: #000000; stroke-width: 0.8"/>
      </defs>
      <g>
       <use xlink:href="#mdc17e86f98" x="51.716875" y="205.068125" style="stroke: #000000; stroke-width: 0.8"/>
      </g>
     </g>
     <g id="text_5">
      <!-- 0.0 -->
      <g transform="translate(28.81375 208.867344)scale(0.1 -0.1)">
       <defs>
        <path id="DejaVuSans-2e" d="M 684 794 
L 1344 794 
L 1344 0 
L 684 0 
L 684 794 
z
" transform="scale(0.015625)"/>
       </defs>
       <use xlink:href="#DejaVuSans-30"/>
       <use xlink:href="#DejaVuSans-2e" x="63.623047"/>
       <use xlink:href="#DejaVuSans-30" x="95.410156"/>
      </g>
     </g>
    </g>
    <g id="ytick_2">
     <g id="line2d_5">
      <g>
       <use xlink:href="#mdc17e86f98" x="51.716875" y="173.873312" style="stroke: #000000; stroke-width: 0.8"/>
      </g>
     </g>
     <g id="text_6">
      <!-- 0.2 -->
      <g transform="translate(28.81375 177.672531)scale(0.1 -0.1)">
       <use xlink:href="#DejaVuSans-30"/>
       <use xlink:href="#DejaVuSans-2e" x="63.623047"/>
       <use xlink:href="#DejaVuSans-32" x="95.410156"/>
      </g>
     </g>
    </g>
    <g id="ytick_3">
     <g id="line2d_6">
      <g>
       <use xlink:href="#mdc17e86f98" x="51.716875" y="142.6785" style="stroke: #000000; stroke-width: 0.8"/>
      </g>
     </g>
     <g id="text_7">
      <!-- 0.4 -->
      <g transform="translate(28.81375 146.477719)scale(0.1 -0.1)">
       <defs>
        <path id="DejaVuSans-34" d="M 2419 4116 
L 825 1625 
L 2419 1625 
L 2419 4116 
z
M 2253 4666 
L 3047 4666 
L 3047 1625 
L 3713 1625 
L 3713 1100 
L 3047 1100 
L 3047 0 
L 2419 0 
L 2419 1100 
L 313 1100 
L 313 1709 
L 2253 4666 
z
" transform="scale(0.015625)"/>
       </defs>
       <use xlink:href="#DejaVuSans-30"/>
       <use xlink:href="#DejaVuSans-2e" x="63.623047"/>
       <use xlink:href="#DejaVuSans-34" x="95.410156"/>
      </g>
     </g>
    </g>
    <g id="ytick_4">
     <g id="line2d_7">
      <g>
       <use xlink:href="#mdc17e86f98" x="51.716875" y="111.483687" style="stroke: #000000; stroke-width: 0.8"/>
      </g>
     </g>
     <g id="text_8">
      <!-- 0.6 -->
      <g transform="translate(28.81375 115.282906)scale(0.1 -0.1)">
       <defs>
        <path id="DejaVuSans-36" d="M 2113 2584 
Q 1688 2584 1439 2293 
Q 1191 2003 1191 1497 
Q 1191 994 1439 701 
Q 1688 409 2113 409 
Q 2538 409 2786 701 
Q 3034 994 3034 1497 
Q 3034 2003 2786 2293 
Q 2538 2584 2113 2584 
z
M 3366 4563 
L 3366 3988 
Q 3128 4100 2886 4159 
Q 2644 4219 2406 4219 
Q 1781 4219 1451 3797 
Q 1122 3375 1075 2522 
Q 1259 2794 1537 2939 
Q 1816 3084 2150 3084 
Q 2853 3084 3261 2657 
Q 3669 2231 3669 1497 
Q 3669 778 3244 343 
Q 2819 -91 2113 -91 
Q 1303 -91 875 529 
Q 447 1150 447 2328 
Q 447 3434 972 4092 
Q 1497 4750 2381 4750 
Q 2619 4750 2861 4703 
Q 3103 4656 3366 4563 
z
" transform="scale(0.015625)"/>
       </defs>
       <use xlink:href="#DejaVuSans-30"/>
       <use xlink:href="#DejaVuSans-2e" x="63.623047"/>
       <use xlink:href="#DejaVuSans-36" x="95.410156"/>
      </g>
     </g>
    </g>
    <g id="ytick_5">
     <g id="line2d_8">
      <g>
       <use xlink:href="#mdc17e86f98" x="51.716875" y="80.288875" style="stroke: #000000; stroke-width: 0.8"/>
      </g>
     </g>
     <g id="text_9">
      <!-- 0.8 -->
      <g transform="translate(28.81375 84.088094)scale(0.1 -0.1)">
       <defs>
        <path id="DejaVuSans-38" d="M 2034 2216 
Q 1584 2216 1326 1975 
Q 1069 1734 1069 1313 
Q 1069 891 1326 650 
Q 1584 409 2034 409 
Q 2484 409 2743 651 
Q 3003 894 3003 1313 
Q 3003 1734 2745 1975 
Q 2488 2216 2034 2216 
z
M 1403 2484 
Q 997 2584 770 2862 
Q 544 3141 544 3541 
Q 544 4100 942 4425 
Q 1341 4750 2034 4750 
Q 2731 4750 3128 4425 
Q 3525 4100 3525 3541 
Q 3525 3141 3298 2862 
Q 3072 2584 2669 2484 
Q 3125 2378 3379 2068 
Q 3634 1759 3634 1313 
Q 3634 634 3220 271 
Q 2806 -91 2034 -91 
Q 1263 -91 848 271 
Q 434 634 434 1313 
Q 434 1759 690 2068 
Q 947 2378 1403 2484 
z
M 1172 3481 
Q 1172 3119 1398 2916 
Q 1625 2713 2034 2713 
Q 2441 2713 2670 2916 
Q 2900 3119 2900 3481 
Q 2900 3844 2670 4047 
Q 2441 4250 2034 4250 
Q 1625 4250 1398 4047 
Q 1172 3844 1172 3481 
z
" transform="scale(0.015625)"/>
       </defs>
       <use xlink:href="#DejaVuSans-30"/>
       <use xlink:href="#DejaVuSans-2e" x="63.623047"/>
       <use xlink:href="#DejaVuSans-38" x="95.410156"/>
      </g>
     </g>
    </g>
    <g id="ytick_6">
     <g id="line2d_9">
      <g>
       <use xlink:href="#mdc17e86f98" x="51.716875" y="49.094062" style="stroke: #000000; stroke-width: 0.8"/>
      </g>
     </g>
     <g id="text_10">
      <!-- 1.0 -->
      <g transform="translate(28.81375 52.893281)scale(0.1 -0.1)">
       <use xlink:href="#DejaVuSans-31"/>
       <use xlink:href="#DejaVuSans-2e" x="63.623047"/>
       <use xlink:href="#DejaVuSans-30" x="95.410156"/>
      </g>
     </g>
    </g>
    <g id="text_11">
     <!-- Normalized exp output -->
     <g transform="translate(16.318125 195.658281)rotate(-90)scale(0.12 -0.12)">
      <defs>
       <path id="DejaVuSans-4e" d="M 628 4666 
L 1478 4666 
L 3547 763 
L 3547 4666 
L 4159 4666 
L 4159 0 
L 3309 0 
L 1241 3903 
L 1241 0 
L 628 0 
L 628 4666 
z
" transform="scale(0.015625)"/>
       <path id="DejaVuSans-6f" d="M 1959 3097 
Q 1497 3097 1228 2736 
Q 959 2375 959 1747 
Q 959 1119 1226 758 
Q 1494 397 1959 397 
Q 2419 397 2687 759 
Q 2956 1122 2956 1747 
Q 2956 2369 2687 2733 
Q 2419 3097 1959 3097 
z
M 1959 3584 
Q 2709 3584 3137 3096 
Q 3566 2609 3566 1747 
Q 3566 888 3137 398 
Q 2709 -91 1959 -91 
Q 1206 -91 779 398 
Q 353 888 353 1747 
Q 353 2609 779 3096 
Q 1206 3584 1959 3584 
z
" transform="scale(0.015625)"/>
       <path id="DejaVuSans-72" d="M 2631 2963 
Q 2534 3019 2420 3045 
Q 2306 3072 2169 3072 
Q 1681 3072 1420 2755 
Q 1159 2438 1159 1844 
L 1159 0 
L 581 0 
L 581 3500 
L 1159 3500 
L 1159 2956 
Q 1341 3275 1631 3429 
Q 1922 3584 2338 3584 
Q 2397 3584 2469 3576 
Q 2541 3569 2628 3553 
L 2631 2963 
z
" transform="scale(0.015625)"/>
       <path id="DejaVuSans-61" d="M 2194 1759 
Q 1497 1759 1228 1600 
Q 959 1441 959 1056 
Q 959 750 1161 570 
Q 1363 391 1709 391 
Q 2188 391 2477 730 
Q 2766 1069 2766 1631 
L 2766 1759 
L 2194 1759 
z
M 3341 1997 
L 3341 0 
L 2766 0 
L 2766 531 
Q 2569 213 2275 61 
Q 1981 -91 1556 -91 
Q 1019 -91 701 211 
Q 384 513 384 1019 
Q 384 1609 779 1909 
Q 1175 2209 1959 2209 
L 2766 2209 
L 2766 2266 
Q 2766 2663 2505 2880 
Q 2244 3097 1772 3097 
Q 1472 3097 1187 3025 
Q 903 2953 641 2809 
L 641 3341 
Q 956 3463 1253 3523 
Q 1550 3584 1831 3584 
Q 2591 3584 2966 3190 
Q 3341 2797 3341 1997 
z
" transform="scale(0.015625)"/>
       <path id="DejaVuSans-6c" d="M 603 4863 
L 1178 4863 
L 1178 0 
L 603 0 
L 603 4863 
z
" transform="scale(0.015625)"/>
       <path id="DejaVuSans-7a" d="M 353 3500 
L 3084 3500 
L 3084 2975 
L 922 459 
L 3084 459 
L 3084 0 
L 275 0 
L 275 525 
L 2438 3041 
L 353 3041 
L 353 3500 
z
" transform="scale(0.015625)"/>
       <path id="DejaVuSans-64" d="M 2906 2969 
L 2906 4863 
L 3481 4863 
L 3481 0 
L 2906 0 
L 2906 525 
Q 2725 213 2448 61 
Q 2172 -91 1784 -91 
Q 1150 -91 751 415 
Q 353 922 353 1747 
Q 353 2572 751 3078 
Q 1150 3584 1784 3584 
Q 2172 3584 2448 3432 
Q 2725 3281 2906 2969 
z
M 947 1747 
Q 947 1113 1208 752 
Q 1469 391 1925 391 
Q 2381 391 2643 752 
Q 2906 1113 2906 1747 
Q 2906 2381 2643 2742 
Q 2381 3103 1925 3103 
Q 1469 3103 1208 2742 
Q 947 2381 947 1747 
z
" transform="scale(0.015625)"/>
       <path id="DejaVuSans-78" d="M 3513 3500 
L 2247 1797 
L 3578 0 
L 2900 0 
L 1881 1375 
L 863 0 
L 184 0 
L 1544 1831 
L 300 3500 
L 978 3500 
L 1906 2253 
L 2834 3500 
L 3513 3500 
z
" transform="scale(0.015625)"/>
       <path id="DejaVuSans-70" d="M 1159 525 
L 1159 -1331 
L 581 -1331 
L 581 3500 
L 1159 3500 
L 1159 2969 
Q 1341 3281 1617 3432 
Q 1894 3584 2278 3584 
Q 2916 3584 3314 3078 
Q 3713 2572 3713 1747 
Q 3713 922 3314 415 
Q 2916 -91 2278 -91 
Q 1894 -91 1617 61 
Q 1341 213 1159 525 
z
M 3116 1747 
Q 3116 2381 2855 2742 
Q 2594 3103 2138 3103 
Q 1681 3103 1420 2742 
Q 1159 2381 1159 1747 
Q 1159 1113 1420 752 
Q 1681 391 2138 391 
Q 2594 391 2855 752 
Q 3116 1113 3116 1747 
z
" transform="scale(0.015625)"/>
       <path id="DejaVuSans-75" d="M 544 1381 
L 544 3500 
L 1119 3500 
L 1119 1403 
Q 1119 906 1312 657 
Q 1506 409 1894 409 
Q 2359 409 2629 706 
Q 2900 1003 2900 1516 
L 2900 3500 
L 3475 3500 
L 3475 0 
L 2900 0 
L 2900 538 
Q 2691 219 2414 64 
Q 2138 -91 1772 -91 
Q 1169 -91 856 284 
Q 544 659 544 1381 
z
M 1991 3584 
L 1991 3584 
z
" transform="scale(0.015625)"/>
       <path id="DejaVuSans-74" d="M 1172 4494 
L 1172 3500 
L 2356 3500 
L 2356 3053 
L 1172 3053 
L 1172 1153 
Q 1172 725 1289 603 
Q 1406 481 1766 481 
L 2356 481 
L 2356 0 
L 1766 0 
Q 1100 0 847 248 
Q 594 497 594 1153 
L 594 3053 
L 172 3053 
L 172 3500 
L 594 3500 
L 594 4494 
L 1172 4494 
z
" transform="scale(0.015625)"/>
      </defs>
      <use xlink:href="#DejaVuSans-4e"/>
      <use xlink:href="#DejaVuSans-6f" x="74.804688"/>
      <use xlink:href="#DejaVuSans-72" x="135.986328"/>
      <use xlink:href="#DejaVuSans-6d" x="175.349609"/>
      <use xlink:href="#DejaVuSans-61" x="272.761719"/>
      <use xlink:href="#DejaVuSans-6c" x="334.041016"/>
      <use xlink:href="#DejaVuSans-69" x="361.824219"/>
      <use xlink:href="#DejaVuSans-7a" x="389.607422"/>
      <use xlink:href="#DejaVuSans-65" x="442.097656"/>
      <use xlink:href="#DejaVuSans-64" x="503.621094"/>
      <use xlink:href="#DejaVuSans-20" x="567.097656"/>
      <use xlink:href="#DejaVuSans-65" x="598.884766"/>
      <use xlink:href="#DejaVuSans-78" x="658.658203"/>
      <use xlink:href="#DejaVuSans-70" x="717.837891"/>
      <use xlink:href="#DejaVuSans-20" x="781.314453"/>
      <use xlink:href="#DejaVuSans-6f" x="813.101562"/>
      <use xlink:href="#DejaVuSans-75" x="874.283203"/>
      <use xlink:href="#DejaVuSans-74" x="937.662109"/>
      <use xlink:href="#DejaVuSans-70" x="976.871094"/>
      <use xlink:href="#DejaVuSans-75" x="1040.347656"/>
      <use xlink:href="#DejaVuSans-74" x="1103.726562"/>
     </g>
    </g>
   </g>
   <g id="line2d_10">
    <path d="M 58.806605 202.111754 
L 61.169848 201.703979 
L 63.533092 201.336981 
L 65.896335 200.813669 
L 68.259579 200.602985 
L 70.622822 200.093266 
L 72.986065 199.787435 
L 75.349309 199.406844 
L 77.712552 199.03305 
L 80.075795 198.965088 
L 82.439039 198.822366 
L 84.802282 198.455368 
L 87.165526 198.27187 
L 89.528769 198.129148 
L 91.892012 197.857298 
L 94.255256 197.673799 
L 96.618499 197.395153 
L 98.981742 197.225246 
L 101.344986 196.980581 
L 103.708229 196.722323 
L 106.071473 196.518436 
L 108.434716 196.253382 
L 110.797959 196.049494 
L 113.161203 196.00192 
L 115.524446 195.580552 
L 117.887689 195.553367 
L 120.250933 195.315498 
L 122.614176 195.18637 
L 124.97742 195.050444 
L 127.340663 194.73102 
L 129.703906 194.765002 
L 132.06715 194.615484 
L 134.430393 194.35043 
L 136.793636 194.418393 
L 139.15688 194.486355 
L 141.520123 194.262079 
L 143.883366 194.166931 
L 146.24661 194.234894 
L 148.609853 194.180524 
L 150.973097 193.895081 
L 153.33634 193.80673 
L 155.699583 193.630027 
L 158.062827 193.745563 
L 160.42607 193.575657 
L 162.789313 193.514491 
L 165.152557 193.398954 
L 167.5158 193.385362 
L 169.879044 193.018364 
L 172.242287 193.086327 
L 174.60553 192.923217 
L 176.968774 192.814476 
L 179.332017 192.957198 
L 181.69526 192.64457 
L 184.058504 192.542626 
L 186.421747 192.651366 
L 188.784991 192.393109 
L 191.148234 192.37272 
L 193.511477 192.236795 
L 195.874721 192.094073 
L 198.237964 192.026111 
L 200.601207 192.032907 
" clip-path="url(#pe77bb9130c)" style="fill: none; stroke: #90ee90; stroke-width: 2; stroke-linecap: square"/>
   </g>
   <g id="line2d_11">
    <path d="M 58.806605 202.145735 
L 61.169848 201.90107 
L 63.533092 201.540868 
L 65.896335 201.099112 
L 68.259579 200.670948 
L 70.622822 200.453468 
L 72.986065 200.127247 
L 75.349309 199.678694 
L 77.712552 199.386455 
L 80.075795 199.202957 
L 82.439039 198.747607 
L 84.802282 198.462165 
L 87.165526 198.231092 
L 89.528769 197.925261 
L 91.892012 197.510689 
L 94.255256 197.483504 
L 96.618499 197.293209 
L 98.981742 197.096117 
L 101.344986 196.858248 
L 103.708229 196.831063 
L 106.071473 196.769897 
L 108.434716 196.633972 
L 110.797959 196.559213 
L 113.161203 196.477658 
L 115.524446 196.498047 
L 117.887689 196.402899 
L 120.250933 196.192215 
L 122.614176 196.00192 
L 124.97742 196.015513 
L 127.340663 195.879588 
L 129.703906 195.764051 
L 132.06715 195.492201 
L 134.430393 195.709681 
L 136.793636 195.383461 
L 139.15688 195.213555 
L 141.520123 195.165981 
L 143.883366 195.172777 
L 146.24661 195.036852 
L 148.609853 194.846557 
L 150.973097 194.778594 
L 153.33634 194.758205 
L 155.699583 194.533929 
L 158.062827 194.418393 
L 160.42607 194.228098 
L 162.789313 194.268875 
L 165.152557 194.153339 
L 167.5158 193.990229 
L 169.879044 193.922266 
L 172.242287 193.813526 
L 174.60553 193.53488 
L 176.968774 193.575657 
L 179.332017 193.582453 
L 181.69526 193.548472 
L 184.058504 193.419343 
L 186.421747 193.385362 
L 188.784991 193.038753 
L 191.148234 192.957198 
L 193.511477 192.855254 
L 195.874721 192.930013 
L 198.237964 192.760106 
L 200.601207 192.64457 
" clip-path="url(#pe77bb9130c)" style="fill: none; stroke: #3cb371; stroke-width: 2; stroke-linecap: square"/>
   </g>
   <g id="line2d_12">
    <path d="M 58.806605 201.071927 
L 61.169848 200.63017 
L 63.533092 200.344727 
L 65.896335 199.991322 
L 68.259579 199.651509 
L 70.622822 199.366067 
L 72.986065 199.005865 
L 75.349309 198.645664 
L 77.712552 198.2175 
L 80.075795 198.040797 
L 82.439039 197.510689 
L 84.802282 197.00097 
L 87.165526 196.831063 
L 89.528769 196.375714 
L 91.892012 196.008716 
L 94.255256 195.607737 
L 96.618499 195.064037 
L 98.981742 194.765002 
L 101.344986 194.255283 
L 103.708229 193.888285 
L 106.071473 193.392158 
L 108.434716 192.930013 
L 110.797959 192.495052 
L 113.161203 192.005722 
L 115.524446 191.509595 
L 117.887689 190.911525 
L 120.250933 190.564916 
L 122.614176 190.014419 
L 124.97742 189.694995 
L 127.340663 189.389164 
L 129.703906 188.797889 
L 132.06715 188.566817 
L 134.430393 188.193023 
L 136.793636 188.01632 
L 139.15688 187.832821 
L 141.520123 187.649322 
L 143.883366 187.241547 
L 146.24661 187.302713 
L 148.609853 186.949308 
L 150.973097 186.663865 
L 153.33634 186.568718 
L 155.699583 186.235701 
L 158.062827 186.290071 
L 160.42607 186.025017 
L 162.789313 186.031813 
L 165.152557 185.637631 
L 167.5158 185.596853 
L 169.879044 185.426947 
L 172.242287 185.189078 
L 174.60553 184.93082 
L 176.968774 185.073541 
L 179.332017 184.699747 
L 181.69526 184.828876 
L 184.058504 184.720136 
L 186.421747 184.434693 
L 188.784991 184.264787 
L 191.148234 184.190028 
L 193.511477 184.122066 
L 195.874721 184.074492 
L 198.237964 183.877401 
L 200.601207 183.755068 
" clip-path="url(#pe77bb9130c)" style="fill: none; stroke: #006400; stroke-width: 2; stroke-linecap: square"/>
   </g>
   <g id="patch_3">
    <path d="M 51.716875 205.068125 
L 51.716875 49.094062 
" style="fill: none; stroke: #000000; stroke-width: 0.8; stroke-linejoin: miter; stroke-linecap: square"/>
   </g>
   <g id="patch_4">
    <path d="M 51.716875 205.068125 
L 207.690938 205.068125 
" style="fill: none; stroke: #000000; stroke-width: 0.8; stroke-linejoin: miter; stroke-linecap: square"/>
   </g>
   <g id="text_12">
    <!-- vRNA = 0fM -->
    <g transform="translate(96.239844 43.094062)scale(0.1 -0.1)">
     <defs>
      <path id="DejaVuSans-Bold-76" d="M 97 3500 
L 1216 3500 
L 2088 1081 
L 2956 3500 
L 4078 3500 
L 2700 0 
L 1472 0 
L 97 3500 
z
" transform="scale(0.015625)"/>
      <path id="DejaVuSans-Bold-52" d="M 2297 2597 
Q 2675 2597 2839 2737 
Q 3003 2878 3003 3200 
Q 3003 3519 2839 3656 
Q 2675 3794 2297 3794 
L 1791 3794 
L 1791 2597 
L 2297 2597 
z
M 1791 1766 
L 1791 0 
L 588 0 
L 588 4666 
L 2425 4666 
Q 3347 4666 3776 4356 
Q 4206 4047 4206 3378 
Q 4206 2916 3982 2619 
Q 3759 2322 3309 2181 
Q 3556 2125 3751 1926 
Q 3947 1728 4147 1325 
L 4800 0 
L 3519 0 
L 2950 1159 
Q 2778 1509 2601 1637 
Q 2425 1766 2131 1766 
L 1791 1766 
z
" transform="scale(0.015625)"/>
      <path id="DejaVuSans-Bold-4e" d="M 588 4666 
L 1931 4666 
L 3628 1466 
L 3628 4666 
L 4769 4666 
L 4769 0 
L 3425 0 
L 1728 3200 
L 1728 0 
L 588 0 
L 588 4666 
z
" transform="scale(0.015625)"/>
      <path id="DejaVuSans-Bold-41" d="M 3419 850 
L 1538 850 
L 1241 0 
L 31 0 
L 1759 4666 
L 3194 4666 
L 4922 0 
L 3713 0 
L 3419 850 
z
M 1838 1716 
L 3116 1716 
L 2478 3572 
L 1838 1716 
z
" transform="scale(0.015625)"/>
      <path id="DejaVuSans-Bold-20" transform="scale(0.015625)"/>
      <path id="DejaVuSans-Bold-3d" d="M 678 3084 
L 4684 3084 
L 4684 2350 
L 678 2350 
L 678 3084 
z
M 678 1663 
L 4684 1663 
L 4684 922 
L 678 922 
L 678 1663 
z
" transform="scale(0.015625)"/>
      <path id="DejaVuSans-Bold-30" d="M 2944 2338 
Q 2944 3213 2780 3570 
Q 2616 3928 2228 3928 
Q 1841 3928 1675 3570 
Q 1509 3213 1509 2338 
Q 1509 1453 1675 1090 
Q 1841 728 2228 728 
Q 2613 728 2778 1090 
Q 2944 1453 2944 2338 
z
M 4147 2328 
Q 4147 1169 3647 539 
Q 3147 -91 2228 -91 
Q 1306 -91 806 539 
Q 306 1169 306 2328 
Q 306 3491 806 4120 
Q 1306 4750 2228 4750 
Q 3147 4750 3647 4120 
Q 4147 3491 4147 2328 
z
" transform="scale(0.015625)"/>
      <path id="DejaVuSans-Bold-66" d="M 2841 4863 
L 2841 4128 
L 2222 4128 
Q 1984 4128 1890 4042 
Q 1797 3956 1797 3744 
L 1797 3500 
L 2753 3500 
L 2753 2700 
L 1797 2700 
L 1797 0 
L 678 0 
L 678 2700 
L 122 2700 
L 122 3500 
L 678 3500 
L 678 3744 
Q 678 4316 997 4589 
Q 1316 4863 1984 4863 
L 2841 4863 
z
" transform="scale(0.015625)"/>
      <path id="DejaVuSans-Bold-4d" d="M 588 4666 
L 2119 4666 
L 3181 2169 
L 4250 4666 
L 5778 4666 
L 5778 0 
L 4641 0 
L 4641 3413 
L 3566 897 
L 2803 897 
L 1728 3413 
L 1728 0 
L 588 0 
L 588 4666 
z
" transform="scale(0.015625)"/>
     </defs>
     <use xlink:href="#DejaVuSans-Bold-76"/>
     <use xlink:href="#DejaVuSans-Bold-52" x="65.185547"/>
     <use xlink:href="#DejaVuSans-Bold-4e" x="142.1875"/>
     <use xlink:href="#DejaVuSans-Bold-41" x="225.878906"/>
     <use xlink:href="#DejaVuSans-Bold-20" x="303.271484"/>
     <use xlink:href="#DejaVuSans-Bold-3d" x="338.085938"/>
     <use xlink:href="#DejaVuSans-Bold-20" x="421.875"/>
     <use xlink:href="#DejaVuSans-Bold-30" x="456.689453"/>
     <use xlink:href="#DejaVuSans-Bold-66" x="526.269531"/>
     <use xlink:href="#DejaVuSans-Bold-4d" x="569.775391"/>
    </g>
   </g>
   <g id="legend_1">
    <g id="patch_5">
     <path d="M 130.776875 101.128437 
L 200.690938 101.128437 
Q 202.690938 101.128437 202.690938 99.128437 
L 202.690938 56.094062 
Q 202.690938 54.094062 200.690938 54.094062 
L 130.776875 54.094062 
Q 128.776875 54.094062 128.776875 56.094062 
L 128.776875 99.128437 
Q 128.776875 101.128437 130.776875 101.128437 
z
" style="fill: #ffffff; opacity: 0.8; stroke: #cccccc; stroke-linejoin: miter"/>
    </g>
    <g id="line2d_13">
     <path d="M 132.776875 62.1925 
L 142.776875 62.1925 
L 152.776875 62.1925 
" style="fill: none; stroke: #90ee90; stroke-width: 2; stroke-linecap: square"/>
    </g>
    <g id="text_13">
     <!-- T7 1.0 -->
     <g transform="translate(160.776875 65.6925)scale(0.1 -0.1)">
      <defs>
       <path id="DejaVuSans-37" d="M 525 4666 
L 3525 4666 
L 3525 4397 
L 1831 0 
L 1172 0 
L 2766 4134 
L 525 4134 
L 525 4666 
z
" transform="scale(0.015625)"/>
      </defs>
      <use xlink:href="#DejaVuSans-54"/>
      <use xlink:href="#DejaVuSans-37" x="61.083984"/>
      <use xlink:href="#DejaVuSans-20" x="124.707031"/>
      <use xlink:href="#DejaVuSans-31" x="156.494141"/>
      <use xlink:href="#DejaVuSans-2e" x="220.117188"/>
      <use xlink:href="#DejaVuSans-30" x="251.904297"/>
     </g>
    </g>
    <g id="line2d_14">
     <path d="M 132.776875 76.870625 
L 142.776875 76.870625 
L 152.776875 76.870625 
" style="fill: none; stroke: #3cb371; stroke-width: 2; stroke-linecap: square"/>
    </g>
    <g id="text_14">
     <!-- T7 5.0 -->
     <g transform="translate(160.776875 80.370625)scale(0.1 -0.1)">
      <defs>
       <path id="DejaVuSans-35" d="M 691 4666 
L 3169 4666 
L 3169 4134 
L 1269 4134 
L 1269 2991 
Q 1406 3038 1543 3061 
Q 1681 3084 1819 3084 
Q 2600 3084 3056 2656 
Q 3513 2228 3513 1497 
Q 3513 744 3044 326 
Q 2575 -91 1722 -91 
Q 1428 -91 1123 -41 
Q 819 9 494 109 
L 494 744 
Q 775 591 1075 516 
Q 1375 441 1709 441 
Q 2250 441 2565 725 
Q 2881 1009 2881 1497 
Q 2881 1984 2565 2268 
Q 2250 2553 1709 2553 
Q 1456 2553 1204 2497 
Q 953 2441 691 2322 
L 691 4666 
z
" transform="scale(0.015625)"/>
      </defs>
      <use xlink:href="#DejaVuSans-54"/>
      <use xlink:href="#DejaVuSans-37" x="61.083984"/>
      <use xlink:href="#DejaVuSans-20" x="124.707031"/>
      <use xlink:href="#DejaVuSans-35" x="156.494141"/>
      <use xlink:href="#DejaVuSans-2e" x="220.117188"/>
      <use xlink:href="#DejaVuSans-30" x="251.904297"/>
     </g>
    </g>
    <g id="line2d_15">
     <path d="M 132.776875 91.54875 
L 142.776875 91.54875 
L 152.776875 91.54875 
" style="fill: none; stroke: #006400; stroke-width: 2; stroke-linecap: square"/>
    </g>
    <g id="text_15">
     <!-- T7 20.0 -->
     <g transform="translate(160.776875 95.04875)scale(0.1 -0.1)">
      <use xlink:href="#DejaVuSans-54"/>
      <use xlink:href="#DejaVuSans-37" x="61.083984"/>
      <use xlink:href="#DejaVuSans-20" x="124.707031"/>
      <use xlink:href="#DejaVuSans-32" x="156.494141"/>
      <use xlink:href="#DejaVuSans-30" x="220.117188"/>
      <use xlink:href="#DejaVuSans-2e" x="283.740234"/>
      <use xlink:href="#DejaVuSans-30" x="315.527344"/>
     </g>
    </g>
   </g>
  </g>
  <g id="axes_2">
   <g id="patch_6">
    <path d="M 335.65267 205.068125 
L 491.626733 205.068125 
L 491.626733 49.094062 
L 335.65267 49.094062 
z
" style="fill: #ffffff"/>
   </g>
   <g id="PolyCollection_4">
    <defs>
     <path id="mfb59b14e34" d="M 342.742401 -48.581749 
L 342.742401 -48.450668 
L 345.105644 -48.678641 
L 347.468887 -48.945619 
L 349.832131 -49.205898 
L 352.195374 -49.540198 
L 354.558617 -49.742367 
L 356.921861 -50.233606 
L 359.285104 -50.549568 
L 361.648348 -50.817081 
L 364.011591 -51.009003 
L 366.374834 -51.460788 
L 368.738078 -51.858656 
L 371.101321 -52.783996 
L 373.464564 -54.058238 
L 375.827808 -56.245977 
L 378.191051 -58.989578 
L 380.554295 -61.908581 
L 382.917538 -65.849989 
L 385.280781 -70.145408 
L 387.644025 -74.218815 
L 390.007268 -78.634371 
L 392.370511 -84.244855 
L 394.733755 -89.086176 
L 397.096998 -94.061995 
L 399.460241 -98.819334 
L 401.823485 -104.091786 
L 404.186728 -107.472856 
L 406.549972 -112.914575 
L 408.913215 -116.402542 
L 411.276458 -119.937135 
L 413.639702 -124.289248 
L 416.002945 -126.664514 
L 418.366188 -130.325177 
L 420.729432 -132.275909 
L 423.092675 -134.505459 
L 425.455919 -135.010931 
L 427.819162 -136.884453 
L 430.182405 -137.346059 
L 432.545649 -138.563375 
L 434.908892 -137.737279 
L 437.272135 -139.313878 
L 439.635379 -139.653159 
L 441.998622 -139.865157 
L 444.361866 -139.433757 
L 446.725109 -140.440013 
L 449.088352 -139.891701 
L 451.451596 -140.547783 
L 453.814839 -140.252678 
L 456.178082 -140.44774 
L 458.541326 -140.001148 
L 460.904569 -140.647894 
L 463.267813 -142.030952 
L 465.631056 -140.716585 
L 467.994299 -141.697713 
L 470.357543 -141.004714 
L 472.720786 -140.959245 
L 475.084029 -140.308407 
L 477.447273 -141.364884 
L 479.810516 -140.840448 
L 482.173759 -140.70198 
L 484.537003 -141.351921 
L 484.537003 -150.610696 
L 484.537003 -150.610696 
L 482.173759 -150.975194 
L 479.810516 -151.244501 
L 477.447273 -150.516177 
L 475.084029 -150.729919 
L 472.720786 -150.704336 
L 470.357543 -150.427795 
L 467.994299 -150.115385 
L 465.631056 -150.457665 
L 463.267813 -150.434587 
L 460.904569 -149.737991 
L 458.541326 -150.439107 
L 456.178082 -150.23718 
L 453.814839 -150.269132 
L 451.451596 -149.267217 
L 449.088352 -150.167963 
L 446.725109 -149.279839 
L 444.361866 -149.171508 
L 441.998622 -148.359519 
L 439.635379 -148.721034 
L 437.272135 -149.209833 
L 434.908892 -149.590291 
L 432.545649 -148.641862 
L 430.182405 -148.064967 
L 427.819162 -147.711022 
L 425.455919 -147.042745 
L 423.092675 -144.544272 
L 420.729432 -143.226176 
L 418.366188 -140.786528 
L 416.002945 -138.289783 
L 413.639702 -134.154237 
L 411.276458 -131.003284 
L 408.913215 -126.640627 
L 406.549972 -122.109012 
L 404.186728 -117.315571 
L 401.823485 -112.432395 
L 399.460241 -106.19199 
L 397.096998 -100.72776 
L 394.733755 -95.482012 
L 392.370511 -89.802729 
L 390.007268 -83.302286 
L 387.644025 -78.162307 
L 385.280781 -72.625808 
L 382.917538 -67.67832 
L 380.554295 -63.124408 
L 378.191051 -59.532599 
L 375.827808 -56.662493 
L 373.464564 -54.459851 
L 371.101321 -53.314626 
L 368.738078 -52.459347 
L 366.374834 -51.715444 
L 364.011591 -51.365272 
L 361.648348 -51.258158 
L 359.285104 -50.87323 
L 356.921861 -50.550344 
L 354.558617 -50.293995 
L 352.195374 -49.789353 
L 349.832131 -49.471213 
L 347.468887 -49.092644 
L 345.105644 -48.883884 
L 342.742401 -48.581749 
z
" style="stroke: #90ee90; stroke-opacity: 0.2"/>
    </defs>
    <g clip-path="url(#p744e60dd9c)">
     <use xlink:href="#mfb59b14e34" x="0" y="250.56" style="fill: #90ee90; fill-opacity: 0.2; stroke: #90ee90; stroke-opacity: 0.2"/>
    </g>
   </g>
   <g id="PolyCollection_5">
    <defs>
     <path id="m89208b70c5" d="M 342.742401 -48.580041 
L 342.742401 -48.438784 
L 345.105644 -48.692911 
L 347.468887 -49.155227 
L 349.832131 -49.362243 
L 352.195374 -49.83841 
L 354.558617 -50.309622 
L 356.921861 -50.618473 
L 359.285104 -50.975923 
L 361.648348 -51.508841 
L 364.011591 -51.618959 
L 366.374834 -52.340813 
L 368.738078 -52.485814 
L 371.101321 -53.149281 
L 373.464564 -53.767302 
L 375.827808 -54.496392 
L 378.191051 -54.519666 
L 380.554295 -55.388164 
L 382.917538 -56.038353 
L 385.280781 -56.569138 
L 387.644025 -56.87875 
L 390.007268 -57.10636 
L 392.370511 -57.397182 
L 394.733755 -57.866123 
L 397.096998 -58.084861 
L 399.460241 -58.2643 
L 401.823485 -58.491801 
L 404.186728 -58.522588 
L 406.549972 -58.67811 
L 408.913215 -58.872544 
L 411.276458 -59.125569 
L 413.639702 -59.49057 
L 416.002945 -59.227076 
L 418.366188 -59.629677 
L 420.729432 -59.851695 
L 423.092675 -59.7844 
L 425.455919 -60.171441 
L 427.819162 -60.052547 
L 430.182405 -60.319659 
L 432.545649 -60.367933 
L 434.908892 -60.46002 
L 437.272135 -60.593105 
L 439.635379 -60.926525 
L 441.998622 -60.772358 
L 444.361866 -61.047585 
L 446.725109 -61.380539 
L 449.088352 -61.28746 
L 451.451596 -61.45555 
L 453.814839 -61.713637 
L 456.178082 -61.751129 
L 458.541326 -61.722831 
L 460.904569 -61.814758 
L 463.267813 -62.029751 
L 465.631056 -62.09724 
L 467.994299 -62.572842 
L 470.357543 -62.348639 
L 472.720786 -62.31636 
L 475.084029 -62.486393 
L 477.447273 -62.389614 
L 479.810516 -62.587514 
L 482.173759 -62.570882 
L 484.537003 -62.904922 
L 484.537003 -65.743675 
L 484.537003 -65.743675 
L 482.173759 -65.28935 
L 479.810516 -65.802826 
L 477.447273 -65.674505 
L 475.084029 -65.387431 
L 472.720786 -65.081726 
L 470.357543 -65.11741 
L 467.994299 -64.906799 
L 465.631056 -64.784332 
L 463.267813 -64.919783 
L 460.904569 -64.604668 
L 458.541326 -64.805335 
L 456.178082 -64.260522 
L 453.814839 -64.433939 
L 451.451596 -64.243473 
L 449.088352 -64.003787 
L 446.725109 -63.734006 
L 444.361866 -63.713554 
L 441.998622 -64.002374 
L 439.635379 -63.793837 
L 437.272135 -63.406854 
L 434.908892 -63.254496 
L 432.545649 -63.251436 
L 430.182405 -62.932711 
L 427.819162 -62.887196 
L 425.455919 -62.578007 
L 423.092675 -62.76116 
L 420.729432 -62.272498 
L 418.366188 -62.154703 
L 416.002945 -62.149529 
L 413.639702 -62.076329 
L 411.276458 -61.856852 
L 408.913215 -61.824435 
L 406.549972 -61.665464 
L 404.186728 -61.14136 
L 401.823485 -60.818742 
L 399.460241 -60.733615 
L 397.096998 -60.029541 
L 394.733755 -59.840503 
L 392.370511 -59.371561 
L 390.007268 -58.860426 
L 387.644025 -58.122966 
L 385.280781 -57.372363 
L 382.917538 -56.639044 
L 380.554295 -56.02513 
L 378.191051 -55.357675 
L 375.827808 -54.674137 
L 373.464564 -54.152716 
L 371.101321 -53.64256 
L 368.738078 -52.797258 
L 366.374834 -52.588853 
L 364.011591 -52.196121 
L 361.648348 -51.871279 
L 359.285104 -51.411944 
L 356.921861 -51.198508 
L 354.558617 -50.773364 
L 352.195374 -50.2931 
L 349.832131 -49.709051 
L 347.468887 -49.426737 
L 345.105644 -48.978354 
L 342.742401 -48.580041 
z
" style="stroke: #3cb371; stroke-opacity: 0.2"/>
    </defs>
    <g clip-path="url(#p744e60dd9c)">
     <use xlink:href="#m89208b70c5" x="0" y="250.56" style="fill: #3cb371; fill-opacity: 0.2; stroke: #3cb371; stroke-opacity: 0.2"/>
    </g>
   </g>
   <g id="PolyCollection_6">
    <defs>
     <path id="m074fef52c9" d="M 342.742401 -48.540893 
L 342.742401 -48.192489 
L 345.105644 -48.763739 
L 347.468887 -49.124231 
L 349.832131 -49.261844 
L 352.195374 -49.402214 
L 354.558617 -49.801127 
L 356.921861 -50.218428 
L 359.285104 -50.478145 
L 361.648348 -50.867883 
L 364.011591 -51.050713 
L 366.374834 -51.300138 
L 368.738078 -51.702938 
L 371.101321 -52.189052 
L 373.464564 -52.240888 
L 375.827808 -52.401491 
L 378.191051 -52.559731 
L 380.554295 -52.619154 
L 382.917538 -52.875163 
L 385.280781 -52.912487 
L 387.644025 -53.101737 
L 390.007268 -52.781288 
L 392.370511 -53.0546 
L 394.733755 -53.05156 
L 397.096998 -53.486448 
L 399.460241 -53.473587 
L 401.823485 -53.575531 
L 404.186728 -53.717682 
L 406.549972 -53.675799 
L 408.913215 -53.95176 
L 411.276458 -53.738357 
L 413.639702 -53.973229 
L 416.002945 -54.016192 
L 418.366188 -54.210487 
L 420.729432 -54.256548 
L 423.092675 -54.589779 
L 425.455919 -54.475477 
L 427.819162 -54.53708 
L 430.182405 -54.662851 
L 432.545649 -54.938061 
L 434.908892 -55.200554 
L 437.272135 -55.118634 
L 439.635379 -55.243659 
L 441.998622 -55.412618 
L 444.361866 -55.386904 
L 446.725109 -55.636151 
L 449.088352 -55.818296 
L 451.451596 -55.825321 
L 453.814839 -55.918495 
L 456.178082 -56.09547 
L 458.541326 -56.202543 
L 460.904569 -56.472472 
L 463.267813 -56.411174 
L 465.631056 -56.580442 
L 467.994299 -56.550284 
L 470.357543 -56.507627 
L 472.720786 -56.656661 
L 475.084029 -56.922942 
L 477.447273 -56.871621 
L 479.810516 -56.915363 
L 482.173759 -56.933359 
L 484.537003 -57.260843 
L 484.537003 -59.88849 
L 484.537003 -59.88849 
L 482.173759 -59.808199 
L 479.810516 -60.002898 
L 477.447273 -59.9379 
L 475.084029 -59.682691 
L 472.720786 -59.88101 
L 470.357543 -60.002859 
L 467.994299 -59.674759 
L 465.631056 -59.223233 
L 463.267813 -59.487649 
L 460.904569 -59.222463 
L 458.541326 -59.601132 
L 456.178082 -58.987802 
L 453.814839 -59.409442 
L 451.451596 -59.149211 
L 449.088352 -58.91157 
L 446.725109 -59.01216 
L 444.361866 -58.717707 
L 441.998622 -58.95025 
L 439.635379 -58.806582 
L 437.272135 -58.401499 
L 434.908892 -58.292394 
L 432.545649 -58.500517 
L 430.182405 -58.286396 
L 427.819162 -58.167502 
L 425.455919 -58.133958 
L 423.092675 -57.910916 
L 420.729432 -57.904334 
L 418.366188 -57.828062 
L 416.002945 -57.70973 
L 413.639702 -57.317732 
L 411.276458 -57.484642 
L 408.913215 -56.877056 
L 406.549972 -56.935537 
L 404.186728 -56.322768 
L 401.823485 -56.383364 
L 399.460241 -55.995978 
L 397.096998 -55.860784 
L 394.733755 -55.575269 
L 392.370511 -55.232416 
L 390.007268 -55.070768 
L 387.644025 -54.505654 
L 385.280781 -54.300721 
L 382.917538 -54.011825 
L 380.554295 -53.710541 
L 378.191051 -53.484521 
L 375.827808 -52.976728 
L 373.464564 -52.797518 
L 371.101321 -52.427986 
L 368.738078 -52.220882 
L 366.374834 -51.794539 
L 364.011591 -51.513857 
L 361.648348 -51.139393 
L 359.285104 -50.903875 
L 356.921861 -50.361634 
L 354.558617 -49.909015 
L 352.195374 -49.696265 
L 349.832131 -49.524007 
L 347.468887 -49.267437 
L 345.105644 -49.002674 
L 342.742401 -48.540893 
z
" style="stroke: #006400; stroke-opacity: 0.2"/>
    </defs>
    <g clip-path="url(#p744e60dd9c)">
     <use xlink:href="#m074fef52c9" x="0" y="250.56" style="fill: #006400; fill-opacity: 0.2; stroke: #006400; stroke-opacity: 0.2"/>
    </g>
   </g>
   <g id="matplotlib.axis_3">
    <g id="xtick_4">
     <g id="line2d_16">
      <g>
       <use xlink:href="#m62211e34fd" x="342.742401" y="205.068125" style="stroke: #000000; stroke-width: 0.8"/>
      </g>
     </g>
     <g id="text_16">
      <!-- 0 -->
      <g transform="translate(339.561151 219.666562)scale(0.1 -0.1)">
       <use xlink:href="#DejaVuSans-30"/>
      </g>
     </g>
    </g>
    <g id="xtick_5">
     <g id="line2d_17">
      <g>
       <use xlink:href="#m62211e34fd" x="401.823485" y="205.068125" style="stroke: #000000; stroke-width: 0.8"/>
      </g>
     </g>
     <g id="text_17">
      <!-- 100 -->
      <g transform="translate(392.279735 219.666562)scale(0.1 -0.1)">
       <use xlink:href="#DejaVuSans-31"/>
       <use xlink:href="#DejaVuSans-30" x="63.623047"/>
       <use xlink:href="#DejaVuSans-30" x="127.246094"/>
      </g>
     </g>
    </g>
    <g id="xtick_6">
     <g id="line2d_18">
      <g>
       <use xlink:href="#m62211e34fd" x="460.904569" y="205.068125" style="stroke: #000000; stroke-width: 0.8"/>
      </g>
     </g>
     <g id="text_18">
      <!-- 200 -->
      <g transform="translate(451.360819 219.666562)scale(0.1 -0.1)">
       <use xlink:href="#DejaVuSans-32"/>
       <use xlink:href="#DejaVuSans-30" x="63.623047"/>
       <use xlink:href="#DejaVuSans-30" x="127.246094"/>
      </g>
     </g>
    </g>
    <g id="text_19">
     <!-- Time (min) -->
     <g transform="translate(381.056889 240.864375)scale(0.12 -0.12)">
      <use xlink:href="#DejaVuSans-54"/>
      <use xlink:href="#DejaVuSans-69" x="57.958984"/>
      <use xlink:href="#DejaVuSans-6d" x="85.742188"/>
      <use xlink:href="#DejaVuSans-65" x="183.154297"/>
      <use xlink:href="#DejaVuSans-20" x="244.677734"/>
      <use xlink:href="#DejaVuSans-28" x="276.464844"/>
      <use xlink:href="#DejaVuSans-6d" x="315.478516"/>
      <use xlink:href="#DejaVuSans-69" x="412.890625"/>
      <use xlink:href="#DejaVuSans-6e" x="440.673828"/>
      <use xlink:href="#DejaVuSans-29" x="504.052734"/>
     </g>
    </g>
   </g>
   <g id="matplotlib.axis_4">
    <g id="ytick_7">
     <g id="line2d_19">
      <g>
       <use xlink:href="#mdc17e86f98" x="335.65267" y="205.068125" style="stroke: #000000; stroke-width: 0.8"/>
      </g>
     </g>
     <g id="text_20">
      <!-- 0.0 -->
      <g transform="translate(312.749545 208.867344)scale(0.1 -0.1)">
       <use xlink:href="#DejaVuSans-30"/>
       <use xlink:href="#DejaVuSans-2e" x="63.623047"/>
       <use xlink:href="#DejaVuSans-30" x="95.410156"/>
      </g>
     </g>
    </g>
    <g id="ytick_8">
     <g id="line2d_20">
      <g>
       <use xlink:href="#mdc17e86f98" x="335.65267" y="173.873312" style="stroke: #000000; stroke-width: 0.8"/>
      </g>
     </g>
     <g id="text_21">
      <!-- 0.2 -->
      <g transform="translate(312.749545 177.672531)scale(0.1 -0.1)">
       <use xlink:href="#DejaVuSans-30"/>
       <use xlink:href="#DejaVuSans-2e" x="63.623047"/>
       <use xlink:href="#DejaVuSans-32" x="95.410156"/>
      </g>
     </g>
    </g>
    <g id="ytick_9">
     <g id="line2d_21">
      <g>
       <use xlink:href="#mdc17e86f98" x="335.65267" y="142.6785" style="stroke: #000000; stroke-width: 0.8"/>
      </g>
     </g>
     <g id="text_22">
      <!-- 0.4 -->
      <g transform="translate(312.749545 146.477719)scale(0.1 -0.1)">
       <use xlink:href="#DejaVuSans-30"/>
       <use xlink:href="#DejaVuSans-2e" x="63.623047"/>
       <use xlink:href="#DejaVuSans-34" x="95.410156"/>
      </g>
     </g>
    </g>
    <g id="ytick_10">
     <g id="line2d_22">
      <g>
       <use xlink:href="#mdc17e86f98" x="335.65267" y="111.483687" style="stroke: #000000; stroke-width: 0.8"/>
      </g>
     </g>
     <g id="text_23">
      <!-- 0.6 -->
      <g transform="translate(312.749545 115.282906)scale(0.1 -0.1)">
       <use xlink:href="#DejaVuSans-30"/>
       <use xlink:href="#DejaVuSans-2e" x="63.623047"/>
       <use xlink:href="#DejaVuSans-36" x="95.410156"/>
      </g>
     </g>
    </g>
    <g id="ytick_11">
     <g id="line2d_23">
      <g>
       <use xlink:href="#mdc17e86f98" x="335.65267" y="80.288875" style="stroke: #000000; stroke-width: 0.8"/>
      </g>
     </g>
     <g id="text_24">
      <!-- 0.8 -->
      <g transform="translate(312.749545 84.088094)scale(0.1 -0.1)">
       <use xlink:href="#DejaVuSans-30"/>
       <use xlink:href="#DejaVuSans-2e" x="63.623047"/>
       <use xlink:href="#DejaVuSans-38" x="95.410156"/>
      </g>
     </g>
    </g>
    <g id="ytick_12">
     <g id="line2d_24">
      <g>
       <use xlink:href="#mdc17e86f98" x="335.65267" y="49.094062" style="stroke: #000000; stroke-width: 0.8"/>
      </g>
     </g>
     <g id="text_25">
      <!-- 1.0 -->
      <g transform="translate(312.749545 52.893281)scale(0.1 -0.1)">
       <use xlink:href="#DejaVuSans-31"/>
       <use xlink:href="#DejaVuSans-2e" x="63.623047"/>
       <use xlink:href="#DejaVuSans-30" x="95.410156"/>
      </g>
     </g>
    </g>
    <g id="text_26">
     <!-- Normalized exp output -->
     <g transform="translate(300.25392 195.658281)rotate(-90)scale(0.12 -0.12)">
      <use xlink:href="#DejaVuSans-4e"/>
      <use xlink:href="#DejaVuSans-6f" x="74.804688"/>
      <use xlink:href="#DejaVuSans-72" x="135.986328"/>
      <use xlink:href="#DejaVuSans-6d" x="175.349609"/>
      <use xlink:href="#DejaVuSans-61" x="272.761719"/>
      <use xlink:href="#DejaVuSans-6c" x="334.041016"/>
      <use xlink:href="#DejaVuSans-69" x="361.824219"/>
      <use xlink:href="#DejaVuSans-7a" x="389.607422"/>
      <use xlink:href="#DejaVuSans-65" x="442.097656"/>
      <use xlink:href="#DejaVuSans-64" x="503.621094"/>
      <use xlink:href="#DejaVuSans-20" x="567.097656"/>
      <use xlink:href="#DejaVuSans-65" x="598.884766"/>
      <use xlink:href="#DejaVuSans-78" x="658.658203"/>
      <use xlink:href="#DejaVuSans-70" x="717.837891"/>
      <use xlink:href="#DejaVuSans-20" x="781.314453"/>
      <use xlink:href="#DejaVuSans-6f" x="813.101562"/>
      <use xlink:href="#DejaVuSans-75" x="874.283203"/>
      <use xlink:href="#DejaVuSans-74" x="937.662109"/>
      <use xlink:href="#DejaVuSans-70" x="976.871094"/>
      <use xlink:href="#DejaVuSans-75" x="1040.347656"/>
      <use xlink:href="#DejaVuSans-74" x="1103.726562"/>
     </g>
    </g>
   </g>
   <g id="line2d_25">
    <path d="M 342.742401 202.043791 
L 345.105644 201.778737 
L 347.468887 201.540868 
L 349.832131 201.221444 
L 352.195374 200.895224 
L 354.558617 200.541819 
L 356.921861 200.168025 
L 359.285104 199.848601 
L 361.648348 199.522381 
L 364.011591 199.372863 
L 366.374834 198.971884 
L 368.738078 198.400998 
L 371.101321 197.510689 
L 373.464564 196.300955 
L 375.827808 194.105765 
L 378.191051 191.298911 
L 380.554295 188.043505 
L 382.917538 183.795845 
L 385.280781 179.174392 
L 387.644025 174.369439 
L 390.007268 169.591672 
L 392.370511 163.536208 
L 394.733755 158.275906 
L 397.096998 153.165122 
L 399.460241 148.054338 
L 401.823485 142.29791 
L 404.186728 138.165786 
L 406.549972 133.048206 
L 408.913215 129.038415 
L 411.276458 125.089791 
L 413.639702 121.338258 
L 416.002945 118.082852 
L 418.366188 115.004148 
L 420.729432 112.808957 
L 423.092675 111.035135 
L 425.455919 109.533162 
L 427.819162 108.262262 
L 430.182405 107.854487 
L 432.545649 106.957381 
L 434.908892 106.896215 
L 437.272135 106.298145 
L 439.635379 106.372903 
L 441.998622 106.447662 
L 444.361866 106.257367 
L 446.725109 105.700074 
L 449.088352 105.530168 
L 451.451596 105.6525 
L 453.814839 105.299095 
L 456.178082 105.21754 
L 458.541326 105.339873 
L 460.904569 105.367058 
L 463.267813 104.327231 
L 465.631056 104.972875 
L 467.994299 104.653451 
L 470.357543 104.843746 
L 472.720786 104.72821 
L 475.084029 105.040837 
L 477.447273 104.619469 
L 479.810516 104.517526 
L 482.173759 104.721413 
L 484.537003 104.578692 
" clip-path="url(#p744e60dd9c)" style="fill: none; stroke: #90ee90; stroke-width: 2; stroke-linecap: square"/>
   </g>
   <g id="line2d_26">
    <path d="M 342.742401 202.050588 
L 345.105644 201.724367 
L 347.468887 201.269018 
L 349.832131 201.024353 
L 352.195374 200.494245 
L 354.558617 200.018507 
L 356.921861 199.651509 
L 359.285104 199.366067 
L 361.648348 198.86994 
L 364.011591 198.65246 
L 366.374834 198.095167 
L 368.738078 197.918464 
L 371.101321 197.16408 
L 373.464564 196.599991 
L 375.827808 195.974735 
L 378.191051 195.62133 
L 380.554295 194.853353 
L 382.917538 194.221301 
L 385.280781 193.58925 
L 387.644025 193.059142 
L 390.007268 192.576607 
L 392.370511 192.175628 
L 394.733755 191.706687 
L 397.096998 191.502799 
L 399.460241 191.061043 
L 401.823485 190.904729 
L 404.186728 190.728026 
L 406.549972 190.388213 
L 408.913215 190.211511 
L 411.276458 190.068789 
L 413.639702 189.77655 
L 416.002945 189.871698 
L 418.366188 189.66781 
L 420.729432 189.497904 
L 423.092675 189.28722 
L 425.455919 189.185276 
L 427.819162 189.090128 
L 430.182405 188.933815 
L 432.545649 188.750316 
L 434.908892 188.702742 
L 437.272135 188.560021 
L 439.635379 188.199819 
L 441.998622 188.172634 
L 444.361866 188.17943 
L 446.725109 188.002728 
L 449.088352 187.914376 
L 451.451596 187.710489 
L 453.814839 187.486212 
L 456.178082 187.554175 
L 458.541326 187.295917 
L 460.904569 187.350287 
L 463.267813 187.085233 
L 465.631056 187.119214 
L 467.994299 186.820179 
L 470.357543 186.826975 
L 472.720786 186.860957 
L 475.084029 186.623088 
L 477.447273 186.52794 
L 479.810516 186.36483 
L 482.173759 186.629884 
L 484.537003 186.235701 
" clip-path="url(#p744e60dd9c)" style="fill: none; stroke: #3cb371; stroke-width: 2; stroke-linecap: square"/>
   </g>
   <g id="line2d_27">
    <path d="M 342.742401 202.193309 
L 345.105644 201.676794 
L 347.468887 201.364166 
L 349.832131 201.167074 
L 352.195374 201.01076 
L 354.558617 200.704929 
L 356.921861 200.269969 
L 359.285104 199.86899 
L 361.648348 199.556362 
L 364.011591 199.277715 
L 366.374834 199.012661 
L 368.738078 198.59809 
L 371.101321 198.251481 
L 373.464564 198.040797 
L 375.827808 197.87089 
L 378.191051 197.537874 
L 380.554295 197.395153 
L 382.917538 197.116506 
L 385.280781 196.953396 
L 387.644025 196.756305 
L 390.007268 196.633972 
L 392.370511 196.416492 
L 394.733755 196.246585 
L 397.096998 195.886384 
L 399.460241 195.825218 
L 401.823485 195.580552 
L 404.186728 195.539775 
L 406.549972 195.254332 
L 408.913215 195.145592 
L 411.276458 194.948501 
L 413.639702 194.914519 
L 416.002945 194.697039 
L 418.366188 194.540725 
L 420.729432 194.479559 
L 423.092675 194.309653 
L 425.455919 194.255283 
L 427.819162 194.207709 
L 430.182405 194.085376 
L 432.545649 193.840711 
L 434.908892 193.813526 
L 437.272135 193.799933 
L 439.635379 193.53488 
L 441.998622 193.378566 
L 444.361866 193.507694 
L 446.725109 193.235844 
L 449.088352 193.195067 
L 451.451596 193.072734 
L 453.814839 192.896031 
L 456.178082 193.018364 
L 458.541326 192.658163 
L 460.904569 192.712533 
L 463.267813 192.610589 
L 465.631056 192.658163 
L 467.994299 192.447479 
L 470.357543 192.304757 
L 472.720786 192.291165 
L 475.084029 192.257183 
L 477.447273 192.15524 
L 479.810516 192.10087 
L 482.173759 192.189221 
L 484.537003 191.985333 
" clip-path="url(#p744e60dd9c)" style="fill: none; stroke: #006400; stroke-width: 2; stroke-linecap: square"/>
   </g>
   <g id="patch_7">
    <path d="M 335.65267 205.068125 
L 335.65267 49.094062 
" style="fill: none; stroke: #000000; stroke-width: 0.8; stroke-linejoin: miter; stroke-linecap: square"/>
   </g>
   <g id="patch_8">
    <path d="M 335.65267 205.068125 
L 491.626733 205.068125 
" style="fill: none; stroke: #000000; stroke-width: 0.8; stroke-linejoin: miter; stroke-linecap: square"/>
   </g>
   <g id="text_27">
    <!-- vRNA = 1fM -->
    <g transform="translate(380.175639 43.094062)scale(0.1 -0.1)">
     <defs>
      <path id="DejaVuSans-Bold-31" d="M 750 831 
L 1813 831 
L 1813 3847 
L 722 3622 
L 722 4441 
L 1806 4666 
L 2950 4666 
L 2950 831 
L 4013 831 
L 4013 0 
L 750 0 
L 750 831 
z
" transform="scale(0.015625)"/>
     </defs>
     <use xlink:href="#DejaVuSans-Bold-76"/>
     <use xlink:href="#DejaVuSans-Bold-52" x="65.185547"/>
     <use xlink:href="#DejaVuSans-Bold-4e" x="142.1875"/>
     <use xlink:href="#DejaVuSans-Bold-41" x="225.878906"/>
     <use xlink:href="#DejaVuSans-Bold-20" x="303.271484"/>
     <use xlink:href="#DejaVuSans-Bold-3d" x="338.085938"/>
     <use xlink:href="#DejaVuSans-Bold-20" x="421.875"/>
     <use xlink:href="#DejaVuSans-Bold-31" x="456.689453"/>
     <use xlink:href="#DejaVuSans-Bold-66" x="526.269531"/>
     <use xlink:href="#DejaVuSans-Bold-4d" x="569.775391"/>
    </g>
   </g>
   <g id="legend_2">
    <g id="patch_9">
     <path d="M 414.71267 101.128437 
L 484.626733 101.128437 
Q 486.626733 101.128437 486.626733 99.128437 
L 486.626733 56.094062 
Q 486.626733 54.094062 484.626733 54.094062 
L 414.71267 54.094062 
Q 412.71267 54.094062 412.71267 56.094062 
L 412.71267 99.128437 
Q 412.71267 101.128437 414.71267 101.128437 
z
" style="fill: #ffffff; opacity: 0.8; stroke: #cccccc; stroke-linejoin: miter"/>
    </g>
    <g id="line2d_28">
     <path d="M 416.71267 62.1925 
L 426.71267 62.1925 
L 436.71267 62.1925 
" style="fill: none; stroke: #90ee90; stroke-width: 2; stroke-linecap: square"/>
    </g>
    <g id="text_28">
     <!-- T7 1.0 -->
     <g transform="translate(444.71267 65.6925)scale(0.1 -0.1)">
      <use xlink:href="#DejaVuSans-54"/>
      <use xlink:href="#DejaVuSans-37" x="61.083984"/>
      <use xlink:href="#DejaVuSans-20" x="124.707031"/>
      <use xlink:href="#DejaVuSans-31" x="156.494141"/>
      <use xlink:href="#DejaVuSans-2e" x="220.117188"/>
      <use xlink:href="#DejaVuSans-30" x="251.904297"/>
     </g>
    </g>
    <g id="line2d_29">
     <path d="M 416.71267 76.870625 
L 426.71267 76.870625 
L 436.71267 76.870625 
" style="fill: none; stroke: #3cb371; stroke-width: 2; stroke-linecap: square"/>
    </g>
    <g id="text_29">
     <!-- T7 5.0 -->
     <g transform="translate(444.71267 80.370625)scale(0.1 -0.1)">
      <use xlink:href="#DejaVuSans-54"/>
      <use xlink:href="#DejaVuSans-37" x="61.083984"/>
      <use xlink:href="#DejaVuSans-20" x="124.707031"/>
      <use xlink:href="#DejaVuSans-35" x="156.494141"/>
      <use xlink:href="#DejaVuSans-2e" x="220.117188"/>
      <use xlink:href="#DejaVuSans-30" x="251.904297"/>
     </g>
    </g>
    <g id="line2d_30">
     <path d="M 416.71267 91.54875 
L 426.71267 91.54875 
L 436.71267 91.54875 
" style="fill: none; stroke: #006400; stroke-width: 2; stroke-linecap: square"/>
    </g>
    <g id="text_30">
     <!-- T7 20.0 -->
     <g transform="translate(444.71267 95.04875)scale(0.1 -0.1)">
      <use xlink:href="#DejaVuSans-54"/>
      <use xlink:href="#DejaVuSans-37" x="61.083984"/>
      <use xlink:href="#DejaVuSans-20" x="124.707031"/>
      <use xlink:href="#DejaVuSans-32" x="156.494141"/>
      <use xlink:href="#DejaVuSans-30" x="220.117188"/>
      <use xlink:href="#DejaVuSans-2e" x="283.740234"/>
      <use xlink:href="#DejaVuSans-30" x="315.527344"/>
     </g>
    </g>
   </g>
  </g>
  <g id="axes_3">
   <g id="patch_10">
    <path d="M 619.588466 205.068125 
L 775.562528 205.068125 
L 775.562528 49.094062 
L 619.588466 49.094062 
z
" style="fill: #ffffff"/>
   </g>
   <g id="PolyCollection_7">
    <defs>
     <path id="m9f4a7e0507" d="M 626.678196 -48.700914 
L 626.678196 -48.508206 
L 629.041439 -48.961209 
L 631.404683 -49.489894 
L 633.767926 -49.809298 
L 636.13117 -50.24077 
L 638.494413 -50.452099 
L 640.857656 -50.672456 
L 643.2209 -51.32111 
L 645.584143 -51.743909 
L 647.947386 -52.201058 
L 650.31063 -53.310164 
L 652.673873 -55.528518 
L 655.037116 -60.148098 
L 657.40036 -68.447936 
L 659.763603 -81.348083 
L 662.126847 -97.767591 
L 664.49009 -115.242768 
L 666.853333 -133.902081 
L 669.216577 -149.988077 
L 671.57982 -164.414665 
L 673.943063 -174.953312 
L 676.306307 -184.425434 
L 678.66955 -190.188601 
L 681.032794 -193.797036 
L 683.396037 -197.159089 
L 685.75928 -199.047291 
L 688.122524 -199.138319 
L 690.485767 -199.184357 
L 692.84901 -200.01796 
L 695.212254 -199.087216 
L 697.575497 -198.585115 
L 699.938741 -199.343546 
L 702.301984 -199.62719 
L 704.665227 -197.497738 
L 707.028471 -198.773789 
L 709.391714 -198.204421 
L 711.754957 -197.581046 
L 714.118201 -197.613369 
L 716.481444 -198.12285 
L 718.844687 -196.336685 
L 721.207931 -194.629298 
L 723.571174 -194.650117 
L 725.934418 -196.000374 
L 728.297661 -194.922105 
L 730.660904 -194.488378 
L 733.024148 -195.500498 
L 735.387391 -195.118111 
L 737.750634 -197.427901 
L 740.113878 -195.056267 
L 742.477121 -195.589119 
L 744.840365 -195.72054 
L 747.203608 -195.03638 
L 749.566851 -195.287923 
L 751.930095 -196.432781 
L 754.293338 -194.934706 
L 756.656581 -197.238982 
L 759.019825 -196.547925 
L 761.383068 -195.968813 
L 763.746312 -196.194655 
L 766.109555 -196.78664 
L 768.472798 -196.524923 
L 768.472798 -200.249544 
L 768.472798 -200.249544 
L 766.109555 -200.884934 
L 763.746312 -199.764262 
L 761.383068 -199.324071 
L 759.019825 -201.096463 
L 756.656581 -199.141303 
L 754.293338 -199.624182 
L 751.930095 -200.341686 
L 749.566851 -200.997214 
L 747.203608 -200.895352 
L 744.840365 -199.545159 
L 742.477121 -199.105694 
L 740.113878 -199.380288 
L 737.750634 -198.299943 
L 735.387391 -200.351475 
L 733.024148 -199.833163 
L 730.660904 -198.969517 
L 728.297661 -199.582414 
L 725.934418 -199.632323 
L 723.571174 -200.085473 
L 721.207931 -199.562593 
L 718.844687 -201.049446 
L 716.481444 -200.88079 
L 714.118201 -201.730083 
L 711.754957 -201.898332 
L 709.391714 -202.511875 
L 707.028471 -202.71728 
L 704.665227 -204.197219 
L 702.301984 -202.285247 
L 699.938741 -203.588329 
L 697.575497 -203.381692 
L 695.212254 -203.409699 
L 692.84901 -202.478955 
L 690.485767 -202.102824 
L 688.122524 -200.653686 
L 685.75928 -200.622381 
L 683.396037 -199.493046 
L 681.032794 -196.833616 
L 678.66955 -192.53121 
L 676.306307 -186.645595 
L 673.943063 -179.113486 
L 671.57982 -170.595433 
L 669.216577 -157.741851 
L 666.853333 -143.543733 
L 664.49009 -127.392626 
L 662.126847 -109.309794 
L 659.763603 -91.571323 
L 657.40036 -76.212639 
L 655.037116 -64.504302 
L 652.673873 -57.14888 
L 650.31063 -53.699157 
L 647.947386 -52.52472 
L 645.584143 -51.921654 
L 643.2209 -51.583272 
L 640.857656 -51.375598 
L 638.494413 -50.807589 
L 636.13117 -50.48881 
L 633.767926 -50.063954 
L 631.404683 -49.513437 
L 629.041439 -49.185794 
L 626.678196 -48.700914 
z
" style="stroke: #90ee90; stroke-opacity: 0.2"/>
    </defs>
    <g clip-path="url(#pd9b0f86056)">
     <use xlink:href="#m9f4a7e0507" x="0" y="250.56" style="fill: #90ee90; fill-opacity: 0.2; stroke: #90ee90; stroke-opacity: 0.2"/>
    </g>
   </g>
   <g id="PolyCollection_8">
    <defs>
     <path id="m42aacff915" d="M 626.678196 -48.502956 
L 626.678196 -48.094501 
L 629.041439 -48.698585 
L 631.404683 -48.915982 
L 633.767926 -49.258369 
L 636.13117 -49.593886 
L 638.494413 -50.067001 
L 640.857656 -50.331235 
L 643.2209 -50.440969 
L 645.584143 -50.952121 
L 647.947386 -51.287939 
L 650.31063 -51.616261 
L 652.673873 -52.123267 
L 655.037116 -52.988657 
L 657.40036 -53.576997 
L 659.763603 -54.648703 
L 662.126847 -55.529583 
L 664.49009 -56.941952 
L 666.853333 -58.059295 
L 669.216577 -59.148624 
L 671.57982 -60.193374 
L 673.943063 -61.324185 
L 676.306307 -62.656073 
L 678.66955 -63.832217 
L 681.032794 -65.200793 
L 683.396037 -66.591098 
L 685.75928 -67.892231 
L 688.122524 -69.637356 
L 690.485767 -71.333811 
L 692.84901 -73.017133 
L 695.212254 -74.918559 
L 697.575497 -77.1026 
L 699.938741 -78.60702 
L 702.301984 -81.174778 
L 704.665227 -83.16029 
L 707.028471 -85.265409 
L 709.391714 -87.203337 
L 711.754957 -89.542126 
L 714.118201 -91.72813 
L 716.481444 -93.618038 
L 718.844687 -95.843905 
L 721.207931 -98.245799 
L 723.571174 -100.230325 
L 725.934418 -102.318819 
L 728.297661 -104.389045 
L 730.660904 -106.807643 
L 733.024148 -109.205974 
L 735.387391 -110.855228 
L 737.750634 -112.860446 
L 740.113878 -113.850767 
L 742.477121 -116.460268 
L 744.840365 -117.872513 
L 747.203608 -120.102072 
L 749.566851 -121.317413 
L 751.930095 -123.63826 
L 754.293338 -124.462441 
L 756.656581 -126.111296 
L 759.019825 -127.693249 
L 761.383068 -128.267204 
L 763.746312 -129.516807 
L 766.109555 -131.749134 
L 768.472798 -132.942721 
L 768.472798 -174.189137 
L 768.472798 -174.189137 
L 766.109555 -175.573019 
L 763.746312 -175.263547 
L 761.383068 -174.990789 
L 759.019825 -174.273455 
L 756.656581 -174.034012 
L 754.293338 -175.696459 
L 751.930095 -175.107019 
L 749.566851 -175.38899 
L 747.203608 -176.237333 
L 744.840365 -176.033832 
L 742.477121 -176.712082 
L 740.113878 -176.05938 
L 737.750634 -176.818629 
L 735.387391 -176.417972 
L 733.024148 -176.748752 
L 730.660904 -178.413087 
L 728.297661 -178.724847 
L 725.934418 -178.062977 
L 723.571174 -179.240773 
L 721.207931 -178.996128 
L 718.844687 -179.563033 
L 716.481444 -179.872355 
L 714.118201 -181.340896 
L 711.754957 -181.678318 
L 709.391714 -181.203458 
L 707.028471 -182.434576 
L 704.665227 -182.337707 
L 702.301984 -182.610563 
L 699.938741 -180.869495 
L 697.575497 -181.993324 
L 695.212254 -181.785083 
L 692.84901 -181.03597 
L 690.485767 -178.464836 
L 688.122524 -178.666115 
L 685.75928 -175.545121 
L 683.396037 -173.502497 
L 681.032794 -170.121831 
L 678.66955 -166.202919 
L 676.306307 -160.460476 
L 673.943063 -153.188304 
L 671.57982 -145.184947 
L 669.216577 -135.151801 
L 666.853333 -124.592348 
L 664.49009 -112.212328 
L 662.126847 -99.651596 
L 659.763603 -87.483666 
L 657.40036 -76.729887 
L 655.037116 -67.69473 
L 652.673873 -60.975498 
L 650.31063 -55.705687 
L 647.947386 -52.826177 
L 645.584143 -51.694003 
L 643.2209 -50.927459 
L 640.857656 -50.439123 
L 638.494413 -50.214026 
L 636.13117 -49.912369 
L 633.767926 -49.45952 
L 631.404683 -49.108689 
L 629.041439 -48.823163 
L 626.678196 -48.502956 
z
" style="stroke: #3cb371; stroke-opacity: 0.2"/>
    </defs>
    <g clip-path="url(#pd9b0f86056)">
     <use xlink:href="#m42aacff915" x="0" y="250.56" style="fill: #3cb371; fill-opacity: 0.2; stroke: #3cb371; stroke-opacity: 0.2"/>
    </g>
   </g>
   <g id="PolyCollection_9">
    <defs>
     <path id="m69d5daae71" d="M 626.678196 -48.445187 
L 626.678196 -48.342565 
L 629.041439 -48.681033 
L 631.404683 -48.992867 
L 633.767926 -49.42354 
L 636.13117 -49.797148 
L 638.494413 -50.054959 
L 640.857656 -50.368075 
L 643.2209 -50.673459 
L 645.584143 -51.002793 
L 647.947386 -51.470335 
L 650.31063 -51.704409 
L 652.673873 -52.106052 
L 655.037116 -52.665957 
L 657.40036 -53.228515 
L 659.763603 -53.91572 
L 662.126847 -54.226666 
L 664.49009 -55.097406 
L 666.853333 -55.344755 
L 669.216577 -55.611316 
L 671.57982 -56.17341 
L 673.943063 -56.71116 
L 676.306307 -57.009841 
L 678.66955 -57.21238 
L 681.032794 -57.584693 
L 683.396037 -57.892358 
L 685.75928 -58.085426 
L 688.122524 -58.471291 
L 690.485767 -58.516929 
L 692.84901 -58.645056 
L 695.212254 -58.864478 
L 697.575497 -59.138332 
L 699.938741 -59.225785 
L 702.301984 -59.469407 
L 704.665227 -59.459885 
L 707.028471 -59.581592 
L 709.391714 -59.846418 
L 711.754957 -59.920917 
L 714.118201 -59.89961 
L 716.481444 -60.088279 
L 718.844687 -60.32144 
L 721.207931 -60.43631 
L 723.571174 -60.60316 
L 725.934418 -60.708827 
L 728.297661 -60.504005 
L 730.660904 -60.760203 
L 733.024148 -60.941565 
L 735.387391 -60.922804 
L 737.750634 -61.1272 
L 740.113878 -61.211614 
L 742.477121 -61.249356 
L 744.840365 -61.05787 
L 747.203608 -61.380016 
L 749.566851 -61.799336 
L 751.930095 -61.716474 
L 754.293338 -61.940614 
L 756.656581 -61.938292 
L 759.019825 -62.011327 
L 761.383068 -62.280935 
L 763.746312 -62.198491 
L 766.109555 -62.085578 
L 768.472798 -62.330233 
L 768.472798 -62.784312 
L 768.472798 -62.784312 
L 766.109555 -62.675562 
L 763.746312 -62.684981 
L 761.383068 -62.39865 
L 759.019825 -62.260482 
L 756.656581 -62.116037 
L 754.293338 -62.19527 
L 751.930095 -62.31067 
L 749.566851 -62.023921 
L 747.203608 -61.750022 
L 744.840365 -61.881873 
L 742.477121 -61.663202 
L 740.113878 -61.497057 
L 737.750634 -61.404767 
L 735.387391 -61.296536 
L 733.024148 -61.19622 
L 730.660904 -61.03777 
L 728.297661 -61.19882 
L 725.934418 -61.048368 
L 723.571174 -60.787036 
L 721.207931 -60.872331 
L 718.844687 -60.660981 
L 716.481444 -60.350442 
L 714.118201 -60.607074 
L 711.754957 -60.232361 
L 709.391714 -60.225305 
L 707.028471 -60.136726 
L 704.665227 -59.972991 
L 702.301984 -59.881913 
L 699.938741 -60.030388 
L 697.575497 -59.4654 
L 695.212254 -59.589737 
L 692.84901 -59.347014 
L 690.485767 -58.890662 
L 688.122524 -58.82756 
L 685.75928 -58.601762 
L 683.396037 -58.101612 
L 681.032794 -57.947132 
L 678.66955 -57.626227 
L 676.306307 -57.257881 
L 673.943063 -56.781788 
L 671.57982 -56.40884 
L 669.216577 -56.114606 
L 666.853333 -55.674356 
L 664.49009 -55.228487 
L 662.126847 -54.916678 
L 659.763603 -54.221778 
L 657.40036 -53.576918 
L 655.037116 -53.120037 
L 652.673873 -52.592542 
L 650.31063 -52.069894 
L 647.947386 -51.71949 
L 645.584143 -51.167593 
L 643.2209 -50.735747 
L 640.857656 -50.674133 
L 638.494413 -50.266846 
L 636.13117 -50.021734 
L 633.767926 -49.797272 
L 631.404683 -49.493949 
L 629.041439 -48.867899 
L 626.678196 -48.445187 
z
" style="stroke: #006400; stroke-opacity: 0.2"/>
    </defs>
    <g clip-path="url(#pd9b0f86056)">
     <use xlink:href="#m69d5daae71" x="0" y="250.56" style="fill: #006400; fill-opacity: 0.2; stroke: #006400; stroke-opacity: 0.2"/>
    </g>
   </g>
   <g id="matplotlib.axis_5">
    <g id="xtick_7">
     <g id="line2d_31">
      <g>
       <use xlink:href="#m62211e34fd" x="626.678196" y="205.068125" style="stroke: #000000; stroke-width: 0.8"/>
      </g>
     </g>
     <g id="text_31">
      <!-- 0 -->
      <g transform="translate(623.496946 219.666562)scale(0.1 -0.1)">
       <use xlink:href="#DejaVuSans-30"/>
      </g>
     </g>
    </g>
    <g id="xtick_8">
     <g id="line2d_32">
      <g>
       <use xlink:href="#m62211e34fd" x="685.75928" y="205.068125" style="stroke: #000000; stroke-width: 0.8"/>
      </g>
     </g>
     <g id="text_32">
      <!-- 100 -->
      <g transform="translate(676.21553 219.666562)scale(0.1 -0.1)">
       <use xlink:href="#DejaVuSans-31"/>
       <use xlink:href="#DejaVuSans-30" x="63.623047"/>
       <use xlink:href="#DejaVuSans-30" x="127.246094"/>
      </g>
     </g>
    </g>
    <g id="xtick_9">
     <g id="line2d_33">
      <g>
       <use xlink:href="#m62211e34fd" x="744.840365" y="205.068125" style="stroke: #000000; stroke-width: 0.8"/>
      </g>
     </g>
     <g id="text_33">
      <!-- 200 -->
      <g transform="translate(735.296615 219.666562)scale(0.1 -0.1)">
       <use xlink:href="#DejaVuSans-32"/>
       <use xlink:href="#DejaVuSans-30" x="63.623047"/>
       <use xlink:href="#DejaVuSans-30" x="127.246094"/>
      </g>
     </g>
    </g>
    <g id="text_34">
     <!-- Time (min) -->
     <g transform="translate(664.992685 240.864375)scale(0.12 -0.12)">
      <use xlink:href="#DejaVuSans-54"/>
      <use xlink:href="#DejaVuSans-69" x="57.958984"/>
      <use xlink:href="#DejaVuSans-6d" x="85.742188"/>
      <use xlink:href="#DejaVuSans-65" x="183.154297"/>
      <use xlink:href="#DejaVuSans-20" x="244.677734"/>
      <use xlink:href="#DejaVuSans-28" x="276.464844"/>
      <use xlink:href="#DejaVuSans-6d" x="315.478516"/>
      <use xlink:href="#DejaVuSans-69" x="412.890625"/>
      <use xlink:href="#DejaVuSans-6e" x="440.673828"/>
      <use xlink:href="#DejaVuSans-29" x="504.052734"/>
     </g>
    </g>
   </g>
   <g id="matplotlib.axis_6">
    <g id="ytick_13">
     <g id="line2d_34">
      <g>
       <use xlink:href="#mdc17e86f98" x="619.588466" y="205.068125" style="stroke: #000000; stroke-width: 0.8"/>
      </g>
     </g>
     <g id="text_35">
      <!-- 0.0 -->
      <g transform="translate(596.685341 208.867344)scale(0.1 -0.1)">
       <use xlink:href="#DejaVuSans-30"/>
       <use xlink:href="#DejaVuSans-2e" x="63.623047"/>
       <use xlink:href="#DejaVuSans-30" x="95.410156"/>
      </g>
     </g>
    </g>
    <g id="ytick_14">
     <g id="line2d_35">
      <g>
       <use xlink:href="#mdc17e86f98" x="619.588466" y="173.873312" style="stroke: #000000; stroke-width: 0.8"/>
      </g>
     </g>
     <g id="text_36">
      <!-- 0.2 -->
      <g transform="translate(596.685341 177.672531)scale(0.1 -0.1)">
       <use xlink:href="#DejaVuSans-30"/>
       <use xlink:href="#DejaVuSans-2e" x="63.623047"/>
       <use xlink:href="#DejaVuSans-32" x="95.410156"/>
      </g>
     </g>
    </g>
    <g id="ytick_15">
     <g id="line2d_36">
      <g>
       <use xlink:href="#mdc17e86f98" x="619.588466" y="142.6785" style="stroke: #000000; stroke-width: 0.8"/>
      </g>
     </g>
     <g id="text_37">
      <!-- 0.4 -->
      <g transform="translate(596.685341 146.477719)scale(0.1 -0.1)">
       <use xlink:href="#DejaVuSans-30"/>
       <use xlink:href="#DejaVuSans-2e" x="63.623047"/>
       <use xlink:href="#DejaVuSans-34" x="95.410156"/>
      </g>
     </g>
    </g>
    <g id="ytick_16">
     <g id="line2d_37">
      <g>
       <use xlink:href="#mdc17e86f98" x="619.588466" y="111.483687" style="stroke: #000000; stroke-width: 0.8"/>
      </g>
     </g>
     <g id="text_38">
      <!-- 0.6 -->
      <g transform="translate(596.685341 115.282906)scale(0.1 -0.1)">
       <use xlink:href="#DejaVuSans-30"/>
       <use xlink:href="#DejaVuSans-2e" x="63.623047"/>
       <use xlink:href="#DejaVuSans-36" x="95.410156"/>
      </g>
     </g>
    </g>
    <g id="ytick_17">
     <g id="line2d_38">
      <g>
       <use xlink:href="#mdc17e86f98" x="619.588466" y="80.288875" style="stroke: #000000; stroke-width: 0.8"/>
      </g>
     </g>
     <g id="text_39">
      <!-- 0.8 -->
      <g transform="translate(596.685341 84.088094)scale(0.1 -0.1)">
       <use xlink:href="#DejaVuSans-30"/>
       <use xlink:href="#DejaVuSans-2e" x="63.623047"/>
       <use xlink:href="#DejaVuSans-38" x="95.410156"/>
      </g>
     </g>
    </g>
    <g id="ytick_18">
     <g id="line2d_39">
      <g>
       <use xlink:href="#mdc17e86f98" x="619.588466" y="49.094062" style="stroke: #000000; stroke-width: 0.8"/>
      </g>
     </g>
     <g id="text_40">
      <!-- 1.0 -->
      <g transform="translate(596.685341 52.893281)scale(0.1 -0.1)">
       <use xlink:href="#DejaVuSans-31"/>
       <use xlink:href="#DejaVuSans-2e" x="63.623047"/>
       <use xlink:href="#DejaVuSans-30" x="95.410156"/>
      </g>
     </g>
    </g>
   </g>
   <g id="line2d_40">
    <path d="M 626.678196 201.95544 
L 629.041439 201.486498 
L 631.404683 201.058334 
L 633.767926 200.623374 
L 636.13117 200.19521 
L 638.494413 199.930156 
L 640.857656 199.535973 
L 643.2209 199.107809 
L 645.584143 198.727219 
L 647.947386 198.197111 
L 650.31063 197.05534 
L 652.673873 194.221301 
L 655.037116 188.2338 
L 657.40036 178.229712 
L 659.763603 164.100297 
L 662.126847 147.021307 
L 664.49009 129.242303 
L 666.853333 111.837093 
L 669.216577 96.695036 
L 671.57982 83.054951 
L 673.943063 73.526601 
L 676.306307 65.024485 
L 678.66955 59.200094 
L 681.032794 55.244674 
L 683.396037 52.233933 
L 685.75928 50.725164 
L 688.122524 50.663998 
L 690.485767 49.916409 
L 692.84901 49.311543 
L 695.212254 49.311543 
L 697.575497 49.576597 
L 699.938741 49.094062 
L 702.301984 49.603782 
L 704.665227 49.712522 
L 707.028471 49.814466 
L 709.391714 50.201852 
L 711.754957 50.820311 
L 714.118201 50.888274 
L 716.481444 51.05818 
L 718.844687 51.866935 
L 721.207931 53.464055 
L 723.571174 53.192205 
L 725.934418 52.743652 
L 728.297661 53.307741 
L 730.660904 53.831053 
L 733.024148 52.893169 
L 735.387391 52.825207 
L 737.750634 52.696078 
L 740.113878 53.341722 
L 742.477121 53.212593 
L 744.840365 52.927151 
L 747.203608 52.594134 
L 749.566851 52.417431 
L 751.930095 52.172766 
L 754.293338 53.280556 
L 756.656581 52.369858 
L 759.019825 51.737806 
L 761.383068 52.913558 
L 763.746312 52.580542 
L 766.109555 51.724213 
L 768.472798 52.172766 
" clip-path="url(#pd9b0f86056)" style="fill: none; stroke: #90ee90; stroke-width: 2; stroke-linecap: square"/>
   </g>
   <g id="line2d_41">
    <path d="M 626.678196 202.261272 
L 629.041439 201.799126 
L 631.404683 201.547665 
L 633.767926 201.201056 
L 636.13117 200.806873 
L 638.494413 200.419486 
L 640.857656 200.174821 
L 643.2209 199.875786 
L 645.584143 199.236938 
L 647.947386 198.502942 
L 650.31063 196.899026 
L 652.673873 194.010617 
L 655.037116 190.218307 
L 657.40036 185.406558 
L 659.763603 179.493816 
L 662.126847 172.969411 
L 664.49009 165.98286 
L 666.853333 159.234178 
L 669.216577 153.409787 
L 671.57982 147.870839 
L 673.943063 143.303756 
L 676.306307 139.001726 
L 678.66955 135.542432 
L 681.032794 132.898688 
L 683.396037 130.513203 
L 685.75928 128.841324 
L 688.122524 126.408264 
L 690.485767 125.660676 
L 692.84901 123.533448 
L 695.212254 122.208179 
L 697.575497 121.012038 
L 699.938741 120.821742 
L 702.301984 118.66733 
L 704.665227 117.811001 
L 707.028471 116.710008 
L 709.391714 116.356603 
L 711.754957 114.949778 
L 714.118201 114.025487 
L 716.481444 113.814803 
L 718.844687 112.856531 
L 721.207931 111.939037 
L 723.571174 110.824451 
L 725.934418 110.369102 
L 728.297661 109.003054 
L 730.660904 107.949635 
L 733.024148 107.582637 
L 735.387391 106.9234 
L 737.750634 105.720463 
L 740.113878 105.604927 
L 742.477121 103.973825 
L 744.840365 103.606827 
L 747.203608 102.390298 
L 749.566851 102.206799 
L 751.930095 101.18736 
L 754.293338 100.48055 
L 756.656581 100.487346 
L 759.019825 99.576648 
L 761.383068 98.931004 
L 763.746312 98.169823 
L 766.109555 96.898923 
L 768.472798 96.994071 
" clip-path="url(#pd9b0f86056)" style="fill: none; stroke: #3cb371; stroke-width: 2; stroke-linecap: square"/>
   </g>
   <g id="line2d_42">
    <path d="M 626.678196 202.166124 
L 629.041439 201.785534 
L 631.404683 201.316592 
L 633.767926 200.949594 
L 636.13117 200.650559 
L 638.494413 200.399098 
L 640.857656 200.038896 
L 643.2209 199.855397 
L 645.584143 199.474807 
L 647.947386 198.965088 
L 650.31063 198.672849 
L 652.673873 198.210703 
L 655.037116 197.667003 
L 657.40036 197.157284 
L 659.763603 196.491251 
L 662.126847 195.988328 
L 664.49009 195.397053 
L 666.853333 195.050444 
L 669.216577 194.697039 
L 671.57982 194.268875 
L 673.943063 193.813526 
L 676.306307 193.426139 
L 678.66955 193.140697 
L 681.032794 192.794088 
L 683.396037 192.563015 
L 685.75928 192.216406 
L 688.122524 191.910574 
L 690.485767 191.856204 
L 692.84901 191.563965 
L 695.212254 191.332893 
L 697.575497 191.258134 
L 699.938741 190.931914 
L 702.301984 190.88434 
L 704.665227 190.843562 
L 707.028471 190.700841 
L 709.391714 190.524138 
L 711.754957 190.483361 
L 714.118201 190.306658 
L 716.481444 190.340639 
L 718.844687 190.068789 
L 721.207931 189.905679 
L 723.571174 189.864902 
L 725.934418 189.681403 
L 728.297661 189.708588 
L 730.660904 189.661014 
L 733.024148 189.491108 
L 735.387391 189.45033 
L 737.750634 189.294016 
L 740.113878 189.205665 
L 742.477121 189.103721 
L 744.840365 189.090128 
L 747.203608 188.994981 
L 749.566851 188.648372 
L 751.930095 188.546428 
L 754.293338 188.492058 
L 756.656581 188.532835 
L 759.019825 188.424095 
L 761.383068 188.220208 
L 763.746312 188.118264 
L 766.109555 188.17943 
L 768.472798 188.002728 
" clip-path="url(#pd9b0f86056)" style="fill: none; stroke: #006400; stroke-width: 2; stroke-linecap: square"/>
   </g>
   <g id="patch_11">
    <path d="M 619.588466 205.068125 
L 619.588466 49.094062 
" style="fill: none; stroke: #000000; stroke-width: 0.8; stroke-linejoin: miter; stroke-linecap: square"/>
   </g>
   <g id="patch_12">
    <path d="M 619.588466 205.068125 
L 775.562528 205.068125 
" style="fill: none; stroke: #000000; stroke-width: 0.8; stroke-linejoin: miter; stroke-linecap: square"/>
   </g>
   <g id="text_41">
    <!-- vRNA = 10fM -->
    <g transform="translate(660.632528 43.094062)scale(0.1 -0.1)">
     <use xlink:href="#DejaVuSans-Bold-76"/>
     <use xlink:href="#DejaVuSans-Bold-52" x="65.185547"/>
     <use xlink:href="#DejaVuSans-Bold-4e" x="142.1875"/>
     <use xlink:href="#DejaVuSans-Bold-41" x="225.878906"/>
     <use xlink:href="#DejaVuSans-Bold-20" x="303.271484"/>
     <use xlink:href="#DejaVuSans-Bold-3d" x="338.085938"/>
     <use xlink:href="#DejaVuSans-Bold-20" x="421.875"/>
     <use xlink:href="#DejaVuSans-Bold-31" x="456.689453"/>
     <use xlink:href="#DejaVuSans-Bold-30" x="526.269531"/>
     <use xlink:href="#DejaVuSans-Bold-66" x="595.849609"/>
     <use xlink:href="#DejaVuSans-Bold-4d" x="639.355469"/>
    </g>
   </g>
   <g id="legend_3">
    <g id="patch_13">
     <path d="M 626.588466 101.128437 
L 696.502528 101.128437 
Q 698.502528 101.128437 698.502528 99.128437 
L 698.502528 56.094062 
Q 698.502528 54.094062 696.502528 54.094062 
L 626.588466 54.094062 
Q 624.588466 54.094062 624.588466 56.094062 
L 624.588466 99.128437 
Q 624.588466 101.128437 626.588466 101.128437 
z
" style="fill: #ffffff; opacity: 0.8; stroke: #cccccc; stroke-linejoin: miter"/>
    </g>
    <g id="line2d_43">
     <path d="M 628.588466 62.1925 
L 638.588466 62.1925 
L 648.588466 62.1925 
" style="fill: none; stroke: #90ee90; stroke-width: 2; stroke-linecap: square"/>
    </g>
    <g id="text_42">
     <!-- T7 1.0 -->
     <g transform="translate(656.588466 65.6925)scale(0.1 -0.1)">
      <use xlink:href="#DejaVuSans-54"/>
      <use xlink:href="#DejaVuSans-37" x="61.083984"/>
      <use xlink:href="#DejaVuSans-20" x="124.707031"/>
      <use xlink:href="#DejaVuSans-31" x="156.494141"/>
      <use xlink:href="#DejaVuSans-2e" x="220.117188"/>
      <use xlink:href="#DejaVuSans-30" x="251.904297"/>
     </g>
    </g>
    <g id="line2d_44">
     <path d="M 628.588466 76.870625 
L 638.588466 76.870625 
L 648.588466 76.870625 
" style="fill: none; stroke: #3cb371; stroke-width: 2; stroke-linecap: square"/>
    </g>
    <g id="text_43">
     <!-- T7 5.0 -->
     <g transform="translate(656.588466 80.370625)scale(0.1 -0.1)">
      <use xlink:href="#DejaVuSans-54"/>
      <use xlink:href="#DejaVuSans-37" x="61.083984"/>
      <use xlink:href="#DejaVuSans-20" x="124.707031"/>
      <use xlink:href="#DejaVuSans-35" x="156.494141"/>
      <use xlink:href="#DejaVuSans-2e" x="220.117188"/>
      <use xlink:href="#DejaVuSans-30" x="251.904297"/>
     </g>
    </g>
    <g id="line2d_45">
     <path d="M 628.588466 91.54875 
L 638.588466 91.54875 
L 648.588466 91.54875 
" style="fill: none; stroke: #006400; stroke-width: 2; stroke-linecap: square"/>
    </g>
    <g id="text_44">
     <!-- T7 20.0 -->
     <g transform="translate(656.588466 95.04875)scale(0.1 -0.1)">
      <use xlink:href="#DejaVuSans-54"/>
      <use xlink:href="#DejaVuSans-37" x="61.083984"/>
      <use xlink:href="#DejaVuSans-20" x="124.707031"/>
      <use xlink:href="#DejaVuSans-32" x="156.494141"/>
      <use xlink:href="#DejaVuSans-30" x="220.117188"/>
      <use xlink:href="#DejaVuSans-2e" x="283.740234"/>
      <use xlink:href="#DejaVuSans-30" x="315.527344"/>
     </g>
    </g>
   </g>
  </g>
  <g id="text_45">
   <!-- T7_Sweep_Cas13=90 rep1 -->
   <g transform="translate(308.225952 16.10625)scale(0.12 -0.12)">
    <defs>
     <path id="DejaVuSans-Bold-54" d="M 31 4666 
L 4331 4666 
L 4331 3756 
L 2784 3756 
L 2784 0 
L 1581 0 
L 1581 3756 
L 31 3756 
L 31 4666 
z
" transform="scale(0.015625)"/>
     <path id="DejaVuSans-Bold-37" d="M 428 4666 
L 3944 4666 
L 3944 3988 
L 2125 0 
L 953 0 
L 2675 3781 
L 428 3781 
L 428 4666 
z
" transform="scale(0.015625)"/>
     <path id="DejaVuSans-Bold-5f" d="M 3200 -916 
L 3200 -1509 
L 0 -1509 
L 0 -916 
L 3200 -916 
z
" transform="scale(0.015625)"/>
     <path id="DejaVuSans-Bold-53" d="M 3834 4519 
L 3834 3531 
Q 3450 3703 3084 3790 
Q 2719 3878 2394 3878 
Q 1963 3878 1756 3759 
Q 1550 3641 1550 3391 
Q 1550 3203 1689 3098 
Q 1828 2994 2194 2919 
L 2706 2816 
Q 3484 2659 3812 2340 
Q 4141 2022 4141 1434 
Q 4141 663 3683 286 
Q 3225 -91 2284 -91 
Q 1841 -91 1394 -6 
Q 947 78 500 244 
L 500 1259 
Q 947 1022 1364 901 
Q 1781 781 2169 781 
Q 2563 781 2772 912 
Q 2981 1044 2981 1288 
Q 2981 1506 2839 1625 
Q 2697 1744 2272 1838 
L 1806 1941 
Q 1106 2091 782 2419 
Q 459 2747 459 3303 
Q 459 4000 909 4375 
Q 1359 4750 2203 4750 
Q 2588 4750 2994 4692 
Q 3400 4634 3834 4519 
z
" transform="scale(0.015625)"/>
     <path id="DejaVuSans-Bold-77" d="M 225 3500 
L 1313 3500 
L 1900 1088 
L 2491 3500 
L 3425 3500 
L 4013 1113 
L 4603 3500 
L 5691 3500 
L 4769 0 
L 3547 0 
L 2956 2406 
L 2369 0 
L 1147 0 
L 225 3500 
z
" transform="scale(0.015625)"/>
     <path id="DejaVuSans-Bold-65" d="M 4031 1759 
L 4031 1441 
L 1416 1441 
Q 1456 1047 1700 850 
Q 1944 653 2381 653 
Q 2734 653 3104 758 
Q 3475 863 3866 1075 
L 3866 213 
Q 3469 63 3072 -14 
Q 2675 -91 2278 -91 
Q 1328 -91 801 392 
Q 275 875 275 1747 
Q 275 2603 792 3093 
Q 1309 3584 2216 3584 
Q 3041 3584 3536 3087 
Q 4031 2591 4031 1759 
z
M 2881 2131 
Q 2881 2450 2695 2645 
Q 2509 2841 2209 2841 
Q 1884 2841 1681 2658 
Q 1478 2475 1428 2131 
L 2881 2131 
z
" transform="scale(0.015625)"/>
     <path id="DejaVuSans-Bold-70" d="M 1656 506 
L 1656 -1331 
L 538 -1331 
L 538 3500 
L 1656 3500 
L 1656 2988 
Q 1888 3294 2169 3439 
Q 2450 3584 2816 3584 
Q 3463 3584 3878 3070 
Q 4294 2556 4294 1747 
Q 4294 938 3878 423 
Q 3463 -91 2816 -91 
Q 2450 -91 2169 54 
Q 1888 200 1656 506 
z
M 2400 2772 
Q 2041 2772 1848 2508 
Q 1656 2244 1656 1747 
Q 1656 1250 1848 986 
Q 2041 722 2400 722 
Q 2759 722 2948 984 
Q 3138 1247 3138 1747 
Q 3138 2247 2948 2509 
Q 2759 2772 2400 2772 
z
" transform="scale(0.015625)"/>
     <path id="DejaVuSans-Bold-43" d="M 4288 256 
Q 3956 84 3597 -3 
Q 3238 -91 2847 -91 
Q 1681 -91 1000 561 
Q 319 1213 319 2328 
Q 319 3447 1000 4098 
Q 1681 4750 2847 4750 
Q 3238 4750 3597 4662 
Q 3956 4575 4288 4403 
L 4288 3438 
Q 3953 3666 3628 3772 
Q 3303 3878 2944 3878 
Q 2300 3878 1931 3465 
Q 1563 3053 1563 2328 
Q 1563 1606 1931 1193 
Q 2300 781 2944 781 
Q 3303 781 3628 887 
Q 3953 994 4288 1222 
L 4288 256 
z
" transform="scale(0.015625)"/>
     <path id="DejaVuSans-Bold-61" d="M 2106 1575 
Q 1756 1575 1579 1456 
Q 1403 1338 1403 1106 
Q 1403 894 1545 773 
Q 1688 653 1941 653 
Q 2256 653 2472 879 
Q 2688 1106 2688 1447 
L 2688 1575 
L 2106 1575 
z
M 3816 1997 
L 3816 0 
L 2688 0 
L 2688 519 
Q 2463 200 2181 54 
Q 1900 -91 1497 -91 
Q 953 -91 614 226 
Q 275 544 275 1050 
Q 275 1666 698 1953 
Q 1122 2241 2028 2241 
L 2688 2241 
L 2688 2328 
Q 2688 2594 2478 2717 
Q 2269 2841 1825 2841 
Q 1466 2841 1156 2769 
Q 847 2697 581 2553 
L 581 3406 
Q 941 3494 1303 3539 
Q 1666 3584 2028 3584 
Q 2975 3584 3395 3211 
Q 3816 2838 3816 1997 
z
" transform="scale(0.015625)"/>
     <path id="DejaVuSans-Bold-73" d="M 3272 3391 
L 3272 2541 
Q 2913 2691 2578 2766 
Q 2244 2841 1947 2841 
Q 1628 2841 1473 2761 
Q 1319 2681 1319 2516 
Q 1319 2381 1436 2309 
Q 1553 2238 1856 2203 
L 2053 2175 
Q 2913 2066 3209 1816 
Q 3506 1566 3506 1031 
Q 3506 472 3093 190 
Q 2681 -91 1863 -91 
Q 1516 -91 1145 -36 
Q 775 19 384 128 
L 384 978 
Q 719 816 1070 734 
Q 1422 653 1784 653 
Q 2113 653 2278 743 
Q 2444 834 2444 1013 
Q 2444 1163 2330 1236 
Q 2216 1309 1875 1350 
L 1678 1375 
Q 931 1469 631 1722 
Q 331 1975 331 2491 
Q 331 3047 712 3315 
Q 1094 3584 1881 3584 
Q 2191 3584 2531 3537 
Q 2872 3491 3272 3391 
z
" transform="scale(0.015625)"/>
     <path id="DejaVuSans-Bold-33" d="M 2981 2516 
Q 3453 2394 3698 2092 
Q 3944 1791 3944 1325 
Q 3944 631 3412 270 
Q 2881 -91 1863 -91 
Q 1503 -91 1142 -33 
Q 781 25 428 141 
L 428 1069 
Q 766 900 1098 814 
Q 1431 728 1753 728 
Q 2231 728 2486 893 
Q 2741 1059 2741 1369 
Q 2741 1688 2480 1852 
Q 2219 2016 1709 2016 
L 1228 2016 
L 1228 2791 
L 1734 2791 
Q 2188 2791 2409 2933 
Q 2631 3075 2631 3366 
Q 2631 3634 2415 3781 
Q 2200 3928 1806 3928 
Q 1516 3928 1219 3862 
Q 922 3797 628 3669 
L 628 4550 
Q 984 4650 1334 4700 
Q 1684 4750 2022 4750 
Q 2931 4750 3382 4451 
Q 3834 4153 3834 3553 
Q 3834 3144 3618 2883 
Q 3403 2622 2981 2516 
z
" transform="scale(0.015625)"/>
     <path id="DejaVuSans-Bold-39" d="M 641 103 
L 641 966 
Q 928 831 1190 764 
Q 1453 697 1709 697 
Q 2247 697 2547 995 
Q 2847 1294 2900 1881 
Q 2688 1725 2447 1647 
Q 2206 1569 1925 1569 
Q 1209 1569 770 1986 
Q 331 2403 331 3084 
Q 331 3838 820 4291 
Q 1309 4744 2131 4744 
Q 3044 4744 3544 4128 
Q 4044 3513 4044 2388 
Q 4044 1231 3459 570 
Q 2875 -91 1856 -91 
Q 1528 -91 1228 -42 
Q 928 6 641 103 
z
M 2125 2350 
Q 2441 2350 2600 2554 
Q 2759 2759 2759 3169 
Q 2759 3575 2600 3781 
Q 2441 3988 2125 3988 
Q 1809 3988 1650 3781 
Q 1491 3575 1491 3169 
Q 1491 2759 1650 2554 
Q 1809 2350 2125 2350 
z
" transform="scale(0.015625)"/>
     <path id="DejaVuSans-Bold-72" d="M 3138 2547 
Q 2991 2616 2845 2648 
Q 2700 2681 2553 2681 
Q 2122 2681 1889 2404 
Q 1656 2128 1656 1613 
L 1656 0 
L 538 0 
L 538 3500 
L 1656 3500 
L 1656 2925 
Q 1872 3269 2151 3426 
Q 2431 3584 2822 3584 
Q 2878 3584 2943 3579 
Q 3009 3575 3134 3559 
L 3138 2547 
z
" transform="scale(0.015625)"/>
    </defs>
    <use xlink:href="#DejaVuSans-Bold-54"/>
    <use xlink:href="#DejaVuSans-Bold-37" x="68.212891"/>
    <use xlink:href="#DejaVuSans-Bold-5f" x="137.792969"/>
    <use xlink:href="#DejaVuSans-Bold-53" x="187.792969"/>
    <use xlink:href="#DejaVuSans-Bold-77" x="259.814453"/>
    <use xlink:href="#DejaVuSans-Bold-65" x="352.197266"/>
    <use xlink:href="#DejaVuSans-Bold-65" x="420.019531"/>
    <use xlink:href="#DejaVuSans-Bold-70" x="487.841797"/>
    <use xlink:href="#DejaVuSans-Bold-5f" x="559.423828"/>
    <use xlink:href="#DejaVuSans-Bold-43" x="609.423828"/>
    <use xlink:href="#DejaVuSans-Bold-61" x="682.8125"/>
    <use xlink:href="#DejaVuSans-Bold-73" x="750.292969"/>
    <use xlink:href="#DejaVuSans-Bold-31" x="809.814453"/>
    <use xlink:href="#DejaVuSans-Bold-33" x="879.394531"/>
    <use xlink:href="#DejaVuSans-Bold-3d" x="948.974609"/>
    <use xlink:href="#DejaVuSans-Bold-39" x="1032.763672"/>
    <use xlink:href="#DejaVuSans-Bold-30" x="1102.34375"/>
    <use xlink:href="#DejaVuSans-Bold-20" x="1171.923828"/>
    <use xlink:href="#DejaVuSans-Bold-72" x="1206.738281"/>
    <use xlink:href="#DejaVuSans-Bold-65" x="1256.054688"/>
    <use xlink:href="#DejaVuSans-Bold-70" x="1323.876953"/>
    <use xlink:href="#DejaVuSans-Bold-31" x="1395.458984"/>
   </g>
  </g>
 </g>
 <defs>
  <clipPath id="pe77bb9130c">
   <rect x="51.716875" y="49.094062" width="155.974063" height="155.974063"/>
  </clipPath>
  <clipPath id="p744e60dd9c">
   <rect x="335.65267" y="49.094062" width="155.974063" height="155.974063"/>
  </clipPath>
  <clipPath id="pd9b0f86056">
   <rect x="619.588466" y="49.094062" width="155.974063" height="155.974063"/>
  </clipPath>
 </defs>
</svg>
