<?xml version="1.0" encoding="utf-8" standalone="no"?>
<!DOCTYPE svg PUBLIC "-//W3C//DTD SVG 1.1//EN"
  "http://www.w3.org/Graphics/SVG/1.1/DTD/svg11.dtd">
<svg xmlns:xlink="http://www.w3.org/1999/xlink" width="782.762528pt" height="250.56pt" viewBox="0 0 782.762528 250.56" xmlns="http://www.w3.org/2000/svg" version="1.1">
 <metadata>
  <rdf:RDF xmlns:dc="http://purl.org/dc/elements/1.1/" xmlns:cc="http://creativecommons.org/ns#" xmlns:rdf="http://www.w3.org/1999/02/22-rdf-syntax-ns#">
   <cc:Work>
    <dc:type rdf:resource="http://purl.org/dc/dcmitype/StillImage"/>
    <dc:date>2022-12-02T20:15:38.459872</dc:date>
    <dc:format>image/svg+xml</dc:format>
    <dc:creator>
     <cc:Agent>
      <dc:title>Matplotlib v3.5.1, https://matplotlib.org/</dc:title>
     </cc:Agent>
    </dc:creator>
   </cc:Work>
  </rdf:RDF>
 </metadata>
 <defs>
  <style type="text/css">*{stroke-linejoin: round; stroke-linecap: butt}</style>
 </defs>
 <g id="figure_1">
  <g id="patch_1">
   <path d="M 0 250.56 
L 782.762528 250.56 
L 782.762528 -0 
L 0 -0 
L 0 250.56 
z
" style="fill: none"/>
  </g>
  <g id="axes_1">
   <g id="patch_2">
    <path d="M 51.716875 205.068125 
L 207.690938 205.068125 
L 207.690938 49.094062 
L 51.716875 49.094062 
z
" style="fill: #ffffff"/>
   </g>
   <g id="PolyCollection_1">
    <defs>
     <path id="mc540edd4c2" d="M 58.806605 -49.897941 
L 58.806605 -49.77991 
L 61.169848 -50.230966 
L 63.533092 -50.377057 
L 65.896335 -50.767724 
L 68.259579 -51.257094 
L 70.622822 -51.520308 
L 72.986065 -52.008476 
L 75.349309 -52.314129 
L 77.712552 -52.55565 
L 80.075795 -52.651351 
L 82.439039 -52.585177 
L 84.802282 -52.803914 
L 87.165526 -52.815373 
L 89.528769 -53.466207 
L 91.892012 -53.736625 
L 94.255256 -53.838055 
L 96.618499 -53.939202 
L 98.981742 -54.175019 
L 101.344986 -54.721251 
L 103.708229 -54.523323 
L 106.071473 -54.927595 
L 108.434716 -55.025152 
L 110.797959 -55.366768 
L 113.161203 -55.489619 
L 115.524446 -55.730966 
L 117.887689 -55.990161 
L 120.250933 -56.195992 
L 122.614176 -56.297973 
L 124.97742 -56.798402 
L 127.340663 -57.000118 
L 129.703906 -57.066133 
L 132.06715 -57.372589 
L 134.430393 -57.573626 
L 136.793636 -57.964343 
L 139.15688 -58.051071 
L 141.520123 -58.391275 
L 143.883366 -58.698141 
L 146.24661 -58.707517 
L 148.609853 -58.771254 
L 150.973097 -59.076193 
L 153.33634 -58.980912 
L 155.699583 -59.504938 
L 158.062827 -59.28872 
L 160.42607 -59.723185 
L 162.789313 -59.793499 
L 165.152557 -59.984077 
L 167.5158 -60.232539 
L 169.879044 -60.457992 
L 172.242287 -60.595053 
L 174.60553 -60.435668 
L 176.968774 -60.5773 
L 179.332017 -60.852766 
L 181.69526 -60.440543 
L 184.058504 -60.729603 
L 186.421747 -60.877477 
L 188.784991 -61.044872 
L 191.148234 -61.303095 
L 193.511477 -60.889372 
L 195.874721 -61.566512 
L 198.237964 -61.361303 
L 200.601207 -61.463154 
L 200.601207 -61.613169 
L 200.601207 -61.613169 
L 198.237964 -62.187526 
L 195.874721 -62.076818 
L 193.511477 -61.979048 
L 191.148234 -61.603126 
L 188.784991 -61.615646 
L 186.421747 -61.310536 
L 184.058504 -61.779714 
L 181.69526 -61.331664 
L 179.332017 -61.108444 
L 176.968774 -61.36501 
L 174.60553 -60.939635 
L 172.242287 -60.874751 
L 169.879044 -60.898411 
L 167.5158 -60.708059 
L 165.152557 -60.616317 
L 162.789313 -60.334389 
L 160.42607 -60.045599 
L 158.062827 -60.13986 
L 155.699583 -59.999243 
L 153.33634 -59.767261 
L 150.973097 -59.388476 
L 148.609853 -59.447713 
L 146.24661 -58.906643 
L 143.883366 -58.953819 
L 141.520123 -58.447976 
L 139.15688 -58.674778 
L 136.793636 -58.2323 
L 134.430393 -57.885909 
L 132.06715 -57.973544 
L 129.703906 -57.656293 
L 127.340663 -57.495505 
L 124.97742 -57.262517 
L 122.614176 -56.950236 
L 120.250933 -56.636412 
L 117.887689 -56.331937 
L 115.524446 -56.383229 
L 113.161203 -56.05757 
L 110.797959 -55.934718 
L 108.434716 -55.595926 
L 106.071473 -55.239878 
L 103.708229 -54.963742 
L 101.344986 -54.935916 
L 98.981742 -54.650539 
L 96.618499 -54.357149 
L 94.255256 -54.042492 
L 91.892012 -53.879318 
L 89.528769 -53.63943 
L 87.165526 -53.609857 
L 84.802282 -53.14881 
L 82.439039 -52.876142 
L 80.075795 -52.847768 
L 77.712552 -52.924568 
L 75.349309 -52.561282 
L 72.986065 -52.39443 
L 70.622822 -52.126589 
L 68.259579 -51.803896 
L 65.896335 -51.197054 
L 63.533092 -50.888412 
L 61.169848 -50.7132 
L 58.806605 -49.897941 
z
" style="stroke: #90ee90; stroke-opacity: 0.2"/>
    </defs>
    <g clip-path="url(#p824bd9687f)">
     <use xlink:href="#mc540edd4c2" x="0" y="250.56" style="fill: #90ee90; fill-opacity: 0.2; stroke: #90ee90; stroke-opacity: 0.2"/>
    </g>
   </g>
   <g id="PolyCollection_2">
    <defs>
     <path id="m8dee9f0371" d="M 58.806605 -50.173247 
L 58.806605 -46.064764 
L 61.169848 -46.224323 
L 63.533092 -46.187309 
L 65.896335 -46.241097 
L 68.259579 -46.26945 
L 70.622822 -46.626485 
L 72.986065 -46.478679 
L 75.349309 -46.464503 
L 77.712552 -46.392395 
L 80.075795 -46.542052 
L 82.439039 -46.611218 
L 84.802282 -46.385149 
L 87.165526 -46.491209 
L 89.528769 -46.798523 
L 91.892012 -46.805857 
L 94.255256 -46.738857 
L 96.618499 -46.861036 
L 98.981742 -46.819282 
L 101.344986 -46.722466 
L 103.708229 -46.784951 
L 106.071473 -46.630755 
L 108.434716 -46.839563 
L 110.797959 -47.010229 
L 113.161203 -47.076582 
L 115.524446 -46.947284 
L 117.887689 -47.195147 
L 120.250933 -47.180853 
L 122.614176 -47.132475 
L 124.97742 -46.91848 
L 127.340663 -47.344201 
L 129.703906 -47.231763 
L 132.06715 -47.154255 
L 134.430393 -47.221215 
L 136.793636 -47.156093 
L 139.15688 -47.04842 
L 141.520123 -47.125028 
L 143.883366 -47.653351 
L 146.24661 -47.53633 
L 148.609853 -47.589609 
L 150.973097 -47.263339 
L 153.33634 -47.302583 
L 155.699583 -47.290149 
L 158.062827 -47.42504 
L 160.42607 -47.398697 
L 162.789313 -47.461685 
L 165.152557 -47.609765 
L 167.5158 -47.237021 
L 169.879044 -47.43389 
L 172.242287 -47.373847 
L 174.60553 -47.340537 
L 176.968774 -47.500554 
L 179.332017 -47.450451 
L 181.69526 -47.45392 
L 184.058504 -47.825265 
L 186.421747 -47.590359 
L 188.784991 -47.796078 
L 191.148234 -47.598999 
L 193.511477 -47.740456 
L 195.874721 -47.444686 
L 198.237964 -47.472719 
L 200.601207 -47.429423 
L 200.601207 -65.27068 
L 200.601207 -65.27068 
L 198.237964 -65.170683 
L 195.874721 -64.556108 
L 193.511477 -64.789544 
L 191.148234 -64.723099 
L 188.784991 -64.733923 
L 186.421747 -64.82624 
L 184.058504 -64.496833 
L 181.69526 -64.20667 
L 179.332017 -64.096738 
L 176.968774 -64.027735 
L 174.60553 -63.677446 
L 172.242287 -63.889838 
L 169.879044 -63.980997 
L 167.5158 -63.932164 
L 165.152557 -63.200315 
L 162.789313 -63.537397 
L 160.42607 -63.222381 
L 158.062827 -62.931435 
L 155.699583 -63.179727 
L 153.33634 -62.940491 
L 150.973097 -62.734032 
L 148.609853 -62.634564 
L 146.24661 -62.650043 
L 143.883366 -62.36292 
L 141.520123 -62.683341 
L 139.15688 -62.268543 
L 136.793636 -62.17977 
L 134.430393 -62.114648 
L 132.06715 -62.049307 
L 129.703906 -62.028499 
L 127.340663 -61.046651 
L 124.97742 -60.980967 
L 122.614176 -60.653571 
L 120.250933 -60.624092 
L 117.887689 -60.080592 
L 115.524446 -59.572447 
L 113.161203 -59.197445 
L 110.797959 -58.602291 
L 108.434716 -58.546155 
L 106.071473 -58.093454 
L 103.708229 -57.353352 
L 101.344986 -57.340236 
L 98.981742 -56.657513 
L 96.618499 -56.559059 
L 94.255256 -56.03863 
L 91.892012 -55.385724 
L 89.528769 -54.977253 
L 87.165526 -54.71756 
L 84.802282 -54.332214 
L 82.439039 -54.143946 
L 80.075795 -53.891808 
L 77.712552 -53.60676 
L 75.349309 -53.288948 
L 72.986065 -52.669966 
L 70.622822 -52.011854 
L 68.259579 -52.028685 
L 65.896335 -51.603433 
L 63.533092 -51.146915 
L 61.169848 -50.694096 
L 58.806605 -50.173247 
z
" style="stroke: #3cb371; stroke-opacity: 0.2"/>
    </defs>
    <g clip-path="url(#p824bd9687f)">
     <use xlink:href="#m8dee9f0371" x="0" y="250.56" style="fill: #3cb371; fill-opacity: 0.2; stroke: #3cb371; stroke-opacity: 0.2"/>
    </g>
   </g>
   <g id="PolyCollection_3">
    <defs>
     <path id="m8c1bcf4825" d="M 58.806605 -49.136305 
L 58.806605 -48.708225 
L 61.169848 -49.506871 
L 63.533092 -49.836575 
L 65.896335 -50.212955 
L 68.259579 -50.44326 
L 70.622822 -50.744629 
L 72.986065 -51.097066 
L 75.349309 -51.430346 
L 77.712552 -52.195611 
L 80.075795 -52.353755 
L 82.439039 -52.90812 
L 84.802282 -52.96834 
L 87.165526 -53.595277 
L 89.528769 -53.751056 
L 91.892012 -53.986849 
L 94.255256 -54.68743 
L 96.618499 -55.535096 
L 98.981742 -55.944075 
L 101.344986 -56.103697 
L 103.708229 -56.879828 
L 106.071473 -57.238652 
L 108.434716 -57.497545 
L 110.797959 -57.427234 
L 113.161203 -57.639117 
L 115.524446 -57.956307 
L 117.887689 -57.759713 
L 120.250933 -57.91816 
L 122.614176 -58.281425 
L 124.97742 -58.347973 
L 127.340663 -58.402418 
L 129.703906 -58.867348 
L 132.06715 -58.768367 
L 134.430393 -58.84488 
L 136.793636 -59.270135 
L 139.15688 -59.301109 
L 141.520123 -59.671717 
L 143.883366 -59.675061 
L 146.24661 -59.884167 
L 148.609853 -59.984379 
L 150.973097 -59.770671 
L 153.33634 -60.044454 
L 155.699583 -60.130764 
L 158.062827 -59.95127 
L 160.42607 -60.537851 
L 162.789313 -60.140701 
L 165.152557 -60.489572 
L 167.5158 -60.902569 
L 169.879044 -60.682215 
L 172.242287 -60.637657 
L 174.60553 -61.328463 
L 176.968774 -61.065538 
L 179.332017 -61.570381 
L 181.69526 -61.802617 
L 184.058504 -61.501177 
L 186.421747 -61.83754 
L 188.784991 -61.867418 
L 191.148234 -61.603954 
L 193.511477 -62.02785 
L 195.874721 -62.180921 
L 198.237964 -62.439105 
L 200.601207 -62.648514 
L 200.601207 -64.548057 
L 200.601207 -64.548057 
L 198.237964 -64.568464 
L 195.874721 -64.524244 
L 193.511477 -64.526113 
L 191.148234 -64.345202 
L 188.784991 -64.19514 
L 186.421747 -64.054915 
L 184.058504 -63.578569 
L 181.69526 -63.617333 
L 179.332017 -63.528265 
L 176.968774 -63.3338 
L 174.60553 -63.070875 
L 172.242287 -63.081273 
L 169.879044 -63.036715 
L 167.5158 -62.66516 
L 165.152557 -62.643451 
L 162.789313 -62.689919 
L 160.42607 -62.065966 
L 158.062827 -62.161142 
L 155.699583 -62.265151 
L 153.33634 -61.860056 
L 150.973097 -62.001537 
L 148.609853 -61.06962 
L 146.24661 -61.075331 
L 143.883366 -61.114335 
L 141.520123 -61.060979 
L 139.15688 -60.864581 
L 136.793636 -60.914454 
L 134.430393 -60.772703 
L 132.06715 -60.433411 
L 129.703906 -60.315529 
L 127.340663 -60.194553 
L 124.97742 -59.700891 
L 122.614176 -59.86194 
L 120.250933 -59.677099 
L 117.887689 -59.32524 
L 115.524446 -58.977444 
L 113.161203 -58.841029 
L 110.797959 -58.807209 
L 108.434716 -58.623497 
L 106.071473 -58.466585 
L 103.708229 -57.9749 
L 101.344986 -57.749319 
L 98.981742 -57.360835 
L 96.618499 -56.730301 
L 94.255256 -56.179351 
L 91.892012 -55.575817 
L 89.528769 -54.9989 
L 87.165526 -54.587673 
L 84.802282 -53.967195 
L 82.439039 -53.422609 
L 80.075795 -53.164264 
L 77.712552 -52.736501 
L 75.349309 -52.08425 
L 72.986065 -51.58592 
L 70.622822 -51.220149 
L 68.259579 -51.011211 
L 65.896335 -50.598909 
L 63.533092 -50.294881 
L 61.169848 -50.057578 
L 58.806605 -49.136305 
z
" style="stroke: #006400; stroke-opacity: 0.2"/>
    </defs>
    <g clip-path="url(#p824bd9687f)">
     <use xlink:href="#m8c1bcf4825" x="0" y="250.56" style="fill: #006400; fill-opacity: 0.2; stroke: #006400; stroke-opacity: 0.2"/>
    </g>
   </g>
   <g id="matplotlib.axis_1">
    <g id="xtick_1">
     <g id="line2d_1">
      <defs>
       <path id="m36507429a4" d="M 0 0 
L 0 3.5 
" style="stroke: #000000; stroke-width: 0.8"/>
      </defs>
      <g>
       <use xlink:href="#m36507429a4" x="58.806605" y="205.068125" style="stroke: #000000; stroke-width: 0.8"/>
      </g>
     </g>
     <g id="text_1">
      <!-- 0 -->
      <g transform="translate(55.625355 219.666562)scale(0.1 -0.1)">
       <defs>
        <path id="DejaVuSans-30" d="M 2034 4250 
Q 1547 4250 1301 3770 
Q 1056 3291 1056 2328 
Q 1056 1369 1301 889 
Q 1547 409 2034 409 
Q 2525 409 2770 889 
Q 3016 1369 3016 2328 
Q 3016 3291 2770 3770 
Q 2525 4250 2034 4250 
z
M 2034 4750 
Q 2819 4750 3233 4129 
Q 3647 3509 3647 2328 
Q 3647 1150 3233 529 
Q 2819 -91 2034 -91 
Q 1250 -91 836 529 
Q 422 1150 422 2328 
Q 422 3509 836 4129 
Q 1250 4750 2034 4750 
z
" transform="scale(0.015625)"/>
       </defs>
       <use xlink:href="#DejaVuSans-30"/>
      </g>
     </g>
    </g>
    <g id="xtick_2">
     <g id="line2d_2">
      <g>
       <use xlink:href="#m36507429a4" x="117.887689" y="205.068125" style="stroke: #000000; stroke-width: 0.8"/>
      </g>
     </g>
     <g id="text_2">
      <!-- 100 -->
      <g transform="translate(108.343939 219.666562)scale(0.1 -0.1)">
       <defs>
        <path id="DejaVuSans-31" d="M 794 531 
L 1825 531 
L 1825 4091 
L 703 3866 
L 703 4441 
L 1819 4666 
L 2450 4666 
L 2450 531 
L 3481 531 
L 3481 0 
L 794 0 
L 794 531 
z
" transform="scale(0.015625)"/>
       </defs>
       <use xlink:href="#DejaVuSans-31"/>
       <use xlink:href="#DejaVuSans-30" x="63.623047"/>
       <use xlink:href="#DejaVuSans-30" x="127.246094"/>
      </g>
     </g>
    </g>
    <g id="xtick_3">
     <g id="line2d_3">
      <g>
       <use xlink:href="#m36507429a4" x="176.968774" y="205.068125" style="stroke: #000000; stroke-width: 0.8"/>
      </g>
     </g>
     <g id="text_3">
      <!-- 200 -->
      <g transform="translate(167.425024 219.666562)scale(0.1 -0.1)">
       <defs>
        <path id="DejaVuSans-32" d="M 1228 531 
L 3431 531 
L 3431 0 
L 469 0 
L 469 531 
Q 828 903 1448 1529 
Q 2069 2156 2228 2338 
Q 2531 2678 2651 2914 
Q 2772 3150 2772 3378 
Q 2772 3750 2511 3984 
Q 2250 4219 1831 4219 
Q 1534 4219 1204 4116 
Q 875 4013 500 3803 
L 500 4441 
Q 881 4594 1212 4672 
Q 1544 4750 1819 4750 
Q 2544 4750 2975 4387 
Q 3406 4025 3406 3419 
Q 3406 3131 3298 2873 
Q 3191 2616 2906 2266 
Q 2828 2175 2409 1742 
Q 1991 1309 1228 531 
z
" transform="scale(0.015625)"/>
       </defs>
       <use xlink:href="#DejaVuSans-32"/>
       <use xlink:href="#DejaVuSans-30" x="63.623047"/>
       <use xlink:href="#DejaVuSans-30" x="127.246094"/>
      </g>
     </g>
    </g>
    <g id="text_4">
     <!-- Time (min) -->
     <g transform="translate(97.121094 240.864375)scale(0.12 -0.12)">
      <defs>
       <path id="DejaVuSans-54" d="M -19 4666 
L 3928 4666 
L 3928 4134 
L 2272 4134 
L 2272 0 
L 1638 0 
L 1638 4134 
L -19 4134 
L -19 4666 
z
" transform="scale(0.015625)"/>
       <path id="DejaVuSans-69" d="M 603 3500 
L 1178 3500 
L 1178 0 
L 603 0 
L 603 3500 
z
M 603 4863 
L 1178 4863 
L 1178 4134 
L 603 4134 
L 603 4863 
z
" transform="scale(0.015625)"/>
       <path id="DejaVuSans-6d" d="M 3328 2828 
Q 3544 3216 3844 3400 
Q 4144 3584 4550 3584 
Q 5097 3584 5394 3201 
Q 5691 2819 5691 2113 
L 5691 0 
L 5113 0 
L 5113 2094 
Q 5113 2597 4934 2840 
Q 4756 3084 4391 3084 
Q 3944 3084 3684 2787 
Q 3425 2491 3425 1978 
L 3425 0 
L 2847 0 
L 2847 2094 
Q 2847 2600 2669 2842 
Q 2491 3084 2119 3084 
Q 1678 3084 1418 2786 
Q 1159 2488 1159 1978 
L 1159 0 
L 581 0 
L 581 3500 
L 1159 3500 
L 1159 2956 
Q 1356 3278 1631 3431 
Q 1906 3584 2284 3584 
Q 2666 3584 2933 3390 
Q 3200 3197 3328 2828 
z
" transform="scale(0.015625)"/>
       <path id="DejaVuSans-65" d="M 3597 1894 
L 3597 1613 
L 953 1613 
Q 991 1019 1311 708 
Q 1631 397 2203 397 
Q 2534 397 2845 478 
Q 3156 559 3463 722 
L 3463 178 
Q 3153 47 2828 -22 
Q 2503 -91 2169 -91 
Q 1331 -91 842 396 
Q 353 884 353 1716 
Q 353 2575 817 3079 
Q 1281 3584 2069 3584 
Q 2775 3584 3186 3129 
Q 3597 2675 3597 1894 
z
M 3022 2063 
Q 3016 2534 2758 2815 
Q 2500 3097 2075 3097 
Q 1594 3097 1305 2825 
Q 1016 2553 972 2059 
L 3022 2063 
z
" transform="scale(0.015625)"/>
       <path id="DejaVuSans-20" transform="scale(0.015625)"/>
       <path id="DejaVuSans-28" d="M 1984 4856 
Q 1566 4138 1362 3434 
Q 1159 2731 1159 2009 
Q 1159 1288 1364 580 
Q 1569 -128 1984 -844 
L 1484 -844 
Q 1016 -109 783 600 
Q 550 1309 550 2009 
Q 550 2706 781 3412 
Q 1013 4119 1484 4856 
L 1984 4856 
z
" transform="scale(0.015625)"/>
       <path id="DejaVuSans-6e" d="M 3513 2113 
L 3513 0 
L 2938 0 
L 2938 2094 
Q 2938 2591 2744 2837 
Q 2550 3084 2163 3084 
Q 1697 3084 1428 2787 
Q 1159 2491 1159 1978 
L 1159 0 
L 581 0 
L 581 3500 
L 1159 3500 
L 1159 2956 
Q 1366 3272 1645 3428 
Q 1925 3584 2291 3584 
Q 2894 3584 3203 3211 
Q 3513 2838 3513 2113 
z
" transform="scale(0.015625)"/>
       <path id="DejaVuSans-29" d="M 513 4856 
L 1013 4856 
Q 1481 4119 1714 3412 
Q 1947 2706 1947 2009 
Q 1947 1309 1714 600 
Q 1481 -109 1013 -844 
L 513 -844 
Q 928 -128 1133 580 
Q 1338 1288 1338 2009 
Q 1338 2731 1133 3434 
Q 928 4138 513 4856 
z
" transform="scale(0.015625)"/>
      </defs>
      <use xlink:href="#DejaVuSans-54"/>
      <use xlink:href="#DejaVuSans-69" x="57.958984"/>
      <use xlink:href="#DejaVuSans-6d" x="85.742188"/>
      <use xlink:href="#DejaVuSans-65" x="183.154297"/>
      <use xlink:href="#DejaVuSans-20" x="244.677734"/>
      <use xlink:href="#DejaVuSans-28" x="276.464844"/>
      <use xlink:href="#DejaVuSans-6d" x="315.478516"/>
      <use xlink:href="#DejaVuSans-69" x="412.890625"/>
      <use xlink:href="#DejaVuSans-6e" x="440.673828"/>
      <use xlink:href="#DejaVuSans-29" x="504.052734"/>
     </g>
    </g>
   </g>
   <g id="matplotlib.axis_2">
    <g id="ytick_1">
     <g id="line2d_4">
      <defs>
       <path id="m81f83bad81" d="M 0 0 
L -3.5 0 
" style="stroke: #000000; stroke-width: 0.8"/>
      </defs>
      <g>
       <use xlink:href="#m81f83bad81" x="51.716875" y="205.068125" style="stroke: #000000; stroke-width: 0.8"/>
      </g>
     </g>
     <g id="text_5">
      <!-- 0.0 -->
      <g transform="translate(28.81375 208.867344)scale(0.1 -0.1)">
       <defs>
        <path id="DejaVuSans-2e" d="M 684 794 
L 1344 794 
L 1344 0 
L 684 0 
L 684 794 
z
" transform="scale(0.015625)"/>
       </defs>
       <use xlink:href="#DejaVuSans-30"/>
       <use xlink:href="#DejaVuSans-2e" x="63.623047"/>
       <use xlink:href="#DejaVuSans-30" x="95.410156"/>
      </g>
     </g>
    </g>
    <g id="ytick_2">
     <g id="line2d_5">
      <g>
       <use xlink:href="#m81f83bad81" x="51.716875" y="173.873312" style="stroke: #000000; stroke-width: 0.8"/>
      </g>
     </g>
     <g id="text_6">
      <!-- 0.2 -->
      <g transform="translate(28.81375 177.672531)scale(0.1 -0.1)">
       <use xlink:href="#DejaVuSans-30"/>
       <use xlink:href="#DejaVuSans-2e" x="63.623047"/>
       <use xlink:href="#DejaVuSans-32" x="95.410156"/>
      </g>
     </g>
    </g>
    <g id="ytick_3">
     <g id="line2d_6">
      <g>
       <use xlink:href="#m81f83bad81" x="51.716875" y="142.6785" style="stroke: #000000; stroke-width: 0.8"/>
      </g>
     </g>
     <g id="text_7">
      <!-- 0.4 -->
      <g transform="translate(28.81375 146.477719)scale(0.1 -0.1)">
       <defs>
        <path id="DejaVuSans-34" d="M 2419 4116 
L 825 1625 
L 2419 1625 
L 2419 4116 
z
M 2253 4666 
L 3047 4666 
L 3047 1625 
L 3713 1625 
L 3713 1100 
L 3047 1100 
L 3047 0 
L 2419 0 
L 2419 1100 
L 313 1100 
L 313 1709 
L 2253 4666 
z
" transform="scale(0.015625)"/>
       </defs>
       <use xlink:href="#DejaVuSans-30"/>
       <use xlink:href="#DejaVuSans-2e" x="63.623047"/>
       <use xlink:href="#DejaVuSans-34" x="95.410156"/>
      </g>
     </g>
    </g>
    <g id="ytick_4">
     <g id="line2d_7">
      <g>
       <use xlink:href="#m81f83bad81" x="51.716875" y="111.483687" style="stroke: #000000; stroke-width: 0.8"/>
      </g>
     </g>
     <g id="text_8">
      <!-- 0.6 -->
      <g transform="translate(28.81375 115.282906)scale(0.1 -0.1)">
       <defs>
        <path id="DejaVuSans-36" d="M 2113 2584 
Q 1688 2584 1439 2293 
Q 1191 2003 1191 1497 
Q 1191 994 1439 701 
Q 1688 409 2113 409 
Q 2538 409 2786 701 
Q 3034 994 3034 1497 
Q 3034 2003 2786 2293 
Q 2538 2584 2113 2584 
z
M 3366 4563 
L 3366 3988 
Q 3128 4100 2886 4159 
Q 2644 4219 2406 4219 
Q 1781 4219 1451 3797 
Q 1122 3375 1075 2522 
Q 1259 2794 1537 2939 
Q 1816 3084 2150 3084 
Q 2853 3084 3261 2657 
Q 3669 2231 3669 1497 
Q 3669 778 3244 343 
Q 2819 -91 2113 -91 
Q 1303 -91 875 529 
Q 447 1150 447 2328 
Q 447 3434 972 4092 
Q 1497 4750 2381 4750 
Q 2619 4750 2861 4703 
Q 3103 4656 3366 4563 
z
" transform="scale(0.015625)"/>
       </defs>
       <use xlink:href="#DejaVuSans-30"/>
       <use xlink:href="#DejaVuSans-2e" x="63.623047"/>
       <use xlink:href="#DejaVuSans-36" x="95.410156"/>
      </g>
     </g>
    </g>
    <g id="ytick_5">
     <g id="line2d_8">
      <g>
       <use xlink:href="#m81f83bad81" x="51.716875" y="80.288875" style="stroke: #000000; stroke-width: 0.8"/>
      </g>
     </g>
     <g id="text_9">
      <!-- 0.8 -->
      <g transform="translate(28.81375 84.088094)scale(0.1 -0.1)">
       <defs>
        <path id="DejaVuSans-38" d="M 2034 2216 
Q 1584 2216 1326 1975 
Q 1069 1734 1069 1313 
Q 1069 891 1326 650 
Q 1584 409 2034 409 
Q 2484 409 2743 651 
Q 3003 894 3003 1313 
Q 3003 1734 2745 1975 
Q 2488 2216 2034 2216 
z
M 1403 2484 
Q 997 2584 770 2862 
Q 544 3141 544 3541 
Q 544 4100 942 4425 
Q 1341 4750 2034 4750 
Q 2731 4750 3128 4425 
Q 3525 4100 3525 3541 
Q 3525 3141 3298 2862 
Q 3072 2584 2669 2484 
Q 3125 2378 3379 2068 
Q 3634 1759 3634 1313 
Q 3634 634 3220 271 
Q 2806 -91 2034 -91 
Q 1263 -91 848 271 
Q 434 634 434 1313 
Q 434 1759 690 2068 
Q 947 2378 1403 2484 
z
M 1172 3481 
Q 1172 3119 1398 2916 
Q 1625 2713 2034 2713 
Q 2441 2713 2670 2916 
Q 2900 3119 2900 3481 
Q 2900 3844 2670 4047 
Q 2441 4250 2034 4250 
Q 1625 4250 1398 4047 
Q 1172 3844 1172 3481 
z
" transform="scale(0.015625)"/>
       </defs>
       <use xlink:href="#DejaVuSans-30"/>
       <use xlink:href="#DejaVuSans-2e" x="63.623047"/>
       <use xlink:href="#DejaVuSans-38" x="95.410156"/>
      </g>
     </g>
    </g>
    <g id="ytick_6">
     <g id="line2d_9">
      <g>
       <use xlink:href="#m81f83bad81" x="51.716875" y="49.094062" style="stroke: #000000; stroke-width: 0.8"/>
      </g>
     </g>
     <g id="text_10">
      <!-- 1.0 -->
      <g transform="translate(28.81375 52.893281)scale(0.1 -0.1)">
       <use xlink:href="#DejaVuSans-31"/>
       <use xlink:href="#DejaVuSans-2e" x="63.623047"/>
       <use xlink:href="#DejaVuSans-30" x="95.410156"/>
      </g>
     </g>
    </g>
    <g id="text_11">
     <!-- Normalized exp output -->
     <g transform="translate(16.318125 195.658281)rotate(-90)scale(0.12 -0.12)">
      <defs>
       <path id="DejaVuSans-4e" d="M 628 4666 
L 1478 4666 
L 3547 763 
L 3547 4666 
L 4159 4666 
L 4159 0 
L 3309 0 
L 1241 3903 
L 1241 0 
L 628 0 
L 628 4666 
z
" transform="scale(0.015625)"/>
       <path id="DejaVuSans-6f" d="M 1959 3097 
Q 1497 3097 1228 2736 
Q 959 2375 959 1747 
Q 959 1119 1226 758 
Q 1494 397 1959 397 
Q 2419 397 2687 759 
Q 2956 1122 2956 1747 
Q 2956 2369 2687 2733 
Q 2419 3097 1959 3097 
z
M 1959 3584 
Q 2709 3584 3137 3096 
Q 3566 2609 3566 1747 
Q 3566 888 3137 398 
Q 2709 -91 1959 -91 
Q 1206 -91 779 398 
Q 353 888 353 1747 
Q 353 2609 779 3096 
Q 1206 3584 1959 3584 
z
" transform="scale(0.015625)"/>
       <path id="DejaVuSans-72" d="M 2631 2963 
Q 2534 3019 2420 3045 
Q 2306 3072 2169 3072 
Q 1681 3072 1420 2755 
Q 1159 2438 1159 1844 
L 1159 0 
L 581 0 
L 581 3500 
L 1159 3500 
L 1159 2956 
Q 1341 3275 1631 3429 
Q 1922 3584 2338 3584 
Q 2397 3584 2469 3576 
Q 2541 3569 2628 3553 
L 2631 2963 
z
" transform="scale(0.015625)"/>
       <path id="DejaVuSans-61" d="M 2194 1759 
Q 1497 1759 1228 1600 
Q 959 1441 959 1056 
Q 959 750 1161 570 
Q 1363 391 1709 391 
Q 2188 391 2477 730 
Q 2766 1069 2766 1631 
L 2766 1759 
L 2194 1759 
z
M 3341 1997 
L 3341 0 
L 2766 0 
L 2766 531 
Q 2569 213 2275 61 
Q 1981 -91 1556 -91 
Q 1019 -91 701 211 
Q 384 513 384 1019 
Q 384 1609 779 1909 
Q 1175 2209 1959 2209 
L 2766 2209 
L 2766 2266 
Q 2766 2663 2505 2880 
Q 2244 3097 1772 3097 
Q 1472 3097 1187 3025 
Q 903 2953 641 2809 
L 641 3341 
Q 956 3463 1253 3523 
Q 1550 3584 1831 3584 
Q 2591 3584 2966 3190 
Q 3341 2797 3341 1997 
z
" transform="scale(0.015625)"/>
       <path id="DejaVuSans-6c" d="M 603 4863 
L 1178 4863 
L 1178 0 
L 603 0 
L 603 4863 
z
" transform="scale(0.015625)"/>
       <path id="DejaVuSans-7a" d="M 353 3500 
L 3084 3500 
L 3084 2975 
L 922 459 
L 3084 459 
L 3084 0 
L 275 0 
L 275 525 
L 2438 3041 
L 353 3041 
L 353 3500 
z
" transform="scale(0.015625)"/>
       <path id="DejaVuSans-64" d="M 2906 2969 
L 2906 4863 
L 3481 4863 
L 3481 0 
L 2906 0 
L 2906 525 
Q 2725 213 2448 61 
Q 2172 -91 1784 -91 
Q 1150 -91 751 415 
Q 353 922 353 1747 
Q 353 2572 751 3078 
Q 1150 3584 1784 3584 
Q 2172 3584 2448 3432 
Q 2725 3281 2906 2969 
z
M 947 1747 
Q 947 1113 1208 752 
Q 1469 391 1925 391 
Q 2381 391 2643 752 
Q 2906 1113 2906 1747 
Q 2906 2381 2643 2742 
Q 2381 3103 1925 3103 
Q 1469 3103 1208 2742 
Q 947 2381 947 1747 
z
" transform="scale(0.015625)"/>
       <path id="DejaVuSans-78" d="M 3513 3500 
L 2247 1797 
L 3578 0 
L 2900 0 
L 1881 1375 
L 863 0 
L 184 0 
L 1544 1831 
L 300 3500 
L 978 3500 
L 1906 2253 
L 2834 3500 
L 3513 3500 
z
" transform="scale(0.015625)"/>
       <path id="DejaVuSans-70" d="M 1159 525 
L 1159 -1331 
L 581 -1331 
L 581 3500 
L 1159 3500 
L 1159 2969 
Q 1341 3281 1617 3432 
Q 1894 3584 2278 3584 
Q 2916 3584 3314 3078 
Q 3713 2572 3713 1747 
Q 3713 922 3314 415 
Q 2916 -91 2278 -91 
Q 1894 -91 1617 61 
Q 1341 213 1159 525 
z
M 3116 1747 
Q 3116 2381 2855 2742 
Q 2594 3103 2138 3103 
Q 1681 3103 1420 2742 
Q 1159 2381 1159 1747 
Q 1159 1113 1420 752 
Q 1681 391 2138 391 
Q 2594 391 2855 752 
Q 3116 1113 3116 1747 
z
" transform="scale(0.015625)"/>
       <path id="DejaVuSans-75" d="M 544 1381 
L 544 3500 
L 1119 3500 
L 1119 1403 
Q 1119 906 1312 657 
Q 1506 409 1894 409 
Q 2359 409 2629 706 
Q 2900 1003 2900 1516 
L 2900 3500 
L 3475 3500 
L 3475 0 
L 2900 0 
L 2900 538 
Q 2691 219 2414 64 
Q 2138 -91 1772 -91 
Q 1169 -91 856 284 
Q 544 659 544 1381 
z
M 1991 3584 
L 1991 3584 
z
" transform="scale(0.015625)"/>
       <path id="DejaVuSans-74" d="M 1172 4494 
L 1172 3500 
L 2356 3500 
L 2356 3053 
L 1172 3053 
L 1172 1153 
Q 1172 725 1289 603 
Q 1406 481 1766 481 
L 2356 481 
L 2356 0 
L 1766 0 
Q 1100 0 847 248 
Q 594 497 594 1153 
L 594 3053 
L 172 3053 
L 172 3500 
L 594 3500 
L 594 4494 
L 1172 4494 
z
" transform="scale(0.015625)"/>
      </defs>
      <use xlink:href="#DejaVuSans-4e"/>
      <use xlink:href="#DejaVuSans-6f" x="74.804688"/>
      <use xlink:href="#DejaVuSans-72" x="135.986328"/>
      <use xlink:href="#DejaVuSans-6d" x="175.349609"/>
      <use xlink:href="#DejaVuSans-61" x="272.761719"/>
      <use xlink:href="#DejaVuSans-6c" x="334.041016"/>
      <use xlink:href="#DejaVuSans-69" x="361.824219"/>
      <use xlink:href="#DejaVuSans-7a" x="389.607422"/>
      <use xlink:href="#DejaVuSans-65" x="442.097656"/>
      <use xlink:href="#DejaVuSans-64" x="503.621094"/>
      <use xlink:href="#DejaVuSans-20" x="567.097656"/>
      <use xlink:href="#DejaVuSans-65" x="598.884766"/>
      <use xlink:href="#DejaVuSans-78" x="658.658203"/>
      <use xlink:href="#DejaVuSans-70" x="717.837891"/>
      <use xlink:href="#DejaVuSans-20" x="781.314453"/>
      <use xlink:href="#DejaVuSans-6f" x="813.101562"/>
      <use xlink:href="#DejaVuSans-75" x="874.283203"/>
      <use xlink:href="#DejaVuSans-74" x="937.662109"/>
      <use xlink:href="#DejaVuSans-70" x="976.871094"/>
      <use xlink:href="#DejaVuSans-75" x="1040.347656"/>
      <use xlink:href="#DejaVuSans-74" x="1103.726562"/>
     </g>
    </g>
   </g>
   <g id="line2d_10">
    <path d="M 58.806605 200.721074 
L 61.169848 200.087917 
L 63.533092 199.927265 
L 65.896335 199.577611 
L 68.259579 199.029505 
L 70.622822 198.736551 
L 72.986065 198.358547 
L 75.349309 198.122294 
L 77.712552 197.819891 
L 80.075795 197.810441 
L 82.439039 197.829341 
L 84.802282 197.583638 
L 87.165526 197.347385 
L 89.528769 197.007181 
L 91.892012 196.752028 
L 94.255256 196.619727 
L 96.618499 196.411824 
L 98.981742 196.147221 
L 101.344986 195.731417 
L 103.708229 195.816467 
L 106.071473 195.476264 
L 108.434716 195.249461 
L 110.797959 194.909257 
L 113.161203 194.786406 
L 115.524446 194.502902 
L 117.887689 194.398951 
L 120.250933 194.143798 
L 122.614176 193.935896 
L 124.97742 193.529541 
L 127.340663 193.312188 
L 129.703906 193.198787 
L 132.06715 192.886933 
L 134.430393 192.830233 
L 136.793636 192.461679 
L 139.15688 192.197075 
L 141.520123 192.140375 
L 143.883366 191.73402 
L 146.24661 191.75292 
L 148.609853 191.450517 
L 150.973097 191.327665 
L 153.33634 191.185914 
L 155.699583 190.807909 
L 158.062827 190.84571 
L 160.42607 190.675608 
L 162.789313 190.496056 
L 165.152557 190.259803 
L 167.5158 190.089701 
L 169.879044 189.881799 
L 172.242287 189.825098 
L 174.60553 189.872348 
L 176.968774 189.588845 
L 179.332017 189.579395 
L 181.69526 189.673896 
L 184.058504 189.305342 
L 186.421747 189.465994 
L 188.784991 189.229741 
L 191.148234 189.10689 
L 193.511477 189.12579 
L 195.874721 188.738335 
L 198.237964 188.785586 
L 200.601207 189.021839 
" clip-path="url(#p824bd9687f)" style="fill: none; stroke: #90ee90; stroke-width: 2; stroke-linecap: square"/>
   </g>
   <g id="line2d_11">
    <path d="M 58.806605 202.440994 
L 61.169848 202.100791 
L 63.533092 201.892888 
L 65.896335 201.637735 
L 68.259579 201.410933 
L 70.622822 201.240831 
L 72.986065 200.985678 
L 75.349309 200.683274 
L 77.712552 200.560423 
L 80.075795 200.34307 
L 82.439039 200.182418 
L 84.802282 200.201318 
L 87.165526 199.955616 
L 89.528769 199.672112 
L 91.892012 199.46421 
L 94.255256 199.171256 
L 96.618499 198.849953 
L 98.981742 198.821602 
L 101.344986 198.528649 
L 103.708229 198.490849 
L 106.071473 198.197895 
L 108.434716 197.867141 
L 110.797959 197.75374 
L 113.161203 197.422986 
L 115.524446 197.300135 
L 117.887689 196.92213 
L 120.250933 196.657527 
L 122.614176 196.666977 
L 124.97742 196.610277 
L 127.340663 196.364574 
L 129.703906 195.929869 
L 132.06715 195.958219 
L 134.430393 195.892068 
L 136.793636 195.892068 
L 139.15688 195.901518 
L 141.520123 195.655816 
L 143.883366 195.551864 
L 146.24661 195.466813 
L 148.609853 195.447913 
L 150.973097 195.561315 
L 153.33634 195.438463 
L 155.699583 195.325062 
L 158.062827 195.381762 
L 160.42607 195.249461 
L 162.789313 195.060459 
L 165.152557 195.15496 
L 167.5158 194.975408 
L 169.879044 194.852556 
L 172.242287 194.928157 
L 174.60553 195.051009 
L 176.968774 194.795856 
L 179.332017 194.786406 
L 181.69526 194.729705 
L 184.058504 194.398951 
L 186.421747 194.3517 
L 188.784991 194.295 
L 191.148234 194.398951 
L 193.511477 194.295 
L 195.874721 194.559603 
L 198.237964 194.238299 
L 200.601207 194.209949 
" clip-path="url(#p824bd9687f)" style="fill: none; stroke: #3cb371; stroke-width: 2; stroke-linecap: square"/>
   </g>
   <g id="line2d_12">
    <path d="M 58.806605 201.637735 
L 61.169848 200.777775 
L 63.533092 200.494272 
L 65.896335 200.154068 
L 68.259579 199.832764 
L 70.622822 199.577611 
L 72.986065 199.218507 
L 75.349309 198.802702 
L 77.712552 198.093944 
L 80.075795 197.800991 
L 82.439039 197.394636 
L 84.802282 197.092232 
L 87.165526 196.468525 
L 89.528769 196.185022 
L 91.892012 195.778667 
L 94.255256 195.126609 
L 96.618499 194.427301 
L 98.981742 193.907545 
L 101.344986 193.633492 
L 103.708229 193.132636 
L 106.071473 192.707381 
L 108.434716 192.499479 
L 110.797959 192.442778 
L 113.161203 192.319927 
L 115.524446 192.093124 
L 117.887689 192.017523 
L 120.250933 191.76237 
L 122.614176 191.488317 
L 124.97742 191.535568 
L 127.340663 191.261515 
L 129.703906 190.968561 
L 132.06715 190.959111 
L 134.430393 190.751209 
L 136.793636 190.467705 
L 139.15688 190.477155 
L 141.520123 190.193652 
L 143.883366 190.165302 
L 146.24661 190.080251 
L 148.609853 190.033 
L 150.973097 189.673896 
L 153.33634 189.607745 
L 155.699583 189.362042 
L 158.062827 189.503794 
L 160.42607 189.258091 
L 162.789313 189.14469 
L 165.152557 188.993488 
L 167.5158 188.776136 
L 169.879044 188.700535 
L 172.242287 188.700535 
L 174.60553 188.360331 
L 176.968774 188.360331 
L 179.332017 188.010677 
L 181.69526 187.850025 
L 184.058504 188.020127 
L 186.421747 187.613772 
L 188.784991 187.528721 
L 191.148234 187.585422 
L 193.511477 187.283018 
L 195.874721 187.207417 
L 198.237964 187.056216 
L 200.601207 186.961715 
" clip-path="url(#p824bd9687f)" style="fill: none; stroke: #006400; stroke-width: 2; stroke-linecap: square"/>
   </g>
   <g id="patch_3">
    <path d="M 51.716875 205.068125 
L 51.716875 49.094062 
" style="fill: none; stroke: #000000; stroke-width: 0.8; stroke-linejoin: miter; stroke-linecap: square"/>
   </g>
   <g id="patch_4">
    <path d="M 51.716875 205.068125 
L 207.690938 205.068125 
" style="fill: none; stroke: #000000; stroke-width: 0.8; stroke-linejoin: miter; stroke-linecap: square"/>
   </g>
   <g id="text_12">
    <!-- vRNA = 0fM -->
    <g transform="translate(96.239844 43.094062)scale(0.1 -0.1)">
     <defs>
      <path id="DejaVuSans-Bold-76" d="M 97 3500 
L 1216 3500 
L 2088 1081 
L 2956 3500 
L 4078 3500 
L 2700 0 
L 1472 0 
L 97 3500 
z
" transform="scale(0.015625)"/>
      <path id="DejaVuSans-Bold-52" d="M 2297 2597 
Q 2675 2597 2839 2737 
Q 3003 2878 3003 3200 
Q 3003 3519 2839 3656 
Q 2675 3794 2297 3794 
L 1791 3794 
L 1791 2597 
L 2297 2597 
z
M 1791 1766 
L 1791 0 
L 588 0 
L 588 4666 
L 2425 4666 
Q 3347 4666 3776 4356 
Q 4206 4047 4206 3378 
Q 4206 2916 3982 2619 
Q 3759 2322 3309 2181 
Q 3556 2125 3751 1926 
Q 3947 1728 4147 1325 
L 4800 0 
L 3519 0 
L 2950 1159 
Q 2778 1509 2601 1637 
Q 2425 1766 2131 1766 
L 1791 1766 
z
" transform="scale(0.015625)"/>
      <path id="DejaVuSans-Bold-4e" d="M 588 4666 
L 1931 4666 
L 3628 1466 
L 3628 4666 
L 4769 4666 
L 4769 0 
L 3425 0 
L 1728 3200 
L 1728 0 
L 588 0 
L 588 4666 
z
" transform="scale(0.015625)"/>
      <path id="DejaVuSans-Bold-41" d="M 3419 850 
L 1538 850 
L 1241 0 
L 31 0 
L 1759 4666 
L 3194 4666 
L 4922 0 
L 3713 0 
L 3419 850 
z
M 1838 1716 
L 3116 1716 
L 2478 3572 
L 1838 1716 
z
" transform="scale(0.015625)"/>
      <path id="DejaVuSans-Bold-20" transform="scale(0.015625)"/>
      <path id="DejaVuSans-Bold-3d" d="M 678 3084 
L 4684 3084 
L 4684 2350 
L 678 2350 
L 678 3084 
z
M 678 1663 
L 4684 1663 
L 4684 922 
L 678 922 
L 678 1663 
z
" transform="scale(0.015625)"/>
      <path id="DejaVuSans-Bold-30" d="M 2944 2338 
Q 2944 3213 2780 3570 
Q 2616 3928 2228 3928 
Q 1841 3928 1675 3570 
Q 1509 3213 1509 2338 
Q 1509 1453 1675 1090 
Q 1841 728 2228 728 
Q 2613 728 2778 1090 
Q 2944 1453 2944 2338 
z
M 4147 2328 
Q 4147 1169 3647 539 
Q 3147 -91 2228 -91 
Q 1306 -91 806 539 
Q 306 1169 306 2328 
Q 306 3491 806 4120 
Q 1306 4750 2228 4750 
Q 3147 4750 3647 4120 
Q 4147 3491 4147 2328 
z
" transform="scale(0.015625)"/>
      <path id="DejaVuSans-Bold-66" d="M 2841 4863 
L 2841 4128 
L 2222 4128 
Q 1984 4128 1890 4042 
Q 1797 3956 1797 3744 
L 1797 3500 
L 2753 3500 
L 2753 2700 
L 1797 2700 
L 1797 0 
L 678 0 
L 678 2700 
L 122 2700 
L 122 3500 
L 678 3500 
L 678 3744 
Q 678 4316 997 4589 
Q 1316 4863 1984 4863 
L 2841 4863 
z
" transform="scale(0.015625)"/>
      <path id="DejaVuSans-Bold-4d" d="M 588 4666 
L 2119 4666 
L 3181 2169 
L 4250 4666 
L 5778 4666 
L 5778 0 
L 4641 0 
L 4641 3413 
L 3566 897 
L 2803 897 
L 1728 3413 
L 1728 0 
L 588 0 
L 588 4666 
z
" transform="scale(0.015625)"/>
     </defs>
     <use xlink:href="#DejaVuSans-Bold-76"/>
     <use xlink:href="#DejaVuSans-Bold-52" x="65.185547"/>
     <use xlink:href="#DejaVuSans-Bold-4e" x="142.1875"/>
     <use xlink:href="#DejaVuSans-Bold-41" x="225.878906"/>
     <use xlink:href="#DejaVuSans-Bold-20" x="303.271484"/>
     <use xlink:href="#DejaVuSans-Bold-3d" x="338.085938"/>
     <use xlink:href="#DejaVuSans-Bold-20" x="421.875"/>
     <use xlink:href="#DejaVuSans-Bold-30" x="456.689453"/>
     <use xlink:href="#DejaVuSans-Bold-66" x="526.269531"/>
     <use xlink:href="#DejaVuSans-Bold-4d" x="569.775391"/>
    </g>
   </g>
   <g id="legend_1">
    <g id="patch_5">
     <path d="M 130.776875 101.128437 
L 200.690938 101.128437 
Q 202.690938 101.128437 202.690938 99.128437 
L 202.690938 56.094062 
Q 202.690938 54.094062 200.690938 54.094062 
L 130.776875 54.094062 
Q 128.776875 54.094062 128.776875 56.094062 
L 128.776875 99.128437 
Q 128.776875 101.128437 130.776875 101.128437 
z
" style="fill: #ffffff; opacity: 0.8; stroke: #cccccc; stroke-linejoin: miter"/>
    </g>
    <g id="line2d_13">
     <path d="M 132.776875 62.1925 
L 142.776875 62.1925 
L 152.776875 62.1925 
" style="fill: none; stroke: #90ee90; stroke-width: 2; stroke-linecap: square"/>
    </g>
    <g id="text_13">
     <!-- T7 1.0 -->
     <g transform="translate(160.776875 65.6925)scale(0.1 -0.1)">
      <defs>
       <path id="DejaVuSans-37" d="M 525 4666 
L 3525 4666 
L 3525 4397 
L 1831 0 
L 1172 0 
L 2766 4134 
L 525 4134 
L 525 4666 
z
" transform="scale(0.015625)"/>
      </defs>
      <use xlink:href="#DejaVuSans-54"/>
      <use xlink:href="#DejaVuSans-37" x="61.083984"/>
      <use xlink:href="#DejaVuSans-20" x="124.707031"/>
      <use xlink:href="#DejaVuSans-31" x="156.494141"/>
      <use xlink:href="#DejaVuSans-2e" x="220.117188"/>
      <use xlink:href="#DejaVuSans-30" x="251.904297"/>
     </g>
    </g>
    <g id="line2d_14">
     <path d="M 132.776875 76.870625 
L 142.776875 76.870625 
L 152.776875 76.870625 
" style="fill: none; stroke: #3cb371; stroke-width: 2; stroke-linecap: square"/>
    </g>
    <g id="text_14">
     <!-- T7 5.0 -->
     <g transform="translate(160.776875 80.370625)scale(0.1 -0.1)">
      <defs>
       <path id="DejaVuSans-35" d="M 691 4666 
L 3169 4666 
L 3169 4134 
L 1269 4134 
L 1269 2991 
Q 1406 3038 1543 3061 
Q 1681 3084 1819 3084 
Q 2600 3084 3056 2656 
Q 3513 2228 3513 1497 
Q 3513 744 3044 326 
Q 2575 -91 1722 -91 
Q 1428 -91 1123 -41 
Q 819 9 494 109 
L 494 744 
Q 775 591 1075 516 
Q 1375 441 1709 441 
Q 2250 441 2565 725 
Q 2881 1009 2881 1497 
Q 2881 1984 2565 2268 
Q 2250 2553 1709 2553 
Q 1456 2553 1204 2497 
Q 953 2441 691 2322 
L 691 4666 
z
" transform="scale(0.015625)"/>
      </defs>
      <use xlink:href="#DejaVuSans-54"/>
      <use xlink:href="#DejaVuSans-37" x="61.083984"/>
      <use xlink:href="#DejaVuSans-20" x="124.707031"/>
      <use xlink:href="#DejaVuSans-35" x="156.494141"/>
      <use xlink:href="#DejaVuSans-2e" x="220.117188"/>
      <use xlink:href="#DejaVuSans-30" x="251.904297"/>
     </g>
    </g>
    <g id="line2d_15">
     <path d="M 132.776875 91.54875 
L 142.776875 91.54875 
L 152.776875 91.54875 
" style="fill: none; stroke: #006400; stroke-width: 2; stroke-linecap: square"/>
    </g>
    <g id="text_15">
     <!-- T7 20.0 -->
     <g transform="translate(160.776875 95.04875)scale(0.1 -0.1)">
      <use xlink:href="#DejaVuSans-54"/>
      <use xlink:href="#DejaVuSans-37" x="61.083984"/>
      <use xlink:href="#DejaVuSans-20" x="124.707031"/>
      <use xlink:href="#DejaVuSans-32" x="156.494141"/>
      <use xlink:href="#DejaVuSans-30" x="220.117188"/>
      <use xlink:href="#DejaVuSans-2e" x="283.740234"/>
      <use xlink:href="#DejaVuSans-30" x="315.527344"/>
     </g>
    </g>
   </g>
  </g>
  <g id="axes_2">
   <g id="patch_6">
    <path d="M 335.65267 205.068125 
L 491.626733 205.068125 
L 491.626733 49.094062 
L 335.65267 49.094062 
z
" style="fill: #ffffff"/>
   </g>
   <g id="PolyCollection_4">
    <defs>
     <path id="m8782383044" d="M 342.742401 -49.654911 
L 342.742401 -49.399233 
L 345.105644 -49.620983 
L 347.468887 -50.069096 
L 349.832131 -50.364157 
L 352.195374 -50.815752 
L 354.558617 -51.007329 
L 356.921861 -51.672247 
L 359.285104 -51.966384 
L 361.648348 -52.262573 
L 364.011591 -52.371679 
L 366.374834 -52.668188 
L 368.738078 -53.168329 
L 371.101321 -53.367282 
L 373.464564 -53.43908 
L 375.827808 -53.893883 
L 378.191051 -54.299502 
L 380.554295 -54.443822 
L 382.917538 -54.751411 
L 385.280781 -54.850035 
L 387.644025 -55.36787 
L 390.007268 -55.850734 
L 392.370511 -56.485318 
L 394.733755 -57.171473 
L 397.096998 -57.986106 
L 399.460241 -58.688135 
L 401.823485 -59.838776 
L 404.186728 -60.633319 
L 406.549972 -61.621802 
L 408.913215 -63.024724 
L 411.276458 -64.021464 
L 413.639702 -65.346106 
L 416.002945 -66.457575 
L 418.366188 -67.74071 
L 420.729432 -69.703671 
L 423.092675 -70.61803 
L 425.455919 -71.919094 
L 427.819162 -73.853292 
L 430.182405 -75.759293 
L 432.545649 -77.124264 
L 434.908892 -78.55061 
L 437.272135 -80.658862 
L 439.635379 -82.057721 
L 441.998622 -83.449218 
L 444.361866 -85.909495 
L 446.725109 -87.345014 
L 449.088352 -88.714917 
L 451.451596 -90.696208 
L 453.814839 -91.778793 
L 456.178082 -94.068801 
L 458.541326 -95.856081 
L 460.904569 -97.508927 
L 463.267813 -98.326836 
L 465.631056 -99.700775 
L 467.994299 -100.769201 
L 470.357543 -101.346167 
L 472.720786 -101.900734 
L 475.084029 -102.447257 
L 477.447273 -102.843757 
L 479.810516 -103.194192 
L 482.173759 -103.683556 
L 484.537003 -103.554987 
L 484.537003 -108.843774 
L 484.537003 -108.843774 
L 482.173759 -108.885307 
L 479.810516 -108.183957 
L 477.447273 -108.194188 
L 475.084029 -108.061482 
L 472.720786 -107.549592 
L 470.357543 -106.989046 
L 467.994299 -106.885605 
L 465.631056 -105.194598 
L 463.267813 -105.283323 
L 460.904569 -104.702615 
L 458.541326 -102.651019 
L 456.178082 -101.584366 
L 453.814839 -99.754126 
L 451.451596 -98.644285 
L 449.088352 -97.034535 
L 446.725109 -94.567693 
L 444.361866 -92.695674 
L 441.998622 -91.149104 
L 439.635379 -89.365364 
L 437.272135 -87.192081 
L 434.908892 -85.690391 
L 432.545649 -82.750787 
L 430.182405 -80.978321 
L 427.819162 -79.142079 
L 425.455919 -76.937129 
L 423.092675 -74.59045 
L 420.729432 -72.461873 
L 418.366188 -71.117296 
L 416.002945 -69.319695 
L 413.639702 -67.728433 
L 411.276458 -65.915639 
L 408.913215 -64.039545 
L 406.549972 -63.079939 
L 404.186728 -61.686995 
L 401.823485 -60.383614 
L 399.460241 -59.644232 
L 397.096998 -58.286138 
L 394.733755 -57.777755 
L 392.370511 -57.235397 
L 390.007268 -56.603665 
L 387.644025 -56.217119 
L 385.280781 -55.827744 
L 382.917538 -55.434962 
L 380.554295 -55.270045 
L 378.191051 -55.017461 
L 375.827808 -54.51587 
L 373.464564 -54.233564 
L 371.101321 -53.776156 
L 368.738078 -53.918408 
L 366.374834 -53.416837 
L 364.011591 -53.089639 
L 361.648348 -53.066444 
L 359.285104 -52.493222 
L 356.921861 -52.069151 
L 354.558617 -51.770158 
L 352.195374 -51.224626 
L 349.832131 -50.750111 
L 347.468887 -50.251363 
L 345.105644 -50.075768 
L 342.742401 -49.654911 
z
" style="stroke: #90ee90; stroke-opacity: 0.2"/>
    </defs>
    <g clip-path="url(#p524a912020)">
     <use xlink:href="#m8782383044" x="0" y="250.56" style="fill: #90ee90; fill-opacity: 0.2; stroke: #90ee90; stroke-opacity: 0.2"/>
    </g>
   </g>
   <g id="PolyCollection_5">
    <defs>
     <path id="md868d17d7a" d="M 342.742401 -49.442493 
L 342.742401 -48.874542 
L 345.105644 -49.445388 
L 347.468887 -49.613307 
L 349.832131 -49.936114 
L 352.195374 -50.188055 
L 354.558617 -50.604977 
L 356.921861 -50.786441 
L 359.285104 -51.015968 
L 361.648348 -51.408874 
L 364.011591 -51.978116 
L 366.374834 -52.289191 
L 368.738078 -52.224067 
L 371.101321 -52.764752 
L 373.464564 -53.022312 
L 375.827808 -53.476663 
L 378.191051 -53.616288 
L 380.554295 -53.980878 
L 382.917538 -54.113069 
L 385.280781 -54.764421 
L 387.644025 -55.177062 
L 390.007268 -55.456096 
L 392.370511 -56.002372 
L 394.733755 -56.116342 
L 397.096998 -56.594812 
L 399.460241 -56.85962 
L 401.823485 -57.038504 
L 404.186728 -56.833508 
L 406.549972 -57.182313 
L 408.913215 -57.512415 
L 411.276458 -57.213885 
L 413.639702 -57.535734 
L 416.002945 -57.813643 
L 418.366188 -57.929495 
L 420.729432 -57.890141 
L 423.092675 -58.041227 
L 425.455919 -57.824268 
L 427.819162 -58.272159 
L 430.182405 -58.374501 
L 432.545649 -58.590911 
L 434.908892 -58.620771 
L 437.272135 -58.584244 
L 439.635379 -58.671402 
L 441.998622 -58.845341 
L 444.361866 -58.885423 
L 446.725109 -58.99566 
L 449.088352 -59.114492 
L 451.451596 -59.322016 
L 453.814839 -59.232146 
L 456.178082 -59.265316 
L 458.541326 -59.732876 
L 460.904569 -59.548155 
L 463.267813 -59.99243 
L 465.631056 -59.971854 
L 467.994299 -59.868623 
L 470.357543 -60.292526 
L 472.720786 -60.257704 
L 475.084029 -60.307128 
L 477.447273 -60.175499 
L 479.810516 -60.677808 
L 482.173759 -60.464202 
L 484.537003 -60.834041 
L 484.537003 -61.599675 
L 484.537003 -61.599675 
L 482.173759 -61.68601 
L 479.810516 -61.359003 
L 477.447273 -61.483307 
L 475.084029 -61.124876 
L 472.720786 -60.947497 
L 470.357543 -60.742573 
L 467.994299 -60.920773 
L 465.631056 -61.006544 
L 463.267813 -60.796967 
L 460.904569 -60.579733 
L 458.541326 -60.584015 
L 456.178082 -59.974263 
L 453.814839 -60.65004 
L 451.451596 -60.030963 
L 449.088352 -59.822683 
L 446.725109 -60.054916 
L 444.361866 -59.957251 
L 441.998622 -59.619328 
L 439.635379 -59.679866 
L 437.272135 -59.615822 
L 434.908892 -59.446994 
L 432.545649 -59.117749 
L 430.182405 -59.296359 
L 427.819162 -59.152998 
L 425.455919 -58.958281 
L 423.092675 -58.722422 
L 420.729432 -58.854608 
L 418.366188 -58.41835 
L 416.002945 -58.042796 
L 413.639702 -58.339605 
L 411.276458 -58.132249 
L 408.913215 -57.909319 
L 406.549972 -57.729115 
L 404.186728 -57.605415 
L 401.823485 -57.929625 
L 399.460241 -57.465902 
L 397.096998 -56.880199 
L 394.733755 -56.886164 
L 392.370511 -56.678831 
L 390.007268 -56.015492 
L 387.644025 -55.406215 
L 385.280781 -55.346351 
L 382.917538 -54.939291 
L 380.554295 -54.296573 
L 378.191051 -54.018556 
L 375.827808 -53.799076 
L 373.464564 -53.573019 
L 371.101321 -52.961169 
L 368.738078 -52.821446 
L 366.374834 -52.718522 
L 364.011591 -52.38699 
L 361.648348 -52.351425 
L 359.285104 -51.591417 
L 356.921861 -51.140536 
L 354.558617 -50.754993 
L 352.195374 -50.69941 
L 349.832131 -50.365444 
L 347.468887 -50.140145 
L 345.105644 -49.627656 
L 342.742401 -49.442493 
z
" style="stroke: #3cb371; stroke-opacity: 0.2"/>
    </defs>
    <g clip-path="url(#p524a912020)">
     <use xlink:href="#md868d17d7a" x="0" y="250.56" style="fill: #3cb371; fill-opacity: 0.2; stroke: #3cb371; stroke-opacity: 0.2"/>
    </g>
   </g>
   <g id="PolyCollection_6">
    <defs>
     <path id="m5bb06f33d7" d="M 342.742401 -49.216779 
L 342.742401 -49.043556 
L 345.105644 -49.275633 
L 347.468887 -49.510339 
L 349.832131 -50.00962 
L 352.195374 -50.051596 
L 354.558617 -50.542834 
L 356.921861 -50.874234 
L 359.285104 -51.265167 
L 361.648348 -51.650996 
L 364.011591 -51.790261 
L 366.374834 -52.333936 
L 368.738078 -52.752247 
L 371.101321 -53.226575 
L 373.464564 -53.278028 
L 375.827808 -53.641672 
L 378.191051 -54.118318 
L 380.554295 -54.260319 
L 382.917538 -54.896839 
L 385.280781 -54.955471 
L 387.644025 -55.116395 
L 390.007268 -55.488837 
L 392.370511 -55.541423 
L 394.733755 -55.325918 
L 397.096998 -55.96066 
L 399.460241 -56.036075 
L 401.823485 -56.040355 
L 404.186728 -56.122901 
L 406.549972 -56.402591 
L 408.913215 -56.36785 
L 411.276458 -56.773436 
L 413.639702 -56.535678 
L 416.002945 -57.034419 
L 418.366188 -56.98938 
L 420.729432 -57.117468 
L 423.092675 -57.330504 
L 425.455919 -57.577186 
L 427.819162 -57.677427 
L 430.182405 -57.515645 
L 432.545649 -57.9409 
L 434.908892 -57.729352 
L 437.272135 -57.815338 
L 439.635379 -58.009894 
L 441.998622 -58.240137 
L 444.361866 -58.295364 
L 446.725109 -58.484397 
L 449.088352 -58.38683 
L 451.451596 -58.8106 
L 453.814839 -58.960977 
L 456.178082 -59.073359 
L 458.541326 -58.6144 
L 460.904569 -59.113455 
L 463.267813 -58.967207 
L 465.631056 -59.336955 
L 467.994299 -59.617176 
L 470.357543 -59.377303 
L 472.720786 -59.38173 
L 475.084029 -59.634404 
L 477.447273 -59.841011 
L 479.810516 -59.982853 
L 482.173759 -60.022622 
L 484.537003 -60.168976 
L 484.537003 -62.151338 
L 484.537003 -62.151338 
L 482.173759 -61.598384 
L 479.810516 -61.35465 
L 477.447273 -61.798895 
L 475.084029 -61.514097 
L 472.720786 -61.558868 
L 470.357543 -61.317592 
L 467.994299 -61.021018 
L 465.631056 -61.471341 
L 463.267813 -61.00948 
L 460.904569 -60.863232 
L 458.541326 -60.851981 
L 456.178082 -60.563124 
L 453.814839 -60.1841 
L 451.451596 -60.202175 
L 449.088352 -60.380243 
L 446.725109 -60.169275 
L 444.361866 -59.753501 
L 441.998622 -59.638626 
L 439.635379 -59.415263 
L 437.272135 -59.534219 
L 434.908892 -59.450102 
L 432.545649 -59.540958 
L 430.182405 -59.115703 
L 427.819162 -59.086223 
L 425.455919 -59.262064 
L 423.092675 -58.809438 
L 420.729432 -58.757872 
L 418.366188 -58.300053 
L 416.002945 -58.406215 
L 413.639702 -58.33795 
L 411.276458 -57.873389 
L 408.913215 -58.071073 
L 406.549972 -57.86623 
L 404.186728 -57.408811 
L 401.823485 -57.321255 
L 399.460241 -57.174333 
L 397.096998 -57.022946 
L 394.733755 -56.901679 
L 392.370511 -56.478272 
L 390.007268 -56.700959 
L 387.644025 -56.563095 
L 385.280781 -56.478317 
L 382.917538 -55.913242 
L 380.554295 -55.113345 
L 378.191051 -54.593838 
L 375.827808 -54.295575 
L 373.464564 -53.88431 
L 371.101321 -53.538858 
L 368.738078 -53.181577 
L 366.374834 -52.824978 
L 364.011591 -52.385843 
L 361.648348 -52.109302 
L 359.285104 -51.51232 
L 356.921861 -51.430748 
L 354.558617 -51.081739 
L 352.195374 -50.571266 
L 349.832131 -50.159636 
L 347.468887 -50.167512 
L 345.105644 -49.873012 
L 342.742401 -49.216779 
z
" style="stroke: #006400; stroke-opacity: 0.2"/>
    </defs>
    <g clip-path="url(#p524a912020)">
     <use xlink:href="#m5bb06f33d7" x="0" y="250.56" style="fill: #006400; fill-opacity: 0.2; stroke: #006400; stroke-opacity: 0.2"/>
    </g>
   </g>
   <g id="matplotlib.axis_3">
    <g id="xtick_4">
     <g id="line2d_16">
      <g>
       <use xlink:href="#m36507429a4" x="342.742401" y="205.068125" style="stroke: #000000; stroke-width: 0.8"/>
      </g>
     </g>
     <g id="text_16">
      <!-- 0 -->
      <g transform="translate(339.561151 219.666562)scale(0.1 -0.1)">
       <use xlink:href="#DejaVuSans-30"/>
      </g>
     </g>
    </g>
    <g id="xtick_5">
     <g id="line2d_17">
      <g>
       <use xlink:href="#m36507429a4" x="401.823485" y="205.068125" style="stroke: #000000; stroke-width: 0.8"/>
      </g>
     </g>
     <g id="text_17">
      <!-- 100 -->
      <g transform="translate(392.279735 219.666562)scale(0.1 -0.1)">
       <use xlink:href="#DejaVuSans-31"/>
       <use xlink:href="#DejaVuSans-30" x="63.623047"/>
       <use xlink:href="#DejaVuSans-30" x="127.246094"/>
      </g>
     </g>
    </g>
    <g id="xtick_6">
     <g id="line2d_18">
      <g>
       <use xlink:href="#m36507429a4" x="460.904569" y="205.068125" style="stroke: #000000; stroke-width: 0.8"/>
      </g>
     </g>
     <g id="text_18">
      <!-- 200 -->
      <g transform="translate(451.360819 219.666562)scale(0.1 -0.1)">
       <use xlink:href="#DejaVuSans-32"/>
       <use xlink:href="#DejaVuSans-30" x="63.623047"/>
       <use xlink:href="#DejaVuSans-30" x="127.246094"/>
      </g>
     </g>
    </g>
    <g id="text_19">
     <!-- Time (min) -->
     <g transform="translate(381.056889 240.864375)scale(0.12 -0.12)">
      <use xlink:href="#DejaVuSans-54"/>
      <use xlink:href="#DejaVuSans-69" x="57.958984"/>
      <use xlink:href="#DejaVuSans-6d" x="85.742188"/>
      <use xlink:href="#DejaVuSans-65" x="183.154297"/>
      <use xlink:href="#DejaVuSans-20" x="244.677734"/>
      <use xlink:href="#DejaVuSans-28" x="276.464844"/>
      <use xlink:href="#DejaVuSans-6d" x="315.478516"/>
      <use xlink:href="#DejaVuSans-69" x="412.890625"/>
      <use xlink:href="#DejaVuSans-6e" x="440.673828"/>
      <use xlink:href="#DejaVuSans-29" x="504.052734"/>
     </g>
    </g>
   </g>
   <g id="matplotlib.axis_4">
    <g id="ytick_7">
     <g id="line2d_19">
      <g>
       <use xlink:href="#m81f83bad81" x="335.65267" y="205.068125" style="stroke: #000000; stroke-width: 0.8"/>
      </g>
     </g>
     <g id="text_20">
      <!-- 0.0 -->
      <g transform="translate(312.749545 208.867344)scale(0.1 -0.1)">
       <use xlink:href="#DejaVuSans-30"/>
       <use xlink:href="#DejaVuSans-2e" x="63.623047"/>
       <use xlink:href="#DejaVuSans-30" x="95.410156"/>
      </g>
     </g>
    </g>
    <g id="ytick_8">
     <g id="line2d_20">
      <g>
       <use xlink:href="#m81f83bad81" x="335.65267" y="173.873312" style="stroke: #000000; stroke-width: 0.8"/>
      </g>
     </g>
     <g id="text_21">
      <!-- 0.2 -->
      <g transform="translate(312.749545 177.672531)scale(0.1 -0.1)">
       <use xlink:href="#DejaVuSans-30"/>
       <use xlink:href="#DejaVuSans-2e" x="63.623047"/>
       <use xlink:href="#DejaVuSans-32" x="95.410156"/>
      </g>
     </g>
    </g>
    <g id="ytick_9">
     <g id="line2d_21">
      <g>
       <use xlink:href="#m81f83bad81" x="335.65267" y="142.6785" style="stroke: #000000; stroke-width: 0.8"/>
      </g>
     </g>
     <g id="text_22">
      <!-- 0.4 -->
      <g transform="translate(312.749545 146.477719)scale(0.1 -0.1)">
       <use xlink:href="#DejaVuSans-30"/>
       <use xlink:href="#DejaVuSans-2e" x="63.623047"/>
       <use xlink:href="#DejaVuSans-34" x="95.410156"/>
      </g>
     </g>
    </g>
    <g id="ytick_10">
     <g id="line2d_22">
      <g>
       <use xlink:href="#m81f83bad81" x="335.65267" y="111.483687" style="stroke: #000000; stroke-width: 0.8"/>
      </g>
     </g>
     <g id="text_23">
      <!-- 0.6 -->
      <g transform="translate(312.749545 115.282906)scale(0.1 -0.1)">
       <use xlink:href="#DejaVuSans-30"/>
       <use xlink:href="#DejaVuSans-2e" x="63.623047"/>
       <use xlink:href="#DejaVuSans-36" x="95.410156"/>
      </g>
     </g>
    </g>
    <g id="ytick_11">
     <g id="line2d_23">
      <g>
       <use xlink:href="#m81f83bad81" x="335.65267" y="80.288875" style="stroke: #000000; stroke-width: 0.8"/>
      </g>
     </g>
     <g id="text_24">
      <!-- 0.8 -->
      <g transform="translate(312.749545 84.088094)scale(0.1 -0.1)">
       <use xlink:href="#DejaVuSans-30"/>
       <use xlink:href="#DejaVuSans-2e" x="63.623047"/>
       <use xlink:href="#DejaVuSans-38" x="95.410156"/>
      </g>
     </g>
    </g>
    <g id="ytick_12">
     <g id="line2d_24">
      <g>
       <use xlink:href="#m81f83bad81" x="335.65267" y="49.094062" style="stroke: #000000; stroke-width: 0.8"/>
      </g>
     </g>
     <g id="text_25">
      <!-- 1.0 -->
      <g transform="translate(312.749545 52.893281)scale(0.1 -0.1)">
       <use xlink:href="#DejaVuSans-31"/>
       <use xlink:href="#DejaVuSans-2e" x="63.623047"/>
       <use xlink:href="#DejaVuSans-30" x="95.410156"/>
      </g>
     </g>
    </g>
    <g id="text_26">
     <!-- Normalized exp output -->
     <g transform="translate(300.25392 195.658281)rotate(-90)scale(0.12 -0.12)">
      <use xlink:href="#DejaVuSans-4e"/>
      <use xlink:href="#DejaVuSans-6f" x="74.804688"/>
      <use xlink:href="#DejaVuSans-72" x="135.986328"/>
      <use xlink:href="#DejaVuSans-6d" x="175.349609"/>
      <use xlink:href="#DejaVuSans-61" x="272.761719"/>
      <use xlink:href="#DejaVuSans-6c" x="334.041016"/>
      <use xlink:href="#DejaVuSans-69" x="361.824219"/>
      <use xlink:href="#DejaVuSans-7a" x="389.607422"/>
      <use xlink:href="#DejaVuSans-65" x="442.097656"/>
      <use xlink:href="#DejaVuSans-64" x="503.621094"/>
      <use xlink:href="#DejaVuSans-20" x="567.097656"/>
      <use xlink:href="#DejaVuSans-65" x="598.884766"/>
      <use xlink:href="#DejaVuSans-78" x="658.658203"/>
      <use xlink:href="#DejaVuSans-70" x="717.837891"/>
      <use xlink:href="#DejaVuSans-20" x="781.314453"/>
      <use xlink:href="#DejaVuSans-6f" x="813.101562"/>
      <use xlink:href="#DejaVuSans-75" x="874.283203"/>
      <use xlink:href="#DejaVuSans-74" x="937.662109"/>
      <use xlink:href="#DejaVuSans-70" x="976.871094"/>
      <use xlink:href="#DejaVuSans-75" x="1040.347656"/>
      <use xlink:href="#DejaVuSans-74" x="1103.726562"/>
     </g>
    </g>
   </g>
   <g id="line2d_25">
    <path d="M 342.742401 201.032928 
L 345.105644 200.711624 
L 347.468887 200.399771 
L 349.832131 200.002866 
L 352.195374 199.539811 
L 354.558617 199.171256 
L 356.921861 198.689301 
L 359.285104 198.330197 
L 361.648348 197.895492 
L 364.011591 197.829341 
L 366.374834 197.517487 
L 368.738078 197.016631 
L 371.101321 196.988281 
L 373.464564 196.723678 
L 375.827808 196.355124 
L 378.191051 195.901518 
L 380.554295 195.703066 
L 382.917538 195.466813 
L 385.280781 195.221111 
L 387.644025 194.767505 
L 390.007268 194.3328 
L 392.370511 193.699643 
L 394.733755 193.085386 
L 397.096998 192.423878 
L 399.460241 191.393816 
L 401.823485 190.448805 
L 404.186728 189.399843 
L 406.549972 188.209129 
L 408.913215 187.027865 
L 411.276458 185.591449 
L 413.639702 184.02273 
L 416.002945 182.671365 
L 418.366188 181.130997 
L 420.729432 179.477228 
L 423.092675 177.95576 
L 425.455919 176.131889 
L 427.819162 174.062315 
L 430.182405 172.191193 
L 432.545649 170.622475 
L 434.908892 168.439499 
L 437.272135 166.634528 
L 439.635379 164.848458 
L 441.998622 163.260839 
L 444.361866 161.257416 
L 446.725109 159.603647 
L 449.088352 157.685274 
L 451.451596 155.889754 
L 453.814839 154.793541 
L 456.178082 152.733417 
L 458.541326 151.30645 
L 460.904569 149.454229 
L 463.267813 148.754921 
L 465.631056 148.112313 
L 467.994299 146.732597 
L 470.357543 146.392393 
L 472.720786 145.834837 
L 475.084029 145.305631 
L 477.447273 145.041027 
L 479.810516 144.870925 
L 482.173759 144.275569 
L 484.537003 144.36062 
" clip-path="url(#p524a912020)" style="fill: none; stroke: #90ee90; stroke-width: 2; stroke-linecap: square"/>
   </g>
   <g id="line2d_26">
    <path d="M 342.742401 201.401482 
L 345.105644 201.023478 
L 347.468887 200.683274 
L 349.832131 200.409221 
L 352.195374 200.116267 
L 354.558617 199.880015 
L 356.921861 199.596511 
L 359.285104 199.256307 
L 361.648348 198.679851 
L 364.011591 198.377447 
L 366.374834 198.056144 
L 368.738078 198.037243 
L 371.101321 197.697039 
L 373.464564 197.262334 
L 375.827808 196.92213 
L 378.191051 196.742578 
L 380.554295 196.421275 
L 382.917538 196.03382 
L 385.280781 195.504614 
L 387.644025 195.268361 
L 390.007268 194.824206 
L 392.370511 194.219399 
L 394.733755 194.058747 
L 397.096998 193.822494 
L 399.460241 193.397239 
L 401.823485 193.075936 
L 404.186728 193.340539 
L 406.549972 193.104286 
L 408.913215 192.849133 
L 411.276458 192.886933 
L 413.639702 192.62233 
L 416.002945 192.63178 
L 418.366188 192.386078 
L 420.729432 192.187625 
L 423.092675 192.178175 
L 425.455919 192.168725 
L 427.819162 191.847421 
L 430.182405 191.72457 
L 432.545649 191.70567 
L 434.908892 191.526118 
L 437.272135 191.459967 
L 439.635379 191.384366 
L 441.998622 191.327665 
L 444.361866 191.138663 
L 446.725109 191.034712 
L 449.088352 191.091413 
L 451.451596 190.88351 
L 453.814839 190.618907 
L 456.178082 190.940211 
L 458.541326 190.401555 
L 460.904569 190.496056 
L 463.267813 190.165302 
L 465.631056 190.070801 
L 467.994299 190.165302 
L 470.357543 190.04245 
L 472.720786 189.957399 
L 475.084029 189.843998 
L 477.447273 189.730597 
L 479.810516 189.541595 
L 482.173759 189.484894 
L 484.537003 189.343142 
" clip-path="url(#p524a912020)" style="fill: none; stroke: #3cb371; stroke-width: 2; stroke-linecap: square"/>
   </g>
   <g id="line2d_27">
    <path d="M 342.742401 201.429833 
L 345.105644 200.985678 
L 347.468887 200.721074 
L 349.832131 200.475372 
L 352.195374 200.248569 
L 354.558617 199.747713 
L 356.921861 199.407509 
L 359.285104 199.171256 
L 361.648348 198.679851 
L 364.011591 198.471948 
L 366.374834 197.980543 
L 368.738078 197.593088 
L 371.101321 197.177283 
L 373.464564 196.978831 
L 375.827808 196.591376 
L 378.191051 196.203922 
L 380.554295 195.873168 
L 382.917538 195.15496 
L 385.280781 194.843106 
L 387.644025 194.720255 
L 390.007268 194.465102 
L 392.370511 194.550153 
L 394.733755 194.446202 
L 397.096998 194.068197 
L 399.460241 193.954796 
L 401.823485 193.879195 
L 404.186728 193.794144 
L 406.549972 193.42559 
L 408.913215 193.340539 
L 411.276458 193.236588 
L 413.639702 193.123186 
L 416.002945 192.839683 
L 418.366188 192.915284 
L 420.729432 192.62233 
L 423.092675 192.490029 
L 425.455919 192.140375 
L 427.819162 192.178175 
L 430.182405 192.244326 
L 432.545649 191.819071 
L 434.908892 191.970273 
L 437.272135 191.885222 
L 439.635379 191.847421 
L 441.998622 191.620619 
L 444.361866 191.535568 
L 446.725109 191.233164 
L 449.088352 191.176464 
L 451.451596 191.053612 
L 453.814839 190.987461 
L 456.178082 190.741759 
L 458.541326 190.82681 
L 460.904569 190.571657 
L 463.267813 190.571657 
L 465.631056 190.155852 
L 467.994299 190.240903 
L 470.357543 190.212552 
L 472.720786 190.089701 
L 475.084029 189.98575 
L 477.447273 189.740047 
L 479.810516 189.891249 
L 482.173759 189.749497 
L 484.537003 189.399843 
" clip-path="url(#p524a912020)" style="fill: none; stroke: #006400; stroke-width: 2; stroke-linecap: square"/>
   </g>
   <g id="patch_7">
    <path d="M 335.65267 205.068125 
L 335.65267 49.094062 
" style="fill: none; stroke: #000000; stroke-width: 0.8; stroke-linejoin: miter; stroke-linecap: square"/>
   </g>
   <g id="patch_8">
    <path d="M 335.65267 205.068125 
L 491.626733 205.068125 
" style="fill: none; stroke: #000000; stroke-width: 0.8; stroke-linejoin: miter; stroke-linecap: square"/>
   </g>
   <g id="text_27">
    <!-- vRNA = 1fM -->
    <g transform="translate(380.175639 43.094062)scale(0.1 -0.1)">
     <defs>
      <path id="DejaVuSans-Bold-31" d="M 750 831 
L 1813 831 
L 1813 3847 
L 722 3622 
L 722 4441 
L 1806 4666 
L 2950 4666 
L 2950 831 
L 4013 831 
L 4013 0 
L 750 0 
L 750 831 
z
" transform="scale(0.015625)"/>
     </defs>
     <use xlink:href="#DejaVuSans-Bold-76"/>
     <use xlink:href="#DejaVuSans-Bold-52" x="65.185547"/>
     <use xlink:href="#DejaVuSans-Bold-4e" x="142.1875"/>
     <use xlink:href="#DejaVuSans-Bold-41" x="225.878906"/>
     <use xlink:href="#DejaVuSans-Bold-20" x="303.271484"/>
     <use xlink:href="#DejaVuSans-Bold-3d" x="338.085938"/>
     <use xlink:href="#DejaVuSans-Bold-20" x="421.875"/>
     <use xlink:href="#DejaVuSans-Bold-31" x="456.689453"/>
     <use xlink:href="#DejaVuSans-Bold-66" x="526.269531"/>
     <use xlink:href="#DejaVuSans-Bold-4d" x="569.775391"/>
    </g>
   </g>
   <g id="legend_2">
    <g id="patch_9">
     <path d="M 414.71267 101.128437 
L 484.626733 101.128437 
Q 486.626733 101.128437 486.626733 99.128437 
L 486.626733 56.094062 
Q 486.626733 54.094062 484.626733 54.094062 
L 414.71267 54.094062 
Q 412.71267 54.094062 412.71267 56.094062 
L 412.71267 99.128437 
Q 412.71267 101.128437 414.71267 101.128437 
z
" style="fill: #ffffff; opacity: 0.8; stroke: #cccccc; stroke-linejoin: miter"/>
    </g>
    <g id="line2d_28">
     <path d="M 416.71267 62.1925 
L 426.71267 62.1925 
L 436.71267 62.1925 
" style="fill: none; stroke: #90ee90; stroke-width: 2; stroke-linecap: square"/>
    </g>
    <g id="text_28">
     <!-- T7 1.0 -->
     <g transform="translate(444.71267 65.6925)scale(0.1 -0.1)">
      <use xlink:href="#DejaVuSans-54"/>
      <use xlink:href="#DejaVuSans-37" x="61.083984"/>
      <use xlink:href="#DejaVuSans-20" x="124.707031"/>
      <use xlink:href="#DejaVuSans-31" x="156.494141"/>
      <use xlink:href="#DejaVuSans-2e" x="220.117188"/>
      <use xlink:href="#DejaVuSans-30" x="251.904297"/>
     </g>
    </g>
    <g id="line2d_29">
     <path d="M 416.71267 76.870625 
L 426.71267 76.870625 
L 436.71267 76.870625 
" style="fill: none; stroke: #3cb371; stroke-width: 2; stroke-linecap: square"/>
    </g>
    <g id="text_29">
     <!-- T7 5.0 -->
     <g transform="translate(444.71267 80.370625)scale(0.1 -0.1)">
      <use xlink:href="#DejaVuSans-54"/>
      <use xlink:href="#DejaVuSans-37" x="61.083984"/>
      <use xlink:href="#DejaVuSans-20" x="124.707031"/>
      <use xlink:href="#DejaVuSans-35" x="156.494141"/>
      <use xlink:href="#DejaVuSans-2e" x="220.117188"/>
      <use xlink:href="#DejaVuSans-30" x="251.904297"/>
     </g>
    </g>
    <g id="line2d_30">
     <path d="M 416.71267 91.54875 
L 426.71267 91.54875 
L 436.71267 91.54875 
" style="fill: none; stroke: #006400; stroke-width: 2; stroke-linecap: square"/>
    </g>
    <g id="text_30">
     <!-- T7 20.0 -->
     <g transform="translate(444.71267 95.04875)scale(0.1 -0.1)">
      <use xlink:href="#DejaVuSans-54"/>
      <use xlink:href="#DejaVuSans-37" x="61.083984"/>
      <use xlink:href="#DejaVuSans-20" x="124.707031"/>
      <use xlink:href="#DejaVuSans-32" x="156.494141"/>
      <use xlink:href="#DejaVuSans-30" x="220.117188"/>
      <use xlink:href="#DejaVuSans-2e" x="283.740234"/>
      <use xlink:href="#DejaVuSans-30" x="315.527344"/>
     </g>
    </g>
   </g>
  </g>
  <g id="axes_3">
   <g id="patch_10">
    <path d="M 619.588466 205.068125 
L 775.562528 205.068125 
L 775.562528 49.094062 
L 619.588466 49.094062 
z
" style="fill: #ffffff"/>
   </g>
   <g id="PolyCollection_7">
    <defs>
     <path id="mb535899a51" d="M 626.678196 -49.390786 
L 626.678196 -49.058551 
L 629.041439 -49.60484 
L 631.404683 -49.967873 
L 633.767926 -50.304485 
L 636.13117 -50.466438 
L 638.494413 -50.83778 
L 640.857656 -51.016426 
L 643.2209 -51.25295 
L 645.584143 -51.87351 
L 647.947386 -52.13878 
L 650.31063 -52.16339 
L 652.673873 -52.436577 
L 655.037116 -52.794128 
L 657.40036 -52.885591 
L 659.763603 -53.260907 
L 662.126847 -54.286852 
L 664.49009 -55.447508 
L 666.853333 -57.506251 
L 669.216577 -60.921967 
L 671.57982 -64.470272 
L 673.943063 -70.298413 
L 676.306307 -77.224352 
L 678.66955 -84.62472 
L 681.032794 -93.880221 
L 683.396037 -101.530985 
L 685.75928 -110.329028 
L 688.122524 -119.618138 
L 690.485767 -127.321664 
L 692.84901 -136.535161 
L 695.212254 -142.525729 
L 697.575497 -148.370515 
L 699.938741 -154.691737 
L 702.301984 -159.889244 
L 704.665227 -165.827669 
L 707.028471 -169.261189 
L 709.391714 -171.625484 
L 711.754957 -177.243143 
L 714.118201 -180.580214 
L 716.481444 -183.445672 
L 718.844687 -183.674762 
L 721.207931 -186.331435 
L 723.571174 -187.884957 
L 725.934418 -188.675756 
L 728.297661 -189.413168 
L 730.660904 -188.076896 
L 733.024148 -189.90189 
L 735.387391 -191.443734 
L 737.750634 -191.251977 
L 740.113878 -189.738706 
L 742.477121 -191.534546 
L 744.840365 -191.364257 
L 747.203608 -189.529773 
L 749.566851 -192.190339 
L 751.930095 -189.609069 
L 754.293338 -190.716874 
L 756.656581 -192.659677 
L 759.019825 -193.026947 
L 761.383068 -189.30915 
L 763.746312 -193.268534 
L 766.109555 -190.838015 
L 768.472798 -193.237784 
L 768.472798 -207.993071 
L 768.472798 -207.993071 
L 766.109555 -211.016547 
L 763.746312 -209.228636 
L 761.383068 -209.861581 
L 759.019825 -209.904928 
L 756.656581 -208.268775 
L 754.293338 -209.814673 
L 751.930095 -211.640686 
L 749.566851 -206.84809 
L 747.203608 -212.003485 
L 744.840365 -209.715397 
L 742.477121 -209.545107 
L 740.113878 -210.358136 
L 737.750634 -210.073379 
L 735.387391 -209.862723 
L 733.024148 -209.854749 
L 730.660904 -210.60243 
L 728.297661 -208.755851 
L 725.934418 -208.32145 
L 723.571174 -204.557297 
L 721.207931 -205.619412 
L 718.844687 -203.399829 
L 716.481444 -196.749239 
L 714.118201 -196.968666 
L 711.754957 -194.087565 
L 709.391714 -190.954422 
L 707.028471 -187.402948 
L 704.665227 -180.743751 
L 702.301984 -178.762984 
L 699.938741 -171.165043 
L 697.575497 -163.575703 
L 695.212254 -155.982433 
L 692.84901 -145.775513 
L 690.485767 -137.997712 
L 688.122524 -128.350837 
L 685.75928 -119.098831 
L 683.396037 -108.108343 
L 681.032794 -97.8417 
L 678.66955 -89.104192 
L 676.306307 -80.647275 
L 673.943063 -73.020045 
L 671.57982 -66.997748 
L 669.216577 -61.984254 
L 666.853333 -58.671492 
L 664.49009 -56.609987 
L 662.126847 -55.219114 
L 659.763603 -54.373936 
L 657.40036 -53.67194 
L 655.037116 -53.196396 
L 652.673873 -53.308244 
L 650.31063 -53.184527 
L 647.947386 -52.62323 
L 645.584143 -52.283693 
L 643.2209 -51.921441 
L 640.857656 -51.874463 
L 638.494413 -51.2782 
L 636.13117 -51.025834 
L 633.767926 -50.658581 
L 631.404683 -50.503787 
L 629.041439 -50.262013 
L 626.678196 -49.390786 
z
" style="stroke: #90ee90; stroke-opacity: 0.2"/>
    </defs>
    <g clip-path="url(#p870d25199d)">
     <use xlink:href="#mb535899a51" x="0" y="250.56" style="fill: #90ee90; fill-opacity: 0.2; stroke: #90ee90; stroke-opacity: 0.2"/>
    </g>
   </g>
   <g id="PolyCollection_8">
    <defs>
     <path id="m49dc2ea4ef" d="M 626.678196 -49.283914 
L 626.678196 -48.579516 
L 629.041439 -49.479231 
L 631.404683 -49.584435 
L 633.767926 -49.681405 
L 636.13117 -49.397388 
L 638.494413 -50.222809 
L 640.857656 -50.328934 
L 643.2209 -50.625651 
L 645.584143 -50.793438 
L 647.947386 -51.301703 
L 650.31063 -51.354119 
L 652.673873 -51.668346 
L 655.037116 -52.234471 
L 657.40036 -52.230099 
L 659.763603 -53.007409 
L 662.126847 -53.658446 
L 664.49009 -54.520483 
L 666.853333 -55.177153 
L 669.216577 -56.541452 
L 671.57982 -57.294934 
L 673.943063 -58.962232 
L 676.306307 -60.316907 
L 678.66955 -62.032673 
L 681.032794 -64.190375 
L 683.396037 -65.738197 
L 685.75928 -67.74059 
L 688.122524 -69.636981 
L 690.485767 -71.633426 
L 692.84901 -74.301962 
L 695.212254 -75.573517 
L 697.575497 -77.895562 
L 699.938741 -78.665348 
L 702.301984 -79.540538 
L 704.665227 -80.831962 
L 707.028471 -81.756056 
L 709.391714 -82.32427 
L 711.754957 -82.697718 
L 714.118201 -83.307125 
L 716.481444 -82.750271 
L 718.844687 -83.239521 
L 721.207931 -83.621335 
L 723.571174 -83.239692 
L 725.934418 -84.014682 
L 728.297661 -83.628334 
L 730.660904 -83.293517 
L 733.024148 -83.313148 
L 735.387391 -84.059262 
L 737.750634 -84.034866 
L 740.113878 -83.937141 
L 742.477121 -83.871817 
L 744.840365 -83.870259 
L 747.203608 -84.756605 
L 749.566851 -85.32299 
L 751.930095 -84.210105 
L 754.293338 -85.320311 
L 756.656581 -84.551616 
L 759.019825 -84.582582 
L 761.383068 -84.892126 
L 763.746312 -84.729692 
L 766.109555 -85.066054 
L 768.472798 -85.152619 
L 768.472798 -118.419739 
L 768.472798 -118.419739 
L 766.109555 -118.1472 
L 763.746312 -117.425149 
L 761.383068 -117.602919 
L 759.019825 -117.307656 
L 756.656581 -117.565425 
L 754.293338 -117.288137 
L 751.930095 -118.114839 
L 749.566851 -116.794052 
L 747.203608 -117.228134 
L 744.840365 -116.885967 
L 742.477121 -116.260701 
L 740.113878 -116.686783 
L 737.750634 -116.910362 
L 735.387391 -116.507961 
L 733.024148 -116.743769 
L 730.660904 -116.555498 
L 728.297661 -115.389072 
L 725.934418 -113.79311 
L 723.571174 -114.700401 
L 721.207931 -113.260345 
L 718.844687 -112.375845 
L 716.481444 -110.332466 
L 714.118201 -109.057403 
L 711.754957 -108.173693 
L 709.391714 -105.90111 
L 707.028471 -103.067284 
L 704.665227 -100.475938 
L 702.301984 -97.873917 
L 699.938741 -94.893462 
L 697.575497 -90.938193 
L 695.212254 -88.30838 
L 692.84901 -83.701967 
L 690.485767 -81.097342 
L 688.122524 -77.877325 
L 685.75928 -74.387155 
L 683.396037 -71.834594 
L 681.032794 -68.430559 
L 678.66955 -65.825406 
L 676.306307 -63.458724 
L 673.943063 -61.354659 
L 671.57982 -59.393114 
L 669.216577 -57.91637 
L 666.853333 -56.577938 
L 664.49009 -55.968294 
L 662.126847 -55.148211 
L 659.763603 -54.627435 
L 657.40036 -54.346333 
L 655.037116 -53.396949 
L 652.673873 -53.320467 
L 650.31063 -52.897585 
L 647.947386 -52.874401 
L 645.584143 -52.532155 
L 643.2209 -52.019534 
L 640.857656 -52.18395 
L 638.494413 -51.401765 
L 636.13117 -51.168773 
L 633.767926 -50.733555 
L 631.404683 -50.528122 
L 629.041439 -49.934016 
L 626.678196 -49.283914 
z
" style="stroke: #3cb371; stroke-opacity: 0.2"/>
    </defs>
    <g clip-path="url(#p870d25199d)">
     <use xlink:href="#m49dc2ea4ef" x="0" y="250.56" style="fill: #3cb371; fill-opacity: 0.2; stroke: #3cb371; stroke-opacity: 0.2"/>
    </g>
   </g>
   <g id="PolyCollection_9">
    <defs>
     <path id="meac17dca39" d="M 626.678196 -49.032973 
L 626.678196 -48.20675 
L 629.041439 -48.761416 
L 631.404683 -48.850636 
L 633.767926 -48.9691 
L 636.13117 -49.238799 
L 638.494413 -49.351279 
L 640.857656 -49.719333 
L 643.2209 -49.911283 
L 645.584143 -50.501757 
L 647.947386 -50.39378 
L 650.31063 -50.764292 
L 652.673873 -51.001039 
L 655.037116 -51.387159 
L 657.40036 -51.672034 
L 659.763603 -51.436144 
L 662.126847 -51.790921 
L 664.49009 -52.093348 
L 666.853333 -52.247719 
L 669.216577 -52.399722 
L 671.57982 -52.785688 
L 673.943063 -52.61019 
L 676.306307 -52.790066 
L 678.66955 -52.960059 
L 681.032794 -52.994889 
L 683.396037 -52.981666 
L 685.75928 -53.258204 
L 688.122524 -53.236926 
L 690.485767 -53.151269 
L 692.84901 -53.272645 
L 695.212254 -53.686986 
L 697.575497 -54.035624 
L 699.938741 -53.84875 
L 702.301984 -53.827068 
L 704.665227 -54.010234 
L 707.028471 -54.211133 
L 709.391714 -54.107159 
L 711.754957 -54.559461 
L 714.118201 -54.148866 
L 716.481444 -54.734546 
L 718.844687 -54.355767 
L 721.207931 -54.504383 
L 723.571174 -54.619667 
L 725.934418 -54.662001 
L 728.297661 -54.682298 
L 730.660904 -54.71152 
L 733.024148 -54.84989 
L 735.387391 -54.791226 
L 737.750634 -54.985322 
L 740.113878 -55.094921 
L 742.477121 -55.222021 
L 744.840365 -55.334277 
L 747.203608 -55.507749 
L 749.566851 -55.336147 
L 751.930095 -55.393797 
L 754.293338 -55.475252 
L 756.656581 -55.695352 
L 759.019825 -55.74286 
L 761.383068 -55.806955 
L 763.746312 -56.10386 
L 766.109555 -55.921431 
L 768.472798 -56.089162 
L 768.472798 -68.877183 
L 768.472798 -68.877183 
L 766.109555 -68.345605 
L 763.746312 -68.182077 
L 761.383068 -68.100978 
L 759.019825 -67.99497 
L 756.656581 -68.17478 
L 754.293338 -67.941275 
L 751.930095 -68.09833 
L 749.566851 -67.910278 
L 747.203608 -67.946578 
L 744.840365 -67.458543 
L 742.477121 -67.948803 
L 740.113878 -67.452196 
L 737.750634 -67.769697 
L 735.387391 -67.491288 
L 733.024148 -67.357023 
L 730.660904 -67.079588 
L 728.297661 -66.957608 
L 725.934418 -67.166907 
L 723.571174 -66.944639 
L 721.207931 -66.776419 
L 718.844687 -66.981736 
L 716.481444 -66.489556 
L 714.118201 -66.564929 
L 711.754957 -66.400037 
L 709.391714 -65.661626 
L 707.028471 -65.595452 
L 704.665227 -65.210444 
L 702.301984 -65.204608 
L 699.938741 -65.031724 
L 697.575497 -64.542446 
L 695.212254 -64.45638 
L 692.84901 -64.076911 
L 690.485767 -63.51788 
L 688.122524 -63.035318 
L 685.75928 -63.203042 
L 683.396037 -62.742472 
L 681.032794 -62.086641 
L 678.66955 -61.554465 
L 676.306307 -60.344742 
L 673.943063 -59.84421 
L 671.57982 -59.196206 
L 669.216577 -58.240257 
L 666.853333 -57.598451 
L 664.49009 -56.354205 
L 662.126847 -56.070725 
L 659.763603 -55.593892 
L 657.40036 -55.036698 
L 655.037116 -54.206461 
L 652.673873 -53.855472 
L 650.31063 -53.166108 
L 647.947386 -52.742812 
L 645.584143 -52.389131 
L 643.2209 -52.034594 
L 640.857656 -51.716238 
L 638.494413 -51.271583 
L 636.13117 -50.741456 
L 633.767926 -50.689851 
L 631.404683 -50.600412 
L 629.041439 -50.122626 
L 626.678196 -49.032973 
z
" style="stroke: #006400; stroke-opacity: 0.2"/>
    </defs>
    <g clip-path="url(#p870d25199d)">
     <use xlink:href="#meac17dca39" x="0" y="250.56" style="fill: #006400; fill-opacity: 0.2; stroke: #006400; stroke-opacity: 0.2"/>
    </g>
   </g>
   <g id="matplotlib.axis_5">
    <g id="xtick_7">
     <g id="line2d_31">
      <g>
       <use xlink:href="#m36507429a4" x="626.678196" y="205.068125" style="stroke: #000000; stroke-width: 0.8"/>
      </g>
     </g>
     <g id="text_31">
      <!-- 0 -->
      <g transform="translate(623.496946 219.666562)scale(0.1 -0.1)">
       <use xlink:href="#DejaVuSans-30"/>
      </g>
     </g>
    </g>
    <g id="xtick_8">
     <g id="line2d_32">
      <g>
       <use xlink:href="#m36507429a4" x="685.75928" y="205.068125" style="stroke: #000000; stroke-width: 0.8"/>
      </g>
     </g>
     <g id="text_32">
      <!-- 100 -->
      <g transform="translate(676.21553 219.666562)scale(0.1 -0.1)">
       <use xlink:href="#DejaVuSans-31"/>
       <use xlink:href="#DejaVuSans-30" x="63.623047"/>
       <use xlink:href="#DejaVuSans-30" x="127.246094"/>
      </g>
     </g>
    </g>
    <g id="xtick_9">
     <g id="line2d_33">
      <g>
       <use xlink:href="#m36507429a4" x="744.840365" y="205.068125" style="stroke: #000000; stroke-width: 0.8"/>
      </g>
     </g>
     <g id="text_33">
      <!-- 200 -->
      <g transform="translate(735.296615 219.666562)scale(0.1 -0.1)">
       <use xlink:href="#DejaVuSans-32"/>
       <use xlink:href="#DejaVuSans-30" x="63.623047"/>
       <use xlink:href="#DejaVuSans-30" x="127.246094"/>
      </g>
     </g>
    </g>
    <g id="text_34">
     <!-- Time (min) -->
     <g transform="translate(664.992685 240.864375)scale(0.12 -0.12)">
      <use xlink:href="#DejaVuSans-54"/>
      <use xlink:href="#DejaVuSans-69" x="57.958984"/>
      <use xlink:href="#DejaVuSans-6d" x="85.742188"/>
      <use xlink:href="#DejaVuSans-65" x="183.154297"/>
      <use xlink:href="#DejaVuSans-20" x="244.677734"/>
      <use xlink:href="#DejaVuSans-28" x="276.464844"/>
      <use xlink:href="#DejaVuSans-6d" x="315.478516"/>
      <use xlink:href="#DejaVuSans-69" x="412.890625"/>
      <use xlink:href="#DejaVuSans-6e" x="440.673828"/>
      <use xlink:href="#DejaVuSans-29" x="504.052734"/>
     </g>
    </g>
   </g>
   <g id="matplotlib.axis_6">
    <g id="ytick_13">
     <g id="line2d_34">
      <g>
       <use xlink:href="#m81f83bad81" x="619.588466" y="205.068125" style="stroke: #000000; stroke-width: 0.8"/>
      </g>
     </g>
     <g id="text_35">
      <!-- 0.0 -->
      <g transform="translate(596.685341 208.867344)scale(0.1 -0.1)">
       <use xlink:href="#DejaVuSans-30"/>
       <use xlink:href="#DejaVuSans-2e" x="63.623047"/>
       <use xlink:href="#DejaVuSans-30" x="95.410156"/>
      </g>
     </g>
    </g>
    <g id="ytick_14">
     <g id="line2d_35">
      <g>
       <use xlink:href="#m81f83bad81" x="619.588466" y="173.873312" style="stroke: #000000; stroke-width: 0.8"/>
      </g>
     </g>
     <g id="text_36">
      <!-- 0.2 -->
      <g transform="translate(596.685341 177.672531)scale(0.1 -0.1)">
       <use xlink:href="#DejaVuSans-30"/>
       <use xlink:href="#DejaVuSans-2e" x="63.623047"/>
       <use xlink:href="#DejaVuSans-32" x="95.410156"/>
      </g>
     </g>
    </g>
    <g id="ytick_15">
     <g id="line2d_36">
      <g>
       <use xlink:href="#m81f83bad81" x="619.588466" y="142.6785" style="stroke: #000000; stroke-width: 0.8"/>
      </g>
     </g>
     <g id="text_37">
      <!-- 0.4 -->
      <g transform="translate(596.685341 146.477719)scale(0.1 -0.1)">
       <use xlink:href="#DejaVuSans-30"/>
       <use xlink:href="#DejaVuSans-2e" x="63.623047"/>
       <use xlink:href="#DejaVuSans-34" x="95.410156"/>
      </g>
     </g>
    </g>
    <g id="ytick_16">
     <g id="line2d_37">
      <g>
       <use xlink:href="#m81f83bad81" x="619.588466" y="111.483687" style="stroke: #000000; stroke-width: 0.8"/>
      </g>
     </g>
     <g id="text_38">
      <!-- 0.6 -->
      <g transform="translate(596.685341 115.282906)scale(0.1 -0.1)">
       <use xlink:href="#DejaVuSans-30"/>
       <use xlink:href="#DejaVuSans-2e" x="63.623047"/>
       <use xlink:href="#DejaVuSans-36" x="95.410156"/>
      </g>
     </g>
    </g>
    <g id="ytick_17">
     <g id="line2d_38">
      <g>
       <use xlink:href="#m81f83bad81" x="619.588466" y="80.288875" style="stroke: #000000; stroke-width: 0.8"/>
      </g>
     </g>
     <g id="text_39">
      <!-- 0.8 -->
      <g transform="translate(596.685341 84.088094)scale(0.1 -0.1)">
       <use xlink:href="#DejaVuSans-30"/>
       <use xlink:href="#DejaVuSans-2e" x="63.623047"/>
       <use xlink:href="#DejaVuSans-38" x="95.410156"/>
      </g>
     </g>
    </g>
    <g id="ytick_18">
     <g id="line2d_39">
      <g>
       <use xlink:href="#m81f83bad81" x="619.588466" y="49.094062" style="stroke: #000000; stroke-width: 0.8"/>
      </g>
     </g>
     <g id="text_40">
      <!-- 1.0 -->
      <g transform="translate(596.685341 52.893281)scale(0.1 -0.1)">
       <use xlink:href="#DejaVuSans-31"/>
       <use xlink:href="#DejaVuSans-2e" x="63.623047"/>
       <use xlink:href="#DejaVuSans-30" x="95.410156"/>
      </g>
     </g>
    </g>
   </g>
   <g id="line2d_40">
    <path d="M 626.678196 201.335332 
L 629.041439 200.626573 
L 631.404683 200.32417 
L 633.767926 200.078467 
L 636.13117 199.813864 
L 638.494413 199.50201 
L 640.857656 199.114556 
L 643.2209 198.972804 
L 645.584143 198.481398 
L 647.947386 198.178995 
L 650.31063 197.886042 
L 652.673873 197.687589 
L 655.037116 197.564738 
L 657.40036 197.281235 
L 659.763603 196.742578 
L 662.126847 195.807017 
L 664.49009 194.531253 
L 666.853333 192.471129 
L 669.216577 189.10689 
L 671.57982 184.82599 
L 673.943063 178.900771 
L 676.306307 171.624186 
L 678.66955 163.695544 
L 681.032794 154.69904 
L 683.396037 145.740336 
L 685.75928 135.846071 
L 688.122524 126.575513 
L 690.485767 117.900312 
L 692.84901 109.404663 
L 695.212254 101.305919 
L 697.575497 94.586891 
L 699.938741 87.63161 
L 702.301984 81.233886 
L 704.665227 77.27429 
L 707.028471 72.227931 
L 709.391714 69.270047 
L 711.754957 64.894646 
L 714.118201 61.78556 
L 716.481444 60.462545 
L 718.844687 57.022705 
L 721.207931 54.584576 
L 723.571174 54.338873 
L 725.934418 52.061397 
L 728.297661 51.47549 
L 730.660904 51.220337 
L 733.024148 50.681681 
L 735.387391 49.906772 
L 737.750634 49.897322 
L 740.113878 50.511579 
L 742.477121 50.020173 
L 744.840365 50.020173 
L 747.203608 49.793371 
L 749.566851 51.040785 
L 751.930095 49.935122 
L 754.293338 50.294226 
L 756.656581 50.095774 
L 759.019825 49.094062 
L 761.383068 50.974634 
L 763.746312 49.311415 
L 766.109555 49.632719 
L 768.472798 49.944572 
" clip-path="url(#p870d25199d)" style="fill: none; stroke: #90ee90; stroke-width: 2; stroke-linecap: square"/>
   </g>
   <g id="line2d_41">
    <path d="M 626.678196 201.628285 
L 629.041439 200.853376 
L 631.404683 200.503722 
L 633.767926 200.35252 
L 636.13117 200.276919 
L 638.494413 199.747713 
L 640.857656 199.303558 
L 643.2209 199.237407 
L 645.584143 198.897203 
L 647.947386 198.471948 
L 650.31063 198.434148 
L 652.673873 198.065594 
L 655.037116 197.74429 
L 657.40036 197.271784 
L 659.763603 196.742578 
L 662.126847 196.156671 
L 664.49009 195.315612 
L 666.853333 194.682454 
L 669.216577 193.331089 
L 671.57982 192.215976 
L 673.943063 190.401555 
L 676.306307 188.672184 
L 678.66955 186.630961 
L 681.032794 184.249533 
L 683.396037 181.773604 
L 685.75928 179.496128 
L 688.122524 176.802847 
L 690.485767 174.194616 
L 692.84901 171.558036 
L 695.212254 168.619051 
L 697.575497 166.143123 
L 699.938741 163.780595 
L 702.301984 161.852773 
L 704.665227 159.90605 
L 707.028471 158.14833 
L 709.391714 156.44731 
L 711.754957 155.124295 
L 714.118201 154.377736 
L 716.481444 154.018632 
L 718.844687 152.752317 
L 721.207931 152.11916 
L 723.571174 151.589954 
L 725.934418 151.656104 
L 728.297661 151.051297 
L 730.660904 150.635492 
L 733.024148 150.531541 
L 735.387391 150.276388 
L 737.750634 150.087386 
L 740.113878 150.248038 
L 742.477121 150.493741 
L 744.840365 150.181887 
L 747.203608 149.56763 
L 749.566851 149.501479 
L 751.930095 149.397528 
L 754.293338 149.255776 
L 756.656581 149.501479 
L 759.019825 149.614881 
L 761.383068 149.312477 
L 763.746312 149.482579 
L 766.109555 148.953373 
L 768.472798 148.773821 
" clip-path="url(#p870d25199d)" style="fill: none; stroke: #3cb371; stroke-width: 2; stroke-linecap: square"/>
   </g>
   <g id="line2d_42">
    <path d="M 626.678196 201.940139 
L 629.041439 201.117979 
L 631.404683 200.834476 
L 633.767926 200.730525 
L 636.13117 200.569873 
L 638.494413 200.248569 
L 640.857656 199.842214 
L 643.2209 199.587061 
L 645.584143 199.114556 
L 647.947386 198.991704 
L 650.31063 198.5948 
L 652.673873 198.131744 
L 655.037116 197.76319 
L 657.40036 197.205634 
L 659.763603 197.044982 
L 662.126847 196.629177 
L 664.49009 196.336224 
L 666.853333 195.636915 
L 669.216577 195.240011 
L 671.57982 194.569053 
L 673.943063 194.3328 
L 676.306307 193.992596 
L 678.66955 193.302738 
L 681.032794 193.019235 
L 683.396037 192.697931 
L 685.75928 192.329377 
L 688.122524 192.423878 
L 690.485767 192.225426 
L 692.84901 191.885222 
L 695.212254 191.488317 
L 697.575497 191.270965 
L 699.938741 191.119763 
L 702.301984 191.044162 
L 704.665227 190.949661 
L 707.028471 190.656708 
L 709.391714 190.675608 
L 711.754957 190.080251 
L 714.118201 190.203102 
L 716.481444 189.947949 
L 718.844687 189.891249 
L 721.207931 189.919599 
L 723.571174 189.777847 
L 725.934418 189.645546 
L 728.297661 189.740047 
L 730.660904 189.664446 
L 733.024148 189.456544 
L 735.387391 189.418743 
L 737.750634 189.18249 
L 740.113878 189.286442 
L 742.477121 188.974588 
L 744.840365 189.16359 
L 747.203608 188.832836 
L 749.566851 188.936788 
L 751.930095 188.813936 
L 754.293338 188.851737 
L 756.656581 188.624934 
L 759.019825 188.691085 
L 761.383068 188.606034 
L 763.746312 188.417032 
L 766.109555 188.426482 
L 768.472798 188.076828 
" clip-path="url(#p870d25199d)" style="fill: none; stroke: #006400; stroke-width: 2; stroke-linecap: square"/>
   </g>
   <g id="patch_11">
    <path d="M 619.588466 205.068125 
L 619.588466 49.094062 
" style="fill: none; stroke: #000000; stroke-width: 0.8; stroke-linejoin: miter; stroke-linecap: square"/>
   </g>
   <g id="patch_12">
    <path d="M 619.588466 205.068125 
L 775.562528 205.068125 
" style="fill: none; stroke: #000000; stroke-width: 0.8; stroke-linejoin: miter; stroke-linecap: square"/>
   </g>
   <g id="text_41">
    <!-- vRNA = 10fM -->
    <g transform="translate(660.632528 43.094062)scale(0.1 -0.1)">
     <use xlink:href="#DejaVuSans-Bold-76"/>
     <use xlink:href="#DejaVuSans-Bold-52" x="65.185547"/>
     <use xlink:href="#DejaVuSans-Bold-4e" x="142.1875"/>
     <use xlink:href="#DejaVuSans-Bold-41" x="225.878906"/>
     <use xlink:href="#DejaVuSans-Bold-20" x="303.271484"/>
     <use xlink:href="#DejaVuSans-Bold-3d" x="338.085938"/>
     <use xlink:href="#DejaVuSans-Bold-20" x="421.875"/>
     <use xlink:href="#DejaVuSans-Bold-31" x="456.689453"/>
     <use xlink:href="#DejaVuSans-Bold-30" x="526.269531"/>
     <use xlink:href="#DejaVuSans-Bold-66" x="595.849609"/>
     <use xlink:href="#DejaVuSans-Bold-4d" x="639.355469"/>
    </g>
   </g>
   <g id="legend_3">
    <g id="patch_13">
     <path d="M 626.588466 101.128437 
L 696.502528 101.128437 
Q 698.502528 101.128437 698.502528 99.128437 
L 698.502528 56.094062 
Q 698.502528 54.094062 696.502528 54.094062 
L 626.588466 54.094062 
Q 624.588466 54.094062 624.588466 56.094062 
L 624.588466 99.128437 
Q 624.588466 101.128437 626.588466 101.128437 
z
" style="fill: #ffffff; opacity: 0.8; stroke: #cccccc; stroke-linejoin: miter"/>
    </g>
    <g id="line2d_43">
     <path d="M 628.588466 62.1925 
L 638.588466 62.1925 
L 648.588466 62.1925 
" style="fill: none; stroke: #90ee90; stroke-width: 2; stroke-linecap: square"/>
    </g>
    <g id="text_42">
     <!-- T7 1.0 -->
     <g transform="translate(656.588466 65.6925)scale(0.1 -0.1)">
      <use xlink:href="#DejaVuSans-54"/>
      <use xlink:href="#DejaVuSans-37" x="61.083984"/>
      <use xlink:href="#DejaVuSans-20" x="124.707031"/>
      <use xlink:href="#DejaVuSans-31" x="156.494141"/>
      <use xlink:href="#DejaVuSans-2e" x="220.117188"/>
      <use xlink:href="#DejaVuSans-30" x="251.904297"/>
     </g>
    </g>
    <g id="line2d_44">
     <path d="M 628.588466 76.870625 
L 638.588466 76.870625 
L 648.588466 76.870625 
" style="fill: none; stroke: #3cb371; stroke-width: 2; stroke-linecap: square"/>
    </g>
    <g id="text_43">
     <!-- T7 5.0 -->
     <g transform="translate(656.588466 80.370625)scale(0.1 -0.1)">
      <use xlink:href="#DejaVuSans-54"/>
      <use xlink:href="#DejaVuSans-37" x="61.083984"/>
      <use xlink:href="#DejaVuSans-20" x="124.707031"/>
      <use xlink:href="#DejaVuSans-35" x="156.494141"/>
      <use xlink:href="#DejaVuSans-2e" x="220.117188"/>
      <use xlink:href="#DejaVuSans-30" x="251.904297"/>
     </g>
    </g>
    <g id="line2d_45">
     <path d="M 628.588466 91.54875 
L 638.588466 91.54875 
L 648.588466 91.54875 
" style="fill: none; stroke: #006400; stroke-width: 2; stroke-linecap: square"/>
    </g>
    <g id="text_44">
     <!-- T7 20.0 -->
     <g transform="translate(656.588466 95.04875)scale(0.1 -0.1)">
      <use xlink:href="#DejaVuSans-54"/>
      <use xlink:href="#DejaVuSans-37" x="61.083984"/>
      <use xlink:href="#DejaVuSans-20" x="124.707031"/>
      <use xlink:href="#DejaVuSans-32" x="156.494141"/>
      <use xlink:href="#DejaVuSans-30" x="220.117188"/>
      <use xlink:href="#DejaVuSans-2e" x="283.740234"/>
      <use xlink:href="#DejaVuSans-30" x="315.527344"/>
     </g>
    </g>
   </g>
  </g>
  <g id="text_45">
   <!-- T7_Sweep_Cas13=90 rep2 -->
   <g transform="translate(308.225952 16.10625)scale(0.12 -0.12)">
    <defs>
     <path id="DejaVuSans-Bold-54" d="M 31 4666 
L 4331 4666 
L 4331 3756 
L 2784 3756 
L 2784 0 
L 1581 0 
L 1581 3756 
L 31 3756 
L 31 4666 
z
" transform="scale(0.015625)"/>
     <path id="DejaVuSans-Bold-37" d="M 428 4666 
L 3944 4666 
L 3944 3988 
L 2125 0 
L 953 0 
L 2675 3781 
L 428 3781 
L 428 4666 
z
" transform="scale(0.015625)"/>
     <path id="DejaVuSans-Bold-5f" d="M 3200 -916 
L 3200 -1509 
L 0 -1509 
L 0 -916 
L 3200 -916 
z
" transform="scale(0.015625)"/>
     <path id="DejaVuSans-Bold-53" d="M 3834 4519 
L 3834 3531 
Q 3450 3703 3084 3790 
Q 2719 3878 2394 3878 
Q 1963 3878 1756 3759 
Q 1550 3641 1550 3391 
Q 1550 3203 1689 3098 
Q 1828 2994 2194 2919 
L 2706 2816 
Q 3484 2659 3812 2340 
Q 4141 2022 4141 1434 
Q 4141 663 3683 286 
Q 3225 -91 2284 -91 
Q 1841 -91 1394 -6 
Q 947 78 500 244 
L 500 1259 
Q 947 1022 1364 901 
Q 1781 781 2169 781 
Q 2563 781 2772 912 
Q 2981 1044 2981 1288 
Q 2981 1506 2839 1625 
Q 2697 1744 2272 1838 
L 1806 1941 
Q 1106 2091 782 2419 
Q 459 2747 459 3303 
Q 459 4000 909 4375 
Q 1359 4750 2203 4750 
Q 2588 4750 2994 4692 
Q 3400 4634 3834 4519 
z
" transform="scale(0.015625)"/>
     <path id="DejaVuSans-Bold-77" d="M 225 3500 
L 1313 3500 
L 1900 1088 
L 2491 3500 
L 3425 3500 
L 4013 1113 
L 4603 3500 
L 5691 3500 
L 4769 0 
L 3547 0 
L 2956 2406 
L 2369 0 
L 1147 0 
L 225 3500 
z
" transform="scale(0.015625)"/>
     <path id="DejaVuSans-Bold-65" d="M 4031 1759 
L 4031 1441 
L 1416 1441 
Q 1456 1047 1700 850 
Q 1944 653 2381 653 
Q 2734 653 3104 758 
Q 3475 863 3866 1075 
L 3866 213 
Q 3469 63 3072 -14 
Q 2675 -91 2278 -91 
Q 1328 -91 801 392 
Q 275 875 275 1747 
Q 275 2603 792 3093 
Q 1309 3584 2216 3584 
Q 3041 3584 3536 3087 
Q 4031 2591 4031 1759 
z
M 2881 2131 
Q 2881 2450 2695 2645 
Q 2509 2841 2209 2841 
Q 1884 2841 1681 2658 
Q 1478 2475 1428 2131 
L 2881 2131 
z
" transform="scale(0.015625)"/>
     <path id="DejaVuSans-Bold-70" d="M 1656 506 
L 1656 -1331 
L 538 -1331 
L 538 3500 
L 1656 3500 
L 1656 2988 
Q 1888 3294 2169 3439 
Q 2450 3584 2816 3584 
Q 3463 3584 3878 3070 
Q 4294 2556 4294 1747 
Q 4294 938 3878 423 
Q 3463 -91 2816 -91 
Q 2450 -91 2169 54 
Q 1888 200 1656 506 
z
M 2400 2772 
Q 2041 2772 1848 2508 
Q 1656 2244 1656 1747 
Q 1656 1250 1848 986 
Q 2041 722 2400 722 
Q 2759 722 2948 984 
Q 3138 1247 3138 1747 
Q 3138 2247 2948 2509 
Q 2759 2772 2400 2772 
z
" transform="scale(0.015625)"/>
     <path id="DejaVuSans-Bold-43" d="M 4288 256 
Q 3956 84 3597 -3 
Q 3238 -91 2847 -91 
Q 1681 -91 1000 561 
Q 319 1213 319 2328 
Q 319 3447 1000 4098 
Q 1681 4750 2847 4750 
Q 3238 4750 3597 4662 
Q 3956 4575 4288 4403 
L 4288 3438 
Q 3953 3666 3628 3772 
Q 3303 3878 2944 3878 
Q 2300 3878 1931 3465 
Q 1563 3053 1563 2328 
Q 1563 1606 1931 1193 
Q 2300 781 2944 781 
Q 3303 781 3628 887 
Q 3953 994 4288 1222 
L 4288 256 
z
" transform="scale(0.015625)"/>
     <path id="DejaVuSans-Bold-61" d="M 2106 1575 
Q 1756 1575 1579 1456 
Q 1403 1338 1403 1106 
Q 1403 894 1545 773 
Q 1688 653 1941 653 
Q 2256 653 2472 879 
Q 2688 1106 2688 1447 
L 2688 1575 
L 2106 1575 
z
M 3816 1997 
L 3816 0 
L 2688 0 
L 2688 519 
Q 2463 200 2181 54 
Q 1900 -91 1497 -91 
Q 953 -91 614 226 
Q 275 544 275 1050 
Q 275 1666 698 1953 
Q 1122 2241 2028 2241 
L 2688 2241 
L 2688 2328 
Q 2688 2594 2478 2717 
Q 2269 2841 1825 2841 
Q 1466 2841 1156 2769 
Q 847 2697 581 2553 
L 581 3406 
Q 941 3494 1303 3539 
Q 1666 3584 2028 3584 
Q 2975 3584 3395 3211 
Q 3816 2838 3816 1997 
z
" transform="scale(0.015625)"/>
     <path id="DejaVuSans-Bold-73" d="M 3272 3391 
L 3272 2541 
Q 2913 2691 2578 2766 
Q 2244 2841 1947 2841 
Q 1628 2841 1473 2761 
Q 1319 2681 1319 2516 
Q 1319 2381 1436 2309 
Q 1553 2238 1856 2203 
L 2053 2175 
Q 2913 2066 3209 1816 
Q 3506 1566 3506 1031 
Q 3506 472 3093 190 
Q 2681 -91 1863 -91 
Q 1516 -91 1145 -36 
Q 775 19 384 128 
L 384 978 
Q 719 816 1070 734 
Q 1422 653 1784 653 
Q 2113 653 2278 743 
Q 2444 834 2444 1013 
Q 2444 1163 2330 1236 
Q 2216 1309 1875 1350 
L 1678 1375 
Q 931 1469 631 1722 
Q 331 1975 331 2491 
Q 331 3047 712 3315 
Q 1094 3584 1881 3584 
Q 2191 3584 2531 3537 
Q 2872 3491 3272 3391 
z
" transform="scale(0.015625)"/>
     <path id="DejaVuSans-Bold-33" d="M 2981 2516 
Q 3453 2394 3698 2092 
Q 3944 1791 3944 1325 
Q 3944 631 3412 270 
Q 2881 -91 1863 -91 
Q 1503 -91 1142 -33 
Q 781 25 428 141 
L 428 1069 
Q 766 900 1098 814 
Q 1431 728 1753 728 
Q 2231 728 2486 893 
Q 2741 1059 2741 1369 
Q 2741 1688 2480 1852 
Q 2219 2016 1709 2016 
L 1228 2016 
L 1228 2791 
L 1734 2791 
Q 2188 2791 2409 2933 
Q 2631 3075 2631 3366 
Q 2631 3634 2415 3781 
Q 2200 3928 1806 3928 
Q 1516 3928 1219 3862 
Q 922 3797 628 3669 
L 628 4550 
Q 984 4650 1334 4700 
Q 1684 4750 2022 4750 
Q 2931 4750 3382 4451 
Q 3834 4153 3834 3553 
Q 3834 3144 3618 2883 
Q 3403 2622 2981 2516 
z
" transform="scale(0.015625)"/>
     <path id="DejaVuSans-Bold-39" d="M 641 103 
L 641 966 
Q 928 831 1190 764 
Q 1453 697 1709 697 
Q 2247 697 2547 995 
Q 2847 1294 2900 1881 
Q 2688 1725 2447 1647 
Q 2206 1569 1925 1569 
Q 1209 1569 770 1986 
Q 331 2403 331 3084 
Q 331 3838 820 4291 
Q 1309 4744 2131 4744 
Q 3044 4744 3544 4128 
Q 4044 3513 4044 2388 
Q 4044 1231 3459 570 
Q 2875 -91 1856 -91 
Q 1528 -91 1228 -42 
Q 928 6 641 103 
z
M 2125 2350 
Q 2441 2350 2600 2554 
Q 2759 2759 2759 3169 
Q 2759 3575 2600 3781 
Q 2441 3988 2125 3988 
Q 1809 3988 1650 3781 
Q 1491 3575 1491 3169 
Q 1491 2759 1650 2554 
Q 1809 2350 2125 2350 
z
" transform="scale(0.015625)"/>
     <path id="DejaVuSans-Bold-72" d="M 3138 2547 
Q 2991 2616 2845 2648 
Q 2700 2681 2553 2681 
Q 2122 2681 1889 2404 
Q 1656 2128 1656 1613 
L 1656 0 
L 538 0 
L 538 3500 
L 1656 3500 
L 1656 2925 
Q 1872 3269 2151 3426 
Q 2431 3584 2822 3584 
Q 2878 3584 2943 3579 
Q 3009 3575 3134 3559 
L 3138 2547 
z
" transform="scale(0.015625)"/>
     <path id="DejaVuSans-Bold-32" d="M 1844 884 
L 3897 884 
L 3897 0 
L 506 0 
L 506 884 
L 2209 2388 
Q 2438 2594 2547 2791 
Q 2656 2988 2656 3200 
Q 2656 3528 2436 3728 
Q 2216 3928 1850 3928 
Q 1569 3928 1234 3808 
Q 900 3688 519 3450 
L 519 4475 
Q 925 4609 1322 4679 
Q 1719 4750 2100 4750 
Q 2938 4750 3402 4381 
Q 3866 4013 3866 3353 
Q 3866 2972 3669 2642 
Q 3472 2313 2841 1759 
L 1844 884 
z
" transform="scale(0.015625)"/>
    </defs>
    <use xlink:href="#DejaVuSans-Bold-54"/>
    <use xlink:href="#DejaVuSans-Bold-37" x="68.212891"/>
    <use xlink:href="#DejaVuSans-Bold-5f" x="137.792969"/>
    <use xlink:href="#DejaVuSans-Bold-53" x="187.792969"/>
    <use xlink:href="#DejaVuSans-Bold-77" x="259.814453"/>
    <use xlink:href="#DejaVuSans-Bold-65" x="352.197266"/>
    <use xlink:href="#DejaVuSans-Bold-65" x="420.019531"/>
    <use xlink:href="#DejaVuSans-Bold-70" x="487.841797"/>
    <use xlink:href="#DejaVuSans-Bold-5f" x="559.423828"/>
    <use xlink:href="#DejaVuSans-Bold-43" x="609.423828"/>
    <use xlink:href="#DejaVuSans-Bold-61" x="682.8125"/>
    <use xlink:href="#DejaVuSans-Bold-73" x="750.292969"/>
    <use xlink:href="#DejaVuSans-Bold-31" x="809.814453"/>
    <use xlink:href="#DejaVuSans-Bold-33" x="879.394531"/>
    <use xlink:href="#DejaVuSans-Bold-3d" x="948.974609"/>
    <use xlink:href="#DejaVuSans-Bold-39" x="1032.763672"/>
    <use xlink:href="#DejaVuSans-Bold-30" x="1102.34375"/>
    <use xlink:href="#DejaVuSans-Bold-20" x="1171.923828"/>
    <use xlink:href="#DejaVuSans-Bold-72" x="1206.738281"/>
    <use xlink:href="#DejaVuSans-Bold-65" x="1256.054688"/>
    <use xlink:href="#DejaVuSans-Bold-70" x="1323.876953"/>
    <use xlink:href="#DejaVuSans-Bold-32" x="1395.458984"/>
   </g>
  </g>
 </g>
 <defs>
  <clipPath id="p824bd9687f">
   <rect x="51.716875" y="49.094062" width="155.974063" height="155.974063"/>
  </clipPath>
  <clipPath id="p524a912020">
   <rect x="335.65267" y="49.094062" width="155.974063" height="155.974063"/>
  </clipPath>
  <clipPath id="p870d25199d">
   <rect x="619.588466" y="49.094062" width="155.974063" height="155.974063"/>
  </clipPath>
 </defs>
</svg>
