<?xml version="1.0" encoding="utf-8" standalone="no"?>
<!DOCTYPE svg PUBLIC "-//W3C//DTD SVG 1.1//EN"
  "http://www.w3.org/Graphics/SVG/1.1/DTD/svg11.dtd">
<svg xmlns:xlink="http://www.w3.org/1999/xlink" width="782.762528pt" height="250.56pt" viewBox="0 0 782.762528 250.56" xmlns="http://www.w3.org/2000/svg" version="1.1">
 <metadata>
  <rdf:RDF xmlns:dc="http://purl.org/dc/elements/1.1/" xmlns:cc="http://creativecommons.org/ns#" xmlns:rdf="http://www.w3.org/1999/02/22-rdf-syntax-ns#">
   <cc:Work>
    <dc:type rdf:resource="http://purl.org/dc/dcmitype/StillImage"/>
    <dc:date>2022-12-02T20:24:33.305522</dc:date>
    <dc:format>image/svg+xml</dc:format>
    <dc:creator>
     <cc:Agent>
      <dc:title>Matplotlib v3.5.1, https://matplotlib.org/</dc:title>
     </cc:Agent>
    </dc:creator>
   </cc:Work>
  </rdf:RDF>
 </metadata>
 <defs>
  <style type="text/css">*{stroke-linejoin: round; stroke-linecap: butt}</style>
 </defs>
 <g id="figure_1">
  <g id="patch_1">
   <path d="M 0 250.56 
L 782.762528 250.56 
L 782.762528 -0 
L 0 -0 
L 0 250.56 
z
" style="fill: none"/>
  </g>
  <g id="axes_1">
   <g id="patch_2">
    <path d="M 51.716875 205.068125 
L 207.690938 205.068125 
L 207.690938 49.094062 
L 51.716875 49.094062 
z
" style="fill: #ffffff"/>
   </g>
   <g id="PolyCollection_1">
    <defs>
     <path id="ma4a2ecb38d" d="M 58.806605 -49.924431 
L 58.806605 -48.940711 
L 61.169848 -49.418854 
L 63.533092 -49.723174 
L 65.896335 -50.278388 
L 68.259579 -50.780648 
L 70.622822 -51.228952 
L 72.986065 -51.599457 
L 75.349309 -51.730873 
L 77.712552 -52.473652 
L 80.075795 -52.70873 
L 82.439039 -52.548965 
L 84.802282 -53.006491 
L 87.165526 -53.23789 
L 89.528769 -53.669139 
L 91.892012 -53.865392 
L 94.255256 -54.091197 
L 96.618499 -54.53298 
L 98.981742 -54.918074 
L 101.344986 -54.886598 
L 103.708229 -55.002634 
L 106.071473 -55.612943 
L 108.434716 -55.711474 
L 110.797959 -55.792786 
L 113.161203 -56.29134 
L 115.524446 -56.38149 
L 117.887689 -56.756209 
L 120.250933 -56.897961 
L 122.614176 -57.167435 
L 124.97742 -57.287249 
L 127.340663 -57.702722 
L 129.703906 -57.64141 
L 132.06715 -58.071964 
L 134.430393 -58.041866 
L 136.793636 -58.559887 
L 139.15688 -58.269684 
L 141.520123 -58.196154 
L 143.883366 -58.75758 
L 146.24661 -59.315027 
L 148.609853 -59.25261 
L 150.973097 -59.831422 
L 153.33634 -59.789728 
L 155.699583 -59.737555 
L 158.062827 -60.051891 
L 160.42607 -60.038483 
L 162.789313 -60.45054 
L 165.152557 -60.371255 
L 167.5158 -60.741051 
L 169.879044 -60.923394 
L 172.242287 -60.937956 
L 174.60553 -61.411011 
L 176.968774 -61.266 
L 179.332017 -61.440758 
L 181.69526 -61.568525 
L 184.058504 -61.950323 
L 186.421747 -62.161869 
L 188.784991 -62.114497 
L 191.148234 -61.998133 
L 193.511477 -62.353299 
L 195.874721 -62.620168 
L 198.237964 -63.069079 
L 200.601207 -62.911132 
L 200.601207 -64.625643 
L 200.601207 -64.625643 
L 198.237964 -64.146392 
L 195.874721 -64.746505 
L 193.511477 -64.484168 
L 191.148234 -64.404629 
L 188.784991 -64.326065 
L 186.421747 -63.579385 
L 184.058504 -63.620829 
L 181.69526 -63.341119 
L 179.332017 -62.92078 
L 176.968774 -63.24674 
L 174.60553 -63.347431 
L 172.242287 -62.932176 
L 169.879044 -63.022339 
L 167.5158 -62.448673 
L 165.152557 -61.96796 
L 162.789313 -61.907574 
L 160.42607 -61.828225 
L 158.062827 -61.701416 
L 155.699583 -61.410945 
L 153.33634 -61.434373 
L 150.973097 -60.617771 
L 148.609853 -60.875279 
L 146.24661 -60.793962 
L 143.883366 -60.387498 
L 141.520123 -60.552019 
L 139.15688 -59.968182 
L 136.793636 -59.640179 
L 134.430393 -59.496692 
L 132.06715 -59.14529 
L 129.703906 -59.481344 
L 127.340663 -58.796325 
L 124.97742 -58.758192 
L 122.614176 -58.500001 
L 120.250933 -58.25917 
L 117.887689 -58.117419 
L 115.524446 -57.188022 
L 113.161203 -57.448274 
L 110.797959 -57.020718 
L 108.434716 -56.837426 
L 106.071473 -56.690255 
L 103.708229 -56.355552 
L 101.344986 -55.904582 
L 98.981742 -55.778605 
L 96.618499 -55.445491 
L 94.255256 -55.055664 
L 91.892012 -54.733363 
L 89.528769 -54.400409 
L 87.165526 -54.170151 
L 84.802282 -53.456539 
L 82.439039 -53.384859 
L 80.075795 -53.036091 
L 77.712552 -52.571861 
L 75.349309 -52.331829 
L 72.986065 -52.00964 
L 70.622822 -51.850939 
L 68.259579 -51.354232 
L 65.896335 -50.968181 
L 63.533092 -50.18148 
L 61.169848 -50.051094 
L 58.806605 -49.924431 
z
" style="stroke: #90ee90; stroke-opacity: 0.2"/>
    </defs>
    <g clip-path="url(#p195680912b)">
     <use xlink:href="#ma4a2ecb38d" x="0" y="250.56" style="fill: #90ee90; fill-opacity: 0.2; stroke: #90ee90; stroke-opacity: 0.2"/>
    </g>
   </g>
   <g id="PolyCollection_2">
    <defs>
     <path id="m3fd8fc9884" d="M 58.806605 -49.371303 
L 58.806605 -48.945733 
L 61.169848 -49.440846 
L 63.533092 -49.693103 
L 65.896335 -50.294263 
L 68.259579 -50.144512 
L 70.622822 -50.719041 
L 72.986065 -51.354963 
L 75.349309 -51.390172 
L 77.712552 -51.790292 
L 80.075795 -52.16159 
L 82.439039 -52.251887 
L 84.802282 -52.421688 
L 87.165526 -53.172319 
L 89.528769 -53.292864 
L 91.892012 -53.516783 
L 94.255256 -53.731471 
L 96.618499 -54.112845 
L 98.981742 -54.181043 
L 101.344986 -54.538174 
L 103.708229 -54.918594 
L 106.071473 -55.03136 
L 108.434716 -55.41449 
L 110.797959 -55.821476 
L 113.161203 -55.690943 
L 115.524446 -55.858456 
L 117.887689 -56.237874 
L 120.250933 -56.495213 
L 122.614176 -56.721235 
L 124.97742 -57.037819 
L 127.340663 -57.118275 
L 129.703906 -57.325414 
L 132.06715 -57.317514 
L 134.430393 -57.445673 
L 136.793636 -57.857291 
L 139.15688 -58.049596 
L 141.520123 -58.134276 
L 143.883366 -58.299663 
L 146.24661 -58.589779 
L 148.609853 -58.631258 
L 150.973097 -58.770905 
L 153.33634 -58.967563 
L 155.699583 -59.277708 
L 158.062827 -59.463807 
L 160.42607 -59.518535 
L 162.789313 -59.63928 
L 165.152557 -60.030294 
L 167.5158 -60.147625 
L 169.879044 -59.883882 
L 172.242287 -60.474687 
L 174.60553 -60.405233 
L 176.968774 -60.696069 
L 179.332017 -60.767944 
L 181.69526 -61.237244 
L 184.058504 -60.876544 
L 186.421747 -61.526109 
L 188.784991 -61.323366 
L 191.148234 -61.405507 
L 193.511477 -61.90368 
L 195.874721 -61.851239 
L 198.237964 -61.996868 
L 200.601207 -61.976774 
L 200.601207 -63.915682 
L 200.601207 -63.915682 
L 198.237964 -63.952288 
L 195.874721 -63.45531 
L 193.511477 -63.289467 
L 191.148234 -63.428537 
L 188.784991 -63.416176 
L 186.421747 -63.175633 
L 184.058504 -63.314892 
L 181.69526 -63.218795 
L 179.332017 -62.780884 
L 176.968774 -62.512556 
L 174.60553 -62.463188 
L 172.242287 -62.261432 
L 169.879044 -61.982827 
L 167.5158 -61.908086 
L 165.152557 -61.855315 
L 162.789313 -61.603721 
L 160.42607 -61.535464 
L 158.062827 -60.682981 
L 155.699583 -60.944682 
L 153.33634 -60.555519 
L 150.973097 -60.582075 
L 148.609853 -60.494919 
L 146.24661 -60.328496 
L 143.883366 -60.089405 
L 141.520123 -59.442083 
L 139.15688 -59.26216 
L 136.793636 -59.133161 
L 134.430393 -59.261275 
L 132.06715 -58.898029 
L 129.703906 -58.795628 
L 127.340663 -58.794864 
L 124.97742 -58.535117 
L 122.614176 -58.246894 
L 120.250933 -57.905909 
L 117.887689 -57.841945 
L 115.524446 -57.276351 
L 113.161203 -57.06586 
L 110.797959 -56.670724 
L 108.434716 -56.718605 
L 106.071473 -56.534729 
L 103.708229 -56.156089 
L 101.344986 -56.045104 
L 98.981742 -55.362723 
L 96.618499 -55.41202 
L 94.255256 -54.923984 
L 91.892012 -54.628367 
L 89.528769 -54.171877 
L 87.165526 -54.141221 
L 84.802282 -53.720038 
L 82.439039 -53.455135 
L 80.075795 -53.072926 
L 77.712552 -52.612614 
L 75.349309 -52.389027 
L 72.986065 -52.084032 
L 70.622822 -51.642641 
L 68.259579 -51.34776 
L 65.896335 -50.498701 
L 63.533092 -50.13595 
L 61.169848 -49.669999 
L 58.806605 -49.371303 
z
" style="stroke: #3cb371; stroke-opacity: 0.2"/>
    </defs>
    <g clip-path="url(#p195680912b)">
     <use xlink:href="#m3fd8fc9884" x="0" y="250.56" style="fill: #3cb371; fill-opacity: 0.2; stroke: #3cb371; stroke-opacity: 0.2"/>
    </g>
   </g>
   <g id="PolyCollection_3">
    <defs>
     <path id="me8f0673154" d="M 58.806605 -49.415986 
L 58.806605 -49.297954 
L 61.169848 -49.574322 
L 63.533092 -49.736877 
L 65.896335 -50.106033 
L 68.259579 -50.566029 
L 70.622822 -51.041777 
L 72.986065 -51.813998 
L 75.349309 -52.04148 
L 77.712552 -52.319398 
L 80.075795 -52.863197 
L 82.439039 -53.491211 
L 84.802282 -53.563544 
L 87.165526 -53.832225 
L 89.528769 -54.330232 
L 91.892012 -54.517449 
L 94.255256 -55.184659 
L 96.618499 -55.238958 
L 98.981742 -55.574713 
L 101.344986 -55.720387 
L 103.708229 -56.31748 
L 106.071473 -56.544833 
L 108.434716 -56.775306 
L 110.797959 -57.031735 
L 113.161203 -57.236011 
L 115.524446 -57.598144 
L 117.887689 -57.589517 
L 120.250933 -57.776654 
L 122.614176 -57.875549 
L 124.97742 -58.092723 
L 127.340663 -58.436638 
L 129.703906 -59.002411 
L 132.06715 -59.015702 
L 134.430393 -58.88442 
L 136.793636 -59.572398 
L 139.15688 -60.115952 
L 141.520123 -60.169175 
L 143.883366 -60.301452 
L 146.24661 -60.74221 
L 148.609853 -61.036834 
L 150.973097 -61.101975 
L 153.33634 -61.652747 
L 155.699583 -61.712894 
L 158.062827 -62.057662 
L 160.42607 -62.313931 
L 162.789313 -62.365674 
L 165.152557 -62.505285 
L 167.5158 -63.200791 
L 169.879044 -62.942818 
L 172.242287 -63.452436 
L 174.60553 -63.559034 
L 176.968774 -63.858051 
L 179.332017 -64.056521 
L 181.69526 -64.061341 
L 184.058504 -63.904692 
L 186.421747 -64.445418 
L 188.784991 -64.919794 
L 191.148234 -64.683718 
L 193.511477 -64.902862 
L 195.874721 -65.037204 
L 198.237964 -65.192528 
L 200.601207 -65.461271 
L 200.601207 -66.479255 
L 200.601207 -66.479255 
L 198.237964 -66.048689 
L 195.874721 -66.355215 
L 193.511477 -65.676848 
L 191.148234 -66.028293 
L 188.784991 -65.395313 
L 186.421747 -65.05698 
L 184.058504 -65.730007 
L 181.69526 -64.628347 
L 179.332017 -64.765468 
L 176.968774 -64.453633 
L 174.60553 -64.299045 
L 172.242287 -63.914236 
L 169.879044 -63.705647 
L 167.5158 -63.655576 
L 165.152557 -63.613973 
L 162.789313 -62.827474 
L 160.42607 -62.935917 
L 158.062827 -62.757481 
L 155.699583 -62.421841 
L 153.33634 -62.179585 
L 150.973097 -61.766446 
L 148.609853 -61.604784 
L 146.24661 -61.578104 
L 143.883366 -61.225053 
L 141.520123 -60.865924 
L 139.15688 -60.805746 
L 136.793636 -60.838994 
L 134.430393 -60.166156 
L 132.06715 -59.883673 
L 129.703906 -59.348857 
L 127.340663 -59.668927 
L 124.97742 -59.294634 
L 122.614176 -59.001501 
L 120.250933 -58.51449 
L 117.887689 -58.361423 
L 115.524446 -57.729089 
L 113.161203 -57.694317 
L 110.797959 -57.520589 
L 108.434716 -57.682517 
L 106.071473 -57.327083 
L 103.708229 -56.892929 
L 101.344986 -56.790713 
L 98.981742 -56.199279 
L 96.618499 -55.968027 
L 94.255256 -55.51202 
L 91.892012 -55.38542 
L 89.528769 -54.684328 
L 87.165526 -54.294025 
L 84.802282 -54.052399 
L 82.439039 -53.860129 
L 80.075795 -53.240729 
L 77.712552 -52.688315 
L 75.349309 -52.172424 
L 72.986065 -51.870699 
L 70.622822 -51.471107 
L 68.259579 -50.888443 
L 65.896335 -50.460128 
L 63.533092 -50.016575 
L 61.169848 -49.971227 
L 58.806605 -49.415986 
z
" style="stroke: #006400; stroke-opacity: 0.2"/>
    </defs>
    <g clip-path="url(#p195680912b)">
     <use xlink:href="#me8f0673154" x="0" y="250.56" style="fill: #006400; fill-opacity: 0.2; stroke: #006400; stroke-opacity: 0.2"/>
    </g>
   </g>
   <g id="matplotlib.axis_1">
    <g id="xtick_1">
     <g id="line2d_1">
      <defs>
       <path id="m9890f8cea6" d="M 0 0 
L 0 3.5 
" style="stroke: #000000; stroke-width: 0.8"/>
      </defs>
      <g>
       <use xlink:href="#m9890f8cea6" x="58.806605" y="205.068125" style="stroke: #000000; stroke-width: 0.8"/>
      </g>
     </g>
     <g id="text_1">
      <!-- 0 -->
      <g transform="translate(55.625355 219.666562)scale(0.1 -0.1)">
       <defs>
        <path id="DejaVuSans-30" d="M 2034 4250 
Q 1547 4250 1301 3770 
Q 1056 3291 1056 2328 
Q 1056 1369 1301 889 
Q 1547 409 2034 409 
Q 2525 409 2770 889 
Q 3016 1369 3016 2328 
Q 3016 3291 2770 3770 
Q 2525 4250 2034 4250 
z
M 2034 4750 
Q 2819 4750 3233 4129 
Q 3647 3509 3647 2328 
Q 3647 1150 3233 529 
Q 2819 -91 2034 -91 
Q 1250 -91 836 529 
Q 422 1150 422 2328 
Q 422 3509 836 4129 
Q 1250 4750 2034 4750 
z
" transform="scale(0.015625)"/>
       </defs>
       <use xlink:href="#DejaVuSans-30"/>
      </g>
     </g>
    </g>
    <g id="xtick_2">
     <g id="line2d_2">
      <g>
       <use xlink:href="#m9890f8cea6" x="117.887689" y="205.068125" style="stroke: #000000; stroke-width: 0.8"/>
      </g>
     </g>
     <g id="text_2">
      <!-- 100 -->
      <g transform="translate(108.343939 219.666562)scale(0.1 -0.1)">
       <defs>
        <path id="DejaVuSans-31" d="M 794 531 
L 1825 531 
L 1825 4091 
L 703 3866 
L 703 4441 
L 1819 4666 
L 2450 4666 
L 2450 531 
L 3481 531 
L 3481 0 
L 794 0 
L 794 531 
z
" transform="scale(0.015625)"/>
       </defs>
       <use xlink:href="#DejaVuSans-31"/>
       <use xlink:href="#DejaVuSans-30" x="63.623047"/>
       <use xlink:href="#DejaVuSans-30" x="127.246094"/>
      </g>
     </g>
    </g>
    <g id="xtick_3">
     <g id="line2d_3">
      <g>
       <use xlink:href="#m9890f8cea6" x="176.968774" y="205.068125" style="stroke: #000000; stroke-width: 0.8"/>
      </g>
     </g>
     <g id="text_3">
      <!-- 200 -->
      <g transform="translate(167.425024 219.666562)scale(0.1 -0.1)">
       <defs>
        <path id="DejaVuSans-32" d="M 1228 531 
L 3431 531 
L 3431 0 
L 469 0 
L 469 531 
Q 828 903 1448 1529 
Q 2069 2156 2228 2338 
Q 2531 2678 2651 2914 
Q 2772 3150 2772 3378 
Q 2772 3750 2511 3984 
Q 2250 4219 1831 4219 
Q 1534 4219 1204 4116 
Q 875 4013 500 3803 
L 500 4441 
Q 881 4594 1212 4672 
Q 1544 4750 1819 4750 
Q 2544 4750 2975 4387 
Q 3406 4025 3406 3419 
Q 3406 3131 3298 2873 
Q 3191 2616 2906 2266 
Q 2828 2175 2409 1742 
Q 1991 1309 1228 531 
z
" transform="scale(0.015625)"/>
       </defs>
       <use xlink:href="#DejaVuSans-32"/>
       <use xlink:href="#DejaVuSans-30" x="63.623047"/>
       <use xlink:href="#DejaVuSans-30" x="127.246094"/>
      </g>
     </g>
    </g>
    <g id="text_4">
     <!-- Time (min) -->
     <g transform="translate(97.121094 240.864375)scale(0.12 -0.12)">
      <defs>
       <path id="DejaVuSans-54" d="M -19 4666 
L 3928 4666 
L 3928 4134 
L 2272 4134 
L 2272 0 
L 1638 0 
L 1638 4134 
L -19 4134 
L -19 4666 
z
" transform="scale(0.015625)"/>
       <path id="DejaVuSans-69" d="M 603 3500 
L 1178 3500 
L 1178 0 
L 603 0 
L 603 3500 
z
M 603 4863 
L 1178 4863 
L 1178 4134 
L 603 4134 
L 603 4863 
z
" transform="scale(0.015625)"/>
       <path id="DejaVuSans-6d" d="M 3328 2828 
Q 3544 3216 3844 3400 
Q 4144 3584 4550 3584 
Q 5097 3584 5394 3201 
Q 5691 2819 5691 2113 
L 5691 0 
L 5113 0 
L 5113 2094 
Q 5113 2597 4934 2840 
Q 4756 3084 4391 3084 
Q 3944 3084 3684 2787 
Q 3425 2491 3425 1978 
L 3425 0 
L 2847 0 
L 2847 2094 
Q 2847 2600 2669 2842 
Q 2491 3084 2119 3084 
Q 1678 3084 1418 2786 
Q 1159 2488 1159 1978 
L 1159 0 
L 581 0 
L 581 3500 
L 1159 3500 
L 1159 2956 
Q 1356 3278 1631 3431 
Q 1906 3584 2284 3584 
Q 2666 3584 2933 3390 
Q 3200 3197 3328 2828 
z
" transform="scale(0.015625)"/>
       <path id="DejaVuSans-65" d="M 3597 1894 
L 3597 1613 
L 953 1613 
Q 991 1019 1311 708 
Q 1631 397 2203 397 
Q 2534 397 2845 478 
Q 3156 559 3463 722 
L 3463 178 
Q 3153 47 2828 -22 
Q 2503 -91 2169 -91 
Q 1331 -91 842 396 
Q 353 884 353 1716 
Q 353 2575 817 3079 
Q 1281 3584 2069 3584 
Q 2775 3584 3186 3129 
Q 3597 2675 3597 1894 
z
M 3022 2063 
Q 3016 2534 2758 2815 
Q 2500 3097 2075 3097 
Q 1594 3097 1305 2825 
Q 1016 2553 972 2059 
L 3022 2063 
z
" transform="scale(0.015625)"/>
       <path id="DejaVuSans-20" transform="scale(0.015625)"/>
       <path id="DejaVuSans-28" d="M 1984 4856 
Q 1566 4138 1362 3434 
Q 1159 2731 1159 2009 
Q 1159 1288 1364 580 
Q 1569 -128 1984 -844 
L 1484 -844 
Q 1016 -109 783 600 
Q 550 1309 550 2009 
Q 550 2706 781 3412 
Q 1013 4119 1484 4856 
L 1984 4856 
z
" transform="scale(0.015625)"/>
       <path id="DejaVuSans-6e" d="M 3513 2113 
L 3513 0 
L 2938 0 
L 2938 2094 
Q 2938 2591 2744 2837 
Q 2550 3084 2163 3084 
Q 1697 3084 1428 2787 
Q 1159 2491 1159 1978 
L 1159 0 
L 581 0 
L 581 3500 
L 1159 3500 
L 1159 2956 
Q 1366 3272 1645 3428 
Q 1925 3584 2291 3584 
Q 2894 3584 3203 3211 
Q 3513 2838 3513 2113 
z
" transform="scale(0.015625)"/>
       <path id="DejaVuSans-29" d="M 513 4856 
L 1013 4856 
Q 1481 4119 1714 3412 
Q 1947 2706 1947 2009 
Q 1947 1309 1714 600 
Q 1481 -109 1013 -844 
L 513 -844 
Q 928 -128 1133 580 
Q 1338 1288 1338 2009 
Q 1338 2731 1133 3434 
Q 928 4138 513 4856 
z
" transform="scale(0.015625)"/>
      </defs>
      <use xlink:href="#DejaVuSans-54"/>
      <use xlink:href="#DejaVuSans-69" x="57.958984"/>
      <use xlink:href="#DejaVuSans-6d" x="85.742188"/>
      <use xlink:href="#DejaVuSans-65" x="183.154297"/>
      <use xlink:href="#DejaVuSans-20" x="244.677734"/>
      <use xlink:href="#DejaVuSans-28" x="276.464844"/>
      <use xlink:href="#DejaVuSans-6d" x="315.478516"/>
      <use xlink:href="#DejaVuSans-69" x="412.890625"/>
      <use xlink:href="#DejaVuSans-6e" x="440.673828"/>
      <use xlink:href="#DejaVuSans-29" x="504.052734"/>
     </g>
    </g>
   </g>
   <g id="matplotlib.axis_2">
    <g id="ytick_1">
     <g id="line2d_4">
      <defs>
       <path id="mfef197abf5" d="M 0 0 
L -3.5 0 
" style="stroke: #000000; stroke-width: 0.8"/>
      </defs>
      <g>
       <use xlink:href="#mfef197abf5" x="51.716875" y="205.068125" style="stroke: #000000; stroke-width: 0.8"/>
      </g>
     </g>
     <g id="text_5">
      <!-- 0.0 -->
      <g transform="translate(28.81375 208.867344)scale(0.1 -0.1)">
       <defs>
        <path id="DejaVuSans-2e" d="M 684 794 
L 1344 794 
L 1344 0 
L 684 0 
L 684 794 
z
" transform="scale(0.015625)"/>
       </defs>
       <use xlink:href="#DejaVuSans-30"/>
       <use xlink:href="#DejaVuSans-2e" x="63.623047"/>
       <use xlink:href="#DejaVuSans-30" x="95.410156"/>
      </g>
     </g>
    </g>
    <g id="ytick_2">
     <g id="line2d_5">
      <g>
       <use xlink:href="#mfef197abf5" x="51.716875" y="173.873312" style="stroke: #000000; stroke-width: 0.8"/>
      </g>
     </g>
     <g id="text_6">
      <!-- 0.2 -->
      <g transform="translate(28.81375 177.672531)scale(0.1 -0.1)">
       <use xlink:href="#DejaVuSans-30"/>
       <use xlink:href="#DejaVuSans-2e" x="63.623047"/>
       <use xlink:href="#DejaVuSans-32" x="95.410156"/>
      </g>
     </g>
    </g>
    <g id="ytick_3">
     <g id="line2d_6">
      <g>
       <use xlink:href="#mfef197abf5" x="51.716875" y="142.6785" style="stroke: #000000; stroke-width: 0.8"/>
      </g>
     </g>
     <g id="text_7">
      <!-- 0.4 -->
      <g transform="translate(28.81375 146.477719)scale(0.1 -0.1)">
       <defs>
        <path id="DejaVuSans-34" d="M 2419 4116 
L 825 1625 
L 2419 1625 
L 2419 4116 
z
M 2253 4666 
L 3047 4666 
L 3047 1625 
L 3713 1625 
L 3713 1100 
L 3047 1100 
L 3047 0 
L 2419 0 
L 2419 1100 
L 313 1100 
L 313 1709 
L 2253 4666 
z
" transform="scale(0.015625)"/>
       </defs>
       <use xlink:href="#DejaVuSans-30"/>
       <use xlink:href="#DejaVuSans-2e" x="63.623047"/>
       <use xlink:href="#DejaVuSans-34" x="95.410156"/>
      </g>
     </g>
    </g>
    <g id="ytick_4">
     <g id="line2d_7">
      <g>
       <use xlink:href="#mfef197abf5" x="51.716875" y="111.483687" style="stroke: #000000; stroke-width: 0.8"/>
      </g>
     </g>
     <g id="text_8">
      <!-- 0.6 -->
      <g transform="translate(28.81375 115.282906)scale(0.1 -0.1)">
       <defs>
        <path id="DejaVuSans-36" d="M 2113 2584 
Q 1688 2584 1439 2293 
Q 1191 2003 1191 1497 
Q 1191 994 1439 701 
Q 1688 409 2113 409 
Q 2538 409 2786 701 
Q 3034 994 3034 1497 
Q 3034 2003 2786 2293 
Q 2538 2584 2113 2584 
z
M 3366 4563 
L 3366 3988 
Q 3128 4100 2886 4159 
Q 2644 4219 2406 4219 
Q 1781 4219 1451 3797 
Q 1122 3375 1075 2522 
Q 1259 2794 1537 2939 
Q 1816 3084 2150 3084 
Q 2853 3084 3261 2657 
Q 3669 2231 3669 1497 
Q 3669 778 3244 343 
Q 2819 -91 2113 -91 
Q 1303 -91 875 529 
Q 447 1150 447 2328 
Q 447 3434 972 4092 
Q 1497 4750 2381 4750 
Q 2619 4750 2861 4703 
Q 3103 4656 3366 4563 
z
" transform="scale(0.015625)"/>
       </defs>
       <use xlink:href="#DejaVuSans-30"/>
       <use xlink:href="#DejaVuSans-2e" x="63.623047"/>
       <use xlink:href="#DejaVuSans-36" x="95.410156"/>
      </g>
     </g>
    </g>
    <g id="ytick_5">
     <g id="line2d_8">
      <g>
       <use xlink:href="#mfef197abf5" x="51.716875" y="80.288875" style="stroke: #000000; stroke-width: 0.8"/>
      </g>
     </g>
     <g id="text_9">
      <!-- 0.8 -->
      <g transform="translate(28.81375 84.088094)scale(0.1 -0.1)">
       <defs>
        <path id="DejaVuSans-38" d="M 2034 2216 
Q 1584 2216 1326 1975 
Q 1069 1734 1069 1313 
Q 1069 891 1326 650 
Q 1584 409 2034 409 
Q 2484 409 2743 651 
Q 3003 894 3003 1313 
Q 3003 1734 2745 1975 
Q 2488 2216 2034 2216 
z
M 1403 2484 
Q 997 2584 770 2862 
Q 544 3141 544 3541 
Q 544 4100 942 4425 
Q 1341 4750 2034 4750 
Q 2731 4750 3128 4425 
Q 3525 4100 3525 3541 
Q 3525 3141 3298 2862 
Q 3072 2584 2669 2484 
Q 3125 2378 3379 2068 
Q 3634 1759 3634 1313 
Q 3634 634 3220 271 
Q 2806 -91 2034 -91 
Q 1263 -91 848 271 
Q 434 634 434 1313 
Q 434 1759 690 2068 
Q 947 2378 1403 2484 
z
M 1172 3481 
Q 1172 3119 1398 2916 
Q 1625 2713 2034 2713 
Q 2441 2713 2670 2916 
Q 2900 3119 2900 3481 
Q 2900 3844 2670 4047 
Q 2441 4250 2034 4250 
Q 1625 4250 1398 4047 
Q 1172 3844 1172 3481 
z
" transform="scale(0.015625)"/>
       </defs>
       <use xlink:href="#DejaVuSans-30"/>
       <use xlink:href="#DejaVuSans-2e" x="63.623047"/>
       <use xlink:href="#DejaVuSans-38" x="95.410156"/>
      </g>
     </g>
    </g>
    <g id="ytick_6">
     <g id="line2d_9">
      <g>
       <use xlink:href="#mfef197abf5" x="51.716875" y="49.094062" style="stroke: #000000; stroke-width: 0.8"/>
      </g>
     </g>
     <g id="text_10">
      <!-- 1.0 -->
      <g transform="translate(28.81375 52.893281)scale(0.1 -0.1)">
       <use xlink:href="#DejaVuSans-31"/>
       <use xlink:href="#DejaVuSans-2e" x="63.623047"/>
       <use xlink:href="#DejaVuSans-30" x="95.410156"/>
      </g>
     </g>
    </g>
    <g id="text_11">
     <!-- Normalized exp output -->
     <g transform="translate(16.318125 195.658281)rotate(-90)scale(0.12 -0.12)">
      <defs>
       <path id="DejaVuSans-4e" d="M 628 4666 
L 1478 4666 
L 3547 763 
L 3547 4666 
L 4159 4666 
L 4159 0 
L 3309 0 
L 1241 3903 
L 1241 0 
L 628 0 
L 628 4666 
z
" transform="scale(0.015625)"/>
       <path id="DejaVuSans-6f" d="M 1959 3097 
Q 1497 3097 1228 2736 
Q 959 2375 959 1747 
Q 959 1119 1226 758 
Q 1494 397 1959 397 
Q 2419 397 2687 759 
Q 2956 1122 2956 1747 
Q 2956 2369 2687 2733 
Q 2419 3097 1959 3097 
z
M 1959 3584 
Q 2709 3584 3137 3096 
Q 3566 2609 3566 1747 
Q 3566 888 3137 398 
Q 2709 -91 1959 -91 
Q 1206 -91 779 398 
Q 353 888 353 1747 
Q 353 2609 779 3096 
Q 1206 3584 1959 3584 
z
" transform="scale(0.015625)"/>
       <path id="DejaVuSans-72" d="M 2631 2963 
Q 2534 3019 2420 3045 
Q 2306 3072 2169 3072 
Q 1681 3072 1420 2755 
Q 1159 2438 1159 1844 
L 1159 0 
L 581 0 
L 581 3500 
L 1159 3500 
L 1159 2956 
Q 1341 3275 1631 3429 
Q 1922 3584 2338 3584 
Q 2397 3584 2469 3576 
Q 2541 3569 2628 3553 
L 2631 2963 
z
" transform="scale(0.015625)"/>
       <path id="DejaVuSans-61" d="M 2194 1759 
Q 1497 1759 1228 1600 
Q 959 1441 959 1056 
Q 959 750 1161 570 
Q 1363 391 1709 391 
Q 2188 391 2477 730 
Q 2766 1069 2766 1631 
L 2766 1759 
L 2194 1759 
z
M 3341 1997 
L 3341 0 
L 2766 0 
L 2766 531 
Q 2569 213 2275 61 
Q 1981 -91 1556 -91 
Q 1019 -91 701 211 
Q 384 513 384 1019 
Q 384 1609 779 1909 
Q 1175 2209 1959 2209 
L 2766 2209 
L 2766 2266 
Q 2766 2663 2505 2880 
Q 2244 3097 1772 3097 
Q 1472 3097 1187 3025 
Q 903 2953 641 2809 
L 641 3341 
Q 956 3463 1253 3523 
Q 1550 3584 1831 3584 
Q 2591 3584 2966 3190 
Q 3341 2797 3341 1997 
z
" transform="scale(0.015625)"/>
       <path id="DejaVuSans-6c" d="M 603 4863 
L 1178 4863 
L 1178 0 
L 603 0 
L 603 4863 
z
" transform="scale(0.015625)"/>
       <path id="DejaVuSans-7a" d="M 353 3500 
L 3084 3500 
L 3084 2975 
L 922 459 
L 3084 459 
L 3084 0 
L 275 0 
L 275 525 
L 2438 3041 
L 353 3041 
L 353 3500 
z
" transform="scale(0.015625)"/>
       <path id="DejaVuSans-64" d="M 2906 2969 
L 2906 4863 
L 3481 4863 
L 3481 0 
L 2906 0 
L 2906 525 
Q 2725 213 2448 61 
Q 2172 -91 1784 -91 
Q 1150 -91 751 415 
Q 353 922 353 1747 
Q 353 2572 751 3078 
Q 1150 3584 1784 3584 
Q 2172 3584 2448 3432 
Q 2725 3281 2906 2969 
z
M 947 1747 
Q 947 1113 1208 752 
Q 1469 391 1925 391 
Q 2381 391 2643 752 
Q 2906 1113 2906 1747 
Q 2906 2381 2643 2742 
Q 2381 3103 1925 3103 
Q 1469 3103 1208 2742 
Q 947 2381 947 1747 
z
" transform="scale(0.015625)"/>
       <path id="DejaVuSans-78" d="M 3513 3500 
L 2247 1797 
L 3578 0 
L 2900 0 
L 1881 1375 
L 863 0 
L 184 0 
L 1544 1831 
L 300 3500 
L 978 3500 
L 1906 2253 
L 2834 3500 
L 3513 3500 
z
" transform="scale(0.015625)"/>
       <path id="DejaVuSans-70" d="M 1159 525 
L 1159 -1331 
L 581 -1331 
L 581 3500 
L 1159 3500 
L 1159 2969 
Q 1341 3281 1617 3432 
Q 1894 3584 2278 3584 
Q 2916 3584 3314 3078 
Q 3713 2572 3713 1747 
Q 3713 922 3314 415 
Q 2916 -91 2278 -91 
Q 1894 -91 1617 61 
Q 1341 213 1159 525 
z
M 3116 1747 
Q 3116 2381 2855 2742 
Q 2594 3103 2138 3103 
Q 1681 3103 1420 2742 
Q 1159 2381 1159 1747 
Q 1159 1113 1420 752 
Q 1681 391 2138 391 
Q 2594 391 2855 752 
Q 3116 1113 3116 1747 
z
" transform="scale(0.015625)"/>
       <path id="DejaVuSans-75" d="M 544 1381 
L 544 3500 
L 1119 3500 
L 1119 1403 
Q 1119 906 1312 657 
Q 1506 409 1894 409 
Q 2359 409 2629 706 
Q 2900 1003 2900 1516 
L 2900 3500 
L 3475 3500 
L 3475 0 
L 2900 0 
L 2900 538 
Q 2691 219 2414 64 
Q 2138 -91 1772 -91 
Q 1169 -91 856 284 
Q 544 659 544 1381 
z
M 1991 3584 
L 1991 3584 
z
" transform="scale(0.015625)"/>
       <path id="DejaVuSans-74" d="M 1172 4494 
L 1172 3500 
L 2356 3500 
L 2356 3053 
L 1172 3053 
L 1172 1153 
Q 1172 725 1289 603 
Q 1406 481 1766 481 
L 2356 481 
L 2356 0 
L 1766 0 
Q 1100 0 847 248 
Q 594 497 594 1153 
L 594 3053 
L 172 3053 
L 172 3500 
L 594 3500 
L 594 4494 
L 1172 4494 
z
" transform="scale(0.015625)"/>
      </defs>
      <use xlink:href="#DejaVuSans-4e"/>
      <use xlink:href="#DejaVuSans-6f" x="74.804688"/>
      <use xlink:href="#DejaVuSans-72" x="135.986328"/>
      <use xlink:href="#DejaVuSans-6d" x="175.349609"/>
      <use xlink:href="#DejaVuSans-61" x="272.761719"/>
      <use xlink:href="#DejaVuSans-6c" x="334.041016"/>
      <use xlink:href="#DejaVuSans-69" x="361.824219"/>
      <use xlink:href="#DejaVuSans-7a" x="389.607422"/>
      <use xlink:href="#DejaVuSans-65" x="442.097656"/>
      <use xlink:href="#DejaVuSans-64" x="503.621094"/>
      <use xlink:href="#DejaVuSans-20" x="567.097656"/>
      <use xlink:href="#DejaVuSans-65" x="598.884766"/>
      <use xlink:href="#DejaVuSans-78" x="658.658203"/>
      <use xlink:href="#DejaVuSans-70" x="717.837891"/>
      <use xlink:href="#DejaVuSans-20" x="781.314453"/>
      <use xlink:href="#DejaVuSans-6f" x="813.101562"/>
      <use xlink:href="#DejaVuSans-75" x="874.283203"/>
      <use xlink:href="#DejaVuSans-74" x="937.662109"/>
      <use xlink:href="#DejaVuSans-70" x="976.871094"/>
      <use xlink:href="#DejaVuSans-75" x="1040.347656"/>
      <use xlink:href="#DejaVuSans-74" x="1103.726562"/>
     </g>
    </g>
   </g>
   <g id="line2d_10">
    <path d="M 58.806605 201.127429 
L 61.169848 200.825026 
L 63.533092 200.607673 
L 65.896335 199.936715 
L 68.259579 199.49256 
L 70.622822 199.020055 
L 72.986065 198.755452 
L 75.349309 198.528649 
L 77.712552 198.037243 
L 80.075795 197.687589 
L 82.439039 197.593088 
L 84.802282 197.328485 
L 87.165526 196.85598 
L 89.528769 196.525226 
L 91.892012 196.260623 
L 94.255256 195.986569 
L 96.618499 195.570765 
L 98.981742 195.21166 
L 101.344986 195.16441 
L 103.708229 194.880907 
L 106.071473 194.408401 
L 108.434716 194.28555 
L 110.797959 194.153248 
L 113.161203 193.690193 
L 115.524446 193.775244 
L 117.887689 193.123186 
L 120.250933 192.981435 
L 122.614176 192.726282 
L 124.97742 192.537279 
L 127.340663 192.310477 
L 129.703906 191.998623 
L 132.06715 191.951373 
L 134.430393 191.790721 
L 136.793636 191.459967 
L 139.15688 191.441067 
L 141.520123 191.185914 
L 143.883366 190.987461 
L 146.24661 190.505506 
L 148.609853 190.496056 
L 150.973097 190.335404 
L 153.33634 189.947949 
L 155.699583 189.98575 
L 158.062827 189.683346 
L 160.42607 189.626646 
L 162.789313 189.380943 
L 165.152557 189.390393 
L 167.5158 188.965138 
L 169.879044 188.587133 
L 172.242287 188.624934 
L 174.60553 188.180779 
L 176.968774 188.30363 
L 179.332017 188.379231 
L 181.69526 188.105178 
L 184.058504 187.774424 
L 186.421747 187.689373 
L 188.784991 187.339719 
L 191.148234 187.358619 
L 193.511477 187.141267 
L 195.874721 186.876664 
L 198.237964 186.952264 
L 200.601207 186.791613 
" clip-path="url(#p195680912b)" style="fill: none; stroke: #90ee90; stroke-width: 2; stroke-linecap: square"/>
   </g>
   <g id="line2d_11">
    <path d="M 58.806605 201.401482 
L 61.169848 201.004578 
L 63.533092 200.645474 
L 65.896335 200.163518 
L 68.259579 199.813864 
L 70.622822 199.379159 
L 72.986065 198.840503 
L 75.349309 198.670401 
L 77.712552 198.358547 
L 80.075795 197.942742 
L 82.439039 197.706489 
L 84.802282 197.489137 
L 87.165526 196.90323 
L 89.528769 196.827629 
L 91.892012 196.487425 
L 94.255256 196.232272 
L 96.618499 195.797567 
L 98.981742 195.788117 
L 101.344986 195.268361 
L 103.708229 195.022658 
L 106.071473 194.776955 
L 108.434716 194.493452 
L 110.797959 194.3139 
L 113.161203 194.181598 
L 115.524446 193.992596 
L 117.887689 193.520091 
L 120.250933 193.359439 
L 122.614176 193.075936 
L 124.97742 192.773532 
L 127.340663 192.60343 
L 129.703906 192.499479 
L 132.06715 192.452228 
L 134.430393 192.206526 
L 136.793636 192.064774 
L 139.15688 191.904122 
L 141.520123 191.77182 
L 143.883366 191.365466 
L 146.24661 191.100863 
L 148.609853 190.996911 
L 150.973097 190.88351 
L 153.33634 190.798459 
L 155.699583 190.448805 
L 158.062827 190.486606 
L 160.42607 190.033 
L 162.789313 189.938499 
L 165.152557 189.617195 
L 167.5158 189.532144 
L 169.879044 189.626646 
L 172.242287 189.191941 
L 174.60553 189.12579 
L 176.968774 188.955688 
L 179.332017 188.785586 
L 181.69526 188.331981 
L 184.058504 188.464282 
L 186.421747 188.209129 
L 188.784991 188.190229 
L 191.148234 188.142978 
L 193.511477 187.963426 
L 195.874721 187.906726 
L 198.237964 187.585422 
L 200.601207 187.613772 
" clip-path="url(#p195680912b)" style="fill: none; stroke: #3cb371; stroke-width: 2; stroke-linecap: square"/>
   </g>
   <g id="line2d_12">
    <path d="M 58.806605 201.20303 
L 61.169848 200.787225 
L 63.533092 200.683274 
L 65.896335 200.276919 
L 68.259579 199.832764 
L 70.622822 199.303558 
L 72.986065 198.717651 
L 75.349309 198.453048 
L 77.712552 198.056144 
L 80.075795 197.508037 
L 82.439039 196.88433 
L 84.802282 196.752028 
L 87.165526 196.496875 
L 89.528769 196.05272 
L 91.892012 195.608565 
L 94.255256 195.21166 
L 96.618499 194.956507 
L 98.981742 194.673004 
L 101.344986 194.30445 
L 103.708229 193.954796 
L 106.071473 193.624042 
L 108.434716 193.331089 
L 110.797959 193.283838 
L 113.161203 193.094836 
L 115.524446 192.896384 
L 117.887689 192.58453 
L 120.250933 192.414428 
L 122.614176 192.121475 
L 124.97742 191.866322 
L 127.340663 191.507217 
L 129.703906 191.384366 
L 132.06715 191.110313 
L 134.430393 191.034712 
L 136.793636 190.354304 
L 139.15688 190.099151 
L 141.520123 190.04245 
L 143.883366 189.796748 
L 146.24661 189.399843 
L 148.609853 189.239191 
L 150.973097 189.12579 
L 153.33634 188.643834 
L 155.699583 188.492632 
L 158.062827 188.152428 
L 160.42607 187.935076 
L 162.789313 187.963426 
L 165.152557 187.500371 
L 167.5158 187.131817 
L 169.879044 187.235768 
L 172.242287 186.876664 
L 174.60553 186.630961 
L 176.968774 186.404158 
L 179.332017 186.149005 
L 181.69526 186.215156 
L 184.058504 185.74265 
L 186.421747 185.808801 
L 188.784991 185.402446 
L 191.148234 185.203994 
L 193.511477 185.270145 
L 195.874721 184.86379 
L 198.237964 184.939391 
L 200.601207 184.589737 
" clip-path="url(#p195680912b)" style="fill: none; stroke: #006400; stroke-width: 2; stroke-linecap: square"/>
   </g>
   <g id="patch_3">
    <path d="M 51.716875 205.068125 
L 51.716875 49.094062 
" style="fill: none; stroke: #000000; stroke-width: 0.8; stroke-linejoin: miter; stroke-linecap: square"/>
   </g>
   <g id="patch_4">
    <path d="M 51.716875 205.068125 
L 207.690938 205.068125 
" style="fill: none; stroke: #000000; stroke-width: 0.8; stroke-linejoin: miter; stroke-linecap: square"/>
   </g>
   <g id="text_12">
    <!-- vRNA = 0fM -->
    <g transform="translate(96.239844 43.094062)scale(0.1 -0.1)">
     <defs>
      <path id="DejaVuSans-Bold-76" d="M 97 3500 
L 1216 3500 
L 2088 1081 
L 2956 3500 
L 4078 3500 
L 2700 0 
L 1472 0 
L 97 3500 
z
" transform="scale(0.015625)"/>
      <path id="DejaVuSans-Bold-52" d="M 2297 2597 
Q 2675 2597 2839 2737 
Q 3003 2878 3003 3200 
Q 3003 3519 2839 3656 
Q 2675 3794 2297 3794 
L 1791 3794 
L 1791 2597 
L 2297 2597 
z
M 1791 1766 
L 1791 0 
L 588 0 
L 588 4666 
L 2425 4666 
Q 3347 4666 3776 4356 
Q 4206 4047 4206 3378 
Q 4206 2916 3982 2619 
Q 3759 2322 3309 2181 
Q 3556 2125 3751 1926 
Q 3947 1728 4147 1325 
L 4800 0 
L 3519 0 
L 2950 1159 
Q 2778 1509 2601 1637 
Q 2425 1766 2131 1766 
L 1791 1766 
z
" transform="scale(0.015625)"/>
      <path id="DejaVuSans-Bold-4e" d="M 588 4666 
L 1931 4666 
L 3628 1466 
L 3628 4666 
L 4769 4666 
L 4769 0 
L 3425 0 
L 1728 3200 
L 1728 0 
L 588 0 
L 588 4666 
z
" transform="scale(0.015625)"/>
      <path id="DejaVuSans-Bold-41" d="M 3419 850 
L 1538 850 
L 1241 0 
L 31 0 
L 1759 4666 
L 3194 4666 
L 4922 0 
L 3713 0 
L 3419 850 
z
M 1838 1716 
L 3116 1716 
L 2478 3572 
L 1838 1716 
z
" transform="scale(0.015625)"/>
      <path id="DejaVuSans-Bold-20" transform="scale(0.015625)"/>
      <path id="DejaVuSans-Bold-3d" d="M 678 3084 
L 4684 3084 
L 4684 2350 
L 678 2350 
L 678 3084 
z
M 678 1663 
L 4684 1663 
L 4684 922 
L 678 922 
L 678 1663 
z
" transform="scale(0.015625)"/>
      <path id="DejaVuSans-Bold-30" d="M 2944 2338 
Q 2944 3213 2780 3570 
Q 2616 3928 2228 3928 
Q 1841 3928 1675 3570 
Q 1509 3213 1509 2338 
Q 1509 1453 1675 1090 
Q 1841 728 2228 728 
Q 2613 728 2778 1090 
Q 2944 1453 2944 2338 
z
M 4147 2328 
Q 4147 1169 3647 539 
Q 3147 -91 2228 -91 
Q 1306 -91 806 539 
Q 306 1169 306 2328 
Q 306 3491 806 4120 
Q 1306 4750 2228 4750 
Q 3147 4750 3647 4120 
Q 4147 3491 4147 2328 
z
" transform="scale(0.015625)"/>
      <path id="DejaVuSans-Bold-66" d="M 2841 4863 
L 2841 4128 
L 2222 4128 
Q 1984 4128 1890 4042 
Q 1797 3956 1797 3744 
L 1797 3500 
L 2753 3500 
L 2753 2700 
L 1797 2700 
L 1797 0 
L 678 0 
L 678 2700 
L 122 2700 
L 122 3500 
L 678 3500 
L 678 3744 
Q 678 4316 997 4589 
Q 1316 4863 1984 4863 
L 2841 4863 
z
" transform="scale(0.015625)"/>
      <path id="DejaVuSans-Bold-4d" d="M 588 4666 
L 2119 4666 
L 3181 2169 
L 4250 4666 
L 5778 4666 
L 5778 0 
L 4641 0 
L 4641 3413 
L 3566 897 
L 2803 897 
L 1728 3413 
L 1728 0 
L 588 0 
L 588 4666 
z
" transform="scale(0.015625)"/>
     </defs>
     <use xlink:href="#DejaVuSans-Bold-76"/>
     <use xlink:href="#DejaVuSans-Bold-52" x="65.185547"/>
     <use xlink:href="#DejaVuSans-Bold-4e" x="142.1875"/>
     <use xlink:href="#DejaVuSans-Bold-41" x="225.878906"/>
     <use xlink:href="#DejaVuSans-Bold-20" x="303.271484"/>
     <use xlink:href="#DejaVuSans-Bold-3d" x="338.085938"/>
     <use xlink:href="#DejaVuSans-Bold-20" x="421.875"/>
     <use xlink:href="#DejaVuSans-Bold-30" x="456.689453"/>
     <use xlink:href="#DejaVuSans-Bold-66" x="526.269531"/>
     <use xlink:href="#DejaVuSans-Bold-4d" x="569.775391"/>
    </g>
   </g>
   <g id="legend_1">
    <g id="patch_5">
     <path d="M 130.776875 101.128437 
L 200.690938 101.128437 
Q 202.690938 101.128437 202.690938 99.128437 
L 202.690938 56.094062 
Q 202.690938 54.094062 200.690938 54.094062 
L 130.776875 54.094062 
Q 128.776875 54.094062 128.776875 56.094062 
L 128.776875 99.128437 
Q 128.776875 101.128437 130.776875 101.128437 
z
" style="fill: #ffffff; opacity: 0.8; stroke: #cccccc; stroke-linejoin: miter"/>
    </g>
    <g id="line2d_13">
     <path d="M 132.776875 62.1925 
L 142.776875 62.1925 
L 152.776875 62.1925 
" style="fill: none; stroke: #90ee90; stroke-width: 2; stroke-linecap: square"/>
    </g>
    <g id="text_13">
     <!-- T7 1.0 -->
     <g transform="translate(160.776875 65.6925)scale(0.1 -0.1)">
      <defs>
       <path id="DejaVuSans-37" d="M 525 4666 
L 3525 4666 
L 3525 4397 
L 1831 0 
L 1172 0 
L 2766 4134 
L 525 4134 
L 525 4666 
z
" transform="scale(0.015625)"/>
      </defs>
      <use xlink:href="#DejaVuSans-54"/>
      <use xlink:href="#DejaVuSans-37" x="61.083984"/>
      <use xlink:href="#DejaVuSans-20" x="124.707031"/>
      <use xlink:href="#DejaVuSans-31" x="156.494141"/>
      <use xlink:href="#DejaVuSans-2e" x="220.117188"/>
      <use xlink:href="#DejaVuSans-30" x="251.904297"/>
     </g>
    </g>
    <g id="line2d_14">
     <path d="M 132.776875 76.870625 
L 142.776875 76.870625 
L 152.776875 76.870625 
" style="fill: none; stroke: #3cb371; stroke-width: 2; stroke-linecap: square"/>
    </g>
    <g id="text_14">
     <!-- T7 5.0 -->
     <g transform="translate(160.776875 80.370625)scale(0.1 -0.1)">
      <defs>
       <path id="DejaVuSans-35" d="M 691 4666 
L 3169 4666 
L 3169 4134 
L 1269 4134 
L 1269 2991 
Q 1406 3038 1543 3061 
Q 1681 3084 1819 3084 
Q 2600 3084 3056 2656 
Q 3513 2228 3513 1497 
Q 3513 744 3044 326 
Q 2575 -91 1722 -91 
Q 1428 -91 1123 -41 
Q 819 9 494 109 
L 494 744 
Q 775 591 1075 516 
Q 1375 441 1709 441 
Q 2250 441 2565 725 
Q 2881 1009 2881 1497 
Q 2881 1984 2565 2268 
Q 2250 2553 1709 2553 
Q 1456 2553 1204 2497 
Q 953 2441 691 2322 
L 691 4666 
z
" transform="scale(0.015625)"/>
      </defs>
      <use xlink:href="#DejaVuSans-54"/>
      <use xlink:href="#DejaVuSans-37" x="61.083984"/>
      <use xlink:href="#DejaVuSans-20" x="124.707031"/>
      <use xlink:href="#DejaVuSans-35" x="156.494141"/>
      <use xlink:href="#DejaVuSans-2e" x="220.117188"/>
      <use xlink:href="#DejaVuSans-30" x="251.904297"/>
     </g>
    </g>
    <g id="line2d_15">
     <path d="M 132.776875 91.54875 
L 142.776875 91.54875 
L 152.776875 91.54875 
" style="fill: none; stroke: #006400; stroke-width: 2; stroke-linecap: square"/>
    </g>
    <g id="text_15">
     <!-- T7 20.0 -->
     <g transform="translate(160.776875 95.04875)scale(0.1 -0.1)">
      <use xlink:href="#DejaVuSans-54"/>
      <use xlink:href="#DejaVuSans-37" x="61.083984"/>
      <use xlink:href="#DejaVuSans-20" x="124.707031"/>
      <use xlink:href="#DejaVuSans-32" x="156.494141"/>
      <use xlink:href="#DejaVuSans-30" x="220.117188"/>
      <use xlink:href="#DejaVuSans-2e" x="283.740234"/>
      <use xlink:href="#DejaVuSans-30" x="315.527344"/>
     </g>
    </g>
   </g>
  </g>
  <g id="axes_2">
   <g id="patch_6">
    <path d="M 335.65267 205.068125 
L 491.626733 205.068125 
L 491.626733 49.094062 
L 335.65267 49.094062 
z
" style="fill: #ffffff"/>
   </g>
   <g id="PolyCollection_4">
    <defs>
     <path id="m2210aad5bf" d="M 342.742401 -49.550193 
L 342.742401 -48.974744 
L 345.105644 -49.331716 
L 347.468887 -49.732292 
L 349.832131 -49.95768 
L 352.195374 -50.58667 
L 354.558617 -51.052928 
L 356.921861 -50.956206 
L 359.285104 -51.158865 
L 361.648348 -51.77725 
L 364.011591 -51.983107 
L 366.374834 -52.447808 
L 368.738078 -52.570132 
L 371.101321 -53.15804 
L 373.464564 -53.369741 
L 375.827808 -53.759996 
L 378.191051 -53.693119 
L 380.554295 -54.304008 
L 382.917538 -54.373868 
L 385.280781 -55.036149 
L 387.644025 -55.109736 
L 390.007268 -55.739508 
L 392.370511 -55.987455 
L 394.733755 -56.471727 
L 397.096998 -56.916802 
L 399.460241 -57.641687 
L 401.823485 -58.09675 
L 404.186728 -58.854512 
L 406.549972 -59.085071 
L 408.913215 -59.636194 
L 411.276458 -60.640086 
L 413.639702 -61.045812 
L 416.002945 -61.699059 
L 418.366188 -62.900583 
L 420.729432 -63.163752 
L 423.092675 -64.240241 
L 425.455919 -64.719971 
L 427.819162 -65.70658 
L 430.182405 -66.433208 
L 432.545649 -67.804181 
L 434.908892 -68.094352 
L 437.272135 -68.585583 
L 439.635379 -69.797459 
L 441.998622 -70.529917 
L 444.361866 -71.351284 
L 446.725109 -71.620419 
L 449.088352 -72.683438 
L 451.451596 -73.128911 
L 453.814839 -73.713394 
L 456.178082 -74.573755 
L 458.541326 -74.98129 
L 460.904569 -74.979588 
L 463.267813 -75.776885 
L 465.631056 -76.645222 
L 467.994299 -76.866188 
L 470.357543 -77.054574 
L 472.720786 -76.765776 
L 475.084029 -77.589012 
L 477.447273 -77.274313 
L 479.810516 -77.555637 
L 482.173759 -78.242826 
L 484.537003 -78.665467 
L 484.537003 -85.046328 
L 484.537003 -85.046328 
L 482.173759 -84.467257 
L 479.810516 -84.53074 
L 477.447273 -83.715851 
L 475.084029 -84.10046 
L 472.720786 -83.317177 
L 470.357543 -82.536973 
L 467.994299 -82.082752 
L 465.631056 -81.887913 
L 463.267813 -81.017429 
L 460.904569 -80.964217 
L 458.541326 -78.902391 
L 456.178082 -78.516116 
L 453.814839 -78.110163 
L 451.451596 -77.485032 
L 449.088352 -76.701991 
L 446.725109 -75.780486 
L 444.361866 -74.386402 
L 441.998622 -73.336647 
L 439.635379 -72.519288 
L 437.272135 -71.765541 
L 434.908892 -71.160559 
L 432.545649 -69.74971 
L 430.182405 -68.871557 
L 427.819162 -67.840464 
L 425.455919 -67.050453 
L 423.092675 -65.885863 
L 420.729432 -65.242433 
L 418.366188 -63.955784 
L 416.002945 -63.153885 
L 413.639702 -62.181713 
L 411.276458 -61.491226 
L 408.913215 -60.605096 
L 406.549972 -59.852104 
L 404.186728 -59.345554 
L 401.823485 -58.780301 
L 399.460241 -57.969049 
L 397.096998 -57.616621 
L 394.733755 -56.70088 
L 392.370511 -56.655946 
L 390.007268 -56.336887 
L 387.644025 -55.568042 
L 385.280781 -55.830632 
L 382.917538 -55.018696 
L 380.554295 -55.012955 
L 378.191051 -54.43313 
L 375.827808 -54.007149 
L 373.464564 -54.0572 
L 371.101321 -54.079898 
L 368.738078 -53.288091 
L 366.374834 -52.99461 
L 364.011591 -52.703302 
L 361.648348 -52.285452 
L 359.285104 -52.091127 
L 356.921861 -51.613379 
L 354.558617 -51.252054 
L 352.195374 -50.886702 
L 349.832131 -50.41948 
L 347.468887 -50.134561 
L 345.105644 -49.703527 
L 342.742401 -49.550193 
z
" style="stroke: #90ee90; stroke-opacity: 0.2"/>
    </defs>
    <g clip-path="url(#p9e2d0e7984)">
     <use xlink:href="#m2210aad5bf" x="0" y="250.56" style="fill: #90ee90; fill-opacity: 0.2; stroke: #90ee90; stroke-opacity: 0.2"/>
    </g>
   </g>
   <g id="PolyCollection_5">
    <defs>
     <path id="m7756e7cced" d="M 342.742401 -49.602673 
L 342.742401 -49.319169 
L 345.105644 -49.320948 
L 347.468887 -49.591741 
L 349.832131 -49.918206 
L 352.195374 -50.324489 
L 354.558617 -50.818211 
L 356.921861 -50.949338 
L 359.285104 -51.239535 
L 361.648348 -51.883951 
L 364.011591 -52.376323 
L 366.374834 -52.647511 
L 368.738078 -52.883835 
L 371.101321 -53.188066 
L 373.464564 -53.487898 
L 375.827808 -54.099212 
L 378.191051 -54.300201 
L 380.554295 -54.49677 
L 382.917538 -54.964092 
L 385.280781 -55.497864 
L 387.644025 -55.695867 
L 390.007268 -56.022906 
L 392.370511 -56.312712 
L 394.733755 -56.844934 
L 397.096998 -56.708877 
L 399.460241 -57.196702 
L 401.823485 -57.658767 
L 404.186728 -58.084801 
L 406.549972 -58.306224 
L 408.913215 -58.420086 
L 411.276458 -58.625177 
L 413.639702 -59.319918 
L 416.002945 -59.372911 
L 418.366188 -59.276094 
L 420.729432 -59.558206 
L 423.092675 -59.793259 
L 425.455919 -59.888903 
L 427.819162 -60.06587 
L 430.182405 -60.327606 
L 432.545649 -60.544829 
L 434.908892 -60.70343 
L 437.272135 -60.60577 
L 439.635379 -61.022992 
L 441.998622 -61.154788 
L 444.361866 -61.656915 
L 446.725109 -61.649437 
L 449.088352 -61.781345 
L 451.451596 -62.420966 
L 453.814839 -62.376189 
L 456.178082 -62.195486 
L 458.541326 -62.860587 
L 460.904569 -62.715328 
L 463.267813 -62.787223 
L 465.631056 -63.167189 
L 467.994299 -63.262668 
L 470.357543 -63.204074 
L 472.720786 -63.337955 
L 475.084029 -63.553579 
L 477.447273 -63.592018 
L 479.810516 -63.631999 
L 482.173759 -64.470507 
L 484.537003 -64.079769 
L 484.537003 -64.64772 
L 484.537003 -64.64772 
L 482.173759 -64.880689 
L 479.810516 -64.925387 
L 477.447273 -64.795266 
L 475.084029 -64.3234 
L 472.720786 -64.671325 
L 470.357543 -64.030297 
L 467.994299 -63.744901 
L 465.631056 -63.708078 
L 463.267813 -63.653339 
L 460.904569 -63.177128 
L 458.541326 -63.315372 
L 456.178082 -63.224464 
L 453.814839 -62.968161 
L 451.451596 -62.507578 
L 449.088352 -62.599093 
L 446.725109 -62.239596 
L 444.361866 -62.118716 
L 441.998622 -62.091637 
L 439.635379 -61.505225 
L 437.272135 -61.109737 
L 434.908892 -61.049877 
L 432.545649 -60.962776 
L 430.182405 -60.612993 
L 427.819162 -60.666826 
L 425.455919 -60.201186 
L 423.092675 -59.975526 
L 420.729432 -59.983776 
L 418.366188 -59.944585 
L 416.002945 -59.602064 
L 413.639702 -59.352654 
L 411.276458 -59.083483 
L 408.913215 -59.194073 
L 406.549972 -58.533027 
L 404.186728 -58.527647 
L 401.823485 -58.197672 
L 399.460241 -58.149431 
L 397.096998 -57.673344 
L 394.733755 -57.329385 
L 392.370511 -57.086698 
L 390.007268 -56.563795 
L 387.644025 -56.286027 
L 385.280781 -55.765821 
L 382.917538 -55.656986 
L 380.554295 -55.425 
L 378.191051 -54.733259 
L 375.827808 -54.726346 
L 373.464564 -54.430449 
L 371.101321 -53.84197 
L 368.738078 -53.560294 
L 366.374834 -52.927209 
L 364.011591 -52.895993 
L 361.648348 -52.537855 
L 359.285104 -52.312861 
L 356.921861 -51.86595 
L 354.558617 -51.50567 
L 352.195374 -50.865379 
L 349.832131 -50.666855 
L 347.468887 -50.256212 
L 345.105644 -49.770996 
L 342.742401 -49.602673 
z
" style="stroke: #3cb371; stroke-opacity: 0.2"/>
    </defs>
    <g clip-path="url(#p9e2d0e7984)">
     <use xlink:href="#m7756e7cced" x="0" y="250.56" style="fill: #3cb371; fill-opacity: 0.2; stroke: #3cb371; stroke-opacity: 0.2"/>
    </g>
   </g>
   <g id="PolyCollection_6">
    <defs>
     <path id="m5df157aa18" d="M 342.742401 -49.396624 
L 342.742401 -49.298416 
L 345.105644 -49.521876 
L 347.468887 -49.901102 
L 349.832131 -49.848012 
L 352.195374 -50.25473 
L 354.558617 -50.816797 
L 356.921861 -50.927322 
L 359.285104 -51.501648 
L 361.648348 -51.757298 
L 364.011591 -52.214276 
L 366.374834 -52.398228 
L 368.738078 -52.998473 
L 371.101321 -53.141615 
L 373.464564 -53.146464 
L 375.827808 -53.645869 
L 378.191051 -54.038576 
L 380.554295 -54.075268 
L 382.917538 -54.417436 
L 385.280781 -54.723374 
L 387.644025 -55.106009 
L 390.007268 -55.509644 
L 392.370511 -55.710921 
L 394.733755 -56.125284 
L 397.096998 -56.224849 
L 399.460241 -56.396516 
L 401.823485 -56.52151 
L 404.186728 -56.605441 
L 406.549972 -56.934783 
L 408.913215 -57.030459 
L 411.276458 -57.20894 
L 413.639702 -57.420284 
L 416.002945 -57.469102 
L 418.366188 -57.908764 
L 420.729432 -57.951027 
L 423.092675 -58.544209 
L 425.455919 -58.65104 
L 427.819162 -58.601152 
L 430.182405 -58.824266 
L 432.545649 -59.378071 
L 434.908892 -59.35236 
L 437.272135 -59.56079 
L 439.635379 -59.860237 
L 441.998622 -60.139021 
L 444.361866 -59.969165 
L 446.725109 -60.125309 
L 449.088352 -60.34792 
L 451.451596 -60.71216 
L 453.814839 -60.66395 
L 456.178082 -60.626154 
L 458.541326 -60.601614 
L 460.904569 -61.467569 
L 463.267813 -61.337059 
L 465.631056 -61.614224 
L 467.994299 -61.452855 
L 470.357543 -61.8119 
L 472.720786 -62.18034 
L 475.084029 -61.969243 
L 477.447273 -62.097626 
L 479.810516 -62.159746 
L 482.173759 -62.640798 
L 484.537003 -62.26997 
L 484.537003 -64.094991 
L 484.537003 -64.094991 
L 482.173759 -63.44066 
L 479.810516 -63.298004 
L 477.447273 -63.265623 
L 475.084029 -63.205005 
L 472.720786 -62.804905 
L 470.357543 -62.663039 
L 467.994299 -62.152674 
L 465.631056 -62.38821 
L 463.267813 -62.24957 
L 460.904569 -62.17576 
L 458.541326 -61.869902 
L 456.178082 -61.561858 
L 453.814839 -61.542963 
L 451.451596 -61.343551 
L 449.088352 -61.102984 
L 446.725109 -61.231093 
L 444.361866 -60.933632 
L 441.998622 -60.650376 
L 439.635379 -60.324352 
L 437.272135 -60.340296 
L 434.908892 -60.208522 
L 432.545649 -59.710306 
L 430.182405 -59.451401 
L 427.819162 -59.277611 
L 425.455919 -59.246622 
L 423.092675 -58.748646 
L 420.729432 -58.907124 
L 418.366188 -58.231178 
L 416.002945 -58.236135 
L 413.639702 -58.133752 
L 411.276458 -57.626887 
L 408.913215 -57.257262 
L 406.549972 -57.163936 
L 404.186728 -56.982972 
L 401.823485 -56.783399 
L 399.460241 -56.738291 
L 397.096998 -56.683155 
L 394.733755 -56.518118 
L 392.370511 -56.195372 
L 390.007268 -56.056445 
L 387.644025 -55.685171 
L 385.280781 -55.5764 
L 382.917538 -55.409833 
L 380.554295 -54.901491 
L 378.191051 -54.69248 
L 375.827808 -54.385879 
L 373.464564 -53.940273 
L 371.101321 -53.680519 
L 368.738078 -53.162154 
L 366.374834 -52.666185 
L 364.011591 -52.793437 
L 361.648348 -52.437706 
L 359.285104 -51.861746 
L 356.921861 -51.47216 
L 354.558617 -51.12908 
L 352.195374 -50.821737 
L 349.832131 -50.585847 
L 347.468887 -50.287055 
L 345.105644 -49.664569 
L 342.742401 -49.396624 
z
" style="stroke: #006400; stroke-opacity: 0.2"/>
    </defs>
    <g clip-path="url(#p9e2d0e7984)">
     <use xlink:href="#m5df157aa18" x="0" y="250.56" style="fill: #006400; fill-opacity: 0.2; stroke: #006400; stroke-opacity: 0.2"/>
    </g>
   </g>
   <g id="matplotlib.axis_3">
    <g id="xtick_4">
     <g id="line2d_16">
      <g>
       <use xlink:href="#m9890f8cea6" x="342.742401" y="205.068125" style="stroke: #000000; stroke-width: 0.8"/>
      </g>
     </g>
     <g id="text_16">
      <!-- 0 -->
      <g transform="translate(339.561151 219.666562)scale(0.1 -0.1)">
       <use xlink:href="#DejaVuSans-30"/>
      </g>
     </g>
    </g>
    <g id="xtick_5">
     <g id="line2d_17">
      <g>
       <use xlink:href="#m9890f8cea6" x="401.823485" y="205.068125" style="stroke: #000000; stroke-width: 0.8"/>
      </g>
     </g>
     <g id="text_17">
      <!-- 100 -->
      <g transform="translate(392.279735 219.666562)scale(0.1 -0.1)">
       <use xlink:href="#DejaVuSans-31"/>
       <use xlink:href="#DejaVuSans-30" x="63.623047"/>
       <use xlink:href="#DejaVuSans-30" x="127.246094"/>
      </g>
     </g>
    </g>
    <g id="xtick_6">
     <g id="line2d_18">
      <g>
       <use xlink:href="#m9890f8cea6" x="460.904569" y="205.068125" style="stroke: #000000; stroke-width: 0.8"/>
      </g>
     </g>
     <g id="text_18">
      <!-- 200 -->
      <g transform="translate(451.360819 219.666562)scale(0.1 -0.1)">
       <use xlink:href="#DejaVuSans-32"/>
       <use xlink:href="#DejaVuSans-30" x="63.623047"/>
       <use xlink:href="#DejaVuSans-30" x="127.246094"/>
      </g>
     </g>
    </g>
    <g id="text_19">
     <!-- Time (min) -->
     <g transform="translate(381.056889 240.864375)scale(0.12 -0.12)">
      <use xlink:href="#DejaVuSans-54"/>
      <use xlink:href="#DejaVuSans-69" x="57.958984"/>
      <use xlink:href="#DejaVuSans-6d" x="85.742188"/>
      <use xlink:href="#DejaVuSans-65" x="183.154297"/>
      <use xlink:href="#DejaVuSans-20" x="244.677734"/>
      <use xlink:href="#DejaVuSans-28" x="276.464844"/>
      <use xlink:href="#DejaVuSans-6d" x="315.478516"/>
      <use xlink:href="#DejaVuSans-69" x="412.890625"/>
      <use xlink:href="#DejaVuSans-6e" x="440.673828"/>
      <use xlink:href="#DejaVuSans-29" x="504.052734"/>
     </g>
    </g>
   </g>
   <g id="matplotlib.axis_4">
    <g id="ytick_7">
     <g id="line2d_19">
      <g>
       <use xlink:href="#mfef197abf5" x="335.65267" y="205.068125" style="stroke: #000000; stroke-width: 0.8"/>
      </g>
     </g>
     <g id="text_20">
      <!-- 0.0 -->
      <g transform="translate(312.749545 208.867344)scale(0.1 -0.1)">
       <use xlink:href="#DejaVuSans-30"/>
       <use xlink:href="#DejaVuSans-2e" x="63.623047"/>
       <use xlink:href="#DejaVuSans-30" x="95.410156"/>
      </g>
     </g>
    </g>
    <g id="ytick_8">
     <g id="line2d_20">
      <g>
       <use xlink:href="#mfef197abf5" x="335.65267" y="173.873312" style="stroke: #000000; stroke-width: 0.8"/>
      </g>
     </g>
     <g id="text_21">
      <!-- 0.2 -->
      <g transform="translate(312.749545 177.672531)scale(0.1 -0.1)">
       <use xlink:href="#DejaVuSans-30"/>
       <use xlink:href="#DejaVuSans-2e" x="63.623047"/>
       <use xlink:href="#DejaVuSans-32" x="95.410156"/>
      </g>
     </g>
    </g>
    <g id="ytick_9">
     <g id="line2d_21">
      <g>
       <use xlink:href="#mfef197abf5" x="335.65267" y="142.6785" style="stroke: #000000; stroke-width: 0.8"/>
      </g>
     </g>
     <g id="text_22">
      <!-- 0.4 -->
      <g transform="translate(312.749545 146.477719)scale(0.1 -0.1)">
       <use xlink:href="#DejaVuSans-30"/>
       <use xlink:href="#DejaVuSans-2e" x="63.623047"/>
       <use xlink:href="#DejaVuSans-34" x="95.410156"/>
      </g>
     </g>
    </g>
    <g id="ytick_10">
     <g id="line2d_22">
      <g>
       <use xlink:href="#mfef197abf5" x="335.65267" y="111.483687" style="stroke: #000000; stroke-width: 0.8"/>
      </g>
     </g>
     <g id="text_23">
      <!-- 0.6 -->
      <g transform="translate(312.749545 115.282906)scale(0.1 -0.1)">
       <use xlink:href="#DejaVuSans-30"/>
       <use xlink:href="#DejaVuSans-2e" x="63.623047"/>
       <use xlink:href="#DejaVuSans-36" x="95.410156"/>
      </g>
     </g>
    </g>
    <g id="ytick_11">
     <g id="line2d_23">
      <g>
       <use xlink:href="#mfef197abf5" x="335.65267" y="80.288875" style="stroke: #000000; stroke-width: 0.8"/>
      </g>
     </g>
     <g id="text_24">
      <!-- 0.8 -->
      <g transform="translate(312.749545 84.088094)scale(0.1 -0.1)">
       <use xlink:href="#DejaVuSans-30"/>
       <use xlink:href="#DejaVuSans-2e" x="63.623047"/>
       <use xlink:href="#DejaVuSans-38" x="95.410156"/>
      </g>
     </g>
    </g>
    <g id="ytick_12">
     <g id="line2d_24">
      <g>
       <use xlink:href="#mfef197abf5" x="335.65267" y="49.094062" style="stroke: #000000; stroke-width: 0.8"/>
      </g>
     </g>
     <g id="text_25">
      <!-- 1.0 -->
      <g transform="translate(312.749545 52.893281)scale(0.1 -0.1)">
       <use xlink:href="#DejaVuSans-31"/>
       <use xlink:href="#DejaVuSans-2e" x="63.623047"/>
       <use xlink:href="#DejaVuSans-30" x="95.410156"/>
      </g>
     </g>
    </g>
    <g id="text_26">
     <!-- Normalized exp output -->
     <g transform="translate(300.25392 195.658281)rotate(-90)scale(0.12 -0.12)">
      <use xlink:href="#DejaVuSans-4e"/>
      <use xlink:href="#DejaVuSans-6f" x="74.804688"/>
      <use xlink:href="#DejaVuSans-72" x="135.986328"/>
      <use xlink:href="#DejaVuSans-6d" x="175.349609"/>
      <use xlink:href="#DejaVuSans-61" x="272.761719"/>
      <use xlink:href="#DejaVuSans-6c" x="334.041016"/>
      <use xlink:href="#DejaVuSans-69" x="361.824219"/>
      <use xlink:href="#DejaVuSans-7a" x="389.607422"/>
      <use xlink:href="#DejaVuSans-65" x="442.097656"/>
      <use xlink:href="#DejaVuSans-64" x="503.621094"/>
      <use xlink:href="#DejaVuSans-20" x="567.097656"/>
      <use xlink:href="#DejaVuSans-65" x="598.884766"/>
      <use xlink:href="#DejaVuSans-78" x="658.658203"/>
      <use xlink:href="#DejaVuSans-70" x="717.837891"/>
      <use xlink:href="#DejaVuSans-20" x="781.314453"/>
      <use xlink:href="#DejaVuSans-6f" x="813.101562"/>
      <use xlink:href="#DejaVuSans-75" x="874.283203"/>
      <use xlink:href="#DejaVuSans-74" x="937.662109"/>
      <use xlink:href="#DejaVuSans-70" x="976.871094"/>
      <use xlink:href="#DejaVuSans-75" x="1040.347656"/>
      <use xlink:href="#DejaVuSans-74" x="1103.726562"/>
     </g>
    </g>
   </g>
   <g id="line2d_25">
    <path d="M 342.742401 201.297531 
L 345.105644 201.042378 
L 347.468887 200.626573 
L 349.832131 200.37142 
L 352.195374 199.823314 
L 354.558617 199.407509 
L 356.921861 199.275208 
L 359.285104 198.935004 
L 361.648348 198.528649 
L 364.011591 198.216795 
L 366.374834 197.838791 
L 368.738078 197.630889 
L 371.101321 196.941031 
L 373.464564 196.846529 
L 375.827808 196.676427 
L 378.191051 196.496875 
L 380.554295 195.901518 
L 382.917538 195.863718 
L 385.280781 195.126609 
L 387.644025 195.221111 
L 390.007268 194.521802 
L 392.370511 194.238299 
L 394.733755 193.973696 
L 397.096998 193.293288 
L 399.460241 192.754632 
L 401.823485 192.121475 
L 404.186728 191.459967 
L 406.549972 191.091413 
L 408.913215 190.439355 
L 411.276458 189.494344 
L 413.639702 188.946238 
L 416.002945 188.133528 
L 418.366188 187.131817 
L 420.729432 186.356908 
L 423.092675 185.496948 
L 425.455919 184.674788 
L 427.819162 183.786478 
L 430.182405 182.907617 
L 432.545649 181.783054 
L 434.908892 180.932545 
L 437.272135 180.384438 
L 439.635379 179.401627 
L 441.998622 178.626718 
L 444.361866 177.691157 
L 446.725109 176.859547 
L 449.088352 175.867286 
L 451.451596 175.253029 
L 453.814839 174.648222 
L 456.178082 174.015064 
L 458.541326 173.61816 
L 460.904569 172.588098 
L 463.267813 172.162843 
L 465.631056 171.293433 
L 467.994299 171.08553 
L 470.357543 170.764226 
L 472.720786 170.518524 
L 475.084029 169.715264 
L 477.447273 170.064918 
L 479.810516 169.516812 
L 482.173759 169.204958 
L 484.537003 168.704102 
" clip-path="url(#p9e2d0e7984)" style="fill: none; stroke: #90ee90; stroke-width: 2; stroke-linecap: square"/>
   </g>
   <g id="line2d_26">
    <path d="M 342.742401 201.099079 
L 345.105644 201.014028 
L 347.468887 200.636023 
L 349.832131 200.267469 
L 352.195374 199.965066 
L 354.558617 199.398059 
L 356.921861 199.152356 
L 359.285104 198.783802 
L 361.648348 198.349097 
L 364.011591 197.923842 
L 366.374834 197.77264 
L 368.738078 197.337935 
L 371.101321 197.044982 
L 373.464564 196.600827 
L 375.827808 196.147221 
L 378.191051 196.04327 
L 380.554295 195.599115 
L 382.917538 195.249461 
L 385.280781 194.928157 
L 387.644025 194.569053 
L 390.007268 194.266649 
L 392.370511 193.860295 
L 394.733755 193.47284 
L 397.096998 193.368889 
L 399.460241 192.886933 
L 401.823485 192.63178 
L 404.186728 192.253776 
L 406.549972 192.140375 
L 408.913215 191.75292 
L 411.276458 191.70567 
L 413.639702 191.223714 
L 416.002945 191.072512 
L 418.366188 190.949661 
L 420.729432 190.789009 
L 423.092675 190.675608 
L 425.455919 190.514956 
L 427.819162 190.193652 
L 430.182405 190.089701 
L 432.545649 189.806198 
L 434.908892 189.683346 
L 437.272135 189.702246 
L 439.635379 189.295892 
L 441.998622 188.936788 
L 444.361866 188.672184 
L 446.725109 188.615484 
L 449.088352 188.369781 
L 451.451596 188.095728 
L 453.814839 187.887825 
L 456.178082 187.850025 
L 458.541326 187.472021 
L 460.904569 187.613772 
L 463.267813 187.339719 
L 465.631056 187.122366 
L 467.994299 187.056216 
L 470.357543 186.942814 
L 472.720786 186.55536 
L 475.084029 186.621511 
L 477.447273 186.366358 
L 479.810516 186.281307 
L 482.173759 185.884402 
L 484.537003 186.196256 
" clip-path="url(#p9e2d0e7984)" style="fill: none; stroke: #3cb371; stroke-width: 2; stroke-linecap: square"/>
   </g>
   <g id="line2d_27">
    <path d="M 342.742401 201.21248 
L 345.105644 200.966777 
L 347.468887 200.465922 
L 349.832131 200.34307 
L 352.195374 200.021766 
L 354.558617 199.587061 
L 356.921861 199.360259 
L 359.285104 198.878303 
L 361.648348 198.462498 
L 364.011591 198.056144 
L 366.374834 198.027793 
L 368.738078 197.479687 
L 371.101321 197.148933 
L 373.464564 197.016631 
L 375.827808 196.544126 
L 378.191051 196.194472 
L 380.554295 196.07162 
L 382.917538 195.646366 
L 385.280781 195.410113 
L 387.644025 195.16441 
L 390.007268 194.776955 
L 392.370511 194.606853 
L 394.733755 194.238299 
L 397.096998 194.105998 
L 399.460241 193.992596 
L 401.823485 193.907545 
L 404.186728 193.765794 
L 406.549972 193.510641 
L 408.913215 193.41614 
L 411.276458 193.142086 
L 413.639702 192.782982 
L 416.002945 192.707381 
L 418.366188 192.490029 
L 420.729432 192.130925 
L 423.092675 191.913572 
L 425.455919 191.611169 
L 427.819162 191.620619 
L 430.182405 191.422166 
L 432.545649 191.015812 
L 434.908892 190.779559 
L 437.272135 190.609457 
L 439.635379 190.467705 
L 441.998622 190.165302 
L 444.361866 190.108601 
L 446.725109 189.881799 
L 449.088352 189.834548 
L 451.451596 189.532144 
L 453.814839 189.456544 
L 456.178082 189.465994 
L 458.541326 189.324242 
L 460.904569 188.738335 
L 463.267813 188.766686 
L 465.631056 188.558783 
L 467.994299 188.757235 
L 470.357543 188.32253 
L 472.720786 188.067377 
L 475.084029 187.972876 
L 477.447273 187.878375 
L 479.810516 187.831125 
L 482.173759 187.519271 
L 484.537003 187.377519 
" clip-path="url(#p9e2d0e7984)" style="fill: none; stroke: #006400; stroke-width: 2; stroke-linecap: square"/>
   </g>
   <g id="patch_7">
    <path d="M 335.65267 205.068125 
L 335.65267 49.094062 
" style="fill: none; stroke: #000000; stroke-width: 0.8; stroke-linejoin: miter; stroke-linecap: square"/>
   </g>
   <g id="patch_8">
    <path d="M 335.65267 205.068125 
L 491.626733 205.068125 
" style="fill: none; stroke: #000000; stroke-width: 0.8; stroke-linejoin: miter; stroke-linecap: square"/>
   </g>
   <g id="text_27">
    <!-- vRNA = 1fM -->
    <g transform="translate(380.175639 43.094062)scale(0.1 -0.1)">
     <defs>
      <path id="DejaVuSans-Bold-31" d="M 750 831 
L 1813 831 
L 1813 3847 
L 722 3622 
L 722 4441 
L 1806 4666 
L 2950 4666 
L 2950 831 
L 4013 831 
L 4013 0 
L 750 0 
L 750 831 
z
" transform="scale(0.015625)"/>
     </defs>
     <use xlink:href="#DejaVuSans-Bold-76"/>
     <use xlink:href="#DejaVuSans-Bold-52" x="65.185547"/>
     <use xlink:href="#DejaVuSans-Bold-4e" x="142.1875"/>
     <use xlink:href="#DejaVuSans-Bold-41" x="225.878906"/>
     <use xlink:href="#DejaVuSans-Bold-20" x="303.271484"/>
     <use xlink:href="#DejaVuSans-Bold-3d" x="338.085938"/>
     <use xlink:href="#DejaVuSans-Bold-20" x="421.875"/>
     <use xlink:href="#DejaVuSans-Bold-31" x="456.689453"/>
     <use xlink:href="#DejaVuSans-Bold-66" x="526.269531"/>
     <use xlink:href="#DejaVuSans-Bold-4d" x="569.775391"/>
    </g>
   </g>
   <g id="legend_2">
    <g id="patch_9">
     <path d="M 414.71267 101.128437 
L 484.626733 101.128437 
Q 486.626733 101.128437 486.626733 99.128437 
L 486.626733 56.094062 
Q 486.626733 54.094062 484.626733 54.094062 
L 414.71267 54.094062 
Q 412.71267 54.094062 412.71267 56.094062 
L 412.71267 99.128437 
Q 412.71267 101.128437 414.71267 101.128437 
z
" style="fill: #ffffff; opacity: 0.8; stroke: #cccccc; stroke-linejoin: miter"/>
    </g>
    <g id="line2d_28">
     <path d="M 416.71267 62.1925 
L 426.71267 62.1925 
L 436.71267 62.1925 
" style="fill: none; stroke: #90ee90; stroke-width: 2; stroke-linecap: square"/>
    </g>
    <g id="text_28">
     <!-- T7 1.0 -->
     <g transform="translate(444.71267 65.6925)scale(0.1 -0.1)">
      <use xlink:href="#DejaVuSans-54"/>
      <use xlink:href="#DejaVuSans-37" x="61.083984"/>
      <use xlink:href="#DejaVuSans-20" x="124.707031"/>
      <use xlink:href="#DejaVuSans-31" x="156.494141"/>
      <use xlink:href="#DejaVuSans-2e" x="220.117188"/>
      <use xlink:href="#DejaVuSans-30" x="251.904297"/>
     </g>
    </g>
    <g id="line2d_29">
     <path d="M 416.71267 76.870625 
L 426.71267 76.870625 
L 436.71267 76.870625 
" style="fill: none; stroke: #3cb371; stroke-width: 2; stroke-linecap: square"/>
    </g>
    <g id="text_29">
     <!-- T7 5.0 -->
     <g transform="translate(444.71267 80.370625)scale(0.1 -0.1)">
      <use xlink:href="#DejaVuSans-54"/>
      <use xlink:href="#DejaVuSans-37" x="61.083984"/>
      <use xlink:href="#DejaVuSans-20" x="124.707031"/>
      <use xlink:href="#DejaVuSans-35" x="156.494141"/>
      <use xlink:href="#DejaVuSans-2e" x="220.117188"/>
      <use xlink:href="#DejaVuSans-30" x="251.904297"/>
     </g>
    </g>
    <g id="line2d_30">
     <path d="M 416.71267 91.54875 
L 426.71267 91.54875 
L 436.71267 91.54875 
" style="fill: none; stroke: #006400; stroke-width: 2; stroke-linecap: square"/>
    </g>
    <g id="text_30">
     <!-- T7 20.0 -->
     <g transform="translate(444.71267 95.04875)scale(0.1 -0.1)">
      <use xlink:href="#DejaVuSans-54"/>
      <use xlink:href="#DejaVuSans-37" x="61.083984"/>
      <use xlink:href="#DejaVuSans-20" x="124.707031"/>
      <use xlink:href="#DejaVuSans-32" x="156.494141"/>
      <use xlink:href="#DejaVuSans-30" x="220.117188"/>
      <use xlink:href="#DejaVuSans-2e" x="283.740234"/>
      <use xlink:href="#DejaVuSans-30" x="315.527344"/>
     </g>
    </g>
   </g>
  </g>
  <g id="axes_3">
   <g id="patch_10">
    <path d="M 619.588466 205.068125 
L 775.562528 205.068125 
L 775.562528 49.094062 
L 619.588466 49.094062 
z
" style="fill: #ffffff"/>
   </g>
   <g id="PolyCollection_7">
    <defs>
     <path id="me54f4d85af" d="M 626.678196 -49.766007 
L 626.678196 -49.363738 
L 629.041439 -49.927961 
L 631.404683 -50.035286 
L 633.767926 -50.556705 
L 636.13117 -50.875893 
L 638.494413 -51.28432 
L 640.857656 -52.051111 
L 643.2209 -51.889418 
L 645.584143 -52.536646 
L 647.947386 -53.087772 
L 650.31063 -53.327991 
L 652.673873 -53.79201 
L 655.037116 -53.84885 
L 657.40036 -54.044056 
L 659.763603 -54.745272 
L 662.126847 -55.210065 
L 664.49009 -55.811395 
L 666.853333 -56.02358 
L 669.216577 -57.112475 
L 671.57982 -57.937099 
L 673.943063 -59.340684 
L 676.306307 -59.98116 
L 678.66955 -61.377116 
L 681.032794 -62.86716 
L 683.396037 -64.966919 
L 685.75928 -66.501597 
L 688.122524 -68.631007 
L 690.485767 -70.649026 
L 692.84901 -73.652518 
L 695.212254 -75.774738 
L 697.575497 -77.699113 
L 699.938741 -80.244568 
L 702.301984 -82.642928 
L 704.665227 -85.459472 
L 707.028471 -87.889729 
L 709.391714 -90.883405 
L 711.754957 -92.906302 
L 714.118201 -95.913389 
L 716.481444 -97.823389 
L 718.844687 -99.861967 
L 721.207931 -102.574587 
L 723.571174 -104.570591 
L 725.934418 -106.476614 
L 728.297661 -110.17404 
L 730.660904 -110.304557 
L 733.024148 -112.554297 
L 735.387391 -114.355436 
L 737.750634 -116.2866 
L 740.113878 -117.372096 
L 742.477121 -118.342753 
L 744.840365 -120.669477 
L 747.203608 -121.257168 
L 749.566851 -123.104099 
L 751.930095 -124.528795 
L 754.293338 -123.733792 
L 756.656581 -125.420033 
L 759.019825 -126.030845 
L 761.383068 -127.543418 
L 763.746312 -127.233667 
L 766.109555 -128.562678 
L 768.472798 -129.289073 
L 768.472798 -142.909983 
L 768.472798 -142.909983 
L 766.109555 -143.012671 
L 763.746312 -142.697362 
L 761.383068 -141.726103 
L 759.019825 -141.159653 
L 756.656581 -140.504149 
L 754.293338 -138.71275 
L 751.930095 -137.558643 
L 749.566851 -137.773726 
L 747.203608 -136.086315 
L 744.840365 -133.57437 
L 742.477121 -133.084961 
L 740.113878 -131.069384 
L 737.750634 -129.093044 
L 735.387391 -127.659969 
L 733.024148 -126.077969 
L 730.660904 -123.829457 
L 728.297661 -120.350031 
L 725.934418 -118.604194 
L 723.571174 -116.38997 
L 721.207931 -112.98051 
L 718.844687 -111.138178 
L 716.481444 -107.638992 
L 714.118201 -104.823936 
L 711.754957 -101.291548 
L 709.391714 -98.286986 
L 707.028471 -96.0075 
L 704.665227 -92.786592 
L 702.301984 -89.592866 
L 699.938741 -86.245559 
L 697.575497 -83.423352 
L 695.212254 -80.736073 
L 692.84901 -77.566232 
L 690.485767 -74.559454 
L 688.122524 -72.154821 
L 685.75928 -69.899381 
L 683.396037 -67.540613 
L 681.032794 -65.652426 
L 678.66955 -64.099535 
L 676.306307 -62.263553 
L 673.943063 -61.184109 
L 671.57982 -59.658161 
L 669.216577 -58.498262 
L 666.853333 -57.791635 
L 664.49009 -56.945408 
L 662.126847 -56.696228 
L 659.763603 -56.027008 
L 657.40036 -55.632012 
L 655.037116 -55.354712 
L 652.673873 -54.731144 
L 650.31063 -54.004449 
L 647.947386 -53.58316 
L 645.584143 -53.397177 
L 643.2209 -53.363998 
L 640.857656 -52.673098 
L 638.494413 -51.852271 
L 636.13117 -51.580291 
L 633.767926 -51.18127 
L 631.404683 -50.549775 
L 629.041439 -50.260196 
L 626.678196 -49.766007 
z
" style="stroke: #90ee90; stroke-opacity: 0.2"/>
    </defs>
    <g clip-path="url(#p1471825a22)">
     <use xlink:href="#me54f4d85af" x="0" y="250.56" style="fill: #90ee90; fill-opacity: 0.2; stroke: #90ee90; stroke-opacity: 0.2"/>
    </g>
   </g>
   <g id="PolyCollection_8">
    <defs>
     <path id="m918f9dbbcf" d="M 626.678196 -50.23538 
L 626.678196 -49.045566 
L 629.041439 -49.383932 
L 631.404683 -49.708598 
L 633.767926 -50.209212 
L 636.13117 -50.466 
L 638.494413 -50.728515 
L 640.857656 -51.259246 
L 643.2209 -51.540598 
L 645.584143 -51.791023 
L 647.947386 -52.357094 
L 650.31063 -52.561871 
L 652.673873 -52.874584 
L 655.037116 -53.538519 
L 657.40036 -53.587429 
L 659.763603 -54.226865 
L 662.126847 -54.489045 
L 664.49009 -54.843916 
L 666.853333 -55.245454 
L 669.216577 -55.708697 
L 671.57982 -56.422132 
L 673.943063 -57.079196 
L 676.306307 -57.858332 
L 678.66955 -58.330896 
L 681.032794 -59.033489 
L 683.396037 -60.288604 
L 685.75928 -61.118216 
L 688.122524 -62.194656 
L 690.485767 -62.865219 
L 692.84901 -63.769427 
L 695.212254 -64.992712 
L 697.575497 -65.849017 
L 699.938741 -66.674601 
L 702.301984 -67.688609 
L 704.665227 -67.690183 
L 707.028471 -68.787212 
L 709.391714 -69.242429 
L 711.754957 -69.482131 
L 714.118201 -69.96795 
L 716.481444 -70.407055 
L 718.844687 -70.696881 
L 721.207931 -70.92075 
L 723.571174 -70.656978 
L 725.934418 -71.366475 
L 728.297661 -71.401373 
L 730.660904 -71.751573 
L 733.024148 -71.861056 
L 735.387391 -71.786522 
L 737.750634 -72.192415 
L 740.113878 -72.590027 
L 742.477121 -73.030983 
L 744.840365 -72.85678 
L 747.203608 -72.775011 
L 749.566851 -73.488464 
L 751.930095 -73.398719 
L 754.293338 -73.490748 
L 756.656581 -73.523209 
L 759.019825 -73.719205 
L 761.383068 -73.725247 
L 763.746312 -73.905145 
L 766.109555 -73.684361 
L 768.472798 -74.121375 
L 768.472798 -76.908373 
L 768.472798 -76.908373 
L 766.109555 -76.097972 
L 763.746312 -76.217392 
L 761.383068 -76.264989 
L 759.019825 -75.533922 
L 756.656581 -75.88112 
L 754.293338 -75.970281 
L 751.930095 -75.533105 
L 749.566851 -74.781852 
L 747.203608 -74.909398 
L 744.840365 -74.260622 
L 742.477121 -74.710127 
L 740.113878 -74.376173 
L 737.750634 -73.961076 
L 735.387391 -73.913364 
L 733.024148 -73.630928 
L 730.660904 -73.948312 
L 728.297661 -73.353502 
L 725.934418 -73.161598 
L 723.571174 -72.64258 
L 721.207931 -72.681212 
L 718.844687 -72.980681 
L 716.481444 -72.363296 
L 714.118201 -71.195883 
L 711.754957 -71.360398 
L 709.391714 -71.373298 
L 707.028471 -70.864603 
L 704.665227 -70.128311 
L 702.301984 -69.73298 
L 699.938741 -69.386173 
L 697.575497 -68.850941 
L 695.212254 -67.53372 
L 692.84901 -66.60238 
L 690.485767 -65.578766 
L 688.122524 -64.907414 
L 685.75928 -63.753628 
L 683.396037 -62.749918 
L 681.032794 -61.755908 
L 678.66955 -60.568478 
L 676.306307 -59.415623 
L 673.943063 -59.060747 
L 671.57982 -57.92229 
L 669.216577 -57.274909 
L 666.853333 -56.585238 
L 664.49009 -56.174067 
L 662.126847 -55.829629 
L 659.763603 -55.033397 
L 657.40036 -54.822324 
L 655.037116 -54.077424 
L 652.673873 -54.023151 
L 650.31063 -53.579855 
L 647.947386 -53.217625 
L 645.584143 -52.649684 
L 643.2209 -52.087399 
L 640.857656 -51.574942 
L 638.494413 -51.425265 
L 636.13117 -50.648267 
L 633.767926 -50.41365 
L 631.404683 -50.385057 
L 629.041439 -50.671923 
L 626.678196 -50.23538 
z
" style="stroke: #3cb371; stroke-opacity: 0.2"/>
    </defs>
    <g clip-path="url(#p1471825a22)">
     <use xlink:href="#m918f9dbbcf" x="0" y="250.56" style="fill: #3cb371; fill-opacity: 0.2; stroke: #3cb371; stroke-opacity: 0.2"/>
    </g>
   </g>
   <g id="PolyCollection_9">
    <defs>
     <path id="m6c38469f33" d="M 626.678196 -49.444112 
L 626.678196 -48.929624 
L 629.041439 -49.252464 
L 631.404683 -49.7905 
L 633.767926 -50.166651 
L 636.13117 -50.37711 
L 638.494413 -50.75722 
L 640.857656 -51.174999 
L 643.2209 -51.826761 
L 645.584143 -52.077196 
L 647.947386 -52.494727 
L 650.31063 -52.999885 
L 652.673873 -53.167085 
L 655.037116 -53.741034 
L 657.40036 -54.305064 
L 659.763603 -54.330406 
L 662.126847 -54.701571 
L 664.49009 -54.89218 
L 666.853333 -55.342818 
L 669.216577 -55.801756 
L 671.57982 -55.87451 
L 673.943063 -56.157313 
L 676.306307 -56.475369 
L 678.66955 -56.99507 
L 681.032794 -57.22534 
L 683.396037 -57.451171 
L 685.75928 -57.832838 
L 688.122524 -57.79114 
L 690.485767 -57.872363 
L 692.84901 -58.214182 
L 695.212254 -58.411183 
L 697.575497 -58.430156 
L 699.938741 -59.094195 
L 702.301984 -59.20716 
L 704.665227 -59.867962 
L 707.028471 -59.552388 
L 709.391714 -60.039246 
L 711.754957 -60.464005 
L 714.118201 -60.681377 
L 716.481444 -61.154788 
L 718.844687 -61.064348 
L 721.207931 -61.25887 
L 723.571174 -61.3476 
L 725.934418 -61.305063 
L 728.297661 -61.687874 
L 730.660904 -61.972327 
L 733.024148 -62.88544 
L 735.387391 -62.43418 
L 737.750634 -62.719078 
L 740.113878 -62.494716 
L 742.477121 -63.296804 
L 744.840365 -63.330482 
L 747.203608 -63.551633 
L 749.566851 -63.464724 
L 751.930095 -63.670039 
L 754.293338 -63.868871 
L 756.656581 -63.810344 
L 759.019825 -64.313002 
L 761.383068 -63.884153 
L 763.746312 -64.352687 
L 766.109555 -64.876992 
L 768.472798 -65.30029 
L 768.472798 -66.659136 
L 768.472798 -66.659136 
L 766.109555 -66.969033 
L 763.746312 -67.020833 
L 761.383068 -66.638856 
L 759.019825 -66.285609 
L 756.656581 -66.126759 
L 754.293338 -65.803629 
L 751.930095 -65.832359 
L 749.566851 -66.018773 
L 747.203608 -65.043554 
L 744.840365 -64.924501 
L 742.477121 -64.844777 
L 740.113878 -64.966458 
L 737.750634 -64.779896 
L 735.387391 -64.384386 
L 733.024148 -64.178829 
L 730.660904 -63.957929 
L 728.297661 -64.147881 
L 725.934418 -63.51008 
L 723.571174 -63.354141 
L 721.207931 -62.781364 
L 718.844687 -62.635682 
L 716.481444 -62.091637 
L 714.118201 -62.224844 
L 711.754957 -61.98861 
L 709.391714 -61.60066 
L 707.028471 -61.482711 
L 704.665227 -61.167137 
L 702.301984 -60.750627 
L 699.938741 -60.598989 
L 697.575497 -60.412518 
L 695.212254 -59.562081 
L 692.84901 -59.664581 
L 690.485767 -59.458293 
L 688.122524 -59.06701 
L 685.75928 -58.949712 
L 683.396037 -59.047876 
L 681.032794 -58.404296 
L 678.66955 -58.02976 
L 676.306307 -57.812351 
L 673.943063 -57.714603 
L 671.57982 -57.260297 
L 669.216577 -57.21965 
L 666.853333 -56.99818 
L 664.49009 -56.258105 
L 662.126847 -56.16521 
L 659.763603 -55.761466 
L 657.40036 -55.163101 
L 655.037116 -54.76322 
L 652.673873 -54.411058 
L 650.31063 -53.652148 
L 647.947386 -53.609199 
L 645.584143 -52.968317 
L 643.2209 -52.254841 
L 640.857656 -51.715889 
L 638.494413 -51.302058 
L 636.13117 -50.94506 
L 633.767926 -50.494012 
L 631.404683 -50.019653 
L 629.041439 -49.574877 
L 626.678196 -49.444112 
z
" style="stroke: #006400; stroke-opacity: 0.2"/>
    </defs>
    <g clip-path="url(#p1471825a22)">
     <use xlink:href="#m6c38469f33" x="0" y="250.56" style="fill: #006400; fill-opacity: 0.2; stroke: #006400; stroke-opacity: 0.2"/>
    </g>
   </g>
   <g id="matplotlib.axis_5">
    <g id="xtick_7">
     <g id="line2d_31">
      <g>
       <use xlink:href="#m9890f8cea6" x="626.678196" y="205.068125" style="stroke: #000000; stroke-width: 0.8"/>
      </g>
     </g>
     <g id="text_31">
      <!-- 0 -->
      <g transform="translate(623.496946 219.666562)scale(0.1 -0.1)">
       <use xlink:href="#DejaVuSans-30"/>
      </g>
     </g>
    </g>
    <g id="xtick_8">
     <g id="line2d_32">
      <g>
       <use xlink:href="#m9890f8cea6" x="685.75928" y="205.068125" style="stroke: #000000; stroke-width: 0.8"/>
      </g>
     </g>
     <g id="text_32">
      <!-- 100 -->
      <g transform="translate(676.21553 219.666562)scale(0.1 -0.1)">
       <use xlink:href="#DejaVuSans-31"/>
       <use xlink:href="#DejaVuSans-30" x="63.623047"/>
       <use xlink:href="#DejaVuSans-30" x="127.246094"/>
      </g>
     </g>
    </g>
    <g id="xtick_9">
     <g id="line2d_33">
      <g>
       <use xlink:href="#m9890f8cea6" x="744.840365" y="205.068125" style="stroke: #000000; stroke-width: 0.8"/>
      </g>
     </g>
     <g id="text_33">
      <!-- 200 -->
      <g transform="translate(735.296615 219.666562)scale(0.1 -0.1)">
       <use xlink:href="#DejaVuSans-32"/>
       <use xlink:href="#DejaVuSans-30" x="63.623047"/>
       <use xlink:href="#DejaVuSans-30" x="127.246094"/>
      </g>
     </g>
    </g>
    <g id="text_34">
     <!-- Time (min) -->
     <g transform="translate(664.992685 240.864375)scale(0.12 -0.12)">
      <use xlink:href="#DejaVuSans-54"/>
      <use xlink:href="#DejaVuSans-69" x="57.958984"/>
      <use xlink:href="#DejaVuSans-6d" x="85.742188"/>
      <use xlink:href="#DejaVuSans-65" x="183.154297"/>
      <use xlink:href="#DejaVuSans-20" x="244.677734"/>
      <use xlink:href="#DejaVuSans-28" x="276.464844"/>
      <use xlink:href="#DejaVuSans-6d" x="315.478516"/>
      <use xlink:href="#DejaVuSans-69" x="412.890625"/>
      <use xlink:href="#DejaVuSans-6e" x="440.673828"/>
      <use xlink:href="#DejaVuSans-29" x="504.052734"/>
     </g>
    </g>
   </g>
   <g id="matplotlib.axis_6">
    <g id="ytick_13">
     <g id="line2d_34">
      <g>
       <use xlink:href="#mfef197abf5" x="619.588466" y="205.068125" style="stroke: #000000; stroke-width: 0.8"/>
      </g>
     </g>
     <g id="text_35">
      <!-- 0.0 -->
      <g transform="translate(596.685341 208.867344)scale(0.1 -0.1)">
       <use xlink:href="#DejaVuSans-30"/>
       <use xlink:href="#DejaVuSans-2e" x="63.623047"/>
       <use xlink:href="#DejaVuSans-30" x="95.410156"/>
      </g>
     </g>
    </g>
    <g id="ytick_14">
     <g id="line2d_35">
      <g>
       <use xlink:href="#mfef197abf5" x="619.588466" y="173.873312" style="stroke: #000000; stroke-width: 0.8"/>
      </g>
     </g>
     <g id="text_36">
      <!-- 0.2 -->
      <g transform="translate(596.685341 177.672531)scale(0.1 -0.1)">
       <use xlink:href="#DejaVuSans-30"/>
       <use xlink:href="#DejaVuSans-2e" x="63.623047"/>
       <use xlink:href="#DejaVuSans-32" x="95.410156"/>
      </g>
     </g>
    </g>
    <g id="ytick_15">
     <g id="line2d_36">
      <g>
       <use xlink:href="#mfef197abf5" x="619.588466" y="142.6785" style="stroke: #000000; stroke-width: 0.8"/>
      </g>
     </g>
     <g id="text_37">
      <!-- 0.4 -->
      <g transform="translate(596.685341 146.477719)scale(0.1 -0.1)">
       <use xlink:href="#DejaVuSans-30"/>
       <use xlink:href="#DejaVuSans-2e" x="63.623047"/>
       <use xlink:href="#DejaVuSans-34" x="95.410156"/>
      </g>
     </g>
    </g>
    <g id="ytick_16">
     <g id="line2d_37">
      <g>
       <use xlink:href="#mfef197abf5" x="619.588466" y="111.483687" style="stroke: #000000; stroke-width: 0.8"/>
      </g>
     </g>
     <g id="text_38">
      <!-- 0.6 -->
      <g transform="translate(596.685341 115.282906)scale(0.1 -0.1)">
       <use xlink:href="#DejaVuSans-30"/>
       <use xlink:href="#DejaVuSans-2e" x="63.623047"/>
       <use xlink:href="#DejaVuSans-36" x="95.410156"/>
      </g>
     </g>
    </g>
    <g id="ytick_17">
     <g id="line2d_38">
      <g>
       <use xlink:href="#mfef197abf5" x="619.588466" y="80.288875" style="stroke: #000000; stroke-width: 0.8"/>
      </g>
     </g>
     <g id="text_39">
      <!-- 0.8 -->
      <g transform="translate(596.685341 84.088094)scale(0.1 -0.1)">
       <use xlink:href="#DejaVuSans-30"/>
       <use xlink:href="#DejaVuSans-2e" x="63.623047"/>
       <use xlink:href="#DejaVuSans-38" x="95.410156"/>
      </g>
     </g>
    </g>
    <g id="ytick_18">
     <g id="line2d_39">
      <g>
       <use xlink:href="#mfef197abf5" x="619.588466" y="49.094062" style="stroke: #000000; stroke-width: 0.8"/>
      </g>
     </g>
     <g id="text_40">
      <!-- 1.0 -->
      <g transform="translate(596.685341 52.893281)scale(0.1 -0.1)">
       <use xlink:href="#DejaVuSans-31"/>
       <use xlink:href="#DejaVuSans-2e" x="63.623047"/>
       <use xlink:href="#DejaVuSans-30" x="95.410156"/>
      </g>
     </g>
    </g>
   </g>
   <g id="line2d_40">
    <path d="M 626.678196 200.995128 
L 629.041439 200.465922 
L 631.404683 200.267469 
L 633.767926 199.691013 
L 636.13117 199.331908 
L 638.494413 198.991704 
L 640.857656 198.197895 
L 643.2209 197.933292 
L 645.584143 197.593088 
L 647.947386 197.224534 
L 650.31063 196.89378 
L 652.673873 196.298423 
L 655.037116 195.958219 
L 657.40036 195.721966 
L 659.763603 195.17386 
L 662.126847 194.606853 
L 664.49009 194.181598 
L 666.853333 193.652392 
L 669.216577 192.754632 
L 671.57982 191.76237 
L 673.943063 190.297603 
L 676.306307 189.437643 
L 678.66955 187.821675 
L 681.032794 186.300207 
L 683.396037 184.306234 
L 685.75928 182.359511 
L 688.122524 180.167086 
L 690.485767 177.95576 
L 692.84901 174.950625 
L 695.212254 172.304594 
L 697.575497 169.998767 
L 699.938741 167.314936 
L 702.301984 164.442103 
L 704.665227 161.436968 
L 707.028471 158.611385 
L 709.391714 155.974805 
L 711.754957 153.461075 
L 714.118201 150.191337 
L 716.481444 147.82881 
L 718.844687 145.059928 
L 721.207931 142.782451 
L 723.571174 140.07972 
L 725.934418 138.019596 
L 728.297661 135.297964 
L 730.660904 133.492993 
L 733.024148 131.243867 
L 735.387391 129.552297 
L 737.750634 127.870178 
L 740.113878 126.33926 
L 742.477121 124.846143 
L 744.840365 123.438076 
L 747.203608 121.888258 
L 749.566851 120.121088 
L 751.930095 119.516281 
L 754.293338 119.336729 
L 756.656581 117.597909 
L 759.019825 116.964751 
L 761.383068 115.925239 
L 763.746312 115.594485 
L 766.109555 114.772326 
L 768.472798 114.460472 
" clip-path="url(#p1471825a22)" style="fill: none; stroke: #90ee90; stroke-width: 2; stroke-linecap: square"/>
   </g>
   <g id="line2d_41">
    <path d="M 626.678196 200.919527 
L 629.041439 200.532072 
L 631.404683 200.513172 
L 633.767926 200.248569 
L 636.13117 200.002866 
L 638.494413 199.48311 
L 640.857656 199.142906 
L 643.2209 198.746002 
L 645.584143 198.339647 
L 647.947386 197.77264 
L 650.31063 197.489137 
L 652.673873 197.111133 
L 655.037116 196.752028 
L 657.40036 196.355124 
L 659.763603 195.929869 
L 662.126847 195.400663 
L 664.49009 195.051009 
L 666.853333 194.644654 
L 669.216577 194.068197 
L 671.57982 193.387789 
L 673.943063 192.490029 
L 676.306307 191.923022 
L 678.66955 191.110313 
L 681.032794 190.165302 
L 683.396037 189.040739 
L 685.75928 188.124078 
L 688.122524 187.008965 
L 690.485767 186.338007 
L 692.84901 185.374096 
L 695.212254 184.296784 
L 697.575497 183.210021 
L 699.938741 182.529613 
L 702.301984 181.849205 
L 704.665227 181.650753 
L 707.028471 180.734092 
L 709.391714 180.252137 
L 711.754957 180.138735 
L 714.118201 179.978083 
L 716.481444 179.174824 
L 718.844687 178.721219 
L 721.207931 178.759019 
L 723.571174 178.910221 
L 725.934418 178.295964 
L 728.297661 178.182563 
L 730.660904 177.710057 
L 733.024148 177.814008 
L 735.387391 177.710057 
L 737.750634 177.483254 
L 740.113878 177.0769 
L 742.477121 176.689445 
L 744.840365 177.001299 
L 747.203608 176.717796 
L 749.566851 176.424842 
L 751.930095 176.094088 
L 754.293338 175.829485 
L 756.656581 175.857836 
L 759.019825 175.933436 
L 761.383068 175.564882 
L 763.746312 175.498731 
L 766.109555 175.668833 
L 768.472798 175.045126 
" clip-path="url(#p1471825a22)" style="fill: none; stroke: #3cb371; stroke-width: 2; stroke-linecap: square"/>
   </g>
   <g id="line2d_42">
    <path d="M 626.678196 201.373132 
L 629.041439 201.146329 
L 631.404683 200.654924 
L 633.767926 200.229669 
L 636.13117 199.898915 
L 638.494413 199.530361 
L 640.857656 199.114556 
L 643.2209 198.519199 
L 645.584143 198.037243 
L 647.947386 197.508037 
L 650.31063 197.233984 
L 652.673873 196.770929 
L 655.037116 196.307873 
L 657.40036 195.825918 
L 659.763603 195.514064 
L 662.126847 195.126609 
L 664.49009 194.984858 
L 666.853333 194.389501 
L 669.216577 194.049297 
L 671.57982 193.992596 
L 673.943063 193.624042 
L 676.306307 193.41614 
L 678.66955 193.047585 
L 681.032794 192.745182 
L 683.396037 192.310477 
L 685.75928 192.168725 
L 688.122524 192.130925 
L 690.485767 191.894672 
L 692.84901 191.620619 
L 695.212254 191.573368 
L 697.575497 191.138663 
L 699.938741 190.713408 
L 702.301984 190.581107 
L 704.665227 190.04245 
L 707.028471 190.04245 
L 709.391714 189.740047 
L 711.754957 189.333692 
L 714.118201 189.10689 
L 716.481444 188.936788 
L 718.844687 188.709985 
L 721.207931 188.539883 
L 723.571174 188.209129 
L 725.934418 188.152428 
L 728.297661 187.642123 
L 730.660904 187.594872 
L 733.024148 187.027865 
L 735.387391 187.150717 
L 737.750634 186.810513 
L 740.113878 186.829413 
L 742.477121 186.489209 
L 744.840365 186.432508 
L 747.203608 186.262406 
L 749.566851 185.818251 
L 751.930095 185.808801 
L 754.293338 185.72375 
L 756.656581 185.591449 
L 759.019825 185.260695 
L 761.383068 185.298495 
L 763.746312 184.87324 
L 766.109555 184.636988 
L 768.472798 184.580287 
" clip-path="url(#p1471825a22)" style="fill: none; stroke: #006400; stroke-width: 2; stroke-linecap: square"/>
   </g>
   <g id="patch_11">
    <path d="M 619.588466 205.068125 
L 619.588466 49.094062 
" style="fill: none; stroke: #000000; stroke-width: 0.8; stroke-linejoin: miter; stroke-linecap: square"/>
   </g>
   <g id="patch_12">
    <path d="M 619.588466 205.068125 
L 775.562528 205.068125 
" style="fill: none; stroke: #000000; stroke-width: 0.8; stroke-linejoin: miter; stroke-linecap: square"/>
   </g>
   <g id="text_41">
    <!-- vRNA = 10fM -->
    <g transform="translate(660.632528 43.094062)scale(0.1 -0.1)">
     <use xlink:href="#DejaVuSans-Bold-76"/>
     <use xlink:href="#DejaVuSans-Bold-52" x="65.185547"/>
     <use xlink:href="#DejaVuSans-Bold-4e" x="142.1875"/>
     <use xlink:href="#DejaVuSans-Bold-41" x="225.878906"/>
     <use xlink:href="#DejaVuSans-Bold-20" x="303.271484"/>
     <use xlink:href="#DejaVuSans-Bold-3d" x="338.085938"/>
     <use xlink:href="#DejaVuSans-Bold-20" x="421.875"/>
     <use xlink:href="#DejaVuSans-Bold-31" x="456.689453"/>
     <use xlink:href="#DejaVuSans-Bold-30" x="526.269531"/>
     <use xlink:href="#DejaVuSans-Bold-66" x="595.849609"/>
     <use xlink:href="#DejaVuSans-Bold-4d" x="639.355469"/>
    </g>
   </g>
   <g id="legend_3">
    <g id="patch_13">
     <path d="M 698.648466 101.128437 
L 768.562528 101.128437 
Q 770.562528 101.128437 770.562528 99.128437 
L 770.562528 56.094062 
Q 770.562528 54.094062 768.562528 54.094062 
L 698.648466 54.094062 
Q 696.648466 54.094062 696.648466 56.094062 
L 696.648466 99.128437 
Q 696.648466 101.128437 698.648466 101.128437 
z
" style="fill: #ffffff; opacity: 0.8; stroke: #cccccc; stroke-linejoin: miter"/>
    </g>
    <g id="line2d_43">
     <path d="M 700.648466 62.1925 
L 710.648466 62.1925 
L 720.648466 62.1925 
" style="fill: none; stroke: #90ee90; stroke-width: 2; stroke-linecap: square"/>
    </g>
    <g id="text_42">
     <!-- T7 1.0 -->
     <g transform="translate(728.648466 65.6925)scale(0.1 -0.1)">
      <use xlink:href="#DejaVuSans-54"/>
      <use xlink:href="#DejaVuSans-37" x="61.083984"/>
      <use xlink:href="#DejaVuSans-20" x="124.707031"/>
      <use xlink:href="#DejaVuSans-31" x="156.494141"/>
      <use xlink:href="#DejaVuSans-2e" x="220.117188"/>
      <use xlink:href="#DejaVuSans-30" x="251.904297"/>
     </g>
    </g>
    <g id="line2d_44">
     <path d="M 700.648466 76.870625 
L 710.648466 76.870625 
L 720.648466 76.870625 
" style="fill: none; stroke: #3cb371; stroke-width: 2; stroke-linecap: square"/>
    </g>
    <g id="text_43">
     <!-- T7 5.0 -->
     <g transform="translate(728.648466 80.370625)scale(0.1 -0.1)">
      <use xlink:href="#DejaVuSans-54"/>
      <use xlink:href="#DejaVuSans-37" x="61.083984"/>
      <use xlink:href="#DejaVuSans-20" x="124.707031"/>
      <use xlink:href="#DejaVuSans-35" x="156.494141"/>
      <use xlink:href="#DejaVuSans-2e" x="220.117188"/>
      <use xlink:href="#DejaVuSans-30" x="251.904297"/>
     </g>
    </g>
    <g id="line2d_45">
     <path d="M 700.648466 91.54875 
L 710.648466 91.54875 
L 720.648466 91.54875 
" style="fill: none; stroke: #006400; stroke-width: 2; stroke-linecap: square"/>
    </g>
    <g id="text_44">
     <!-- T7 20.0 -->
     <g transform="translate(728.648466 95.04875)scale(0.1 -0.1)">
      <use xlink:href="#DejaVuSans-54"/>
      <use xlink:href="#DejaVuSans-37" x="61.083984"/>
      <use xlink:href="#DejaVuSans-20" x="124.707031"/>
      <use xlink:href="#DejaVuSans-32" x="156.494141"/>
      <use xlink:href="#DejaVuSans-30" x="220.117188"/>
      <use xlink:href="#DejaVuSans-2e" x="283.740234"/>
      <use xlink:href="#DejaVuSans-30" x="315.527344"/>
     </g>
    </g>
   </g>
  </g>
  <g id="text_45">
   <!-- T7_Sweep_Cas13=4.5 rep2 -->
   <g transform="translate(305.946889 16.10625)scale(0.12 -0.12)">
    <defs>
     <path id="DejaVuSans-Bold-54" d="M 31 4666 
L 4331 4666 
L 4331 3756 
L 2784 3756 
L 2784 0 
L 1581 0 
L 1581 3756 
L 31 3756 
L 31 4666 
z
" transform="scale(0.015625)"/>
     <path id="DejaVuSans-Bold-37" d="M 428 4666 
L 3944 4666 
L 3944 3988 
L 2125 0 
L 953 0 
L 2675 3781 
L 428 3781 
L 428 4666 
z
" transform="scale(0.015625)"/>
     <path id="DejaVuSans-Bold-5f" d="M 3200 -916 
L 3200 -1509 
L 0 -1509 
L 0 -916 
L 3200 -916 
z
" transform="scale(0.015625)"/>
     <path id="DejaVuSans-Bold-53" d="M 3834 4519 
L 3834 3531 
Q 3450 3703 3084 3790 
Q 2719 3878 2394 3878 
Q 1963 3878 1756 3759 
Q 1550 3641 1550 3391 
Q 1550 3203 1689 3098 
Q 1828 2994 2194 2919 
L 2706 2816 
Q 3484 2659 3812 2340 
Q 4141 2022 4141 1434 
Q 4141 663 3683 286 
Q 3225 -91 2284 -91 
Q 1841 -91 1394 -6 
Q 947 78 500 244 
L 500 1259 
Q 947 1022 1364 901 
Q 1781 781 2169 781 
Q 2563 781 2772 912 
Q 2981 1044 2981 1288 
Q 2981 1506 2839 1625 
Q 2697 1744 2272 1838 
L 1806 1941 
Q 1106 2091 782 2419 
Q 459 2747 459 3303 
Q 459 4000 909 4375 
Q 1359 4750 2203 4750 
Q 2588 4750 2994 4692 
Q 3400 4634 3834 4519 
z
" transform="scale(0.015625)"/>
     <path id="DejaVuSans-Bold-77" d="M 225 3500 
L 1313 3500 
L 1900 1088 
L 2491 3500 
L 3425 3500 
L 4013 1113 
L 4603 3500 
L 5691 3500 
L 4769 0 
L 3547 0 
L 2956 2406 
L 2369 0 
L 1147 0 
L 225 3500 
z
" transform="scale(0.015625)"/>
     <path id="DejaVuSans-Bold-65" d="M 4031 1759 
L 4031 1441 
L 1416 1441 
Q 1456 1047 1700 850 
Q 1944 653 2381 653 
Q 2734 653 3104 758 
Q 3475 863 3866 1075 
L 3866 213 
Q 3469 63 3072 -14 
Q 2675 -91 2278 -91 
Q 1328 -91 801 392 
Q 275 875 275 1747 
Q 275 2603 792 3093 
Q 1309 3584 2216 3584 
Q 3041 3584 3536 3087 
Q 4031 2591 4031 1759 
z
M 2881 2131 
Q 2881 2450 2695 2645 
Q 2509 2841 2209 2841 
Q 1884 2841 1681 2658 
Q 1478 2475 1428 2131 
L 2881 2131 
z
" transform="scale(0.015625)"/>
     <path id="DejaVuSans-Bold-70" d="M 1656 506 
L 1656 -1331 
L 538 -1331 
L 538 3500 
L 1656 3500 
L 1656 2988 
Q 1888 3294 2169 3439 
Q 2450 3584 2816 3584 
Q 3463 3584 3878 3070 
Q 4294 2556 4294 1747 
Q 4294 938 3878 423 
Q 3463 -91 2816 -91 
Q 2450 -91 2169 54 
Q 1888 200 1656 506 
z
M 2400 2772 
Q 2041 2772 1848 2508 
Q 1656 2244 1656 1747 
Q 1656 1250 1848 986 
Q 2041 722 2400 722 
Q 2759 722 2948 984 
Q 3138 1247 3138 1747 
Q 3138 2247 2948 2509 
Q 2759 2772 2400 2772 
z
" transform="scale(0.015625)"/>
     <path id="DejaVuSans-Bold-43" d="M 4288 256 
Q 3956 84 3597 -3 
Q 3238 -91 2847 -91 
Q 1681 -91 1000 561 
Q 319 1213 319 2328 
Q 319 3447 1000 4098 
Q 1681 4750 2847 4750 
Q 3238 4750 3597 4662 
Q 3956 4575 4288 4403 
L 4288 3438 
Q 3953 3666 3628 3772 
Q 3303 3878 2944 3878 
Q 2300 3878 1931 3465 
Q 1563 3053 1563 2328 
Q 1563 1606 1931 1193 
Q 2300 781 2944 781 
Q 3303 781 3628 887 
Q 3953 994 4288 1222 
L 4288 256 
z
" transform="scale(0.015625)"/>
     <path id="DejaVuSans-Bold-61" d="M 2106 1575 
Q 1756 1575 1579 1456 
Q 1403 1338 1403 1106 
Q 1403 894 1545 773 
Q 1688 653 1941 653 
Q 2256 653 2472 879 
Q 2688 1106 2688 1447 
L 2688 1575 
L 2106 1575 
z
M 3816 1997 
L 3816 0 
L 2688 0 
L 2688 519 
Q 2463 200 2181 54 
Q 1900 -91 1497 -91 
Q 953 -91 614 226 
Q 275 544 275 1050 
Q 275 1666 698 1953 
Q 1122 2241 2028 2241 
L 2688 2241 
L 2688 2328 
Q 2688 2594 2478 2717 
Q 2269 2841 1825 2841 
Q 1466 2841 1156 2769 
Q 847 2697 581 2553 
L 581 3406 
Q 941 3494 1303 3539 
Q 1666 3584 2028 3584 
Q 2975 3584 3395 3211 
Q 3816 2838 3816 1997 
z
" transform="scale(0.015625)"/>
     <path id="DejaVuSans-Bold-73" d="M 3272 3391 
L 3272 2541 
Q 2913 2691 2578 2766 
Q 2244 2841 1947 2841 
Q 1628 2841 1473 2761 
Q 1319 2681 1319 2516 
Q 1319 2381 1436 2309 
Q 1553 2238 1856 2203 
L 2053 2175 
Q 2913 2066 3209 1816 
Q 3506 1566 3506 1031 
Q 3506 472 3093 190 
Q 2681 -91 1863 -91 
Q 1516 -91 1145 -36 
Q 775 19 384 128 
L 384 978 
Q 719 816 1070 734 
Q 1422 653 1784 653 
Q 2113 653 2278 743 
Q 2444 834 2444 1013 
Q 2444 1163 2330 1236 
Q 2216 1309 1875 1350 
L 1678 1375 
Q 931 1469 631 1722 
Q 331 1975 331 2491 
Q 331 3047 712 3315 
Q 1094 3584 1881 3584 
Q 2191 3584 2531 3537 
Q 2872 3491 3272 3391 
z
" transform="scale(0.015625)"/>
     <path id="DejaVuSans-Bold-33" d="M 2981 2516 
Q 3453 2394 3698 2092 
Q 3944 1791 3944 1325 
Q 3944 631 3412 270 
Q 2881 -91 1863 -91 
Q 1503 -91 1142 -33 
Q 781 25 428 141 
L 428 1069 
Q 766 900 1098 814 
Q 1431 728 1753 728 
Q 2231 728 2486 893 
Q 2741 1059 2741 1369 
Q 2741 1688 2480 1852 
Q 2219 2016 1709 2016 
L 1228 2016 
L 1228 2791 
L 1734 2791 
Q 2188 2791 2409 2933 
Q 2631 3075 2631 3366 
Q 2631 3634 2415 3781 
Q 2200 3928 1806 3928 
Q 1516 3928 1219 3862 
Q 922 3797 628 3669 
L 628 4550 
Q 984 4650 1334 4700 
Q 1684 4750 2022 4750 
Q 2931 4750 3382 4451 
Q 3834 4153 3834 3553 
Q 3834 3144 3618 2883 
Q 3403 2622 2981 2516 
z
" transform="scale(0.015625)"/>
     <path id="DejaVuSans-Bold-34" d="M 2356 3675 
L 1038 1722 
L 2356 1722 
L 2356 3675 
z
M 2156 4666 
L 3494 4666 
L 3494 1722 
L 4159 1722 
L 4159 850 
L 3494 850 
L 3494 0 
L 2356 0 
L 2356 850 
L 288 850 
L 288 1881 
L 2156 4666 
z
" transform="scale(0.015625)"/>
     <path id="DejaVuSans-Bold-2e" d="M 653 1209 
L 1778 1209 
L 1778 0 
L 653 0 
L 653 1209 
z
" transform="scale(0.015625)"/>
     <path id="DejaVuSans-Bold-35" d="M 678 4666 
L 3669 4666 
L 3669 3781 
L 1638 3781 
L 1638 3059 
Q 1775 3097 1914 3117 
Q 2053 3138 2203 3138 
Q 3056 3138 3531 2711 
Q 4006 2284 4006 1522 
Q 4006 766 3489 337 
Q 2972 -91 2053 -91 
Q 1656 -91 1267 -14 
Q 878 63 494 219 
L 494 1166 
Q 875 947 1217 837 
Q 1559 728 1863 728 
Q 2300 728 2551 942 
Q 2803 1156 2803 1522 
Q 2803 1891 2551 2103 
Q 2300 2316 1863 2316 
Q 1603 2316 1309 2248 
Q 1016 2181 678 2041 
L 678 4666 
z
" transform="scale(0.015625)"/>
     <path id="DejaVuSans-Bold-72" d="M 3138 2547 
Q 2991 2616 2845 2648 
Q 2700 2681 2553 2681 
Q 2122 2681 1889 2404 
Q 1656 2128 1656 1613 
L 1656 0 
L 538 0 
L 538 3500 
L 1656 3500 
L 1656 2925 
Q 1872 3269 2151 3426 
Q 2431 3584 2822 3584 
Q 2878 3584 2943 3579 
Q 3009 3575 3134 3559 
L 3138 2547 
z
" transform="scale(0.015625)"/>
     <path id="DejaVuSans-Bold-32" d="M 1844 884 
L 3897 884 
L 3897 0 
L 506 0 
L 506 884 
L 2209 2388 
Q 2438 2594 2547 2791 
Q 2656 2988 2656 3200 
Q 2656 3528 2436 3728 
Q 2216 3928 1850 3928 
Q 1569 3928 1234 3808 
Q 900 3688 519 3450 
L 519 4475 
Q 925 4609 1322 4679 
Q 1719 4750 2100 4750 
Q 2938 4750 3402 4381 
Q 3866 4013 3866 3353 
Q 3866 2972 3669 2642 
Q 3472 2313 2841 1759 
L 1844 884 
z
" transform="scale(0.015625)"/>
    </defs>
    <use xlink:href="#DejaVuSans-Bold-54"/>
    <use xlink:href="#DejaVuSans-Bold-37" x="68.212891"/>
    <use xlink:href="#DejaVuSans-Bold-5f" x="137.792969"/>
    <use xlink:href="#DejaVuSans-Bold-53" x="187.792969"/>
    <use xlink:href="#DejaVuSans-Bold-77" x="259.814453"/>
    <use xlink:href="#DejaVuSans-Bold-65" x="352.197266"/>
    <use xlink:href="#DejaVuSans-Bold-65" x="420.019531"/>
    <use xlink:href="#DejaVuSans-Bold-70" x="487.841797"/>
    <use xlink:href="#DejaVuSans-Bold-5f" x="559.423828"/>
    <use xlink:href="#DejaVuSans-Bold-43" x="609.423828"/>
    <use xlink:href="#DejaVuSans-Bold-61" x="682.8125"/>
    <use xlink:href="#DejaVuSans-Bold-73" x="750.292969"/>
    <use xlink:href="#DejaVuSans-Bold-31" x="809.814453"/>
    <use xlink:href="#DejaVuSans-Bold-33" x="879.394531"/>
    <use xlink:href="#DejaVuSans-Bold-3d" x="948.974609"/>
    <use xlink:href="#DejaVuSans-Bold-34" x="1032.763672"/>
    <use xlink:href="#DejaVuSans-Bold-2e" x="1102.34375"/>
    <use xlink:href="#DejaVuSans-Bold-35" x="1140.332031"/>
    <use xlink:href="#DejaVuSans-Bold-20" x="1209.912109"/>
    <use xlink:href="#DejaVuSans-Bold-72" x="1244.726562"/>
    <use xlink:href="#DejaVuSans-Bold-65" x="1294.042969"/>
    <use xlink:href="#DejaVuSans-Bold-70" x="1361.865234"/>
    <use xlink:href="#DejaVuSans-Bold-32" x="1433.447266"/>
   </g>
  </g>
 </g>
 <defs>
  <clipPath id="p195680912b">
   <rect x="51.716875" y="49.094062" width="155.974063" height="155.974063"/>
  </clipPath>
  <clipPath id="p9e2d0e7984">
   <rect x="335.65267" y="49.094062" width="155.974063" height="155.974063"/>
  </clipPath>
  <clipPath id="p1471825a22">
   <rect x="619.588466" y="49.094062" width="155.974063" height="155.974063"/>
  </clipPath>
 </defs>
</svg>
